999
dxflib 2.0.4.8
  0
SECTION
  2
HEADER
  9
$ACADVER
  1
AC1015
  9
$HANDSEED
  5
FFFF
  9
$DIMASZ
 40
2.5
  9
$DIMGAP
 40
0.625
  9
$DIMEXO
 40
0.625
  9
$INSUNITS
 70
4
  9
$DIMTXT
 40
2.5
  9
$DIMSTYLE
  2
Standard
  9
$PLIMMAX
 10
210.0
 20
297.0
  9
$PLIMMIN
 10
0.0
 20
0.0
  9
$DIMEXE
 40
1.25
  0
ENDSEC
  0
SECTION
  2
TABLES
  0
TABLE
  2
VPORT
  5
8
100
AcDbSymbolTable
 70
1
  0
VPORT
  5
30
100
AcDbSymbolTableRecord
100
AcDbViewportTableRecord
  2
*Active
 70
0
 10
0.0
 20
0.0
 11
1.0
 21
1.0
 12
286.3055555555554861
 22
148.5
 13
0.0
 23
0.0
 14
10.0
 24
10.0
 15
10.0
 25
10.0
 16
0.0
 26
0.0
 36
1.0
 17
0.0
 27
0.0
 37
0.0
 40
297.0
 41
1.92798353909465
 42
50.0
 43
0.0
 44
0.0
 50
0.0
 51
0.0
 71
0
 72
100
 73
1
 74
3
 75
1
 76
1
 77
0
 78
0
281
0
 65
1
110
0.0
120
0.0
130
0.0
111
1.0
121
0.0
131
0.0
112
0.0
122
1.0
132
0.0
 79
0
146
0.0
  0
ENDTAB
  0
TABLE
  2
LTYPE
  5
5
100
AcDbSymbolTable
 70
21
  0
LTYPE
  5
14
100
AcDbSymbolTableRecord
100
AcDbLinetypeTableRecord
  2
ByBlock
 70
0
  3

 72
65
 73
0
 40
0.0
  0
LTYPE
  5
15
100
AcDbSymbolTableRecord
100
AcDbLinetypeTableRecord
  2
ByLayer
 70
0
  3

 72
65
 73
0
 40
0.0
  0
LTYPE
  5
16
100
AcDbSymbolTableRecord
100
AcDbLinetypeTableRecord
  2
CONTINUOUS
 70
0
  3
Solid line
 72
65
 73
0
 40
0.0
  0
LTYPE
  5
31
100
AcDbSymbolTableRecord
100
AcDbLinetypeTableRecord
  2
DOT
 70
0
  3
Dot . . . . . . . . . . . . . . . . . . . . . .
 72
65
 73
2
 40
6.3499999999999996
 49
0.0
 74
0
 49
-6.3499999999999996
 74
0
  0
LTYPE
  5
32
100
AcDbSymbolTableRecord
100
AcDbLinetypeTableRecord
  2
DOT2
 70
0
  3
Dot (.5x) .....................................
 72
65
 73
2
 40
3.1749999999999998
 49
0.0
 74
0
 49
-3.1749999999999998
 74
0
  0
LTYPE
  5
33
100
AcDbSymbolTableRecord
100
AcDbLinetypeTableRecord
  2
DOTX2
 70
0
  3
Dot (2x) .  .  .  .  .  .  .  .  .  .  .  .  .
 72
65
 73
2
 40
12.6999999999999993
 49
0.0
 74
0
 49
-12.6999999999999993
 74
0
  0
LTYPE
  5
34
100
AcDbSymbolTableRecord
100
AcDbLinetypeTableRecord
  2
DASHED
 70
0
  3
Dashed __ __ __ __ __ __ __ __ __ __ __ __ __ _
 72
65
 73
2
 40
19.0500000000000007
 49
12.6999999999999993
 74
0
 49
-6.3499999999999996
 74
0
  0
LTYPE
  5
35
100
AcDbSymbolTableRecord
100
AcDbLinetypeTableRecord
  2
DASHED2
 70
0
  3
Dashed (.5x) _ _ _ _ _ _ _ _ _ _ _ _ _ _ _ _ _
 72
65
 73
2
 40
9.5250000000000004
 49
6.3499999999999996
 74
0
 49
-3.1749999999999998
 74
0
  0
LTYPE
  5
36
100
AcDbSymbolTableRecord
100
AcDbLinetypeTableRecord
  2
DASHEDX2
 70
0
  3
Dashed (2x) ____  ____  ____  ____  ____  ___
 72
65
 73
2
 40
38.1000000000000014
 49
25.3999999999999986
 74
0
 49
-12.6999999999999993
 74
0
  0
LTYPE
  5
37
100
AcDbSymbolTableRecord
100
AcDbLinetypeTableRecord
  2
DASHDOT
 70
0
  3
Dash dot __ . __ . __ . __ . __ . __ . __ . __
 72
65
 73
4
 40
25.3999999999999986
 49
12.6999999999999993
 74
0
 49
-6.3499999999999996
 74
0
 49
0.0
 74
0
 49
-6.3499999999999996
 74
0
  0
LTYPE
  5
38
100
AcDbSymbolTableRecord
100
AcDbLinetypeTableRecord
  2
DASHDOT2
 70
0
  3
Dash dot (.5x) _._._._._._._._._._._._._._._.
 72
65
 73
4
 40
12.6999999999999993
 49
6.3499999999999996
 74
0
 49
-3.1749999999999998
 74
0
 49
0.0
 74
0
 49
-3.1749999999999998
 74
0
  0
LTYPE
  5
39
100
AcDbSymbolTableRecord
100
AcDbLinetypeTableRecord
  2
DASHDOTX2
 70
0
  3
Dash dot (2x) ____  .  ____  .  ____  .  ___
 72
65
 73
4
 40
50.7999999999999972
 49
25.3999999999999986
 74
0
 49
-12.6999999999999993
 74
0
 49
0.0
 74
0
 49
-12.6999999999999993
 74
0
  0
LTYPE
  5
3A
100
AcDbSymbolTableRecord
100
AcDbLinetypeTableRecord
  2
DIVIDE
 70
0
  3
Divide ____ . . ____ . . ____ . . ____ . . ____
 72
65
 73
6
 40
31.75
 49
12.6999999999999993
 74
0
 49
-6.3499999999999996
 74
0
 49
0.0
 74
0
 49
-6.3499999999999996
 74
0
 49
0.0
 74
0
 49
-6.3499999999999996
 74
0
  0
LTYPE
  5
3B
100
AcDbSymbolTableRecord
100
AcDbLinetypeTableRecord
  2
DIVIDE2
 70
0
  3
Divide (.5x) __..__..__..__..__..__..__..__.._
 72
65
 73
6
 40
15.875
 49
6.3499999999999996
 74
0
 49
-3.1749999999999998
 74
0
 49
0.0
 74
0
 49
-3.1749999999999998
 74
0
 49
0.0
 74
0
 49
-3.1749999999999998
 74
0
  0
LTYPE
  5
3C
100
AcDbSymbolTableRecord
100
AcDbLinetypeTableRecord
  2
DIVIDEX2
 70
0
  3
Divide (2x) ________  .  .  ________  .  .  _
 72
65
 73
6
 40
63.5
 49
25.3999999999999986
 74
0
 49
-12.6999999999999993
 74
0
 49
0.0
 74
0
 49
-12.6999999999999993
 74
0
 49
0.0
 74
0
 49
-12.6999999999999993
 74
0
  0
LTYPE
  5
3D
100
AcDbSymbolTableRecord
100
AcDbLinetypeTableRecord
  2
CENTER
 70
0
  3
Center ____ _ ____ _ ____ _ ____ _ ____ _ ____
 72
65
 73
4
 40
50.7999999999999972
 49
31.75
 74
0
 49
-6.3499999999999996
 74
0
 49
6.3499999999999996
 74
0
 49
-6.3499999999999996
 74
0
  0
LTYPE
  5
3E
100
AcDbSymbolTableRecord
100
AcDbLinetypeTableRecord
  2
CENTER2
 70
0
  3
Center (.5x) ___ _ ___ _ ___ _ ___ _ ___ _ ___
 72
65
 73
4
 40
28.5749999999999993
 49
19.0500000000000007
 74
0
 49
-3.1749999999999998
 74
0
 49
3.1749999999999998
 74
0
 49
-3.1749999999999998
 74
0
  0
LTYPE
  5
3F
100
AcDbSymbolTableRecord
100
AcDbLinetypeTableRecord
  2
CENTERX2
 70
0
  3
Center (2x) ________  __  ________  __  _____
 72
65
 73
4
 40
101.5999999999999943
 49
63.5
 74
0
 49
-12.6999999999999993
 74
0
 49
12.6999999999999993
 74
0
 49
-12.6999999999999993
 74
0
  0
LTYPE
  5
40
100
AcDbSymbolTableRecord
100
AcDbLinetypeTableRecord
  2
BORDER
 70
0
  3
Border __ __ . __ __ . __ __ . __ __ . __ __ .
 72
65
 73
6
 40
44.4500000000000028
 49
12.6999999999999993
 74
0
 49
-6.3499999999999996
 74
0
 49
12.6999999999999993
 74
0
 49
-6.3499999999999996
 74
0
 49
0.0
 74
0
 49
-6.3499999999999996
 74
0
  0
LTYPE
  5
41
100
AcDbSymbolTableRecord
100
AcDbLinetypeTableRecord
  2
BORDER2
 70
0
  3
Border (.5x) __.__.__.__.__.__.__.__.__.__.__.
 72
65
 73
6
 40
22.2250000000000014
 49
6.3499999999999996
 74
0
 49
-3.1749999999999998
 74
0
 49
6.3499999999999996
 74
0
 49
-3.1749999999999998
 74
0
 49
0.0
 74
0
 49
-3.1749999999999998
 74
0
  0
LTYPE
  5
42
100
AcDbSymbolTableRecord
100
AcDbLinetypeTableRecord
  2
BORDERX2
 70
0
  3
Border (2x) ____  ____  .  ____  ____  .  ___
 72
65
 73
6
 40
88.9000000000000057
 49
25.3999999999999986
 74
0
 49
-12.6999999999999993
 74
0
 49
25.3999999999999986
 74
0
 49
-12.6999999999999993
 74
0
 49
0.0
 74
0
 49
-12.6999999999999993
 74
0
  0
ENDTAB
  0
TABLE
  2
LAYER
  5
2
100
AcDbSymbolTable
 70
1
  0
LAYER
  5
10
100
AcDbSymbolTableRecord
100
AcDbLayerTableRecord
  2
0
 70
0
 62
7
  6
CONTINUOUS
370
0
390
F
  0
ENDTAB
  0
TABLE
  2
STYLE
  5
3
100
AcDbSymbolTable
 70
1
  0
STYLE
  5
11
100
AcDbSymbolTableRecord
100
AcDbTextStyleTableRecord
  2
Standard
 70
0
 40
0.0
 41
0.75
 50
0.0
 71
0
 42
2.5
  3
txt
  4

  0
ENDTAB
  0
TABLE
  2
VIEW
  5
6
100
AcDbSymbolTable
 70
0
  0
ENDTAB
  0
TABLE
  2
UCS
  5
7
100
AcDbSymbolTable
 70
0
  0
ENDTAB
  0
TABLE
  2
APPID
  5
9
100
AcDbSymbolTable
 70
1
  0
APPID
  5
12
100
AcDbSymbolTableRecord
100
AcDbRegAppTableRecord
  2
ACAD
 70
0
  0
ENDTAB
  0
TABLE
  2
DIMSTYLE
  5
A
100
AcDbSymbolTable
 70
1
100
AcDbDimStyleTable
 71
0
  0
DIMSTYLE
105
27
100
AcDbSymbolTableRecord
100
AcDbDimStyleTableRecord
  2
Standard
 41
2.5
 42
0.625
 43
3.75
 44
1.25
 70
0
 73
0
 74
0
 77
1
 78
8
140
2.5
141
2.5
143
0.03937007874016
147
0.625
171
3
172
1
271
2
272
2
274
3
278
44
283
0
284
8
340
11
  0
ENDTAB
  0
TABLE
  2
BLOCK_RECORD
  5
1
100
AcDbSymbolTable
 70
1
  0
BLOCK_RECORD
  5
1F
100
AcDbSymbolTableRecord
100
AcDbBlockTableRecord
  2
*Model_Space
340
22
  0
BLOCK_RECORD
  5
1B
100
AcDbSymbolTableRecord
100
AcDbBlockTableRecord
  2
*Paper_Space
340
1E
  0
BLOCK_RECORD
  5
23
100
AcDbSymbolTableRecord
100
AcDbBlockTableRecord
  2
*Paper_Space0
340
26
  0
ENDTAB
  0
ENDSEC
  0
SECTION
  2
BLOCKS
  0
BLOCK
  5
20
100
AcDbEntity
  8
0
100
AcDbBlockBegin
  2
*Model_Space
 70
0
 10
0.0
 20
0.0
 30
0.0
  3
*Model_Space
  1

  0
ENDBLK
  5
21
100
AcDbEntity
  8
0
100
AcDbBlockEnd
  0
BLOCK
  5
1C
100
AcDbEntity
 67
1
  8
0
100
AcDbBlockBegin
  2
*Paper_Space
 70
0
 10
0.0
 20
0.0
 30
0.0
  3
*Paper_Space
  1

  0
ENDBLK
  5
1D
100
AcDbEntity
 67
1
  8
0
100
AcDbBlockEnd
  0
BLOCK
  5
24
100
AcDbEntity
  8
0
100
AcDbBlockBegin
  2
*Paper_Space0
 70
0
 10
0.0
 20
0.0
 30
0.0
  3
*Paper_Space0
  1

  0
ENDBLK
  5
25
100
AcDbEntity
  8
0
100
AcDbBlockEnd
  0
ENDSEC
  0
SECTION
  2
ENTITIES
  0
CIRCLE
  5
43
100
AcDbEntity
100
AcDbCircle
  8
0
 62
256
370
-1
  6
ByLayer
 10
59.5
 20
249.1000000000000227
 30
0.0
 40
4.0
  0
CIRCLE
  5
44
100
AcDbEntity
100
AcDbCircle
  8
0
 62
256
370
-1
  6
ByLayer
 10
73.5000000000000142
 20
249.1000000000000227
 30
0.0
 40
4.0
  0
CIRCLE
  5
45
100
AcDbEntity
100
AcDbCircle
  8
0
 62
256
370
-1
  6
ByLayer
 10
87.5000000000000142
 20
249.1000000000000227
 30
0.0
 40
4.0
  0
LINE
  5
46
100
AcDbEntity
100
AcDbLine
  8
0
 62
256
370
-1
  6
ByLayer
 10
36.2222666666666697
 20
266.6000000000000227
 30
0.0
 11
36.2222666666666697
 21
262.5999995555555415
 31
0.0
  0
LINE
  5
47
100
AcDbEntity
100
AcDbLine
  8
0
 62
256
370
-1
  6
ByLayer
 10
37.5556004444444511
 20
262.6000000000000227
 30
0.0
 11
37.5555999999999983
 21
266.6000000000000227
 31
0.0
  0
LINE
  5
48
100
AcDbEntity
100
AcDbLine
  8
0
 62
256
370
-1
  6
ByLayer
 10
37.5555999999999983
 20
266.6000000000000227
 30
0.0
 11
38.888933333333334
 21
266.6000000000000227
 31
0.0
  0
LINE
  5
49
100
AcDbEntity
100
AcDbLine
  8
0
 62
256
370
-1
  6
ByLayer
 10
39.7778222222222198
 20
265.7111111111111086
 30
0.0
 11
39.7778222222222198
 21
265.2666662222222271
 31
0.0
  0
LINE
  5
4A
100
AcDbEntity
100
AcDbLine
  8
0
 62
256
370
-1
  6
ByLayer
 10
38.888933333333334
 20
264.3777777777777942
 30
0.0
 11
37.5555999999999983
 21
264.3777777777777942
 31
0.0
  0
LINE
  5
4B
100
AcDbEntity
100
AcDbLine
  8
0
 62
256
370
-1
  6
ByLayer
 10
38.888933333333334
 20
264.3777777777777942
 30
0.0
 11
39.7778222222222198
 21
262.599999555733234
 31
0.0
  0
ARC
  5
4C
100
AcDbEntity
  8
0
 62
256
370
-1
  6
ByLayer
100
AcDbCircle
 10
38.888933333333334
 20
265.7111111111111086
 30
0.0
 40
0.8888888888888888
100
AcDbArc
 50
0.0
 51
90.0
  0
ARC
  5
4D
100
AcDbEntity
  8
0
 62
256
370
-1
  6
ByLayer
100
AcDbCircle
 10
38.888933333333334
 20
265.2666662222222271
 30
0.0
 40
0.8888888888888888
100
AcDbArc
 50
270.0
 51
0.0
  0
LINE
  5
4E
100
AcDbEntity
100
AcDbLine
  8
0
 62
256
370
-1
  6
ByLayer
 10
102.3332665619288662
 20
266.6000000000000227
 30
0.0
 11
102.3332665619288662
 21
263.7111111111111086
 31
0.0
  0
LINE
  5
4F
100
AcDbEntity
100
AcDbLine
  8
0
 62
256
370
-1
  6
ByLayer
 10
104.5554887841510805
 20
263.7111111111111086
 30
0.0
 11
104.5554887841510805
 21
266.6000000000000227
 31
0.0
  0
ARC
  5
50
100
AcDbEntity
  8
0
 62
256
370
-1
  6
ByLayer
100
AcDbCircle
 10
103.4443776730399662
 20
263.7111111111111086
 30
0.0
 40
1.1111111111111112
100
AcDbArc
 50
180.0
 51
0.0
  0
LINE
  5
51
100
AcDbEntity
100
AcDbLine
  8
0
 62
256
370
-1
  6
ByLayer
 10
106.373977673039974
 20
264.9192391111110965
 30
0.0
 11
107.6258443397066458
 21
264.2807595555555622
 31
0.0
  0
ARC
  5
52
100
AcDbEntity
  8
0
 62
256
370
-1
  6
ByLayer
100
AcDbCircle
 10
106.7777554508177644
 20
263.6555551111111413
 30
0.0
 40
2.9444444444444442
100
AcDbArc
 50
63.0745840000000015
 51
90.0
  0
ARC
  5
53
100
AcDbEntity
  8
0
 62
256
370
-1
  6
ByLayer
100
AcDbCircle
 10
106.7777554508177644
 20
265.7111111111111086
 30
0.0
 40
0.8888888888888888
100
AcDbArc
 50
90.0
 51
242.9811799999999948
  0
ARC
  5
54
100
AcDbEntity
  8
0
 62
256
370
-1
  6
ByLayer
100
AcDbCircle
 10
107.2221998952622073
 20
263.4888888888889369
 30
0.0
 40
0.8888888888888888
100
AcDbArc
 50
270.0
 51
62.9811850000000035
  0
ARC
  5
55
100
AcDbEntity
  8
0
 62
256
370
-1
  6
ByLayer
100
AcDbCircle
 10
107.2221998952622073
 20
265.5444439999999986
 30
0.0
 40
2.9444444444444442
100
AcDbArc
 50
243.0745799999999974
 51
270.0
  0
LINE
  5
56
100
AcDbEntity
100
AcDbLine
  8
0
 62
256
370
-1
  6
ByLayer
 10
109.4443778825155817
 20
262.5999995555555415
 30
0.0
 11
109.4443778825155817
 21
266.6000000000000227
 31
0.0
  0
LINE
  5
57
100
AcDbEntity
100
AcDbLine
  8
0
 62
256
370
-1
  6
ByLayer
 10
109.4443778825155817
 20
266.6000000000000227
 30
0.0
 11
110.5554889936266818
 21
266.6000000000000227
 31
0.0
  0
LINE
  5
58
100
AcDbEntity
100
AcDbLine
  8
0
 62
256
370
-1
  6
ByLayer
 10
109.4443778825155817
 20
264.8222217777778269
 30
0.0
 11
110.5999778825155744
 21
264.8222217777778269
 31
0.0
  0
LINE
  5
59
100
AcDbEntity
100
AcDbLine
  8
0
 62
256
370
-1
  6
ByLayer
 10
111.6666001047377961
 20
263.7555551111111072
 30
0.0
 11
111.6666001047377961
 21
263.66666577777778
 31
0.0
  0
LINE
  5
5A
100
AcDbEntity
100
AcDbLine
  8
0
 62
256
370
-1
  6
ByLayer
 10
110.5999778825155744
 20
262.5999995556265958
 30
0.0
 11
109.4443778825155817
 21
262.5999995555555415
 31
0.0
  0
ARC
  5
5B
100
AcDbEntity
  8
0
 62
256
370
-1
  6
ByLayer
100
AcDbCircle
 10
110.5554889936266818
 20
265.7111111111111086
 30
0.0
 40
0.8888888888888888
100
AcDbArc
 50
270.0
 51
90.0
  0
ARC
  5
5C
100
AcDbEntity
  8
0
 62
256
370
-1
  6
ByLayer
100
AcDbCircle
 10
110.5999778825155744
 20
263.7555551111111072
 30
0.0
 40
1.0666666666666667
100
AcDbArc
 50
0.0
 51
90.0
  0
ARC
  5
5D
100
AcDbEntity
  8
0
 62
256
370
-1
  6
ByLayer
100
AcDbCircle
 10
110.5999778825155744
 20
263.66666577777778
 30
0.0
 40
1.0666666666666667
100
AcDbArc
 50
270.0
 51
0.0
  0
LINE
  5
5E
100
AcDbEntity
100
AcDbLine
  8
0
 62
256
370
-1
  6
ByLayer
 10
39.611133444444441
 20
252.7376382467243161
 30
0.0
 11
41.3431841409022098
 21
253.7376384391743613
 31
0.0
  0
LINE
  5
5F
100
AcDbEntity
100
AcDbLine
  8
0
 62
256
370
-1
  6
ByLayer
 10
41.3431841409022098
 20
253.7376384391743613
 30
0.0
 11
41.6765174742355455
 21
253.1602881699847671
 31
0.0
  0
LINE
  5
60
100
AcDbEntity
100
AcDbLine
  8
0
 62
256
370
-1
  6
ByLayer
 10
41.5138395169980043
 20
252.5531657683027902
 30
0.0
 11
41.3213892348180494
 21
252.4420545460805556
 31
0.0
  0
LINE
  5
61
100
AcDbEntity
100
AcDbLine
  8
0
 62
256
370
-1
  6
ByLayer
 10
40.7142670255861674
 20
252.6047326144291674
 30
0.0
 11
40.3809336922528317
 21
253.1820828836188184
 31
0.0
  0
LINE
  5
62
100
AcDbEntity
100
AcDbLine
  8
0
 62
256
370
-1
  6
ByLayer
 10
40.7142670255861674
 20
252.6047326144291674
 30
0.0
 11
40.1666886965157275
 21
251.7753878794583215
 31
0.0
  0
ARC
  5
63
100
AcDbEntity
  8
0
 62
256
370
-1
  6
ByLayer
100
AcDbCircle
 10
41.2916172947757829
 20
252.9380659477625386
 30
0.0
 40
0.4444444444444444
100
AcDbArc
 50
300.0
 51
30.0000000000000178
  0
ARC
  5
64
100
AcDbEntity
  8
0
 62
256
370
-1
  6
ByLayer
100
AcDbCircle
 10
41.0991670125958208
 20
252.826954725540304
 30
0.0
 40
0.4444444444444444
100
AcDbArc
 50
209.9999999999999716
 51
300.0
  0
LINE
  5
65
100
AcDbEntity
100
AcDbLine
  8
0
 62
256
370
-1
  6
ByLayer
 10
42.6765063631244317
 20
251.428256607424828
 30
0.0
 11
42.2320730297910956
 21
252.1980377213353677
 31
0.0
  0
LINE
  5
66
100
AcDbEntity
100
AcDbLine
  8
0
 62
256
370
-1
  6
ByLayer
 10
42.2320730297910956
 20
252.1980377213353677
 30
0.0
 11
40.5000223333333267
 21
251.1980375288853224
 31
0.0
  0
LINE
  5
67
100
AcDbEntity
100
AcDbLine
  8
0
 62
256
370
-1
  6
ByLayer
 10
40.5000223333333267
 20
251.1980375288853224
 30
0.0
 11
40.9444553632727164
 21
250.428256496410313
 31
0.0
  0
LINE
  5
68
100
AcDbEntity
100
AcDbLine
  8
0
 62
256
370
-1
  6
ByLayer
 10
41.462272478421518
 20
251.7535931657798756
 30
0.0
 11
41.7955947006437398
 21
251.1762621415991816
 31
0.0
  0
LINE
  5
69
100
AcDbEntity
100
AcDbLine
  8
0
 62
256
370
-1
  6
ByLayer
 10
41.2777889999999914
 20
249.8509061457851885
 30
0.0
 11
43.0098396964577603
 21
250.8509063382352338
 31
0.0
  0
LINE
  5
6A
100
AcDbEntity
100
AcDbLine
  8
0
 62
256
370
-1
  6
ByLayer
 10
43.0098396964577603
 20
250.8509063382352338
 30
0.0
 11
41.8333331409640152
 21
248.888675023530368
 31
0.0
  0
LINE
  5
6B
100
AcDbEntity
100
AcDbLine
  8
0
 62
256
370
-1
  6
ByLayer
 10
41.8333331409640152
 20
248.888675023530368
 30
0.0
 11
43.5653841409022036
 21
249.8886751345947914
 31
0.0
  0
LINE
  5
6C
100
AcDbEntity
100
AcDbLine
  8
0
 62
256
370
-1
  6
ByLayer
 10
42.1666553631054697
 20
248.3113439993030624
 30
0.0
 11
42.4999886965221378
 21
247.7339937301615578
 31
0.0
  0
LINE
  5
6D
100
AcDbEntity
100
AcDbLine
  8
0
 62
256
370
-1
  6
ByLayer
 10
43.1071112905708702
 20
247.5713158839870403
 30
0.0
 11
44.069361739220227
 21
248.1268714395425832
 31
0.0
  0
LINE
  5
6E
100
AcDbEntity
100
AcDbLine
  8
0
 62
256
370
-1
  6
ByLayer
 10
44.2320396964577611
 20
248.7339938412245601
 30
0.0
 11
43.8987063631244325
 21
249.3113441104141543
 31
0.0
  0
LINE
  5
6F
100
AcDbEntity
100
AcDbLine
  8
0
 62
256
370
-1
  6
ByLayer
 10
43.8987063631244325
 20
249.3113441104141543
 30
0.0
 11
42.1666553631054697
 21
248.3113439993030624
 31
0.0
  0
ARC
  5
70
100
AcDbEntity
  8
0
 62
256
370
-1
  6
ByLayer
100
AcDbCircle
 10
42.8848890683486488
 20
247.9562160634467318
 30
0.0
 40
0.4444444444444444
100
AcDbArc
 50
209.9999999999999716
 51
300.0
  0
ARC
  5
71
100
AcDbEntity
  8
0
 62
256
370
-1
  6
ByLayer
100
AcDbCircle
 10
43.8471395169979985
 20
248.5117716190023316
 30
0.0
 40
0.4444444444444444
100
AcDbArc
 50
300.0
 51
30.0000000000000178
  0
LINE
  5
72
100
AcDbEntity
100
AcDbLine
  8
0
 62
256
370
-1
  6
ByLayer
 10
45.2320285853466544
 20
247.0019622786646778
 30
0.0
 11
44.7875952520133183
 21
247.7717433925752175
 31
0.0
  0
LINE
  5
73
100
AcDbEntity
100
AcDbLine
  8
0
 62
256
370
-1
  6
ByLayer
 10
44.7875952520133183
 20
247.7717433925752175
 30
0.0
 11
43.0555445555555494
 21
246.7717432001251154
 31
0.0
  0
LINE
  5
74
100
AcDbEntity
100
AcDbLine
  8
0
 62
256
370
-1
  6
ByLayer
 10
43.0555445555555494
 20
246.7717432001251154
 30
0.0
 11
43.4999775854949391
 21
246.001962167650106
 31
0.0
  0
LINE
  5
75
100
AcDbEntity
100
AcDbLine
  8
0
 62
256
370
-1
  6
ByLayer
 10
44.0177947006437407
 20
247.3272988370196117
 30
0.0
 11
44.3511169228659625
 21
246.7499678128390315
 31
0.0
  0
LINE
  5
76
100
AcDbEntity
100
AcDbLine
  8
0
 62
256
370
-1
  6
ByLayer
 10
43.8333112222222212
 20
245.4246118170249247
 30
0.0
 11
45.5653619186799901
 21
246.4246120094750268
 31
0.0
  0
LINE
  5
77
100
AcDbEntity
100
AcDbLine
  8
0
 62
256
370
-1
  6
ByLayer
 10
45.5653619186799901
 20
246.4246120094750268
 30
0.0
 11
45.8986952520133258
 21
245.8472617402853757
 31
0.0
  0
LINE
  5
78
100
AcDbEntity
100
AcDbLine
  8
0
 62
256
370
-1
  6
ByLayer
 10
45.7360172947757846
 20
245.2401393386033988
 30
0.0
 11
45.5435670125958296
 21
245.1290281163811642
 31
0.0
  0
LINE
  5
79
100
AcDbEntity
100
AcDbLine
  8
0
 62
256
370
-1
  6
ByLayer
 10
44.9364448033639476
 20
245.2917061847298328
 30
0.0
 11
44.6031114700306119
 21
245.8690564539194838
 31
0.0
  0
LINE
  5
7A
100
AcDbEntity
100
AcDbLine
  8
0
 62
256
370
-1
  6
ByLayer
 10
44.9364448033639476
 20
245.2917061847298328
 30
0.0
 11
44.3888664742935077
 21
244.462361449758987
 31
0.0
  0
ARC
  5
7B
100
AcDbEntity
  8
0
 62
256
370
-1
  6
ByLayer
100
AcDbCircle
 10
45.5137950725535632
 20
245.625039518063204
 30
0.0
 40
0.4444444444444444
100
AcDbArc
 50
300.0
 51
30.0000000000000178
  0
ARC
  5
7C
100
AcDbEntity
  8
0
 62
256
370
-1
  6
ByLayer
100
AcDbCircle
 10
45.3213447903736011
 20
245.5139282958409694
 30
0.0
 40
0.4444444444444444
100
AcDbArc
 50
209.9999999999999716
 51
300.0
  0
LINE
  5
7D
100
AcDbEntity
100
AcDbLine
  8
0
 62
256
370
-1
  6
ByLayer
 10
46.4626890683486522
 20
247.4731285604574964
 30
0.0
 11
47.4249395169980019
 21
248.0286841160130393
 31
0.0
  0
LINE
  5
7E
100
AcDbEntity
100
AcDbLine
  8
0
 62
256
370
-1
  6
ByLayer
 10
48.032061918679986
 20
247.8660061587755195
 30
0.0
 11
48.1431619186799864
 21
247.6735753140546308
 31
0.0
  0
LINE
  5
7F
100
AcDbEntity
100
AcDbLine
  8
0
 62
256
370
-1
  6
ByLayer
 10
47.9804839614424452
 20
247.066452912372597
 30
0.0
 11
47.0182335127930955
 21
246.5108973568170541
 31
0.0
  0
LINE
  5
80
100
AcDbEntity
100
AcDbLine
  8
0
 62
256
370
-1
  6
ByLayer
 10
46.4111109187443631
 20
246.6735752029916284
 30
0.0
 11
46.3000109186524682
 21
246.8660060476594822
 31
0.0
  0
ARC
  5
81
100
AcDbEntity
  8
0
 62
256
370
-1
  6
ByLayer
100
AcDbCircle
 10
47.6471617392202234
 20
247.6437839365532909
 30
0.0
 40
0.4444444444444444
100
AcDbArc
 50
30.0000000000000178
 51
120.0000000000000711
  0
ARC
  5
82
100
AcDbEntity
  8
0
 62
256
370
-1
  6
ByLayer
100
AcDbCircle
 10
47.7582617392202238
 20
247.4513530918324022
 30
0.0
 40
0.4444444444444444
100
AcDbArc
 50
300.0
 51
30.0000000000000178
  0
ARC
  5
83
100
AcDbEntity
  8
0
 62
256
370
-1
  6
ByLayer
100
AcDbCircle
 10
46.7960112905708741
 20
246.8957975362768593
 30
0.0
 40
0.4444444444444444
100
AcDbArc
 50
209.9999999999999716
 51
300.0
  0
ARC
  5
84
100
AcDbEntity
  8
0
 62
256
370
-1
  6
ByLayer
100
AcDbCircle
 10
46.6849112905708736
 20
247.088228380997748
 30
0.0
 40
0.4444444444444444
100
AcDbArc
 50
120.0000000000000711
 51
209.9999999999999716
  0
LINE
  5
85
100
AcDbEntity
100
AcDbLine
  8
0
 62
256
370
-1
  6
ByLayer
 10
46.9666667777777747
 20
245.7113246729551292
 30
0.0
 11
48.6987174742355435
 21
246.7113248654052313
 31
0.0
  0
LINE
  5
86
100
AcDbEntity
100
AcDbLine
  8
0
 62
256
370
-1
  6
ByLayer
 10
48.6987174742355435
 20
246.7113248654052313
 30
0.0
 11
47.5222109187417985
 21
244.7490935507003655
 31
0.0
  0
LINE
  5
87
100
AcDbEntity
100
AcDbLine
  8
0
 62
256
370
-1
  6
ByLayer
 10
47.5222109187417985
 20
244.7490935507003655
 30
0.0
 11
49.2542619186799868
 21
245.7490936617648458
 31
0.0
  0
LINE
  5
88
100
AcDbEntity
100
AcDbLine
  8
0
 62
256
370
-1
  6
ByLayer
 10
46.2144376963355299
 20
254.9583339026515318
 30
0.0
 11
46.2509346055481316
 21
254.2566398460204482
 31
0.0
  0
ARC
  5
89
100
AcDbEntity
  8
0
 62
256
370
-1
  6
ByLayer
100
AcDbCircle
 10
45.7681909176020056
 20
254.4675719961319373
 30
0.0
 40
1.4722222222222221
100
AcDbArc
 50
3.0745840000000215
 51
30.0000000000000178
  0
ARC
  5
8A
100
AcDbEntity
  8
0
 62
256
370
-1
  6
ByLayer
100
AcDbCircle
 10
46.6582727750527511
 20
254.9814609961318865
 30
0.0
 40
0.4444444444444444
100
AcDbArc
 50
30.0000000000000178
 51
182.9811799999999948
  0
ARC
  5
8B
100
AcDbEntity
  8
0
 62
256
370
-1
  6
ByLayer
100
AcDbCircle
 10
45.8071334375145085
 20
254.2334553508464978
 30
0.0
 40
0.4444444444444444
100
AcDbArc
 50
209.9999999999999716
 51
2.9811849999999964
  0
ARC
  5
8C
100
AcDbEntity
  8
0
 62
256
370
-1
  6
ByLayer
100
AcDbCircle
 10
46.6972149100650711
 20
254.7473441286242632
 30
0.0
 40
1.4722222222222221
100
AcDbArc
 50
183.0745800000000543
 51
209.9999999999999716
  0
LINE
  5
8D
100
AcDbEntity
100
AcDbLine
  8
0
 62
256
370
-1
  6
ByLayer
 10
47.709828562436968
 20
254.0490018342782719
 30
0.0
 11
48.3765174513258529
 21
252.8942628058811124
 31
0.0
  0
LINE
  5
8E
100
AcDbEntity
100
AcDbLine
  8
0
 62
256
370
-1
  6
ByLayer
 10
48.0431618957702966
 20
253.4716515650886777
 30
0.0
 11
46.3111108958346733
 21
252.4716514540256753
 31
0.0
  0
LINE
  5
8F
100
AcDbEntity
100
AcDbLine
  8
0
 62
256
370
-1
  6
ByLayer
 10
46.977788673529119
 20
251.3169316705893266
 30
0.0
 11
49.0431618957703037
 21
251.7396007575197814
 31
0.0
  0
LINE
  5
90
100
AcDbEntity
100
AcDbLine
  8
0
 62
256
370
-1
  6
ByLayer
 10
49.0431618957703037
 20
251.7396007575197814
 30
0.0
 11
47.6444775632627753
 21
250.1621926426798836
 31
0.0
  0
LINE
  5
91
100
AcDbEntity
100
AcDbLine
  8
0
 62
256
370
-1
  6
ByLayer
 10
47.5515140903038827
 20
251.4343216546973281
 30
0.0
 11
48.032991868081659
 21
250.6003776808708494
 31
0.0
  0
LINE
  5
92
100
AcDbEntity
100
AcDbLine
  8
0
 62
256
370
-1
  6
ByLayer
 10
47.9778111993125336
 20
249.5848422916635627
 30
0.0
 11
49.7098618957703025
 21
250.5848424841136648
 31
0.0
  0
LINE
  5
93
100
AcDbEntity
100
AcDbLine
  8
0
 62
256
370
-1
  6
ByLayer
 10
49.7098618957703025
 20
250.5848424841136648
 30
0.0
 11
48.5333553402765574
 21
248.6226111694087422
 31
0.0
  0
LINE
  5
94
100
AcDbEntity
100
AcDbLine
  8
0
 62
256
370
-1
  6
ByLayer
 10
48.5333553402765574
 20
248.6226111694087422
 30
0.0
 11
50.2654063402147457
 21
249.6226112804732225
 31
0.0
  0
LINE
  5
95
100
AcDbEntity
100
AcDbLine
  8
0
 62
256
370
-1
  6
ByLayer
 10
48.8666775624180048
 20
248.0452801451814366
 30
0.0
 11
49.2000108958346729
 21
247.4679298760399888
 31
0.0
  0
LINE
  5
96
100
AcDbEntity
100
AcDbLine
  8
0
 62
256
370
-1
  6
ByLayer
 10
49.8071334898834053
 20
247.3052520298654144
 30
0.0
 11
50.769383938532755
 21
247.8608075854209574
 31
0.0
  0
LINE
  5
97
100
AcDbEntity
100
AcDbLine
  8
0
 62
256
370
-1
  6
ByLayer
 10
50.9320618957702962
 20
248.4679299871029343
 30
0.0
 11
50.5987285624369676
 21
249.0452802562925854
 31
0.0
  0
LINE
  5
98
100
AcDbEntity
100
AcDbLine
  8
0
 62
256
370
-1
  6
ByLayer
 10
50.5987285624369676
 20
249.0452802562925854
 30
0.0
 11
48.8666775624180048
 21
248.0452801451814366
 31
0.0
  0
ARC
  5
99
100
AcDbEntity
  8
0
 62
256
370
-1
  6
ByLayer
100
AcDbCircle
 10
49.5849112676611838
 20
247.6901522093251629
 30
0.0
 40
0.4444444444444444
100
AcDbArc
 50
209.9999999999999716
 51
300.0
  0
ARC
  5
9A
100
AcDbEntity
  8
0
 62
256
370
-1
  6
ByLayer
100
AcDbCircle
 10
50.5471617163105336
 20
248.2457077648807626
 30
0.0
 40
0.4444444444444444
100
AcDbArc
 50
300.0
 51
30.0000000000000178
  0
LINE
  5
9B
100
AcDbEntity
100
AcDbLine
  8
0
 62
256
370
-1
  6
ByLayer
 10
49.7555553401957837
 20
246.5056986723514001
 30
0.0
 11
51.4876063402147466
 21
247.5056987834625488
 31
0.0
  0
LINE
  5
9C
100
AcDbEntity
100
AcDbLine
  8
0
 62
256
370
-1
  6
ByLayer
 10
51.4876063402147466
 20
247.5056987834625488
 30
0.0
 11
51.765384117992518
 21
247.0245735591378207
 31
0.0
  0
LINE
  5
9D
100
AcDbEntity
100
AcDbLine
  8
0
 62
256
370
-1
  6
ByLayer
 10
50.717805788845169
 20
247.0612542279069999
 30
0.0
 11
51.0067057888451671
 21
246.5608647496003414
 31
0.0
  0
LINE
  5
9E
100
AcDbEntity
100
AcDbLine
  8
0
 62
256
370
-1
  6
ByLayer
 10
50.8114811290489996
 20
245.8323371125909489
 30
0.0
 11
50.7729909186529369
 21
245.8101147792575603
 31
0.0
  0
LINE
  5
9F
100
AcDbEntity
100
AcDbLine
  8
0
 62
256
370
-1
  6
ByLayer
 10
50.0444553402265413
 20
246.0053091940625336
 30
0.0
 11
49.7555553401957837
 21
246.5056986723514001
 31
0.0
  0
ARC
  5
A0
100
AcDbEntity
  8
0
 62
256
370
-1
  6
ByLayer
100
AcDbCircle
 10
51.3804839385327554
 20
246.802351336915649
 30
0.0
 40
0.4444444444444444
100
AcDbArc
 50
209.9999999999999716
 51
30.0000000000000178
  0
ARC
  5
A1
100
AcDbEntity
  8
0
 62
256
370
-1
  6
ByLayer
100
AcDbCircle
 10
50.5448255734934406
 20
246.2941980829336899
 30
0.0
 40
0.5333333333333333
100
AcDbArc
 50
300.0
 51
30.0000000000000178
  0
ARC
  5
A2
100
AcDbEntity
  8
0
 62
256
370
-1
  6
ByLayer
100
AcDbCircle
 10
50.5063353630973779
 20
246.2719757496003012
 30
0.0
 40
0.5333333333333333
100
AcDbArc
 50
209.9999999999999716
 51
300.0
  0
LINE
  5
A3
100
AcDbEntity
100
AcDbLine
  8
0
 62
256
370
-1
  6
ByLayer
 10
52.3765063402147462
 20
245.966078820614598
 30
0.0
 11
51.9400391221785043
 21
244.944283995869398
 31
0.0
  0
LINE
  5
A4
100
AcDbEntity
100
AcDbLine
  8
0
 62
256
370
-1
  6
ByLayer
 10
51.9400391221785043
 20
244.944283995869398
 30
0.0
 11
50.9777886734137624
 21
244.3887284402472346
 31
0.0
  0
LINE
  5
A5
100
AcDbEntity
100
AcDbLine
  8
0
 62
256
370
-1
  6
ByLayer
 10
51.9400391221785043
 20
244.944283995869398
 30
0.0
 11
53.0431730068814176
 21
244.811378282235296
 31
0.0
  0
LINE
  5
A6
100
AcDbEntity
100
AcDbLine
  8
0
 62
256
370
-1
  6
ByLayer
 10
5.0
 20
238.6000000000000227
 30
0.0
 11
5.0
 21
275.1999999999999886
 31
0.0
  0
LINE
  5
A7
100
AcDbEntity
100
AcDbLine
  8
0
 62
256
370
-1
  6
ByLayer
 10
136.0000000000000284
 20
238.6000000000000796
 30
0.0
 11
136.0
 21
275.1999999999999886
 31
0.0
  0
LINE
  5
A8
100
AcDbEntity
100
AcDbLine
  8
0
 62
256
370
-1
  6
ByLayer
 10
60.0
 20
278.1999999999999318
 30
0.0
 11
81.0
 21
278.1999999999997613
 31
0.0
  0
LINE
  5
A9
100
AcDbEntity
100
AcDbLine
  8
0
 62
256
370
-1
  6
ByLayer
 10
81.0
 20
278.1999999999997613
 30
0.0
 11
81.0
 21
275.1999999999999886
 31
0.0
  0
LINE
  5
AA
100
AcDbEntity
100
AcDbLine
  8
0
 62
256
370
-1
  6
ByLayer
 10
60.0
 20
278.1999999999999318
 30
0.0
 11
60.0
 21
275.1999999999999886
 31
0.0
  0
LINE
  5
AB
100
AcDbEntity
100
AcDbLine
  8
0
 62
256
370
-1
  6
ByLayer
 10
126.0
 20
275.1999999999999886
 30
0.0
 11
126.0
 21
278.1999999999999886
 31
0.0
  0
LINE
  5
AC
100
AcDbEntity
100
AcDbLine
  8
0
 62
256
370
-1
  6
ByLayer
 10
126.0
 20
278.1999999999999886
 30
0.0
 11
114.0
 21
278.2000000000001023
 31
0.0
  0
LINE
  5
AD
100
AcDbEntity
100
AcDbLine
  8
0
 62
256
370
-1
  6
ByLayer
 10
114.0
 20
278.2000000000001023
 30
0.0
 11
114.0
 21
275.1999999999999886
 31
0.0
  0
LINE
  5
AE
100
AcDbEntity
100
AcDbLine
  8
0
 62
256
370
-1
  6
ByLayer
 10
114.0
 20
275.1999999999999886
 30
0.0
 11
81.0
 21
275.1999999999999886
 31
0.0
  0
LINE
  5
AF
100
AcDbEntity
100
AcDbLine
  8
0
 62
256
370
-1
  6
ByLayer
 10
126.0
 20
275.1999999999999886
 30
0.0
 11
136.0
 21
275.1999999999999886
 31
0.0
  0
LINE
  5
B0
100
AcDbEntity
100
AcDbLine
  8
0
 62
256
370
-1
  6
ByLayer
 10
15.0
 20
278.1999999999999886
 30
0.0
 11
27.0
 21
278.1999999999999886
 31
0.0
  0
LINE
  5
B1
100
AcDbEntity
100
AcDbLine
  8
0
 62
256
370
-1
  6
ByLayer
 10
27.0
 20
278.1999999999999886
 30
0.0
 11
27.0
 21
275.1999999999999886
 31
0.0
  0
LINE
  5
B2
100
AcDbEntity
100
AcDbLine
  8
0
 62
256
370
-1
  6
ByLayer
 10
15.0
 20
278.1999999999999886
 30
0.0
 11
15.0
 21
275.1999999999999886
 31
0.0
  0
LINE
  5
B3
100
AcDbEntity
100
AcDbLine
  8
0
 62
256
370
-1
  6
ByLayer
 10
27.0
 20
275.1999999999999886
 30
0.0
 11
60.0
 21
275.1999999999999886
 31
0.0
  0
LINE
  5
B4
100
AcDbEntity
100
AcDbLine
  8
0
 62
256
370
-1
  6
ByLayer
 10
5.0000000000000018
 20
275.1999999999999886
 30
0.0
 11
15.0
 21
275.1999999999999886
 31
0.0
  0
LINE
  5
B5
100
AcDbEntity
100
AcDbLine
  8
0
 62
256
370
-1
  6
ByLayer
 10
81.0
 20
235.5999999999999659
 30
0.0
 11
81.0
 21
238.5999999999999659
 31
0.0
  0
LINE
  5
B6
100
AcDbEntity
100
AcDbLine
  8
0
 62
256
370
-1
  6
ByLayer
 10
60.0
 20
235.5999999999999659
 30
0.0
 11
60.0
 21
238.5999999999999659
 31
0.0
  0
LINE
  5
B7
100
AcDbEntity
100
AcDbLine
  8
0
 62
256
370
-1
  6
ByLayer
 10
126.0
 20
238.5999999999999659
 30
0.0
 11
126.0
 21
235.5999999999999659
 31
0.0
  0
LINE
  5
B8
100
AcDbEntity
100
AcDbLine
  8
0
 62
256
370
-1
  6
ByLayer
 10
126.0
 20
235.5999999999999659
 30
0.0
 11
114.0
 21
235.5999999999999659
 31
0.0
  0
LINE
  5
B9
100
AcDbEntity
100
AcDbLine
  8
0
 62
256
370
-1
  6
ByLayer
 10
114.0
 20
235.5999999999999659
 30
0.0
 11
114.0
 21
238.5999999999999659
 31
0.0
  0
LINE
  5
BA
100
AcDbEntity
100
AcDbLine
  8
0
 62
256
370
-1
  6
ByLayer
 10
114.0
 20
238.5999999999999659
 30
0.0
 11
81.0
 21
238.5999999999999659
 31
0.0
  0
LINE
  5
BB
100
AcDbEntity
100
AcDbLine
  8
0
 62
256
370
-1
  6
ByLayer
 10
126.0
 20
238.5999999999999659
 30
0.0
 11
136.0
 21
238.5999999999999659
 31
0.0
  0
LINE
  5
BC
100
AcDbEntity
100
AcDbLine
  8
0
 62
256
370
-1
  6
ByLayer
 10
15.0
 20
235.5999999999999659
 30
0.0
 11
27.0
 21
235.5999999999999659
 31
0.0
  0
LINE
  5
BD
100
AcDbEntity
100
AcDbLine
  8
0
 62
256
370
-1
  6
ByLayer
 10
27.0
 20
235.5999999999999659
 30
0.0
 11
27.0
 21
238.5999999999999659
 31
0.0
  0
LINE
  5
BE
100
AcDbEntity
100
AcDbLine
  8
0
 62
256
370
-1
  6
ByLayer
 10
15.0
 20
235.5999999999999659
 30
0.0
 11
15.0
 21
238.5999999999999659
 31
0.0
  0
LINE
  5
BF
100
AcDbEntity
100
AcDbLine
  8
0
 62
256
370
-1
  6
ByLayer
 10
27.0
 20
238.5999999999999659
 30
0.0
 11
60.0
 21
238.5999999999999659
 31
0.0
  0
LINE
  5
C0
100
AcDbEntity
100
AcDbLine
  8
0
 62
256
370
-1
  6
ByLayer
 10
5.0000000000000018
 20
238.5999999999999659
 30
0.0
 11
15.0
 21
238.5999999999999659
 31
0.0
  0
LINE
  5
C1
100
AcDbEntity
100
AcDbLine
  8
0
 62
256
370
-1
  6
ByLayer
 10
60.0
 20
235.5999999999999091
 30
0.0
 11
81.0
 21
235.5999999999997385
 31
0.0
  0
LINE
  5
C2
100
AcDbEntity
100
AcDbLine
  8
0
 62
256
370
-1
  6
ByLayer
 10
96.5000000000000142
 20
245.1000000000000227
 30
0.0
 11
96.5
 21
260.5999999999999659
 31
0.0
  0
LINE
  5
C3
100
AcDbEntity
100
AcDbLine
  8
0
 62
256
370
-1
  6
ByLayer
 10
96.5
 20
260.5999999999999659
 30
0.0
 11
105.0000000000000142
 21
260.5999999999999659
 31
0.0
  0
LINE
  5
C4
100
AcDbEntity
100
AcDbLine
  8
0
 62
256
370
-1
  6
ByLayer
 10
105.0000000000000142
 20
245.1000000000000227
 30
0.0
 11
105.0000000000000142
 21
260.5999999999999659
 31
0.0
  0
LINE
  5
C5
100
AcDbEntity
100
AcDbLine
  8
0
 62
256
370
-1
  6
ByLayer
 10
96.5000000000000142
 20
245.1000000000000227
 30
0.0
 11
105.0000000000000142
 21
245.1000000000000227
 31
0.0
  0
LINE
  5
C6
100
AcDbEntity
100
AcDbLine
  8
0
 62
256
370
-1
  6
ByLayer
 10
109.0000000000000142
 20
245.1000000000000512
 30
0.0
 11
109.0
 21
260.6000000000000227
 31
0.0
  0
LINE
  5
C7
100
AcDbEntity
100
AcDbLine
  8
0
 62
256
370
-1
  6
ByLayer
 10
109.0
 20
260.6000000000000227
 30
0.0
 11
117.5000000000000142
 21
260.6000000000000227
 31
0.0
  0
LINE
  5
C8
100
AcDbEntity
100
AcDbLine
  8
0
 62
256
370
-1
  6
ByLayer
 10
109.0000000000000142
 20
245.1000000000000227
 30
0.0
 11
117.5
 21
245.1000000000000227
 31
0.0
  0
LINE
  5
C9
100
AcDbEntity
100
AcDbLine
  8
0
 62
256
370
-1
  6
ByLayer
 10
117.5000000000000142
 20
245.1000000000000227
 30
0.0
 11
117.5000000000000142
 21
260.6000000000000227
 31
0.0
  0
ENDSEC
  0
SECTION
  2
OBJECTS
  0
DICTIONARY
  5
C
100
AcDbDictionary
280
0
281
1
  3
ACAD_GROUP
350
D
  3
ACAD_LAYOUT
350
1A
  3
ACAD_MLINESTYLE
350
17
  3
ACAD_PLOTSETTINGS
350
19
  3
ACAD_PLOTSTYLENAME
350
E
  3
AcDbVariableDictionary
350
CA
  0
DICTIONARY
  5
D
100
AcDbDictionary
280
0
281
1
  0
ACDBDICTIONARYWDFLT
  5
E
100
AcDbDictionary
281
1
  3
Normal
350
F
100
AcDbDictionaryWithDefault
340
F
  0
ACDBPLACEHOLDER
  5
F
  0
DICTIONARY
  5
17
100
AcDbDictionary
280
0
281
1
  3
Standard
350
18
  0
MLINESTYLE
  5
18
100
AcDbMlineStyle
  2
STANDARD
 70
0
  3

 62
256
 51
90.0
 52
90.0
 71
2
 49
0.5
 62
256
  6
BYLAYER
 49
-0.5
 62
256
  6
BYLAYER
  0
DICTIONARY
  5
19
100
AcDbDictionary
280
0
281
1
  0
DICTIONARY
  5
1A
100
AcDbDictionary
281
1
  3
Layout1
350
1E
  3
Layout2
350
26
  3
Model
350
22
  0
LAYOUT
  5
1E
100
AcDbPlotSettings
  1

  2
C:\Program Files\AutoCAD 2002\plotters\DWF ePlot (optimized for plotting).pc3
  4

  6

 40
0.0
 41
0.0
 42
0.0
 43
0.0
 44
0.0
 45
0.0
 46
0.0
 47
0.0
 48
0.0
 49
0.0
140
0.0
141
0.0
142
1.0
143
1.0
 70
688
 72
0
 73
0
 74
5
  7

 75
16
147
1.0
148
0.0
149
0.0
100
AcDbLayout
  1
Layout1
 70
1
 71
1
 10
0.0
 20
0.0
 11
420.0
 21
297.0
 12
0.0
 22
0.0
 32
0.0
 14
100000000000000000000.0
 24
100000000000000000000.0
 34
100000000000000000000.0
 15
-100000000000000000000.0
 25
-100000000000000000000.0
 35
-100000000000000000000.0
146
0.0
 13
0.0
 23
0.0
 33
0.0
 16
1.0
 26
0.0
 36
0.0
 17
0.0
 27
1.0
 37
0.0
 76
0
330
1B
  0
LAYOUT
  5
22
100
AcDbPlotSettings
  1

  2
C:\Program Files\AutoCAD 2002\plotters\DWF ePlot (optimized for plotting).pc3
  4

  6

 40
0.0
 41
0.0
 42
0.0
 43
0.0
 44
0.0
 45
0.0
 46
0.0
 47
0.0
 48
0.0
 49
0.0
140
0.0
141
0.0
142
1.0
143
1.0
 70
1712
 72
0
 73
0
 74
0
  7

 75
0
147
1.0
148
0.0
149
0.0
100
AcDbLayout
  1
Model
 70
1
 71
0
 10
0.0
 20
0.0
 11
12.0
 21
9.0
 12
0.0
 22
0.0
 32
0.0
 14
0.0
 24
0.0
 34
0.0
 15
0.0
 25
0.0
 35
0.0
146
0.0
 13
0.0
 23
0.0
 33
0.0
 16
1.0
 26
0.0
 36
0.0
 17
0.0
 27
1.0
 37
0.0
 76
0
330
1F
  0
LAYOUT
  5
26
100
AcDbPlotSettings
  1

  2
C:\Program Files\AutoCAD 2002\plotters\DWF ePlot (optimized for plotting).pc3
  4

  6

 40
0.0
 41
0.0
 42
0.0
 43
0.0
 44
0.0
 45
0.0
 46
0.0
 47
0.0
 48
0.0
 49
0.0
140
0.0
141
0.0
142
1.0
143
1.0
 70
688
 72
0
 73
0
 74
5
  7

 75
16
147
1.0
148
0.0
149
0.0
100
AcDbLayout
  1
Layout2
 70
1
 71
2
 10
0.0
 20
0.0
 11
12.0
 21
9.0
 12
0.0
 22
0.0
 32
0.0
 14
0.0
 24
0.0
 34
0.0
 15
0.0
 25
0.0
 35
0.0
146
0.0
 13
0.0
 23
0.0
 33
0.0
 16
1.0
 26
0.0
 36
0.0
 17
0.0
 27
1.0
 37
0.0
 76
0
330
23
  0
DICTIONARY
  5
CA
100
AcDbDictionary
281
1
  3
DIMASSOC
350
CC
  3
HIDETEXT
350
CB
  0
DICTIONARYVAR
  5
CB
100
DictionaryVariables
280
0
  1
2
  0
DICTIONARYVAR
  5
CC
100
DictionaryVariables
280
0
  1
1
  0
ENDSEC
  0
EOF
