<?xml version="1.0" encoding="UTF-8" standalone="no"?>
<!-- Created with Inkscape (http://www.inkscape.org/) -->

<svg
   xmlns:dc="http://purl.org/dc/elements/1.1/"
   xmlns:cc="http://creativecommons.org/ns#"
   xmlns:rdf="http://www.w3.org/1999/02/22-rdf-syntax-ns#"
   xmlns:svg="http://www.w3.org/2000/svg"
   xmlns="http://www.w3.org/2000/svg"
   xmlns:sodipodi="http://sodipodi.sourceforge.net/DTD/sodipodi-0.dtd"
   xmlns:inkscape="http://www.inkscape.org/namespaces/inkscape"
   width="179.69624"
   height="199.36929"
   id="svg3351"
   version="1.1"
   inkscape:version="0.48.1 r9760"
   sodipodi:docname="milkymist-logo-bw.svg">
  <defs
     id="defs3353" />
  <sodipodi:namedview
     id="base"
     pagecolor="#ffffff"
     bordercolor="#666666"
     borderopacity="1.0"
     inkscape:pageopacity="0.0"
     inkscape:pageshadow="2"
     inkscape:zoom="1.4142136"
     inkscape:cx="288.8886"
     inkscape:cy="45.750991"
     inkscape:document-units="pt"
     inkscape:current-layer="layer1"
     showgrid="false"
     inkscape:window-width="1364"
     inkscape:window-height="766"
     inkscape:window-x="0"
     inkscape:window-y="0"
     inkscape:window-maximized="0"
     units="pt"
     fit-margin-top="0"
     fit-margin-left="0"
     fit-margin-right="0"
     fit-margin-bottom="0" />
  <metadata
     id="metadata3356">
    <rdf:RDF>
      <cc:Work
         rdf:about="">
        <dc:format>image/svg+xml</dc:format>
        <dc:type
           rdf:resource="http://purl.org/dc/dcmitype/StillImage" />
        <dc:title />
      </cc:Work>
    </rdf:RDF>
  </metadata>
  <g
     inkscape:label="Layer 1"
     inkscape:groupmode="layer"
     id="layer1"
     transform="translate(-18.45108,-730.67618)">
    <path
       inkscape:connector-curvature="0"
       id="path44-9-4"
       style="fill:#000000;fill-opacity:1;fill-rule:nonzero;stroke:none"
       d="m 18.451085,887.04862 23.3875,0 0,23.38875 -23.3875,0 0,-23.38875 z m 31.37625,0 23.38875,0 0,23.38875 -23.38875,0 0,-23.38875 z m 124.931245,0 23.38875,0 0,23.38875 -23.38875,0 0,-23.38875 z m -156.307495,-31.37749 23.3875,0 0,23.38874 -23.3875,0 0,-23.38875 z m 31.37625,-0.0238 23.105,0.0288 0.30875,23.38375 -23.41375,0 0,-23.4125 z m 124.931245,0.0238 23.38875,0 0,23.38874 -23.38875,0 0,-23.38875 z m -156.307495,-31.37126 23.3875,0 0,23.38876 -23.3875,0 0,-23.38876 z m 31.37625,0 23.38875,0 0,23.38876 -23.38875,0 0,-23.38876 z m 62.177495,0 23.96,0 0,23.38876 -23.96,0 0,-23.38876 z m 62.75375,0 23.38875,0 0,23.38876 -23.38875,0 0,-23.38876 z m -155.736245,-7.4125 22.81625,-23.94 0,23.935 -22.81625,0.005 z m 30.805,-23.99 23.105,0.05 0,23.94 -23.105,0.02 0,-24.01 z m 62.573745,23.99 -0.39625,-23.99 23.6775,0.05 0,23.94 -23.28125,0 z m 62.73375,0 -0.37625,-23.965 23.38875,0 0,23.96 -23.0125,0.005 z m -94.208746,-23.965 23.667496,0 -0.1525,23.965 -23.514996,-23.965 z m 62.456246,0 23.66125,0 -23.515,23.965 -0.14625,-23.965 z m -93.554995,-31.39624 23.105,0 0.30875,23.97875 -23.41375,0 0,-23.97875 z m 31.059999,23.96 0.0288,-23.96 23.388746,0 0.3075,23.97875 -23.724996,-0.0187 z m 62.494996,-23.93625 23.38875,0 0,23.955 -23.38875,0 0,-23.955 z m 31.66,-0.0237 23.105,0 0,23.97875 -23.4125,0 0.3075,-23.97875 z m -125.214995,-30.78125 23.41375,0 -0.30875,23.32 -23.105,0.0925 0,-23.4125 z m 31.059999,23.32 0.0288,-23.38875 23.106246,23.38875 -23.134996,0 z m 63.066246,0 22.8175,-22.97375 0,22.97375 -22.8175,0 z m 30.805,-23.32 23.38875,0 0,23.32 -23.38875,0.0687 0,-23.38875 z" />
    <g
       transform="translate(-113.88242,431.26422)"
       style="font-size:40px;font-style:normal;font-weight:normal;line-height:125%;letter-spacing:0px;word-spacing:0px;fill:#000000;fill-opacity:1;stroke:none;font-family:Sans"
       id="flowRoot3366-7-3">
      <path
         d="m 138.8615,492.58925 -4.48,-5.328 -2.048,0 0,11.52 1.728,0 0,-9.216 4.8,5.712 4.8,-5.712 0,9.216 1.728,0 0,-11.52 -2.064,0 -4.464,5.328"
         style="font-size:16px;font-variant:normal;font-weight:500;font-stretch:normal;text-align:start;line-height:125%;letter-spacing:3.17000008px;writing-mode:lr-tb;text-anchor:start;font-family:Orbitron;-inkscape-font-specification:Orbitron Medium"
         id="path4438"
         inkscape:connector-curvature="0" />
      <path
         d="m 150.36325,498.78125 1.728,0 0,-11.52 -1.728,0 0,11.52"
         style="font-size:16px;font-variant:normal;font-weight:500;font-stretch:normal;text-align:start;line-height:125%;letter-spacing:3.17000008px;writing-mode:lr-tb;text-anchor:start;font-family:Orbitron;-inkscape-font-specification:Orbitron Medium"
         id="path4440"
         inkscape:connector-curvature="0" />
      <path
         d="m 157.0645,498.78125 11.52,0 0,-1.728 -9.792,0 0,-9.808 -1.728,0 0,11.536"
         style="font-size:16px;font-variant:normal;font-weight:500;font-stretch:normal;text-align:start;line-height:125%;letter-spacing:3.17000008px;writing-mode:lr-tb;text-anchor:start;font-family:Orbitron;-inkscape-font-specification:Orbitron Medium"
         id="path4442"
         inkscape:connector-curvature="0" />
      <path
         d="m 181.74325,487.26125 -4.112,4.896 -3.2,0 0,-4.896 -1.728,0 0,11.52 1.728,0 0,-4.896 3.2,0 4.112,4.896 2.048,0 0,-0.24 -4.624,-5.52 4.624,-5.52 0,-0.24 -2.048,0"
         style="font-size:16px;font-variant:normal;font-weight:500;font-stretch:normal;text-align:start;line-height:125%;letter-spacing:3.17000008px;writing-mode:lr-tb;text-anchor:start;font-family:Orbitron;-inkscape-font-specification:Orbitron Medium"
         id="path4444"
         inkscape:connector-curvature="0" />
      <path
         d="m 198.28725,487.26125 -4.128,5.248 -4.144,-5.248 -2.032,0 5.312,7.2 0,4.32 1.728,0 0,-4.32 5.312,-7.2 -2.048,0"
         style="font-size:16px;font-variant:normal;font-weight:500;font-stretch:normal;text-align:start;line-height:125%;letter-spacing:3.17000008px;writing-mode:lr-tb;text-anchor:start;font-family:Orbitron;-inkscape-font-specification:Orbitron Medium"
         id="path4446"
         inkscape:connector-curvature="0" />
      <path
         d="m 211.2115,492.58925 -4.48,-5.328 -2.048,0 0,11.52 1.728,0 0,-9.216 4.8,5.712 4.8,-5.712 0,9.216 1.728,0 0,-11.52 -2.064,0 -4.464,5.328"
         style="font-size:16px;font-variant:normal;font-weight:500;font-stretch:normal;text-align:start;line-height:125%;letter-spacing:3.17000008px;writing-mode:lr-tb;text-anchor:start;font-family:Orbitron;-inkscape-font-specification:Orbitron Medium"
         id="path4448"
         inkscape:connector-curvature="0" />
      <path
         d="m 222.71325,498.78125 1.728,0 0,-11.52 -1.728,0 0,11.52"
         style="font-size:16px;font-variant:normal;font-weight:500;font-stretch:normal;text-align:start;line-height:125%;letter-spacing:3.17000008px;writing-mode:lr-tb;text-anchor:start;font-family:Orbitron;-inkscape-font-specification:Orbitron Medium"
         id="path4450"
         inkscape:connector-curvature="0" />
      <path
         d="m 240.8385,489.34125 c 0,-1.152 -0.928,-2.08 -2.08,-2.08 l -7.36,0 c -1.152,0 -2.08,0.928 -2.08,2.08 l 0,2.464 c 0,1.152 0.928,2.08 2.08,2.08 l 7.36,0 c 0.192,0 0.352,0.16 0.352,0.352 l 0,2.464 c 0,0.192 -0.16,0.352 -0.352,0.352 l -7.36,0 c -0.192,0 -0.352,-0.16 -0.352,-0.352 l 0,-0.672 -1.728,0 0,0.672 c 0,1.152 0.928,2.08 2.08,2.08 l 7.36,0 c 1.152,0 2.08,-0.928 2.08,-2.08 l 0,-2.464 c 0,-1.152 -0.928,-2.08 -2.08,-2.08 l -7.36,0 c -0.192,0 -0.352,-0.16 -0.352,-0.352 l 0,-2.464 c 0,-0.192 0.16,-0.352 0.352,-0.352 l 7.36,0 c 0.192,0 0.352,0.16 0.352,0.352 l 0,0.672 1.728,0 0,-0.672"
         style="font-size:16px;font-variant:normal;font-weight:500;font-stretch:normal;text-align:start;line-height:125%;letter-spacing:3.17000008px;writing-mode:lr-tb;text-anchor:start;font-family:Orbitron;-inkscape-font-specification:Orbitron Medium"
         id="path4452"
         inkscape:connector-curvature="0" />
      <path
         d="m 245.14875,487.26125 0,1.728 4.896,0 0,9.792 1.728,0 0,-9.792 4.896,0 0,-1.728 -11.52,0"
         style="font-size:16px;font-variant:normal;font-weight:500;font-stretch:normal;text-align:start;line-height:125%;letter-spacing:3.17000008px;writing-mode:lr-tb;text-anchor:start;font-family:Orbitron;-inkscape-font-specification:Orbitron Medium"
         id="path4454"
         inkscape:connector-curvature="0" />
      <path
         d="m 262.747,497.05325 -1.728,0 0,1.728 1.728,0 0,-1.728"
         style="font-size:16px;font-variant:normal;font-weight:500;font-stretch:normal;text-align:start;line-height:125%;letter-spacing:3.17000008px;writing-mode:lr-tb;text-anchor:start;font-family:Orbitron;-inkscape-font-specification:Orbitron Medium"
         id="path4456"
         inkscape:connector-curvature="0" />
      <path
         d="m 269.7065,487.26125 c -1.152,0 -2.08,0.928 -2.08,2.08 l 0,7.36 c 0,1.152 0.928,2.08 2.08,2.08 l 7.36,0 c 1.152,0 2.08,-0.928 2.08,-2.08 l 0,-7.36 c 0,-1.152 -0.928,-2.08 -2.08,-2.08 l -7.36,0 m 0,9.792 c -0.192,0 -0.352,-0.16 -0.352,-0.352 l 0,-7.36 c 0,-0.192 0.16,-0.352 0.352,-0.352 l 7.36,0 c 0.192,0 0.352,0.16 0.352,0.352 l 0,7.36 c 0,0.192 -0.16,0.352 -0.352,0.352 l -7.36,0"
         style="font-size:16px;font-variant:normal;font-weight:500;font-stretch:normal;text-align:start;line-height:125%;letter-spacing:3.17000008px;writing-mode:lr-tb;text-anchor:start;font-family:Orbitron;-inkscape-font-specification:Orbitron Medium"
         id="path4458"
         inkscape:connector-curvature="0" />
      <path
         d="m 295.5825,489.35725 c 0,-1.136 -0.92801,-2.08 -2.08,-2.08 l -9.44,0 0,11.504 1.728,0 0,-4.144 c 0.112,0.016 0.224,0.032 0.352,0.032 l 3.936,0 3.456,4.112 2.048,0 0,-0.24 -3.248,-3.872 1.168,0 c 1.15199,0 2.08,-0.944 2.08,-2.08 l 0,-3.232 m -9.44,3.584 c -0.192,0 -0.352,-0.16 -0.352,-0.352 l 0,-3.232 c 0,-0.192 0.16,-0.352 0.352,-0.352 l 7.36,0 c 0.19199,0 0.352,0.16 0.352,0.352 l 0,3.232 c 0,0.192 -0.16001,0.352 -0.352,0.352 l -7.36,0"
         style="font-size:16px;font-variant:normal;font-weight:500;font-stretch:normal;text-align:start;line-height:125%;letter-spacing:3.17000008px;writing-mode:lr-tb;text-anchor:start;font-family:Orbitron;-inkscape-font-specification:Orbitron Medium"
         id="path4460"
         inkscape:connector-curvature="0" />
      <path
         d="m 311.95601,489.34125 c 0,-1.152 -0.928,-2.08 -2.08,-2.08 l -7.36,0 c -1.152,0 -2.08,0.928 -2.08,2.08 l 0,7.36 c 0,1.152 0.928,2.08 2.08,2.08 l 7.36,0 c 1.152,0 2.08,-0.928 2.08,-2.08 l 0,-4.224 -4.448,0 0,1.728 2.72,0 0,2.496 c 0,0.192 -0.16,0.352 -0.352,0.352 l -7.36,0 c -0.192,0 -0.352,-0.16 -0.352,-0.352 l 0,-7.36 c 0,-0.192 0.16,-0.352 0.352,-0.352 l 7.36,0 c 0.192,0 0.352,0.16 0.352,0.352 l 0,0.688 1.728,0 0,-0.688"
         style="font-size:16px;font-variant:normal;font-weight:500;font-stretch:normal;text-align:start;line-height:125%;letter-spacing:3.17000008px;writing-mode:lr-tb;text-anchor:start;font-family:Orbitron;-inkscape-font-specification:Orbitron Medium"
         id="path4462"
         inkscape:connector-curvature="0" />
    </g>
  </g>
</svg>
