<?xml version="1.0" encoding="UTF-8" standalone="no"?>
<!-- Created with Inkscape (http://www.inkscape.org/) -->

<svg
   xmlns:dc="http://purl.org/dc/elements/1.1/"
   xmlns:cc="http://creativecommons.org/ns#"
   xmlns:rdf="http://www.w3.org/1999/02/22-rdf-syntax-ns#"
   xmlns:svg="http://www.w3.org/2000/svg"
   xmlns="http://www.w3.org/2000/svg"
   xmlns:sodipodi="http://sodipodi.sourceforge.net/DTD/sodipodi-0.dtd"
   xmlns:inkscape="http://www.inkscape.org/namespaces/inkscape"
   width="540.29132"
   height="151.94489"
   id="svg2"
   version="1.1"
   inkscape:version="0.48.1 r9760"
   sodipodi:docname="New document 1">
  <defs
     id="defs4">
    <symbol
       id="*Paper_Space0" />
    <symbol
       id="*Paper_Space" />
    <symbol
       id="*Model_Space" />
    <marker
       orient="auto"
       id="DistanceX"
       style="overflow:visible"
       refX="0"
       refY="0">
      <path
         id="path3011"
         d="M 3,-3 -3,3 M 0,-5 0,5"
         style="stroke:#000000;stroke-width:0.5"
         inkscape:connector-curvature="0" />
    </marker>
  </defs>
  <sodipodi:namedview
     id="base"
     pagecolor="#ffffff"
     bordercolor="#666666"
     borderopacity="1.0"
     inkscape:pageopacity="0.0"
     inkscape:pageshadow="2"
     inkscape:zoom="1.4"
     inkscape:cx="167.04996"
     inkscape:cy="67.451637"
     inkscape:document-units="px"
     inkscape:current-layer="g3016"
     showgrid="false"
     fit-margin-top="0"
     fit-margin-left="0"
     fit-margin-right="0"
     fit-margin-bottom="0"
     inkscape:window-width="1364"
     inkscape:window-height="766"
     inkscape:window-x="0"
     inkscape:window-y="0"
     inkscape:window-maximized="0" />
  <metadata
     id="metadata7">
    <rdf:RDF>
      <cc:Work
         rdf:about="">
        <dc:format>image/svg+xml</dc:format>
        <dc:type
           rdf:resource="http://purl.org/dc/dcmitype/StillImage" />
        <dc:title></dc:title>
      </cc:Work>
    </rdf:RDF>
  </metadata>
  <g
     inkscape:label="Layer 1"
     inkscape:groupmode="layer"
     id="layer1"
     transform="translate(-804.17941,-447.86893)">
    <g
       id="g3016"
       inkscape:label="0"
       transform="translate(322.78965,230.80988)">
      <path
         id="path3352"
         d="m 481.88976,357.87402 0,-129.68504"
         style="fill:none;stroke:#000000"
         inkscape:connector-curvature="0" />
      <path
         id="path3354"
         d="m 1021.1811,228.18898 0,129.68504"
         style="fill:none;stroke:#000000"
         inkscape:connector-curvature="0" />
      <path
         id="path3660"
         d="m 716.10236,368.50394 0,-10.62992"
         style="fill:none;stroke:#000000"
         inkscape:connector-curvature="0" />
      <path
         id="path3662"
         d="m 716.10236,368.50394 70.86614,0"
         style="fill:none;stroke:#000000"
         inkscape:connector-curvature="0" />
      <path
         id="path3664"
         d="m 786.9685,368.50394 0,-10.62992"
         style="fill:none;stroke:#000000"
         inkscape:connector-curvature="0" />
      <path
         id="path3666"
         d="m 481.88976,357.87402 35.43308,0"
         style="fill:none;stroke:#000000"
         inkscape:connector-curvature="0" />
      <path
         id="path3668"
         d="m 517.32284,357.87402 0,10.62992"
         style="fill:none;stroke:#000000"
         inkscape:connector-curvature="0" />
      <path
         id="path3670"
         d="m 517.32284,368.50394 42.51968,0"
         style="fill:none;stroke:#000000"
         inkscape:connector-curvature="0" />
      <path
         id="path3672"
         d="m 559.84252,368.50394 0,-10.62992"
         style="fill:none;stroke:#000000"
         inkscape:connector-curvature="0" />
      <path
         id="path3674"
         d="m 559.84252,357.87402 155.90551,0"
         style="fill:none;stroke:#000000"
         inkscape:connector-curvature="0" />
      <path
         id="path3676"
         d="m 943.22835,357.87402 -156.25985,0"
         style="fill:none;stroke:#000000"
         inkscape:connector-curvature="0" />
      <path
         id="path3678"
         d="m 943.22835,357.87402 0,10.62992"
         style="fill:none;stroke:#000000"
         inkscape:connector-curvature="0" />
      <path
         id="path3680"
         d="m 943.22835,368.50394 42.51968,0"
         style="fill:none;stroke:#000000"
         inkscape:connector-curvature="0" />
      <path
         id="path3682"
         d="m 985.74803,368.50394 0,-10.62992"
         style="fill:none;stroke:#000000"
         inkscape:connector-curvature="0" />
      <path
         id="path3684"
         d="m 985.74803,357.87402 35.43307,0"
         style="fill:none;stroke:#000000"
         inkscape:connector-curvature="0" />
      <path
         id="path3732"
         d="m 716.10236,217.55905 0,10.62993"
         style="fill:none;stroke:#000000"
         inkscape:connector-curvature="0" />
      <path
         id="path3734"
         d="m 716.10236,217.55905 70.86614,0"
         style="fill:none;stroke:#000000"
         inkscape:connector-curvature="0" />
      <path
         id="path3736"
         d="m 786.9685,217.55905 0,10.62993"
         style="fill:none;stroke:#000000"
         inkscape:connector-curvature="0" />
      <path
         id="path3738"
         d="m 481.88976,228.18898 35.43308,0"
         style="fill:none;stroke:#000000"
         inkscape:connector-curvature="0" />
      <path
         id="path3740"
         d="m 517.32284,228.18898 0,-10.62993"
         style="fill:none;stroke:#000000"
         inkscape:connector-curvature="0" />
      <path
         id="path3742"
         d="m 517.32284,217.55905 42.51968,0"
         style="fill:none;stroke:#000000"
         inkscape:connector-curvature="0" />
      <path
         id="path3744"
         d="m 559.84252,217.55905 0,10.62993"
         style="fill:none;stroke:#000000"
         inkscape:connector-curvature="0" />
      <path
         id="path3746"
         d="m 559.84252,228.18898 155.90551,0"
         style="fill:none;stroke:#000000"
         inkscape:connector-curvature="0" />
      <path
         id="path3748"
         d="m 943.22835,228.18898 -156.25985,0"
         style="fill:none;stroke:#000000"
         inkscape:connector-curvature="0" />
      <path
         id="path3750"
         d="m 943.22835,228.18898 0,-10.62993"
         style="fill:none;stroke:#000000"
         inkscape:connector-curvature="0" />
      <path
         id="path3752"
         d="m 943.22835,217.55905 42.51968,0"
         style="fill:none;stroke:#000000"
         inkscape:connector-curvature="0" />
      <path
         id="path3754"
         d="m 985.74803,217.55905 0,10.62993"
         style="fill:none;stroke:#000000"
         inkscape:connector-curvature="0" />
      <path
         id="path3756"
         d="m 985.74803,228.18898 35.43307,0"
         style="fill:none;stroke:#000000"
         inkscape:connector-curvature="0" />
      <path
         id="path3814"
         d="m 729.52732,265.74803 4.72441,14.17323"
         style="fill:none;stroke:#000000"
         inkscape:connector-curvature="0" />
      <path
         id="path3816"
         d="m 734.25173,279.92126 4.72441,-14.17323"
         style="fill:none;stroke:#000000"
         inkscape:connector-curvature="0" />
      <path
         id="path3818"
         d="m 751.57457,265.74803 -4.72441,0"
         style="fill:none;stroke:#000000"
         inkscape:connector-curvature="0" />
      <path
         id="path3820"
         d="m 743.70055,268.89764 0,7.87401"
         style="fill:none;stroke:#000000"
         inkscape:connector-curvature="0" />
      <path
         id="path3822"
         d="m 746.85016,279.92126 4.72441,0"
         style="fill:none;stroke:#000000"
         inkscape:connector-curvature="0" />
      <path
         id="path3824"
         d="m 751.57457,279.92126 0,-7.87401"
         style="fill:none;stroke:#000000"
         inkscape:connector-curvature="0" />
      <path
         id="path3826"
         d="m 751.57457,272.04725 -2.36221,0"
         style="fill:none;stroke:#000000"
         inkscape:connector-curvature="0" />
      <path
         id="path3828"
         d="m 746.85016,265.74803 a 3.149606,3.149606 0 0 0 -3.14961,3.14961"
         style="fill:none;stroke:#000000"
         inkscape:connector-curvature="0" />
      <path
         id="path3830"
         d="m 743.70055,276.77165 a 3.149606,3.149606 0 0 0 3.14961,3.14961"
         style="fill:none;stroke:#000000"
         inkscape:connector-curvature="0" />
      <path
         id="path3832"
         d="m 756.29882,279.92126 4.72425,-14.17323"
         style="fill:none;stroke:#000000"
         inkscape:connector-curvature="0" />
      <path
         id="path3834"
         d="m 761.02307,265.74803 4.72488,14.17323"
         style="fill:none;stroke:#000000"
         inkscape:connector-curvature="0" />
      <path
         id="path3836"
         d="m 757.61126,275.98425 6.82409,0"
         style="fill:none;stroke:#000000"
         inkscape:connector-curvature="0" />
      <path
         id="path3838"
         d="m 891.53535,265.74803 0,14.17323"
         style="fill:none;stroke:#000000"
         inkscape:connector-curvature="0" />
      <path
         id="path3840"
         d="m 891.53535,279.92126 6.29922,0"
         style="fill:none;stroke:#000000"
         inkscape:connector-curvature="0" />
      <path
         id="path3842"
         d="m 902.55913,265.74803 0,14.17323"
         style="fill:none;stroke:#000000"
         inkscape:connector-curvature="0" />
      <path
         id="path3844"
         d="m 907.28354,279.92126 0,-14.17323"
         style="fill:none;stroke:#000000"
         inkscape:connector-curvature="0" />
      <path
         id="path3846"
         d="m 907.28354,265.74803 7.87386,14.17323"
         style="fill:none;stroke:#000000"
         inkscape:connector-curvature="0" />
      <path
         id="path3848"
         d="m 915.1574,279.92126 0,-14.17323"
         style="fill:none;stroke:#000000"
         inkscape:connector-curvature="0" />
      <path
         id="path3850"
         d="m 926.18087,265.74803 -6.29906,0"
         style="fill:none;stroke:#000000"
         inkscape:connector-curvature="0" />
      <path
         id="path3852"
         d="m 919.88181,265.74803 0,14.17323"
         style="fill:none;stroke:#000000"
         inkscape:connector-curvature="0" />
      <path
         id="path3854"
         d="m 919.88181,279.92126 6.29906,0"
         style="fill:none;stroke:#000000"
         inkscape:connector-curvature="0" />
      <path
         id="path3856"
         d="m 919.88181,272.04725 4.72425,0"
         style="fill:none;stroke:#000000"
         inkscape:connector-curvature="0" />
      <path
         id="path3858"
         d="m 875.98449,325.98425 0,14.17323"
         style="fill:none;stroke:#000000"
         inkscape:connector-curvature="0" />
      <path
         id="path3860"
         d="m 880.7089,340.15748 0,-14.17323"
         style="fill:none;stroke:#000000"
         inkscape:connector-curvature="0" />
      <path
         id="path3862"
         d="m 880.7089,325.98425 7.87386,14.17323"
         style="fill:none;stroke:#000000"
         inkscape:connector-curvature="0" />
      <path
         id="path3864"
         d="m 888.58276,340.15748 0,-14.17323"
         style="fill:none;stroke:#000000"
         inkscape:connector-curvature="0" />
      <path
         id="path3866"
         d="m 918.11032,337.00787 0,-7.87401"
         style="fill:none;stroke:#000000"
         inkscape:connector-curvature="0" />
      <path
         id="path3868"
         d="m 921.25992,325.98425 1.57465,0"
         style="fill:none;stroke:#000000"
         inkscape:connector-curvature="0" />
      <path
         id="path3870"
         d="m 925.98417,329.13386 0,7.87401"
         style="fill:none;stroke:#000000"
         inkscape:connector-curvature="0" />
      <path
         id="path3872"
         d="m 922.83457,340.15748 -1.57465,0"
         style="fill:none;stroke:#000000"
         inkscape:connector-curvature="0" />
      <path
         id="path3874"
         d="m 921.25992,325.98425 a 3.149606,3.149606 0 0 0 -3.1496,3.14961"
         style="fill:none;stroke:#000000"
         inkscape:connector-curvature="0" />
      <path
         id="path3876"
         d="m 925.98417,329.13386 a 3.149606,3.149606 0 0 0 -3.1496,-3.14961"
         style="fill:none;stroke:#000000"
         inkscape:connector-curvature="0" />
      <path
         id="path3878"
         d="m 922.83457,340.15748 a 3.149606,3.149606 0 0 0 3.1496,-3.14961"
         style="fill:none;stroke:#000000"
         inkscape:connector-curvature="0" />
      <path
         id="path3880"
         d="m 918.11032,337.00787 a 3.149606,3.149606 0 0 0 3.1496,3.14961"
         style="fill:none;stroke:#000000"
         inkscape:connector-curvature="0" />
      <path
         id="path3882"
         d="m 930.70843,325.98425 0,10.23622"
         style="fill:none;stroke:#000000"
         inkscape:connector-curvature="0" />
      <path
         id="path3884"
         d="m 938.58244,336.22047 0,-10.23622"
         style="fill:none;stroke:#000000"
         inkscape:connector-curvature="0" />
      <path
         id="path3886"
         d="m 930.70843,336.22047 a 3.937008,3.937008 0 0 0 7.87401,0"
         style="fill:none;stroke:#000000"
         inkscape:connector-curvature="0" />
      <path
         id="path3888"
         d="m 943.30669,325.98425 9.44914,0"
         style="fill:none;stroke:#000000"
         inkscape:connector-curvature="0" />
      <path
         id="path3890"
         d="m 948.0311,325.98425 0,14.17323"
         style="fill:none;stroke:#000000"
         inkscape:connector-curvature="0" />
      <path
         id="path3892"
         d="m 690.94488,334.84252 0,-46.06299"
         style="fill:none;stroke:#000000"
         inkscape:connector-curvature="0" />
      <path
         id="path3900"
         d="m 690.94488,288.77953 113.38583,0"
         style="fill:none;stroke:#000000"
         inkscape:connector-curvature="0" />
      <path
         id="path3902"
         d="m 804.33071,288.77953 0,46.06299"
         style="fill:none;stroke:#000000"
         inkscape:connector-curvature="0" />
      <path
         id="path3904"
         d="m 690.94488,334.84252 113.38583,0"
         style="fill:none;stroke:#000000"
         inkscape:connector-curvature="0" />
      <path
         id="path3968"
         d="m 947.83465,309.33071 a 11.692915,11.692915 0 1 0 -23.38583,0 11.692915,11.692915 0 1 0 23.38583,0 z"
         style="fill:none;stroke:#000000"
         inkscape:connector-curvature="0" />
      <path
         id="path3970"
         d="m 894.68504,309.33071 a 11.692915,11.692915 0 1 0 -23.38583,0 11.692915,11.692915 0 1 0 23.38583,0 z"
         style="fill:none;stroke:#000000"
         inkscape:connector-curvature="0" />
      <path
         id="path3976"
         d="m 839.76378,318.89764 a 3.54331,3.54331 0 1 0 -7.08662,0 3.54331,3.54331 0 1 0 7.08662,0 z"
         style="fill:none;stroke:#000000"
         inkscape:connector-curvature="0" />
      <path
         id="path4018"
         d="m 823.62189,279.92126 0,-14.17323"
         style="fill:none;stroke:#000000"
         inkscape:connector-curvature="0" />
      <path
         id="path4020"
         d="m 823.62189,265.74803 4.72441,7.87402"
         style="fill:none;stroke:#000000"
         inkscape:connector-curvature="0" />
      <path
         id="path4022"
         d="m 828.3463,273.62205 4.72441,-7.87402"
         style="fill:none;stroke:#000000"
         inkscape:connector-curvature="0" />
      <path
         id="path4024"
         d="m 833.07071,265.74803 0,14.17323"
         style="fill:none;stroke:#000000"
         inkscape:connector-curvature="0" />
      <path
         id="path4026"
         d="m 837.79528,265.74803 0,14.17323"
         style="fill:none;stroke:#000000"
         inkscape:connector-curvature="0" />
      <path
         id="path4028"
         d="m 848.81874,265.74803 -3.14961,0"
         style="fill:none;stroke:#000000"
         inkscape:connector-curvature="0" />
      <path
         id="path4030"
         d="m 842.51953,268.89764 0,7.87401"
         style="fill:none;stroke:#000000"
         inkscape:connector-curvature="0" />
      <path
         id="path4032"
         d="m 845.66913,279.92126 3.14961,0"
         style="fill:none;stroke:#000000"
         inkscape:connector-curvature="0" />
      <path
         id="path4034"
         d="m 845.66913,265.74803 a 3.149606,3.149606 0 0 0 -3.1496,3.14961"
         style="fill:none;stroke:#000000"
         inkscape:connector-curvature="0" />
      <path
         id="path4036"
         d="m 842.51953,276.77165 a 3.149606,3.149606 0 0 0 3.1496,3.14961"
         style="fill:none;stroke:#000000"
         inkscape:connector-curvature="0" />
      <g
         transform="matrix(0.86010442,0,0,0.80751511,495.28916,161.35789)"
         id="g5564">
        <path
           inkscape:transform-center-x="-4.6866912"
           transform="matrix(0.34104299,0.63430006,-0.58219584,0.37263247,324.00576,-231.13443)"
           d="m 402.54577,356.87216 -15.53109,8.96688 -15.5311,8.96689 0,-17.93377 0,-17.93376 15.5311,8.96688 z"
           inkscape:randomized="0"
           inkscape:rounded="0"
           inkscape:flatsided="false"
           sodipodi:arg2="1.0471976"
           sodipodi:arg1="0"
           sodipodi:r2="10.354064"
           sodipodi:r1="20.708126"
           sodipodi:cy="356.87216"
           sodipodi:cx="381.83765"
           sodipodi:sides="3"
           id="path5550"
           style="fill:#000000;fill-opacity:1;stroke:#000000;stroke-opacity:0"
           sodipodi:type="star" />
        <rect
           transform="matrix(0.50537321,0.86290088,-0.82202718,0.56944825,0,0)"
           y="-142.27702"
           x="195.19527"
           height="2.662262"
           width="58.2607"
           id="rect5556"
           style="fill:#000000;fill-opacity:1;stroke:#000000;stroke-width:0.77396846;stroke-opacity:0" />
      </g>
    </g>
  </g>
</svg>
