G04 (created by PCBNEW-RS274X (2010-05-05 BZR 2356)-stable) date 2010年10月27日 星期三 23时04分44秒*
G01*
G70*
G90*
%MOIN*%
G04 Gerber Fmt 3.4, Leading zero omitted, Abs format*
%FSLAX34Y34*%
G04 APERTURE LIST*
%ADD10C,0.006000*%
%ADD11C,0.015000*%
%ADD12C,0.004500*%
%ADD13C,0.002600*%
%ADD14C,0.004000*%
%ADD15C,0.003000*%
%ADD16C,0.005000*%
%ADD17C,0.003500*%
G04 APERTURE END LIST*
G54D10*
G54D11*
X47244Y-41220D02*
X47244Y-41220D01*
X46732Y-41221D02*
X47244Y-41221D01*
X46732Y-39370D02*
X46732Y-41220D01*
G54D12*
X39528Y-49872D02*
X39528Y-50099D01*
X39536Y-50126D01*
X39545Y-50139D01*
X39562Y-50152D01*
X39596Y-50152D01*
X39614Y-50139D01*
X39622Y-50126D01*
X39631Y-50099D01*
X39631Y-49872D01*
X39708Y-50139D02*
X39734Y-50152D01*
X39777Y-50152D01*
X39794Y-50139D01*
X39803Y-50126D01*
X39811Y-50099D01*
X39811Y-50072D01*
X39803Y-50046D01*
X39794Y-50032D01*
X39777Y-50019D01*
X39743Y-50006D01*
X39725Y-49992D01*
X39717Y-49979D01*
X39708Y-49952D01*
X39708Y-49926D01*
X39717Y-49899D01*
X39725Y-49886D01*
X39743Y-49872D01*
X39785Y-49872D01*
X39811Y-49886D01*
X39948Y-50006D02*
X39974Y-50019D01*
X39982Y-50032D01*
X39991Y-50059D01*
X39991Y-50099D01*
X39982Y-50126D01*
X39974Y-50139D01*
X39956Y-50152D01*
X39888Y-50152D01*
X39888Y-49872D01*
X39948Y-49872D01*
X39965Y-49886D01*
X39974Y-49899D01*
X39982Y-49926D01*
X39982Y-49952D01*
X39974Y-49979D01*
X39965Y-49992D01*
X39948Y-50006D01*
X39888Y-50006D01*
X40256Y-49872D02*
X40256Y-50072D01*
X40248Y-50112D01*
X40231Y-50139D01*
X40205Y-50152D01*
X40188Y-50152D01*
X40316Y-49872D02*
X40419Y-49872D01*
X40368Y-50152D02*
X40368Y-49872D01*
X40470Y-50072D02*
X40556Y-50072D01*
X40453Y-50152D02*
X40513Y-49872D01*
X40573Y-50152D01*
X40727Y-49886D02*
X40710Y-49872D01*
X40684Y-49872D01*
X40659Y-49886D01*
X40641Y-49912D01*
X40633Y-49939D01*
X40624Y-49992D01*
X40624Y-50032D01*
X40633Y-50086D01*
X40641Y-50112D01*
X40659Y-50139D01*
X40684Y-50152D01*
X40701Y-50152D01*
X40727Y-50139D01*
X40736Y-50126D01*
X40736Y-50032D01*
X40701Y-50032D01*
X40941Y-49859D02*
X40787Y-50219D01*
X40993Y-50139D02*
X41010Y-50152D01*
X41045Y-50152D01*
X41062Y-50139D01*
X41070Y-50112D01*
X41070Y-50099D01*
X41062Y-50072D01*
X41045Y-50059D01*
X41019Y-50059D01*
X41002Y-50046D01*
X40993Y-50019D01*
X40993Y-50006D01*
X41002Y-49979D01*
X41019Y-49966D01*
X41045Y-49966D01*
X41062Y-49979D01*
X41216Y-50139D02*
X41199Y-50152D01*
X41165Y-50152D01*
X41148Y-50139D01*
X41139Y-50112D01*
X41139Y-50006D01*
X41148Y-49979D01*
X41165Y-49966D01*
X41199Y-49966D01*
X41216Y-49979D01*
X41225Y-50006D01*
X41225Y-50032D01*
X41139Y-50059D01*
X41302Y-50152D02*
X41302Y-49966D01*
X41302Y-50019D02*
X41310Y-49992D01*
X41319Y-49979D01*
X41336Y-49966D01*
X41353Y-49966D01*
X41413Y-50152D02*
X41413Y-49966D01*
X41413Y-49872D02*
X41404Y-49886D01*
X41413Y-49899D01*
X41421Y-49886D01*
X41413Y-49872D01*
X41413Y-49899D01*
X41576Y-50152D02*
X41576Y-50006D01*
X41567Y-49979D01*
X41550Y-49966D01*
X41516Y-49966D01*
X41499Y-49979D01*
X41576Y-50139D02*
X41559Y-50152D01*
X41516Y-50152D01*
X41499Y-50139D01*
X41490Y-50112D01*
X41490Y-50086D01*
X41499Y-50059D01*
X41516Y-50046D01*
X41559Y-50046D01*
X41576Y-50032D01*
X41688Y-50152D02*
X41670Y-50139D01*
X41662Y-50112D01*
X41662Y-49872D01*
X41970Y-50139D02*
X41953Y-50152D01*
X41919Y-50152D01*
X41901Y-50139D01*
X41893Y-50126D01*
X41884Y-50099D01*
X41884Y-50019D01*
X41893Y-49992D01*
X41901Y-49979D01*
X41919Y-49966D01*
X41953Y-49966D01*
X41970Y-49979D01*
X42124Y-50152D02*
X42124Y-50006D01*
X42115Y-49979D01*
X42098Y-49966D01*
X42064Y-49966D01*
X42047Y-49979D01*
X42124Y-50139D02*
X42107Y-50152D01*
X42064Y-50152D01*
X42047Y-50139D01*
X42038Y-50112D01*
X42038Y-50086D01*
X42047Y-50059D01*
X42064Y-50046D01*
X42107Y-50046D01*
X42124Y-50032D01*
X42210Y-50152D02*
X42210Y-49872D01*
X42210Y-49979D02*
X42227Y-49966D01*
X42261Y-49966D01*
X42278Y-49979D01*
X42287Y-49992D01*
X42296Y-50019D01*
X42296Y-50099D01*
X42287Y-50126D01*
X42278Y-50139D01*
X42261Y-50152D01*
X42227Y-50152D01*
X42210Y-50139D01*
X42399Y-50152D02*
X42381Y-50139D01*
X42373Y-50112D01*
X42373Y-49872D01*
X42535Y-50139D02*
X42518Y-50152D01*
X42484Y-50152D01*
X42467Y-50139D01*
X42458Y-50112D01*
X42458Y-50006D01*
X42467Y-49979D01*
X42484Y-49966D01*
X42518Y-49966D01*
X42535Y-49979D01*
X42544Y-50006D01*
X42544Y-50032D01*
X42458Y-50059D01*
X42732Y-49966D02*
X42801Y-49966D01*
X42758Y-50152D02*
X42758Y-49912D01*
X42766Y-49886D01*
X42784Y-49872D01*
X42801Y-49872D01*
X42887Y-50152D02*
X42869Y-50139D01*
X42861Y-50126D01*
X42852Y-50099D01*
X42852Y-50019D01*
X42861Y-49992D01*
X42869Y-49979D01*
X42887Y-49966D01*
X42912Y-49966D01*
X42929Y-49979D01*
X42938Y-49992D01*
X42947Y-50019D01*
X42947Y-50099D01*
X42938Y-50126D01*
X42929Y-50139D01*
X42912Y-50152D01*
X42887Y-50152D01*
X43024Y-50152D02*
X43024Y-49966D01*
X43024Y-50019D02*
X43032Y-49992D01*
X43041Y-49979D01*
X43058Y-49966D01*
X43075Y-49966D01*
X43272Y-50152D02*
X43272Y-49872D01*
X43332Y-50072D01*
X43392Y-49872D01*
X43392Y-50152D01*
X43478Y-50152D02*
X43478Y-49966D01*
X43478Y-49872D02*
X43469Y-49886D01*
X43478Y-49899D01*
X43486Y-49886D01*
X43478Y-49872D01*
X43478Y-49899D01*
X43590Y-50152D02*
X43572Y-50139D01*
X43564Y-50112D01*
X43564Y-49872D01*
X43658Y-50152D02*
X43658Y-49872D01*
X43675Y-50046D02*
X43726Y-50152D01*
X43726Y-49966D02*
X43658Y-50072D01*
X43787Y-49966D02*
X43830Y-50152D01*
X43872Y-49966D02*
X43830Y-50152D01*
X43812Y-50219D01*
X43804Y-50232D01*
X43787Y-50246D01*
X43941Y-50152D02*
X43941Y-49966D01*
X43941Y-49992D02*
X43949Y-49979D01*
X43967Y-49966D01*
X43992Y-49966D01*
X44009Y-49979D01*
X44018Y-50006D01*
X44018Y-50152D01*
X44018Y-50006D02*
X44027Y-49979D01*
X44044Y-49966D01*
X44069Y-49966D01*
X44087Y-49979D01*
X44095Y-50006D01*
X44095Y-50152D01*
X44181Y-50152D02*
X44181Y-49966D01*
X44181Y-49872D02*
X44172Y-49886D01*
X44181Y-49899D01*
X44189Y-49886D01*
X44181Y-49872D01*
X44181Y-49899D01*
X44258Y-50139D02*
X44275Y-50152D01*
X44310Y-50152D01*
X44327Y-50139D01*
X44335Y-50112D01*
X44335Y-50099D01*
X44327Y-50072D01*
X44310Y-50059D01*
X44284Y-50059D01*
X44267Y-50046D01*
X44258Y-50019D01*
X44258Y-50006D01*
X44267Y-49979D01*
X44284Y-49966D01*
X44310Y-49966D01*
X44327Y-49979D01*
X44387Y-49966D02*
X44456Y-49966D01*
X44413Y-49872D02*
X44413Y-50112D01*
X44421Y-50139D01*
X44439Y-50152D01*
X44456Y-50152D01*
X44687Y-49872D02*
X44721Y-49872D01*
X44739Y-49886D01*
X44756Y-49912D01*
X44764Y-49966D01*
X44764Y-50059D01*
X44756Y-50112D01*
X44739Y-50139D01*
X44721Y-50152D01*
X44687Y-50152D01*
X44670Y-50139D01*
X44653Y-50112D01*
X44644Y-50059D01*
X44644Y-49966D01*
X44653Y-49912D01*
X44670Y-49886D01*
X44687Y-49872D01*
X44842Y-49966D02*
X44842Y-50152D01*
X44842Y-49992D02*
X44850Y-49979D01*
X44868Y-49966D01*
X44893Y-49966D01*
X44910Y-49979D01*
X44919Y-50006D01*
X44919Y-50152D01*
X45073Y-50139D02*
X45056Y-50152D01*
X45022Y-50152D01*
X45005Y-50139D01*
X44996Y-50112D01*
X44996Y-50006D01*
X45005Y-49979D01*
X45022Y-49966D01*
X45056Y-49966D01*
X45073Y-49979D01*
X45082Y-50006D01*
X45082Y-50032D01*
X44996Y-50059D01*
X45159Y-50126D02*
X45167Y-50139D01*
X45159Y-50152D01*
X45150Y-50139D01*
X45159Y-50126D01*
X45159Y-50152D01*
G54D11*
X39370Y-51181D02*
X39370Y-39370D01*
X47244Y-51181D02*
X39370Y-51181D01*
X47244Y-41220D02*
X47244Y-51181D01*
X39370Y-39370D02*
X46732Y-39370D01*
G54D13*
X45903Y-40257D02*
X45903Y-39903D01*
X45903Y-39903D02*
X45746Y-39903D01*
X45746Y-40257D02*
X45746Y-39903D01*
X45903Y-40257D02*
X45746Y-40257D01*
X46414Y-40257D02*
X46414Y-39903D01*
X46414Y-39903D02*
X46257Y-39903D01*
X46257Y-40257D02*
X46257Y-39903D01*
X46414Y-40257D02*
X46257Y-40257D01*
X46080Y-40257D02*
X46080Y-40198D01*
X46080Y-40198D02*
X45962Y-40198D01*
X45962Y-40257D02*
X45962Y-40198D01*
X46080Y-40257D02*
X45962Y-40257D01*
X46080Y-39962D02*
X46080Y-39903D01*
X46080Y-39903D02*
X45962Y-39903D01*
X45962Y-39962D02*
X45962Y-39903D01*
X46080Y-39962D02*
X45962Y-39962D01*
X46080Y-40139D02*
X46080Y-40021D01*
X46080Y-40021D02*
X45962Y-40021D01*
X45962Y-40139D02*
X45962Y-40021D01*
X46080Y-40139D02*
X45962Y-40139D01*
G54D14*
X45903Y-40237D02*
X46257Y-40237D01*
X45903Y-39923D02*
X46257Y-39923D01*
G54D13*
X45623Y-50173D02*
X45977Y-50173D01*
X45977Y-50173D02*
X45977Y-50016D01*
X45623Y-50016D02*
X45977Y-50016D01*
X45623Y-50173D02*
X45623Y-50016D01*
X45623Y-50684D02*
X45977Y-50684D01*
X45977Y-50684D02*
X45977Y-50527D01*
X45623Y-50527D02*
X45977Y-50527D01*
X45623Y-50684D02*
X45623Y-50527D01*
X45623Y-50350D02*
X45682Y-50350D01*
X45682Y-50350D02*
X45682Y-50232D01*
X45623Y-50232D02*
X45682Y-50232D01*
X45623Y-50350D02*
X45623Y-50232D01*
X45918Y-50350D02*
X45977Y-50350D01*
X45977Y-50350D02*
X45977Y-50232D01*
X45918Y-50232D02*
X45977Y-50232D01*
X45918Y-50350D02*
X45918Y-50232D01*
X45741Y-50350D02*
X45859Y-50350D01*
X45859Y-50350D02*
X45859Y-50232D01*
X45741Y-50232D02*
X45859Y-50232D01*
X45741Y-50350D02*
X45741Y-50232D01*
G54D14*
X45643Y-50173D02*
X45643Y-50527D01*
X45957Y-50173D02*
X45957Y-50527D01*
G54D13*
X45123Y-50173D02*
X45477Y-50173D01*
X45477Y-50173D02*
X45477Y-50016D01*
X45123Y-50016D02*
X45477Y-50016D01*
X45123Y-50173D02*
X45123Y-50016D01*
X45123Y-50684D02*
X45477Y-50684D01*
X45477Y-50684D02*
X45477Y-50527D01*
X45123Y-50527D02*
X45477Y-50527D01*
X45123Y-50684D02*
X45123Y-50527D01*
X45123Y-50350D02*
X45182Y-50350D01*
X45182Y-50350D02*
X45182Y-50232D01*
X45123Y-50232D02*
X45182Y-50232D01*
X45123Y-50350D02*
X45123Y-50232D01*
X45418Y-50350D02*
X45477Y-50350D01*
X45477Y-50350D02*
X45477Y-50232D01*
X45418Y-50232D02*
X45477Y-50232D01*
X45418Y-50350D02*
X45418Y-50232D01*
X45241Y-50350D02*
X45359Y-50350D01*
X45359Y-50350D02*
X45359Y-50232D01*
X45241Y-50232D02*
X45359Y-50232D01*
X45241Y-50350D02*
X45241Y-50232D01*
G54D14*
X45143Y-50173D02*
X45143Y-50527D01*
X45457Y-50173D02*
X45457Y-50527D01*
G54D15*
X43613Y-44096D02*
X43611Y-44112D01*
X43606Y-44127D01*
X43599Y-44141D01*
X43588Y-44154D01*
X43576Y-44164D01*
X43562Y-44172D01*
X43546Y-44177D01*
X43530Y-44178D01*
X43515Y-44177D01*
X43499Y-44172D01*
X43485Y-44165D01*
X43472Y-44155D01*
X43462Y-44142D01*
X43454Y-44128D01*
X43449Y-44113D01*
X43448Y-44097D01*
X43449Y-44082D01*
X43453Y-44066D01*
X43461Y-44052D01*
X43471Y-44039D01*
X43483Y-44028D01*
X43497Y-44020D01*
X43513Y-44015D01*
X43529Y-44014D01*
X43544Y-44015D01*
X43560Y-44019D01*
X43574Y-44026D01*
X43587Y-44036D01*
X43597Y-44049D01*
X43605Y-44063D01*
X43610Y-44078D01*
X43612Y-44094D01*
X43613Y-44096D01*
X43825Y-44726D02*
X43825Y-44588D01*
X43825Y-44588D02*
X43727Y-44490D01*
X43727Y-44490D02*
X43589Y-44490D01*
X40282Y-47797D02*
X40282Y-48033D01*
X40282Y-48033D02*
X40518Y-48033D01*
X40518Y-44490D02*
X40282Y-44490D01*
X40282Y-44490D02*
X40282Y-44726D01*
X43589Y-48033D02*
X43825Y-48033D01*
X43825Y-48033D02*
X43825Y-47797D01*
X44920Y-44250D02*
X45650Y-44250D01*
X45650Y-44250D02*
X45650Y-44630D01*
X45650Y-44630D02*
X44920Y-44630D01*
X44920Y-44630D02*
X44920Y-44250D01*
X43397Y-43808D02*
X43397Y-43078D01*
X43397Y-43078D02*
X43777Y-43078D01*
X43777Y-43078D02*
X43777Y-43808D01*
X43777Y-43808D02*
X43397Y-43808D01*
X43860Y-41540D02*
X43860Y-40810D01*
X43860Y-40810D02*
X44240Y-40810D01*
X44240Y-40810D02*
X44240Y-41540D01*
X44240Y-41540D02*
X43860Y-41540D01*
X44900Y-47140D02*
X44170Y-47140D01*
X44170Y-47140D02*
X44170Y-46760D01*
X44170Y-46760D02*
X44900Y-46760D01*
X44900Y-46760D02*
X44900Y-47140D01*
X44900Y-46760D02*
X44170Y-46760D01*
X44170Y-46760D02*
X44170Y-46380D01*
X44170Y-46380D02*
X44900Y-46380D01*
X44900Y-46380D02*
X44900Y-46760D01*
X45820Y-41110D02*
X46550Y-41110D01*
X46550Y-41110D02*
X46550Y-41490D01*
X46550Y-41490D02*
X45820Y-41490D01*
X45820Y-41490D02*
X45820Y-41110D01*
X45820Y-40730D02*
X46550Y-40730D01*
X46550Y-40730D02*
X46550Y-41110D01*
X46550Y-41110D02*
X45820Y-41110D01*
X45820Y-41110D02*
X45820Y-40730D01*
X44710Y-39650D02*
X45440Y-39650D01*
X45440Y-39650D02*
X45440Y-40030D01*
X45440Y-40030D02*
X44710Y-40030D01*
X44710Y-40030D02*
X44710Y-39650D01*
X42260Y-48390D02*
X42990Y-48390D01*
X42990Y-48390D02*
X42990Y-48770D01*
X42990Y-48770D02*
X42260Y-48770D01*
X42260Y-48770D02*
X42260Y-48390D01*
X44170Y-47140D02*
X44900Y-47140D01*
X44900Y-47140D02*
X44900Y-47520D01*
X44900Y-47520D02*
X44170Y-47520D01*
X44170Y-47520D02*
X44170Y-47140D01*
X39970Y-47370D02*
X39970Y-48100D01*
X39970Y-48100D02*
X39590Y-48100D01*
X39590Y-48100D02*
X39590Y-47370D01*
X39590Y-47370D02*
X39970Y-47370D01*
X41550Y-48380D02*
X41550Y-49110D01*
X41550Y-49110D02*
X41170Y-49110D01*
X41170Y-49110D02*
X41170Y-48380D01*
X41170Y-48380D02*
X41550Y-48380D01*
X44150Y-44600D02*
X44880Y-44600D01*
X44880Y-44600D02*
X44880Y-44980D01*
X44880Y-44980D02*
X44150Y-44980D01*
X44150Y-44980D02*
X44150Y-44600D01*
X43359Y-43078D02*
X43359Y-43808D01*
X43359Y-43808D02*
X42979Y-43808D01*
X42979Y-43808D02*
X42979Y-43078D01*
X42979Y-43078D02*
X43359Y-43078D01*
X42060Y-43058D02*
X42060Y-43788D01*
X42060Y-43788D02*
X41680Y-43788D01*
X41680Y-43788D02*
X41680Y-43058D01*
X41680Y-43058D02*
X42060Y-43058D01*
X46550Y-40730D02*
X45820Y-40730D01*
X45820Y-40730D02*
X45820Y-40350D01*
X45820Y-40350D02*
X46550Y-40350D01*
X46550Y-40350D02*
X46550Y-40730D01*
X45820Y-42660D02*
X46550Y-42660D01*
X46550Y-42660D02*
X46550Y-43040D01*
X46550Y-43040D02*
X45820Y-43040D01*
X45820Y-43040D02*
X45820Y-42660D01*
X45820Y-41490D02*
X46550Y-41490D01*
X46550Y-41490D02*
X46550Y-41870D01*
X46550Y-41870D02*
X45820Y-41870D01*
X45820Y-41870D02*
X45820Y-41490D01*
G54D16*
X44630Y-40090D02*
X45530Y-40090D01*
X45530Y-40090D02*
X45530Y-40590D01*
X45530Y-40590D02*
X44630Y-40590D01*
X44630Y-40590D02*
X44630Y-40090D01*
X45830Y-43100D02*
X46730Y-43100D01*
X46730Y-43100D02*
X46730Y-43600D01*
X46730Y-43600D02*
X45830Y-43600D01*
X45830Y-43600D02*
X45830Y-43100D01*
X41120Y-48380D02*
X41120Y-49280D01*
X41120Y-49280D02*
X40620Y-49280D01*
X40620Y-49280D02*
X40620Y-48380D01*
X40620Y-48380D02*
X41120Y-48380D01*
X45400Y-41890D02*
X44700Y-41890D01*
X44700Y-41890D02*
X44700Y-40690D01*
X44700Y-40690D02*
X45400Y-40690D01*
X45400Y-40690D02*
X45400Y-41890D01*
G54D15*
X46227Y-47872D02*
X46225Y-47885D01*
X46221Y-47898D01*
X46215Y-47910D01*
X46206Y-47921D01*
X46196Y-47930D01*
X46184Y-47936D01*
X46171Y-47940D01*
X46157Y-47941D01*
X46144Y-47940D01*
X46131Y-47936D01*
X46119Y-47930D01*
X46109Y-47922D01*
X46100Y-47911D01*
X46093Y-47899D01*
X46089Y-47886D01*
X46088Y-47872D01*
X46089Y-47860D01*
X46092Y-47847D01*
X46099Y-47835D01*
X46107Y-47824D01*
X46118Y-47815D01*
X46129Y-47808D01*
X46142Y-47804D01*
X46156Y-47803D01*
X46169Y-47804D01*
X46182Y-47807D01*
X46194Y-47813D01*
X46205Y-47822D01*
X46214Y-47832D01*
X46220Y-47844D01*
X46225Y-47857D01*
X46226Y-47871D01*
X46227Y-47872D01*
X46587Y-48848D02*
X46587Y-48927D01*
X46587Y-48927D02*
X46041Y-48929D01*
X46041Y-48929D02*
X46041Y-48848D01*
X46586Y-47821D02*
X46586Y-47743D01*
X46586Y-47743D02*
X46045Y-47744D01*
X46045Y-47744D02*
X46044Y-47817D01*
X42686Y-42925D02*
X42684Y-42941D01*
X42679Y-42958D01*
X42671Y-42973D01*
X42660Y-42986D01*
X42647Y-42997D01*
X42632Y-43005D01*
X42616Y-43010D01*
X42599Y-43011D01*
X42583Y-43010D01*
X42567Y-43005D01*
X42552Y-42997D01*
X42539Y-42987D01*
X42528Y-42974D01*
X42520Y-42959D01*
X42514Y-42943D01*
X42513Y-42926D01*
X42514Y-42910D01*
X42519Y-42893D01*
X42526Y-42878D01*
X42537Y-42865D01*
X42550Y-42854D01*
X42565Y-42846D01*
X42581Y-42841D01*
X42598Y-42839D01*
X42614Y-42840D01*
X42630Y-42844D01*
X42645Y-42852D01*
X42658Y-42862D01*
X42670Y-42875D01*
X42678Y-42890D01*
X42683Y-42906D01*
X42685Y-42923D01*
X42686Y-42925D01*
X43446Y-40307D02*
X43446Y-41704D01*
X40414Y-39578D02*
X40414Y-38732D01*
X40414Y-38732D02*
X43446Y-38732D01*
X43446Y-38732D02*
X43446Y-39559D01*
X40414Y-41704D02*
X40414Y-40307D01*
X42678Y-42393D02*
X43308Y-42393D01*
X41222Y-42393D02*
X40592Y-42393D01*
X40759Y-43788D02*
X40759Y-43058D01*
X40759Y-43058D02*
X41139Y-43058D01*
X41139Y-43058D02*
X41139Y-43788D01*
X41139Y-43788D02*
X40759Y-43788D01*
X42349Y-43792D02*
X42349Y-43062D01*
X42349Y-43062D02*
X42729Y-43062D01*
X42729Y-43062D02*
X42729Y-43792D01*
X42729Y-43792D02*
X42349Y-43792D01*
X44316Y-42970D02*
X44314Y-42981D01*
X44311Y-42992D01*
X44306Y-43002D01*
X44298Y-43011D01*
X44289Y-43018D01*
X44279Y-43024D01*
X44268Y-43027D01*
X44257Y-43028D01*
X44246Y-43027D01*
X44235Y-43024D01*
X44225Y-43019D01*
X44216Y-43012D01*
X44209Y-43003D01*
X44203Y-42993D01*
X44200Y-42982D01*
X44199Y-42970D01*
X44199Y-42960D01*
X44203Y-42949D01*
X44208Y-42939D01*
X44215Y-42930D01*
X44224Y-42922D01*
X44234Y-42916D01*
X44245Y-42913D01*
X44256Y-42912D01*
X44267Y-42912D01*
X44278Y-42915D01*
X44288Y-42921D01*
X44297Y-42928D01*
X44305Y-42936D01*
X44310Y-42947D01*
X44314Y-42957D01*
X44315Y-42969D01*
X44316Y-42970D01*
X45645Y-42596D02*
X44365Y-42596D01*
X44365Y-42596D02*
X44365Y-44210D01*
X44365Y-44210D02*
X45645Y-44210D01*
X45645Y-44210D02*
X45645Y-42596D01*
G54D17*
X45880Y-39845D02*
X45880Y-39545D01*
X45952Y-39545D01*
X45995Y-39560D01*
X46023Y-39588D01*
X46038Y-39617D01*
X46052Y-39674D01*
X46052Y-39717D01*
X46038Y-39774D01*
X46023Y-39803D01*
X45995Y-39831D01*
X45952Y-39845D01*
X45880Y-39845D01*
X46166Y-39574D02*
X46180Y-39560D01*
X46209Y-39545D01*
X46280Y-39545D01*
X46309Y-39560D01*
X46323Y-39574D01*
X46338Y-39603D01*
X46338Y-39631D01*
X46323Y-39674D01*
X46152Y-39845D01*
X46338Y-39845D01*
X45578Y-49781D02*
X45578Y-49481D01*
X45650Y-49481D01*
X45693Y-49496D01*
X45721Y-49524D01*
X45736Y-49553D01*
X45750Y-49610D01*
X45750Y-49653D01*
X45736Y-49710D01*
X45721Y-49739D01*
X45693Y-49767D01*
X45650Y-49781D01*
X45578Y-49781D01*
X45850Y-49481D02*
X46036Y-49481D01*
X45936Y-49596D01*
X45978Y-49596D01*
X46007Y-49610D01*
X46021Y-49624D01*
X46036Y-49653D01*
X46036Y-49724D01*
X46021Y-49753D01*
X46007Y-49767D01*
X45978Y-49781D01*
X45893Y-49781D01*
X45864Y-49767D01*
X45850Y-49753D01*
X44988Y-49791D02*
X44988Y-49491D01*
X45060Y-49491D01*
X45103Y-49506D01*
X45131Y-49534D01*
X45146Y-49563D01*
X45160Y-49620D01*
X45160Y-49663D01*
X45146Y-49720D01*
X45131Y-49749D01*
X45103Y-49777D01*
X45060Y-49791D01*
X44988Y-49791D01*
X45417Y-49591D02*
X45417Y-49791D01*
X45346Y-49477D02*
X45274Y-49691D01*
X45460Y-49691D01*
G54D12*
X40133Y-48193D02*
X40133Y-48420D01*
X40141Y-48447D01*
X40150Y-48460D01*
X40167Y-48473D01*
X40201Y-48473D01*
X40219Y-48460D01*
X40227Y-48447D01*
X40236Y-48420D01*
X40236Y-48193D01*
X40408Y-48193D02*
X40322Y-48193D01*
X40313Y-48327D01*
X40322Y-48313D01*
X40339Y-48300D01*
X40382Y-48300D01*
X40399Y-48313D01*
X40408Y-48327D01*
X40416Y-48353D01*
X40416Y-48420D01*
X40408Y-48447D01*
X40399Y-48460D01*
X40382Y-48473D01*
X40339Y-48473D01*
X40322Y-48460D01*
X40313Y-48447D01*
X45811Y-44547D02*
X45802Y-44560D01*
X45776Y-44573D01*
X45759Y-44573D01*
X45734Y-44560D01*
X45716Y-44533D01*
X45708Y-44507D01*
X45699Y-44453D01*
X45699Y-44413D01*
X45708Y-44360D01*
X45716Y-44333D01*
X45734Y-44307D01*
X45759Y-44293D01*
X45776Y-44293D01*
X45802Y-44307D01*
X45811Y-44320D01*
X45982Y-44573D02*
X45879Y-44573D01*
X45931Y-44573D02*
X45931Y-44293D01*
X45914Y-44333D01*
X45896Y-44360D01*
X45879Y-44373D01*
X43714Y-44157D02*
X43727Y-44166D01*
X43740Y-44192D01*
X43740Y-44209D01*
X43727Y-44234D01*
X43700Y-44252D01*
X43674Y-44260D01*
X43620Y-44269D01*
X43580Y-44269D01*
X43527Y-44260D01*
X43500Y-44252D01*
X43474Y-44234D01*
X43460Y-44209D01*
X43460Y-44192D01*
X43474Y-44166D01*
X43487Y-44157D01*
X43460Y-44097D02*
X43460Y-43986D01*
X43567Y-44046D01*
X43567Y-44020D01*
X43580Y-44003D01*
X43594Y-43994D01*
X43620Y-43986D01*
X43687Y-43986D01*
X43714Y-43994D01*
X43727Y-44003D01*
X43740Y-44020D01*
X43740Y-44072D01*
X43727Y-44089D01*
X43714Y-44097D01*
X43701Y-40567D02*
X43641Y-40567D01*
X43641Y-40713D02*
X43641Y-40433D01*
X43727Y-40433D01*
X43855Y-40567D02*
X43881Y-40580D01*
X43889Y-40593D01*
X43898Y-40620D01*
X43898Y-40660D01*
X43889Y-40687D01*
X43881Y-40700D01*
X43863Y-40713D01*
X43795Y-40713D01*
X43795Y-40433D01*
X43855Y-40433D01*
X43872Y-40447D01*
X43881Y-40460D01*
X43889Y-40487D01*
X43889Y-40513D01*
X43881Y-40540D01*
X43872Y-40553D01*
X43855Y-40567D01*
X43795Y-40567D01*
X44069Y-40713D02*
X43966Y-40713D01*
X44018Y-40713D02*
X44018Y-40433D01*
X44001Y-40473D01*
X43983Y-40500D01*
X43966Y-40513D01*
X45091Y-47103D02*
X45031Y-46970D01*
X44988Y-47103D02*
X44988Y-46823D01*
X45056Y-46823D01*
X45074Y-46837D01*
X45082Y-46850D01*
X45091Y-46877D01*
X45091Y-46917D01*
X45082Y-46943D01*
X45074Y-46957D01*
X45056Y-46970D01*
X44988Y-46970D01*
X45176Y-47103D02*
X45211Y-47103D01*
X45228Y-47090D01*
X45236Y-47077D01*
X45254Y-47037D01*
X45262Y-46983D01*
X45262Y-46877D01*
X45254Y-46850D01*
X45245Y-46837D01*
X45228Y-46823D01*
X45194Y-46823D01*
X45176Y-46837D01*
X45168Y-46850D01*
X45159Y-46877D01*
X45159Y-46943D01*
X45168Y-46970D01*
X45176Y-46983D01*
X45194Y-46997D01*
X45228Y-46997D01*
X45245Y-46983D01*
X45254Y-46970D01*
X45262Y-46943D01*
X45091Y-46713D02*
X45031Y-46580D01*
X44988Y-46713D02*
X44988Y-46433D01*
X45056Y-46433D01*
X45074Y-46447D01*
X45082Y-46460D01*
X45091Y-46487D01*
X45091Y-46527D01*
X45082Y-46553D01*
X45074Y-46567D01*
X45056Y-46580D01*
X44988Y-46580D01*
X45151Y-46433D02*
X45271Y-46433D01*
X45194Y-46713D01*
X46735Y-42331D02*
X46726Y-42344D01*
X46700Y-42357D01*
X46683Y-42357D01*
X46658Y-42344D01*
X46640Y-42317D01*
X46632Y-42291D01*
X46623Y-42237D01*
X46623Y-42197D01*
X46632Y-42144D01*
X46640Y-42117D01*
X46658Y-42091D01*
X46683Y-42077D01*
X46700Y-42077D01*
X46726Y-42091D01*
X46735Y-42104D01*
X46906Y-42357D02*
X46803Y-42357D01*
X46855Y-42357D02*
X46855Y-42077D01*
X46838Y-42117D01*
X46820Y-42144D01*
X46803Y-42157D01*
X47069Y-42077D02*
X46983Y-42077D01*
X46974Y-42211D01*
X46983Y-42197D01*
X47000Y-42184D01*
X47043Y-42184D01*
X47060Y-42197D01*
X47069Y-42211D01*
X47077Y-42237D01*
X47077Y-42304D01*
X47069Y-42331D01*
X47060Y-42344D01*
X47043Y-42357D01*
X47000Y-42357D01*
X46983Y-42344D01*
X46974Y-42331D01*
X46735Y-41977D02*
X46726Y-41990D01*
X46700Y-42003D01*
X46683Y-42003D01*
X46658Y-41990D01*
X46640Y-41963D01*
X46632Y-41937D01*
X46623Y-41883D01*
X46623Y-41843D01*
X46632Y-41790D01*
X46640Y-41763D01*
X46658Y-41737D01*
X46683Y-41723D01*
X46700Y-41723D01*
X46726Y-41737D01*
X46735Y-41750D01*
X46906Y-42003D02*
X46803Y-42003D01*
X46855Y-42003D02*
X46855Y-41723D01*
X46838Y-41763D01*
X46820Y-41790D01*
X46803Y-41803D01*
X47060Y-41817D02*
X47060Y-42003D01*
X47017Y-41710D02*
X46974Y-41910D01*
X47086Y-41910D01*
X44275Y-39957D02*
X44266Y-39970D01*
X44240Y-39983D01*
X44223Y-39983D01*
X44198Y-39970D01*
X44180Y-39943D01*
X44172Y-39917D01*
X44163Y-39863D01*
X44163Y-39823D01*
X44172Y-39770D01*
X44180Y-39743D01*
X44198Y-39717D01*
X44223Y-39703D01*
X44240Y-39703D01*
X44266Y-39717D01*
X44275Y-39730D01*
X44446Y-39983D02*
X44343Y-39983D01*
X44395Y-39983D02*
X44395Y-39703D01*
X44378Y-39743D01*
X44360Y-39770D01*
X44343Y-39783D01*
X44506Y-39703D02*
X44617Y-39703D01*
X44557Y-39810D01*
X44583Y-39810D01*
X44600Y-39823D01*
X44609Y-39837D01*
X44617Y-39863D01*
X44617Y-39930D01*
X44609Y-39957D01*
X44600Y-39970D01*
X44583Y-39983D01*
X44531Y-39983D01*
X44514Y-39970D01*
X44506Y-39957D01*
X43192Y-48807D02*
X43183Y-48820D01*
X43157Y-48833D01*
X43140Y-48833D01*
X43115Y-48820D01*
X43097Y-48793D01*
X43089Y-48767D01*
X43080Y-48713D01*
X43080Y-48673D01*
X43089Y-48620D01*
X43097Y-48593D01*
X43115Y-48567D01*
X43140Y-48553D01*
X43157Y-48553D01*
X43183Y-48567D01*
X43192Y-48580D01*
X43260Y-48580D02*
X43269Y-48567D01*
X43286Y-48553D01*
X43329Y-48553D01*
X43346Y-48567D01*
X43355Y-48580D01*
X43363Y-48607D01*
X43363Y-48633D01*
X43355Y-48673D01*
X43252Y-48833D01*
X43363Y-48833D01*
X43517Y-48647D02*
X43517Y-48833D01*
X43474Y-48540D02*
X43431Y-48740D01*
X43543Y-48740D01*
X45062Y-47626D02*
X45053Y-47639D01*
X45027Y-47652D01*
X45010Y-47652D01*
X44985Y-47639D01*
X44967Y-47612D01*
X44959Y-47586D01*
X44950Y-47532D01*
X44950Y-47492D01*
X44959Y-47439D01*
X44967Y-47412D01*
X44985Y-47386D01*
X45010Y-47372D01*
X45027Y-47372D01*
X45053Y-47386D01*
X45062Y-47399D01*
X45130Y-47399D02*
X45139Y-47386D01*
X45156Y-47372D01*
X45199Y-47372D01*
X45216Y-47386D01*
X45225Y-47399D01*
X45233Y-47426D01*
X45233Y-47452D01*
X45225Y-47492D01*
X45122Y-47652D01*
X45233Y-47652D01*
X45387Y-47372D02*
X45353Y-47372D01*
X45336Y-47386D01*
X45327Y-47399D01*
X45310Y-47439D01*
X45301Y-47492D01*
X45301Y-47599D01*
X45310Y-47626D01*
X45318Y-47639D01*
X45336Y-47652D01*
X45370Y-47652D01*
X45387Y-47639D01*
X45396Y-47626D01*
X45404Y-47599D01*
X45404Y-47532D01*
X45396Y-47506D01*
X45387Y-47492D01*
X45370Y-47479D01*
X45336Y-47479D01*
X45318Y-47492D01*
X45310Y-47506D01*
X45301Y-47532D01*
X39655Y-47277D02*
X39646Y-47290D01*
X39620Y-47303D01*
X39603Y-47303D01*
X39578Y-47290D01*
X39560Y-47263D01*
X39552Y-47237D01*
X39543Y-47183D01*
X39543Y-47143D01*
X39552Y-47090D01*
X39560Y-47063D01*
X39578Y-47037D01*
X39603Y-47023D01*
X39620Y-47023D01*
X39646Y-47037D01*
X39655Y-47050D01*
X39723Y-47050D02*
X39732Y-47037D01*
X39749Y-47023D01*
X39792Y-47023D01*
X39809Y-47037D01*
X39818Y-47050D01*
X39826Y-47077D01*
X39826Y-47103D01*
X39818Y-47143D01*
X39715Y-47303D01*
X39826Y-47303D01*
X39989Y-47023D02*
X39903Y-47023D01*
X39894Y-47157D01*
X39903Y-47143D01*
X39920Y-47130D01*
X39963Y-47130D01*
X39980Y-47143D01*
X39989Y-47157D01*
X39997Y-47183D01*
X39997Y-47250D01*
X39989Y-47277D01*
X39980Y-47290D01*
X39963Y-47303D01*
X39920Y-47303D01*
X39903Y-47290D01*
X39894Y-47277D01*
X41315Y-49447D02*
X41306Y-49460D01*
X41280Y-49473D01*
X41263Y-49473D01*
X41238Y-49460D01*
X41220Y-49433D01*
X41212Y-49407D01*
X41203Y-49353D01*
X41203Y-49313D01*
X41212Y-49260D01*
X41220Y-49233D01*
X41238Y-49207D01*
X41263Y-49193D01*
X41280Y-49193D01*
X41306Y-49207D01*
X41315Y-49220D01*
X41383Y-49220D02*
X41392Y-49207D01*
X41409Y-49193D01*
X41452Y-49193D01*
X41469Y-49207D01*
X41478Y-49220D01*
X41486Y-49247D01*
X41486Y-49273D01*
X41478Y-49313D01*
X41375Y-49473D01*
X41486Y-49473D01*
X41657Y-49473D02*
X41554Y-49473D01*
X41606Y-49473D02*
X41606Y-49193D01*
X41589Y-49233D01*
X41571Y-49260D01*
X41554Y-49273D01*
X45055Y-44957D02*
X45046Y-44970D01*
X45020Y-44983D01*
X45003Y-44983D01*
X44978Y-44970D01*
X44960Y-44943D01*
X44952Y-44917D01*
X44943Y-44863D01*
X44943Y-44823D01*
X44952Y-44770D01*
X44960Y-44743D01*
X44978Y-44717D01*
X45003Y-44703D01*
X45020Y-44703D01*
X45046Y-44717D01*
X45055Y-44730D01*
X45123Y-44730D02*
X45132Y-44717D01*
X45149Y-44703D01*
X45192Y-44703D01*
X45209Y-44717D01*
X45218Y-44730D01*
X45226Y-44757D01*
X45226Y-44783D01*
X45218Y-44823D01*
X45115Y-44983D01*
X45226Y-44983D01*
X45294Y-44730D02*
X45303Y-44717D01*
X45320Y-44703D01*
X45363Y-44703D01*
X45380Y-44717D01*
X45389Y-44730D01*
X45397Y-44757D01*
X45397Y-44783D01*
X45389Y-44823D01*
X45286Y-44983D01*
X45397Y-44983D01*
X43176Y-44207D02*
X43176Y-44267D01*
X43322Y-44267D02*
X43042Y-44267D01*
X43042Y-44181D01*
X43176Y-44053D02*
X43189Y-44027D01*
X43202Y-44019D01*
X43229Y-44010D01*
X43269Y-44010D01*
X43296Y-44019D01*
X43309Y-44027D01*
X43322Y-44045D01*
X43322Y-44113D01*
X43042Y-44113D01*
X43042Y-44053D01*
X43056Y-44036D01*
X43069Y-44027D01*
X43096Y-44019D01*
X43122Y-44019D01*
X43149Y-44027D01*
X43162Y-44036D01*
X43176Y-44053D01*
X43176Y-44113D01*
X43042Y-43950D02*
X43042Y-43839D01*
X43149Y-43899D01*
X43149Y-43873D01*
X43162Y-43856D01*
X43176Y-43847D01*
X43202Y-43839D01*
X43269Y-43839D01*
X43296Y-43847D01*
X43309Y-43856D01*
X43322Y-43873D01*
X43322Y-43925D01*
X43309Y-43942D01*
X43296Y-43950D01*
X41877Y-44187D02*
X41877Y-44247D01*
X42023Y-44247D02*
X41743Y-44247D01*
X41743Y-44161D01*
X41877Y-44033D02*
X41890Y-44007D01*
X41903Y-43999D01*
X41930Y-43990D01*
X41970Y-43990D01*
X41997Y-43999D01*
X42010Y-44007D01*
X42023Y-44025D01*
X42023Y-44093D01*
X41743Y-44093D01*
X41743Y-44033D01*
X41757Y-44016D01*
X41770Y-44007D01*
X41797Y-43999D01*
X41823Y-43999D01*
X41850Y-44007D01*
X41863Y-44016D01*
X41877Y-44033D01*
X41877Y-44093D01*
X41770Y-43922D02*
X41757Y-43913D01*
X41743Y-43896D01*
X41743Y-43853D01*
X41757Y-43836D01*
X41770Y-43827D01*
X41797Y-43819D01*
X41823Y-43819D01*
X41863Y-43827D01*
X42023Y-43930D01*
X42023Y-43819D01*
X46735Y-41648D02*
X46675Y-41515D01*
X46632Y-41648D02*
X46632Y-41368D01*
X46700Y-41368D01*
X46718Y-41382D01*
X46726Y-41395D01*
X46735Y-41422D01*
X46735Y-41462D01*
X46726Y-41488D01*
X46718Y-41502D01*
X46700Y-41515D01*
X46632Y-41515D01*
X46906Y-41648D02*
X46803Y-41648D01*
X46855Y-41648D02*
X46855Y-41368D01*
X46838Y-41408D01*
X46820Y-41435D01*
X46803Y-41448D01*
X47069Y-41368D02*
X46983Y-41368D01*
X46974Y-41502D01*
X46983Y-41488D01*
X47000Y-41475D01*
X47043Y-41475D01*
X47060Y-41488D01*
X47069Y-41502D01*
X47077Y-41528D01*
X47077Y-41595D01*
X47069Y-41622D01*
X47060Y-41635D01*
X47043Y-41648D01*
X47000Y-41648D01*
X46983Y-41635D01*
X46974Y-41622D01*
X46027Y-42567D02*
X46018Y-42580D01*
X45992Y-42593D01*
X45975Y-42593D01*
X45950Y-42580D01*
X45932Y-42553D01*
X45924Y-42527D01*
X45915Y-42473D01*
X45915Y-42433D01*
X45924Y-42380D01*
X45932Y-42353D01*
X45950Y-42327D01*
X45975Y-42313D01*
X45992Y-42313D01*
X46018Y-42327D01*
X46027Y-42340D01*
X46198Y-42593D02*
X46095Y-42593D01*
X46147Y-42593D02*
X46147Y-42313D01*
X46130Y-42353D01*
X46112Y-42380D01*
X46095Y-42393D01*
X46301Y-42433D02*
X46283Y-42420D01*
X46275Y-42407D01*
X46266Y-42380D01*
X46266Y-42367D01*
X46275Y-42340D01*
X46283Y-42327D01*
X46301Y-42313D01*
X46335Y-42313D01*
X46352Y-42327D01*
X46361Y-42340D01*
X46369Y-42367D01*
X46369Y-42380D01*
X46361Y-42407D01*
X46352Y-42420D01*
X46335Y-42433D01*
X46301Y-42433D01*
X46283Y-42447D01*
X46275Y-42460D01*
X46266Y-42487D01*
X46266Y-42540D01*
X46275Y-42567D01*
X46283Y-42580D01*
X46301Y-42593D01*
X46335Y-42593D01*
X46352Y-42580D01*
X46361Y-42567D01*
X46369Y-42540D01*
X46369Y-42487D01*
X46361Y-42460D01*
X46352Y-42447D01*
X46335Y-42433D01*
X46735Y-42685D02*
X46726Y-42698D01*
X46700Y-42711D01*
X46683Y-42711D01*
X46658Y-42698D01*
X46640Y-42671D01*
X46632Y-42645D01*
X46623Y-42591D01*
X46623Y-42551D01*
X46632Y-42498D01*
X46640Y-42471D01*
X46658Y-42445D01*
X46683Y-42431D01*
X46700Y-42431D01*
X46726Y-42445D01*
X46735Y-42458D01*
X46906Y-42711D02*
X46803Y-42711D01*
X46855Y-42711D02*
X46855Y-42431D01*
X46838Y-42471D01*
X46820Y-42498D01*
X46803Y-42511D01*
X47060Y-42431D02*
X47026Y-42431D01*
X47009Y-42445D01*
X47000Y-42458D01*
X46983Y-42498D01*
X46974Y-42551D01*
X46974Y-42658D01*
X46983Y-42685D01*
X46991Y-42698D01*
X47009Y-42711D01*
X47043Y-42711D01*
X47060Y-42698D01*
X47069Y-42685D01*
X47077Y-42658D01*
X47077Y-42591D01*
X47069Y-42565D01*
X47060Y-42551D01*
X47043Y-42538D01*
X47009Y-42538D01*
X46991Y-42551D01*
X46983Y-42565D01*
X46974Y-42591D01*
X44235Y-40727D02*
X44226Y-40740D01*
X44200Y-40753D01*
X44183Y-40753D01*
X44158Y-40740D01*
X44140Y-40713D01*
X44132Y-40687D01*
X44123Y-40633D01*
X44123Y-40593D01*
X44132Y-40540D01*
X44140Y-40513D01*
X44158Y-40487D01*
X44183Y-40473D01*
X44200Y-40473D01*
X44226Y-40487D01*
X44235Y-40500D01*
X44406Y-40753D02*
X44303Y-40753D01*
X44355Y-40753D02*
X44355Y-40473D01*
X44338Y-40513D01*
X44320Y-40540D01*
X44303Y-40553D01*
X44474Y-40500D02*
X44483Y-40487D01*
X44500Y-40473D01*
X44543Y-40473D01*
X44560Y-40487D01*
X44569Y-40500D01*
X44577Y-40527D01*
X44577Y-40553D01*
X44569Y-40593D01*
X44466Y-40753D01*
X44577Y-40753D01*
X46657Y-43945D02*
X46648Y-43958D01*
X46622Y-43971D01*
X46605Y-43971D01*
X46580Y-43958D01*
X46562Y-43931D01*
X46554Y-43905D01*
X46545Y-43851D01*
X46545Y-43811D01*
X46554Y-43758D01*
X46562Y-43731D01*
X46580Y-43705D01*
X46605Y-43691D01*
X46622Y-43691D01*
X46648Y-43705D01*
X46657Y-43718D01*
X46828Y-43971D02*
X46725Y-43971D01*
X46777Y-43971D02*
X46777Y-43691D01*
X46760Y-43731D01*
X46742Y-43758D01*
X46725Y-43771D01*
X46888Y-43691D02*
X47008Y-43691D01*
X46931Y-43971D01*
X40755Y-49617D02*
X40746Y-49630D01*
X40720Y-49643D01*
X40703Y-49643D01*
X40678Y-49630D01*
X40660Y-49603D01*
X40652Y-49577D01*
X40643Y-49523D01*
X40643Y-49483D01*
X40652Y-49430D01*
X40660Y-49403D01*
X40678Y-49377D01*
X40703Y-49363D01*
X40720Y-49363D01*
X40746Y-49377D01*
X40755Y-49390D01*
X40926Y-49643D02*
X40823Y-49643D01*
X40875Y-49643D02*
X40875Y-49363D01*
X40858Y-49403D01*
X40840Y-49430D01*
X40823Y-49443D01*
X41011Y-49643D02*
X41046Y-49643D01*
X41063Y-49630D01*
X41071Y-49617D01*
X41089Y-49577D01*
X41097Y-49523D01*
X41097Y-49417D01*
X41089Y-49390D01*
X41080Y-49377D01*
X41063Y-49363D01*
X41029Y-49363D01*
X41011Y-49377D01*
X41003Y-49390D01*
X40994Y-49417D01*
X40994Y-49483D01*
X41003Y-49510D01*
X41011Y-49523D01*
X41029Y-49537D01*
X41063Y-49537D01*
X41080Y-49523D01*
X41089Y-49510D01*
X41097Y-49483D01*
G54D16*
X44860Y-42001D02*
X44860Y-42244D01*
X44871Y-42273D01*
X44883Y-42287D01*
X44907Y-42301D01*
X44955Y-42301D01*
X44979Y-42287D01*
X44990Y-42273D01*
X45002Y-42244D01*
X45002Y-42001D01*
X45229Y-42101D02*
X45229Y-42301D01*
X45169Y-41987D02*
X45110Y-42201D01*
X45264Y-42201D01*
G54D12*
X46103Y-49003D02*
X46103Y-49230D01*
X46111Y-49257D01*
X46120Y-49270D01*
X46137Y-49283D01*
X46171Y-49283D01*
X46189Y-49270D01*
X46197Y-49257D01*
X46206Y-49230D01*
X46206Y-49003D01*
X46275Y-49003D02*
X46395Y-49003D01*
X46318Y-49283D01*
X39810Y-40743D02*
X39810Y-40943D01*
X39802Y-40983D01*
X39785Y-41010D01*
X39759Y-41023D01*
X39742Y-41023D01*
X39990Y-41023D02*
X39887Y-41023D01*
X39939Y-41023D02*
X39939Y-40743D01*
X39922Y-40783D01*
X39904Y-40810D01*
X39887Y-40823D01*
X41082Y-43997D02*
X40949Y-44057D01*
X41082Y-44100D02*
X40802Y-44100D01*
X40802Y-44032D01*
X40816Y-44014D01*
X40829Y-44006D01*
X40856Y-43997D01*
X40896Y-43997D01*
X40922Y-44006D01*
X40936Y-44014D01*
X40949Y-44032D01*
X40949Y-44100D01*
X40802Y-43843D02*
X40802Y-43877D01*
X40816Y-43894D01*
X40829Y-43903D01*
X40869Y-43920D01*
X40922Y-43929D01*
X41029Y-43929D01*
X41056Y-43920D01*
X41069Y-43912D01*
X41082Y-43894D01*
X41082Y-43860D01*
X41069Y-43843D01*
X41056Y-43834D01*
X41029Y-43826D01*
X40962Y-43826D01*
X40936Y-43834D01*
X40922Y-43843D01*
X40909Y-43860D01*
X40909Y-43894D01*
X40922Y-43912D01*
X40936Y-43920D01*
X40962Y-43929D01*
X42702Y-44157D02*
X42569Y-44217D01*
X42702Y-44260D02*
X42422Y-44260D01*
X42422Y-44192D01*
X42436Y-44174D01*
X42449Y-44166D01*
X42476Y-44157D01*
X42516Y-44157D01*
X42542Y-44166D01*
X42556Y-44174D01*
X42569Y-44192D01*
X42569Y-44260D01*
X42702Y-43986D02*
X42702Y-44089D01*
X42702Y-44037D02*
X42422Y-44037D01*
X42462Y-44054D01*
X42489Y-44072D01*
X42502Y-44089D01*
X42516Y-43832D02*
X42702Y-43832D01*
X42409Y-43875D02*
X42609Y-43918D01*
X42609Y-43806D01*
X45723Y-44035D02*
X46003Y-43915D01*
X45723Y-43915D02*
X46003Y-44035D01*
X46003Y-43753D02*
X46003Y-43856D01*
X46003Y-43804D02*
X45723Y-43804D01*
X45763Y-43821D01*
X45790Y-43839D01*
X45803Y-43856D01*
M02*
