G04 (created by PCBNEW-RS274X (2010-05-05 BZR 2356)-stable) date 2010年10月26日 星期二 23时10分03秒*
G01*
G70*
G90*
%MOIN*%
G04 Gerber Fmt 3.4, Leading zero omitted, Abs format*
%FSLAX34Y34*%
G04 APERTURE LIST*
%ADD10C,0.006000*%
%ADD11C,0.015000*%
%ADD12R,0.018100X0.018100*%
%ADD13R,0.025000X0.045000*%
%ADD14R,0.060000X0.080000*%
%ADD15R,0.045000X0.020000*%
%ADD16R,0.030000X0.020000*%
%ADD17R,0.020000X0.030000*%
%ADD18R,0.039400X0.027600*%
%ADD19R,0.098400X0.039400*%
G04 APERTURE END LIST*
G54D10*
G54D11*
X47244Y-41220D02*
X47244Y-41220D01*
X46732Y-41221D02*
X47244Y-41221D01*
X46732Y-39370D02*
X46732Y-41220D01*
X39370Y-51181D02*
X39370Y-39370D01*
X47244Y-51181D02*
X39370Y-51181D01*
X47244Y-41220D02*
X47244Y-51181D01*
X39370Y-39370D02*
X46732Y-39370D01*
G54D12*
X43370Y-50010D03*
X43720Y-50010D03*
X46520Y-48580D03*
X46870Y-48580D03*
X43720Y-49630D03*
X43370Y-49630D03*
X40810Y-46180D03*
X40810Y-46530D03*
X41250Y-44940D03*
X41600Y-44940D03*
X43720Y-50390D03*
X43370Y-50390D03*
X43720Y-50780D03*
X43370Y-50780D03*
X40250Y-41210D03*
X40250Y-40860D03*
X42390Y-50880D03*
X42040Y-50880D03*
X40840Y-50880D03*
X40490Y-50880D03*
X40580Y-41680D03*
X40930Y-41680D03*
X39800Y-43920D03*
X39800Y-43570D03*
G54D13*
X43598Y-42677D03*
X44198Y-42677D03*
X41820Y-45400D03*
X41220Y-45400D03*
G54D14*
X41720Y-39930D03*
X43020Y-39930D03*
G54D15*
X46670Y-50790D03*
X46670Y-50290D03*
X46670Y-49790D03*
X46670Y-49290D03*
X44170Y-49290D03*
X44170Y-49790D03*
X44170Y-50290D03*
X44170Y-50790D03*
G54D16*
X41430Y-50395D03*
X41430Y-49645D03*
X42430Y-50395D03*
X41430Y-50020D03*
X42430Y-49645D03*
G54D17*
X40655Y-43120D03*
X39905Y-43120D03*
X40655Y-42120D03*
X40280Y-43120D03*
X39905Y-42120D03*
G54D16*
X39860Y-50385D03*
X39860Y-49635D03*
X40860Y-50385D03*
X39860Y-50010D03*
X40860Y-49635D03*
G54D18*
X41510Y-42320D03*
X41510Y-41945D03*
X41510Y-41572D03*
X42454Y-41570D03*
X42454Y-41948D03*
X42454Y-42320D03*
G54D12*
X43622Y-42244D03*
X43972Y-42244D03*
X41810Y-45870D03*
X41460Y-45870D03*
G54D19*
X44729Y-43630D03*
X42642Y-43630D03*
X44729Y-44417D03*
X42642Y-44417D03*
X44729Y-45205D03*
X42642Y-45205D03*
X44729Y-45992D03*
X42642Y-45992D03*
X44729Y-46780D03*
X42642Y-46780D03*
X44729Y-47567D03*
X42642Y-47567D03*
X44729Y-48354D03*
X42642Y-48354D03*
M02*
