G04 (created by PCBNEW-RS274X (2010-05-05 BZR 2356)-stable) date 2010年09月03日 星期五 23时32分26秒*
G01*
G70*
G90*
%MOIN*%
G04 Gerber Fmt 3.4, Leading zero omitted, Abs format*
%FSLAX34Y34*%
G04 APERTURE LIST*
%ADD10C,0.006000*%
%ADD11C,0.015000*%
%ADD12R,0.031400X0.031400*%
%ADD13R,0.009800X0.031500*%
%ADD14R,0.031500X0.009800*%
%ADD15R,0.171300X0.171300*%
%ADD16R,0.018100X0.018100*%
%ADD17R,0.025000X0.045000*%
%ADD18R,0.045000X0.025000*%
%ADD19R,0.030000X0.020000*%
%ADD20R,0.039400X0.027600*%
%ADD21R,0.019700X0.078700*%
%ADD22R,0.063000X0.070900*%
%ADD23C,0.039400*%
%ADD24R,0.045300X0.055100*%
%ADD25R,0.059100X0.059100*%
%ADD26C,0.059100*%
%ADD27C,0.022000*%
%ADD28C,0.035000*%
%ADD29C,0.010000*%
%ADD30C,0.020000*%
G04 APERTURE END LIST*
G54D10*
G54D11*
X47244Y-41220D02*
X47244Y-41220D01*
X46732Y-41221D02*
X47244Y-41221D01*
X46732Y-39370D02*
X46732Y-41220D01*
X39370Y-51181D02*
X39370Y-39370D01*
X47244Y-51181D02*
X39370Y-51181D01*
X47244Y-41220D02*
X47244Y-51181D01*
X39370Y-39370D02*
X46732Y-39370D01*
G54D12*
X46375Y-40080D03*
X45785Y-40080D03*
X45800Y-50645D03*
X45800Y-50055D03*
X45300Y-50645D03*
X45300Y-50055D03*
G54D13*
X43530Y-44490D03*
X43333Y-44490D03*
X43136Y-44490D03*
X42939Y-44490D03*
X42743Y-44490D03*
X42546Y-44490D03*
X42349Y-44490D03*
X42152Y-44490D03*
X41955Y-44490D03*
X41758Y-44490D03*
X41561Y-44490D03*
X41365Y-44490D03*
X41168Y-44490D03*
X40971Y-44490D03*
X40774Y-44490D03*
X40577Y-44490D03*
G54D14*
X40282Y-44785D03*
X40282Y-44982D03*
X40282Y-45179D03*
X40282Y-45376D03*
X40282Y-45573D03*
X40282Y-45770D03*
X40282Y-45966D03*
X40282Y-46163D03*
X40282Y-46360D03*
X40282Y-46557D03*
X40282Y-46754D03*
X40282Y-46951D03*
X40282Y-47147D03*
X40282Y-47344D03*
X40282Y-47541D03*
X40282Y-47738D03*
G54D13*
X40577Y-48033D03*
X40774Y-48033D03*
X40971Y-48033D03*
X41168Y-48033D03*
X41365Y-48033D03*
X41561Y-48033D03*
X41758Y-48033D03*
X41955Y-48033D03*
X42152Y-48033D03*
X42349Y-48033D03*
X42546Y-48033D03*
X42743Y-48033D03*
X42939Y-48033D03*
X43136Y-48033D03*
X43333Y-48033D03*
X43530Y-48033D03*
G54D14*
X43825Y-47738D03*
X43825Y-47541D03*
X43825Y-47344D03*
X43825Y-47147D03*
X43825Y-46951D03*
X43825Y-46754D03*
X43825Y-46557D03*
X43825Y-46360D03*
X43825Y-46163D03*
X43825Y-45966D03*
X43825Y-45770D03*
X43825Y-45573D03*
X43825Y-45376D03*
X43825Y-45179D03*
X43825Y-44982D03*
X43825Y-44785D03*
G54D15*
X42054Y-46262D03*
G54D16*
X41980Y-43600D03*
X41980Y-43250D03*
X42360Y-43600D03*
X42360Y-43250D03*
X45110Y-44440D03*
X45460Y-44440D03*
X43880Y-43600D03*
X43880Y-43250D03*
X42740Y-43250D03*
X42740Y-43600D03*
X41600Y-43250D03*
X41600Y-43600D03*
X44050Y-41350D03*
X44050Y-41000D03*
X44710Y-46950D03*
X44360Y-46950D03*
X44710Y-46570D03*
X44360Y-46570D03*
X46010Y-41300D03*
X46360Y-41300D03*
X46010Y-40920D03*
X46360Y-40920D03*
X44900Y-39840D03*
X45250Y-39840D03*
X42450Y-48580D03*
X42800Y-48580D03*
X44360Y-47330D03*
X44710Y-47330D03*
X39780Y-47560D03*
X39780Y-47910D03*
X41360Y-48570D03*
X41360Y-48920D03*
X44340Y-44790D03*
X44690Y-44790D03*
X43500Y-43250D03*
X43500Y-43600D03*
X41220Y-43250D03*
X41220Y-43600D03*
X46360Y-40540D03*
X46010Y-40540D03*
X46010Y-42850D03*
X46360Y-42850D03*
X46010Y-41680D03*
X46360Y-41680D03*
G54D17*
X44780Y-40340D03*
X45380Y-40340D03*
X45980Y-43350D03*
X46580Y-43350D03*
G54D18*
X40870Y-48530D03*
X40870Y-49130D03*
G54D19*
X44550Y-40915D03*
X44550Y-41665D03*
X45550Y-40915D03*
X44550Y-41290D03*
X45550Y-41665D03*
G54D20*
X45840Y-47960D03*
X45840Y-48335D03*
X45840Y-48708D03*
X46784Y-48710D03*
X46784Y-48332D03*
X46784Y-47960D03*
G54D21*
X41320Y-42393D03*
X41635Y-42393D03*
X41950Y-42393D03*
X42265Y-42393D03*
X42580Y-42393D03*
G54D22*
X40257Y-42078D03*
X43643Y-42078D03*
X40257Y-39933D03*
X43643Y-39933D03*
G54D23*
X41123Y-41015D03*
X42777Y-41015D03*
G54D16*
X40840Y-43600D03*
X40840Y-43250D03*
X43120Y-43600D03*
X43120Y-43250D03*
G54D24*
X44690Y-42970D03*
X44690Y-43836D03*
X45320Y-43836D03*
X45320Y-42970D03*
G54D25*
X46496Y-47366D03*
G54D26*
X46496Y-46366D03*
X46496Y-45366D03*
X46496Y-44366D03*
G54D27*
X43400Y-45440D03*
X43330Y-47650D03*
X41040Y-44930D03*
X39810Y-40640D03*
X45550Y-41190D03*
X42510Y-48760D03*
X41410Y-47320D03*
X41960Y-47680D03*
X40720Y-47400D03*
X43090Y-50360D03*
X46180Y-50780D03*
X40810Y-45810D03*
G54D28*
X44940Y-41670D03*
X44360Y-40310D03*
G54D27*
X41680Y-41100D03*
X42260Y-41090D03*
X46010Y-44990D03*
X45460Y-45480D03*
X45560Y-45190D03*
X39950Y-44430D03*
X39940Y-44780D03*
X40620Y-45180D03*
X41970Y-48440D03*
X41690Y-48860D03*
X41890Y-49440D03*
X42900Y-49550D03*
X43580Y-49320D03*
X42500Y-49430D03*
X40650Y-44870D03*
G54D28*
X43430Y-41360D03*
X43010Y-42340D03*
G54D27*
X44094Y-43110D03*
X45000Y-41024D03*
X45866Y-42126D03*
X44200Y-39720D03*
X40180Y-44150D03*
X41180Y-43980D03*
X44110Y-47960D03*
X44760Y-49210D03*
X42880Y-44010D03*
X41900Y-43930D03*
X40770Y-44160D03*
X41560Y-44170D03*
X42980Y-42690D03*
X40990Y-42120D03*
X46590Y-49070D03*
X43330Y-48430D03*
X40820Y-46830D03*
X40970Y-47670D03*
X40400Y-48880D03*
X39850Y-49300D03*
X41810Y-49730D03*
X41870Y-45000D03*
X43248Y-42854D03*
X45420Y-46570D03*
X45430Y-49070D03*
X45120Y-49340D03*
X45320Y-47170D03*
X39690Y-45570D03*
G54D28*
X40560Y-40860D03*
X43620Y-40940D03*
X44210Y-41950D03*
X41010Y-39930D03*
G54D27*
X39810Y-42790D03*
X44890Y-42470D03*
X44840Y-50760D03*
X41070Y-50880D03*
X42140Y-50400D03*
X40890Y-42630D03*
X46290Y-43850D03*
G54D29*
X46760Y-39900D02*
X46760Y-40760D01*
X43660Y-44785D02*
X43655Y-44785D01*
X43300Y-45140D02*
X43250Y-45140D01*
X43655Y-44785D02*
X43300Y-45140D01*
X41370Y-44930D02*
X41380Y-44930D01*
X42880Y-45290D02*
X43030Y-45140D01*
X41740Y-45290D02*
X42880Y-45290D01*
X41380Y-44930D02*
X41740Y-45290D01*
X43250Y-45140D02*
X43250Y-45290D01*
X43250Y-45290D02*
X43400Y-45440D01*
X43330Y-47650D02*
X43418Y-47738D01*
X43418Y-47738D02*
X43825Y-47738D01*
X41040Y-44930D02*
X41370Y-44930D01*
X43660Y-44785D02*
X43825Y-44785D01*
X43030Y-45140D02*
X43250Y-45140D01*
X41365Y-48033D02*
X41365Y-47765D01*
X41365Y-47765D02*
X41680Y-47450D01*
X41680Y-47450D02*
X43210Y-47450D01*
X43210Y-47450D02*
X43498Y-47738D01*
X43498Y-47738D02*
X43825Y-47738D01*
X41365Y-44490D02*
X41365Y-44715D01*
X41150Y-44930D02*
X41040Y-44930D01*
X41365Y-44715D02*
X41150Y-44930D01*
X43825Y-44785D02*
X44335Y-44785D01*
X44335Y-44785D02*
X44340Y-44790D01*
X41360Y-48570D02*
X40910Y-48570D01*
X40910Y-48570D02*
X40870Y-48530D01*
X41365Y-48033D02*
X41365Y-48565D01*
X41365Y-48565D02*
X41360Y-48570D01*
X45300Y-50645D02*
X45800Y-50645D01*
X45550Y-40915D02*
X45550Y-41190D01*
X39570Y-43070D02*
X40170Y-43670D01*
X39570Y-42530D02*
X39570Y-43070D01*
X39740Y-42360D02*
X39570Y-42530D01*
X39740Y-40710D02*
X39740Y-42360D01*
X39810Y-40640D02*
X39740Y-40710D01*
X42450Y-48580D02*
X42450Y-48700D01*
X42450Y-48700D02*
X42510Y-48760D01*
X40840Y-43250D02*
X40590Y-43250D01*
X40590Y-43250D02*
X40170Y-43670D01*
X39996Y-45376D02*
X40282Y-45376D01*
X40170Y-43670D02*
X39700Y-44140D01*
X39700Y-44140D02*
X39700Y-45080D01*
X39700Y-45080D02*
X39996Y-45376D01*
X42349Y-48033D02*
X42349Y-47849D01*
X41410Y-47320D02*
X41410Y-47270D01*
X42180Y-47680D02*
X41960Y-47680D01*
X42349Y-47849D02*
X42180Y-47680D01*
X41410Y-47270D02*
X41410Y-47260D01*
X41410Y-47260D02*
X41410Y-47270D01*
X43825Y-46360D02*
X43550Y-46360D01*
X43250Y-46660D02*
X43250Y-47270D01*
X43550Y-46360D02*
X43250Y-46660D01*
X40840Y-43250D02*
X41220Y-43250D01*
X40715Y-47395D02*
X40569Y-47541D01*
X40720Y-47400D02*
X40715Y-47395D01*
X40569Y-47541D02*
X40282Y-47541D01*
X40282Y-47541D02*
X40569Y-47541D01*
X43551Y-47541D02*
X43825Y-47541D01*
X40569Y-47541D02*
X40840Y-47270D01*
X40840Y-47270D02*
X41410Y-47270D01*
X41410Y-47270D02*
X43250Y-47270D01*
X43250Y-47270D02*
X43280Y-47270D01*
X43280Y-47270D02*
X43551Y-47541D01*
X45300Y-50645D02*
X45265Y-50645D01*
X44980Y-50360D02*
X43090Y-50360D01*
X45265Y-50645D02*
X44980Y-50360D01*
X42349Y-48033D02*
X42349Y-48429D01*
X42450Y-48530D02*
X42450Y-48580D01*
X42349Y-48429D02*
X42450Y-48530D01*
X45300Y-50645D02*
X46040Y-50645D01*
X46040Y-50645D02*
X46125Y-50730D01*
X46125Y-50730D02*
X46180Y-50780D01*
X40282Y-45376D02*
X40476Y-45376D01*
X40810Y-45710D02*
X40810Y-45810D01*
X40476Y-45376D02*
X40810Y-45710D01*
X40282Y-47541D02*
X39799Y-47541D01*
X39799Y-47541D02*
X39780Y-47560D01*
X45550Y-40915D02*
X45550Y-40930D01*
X43500Y-42930D02*
X43500Y-43250D01*
X43870Y-42560D02*
X43500Y-42930D01*
X44160Y-42560D02*
X43870Y-42560D01*
X44340Y-42380D02*
X44160Y-42560D01*
X44650Y-42380D02*
X44340Y-42380D01*
X45280Y-41750D02*
X44650Y-42380D01*
X45280Y-41200D02*
X45280Y-41750D01*
X45550Y-40930D02*
X45280Y-41200D01*
X46010Y-40920D02*
X45555Y-40920D01*
X45555Y-40920D02*
X45550Y-40915D01*
X46010Y-40540D02*
X46010Y-40920D01*
X46010Y-40920D02*
X46010Y-41300D01*
X43825Y-47541D02*
X44149Y-47541D01*
X44149Y-47541D02*
X44360Y-47330D01*
G54D30*
X44780Y-40340D02*
X44390Y-40340D01*
X44935Y-41665D02*
X44550Y-41665D01*
X44940Y-41670D02*
X44935Y-41665D01*
X44390Y-40340D02*
X44360Y-40310D01*
X44780Y-40340D02*
X44760Y-40340D01*
X44550Y-40550D02*
X44550Y-40915D01*
X44760Y-40340D02*
X44550Y-40550D01*
X44900Y-39840D02*
X44900Y-40220D01*
X44900Y-40220D02*
X44780Y-40340D01*
X44050Y-41000D02*
X44110Y-41000D01*
X44110Y-41000D02*
X44195Y-40915D01*
X44195Y-40915D02*
X44550Y-40915D01*
G54D10*
X41950Y-41370D02*
X41950Y-42393D01*
X41680Y-41100D02*
X41950Y-41370D01*
X41980Y-43250D02*
X41600Y-43250D01*
X41950Y-42393D02*
X41950Y-42770D01*
X42090Y-43250D02*
X41980Y-43250D01*
X42120Y-43220D02*
X42090Y-43250D01*
X42120Y-42940D02*
X42120Y-43220D01*
X41950Y-42770D02*
X42120Y-42940D01*
X42265Y-41095D02*
X42265Y-42393D01*
X42260Y-41090D02*
X42265Y-41095D01*
X42740Y-43250D02*
X42360Y-43250D01*
X42265Y-42393D02*
X42265Y-42635D01*
X42260Y-43250D02*
X42360Y-43250D01*
X42242Y-43232D02*
X42260Y-43250D01*
X42242Y-42882D02*
X42242Y-43232D01*
X42190Y-42830D02*
X42242Y-42882D01*
X42190Y-42710D02*
X42190Y-42830D01*
X42265Y-42635D02*
X42190Y-42710D01*
X46002Y-44982D02*
X46010Y-44990D01*
X45500Y-44982D02*
X43825Y-44982D01*
X45500Y-44982D02*
X46002Y-44982D01*
X45240Y-45376D02*
X45356Y-45376D01*
X45356Y-45376D02*
X45460Y-45480D01*
X43825Y-45376D02*
X45240Y-45376D01*
X43825Y-45179D02*
X45529Y-45179D01*
X45529Y-45179D02*
X45560Y-45190D01*
X41758Y-48550D02*
X41758Y-48568D01*
X41758Y-48568D02*
X42300Y-49110D01*
X44510Y-49110D02*
X44930Y-48690D01*
X42300Y-49110D02*
X44510Y-49110D01*
X45660Y-47960D02*
X45840Y-47960D01*
X44850Y-48770D02*
X44930Y-48690D01*
X44930Y-48690D02*
X45660Y-47960D01*
X41758Y-48258D02*
X41758Y-48550D01*
X41758Y-48258D02*
X41758Y-48033D01*
X41758Y-48568D02*
X41960Y-48770D01*
X46496Y-46366D02*
X46264Y-46366D01*
X45840Y-46790D02*
X45840Y-47960D01*
X46264Y-46366D02*
X45840Y-46790D01*
X40577Y-44490D02*
X40010Y-44490D01*
X40010Y-44490D02*
X39950Y-44430D01*
X40280Y-44490D02*
X40577Y-44490D01*
X40282Y-44785D02*
X39945Y-44785D01*
X39945Y-44785D02*
X39940Y-44780D01*
X40619Y-45179D02*
X40282Y-45179D01*
X40620Y-45180D02*
X40619Y-45179D01*
X41970Y-48440D02*
X41970Y-48594D01*
X45550Y-47890D02*
X45550Y-47700D01*
X44454Y-48986D02*
X45550Y-47890D01*
X42362Y-48986D02*
X44454Y-48986D01*
X41970Y-48594D02*
X42362Y-48986D01*
X46344Y-45366D02*
X45990Y-45720D01*
X45990Y-45720D02*
X45990Y-46440D01*
X45990Y-46440D02*
X45700Y-46730D01*
X45700Y-46730D02*
X45700Y-47550D01*
X45700Y-47550D02*
X45550Y-47700D01*
X46496Y-45366D02*
X46344Y-45366D01*
X41561Y-48731D02*
X41561Y-48033D01*
X41690Y-48860D02*
X41561Y-48731D01*
X46496Y-45366D02*
X46726Y-45366D01*
X46950Y-47794D02*
X46784Y-47960D01*
X46950Y-45590D02*
X46950Y-47794D01*
X46726Y-45366D02*
X46950Y-45590D01*
X41890Y-49440D02*
X42110Y-49660D01*
X42110Y-49660D02*
X42440Y-49660D01*
X42450Y-49670D02*
X42450Y-49660D01*
X42440Y-49660D02*
X42450Y-49670D01*
X42710Y-49650D02*
X42710Y-49660D01*
X42110Y-49660D02*
X42450Y-49660D01*
X42450Y-49660D02*
X42710Y-49660D01*
X42900Y-49550D02*
X42790Y-49660D01*
X42790Y-49660D02*
X42720Y-49660D01*
X42720Y-49660D02*
X42710Y-49650D01*
X42600Y-49330D02*
X42500Y-49430D01*
X43580Y-49320D02*
X43590Y-49330D01*
X43590Y-49330D02*
X42600Y-49330D01*
X40290Y-44990D02*
X40282Y-44982D01*
X40530Y-44990D02*
X40290Y-44990D01*
X40650Y-44870D02*
X40530Y-44990D01*
X42360Y-43600D02*
X42300Y-43600D01*
X42349Y-44469D02*
X42349Y-44490D01*
X42322Y-44442D02*
X42349Y-44469D01*
X42322Y-44170D02*
X42322Y-44442D01*
X42232Y-44080D02*
X42322Y-44170D01*
X42232Y-43668D02*
X42232Y-44080D01*
X42300Y-43600D02*
X42232Y-43668D01*
X41980Y-43600D02*
X42030Y-43600D01*
X42200Y-44442D02*
X42152Y-44490D01*
X42200Y-44220D02*
X42200Y-44442D01*
X42110Y-44130D02*
X42200Y-44220D01*
X42110Y-43680D02*
X42110Y-44130D01*
X42030Y-43600D02*
X42110Y-43680D01*
G54D30*
X43440Y-41350D02*
X44050Y-41350D01*
X43430Y-41360D02*
X43440Y-41350D01*
X42580Y-42393D02*
X42957Y-42393D01*
X42957Y-42393D02*
X43010Y-42340D01*
G54D10*
X46784Y-48332D02*
X46592Y-48332D01*
X46496Y-48236D02*
X46496Y-47366D01*
X46592Y-48332D02*
X46496Y-48236D01*
G54D29*
X43880Y-43250D02*
X43954Y-43250D01*
X43954Y-43250D02*
X44094Y-43110D01*
X46360Y-42126D02*
X45866Y-42126D01*
X46360Y-42126D02*
X46378Y-42126D01*
X46378Y-42126D02*
X46360Y-42126D01*
X44510Y-39600D02*
X44320Y-39600D01*
X44320Y-39600D02*
X44200Y-39720D01*
X40770Y-44160D02*
X40190Y-44160D01*
X40190Y-44160D02*
X40180Y-44150D01*
X41168Y-44490D02*
X41168Y-43992D01*
X41168Y-43992D02*
X41180Y-43980D01*
X45840Y-48335D02*
X45635Y-48335D01*
X44400Y-47670D02*
X44710Y-47670D01*
X44110Y-47960D02*
X44400Y-47670D01*
X45635Y-48335D02*
X44760Y-49210D01*
X42743Y-44490D02*
X42743Y-44147D01*
X42743Y-44147D02*
X42880Y-44010D01*
X43530Y-44490D02*
X43530Y-44670D01*
X42743Y-44803D02*
X42743Y-44490D01*
X42810Y-44870D02*
X42743Y-44803D01*
X43330Y-44870D02*
X42810Y-44870D01*
X43530Y-44670D02*
X43330Y-44870D01*
X41600Y-43600D02*
X41600Y-43630D01*
X41600Y-43630D02*
X41900Y-43930D01*
X41561Y-44490D02*
X41561Y-44171D01*
X40774Y-44164D02*
X40774Y-44490D01*
X40770Y-44160D02*
X40774Y-44164D01*
X41561Y-44171D02*
X41560Y-44170D01*
X41561Y-44490D02*
X41758Y-44490D01*
X44550Y-41290D02*
X44820Y-41290D01*
X44820Y-41290D02*
X45000Y-41110D01*
X45000Y-41110D02*
X45000Y-41024D01*
X45380Y-40570D02*
X45380Y-40340D01*
X45000Y-41024D02*
X45000Y-40950D01*
X45000Y-40950D02*
X45380Y-40570D01*
X43120Y-43080D02*
X42970Y-42930D01*
X43120Y-43080D02*
X43120Y-43250D01*
X42970Y-42700D02*
X42980Y-42690D01*
X42970Y-42930D02*
X42970Y-42700D01*
X43120Y-43250D02*
X43090Y-43250D01*
X43090Y-43250D02*
X42740Y-43600D01*
X41320Y-42393D02*
X41263Y-42393D01*
X41263Y-42393D02*
X40990Y-42120D01*
X45250Y-39840D02*
X45250Y-39730D01*
X45120Y-39600D02*
X44510Y-39600D01*
X45250Y-39730D02*
X45120Y-39600D01*
X45840Y-48335D02*
X46145Y-48335D01*
X46360Y-48840D02*
X46590Y-49070D01*
X46360Y-48550D02*
X46360Y-48840D01*
X46145Y-48335D02*
X46360Y-48550D01*
X43825Y-47344D02*
X43996Y-47344D01*
X44710Y-47210D02*
X44710Y-47330D01*
G54D10*
X44640Y-47140D02*
X44710Y-47210D01*
X44200Y-47140D02*
X44640Y-47140D01*
G54D29*
X43996Y-47344D02*
X44200Y-47140D01*
X44710Y-47330D02*
X44710Y-47670D01*
X44710Y-47670D02*
X44710Y-48010D01*
X44710Y-48010D02*
X44290Y-48430D01*
X44290Y-48430D02*
X43330Y-48430D01*
X43330Y-48430D02*
X43330Y-48460D01*
X43210Y-48580D02*
X42800Y-48580D01*
X43330Y-48460D02*
X43210Y-48580D01*
X43333Y-48427D02*
X43333Y-48033D01*
X43330Y-48430D02*
X43333Y-48427D01*
X40282Y-46360D02*
X40640Y-46360D01*
X40820Y-46540D02*
X40820Y-46830D01*
X40640Y-46360D02*
X40820Y-46540D01*
X39780Y-47910D02*
X39780Y-48260D01*
X39780Y-48260D02*
X40400Y-48880D01*
X40971Y-48033D02*
X40971Y-47671D01*
X40971Y-47671D02*
X40970Y-47670D01*
X40650Y-49130D02*
X40870Y-49130D01*
X40400Y-48880D02*
X40650Y-49130D01*
X40870Y-49130D02*
X41150Y-49130D01*
X41150Y-49130D02*
X41360Y-48920D01*
X40870Y-49130D02*
X40020Y-49130D01*
X40020Y-49130D02*
X39850Y-49300D01*
X41360Y-48920D02*
X41360Y-49440D01*
X41360Y-49440D02*
X41650Y-49730D01*
X41650Y-49730D02*
X41810Y-49730D01*
X43530Y-44490D02*
X44570Y-44490D01*
X44690Y-44610D02*
X44690Y-44790D01*
X44570Y-44490D02*
X44690Y-44610D01*
X45460Y-44440D02*
X46422Y-44440D01*
X46422Y-44440D02*
X46496Y-44366D01*
X44690Y-44790D02*
X45240Y-44790D01*
X45440Y-44460D02*
X45460Y-44440D01*
X45440Y-44590D02*
X45440Y-44460D01*
X45240Y-44790D02*
X45440Y-44590D01*
X46580Y-43350D02*
X46580Y-43360D01*
X46580Y-43360D02*
X46740Y-43520D01*
X46740Y-43520D02*
X46740Y-44122D01*
X46740Y-44122D02*
X46496Y-44366D01*
X46360Y-41680D02*
X46360Y-42126D01*
X46360Y-42126D02*
X46360Y-42850D01*
X46360Y-42850D02*
X46580Y-43070D01*
X46580Y-43070D02*
X46580Y-43350D01*
X46360Y-40920D02*
X46360Y-41300D01*
X46360Y-41300D02*
X46360Y-41680D01*
X45785Y-40080D02*
X45785Y-40185D01*
X45630Y-40340D02*
X45380Y-40340D01*
X45785Y-40185D02*
X45630Y-40340D01*
X45250Y-39840D02*
X45280Y-39840D01*
X45380Y-39940D02*
X45380Y-40340D01*
X45280Y-39840D02*
X45380Y-39940D01*
G54D10*
X41220Y-43600D02*
X41220Y-43710D01*
X41640Y-43960D02*
X41940Y-44260D01*
X41470Y-43960D02*
X41640Y-43960D01*
X41220Y-43710D02*
X41470Y-43960D01*
X41955Y-44490D02*
X41955Y-44915D01*
X41955Y-44915D02*
X41870Y-45000D01*
X41940Y-44475D02*
X41955Y-44490D01*
X41940Y-44260D02*
X41940Y-44475D01*
X43310Y-42933D02*
X43310Y-42916D01*
X43310Y-42916D02*
X43248Y-42854D01*
X43310Y-43410D02*
X43310Y-42933D01*
X43310Y-42933D02*
X43310Y-42930D01*
X43500Y-43600D02*
X43310Y-43410D01*
X42939Y-44490D02*
X42939Y-44251D01*
X42939Y-44251D02*
X43350Y-43840D01*
X43350Y-43840D02*
X43430Y-43840D01*
X43430Y-43840D02*
X43500Y-43770D01*
X43500Y-43770D02*
X43500Y-43600D01*
X42546Y-44490D02*
X42546Y-44014D01*
X43120Y-43670D02*
X43120Y-43600D01*
X42990Y-43800D02*
X43120Y-43670D01*
X42760Y-43800D02*
X42990Y-43800D01*
X42546Y-44014D02*
X42760Y-43800D01*
X46375Y-40080D02*
X46375Y-40525D01*
X46375Y-40525D02*
X46360Y-40540D01*
X43825Y-46557D02*
X44347Y-46557D01*
X44347Y-46557D02*
X44360Y-46570D01*
X43825Y-46754D02*
X44034Y-46754D01*
X44230Y-46950D02*
X44360Y-46950D01*
X44034Y-46754D02*
X44230Y-46950D01*
X44710Y-46570D02*
X45210Y-46570D01*
X45210Y-46570D02*
X45420Y-46570D01*
X45435Y-49445D02*
X45800Y-49810D01*
X45435Y-49075D02*
X45435Y-49445D01*
X45430Y-49070D02*
X45435Y-49075D01*
X45800Y-49810D02*
X45800Y-50055D01*
X45800Y-50055D02*
X45800Y-49810D01*
X44390Y-44310D02*
X44880Y-44310D01*
X45010Y-44440D02*
X45110Y-44440D01*
X44880Y-44310D02*
X45010Y-44440D01*
X43333Y-44277D02*
X43333Y-44490D01*
X43470Y-44140D02*
X43333Y-44277D01*
X44220Y-44140D02*
X43470Y-44140D01*
X44390Y-44310D02*
X44220Y-44140D01*
X45320Y-43836D02*
X45320Y-43980D01*
X45110Y-44190D02*
X45110Y-44440D01*
X45320Y-43980D02*
X45110Y-44190D01*
G54D29*
X43136Y-44274D02*
X43420Y-43990D01*
X43880Y-43600D02*
X43880Y-43750D01*
X43660Y-43970D02*
X43880Y-43750D01*
X43136Y-44274D02*
X43136Y-44490D01*
X43640Y-43990D02*
X43660Y-43970D01*
X43420Y-43990D02*
X43640Y-43990D01*
X44690Y-42970D02*
X44620Y-42970D01*
X44620Y-42970D02*
X43990Y-43600D01*
X43990Y-43600D02*
X43880Y-43600D01*
G54D10*
X40971Y-44490D02*
X40971Y-43881D01*
X40840Y-43750D02*
X40840Y-43600D01*
X40971Y-43881D02*
X40840Y-43750D01*
X45550Y-41665D02*
X45995Y-41665D01*
X45995Y-41665D02*
X46010Y-41680D01*
X44710Y-46950D02*
X45100Y-46950D01*
X45300Y-49520D02*
X45300Y-50055D01*
X45120Y-49340D02*
X45300Y-49520D01*
X45100Y-46950D02*
X45320Y-47170D01*
X39693Y-45573D02*
X39690Y-45570D01*
X39693Y-45573D02*
X40282Y-45573D01*
G54D30*
X40560Y-40860D02*
X40257Y-40860D01*
X40257Y-40860D02*
X40270Y-40860D01*
X40270Y-40860D02*
X40257Y-40860D01*
X43643Y-40917D02*
X43620Y-40940D01*
X43643Y-40917D02*
X43643Y-39933D01*
X44082Y-42078D02*
X43643Y-42078D01*
X44210Y-41950D02*
X44082Y-42078D01*
X41010Y-39933D02*
X40257Y-39933D01*
X41010Y-39930D02*
X41010Y-39933D01*
X43643Y-39933D02*
X40257Y-39933D01*
X40257Y-39933D02*
X40257Y-40620D01*
X40257Y-40620D02*
X40257Y-40860D01*
X40257Y-40860D02*
X40257Y-42078D01*
G54D29*
X39930Y-42680D02*
X39920Y-42680D01*
X39920Y-42680D02*
X39810Y-42790D01*
X46010Y-42680D02*
X46010Y-42850D01*
X45840Y-42510D02*
X46010Y-42680D01*
X44930Y-42510D02*
X45840Y-42510D01*
X44890Y-42470D02*
X44930Y-42510D01*
X43130Y-50760D02*
X42760Y-50760D01*
X44840Y-50760D02*
X43130Y-50760D01*
X42400Y-50400D02*
X42140Y-50400D01*
X42760Y-50760D02*
X42400Y-50400D01*
X41550Y-50400D02*
X42140Y-50400D01*
X41070Y-50880D02*
X41550Y-50400D01*
X40890Y-42630D02*
X40840Y-42680D01*
X40840Y-42680D02*
X39930Y-42680D01*
X46290Y-43850D02*
X45980Y-43540D01*
X45980Y-43540D02*
X45980Y-43350D01*
X46010Y-42850D02*
X46010Y-43320D01*
X46010Y-43320D02*
X45980Y-43350D01*
X46221Y-48265D02*
X46221Y-48265D01*
X46146Y-48345D02*
X46238Y-48345D01*
X46244Y-48425D02*
X46291Y-48425D01*
X46280Y-48505D02*
X46338Y-48505D01*
X46286Y-48585D02*
X46338Y-48585D01*
X46286Y-48665D02*
X46338Y-48665D01*
X46286Y-48745D02*
X46338Y-48745D01*
X46286Y-48825D02*
X46338Y-48825D01*
X46282Y-48905D02*
X46341Y-48905D01*
X46248Y-48985D02*
X46374Y-48985D01*
X46158Y-49065D02*
X46460Y-49065D01*
X45788Y-49145D02*
X46969Y-49145D01*
X45755Y-49225D02*
X46969Y-49225D01*
X45715Y-49305D02*
X46969Y-49305D01*
X45771Y-49385D02*
X46969Y-49385D01*
X45851Y-49465D02*
X46969Y-49465D01*
X45931Y-49545D02*
X46969Y-49545D01*
X46007Y-49625D02*
X46969Y-49625D01*
X46116Y-49705D02*
X46969Y-49705D01*
X46180Y-49785D02*
X46969Y-49785D01*
X46206Y-49865D02*
X46969Y-49865D01*
X46206Y-49945D02*
X46969Y-49945D01*
X46206Y-50025D02*
X46969Y-50025D01*
X46206Y-50105D02*
X46969Y-50105D01*
X46206Y-50185D02*
X46969Y-50185D01*
X46204Y-50265D02*
X46969Y-50265D01*
X46171Y-50345D02*
X46969Y-50345D01*
X46264Y-50425D02*
X46969Y-50425D01*
X46414Y-50505D02*
X46969Y-50505D01*
X46489Y-50585D02*
X46969Y-50585D01*
X46522Y-50665D02*
X46969Y-50665D01*
X46540Y-50745D02*
X46969Y-50745D01*
X46540Y-50825D02*
X46969Y-50825D01*
X46517Y-50905D02*
X46969Y-50905D01*
X39645Y-47899D02*
X39902Y-47899D01*
X39645Y-47979D02*
X39965Y-47979D01*
X39645Y-48059D02*
X40279Y-48059D01*
X39645Y-48139D02*
X40279Y-48139D01*
X39645Y-48219D02*
X40279Y-48219D01*
X39645Y-48299D02*
X40303Y-48299D01*
X39645Y-48379D02*
X40365Y-48379D01*
X39645Y-48459D02*
X40396Y-48459D01*
X39645Y-48539D02*
X40396Y-48539D01*
X39645Y-48619D02*
X40396Y-48619D01*
X39645Y-48699D02*
X40396Y-48699D01*
X39645Y-48779D02*
X40426Y-48779D01*
X39645Y-48859D02*
X40497Y-48859D01*
X39645Y-48939D02*
X41333Y-48939D01*
X39645Y-49019D02*
X41366Y-49019D01*
X39645Y-49099D02*
X41420Y-49099D01*
X39645Y-49179D02*
X41519Y-49179D01*
X39645Y-49259D02*
X41576Y-49259D01*
X44756Y-49259D02*
X44764Y-49259D01*
X39645Y-49339D02*
X41543Y-49339D01*
X44661Y-49339D02*
X44760Y-49339D01*
X39645Y-49419D02*
X41530Y-49419D01*
X43928Y-49419D02*
X44763Y-49419D01*
X39645Y-49499D02*
X41530Y-49499D01*
X43895Y-49499D02*
X44796Y-49499D01*
X39645Y-49579D02*
X41558Y-49579D01*
X43829Y-49579D02*
X44850Y-49579D01*
X39645Y-49659D02*
X41600Y-49659D01*
X43244Y-49659D02*
X43457Y-49659D01*
X43701Y-49659D02*
X44950Y-49659D01*
X39645Y-49739D02*
X41680Y-49739D01*
X43211Y-49739D02*
X44950Y-49739D01*
X39645Y-49819D02*
X41872Y-49819D01*
X43139Y-49819D02*
X44907Y-49819D01*
X39645Y-49899D02*
X41972Y-49899D01*
X42997Y-49899D02*
X44894Y-49899D01*
X39645Y-49979D02*
X44894Y-49979D01*
X39645Y-50059D02*
X42024Y-50059D01*
X42258Y-50059D02*
X42883Y-50059D01*
X43298Y-50059D02*
X44894Y-50059D01*
X39645Y-50139D02*
X41411Y-50139D01*
X42539Y-50139D02*
X42803Y-50139D01*
X39645Y-50219D02*
X41306Y-50219D01*
X42643Y-50219D02*
X42759Y-50219D01*
X39645Y-50299D02*
X41226Y-50299D01*
X42723Y-50299D02*
X42730Y-50299D01*
X39645Y-50379D02*
X41146Y-50379D01*
X39645Y-50459D02*
X41066Y-50459D01*
X39645Y-50539D02*
X40954Y-50539D01*
X39645Y-50619D02*
X40823Y-50619D01*
X39645Y-50699D02*
X40756Y-50699D01*
X39645Y-50779D02*
X40723Y-50779D01*
X39645Y-50859D02*
X40710Y-50859D01*
X44960Y-47232D02*
X44960Y-47232D01*
X44699Y-47312D02*
X44989Y-47312D01*
X44699Y-47392D02*
X45033Y-47392D01*
X44698Y-47472D02*
X45113Y-47472D01*
X44664Y-47552D02*
X45319Y-47552D01*
X44588Y-47632D02*
X45284Y-47632D01*
X44401Y-47712D02*
X45270Y-47712D01*
X44302Y-47792D02*
X45252Y-47792D01*
X44216Y-47872D02*
X45172Y-47872D01*
X44169Y-47952D02*
X45092Y-47952D01*
X44040Y-48032D02*
X45012Y-48032D01*
X43828Y-48112D02*
X44932Y-48112D01*
X43828Y-48192D02*
X44852Y-48192D01*
X43814Y-48272D02*
X44772Y-48272D01*
X43769Y-48352D02*
X44692Y-48352D01*
X43250Y-48432D02*
X43414Y-48432D01*
X43644Y-48432D02*
X44612Y-48432D01*
X42789Y-48512D02*
X44532Y-48512D01*
X42830Y-48592D02*
X44452Y-48592D01*
X42863Y-48672D02*
X44372Y-48672D01*
X41039Y-47570D02*
X41141Y-47570D01*
X40977Y-47650D02*
X41015Y-47650D01*
X40949Y-46141D02*
X40949Y-46141D01*
X40688Y-46221D02*
X40949Y-46221D01*
X40671Y-46301D02*
X40949Y-46301D01*
X40656Y-46381D02*
X40949Y-46381D01*
X40688Y-46461D02*
X40949Y-46461D01*
X40688Y-46541D02*
X40949Y-46541D01*
X40688Y-46621D02*
X40949Y-46621D01*
X40688Y-46701D02*
X40949Y-46701D01*
X40688Y-46781D02*
X40949Y-46781D01*
X40688Y-46861D02*
X40949Y-46861D01*
X40688Y-46941D02*
X40949Y-46941D01*
X46349Y-40879D02*
X46457Y-40879D01*
X46349Y-40959D02*
X46457Y-40959D01*
X46349Y-41039D02*
X46457Y-41039D01*
X46332Y-41119D02*
X46457Y-41119D01*
X46349Y-41199D02*
X46457Y-41199D01*
X46349Y-41279D02*
X46468Y-41279D01*
X46349Y-41359D02*
X46500Y-41359D01*
X46349Y-41439D02*
X46573Y-41439D01*
X46340Y-41519D02*
X46969Y-41519D01*
X46349Y-41599D02*
X46969Y-41599D01*
X46349Y-41679D02*
X46969Y-41679D01*
X46349Y-41759D02*
X46969Y-41759D01*
X46341Y-41839D02*
X46969Y-41839D01*
X46303Y-41919D02*
X46969Y-41919D01*
X45784Y-41999D02*
X45822Y-41999D01*
X46197Y-41999D02*
X46969Y-41999D01*
X45375Y-42079D02*
X46969Y-42079D01*
X45295Y-42159D02*
X46969Y-42159D01*
X45964Y-42239D02*
X46969Y-42239D01*
X46073Y-42319D02*
X46969Y-42319D01*
X46153Y-42399D02*
X46969Y-42399D01*
X46230Y-42479D02*
X46969Y-42479D01*
X46283Y-42559D02*
X46969Y-42559D01*
X46320Y-42639D02*
X46969Y-42639D01*
X46349Y-42719D02*
X46969Y-42719D01*
X46349Y-42799D02*
X46969Y-42799D01*
X46349Y-42879D02*
X46969Y-42879D01*
X46349Y-42959D02*
X46969Y-42959D01*
X46339Y-43039D02*
X46969Y-43039D01*
X46353Y-43119D02*
X46969Y-43119D01*
X46353Y-43199D02*
X46969Y-43199D01*
X46353Y-43279D02*
X46969Y-43279D01*
X46353Y-43359D02*
X46969Y-43359D01*
X46353Y-43439D02*
X46969Y-43439D01*
X46432Y-43519D02*
X46969Y-43519D01*
X46548Y-43599D02*
X46969Y-43599D01*
X46609Y-43679D02*
X46969Y-43679D01*
X46642Y-43759D02*
X46969Y-43759D01*
X45795Y-43839D02*
X45855Y-43839D01*
X46650Y-43839D02*
X46969Y-43839D01*
X45795Y-43919D02*
X45930Y-43919D01*
X46650Y-43919D02*
X46969Y-43919D01*
X45795Y-43999D02*
X45962Y-43999D01*
X46617Y-43999D02*
X46969Y-43999D01*
X45795Y-44079D02*
X46010Y-44079D01*
X46569Y-44079D02*
X46969Y-44079D01*
X45795Y-44159D02*
X46095Y-44159D01*
X46483Y-44159D02*
X46969Y-44159D01*
X45762Y-44239D02*
X46969Y-44239D01*
X45690Y-44319D02*
X46969Y-44319D01*
X45449Y-44399D02*
X46969Y-44399D01*
X45449Y-44479D02*
X46969Y-44479D01*
X45449Y-44559D02*
X46969Y-44559D01*
X45424Y-44639D02*
X45918Y-44639D01*
X46104Y-44639D02*
X46969Y-44639D01*
X46248Y-44719D02*
X46969Y-44719D01*
X46321Y-44799D02*
X46969Y-44799D01*
X46742Y-44879D02*
X46969Y-44879D01*
X46858Y-44959D02*
X46969Y-44959D01*
X46938Y-45039D02*
X46969Y-45039D01*
X44764Y-44589D02*
X44764Y-44589D01*
X44679Y-44669D02*
X44808Y-44669D01*
X40508Y-43755D02*
X40508Y-43755D01*
X40428Y-43835D02*
X40543Y-43835D01*
X40349Y-43915D02*
X40620Y-43915D01*
X40269Y-43995D02*
X40689Y-43995D01*
X40188Y-44075D02*
X40691Y-44075D01*
X40184Y-44155D02*
X40354Y-44155D01*
X41559Y-43589D02*
X41641Y-43589D01*
X41575Y-43669D02*
X41641Y-43669D01*
X44215Y-42849D02*
X44215Y-42849D01*
X43924Y-42929D02*
X44215Y-42929D01*
X43844Y-43009D02*
X44157Y-43009D01*
X43830Y-43089D02*
X44077Y-43089D01*
X43839Y-43169D02*
X43997Y-43169D01*
X43839Y-43249D02*
X43917Y-43249D01*
X40735Y-41246D02*
X40736Y-41246D01*
X40607Y-41326D02*
X40803Y-41326D01*
X40607Y-41406D02*
X40901Y-41406D01*
X41343Y-41406D02*
X41478Y-41406D01*
X40649Y-41486D02*
X41670Y-41486D01*
X40766Y-41566D02*
X41670Y-41566D01*
X40810Y-41646D02*
X41670Y-41646D01*
X40821Y-41726D02*
X41670Y-41726D01*
X40821Y-41806D02*
X41379Y-41806D01*
X40821Y-41886D02*
X41315Y-41886D01*
X40821Y-41966D02*
X41288Y-41966D01*
X40821Y-42046D02*
X41288Y-42046D01*
X40821Y-42126D02*
X41288Y-42126D01*
X40821Y-42206D02*
X41288Y-42206D01*
X41001Y-42286D02*
X41288Y-42286D01*
X41135Y-42366D02*
X41288Y-42366D01*
X41203Y-42446D02*
X41288Y-42446D01*
X41237Y-42526D02*
X41288Y-42526D01*
X41250Y-42606D02*
X41288Y-42606D01*
X41250Y-42686D02*
X41288Y-42686D01*
X41223Y-42766D02*
X41288Y-42766D01*
X41182Y-42846D02*
X41292Y-42846D01*
X45215Y-39645D02*
X46457Y-39645D01*
X45239Y-39725D02*
X46064Y-39725D01*
X45243Y-39805D02*
X45998Y-39805D01*
X45250Y-39885D02*
X45969Y-39885D01*
X45250Y-39965D02*
X45969Y-39965D01*
X45250Y-40045D02*
X45969Y-40045D01*
X45250Y-40125D02*
X45969Y-40125D01*
X45250Y-40205D02*
X45862Y-40205D01*
X45236Y-40285D02*
X45733Y-40285D01*
X45215Y-40365D02*
X45686Y-40365D01*
X45162Y-40445D02*
X45671Y-40445D01*
X45154Y-40525D02*
X45671Y-40525D01*
X45154Y-40605D02*
X45258Y-40605D01*
X45124Y-40685D02*
X45185Y-40685D01*
X45057Y-40765D02*
X45151Y-40765D01*
X44949Y-40845D02*
X45151Y-40845D01*
X44949Y-40925D02*
X45131Y-40925D01*
X44949Y-41005D02*
X45057Y-41005D01*
X44940Y-41085D02*
X45003Y-41085D01*
X44902Y-41165D02*
X44987Y-41165D01*
X44795Y-41245D02*
X44856Y-41245D01*
X46969Y-50906D02*
X46969Y-49097D01*
X46537Y-49097D01*
X46446Y-49059D01*
X46376Y-48989D01*
X46338Y-48897D01*
X46338Y-48522D01*
X46338Y-48520D01*
X46338Y-48519D01*
X46338Y-48474D01*
X46298Y-48434D01*
X46237Y-48343D01*
X46221Y-48265D01*
X46178Y-48309D01*
X46117Y-48333D01*
X46178Y-48359D01*
X46248Y-48429D01*
X46286Y-48521D01*
X46286Y-48896D01*
X46248Y-48987D01*
X46178Y-49057D01*
X46086Y-49095D01*
X45790Y-49095D01*
X45790Y-49142D01*
X45735Y-49274D01*
X45715Y-49293D01*
X45715Y-49329D01*
X45998Y-49612D01*
X46029Y-49658D01*
X46098Y-49687D01*
X46168Y-49757D01*
X46206Y-49849D01*
X46206Y-50262D01*
X46169Y-50350D01*
X46184Y-50388D01*
X46232Y-50420D01*
X46252Y-50420D01*
X46384Y-50475D01*
X46485Y-50577D01*
X46540Y-50709D01*
X46540Y-50852D01*
X46517Y-50905D01*
X46969Y-50906D01*
X46221Y-48265D02*
X46221Y-48265D01*
X46146Y-48345D02*
X46238Y-48345D01*
X46244Y-48425D02*
X46291Y-48425D01*
X46280Y-48505D02*
X46338Y-48505D01*
X46286Y-48585D02*
X46338Y-48585D01*
X46286Y-48665D02*
X46338Y-48665D01*
X46286Y-48745D02*
X46338Y-48745D01*
X46286Y-48825D02*
X46338Y-48825D01*
X46282Y-48905D02*
X46341Y-48905D01*
X46248Y-48985D02*
X46374Y-48985D01*
X46158Y-49065D02*
X46460Y-49065D01*
X45788Y-49145D02*
X46969Y-49145D01*
X45755Y-49225D02*
X46969Y-49225D01*
X45715Y-49305D02*
X46969Y-49305D01*
X45771Y-49385D02*
X46969Y-49385D01*
X45851Y-49465D02*
X46969Y-49465D01*
X45931Y-49545D02*
X46969Y-49545D01*
X46007Y-49625D02*
X46969Y-49625D01*
X46116Y-49705D02*
X46969Y-49705D01*
X46180Y-49785D02*
X46969Y-49785D01*
X46206Y-49865D02*
X46969Y-49865D01*
X46206Y-49945D02*
X46969Y-49945D01*
X46206Y-50025D02*
X46969Y-50025D01*
X46206Y-50105D02*
X46969Y-50105D01*
X46206Y-50185D02*
X46969Y-50185D01*
X46204Y-50265D02*
X46969Y-50265D01*
X46171Y-50345D02*
X46969Y-50345D01*
X46264Y-50425D02*
X46969Y-50425D01*
X46414Y-50505D02*
X46969Y-50505D01*
X46489Y-50585D02*
X46969Y-50585D01*
X46522Y-50665D02*
X46969Y-50665D01*
X46540Y-50745D02*
X46969Y-50745D01*
X46540Y-50825D02*
X46969Y-50825D01*
X46517Y-50905D02*
X46969Y-50905D01*
X39645Y-47899D02*
X39902Y-47899D01*
X39645Y-47979D02*
X39965Y-47979D01*
X39645Y-48059D02*
X40279Y-48059D01*
X39645Y-48139D02*
X40279Y-48139D01*
X39645Y-48219D02*
X40279Y-48219D01*
X39645Y-48299D02*
X40303Y-48299D01*
X39645Y-48379D02*
X40365Y-48379D01*
X39645Y-48459D02*
X40396Y-48459D01*
X39645Y-48539D02*
X40396Y-48539D01*
X39645Y-48619D02*
X40396Y-48619D01*
X39645Y-48699D02*
X40396Y-48699D01*
X39645Y-48779D02*
X40426Y-48779D01*
X39645Y-48859D02*
X40497Y-48859D01*
X39645Y-48939D02*
X41333Y-48939D01*
X39645Y-49019D02*
X41366Y-49019D01*
X39645Y-49099D02*
X41420Y-49099D01*
X39645Y-49179D02*
X41519Y-49179D01*
X39645Y-49259D02*
X41576Y-49259D01*
X44756Y-49259D02*
X44764Y-49259D01*
X39645Y-49339D02*
X41543Y-49339D01*
X44661Y-49339D02*
X44760Y-49339D01*
X39645Y-49419D02*
X41530Y-49419D01*
X43928Y-49419D02*
X44763Y-49419D01*
X39645Y-49499D02*
X41530Y-49499D01*
X43895Y-49499D02*
X44796Y-49499D01*
X39645Y-49579D02*
X41558Y-49579D01*
X43829Y-49579D02*
X44850Y-49579D01*
X39645Y-49659D02*
X41600Y-49659D01*
X43244Y-49659D02*
X43457Y-49659D01*
X43701Y-49659D02*
X44950Y-49659D01*
X39645Y-49739D02*
X41680Y-49739D01*
X43211Y-49739D02*
X44950Y-49739D01*
X39645Y-49819D02*
X41872Y-49819D01*
X43139Y-49819D02*
X44907Y-49819D01*
X39645Y-49899D02*
X41972Y-49899D01*
X42997Y-49899D02*
X44894Y-49899D01*
X39645Y-49979D02*
X44894Y-49979D01*
X39645Y-50059D02*
X42024Y-50059D01*
X42258Y-50059D02*
X42883Y-50059D01*
X43298Y-50059D02*
X44894Y-50059D01*
X39645Y-50139D02*
X41411Y-50139D01*
X42539Y-50139D02*
X42803Y-50139D01*
X39645Y-50219D02*
X41306Y-50219D01*
X42643Y-50219D02*
X42759Y-50219D01*
X39645Y-50299D02*
X41226Y-50299D01*
X42723Y-50299D02*
X42730Y-50299D01*
X39645Y-50379D02*
X41146Y-50379D01*
X39645Y-50459D02*
X41066Y-50459D01*
X39645Y-50539D02*
X40954Y-50539D01*
X39645Y-50619D02*
X40823Y-50619D01*
X39645Y-50699D02*
X40756Y-50699D01*
X39645Y-50779D02*
X40723Y-50779D01*
X39645Y-50859D02*
X40710Y-50859D01*
X44960Y-47232D02*
X44960Y-47232D01*
X44699Y-47312D02*
X44989Y-47312D01*
X44699Y-47392D02*
X45033Y-47392D01*
X44698Y-47472D02*
X45113Y-47472D01*
X44664Y-47552D02*
X45319Y-47552D01*
X44588Y-47632D02*
X45284Y-47632D01*
X44401Y-47712D02*
X45270Y-47712D01*
X44302Y-47792D02*
X45252Y-47792D01*
X44216Y-47872D02*
X45172Y-47872D01*
X44169Y-47952D02*
X45092Y-47952D01*
X44040Y-48032D02*
X45012Y-48032D01*
X43828Y-48112D02*
X44932Y-48112D01*
X43828Y-48192D02*
X44852Y-48192D01*
X43814Y-48272D02*
X44772Y-48272D01*
X43769Y-48352D02*
X44692Y-48352D01*
X43250Y-48432D02*
X43414Y-48432D01*
X43644Y-48432D02*
X44612Y-48432D01*
X42789Y-48512D02*
X44532Y-48512D01*
X42830Y-48592D02*
X44452Y-48592D01*
X42863Y-48672D02*
X44372Y-48672D01*
X41039Y-47570D02*
X41141Y-47570D01*
X40977Y-47650D02*
X41015Y-47650D01*
X40949Y-46141D02*
X40949Y-46141D01*
X40688Y-46221D02*
X40949Y-46221D01*
X40671Y-46301D02*
X40949Y-46301D01*
X40656Y-46381D02*
X40949Y-46381D01*
X40688Y-46461D02*
X40949Y-46461D01*
X40688Y-46541D02*
X40949Y-46541D01*
X40688Y-46621D02*
X40949Y-46621D01*
X40688Y-46701D02*
X40949Y-46701D01*
X40688Y-46781D02*
X40949Y-46781D01*
X40688Y-46861D02*
X40949Y-46861D01*
X40688Y-46941D02*
X40949Y-46941D01*
X46349Y-40879D02*
X46457Y-40879D01*
X46349Y-40959D02*
X46457Y-40959D01*
X46349Y-41039D02*
X46457Y-41039D01*
X46332Y-41119D02*
X46457Y-41119D01*
X46349Y-41199D02*
X46457Y-41199D01*
X46349Y-41279D02*
X46468Y-41279D01*
X46349Y-41359D02*
X46500Y-41359D01*
X46349Y-41439D02*
X46573Y-41439D01*
X46340Y-41519D02*
X46969Y-41519D01*
X46349Y-41599D02*
X46969Y-41599D01*
X46349Y-41679D02*
X46969Y-41679D01*
X46349Y-41759D02*
X46969Y-41759D01*
X46341Y-41839D02*
X46969Y-41839D01*
X46303Y-41919D02*
X46969Y-41919D01*
X45784Y-41999D02*
X45822Y-41999D01*
X46197Y-41999D02*
X46969Y-41999D01*
X45375Y-42079D02*
X46969Y-42079D01*
X45295Y-42159D02*
X46969Y-42159D01*
X45964Y-42239D02*
X46969Y-42239D01*
X46073Y-42319D02*
X46969Y-42319D01*
X46153Y-42399D02*
X46969Y-42399D01*
X46230Y-42479D02*
X46969Y-42479D01*
X46283Y-42559D02*
X46969Y-42559D01*
X46320Y-42639D02*
X46969Y-42639D01*
X46349Y-42719D02*
X46969Y-42719D01*
X46349Y-42799D02*
X46969Y-42799D01*
X46349Y-42879D02*
X46969Y-42879D01*
X46349Y-42959D02*
X46969Y-42959D01*
X46339Y-43039D02*
X46969Y-43039D01*
X46353Y-43119D02*
X46969Y-43119D01*
X46353Y-43199D02*
X46969Y-43199D01*
X46353Y-43279D02*
X46969Y-43279D01*
X46353Y-43359D02*
X46969Y-43359D01*
X46353Y-43439D02*
X46969Y-43439D01*
X46432Y-43519D02*
X46969Y-43519D01*
X46548Y-43599D02*
X46969Y-43599D01*
X46609Y-43679D02*
X46969Y-43679D01*
X46642Y-43759D02*
X46969Y-43759D01*
X45795Y-43839D02*
X45855Y-43839D01*
X46650Y-43839D02*
X46969Y-43839D01*
X45795Y-43919D02*
X45930Y-43919D01*
X46650Y-43919D02*
X46969Y-43919D01*
X45795Y-43999D02*
X45962Y-43999D01*
X46617Y-43999D02*
X46969Y-43999D01*
X45795Y-44079D02*
X46010Y-44079D01*
X46569Y-44079D02*
X46969Y-44079D01*
X45795Y-44159D02*
X46095Y-44159D01*
X46483Y-44159D02*
X46969Y-44159D01*
X45762Y-44239D02*
X46969Y-44239D01*
X45690Y-44319D02*
X46969Y-44319D01*
X45449Y-44399D02*
X46969Y-44399D01*
X45449Y-44479D02*
X46969Y-44479D01*
X45449Y-44559D02*
X46969Y-44559D01*
X45424Y-44639D02*
X45918Y-44639D01*
X46104Y-44639D02*
X46969Y-44639D01*
X46248Y-44719D02*
X46969Y-44719D01*
X46321Y-44799D02*
X46969Y-44799D01*
X46742Y-44879D02*
X46969Y-44879D01*
X46858Y-44959D02*
X46969Y-44959D01*
X46938Y-45039D02*
X46969Y-45039D01*
X44764Y-44589D02*
X44764Y-44589D01*
X44679Y-44669D02*
X44808Y-44669D01*
X40508Y-43755D02*
X40508Y-43755D01*
X40428Y-43835D02*
X40543Y-43835D01*
X40349Y-43915D02*
X40620Y-43915D01*
X40269Y-43995D02*
X40689Y-43995D01*
X40188Y-44075D02*
X40691Y-44075D01*
X40184Y-44155D02*
X40354Y-44155D01*
X41559Y-43589D02*
X41641Y-43589D01*
X41575Y-43669D02*
X41641Y-43669D01*
X44215Y-42849D02*
X44215Y-42849D01*
X43924Y-42929D02*
X44215Y-42929D01*
X43844Y-43009D02*
X44157Y-43009D01*
X43830Y-43089D02*
X44077Y-43089D01*
X43839Y-43169D02*
X43997Y-43169D01*
X43839Y-43249D02*
X43917Y-43249D01*
X40735Y-41246D02*
X40736Y-41246D01*
X40607Y-41326D02*
X40803Y-41326D01*
X40607Y-41406D02*
X40901Y-41406D01*
X41343Y-41406D02*
X41478Y-41406D01*
X40649Y-41486D02*
X41670Y-41486D01*
X40766Y-41566D02*
X41670Y-41566D01*
X40810Y-41646D02*
X41670Y-41646D01*
X40821Y-41726D02*
X41670Y-41726D01*
X40821Y-41806D02*
X41379Y-41806D01*
X40821Y-41886D02*
X41315Y-41886D01*
X40821Y-41966D02*
X41288Y-41966D01*
X40821Y-42046D02*
X41288Y-42046D01*
X40821Y-42126D02*
X41288Y-42126D01*
X40821Y-42206D02*
X41288Y-42206D01*
X41001Y-42286D02*
X41288Y-42286D01*
X41135Y-42366D02*
X41288Y-42366D01*
X41203Y-42446D02*
X41288Y-42446D01*
X41237Y-42526D02*
X41288Y-42526D01*
X41250Y-42606D02*
X41288Y-42606D01*
X41250Y-42686D02*
X41288Y-42686D01*
X41223Y-42766D02*
X41288Y-42766D01*
X41182Y-42846D02*
X41292Y-42846D01*
X45215Y-39645D02*
X46457Y-39645D01*
X45239Y-39725D02*
X46064Y-39725D01*
X45243Y-39805D02*
X45998Y-39805D01*
X45250Y-39885D02*
X45969Y-39885D01*
X45250Y-39965D02*
X45969Y-39965D01*
X45250Y-40045D02*
X45969Y-40045D01*
X45250Y-40125D02*
X45969Y-40125D01*
X45250Y-40205D02*
X45862Y-40205D01*
X45236Y-40285D02*
X45733Y-40285D01*
X45215Y-40365D02*
X45686Y-40365D01*
X45162Y-40445D02*
X45671Y-40445D01*
X45154Y-40525D02*
X45671Y-40525D01*
X45154Y-40605D02*
X45258Y-40605D01*
X45124Y-40685D02*
X45185Y-40685D01*
X45057Y-40765D02*
X45151Y-40765D01*
X44949Y-40845D02*
X45151Y-40845D01*
X44949Y-40925D02*
X45131Y-40925D01*
X44949Y-41005D02*
X45057Y-41005D01*
X44940Y-41085D02*
X45003Y-41085D01*
X44902Y-41165D02*
X44987Y-41165D01*
X44795Y-41245D02*
X44856Y-41245D01*
X40710Y-50906D02*
X40710Y-50808D01*
X40765Y-50676D01*
X40867Y-50575D01*
X40999Y-50520D01*
X41005Y-50520D01*
X41337Y-50188D01*
X41435Y-50123D01*
X41550Y-50100D01*
X41931Y-50100D01*
X41937Y-50095D01*
X42069Y-50040D01*
X42212Y-50040D01*
X42344Y-50095D01*
X42348Y-50100D01*
X42400Y-50100D01*
X42515Y-50123D01*
X42612Y-50188D01*
X42730Y-50306D01*
X42730Y-50288D01*
X42785Y-50156D01*
X42887Y-50055D01*
X43019Y-50000D01*
X43162Y-50000D01*
X43294Y-50055D01*
X43298Y-50060D01*
X44894Y-50060D01*
X44894Y-49848D01*
X44932Y-49757D01*
X45002Y-49687D01*
X45009Y-49683D01*
X44916Y-49645D01*
X44815Y-49543D01*
X44760Y-49411D01*
X44760Y-49268D01*
X44768Y-49247D01*
X44708Y-49308D01*
X44617Y-49369D01*
X44510Y-49390D01*
X43940Y-49390D01*
X43940Y-49392D01*
X43885Y-49524D01*
X43783Y-49625D01*
X43651Y-49680D01*
X43508Y-49680D01*
X43376Y-49625D01*
X43361Y-49609D01*
X43260Y-49610D01*
X43260Y-49622D01*
X43205Y-49754D01*
X43103Y-49855D01*
X42971Y-49910D01*
X42910Y-49910D01*
X42897Y-49919D01*
X42790Y-49940D01*
X42720Y-49940D01*
X42714Y-49939D01*
X42710Y-49940D01*
X42500Y-49940D01*
X42450Y-49950D01*
X42398Y-49940D01*
X42110Y-49940D01*
X42002Y-49919D01*
X41912Y-49858D01*
X41853Y-49800D01*
X41818Y-49800D01*
X41686Y-49745D01*
X41585Y-49643D01*
X41530Y-49511D01*
X41530Y-49368D01*
X41585Y-49236D01*
X41606Y-49215D01*
X41486Y-49165D01*
X41385Y-49063D01*
X41330Y-48931D01*
X41330Y-48909D01*
X41220Y-48909D01*
X41176Y-48890D01*
X41144Y-48904D01*
X40595Y-48904D01*
X40504Y-48866D01*
X40434Y-48796D01*
X40396Y-48704D01*
X40396Y-48404D01*
X40387Y-48401D01*
X40317Y-48331D01*
X40279Y-48239D01*
X40279Y-48036D01*
X40075Y-48036D01*
X39984Y-47998D01*
X39914Y-47928D01*
X39902Y-47899D01*
X39645Y-47899D01*
X39645Y-50906D01*
X40710Y-50906D01*
X46221Y-48265D02*
X46221Y-48265D01*
X46146Y-48345D02*
X46238Y-48345D01*
X46244Y-48425D02*
X46291Y-48425D01*
X46280Y-48505D02*
X46338Y-48505D01*
X46286Y-48585D02*
X46338Y-48585D01*
X46286Y-48665D02*
X46338Y-48665D01*
X46286Y-48745D02*
X46338Y-48745D01*
X46286Y-48825D02*
X46338Y-48825D01*
X46282Y-48905D02*
X46341Y-48905D01*
X46248Y-48985D02*
X46374Y-48985D01*
X46158Y-49065D02*
X46460Y-49065D01*
X45788Y-49145D02*
X46969Y-49145D01*
X45755Y-49225D02*
X46969Y-49225D01*
X45715Y-49305D02*
X46969Y-49305D01*
X45771Y-49385D02*
X46969Y-49385D01*
X45851Y-49465D02*
X46969Y-49465D01*
X45931Y-49545D02*
X46969Y-49545D01*
X46007Y-49625D02*
X46969Y-49625D01*
X46116Y-49705D02*
X46969Y-49705D01*
X46180Y-49785D02*
X46969Y-49785D01*
X46206Y-49865D02*
X46969Y-49865D01*
X46206Y-49945D02*
X46969Y-49945D01*
X46206Y-50025D02*
X46969Y-50025D01*
X46206Y-50105D02*
X46969Y-50105D01*
X46206Y-50185D02*
X46969Y-50185D01*
X46204Y-50265D02*
X46969Y-50265D01*
X46171Y-50345D02*
X46969Y-50345D01*
X46264Y-50425D02*
X46969Y-50425D01*
X46414Y-50505D02*
X46969Y-50505D01*
X46489Y-50585D02*
X46969Y-50585D01*
X46522Y-50665D02*
X46969Y-50665D01*
X46540Y-50745D02*
X46969Y-50745D01*
X46540Y-50825D02*
X46969Y-50825D01*
X46517Y-50905D02*
X46969Y-50905D01*
X39645Y-47899D02*
X39902Y-47899D01*
X39645Y-47979D02*
X39965Y-47979D01*
X39645Y-48059D02*
X40279Y-48059D01*
X39645Y-48139D02*
X40279Y-48139D01*
X39645Y-48219D02*
X40279Y-48219D01*
X39645Y-48299D02*
X40303Y-48299D01*
X39645Y-48379D02*
X40365Y-48379D01*
X39645Y-48459D02*
X40396Y-48459D01*
X39645Y-48539D02*
X40396Y-48539D01*
X39645Y-48619D02*
X40396Y-48619D01*
X39645Y-48699D02*
X40396Y-48699D01*
X39645Y-48779D02*
X40426Y-48779D01*
X39645Y-48859D02*
X40497Y-48859D01*
X39645Y-48939D02*
X41333Y-48939D01*
X39645Y-49019D02*
X41366Y-49019D01*
X39645Y-49099D02*
X41420Y-49099D01*
X39645Y-49179D02*
X41519Y-49179D01*
X39645Y-49259D02*
X41576Y-49259D01*
X44756Y-49259D02*
X44764Y-49259D01*
X39645Y-49339D02*
X41543Y-49339D01*
X44661Y-49339D02*
X44760Y-49339D01*
X39645Y-49419D02*
X41530Y-49419D01*
X43928Y-49419D02*
X44763Y-49419D01*
X39645Y-49499D02*
X41530Y-49499D01*
X43895Y-49499D02*
X44796Y-49499D01*
X39645Y-49579D02*
X41558Y-49579D01*
X43829Y-49579D02*
X44850Y-49579D01*
X39645Y-49659D02*
X41600Y-49659D01*
X43244Y-49659D02*
X43457Y-49659D01*
X43701Y-49659D02*
X44950Y-49659D01*
X39645Y-49739D02*
X41680Y-49739D01*
X43211Y-49739D02*
X44950Y-49739D01*
X39645Y-49819D02*
X41872Y-49819D01*
X43139Y-49819D02*
X44907Y-49819D01*
X39645Y-49899D02*
X41972Y-49899D01*
X42997Y-49899D02*
X44894Y-49899D01*
X39645Y-49979D02*
X44894Y-49979D01*
X39645Y-50059D02*
X42024Y-50059D01*
X42258Y-50059D02*
X42883Y-50059D01*
X43298Y-50059D02*
X44894Y-50059D01*
X39645Y-50139D02*
X41411Y-50139D01*
X42539Y-50139D02*
X42803Y-50139D01*
X39645Y-50219D02*
X41306Y-50219D01*
X42643Y-50219D02*
X42759Y-50219D01*
X39645Y-50299D02*
X41226Y-50299D01*
X42723Y-50299D02*
X42730Y-50299D01*
X39645Y-50379D02*
X41146Y-50379D01*
X39645Y-50459D02*
X41066Y-50459D01*
X39645Y-50539D02*
X40954Y-50539D01*
X39645Y-50619D02*
X40823Y-50619D01*
X39645Y-50699D02*
X40756Y-50699D01*
X39645Y-50779D02*
X40723Y-50779D01*
X39645Y-50859D02*
X40710Y-50859D01*
X44960Y-47232D02*
X44960Y-47232D01*
X44699Y-47312D02*
X44989Y-47312D01*
X44699Y-47392D02*
X45033Y-47392D01*
X44698Y-47472D02*
X45113Y-47472D01*
X44664Y-47552D02*
X45319Y-47552D01*
X44588Y-47632D02*
X45284Y-47632D01*
X44401Y-47712D02*
X45270Y-47712D01*
X44302Y-47792D02*
X45252Y-47792D01*
X44216Y-47872D02*
X45172Y-47872D01*
X44169Y-47952D02*
X45092Y-47952D01*
X44040Y-48032D02*
X45012Y-48032D01*
X43828Y-48112D02*
X44932Y-48112D01*
X43828Y-48192D02*
X44852Y-48192D01*
X43814Y-48272D02*
X44772Y-48272D01*
X43769Y-48352D02*
X44692Y-48352D01*
X43250Y-48432D02*
X43414Y-48432D01*
X43644Y-48432D02*
X44612Y-48432D01*
X42789Y-48512D02*
X44532Y-48512D01*
X42830Y-48592D02*
X44452Y-48592D01*
X42863Y-48672D02*
X44372Y-48672D01*
X41039Y-47570D02*
X41141Y-47570D01*
X40977Y-47650D02*
X41015Y-47650D01*
X40949Y-46141D02*
X40949Y-46141D01*
X40688Y-46221D02*
X40949Y-46221D01*
X40671Y-46301D02*
X40949Y-46301D01*
X40656Y-46381D02*
X40949Y-46381D01*
X40688Y-46461D02*
X40949Y-46461D01*
X40688Y-46541D02*
X40949Y-46541D01*
X40688Y-46621D02*
X40949Y-46621D01*
X40688Y-46701D02*
X40949Y-46701D01*
X40688Y-46781D02*
X40949Y-46781D01*
X40688Y-46861D02*
X40949Y-46861D01*
X40688Y-46941D02*
X40949Y-46941D01*
X46349Y-40879D02*
X46457Y-40879D01*
X46349Y-40959D02*
X46457Y-40959D01*
X46349Y-41039D02*
X46457Y-41039D01*
X46332Y-41119D02*
X46457Y-41119D01*
X46349Y-41199D02*
X46457Y-41199D01*
X46349Y-41279D02*
X46468Y-41279D01*
X46349Y-41359D02*
X46500Y-41359D01*
X46349Y-41439D02*
X46573Y-41439D01*
X46340Y-41519D02*
X46969Y-41519D01*
X46349Y-41599D02*
X46969Y-41599D01*
X46349Y-41679D02*
X46969Y-41679D01*
X46349Y-41759D02*
X46969Y-41759D01*
X46341Y-41839D02*
X46969Y-41839D01*
X46303Y-41919D02*
X46969Y-41919D01*
X45784Y-41999D02*
X45822Y-41999D01*
X46197Y-41999D02*
X46969Y-41999D01*
X45375Y-42079D02*
X46969Y-42079D01*
X45295Y-42159D02*
X46969Y-42159D01*
X45964Y-42239D02*
X46969Y-42239D01*
X46073Y-42319D02*
X46969Y-42319D01*
X46153Y-42399D02*
X46969Y-42399D01*
X46230Y-42479D02*
X46969Y-42479D01*
X46283Y-42559D02*
X46969Y-42559D01*
X46320Y-42639D02*
X46969Y-42639D01*
X46349Y-42719D02*
X46969Y-42719D01*
X46349Y-42799D02*
X46969Y-42799D01*
X46349Y-42879D02*
X46969Y-42879D01*
X46349Y-42959D02*
X46969Y-42959D01*
X46339Y-43039D02*
X46969Y-43039D01*
X46353Y-43119D02*
X46969Y-43119D01*
X46353Y-43199D02*
X46969Y-43199D01*
X46353Y-43279D02*
X46969Y-43279D01*
X46353Y-43359D02*
X46969Y-43359D01*
X46353Y-43439D02*
X46969Y-43439D01*
X46432Y-43519D02*
X46969Y-43519D01*
X46548Y-43599D02*
X46969Y-43599D01*
X46609Y-43679D02*
X46969Y-43679D01*
X46642Y-43759D02*
X46969Y-43759D01*
X45795Y-43839D02*
X45855Y-43839D01*
X46650Y-43839D02*
X46969Y-43839D01*
X45795Y-43919D02*
X45930Y-43919D01*
X46650Y-43919D02*
X46969Y-43919D01*
X45795Y-43999D02*
X45962Y-43999D01*
X46617Y-43999D02*
X46969Y-43999D01*
X45795Y-44079D02*
X46010Y-44079D01*
X46569Y-44079D02*
X46969Y-44079D01*
X45795Y-44159D02*
X46095Y-44159D01*
X46483Y-44159D02*
X46969Y-44159D01*
X45762Y-44239D02*
X46969Y-44239D01*
X45690Y-44319D02*
X46969Y-44319D01*
X45449Y-44399D02*
X46969Y-44399D01*
X45449Y-44479D02*
X46969Y-44479D01*
X45449Y-44559D02*
X46969Y-44559D01*
X45424Y-44639D02*
X45918Y-44639D01*
X46104Y-44639D02*
X46969Y-44639D01*
X46248Y-44719D02*
X46969Y-44719D01*
X46321Y-44799D02*
X46969Y-44799D01*
X46742Y-44879D02*
X46969Y-44879D01*
X46858Y-44959D02*
X46969Y-44959D01*
X46938Y-45039D02*
X46969Y-45039D01*
X44764Y-44589D02*
X44764Y-44589D01*
X44679Y-44669D02*
X44808Y-44669D01*
X40508Y-43755D02*
X40508Y-43755D01*
X40428Y-43835D02*
X40543Y-43835D01*
X40349Y-43915D02*
X40620Y-43915D01*
X40269Y-43995D02*
X40689Y-43995D01*
X40188Y-44075D02*
X40691Y-44075D01*
X40184Y-44155D02*
X40354Y-44155D01*
X41559Y-43589D02*
X41641Y-43589D01*
X41575Y-43669D02*
X41641Y-43669D01*
X44215Y-42849D02*
X44215Y-42849D01*
X43924Y-42929D02*
X44215Y-42929D01*
X43844Y-43009D02*
X44157Y-43009D01*
X43830Y-43089D02*
X44077Y-43089D01*
X43839Y-43169D02*
X43997Y-43169D01*
X43839Y-43249D02*
X43917Y-43249D01*
X40735Y-41246D02*
X40736Y-41246D01*
X40607Y-41326D02*
X40803Y-41326D01*
X40607Y-41406D02*
X40901Y-41406D01*
X41343Y-41406D02*
X41478Y-41406D01*
X40649Y-41486D02*
X41670Y-41486D01*
X40766Y-41566D02*
X41670Y-41566D01*
X40810Y-41646D02*
X41670Y-41646D01*
X40821Y-41726D02*
X41670Y-41726D01*
X40821Y-41806D02*
X41379Y-41806D01*
X40821Y-41886D02*
X41315Y-41886D01*
X40821Y-41966D02*
X41288Y-41966D01*
X40821Y-42046D02*
X41288Y-42046D01*
X40821Y-42126D02*
X41288Y-42126D01*
X40821Y-42206D02*
X41288Y-42206D01*
X41001Y-42286D02*
X41288Y-42286D01*
X41135Y-42366D02*
X41288Y-42366D01*
X41203Y-42446D02*
X41288Y-42446D01*
X41237Y-42526D02*
X41288Y-42526D01*
X41250Y-42606D02*
X41288Y-42606D01*
X41250Y-42686D02*
X41288Y-42686D01*
X41223Y-42766D02*
X41288Y-42766D01*
X41182Y-42846D02*
X41292Y-42846D01*
X45215Y-39645D02*
X46457Y-39645D01*
X45239Y-39725D02*
X46064Y-39725D01*
X45243Y-39805D02*
X45998Y-39805D01*
X45250Y-39885D02*
X45969Y-39885D01*
X45250Y-39965D02*
X45969Y-39965D01*
X45250Y-40045D02*
X45969Y-40045D01*
X45250Y-40125D02*
X45969Y-40125D01*
X45250Y-40205D02*
X45862Y-40205D01*
X45236Y-40285D02*
X45733Y-40285D01*
X45215Y-40365D02*
X45686Y-40365D01*
X45162Y-40445D02*
X45671Y-40445D01*
X45154Y-40525D02*
X45671Y-40525D01*
X45154Y-40605D02*
X45258Y-40605D01*
X45124Y-40685D02*
X45185Y-40685D01*
X45057Y-40765D02*
X45151Y-40765D01*
X44949Y-40845D02*
X45151Y-40845D01*
X44949Y-40925D02*
X45131Y-40925D01*
X44949Y-41005D02*
X45057Y-41005D01*
X44940Y-41085D02*
X45003Y-41085D01*
X44902Y-41165D02*
X44987Y-41165D01*
X44795Y-41245D02*
X44856Y-41245D01*
X44338Y-48706D02*
X45270Y-47774D01*
X45270Y-47700D01*
X45291Y-47593D01*
X45333Y-47530D01*
X45248Y-47530D01*
X45116Y-47475D01*
X45015Y-47373D01*
X44960Y-47241D01*
X44960Y-47232D01*
X44941Y-47251D01*
X44849Y-47289D01*
X44699Y-47289D01*
X44699Y-47470D01*
X44661Y-47561D01*
X44591Y-47631D01*
X44499Y-47669D01*
X44445Y-47668D01*
X44361Y-47753D01*
X44264Y-47818D01*
X44231Y-47824D01*
X44231Y-47837D01*
X44193Y-47928D01*
X44123Y-47998D01*
X44031Y-48036D01*
X43835Y-48036D01*
X43828Y-48037D01*
X43828Y-48240D01*
X43790Y-48331D01*
X43720Y-48401D01*
X43628Y-48439D01*
X43431Y-48439D01*
X43340Y-48401D01*
X43332Y-48393D01*
X43326Y-48401D01*
X43234Y-48439D01*
X43037Y-48439D01*
X42841Y-48439D01*
X42840Y-48439D01*
X42788Y-48439D01*
X42789Y-48441D01*
X42789Y-48530D01*
X42815Y-48557D01*
X42870Y-48689D01*
X42870Y-48706D01*
X44338Y-48706D01*
X46221Y-48265D02*
X46221Y-48265D01*
X46146Y-48345D02*
X46238Y-48345D01*
X46244Y-48425D02*
X46291Y-48425D01*
X46280Y-48505D02*
X46338Y-48505D01*
X46286Y-48585D02*
X46338Y-48585D01*
X46286Y-48665D02*
X46338Y-48665D01*
X46286Y-48745D02*
X46338Y-48745D01*
X46286Y-48825D02*
X46338Y-48825D01*
X46282Y-48905D02*
X46341Y-48905D01*
X46248Y-48985D02*
X46374Y-48985D01*
X46158Y-49065D02*
X46460Y-49065D01*
X45788Y-49145D02*
X46969Y-49145D01*
X45755Y-49225D02*
X46969Y-49225D01*
X45715Y-49305D02*
X46969Y-49305D01*
X45771Y-49385D02*
X46969Y-49385D01*
X45851Y-49465D02*
X46969Y-49465D01*
X45931Y-49545D02*
X46969Y-49545D01*
X46007Y-49625D02*
X46969Y-49625D01*
X46116Y-49705D02*
X46969Y-49705D01*
X46180Y-49785D02*
X46969Y-49785D01*
X46206Y-49865D02*
X46969Y-49865D01*
X46206Y-49945D02*
X46969Y-49945D01*
X46206Y-50025D02*
X46969Y-50025D01*
X46206Y-50105D02*
X46969Y-50105D01*
X46206Y-50185D02*
X46969Y-50185D01*
X46204Y-50265D02*
X46969Y-50265D01*
X46171Y-50345D02*
X46969Y-50345D01*
X46264Y-50425D02*
X46969Y-50425D01*
X46414Y-50505D02*
X46969Y-50505D01*
X46489Y-50585D02*
X46969Y-50585D01*
X46522Y-50665D02*
X46969Y-50665D01*
X46540Y-50745D02*
X46969Y-50745D01*
X46540Y-50825D02*
X46969Y-50825D01*
X46517Y-50905D02*
X46969Y-50905D01*
X39645Y-47899D02*
X39902Y-47899D01*
X39645Y-47979D02*
X39965Y-47979D01*
X39645Y-48059D02*
X40279Y-48059D01*
X39645Y-48139D02*
X40279Y-48139D01*
X39645Y-48219D02*
X40279Y-48219D01*
X39645Y-48299D02*
X40303Y-48299D01*
X39645Y-48379D02*
X40365Y-48379D01*
X39645Y-48459D02*
X40396Y-48459D01*
X39645Y-48539D02*
X40396Y-48539D01*
X39645Y-48619D02*
X40396Y-48619D01*
X39645Y-48699D02*
X40396Y-48699D01*
X39645Y-48779D02*
X40426Y-48779D01*
X39645Y-48859D02*
X40497Y-48859D01*
X39645Y-48939D02*
X41333Y-48939D01*
X39645Y-49019D02*
X41366Y-49019D01*
X39645Y-49099D02*
X41420Y-49099D01*
X39645Y-49179D02*
X41519Y-49179D01*
X39645Y-49259D02*
X41576Y-49259D01*
X44756Y-49259D02*
X44764Y-49259D01*
X39645Y-49339D02*
X41543Y-49339D01*
X44661Y-49339D02*
X44760Y-49339D01*
X39645Y-49419D02*
X41530Y-49419D01*
X43928Y-49419D02*
X44763Y-49419D01*
X39645Y-49499D02*
X41530Y-49499D01*
X43895Y-49499D02*
X44796Y-49499D01*
X39645Y-49579D02*
X41558Y-49579D01*
X43829Y-49579D02*
X44850Y-49579D01*
X39645Y-49659D02*
X41600Y-49659D01*
X43244Y-49659D02*
X43457Y-49659D01*
X43701Y-49659D02*
X44950Y-49659D01*
X39645Y-49739D02*
X41680Y-49739D01*
X43211Y-49739D02*
X44950Y-49739D01*
X39645Y-49819D02*
X41872Y-49819D01*
X43139Y-49819D02*
X44907Y-49819D01*
X39645Y-49899D02*
X41972Y-49899D01*
X42997Y-49899D02*
X44894Y-49899D01*
X39645Y-49979D02*
X44894Y-49979D01*
X39645Y-50059D02*
X42024Y-50059D01*
X42258Y-50059D02*
X42883Y-50059D01*
X43298Y-50059D02*
X44894Y-50059D01*
X39645Y-50139D02*
X41411Y-50139D01*
X42539Y-50139D02*
X42803Y-50139D01*
X39645Y-50219D02*
X41306Y-50219D01*
X42643Y-50219D02*
X42759Y-50219D01*
X39645Y-50299D02*
X41226Y-50299D01*
X42723Y-50299D02*
X42730Y-50299D01*
X39645Y-50379D02*
X41146Y-50379D01*
X39645Y-50459D02*
X41066Y-50459D01*
X39645Y-50539D02*
X40954Y-50539D01*
X39645Y-50619D02*
X40823Y-50619D01*
X39645Y-50699D02*
X40756Y-50699D01*
X39645Y-50779D02*
X40723Y-50779D01*
X39645Y-50859D02*
X40710Y-50859D01*
X44960Y-47232D02*
X44960Y-47232D01*
X44699Y-47312D02*
X44989Y-47312D01*
X44699Y-47392D02*
X45033Y-47392D01*
X44698Y-47472D02*
X45113Y-47472D01*
X44664Y-47552D02*
X45319Y-47552D01*
X44588Y-47632D02*
X45284Y-47632D01*
X44401Y-47712D02*
X45270Y-47712D01*
X44302Y-47792D02*
X45252Y-47792D01*
X44216Y-47872D02*
X45172Y-47872D01*
X44169Y-47952D02*
X45092Y-47952D01*
X44040Y-48032D02*
X45012Y-48032D01*
X43828Y-48112D02*
X44932Y-48112D01*
X43828Y-48192D02*
X44852Y-48192D01*
X43814Y-48272D02*
X44772Y-48272D01*
X43769Y-48352D02*
X44692Y-48352D01*
X43250Y-48432D02*
X43414Y-48432D01*
X43644Y-48432D02*
X44612Y-48432D01*
X42789Y-48512D02*
X44532Y-48512D01*
X42830Y-48592D02*
X44452Y-48592D01*
X42863Y-48672D02*
X44372Y-48672D01*
X41039Y-47570D02*
X41141Y-47570D01*
X40977Y-47650D02*
X41015Y-47650D01*
X40949Y-46141D02*
X40949Y-46141D01*
X40688Y-46221D02*
X40949Y-46221D01*
X40671Y-46301D02*
X40949Y-46301D01*
X40656Y-46381D02*
X40949Y-46381D01*
X40688Y-46461D02*
X40949Y-46461D01*
X40688Y-46541D02*
X40949Y-46541D01*
X40688Y-46621D02*
X40949Y-46621D01*
X40688Y-46701D02*
X40949Y-46701D01*
X40688Y-46781D02*
X40949Y-46781D01*
X40688Y-46861D02*
X40949Y-46861D01*
X40688Y-46941D02*
X40949Y-46941D01*
X46349Y-40879D02*
X46457Y-40879D01*
X46349Y-40959D02*
X46457Y-40959D01*
X46349Y-41039D02*
X46457Y-41039D01*
X46332Y-41119D02*
X46457Y-41119D01*
X46349Y-41199D02*
X46457Y-41199D01*
X46349Y-41279D02*
X46468Y-41279D01*
X46349Y-41359D02*
X46500Y-41359D01*
X46349Y-41439D02*
X46573Y-41439D01*
X46340Y-41519D02*
X46969Y-41519D01*
X46349Y-41599D02*
X46969Y-41599D01*
X46349Y-41679D02*
X46969Y-41679D01*
X46349Y-41759D02*
X46969Y-41759D01*
X46341Y-41839D02*
X46969Y-41839D01*
X46303Y-41919D02*
X46969Y-41919D01*
X45784Y-41999D02*
X45822Y-41999D01*
X46197Y-41999D02*
X46969Y-41999D01*
X45375Y-42079D02*
X46969Y-42079D01*
X45295Y-42159D02*
X46969Y-42159D01*
X45964Y-42239D02*
X46969Y-42239D01*
X46073Y-42319D02*
X46969Y-42319D01*
X46153Y-42399D02*
X46969Y-42399D01*
X46230Y-42479D02*
X46969Y-42479D01*
X46283Y-42559D02*
X46969Y-42559D01*
X46320Y-42639D02*
X46969Y-42639D01*
X46349Y-42719D02*
X46969Y-42719D01*
X46349Y-42799D02*
X46969Y-42799D01*
X46349Y-42879D02*
X46969Y-42879D01*
X46349Y-42959D02*
X46969Y-42959D01*
X46339Y-43039D02*
X46969Y-43039D01*
X46353Y-43119D02*
X46969Y-43119D01*
X46353Y-43199D02*
X46969Y-43199D01*
X46353Y-43279D02*
X46969Y-43279D01*
X46353Y-43359D02*
X46969Y-43359D01*
X46353Y-43439D02*
X46969Y-43439D01*
X46432Y-43519D02*
X46969Y-43519D01*
X46548Y-43599D02*
X46969Y-43599D01*
X46609Y-43679D02*
X46969Y-43679D01*
X46642Y-43759D02*
X46969Y-43759D01*
X45795Y-43839D02*
X45855Y-43839D01*
X46650Y-43839D02*
X46969Y-43839D01*
X45795Y-43919D02*
X45930Y-43919D01*
X46650Y-43919D02*
X46969Y-43919D01*
X45795Y-43999D02*
X45962Y-43999D01*
X46617Y-43999D02*
X46969Y-43999D01*
X45795Y-44079D02*
X46010Y-44079D01*
X46569Y-44079D02*
X46969Y-44079D01*
X45795Y-44159D02*
X46095Y-44159D01*
X46483Y-44159D02*
X46969Y-44159D01*
X45762Y-44239D02*
X46969Y-44239D01*
X45690Y-44319D02*
X46969Y-44319D01*
X45449Y-44399D02*
X46969Y-44399D01*
X45449Y-44479D02*
X46969Y-44479D01*
X45449Y-44559D02*
X46969Y-44559D01*
X45424Y-44639D02*
X45918Y-44639D01*
X46104Y-44639D02*
X46969Y-44639D01*
X46248Y-44719D02*
X46969Y-44719D01*
X46321Y-44799D02*
X46969Y-44799D01*
X46742Y-44879D02*
X46969Y-44879D01*
X46858Y-44959D02*
X46969Y-44959D01*
X46938Y-45039D02*
X46969Y-45039D01*
X44764Y-44589D02*
X44764Y-44589D01*
X44679Y-44669D02*
X44808Y-44669D01*
X40508Y-43755D02*
X40508Y-43755D01*
X40428Y-43835D02*
X40543Y-43835D01*
X40349Y-43915D02*
X40620Y-43915D01*
X40269Y-43995D02*
X40689Y-43995D01*
X40188Y-44075D02*
X40691Y-44075D01*
X40184Y-44155D02*
X40354Y-44155D01*
X41559Y-43589D02*
X41641Y-43589D01*
X41575Y-43669D02*
X41641Y-43669D01*
X44215Y-42849D02*
X44215Y-42849D01*
X43924Y-42929D02*
X44215Y-42929D01*
X43844Y-43009D02*
X44157Y-43009D01*
X43830Y-43089D02*
X44077Y-43089D01*
X43839Y-43169D02*
X43997Y-43169D01*
X43839Y-43249D02*
X43917Y-43249D01*
X40735Y-41246D02*
X40736Y-41246D01*
X40607Y-41326D02*
X40803Y-41326D01*
X40607Y-41406D02*
X40901Y-41406D01*
X41343Y-41406D02*
X41478Y-41406D01*
X40649Y-41486D02*
X41670Y-41486D01*
X40766Y-41566D02*
X41670Y-41566D01*
X40810Y-41646D02*
X41670Y-41646D01*
X40821Y-41726D02*
X41670Y-41726D01*
X40821Y-41806D02*
X41379Y-41806D01*
X40821Y-41886D02*
X41315Y-41886D01*
X40821Y-41966D02*
X41288Y-41966D01*
X40821Y-42046D02*
X41288Y-42046D01*
X40821Y-42126D02*
X41288Y-42126D01*
X40821Y-42206D02*
X41288Y-42206D01*
X41001Y-42286D02*
X41288Y-42286D01*
X41135Y-42366D02*
X41288Y-42366D01*
X41203Y-42446D02*
X41288Y-42446D01*
X41237Y-42526D02*
X41288Y-42526D01*
X41250Y-42606D02*
X41288Y-42606D01*
X41250Y-42686D02*
X41288Y-42686D01*
X41223Y-42766D02*
X41288Y-42766D01*
X41182Y-42846D02*
X41292Y-42846D01*
X45215Y-39645D02*
X46457Y-39645D01*
X45239Y-39725D02*
X46064Y-39725D01*
X45243Y-39805D02*
X45998Y-39805D01*
X45250Y-39885D02*
X45969Y-39885D01*
X45250Y-39965D02*
X45969Y-39965D01*
X45250Y-40045D02*
X45969Y-40045D01*
X45250Y-40125D02*
X45969Y-40125D01*
X45250Y-40205D02*
X45862Y-40205D01*
X45236Y-40285D02*
X45733Y-40285D01*
X45215Y-40365D02*
X45686Y-40365D01*
X45162Y-40445D02*
X45671Y-40445D01*
X45154Y-40525D02*
X45671Y-40525D01*
X45154Y-40605D02*
X45258Y-40605D01*
X45124Y-40685D02*
X45185Y-40685D01*
X45057Y-40765D02*
X45151Y-40765D01*
X44949Y-40845D02*
X45151Y-40845D01*
X44949Y-40925D02*
X45131Y-40925D01*
X44949Y-41005D02*
X45057Y-41005D01*
X44940Y-41085D02*
X45003Y-41085D01*
X44902Y-41165D02*
X44987Y-41165D01*
X44795Y-41245D02*
X44856Y-41245D01*
X40970Y-47671D02*
X40978Y-47665D01*
X41070Y-47627D01*
X41103Y-47627D01*
X41141Y-47570D01*
X41039Y-47570D01*
X41025Y-47604D01*
X40963Y-47664D01*
X40964Y-47665D01*
X40970Y-47671D01*
X46221Y-48265D02*
X46221Y-48265D01*
X46146Y-48345D02*
X46238Y-48345D01*
X46244Y-48425D02*
X46291Y-48425D01*
X46280Y-48505D02*
X46338Y-48505D01*
X46286Y-48585D02*
X46338Y-48585D01*
X46286Y-48665D02*
X46338Y-48665D01*
X46286Y-48745D02*
X46338Y-48745D01*
X46286Y-48825D02*
X46338Y-48825D01*
X46282Y-48905D02*
X46341Y-48905D01*
X46248Y-48985D02*
X46374Y-48985D01*
X46158Y-49065D02*
X46460Y-49065D01*
X45788Y-49145D02*
X46969Y-49145D01*
X45755Y-49225D02*
X46969Y-49225D01*
X45715Y-49305D02*
X46969Y-49305D01*
X45771Y-49385D02*
X46969Y-49385D01*
X45851Y-49465D02*
X46969Y-49465D01*
X45931Y-49545D02*
X46969Y-49545D01*
X46007Y-49625D02*
X46969Y-49625D01*
X46116Y-49705D02*
X46969Y-49705D01*
X46180Y-49785D02*
X46969Y-49785D01*
X46206Y-49865D02*
X46969Y-49865D01*
X46206Y-49945D02*
X46969Y-49945D01*
X46206Y-50025D02*
X46969Y-50025D01*
X46206Y-50105D02*
X46969Y-50105D01*
X46206Y-50185D02*
X46969Y-50185D01*
X46204Y-50265D02*
X46969Y-50265D01*
X46171Y-50345D02*
X46969Y-50345D01*
X46264Y-50425D02*
X46969Y-50425D01*
X46414Y-50505D02*
X46969Y-50505D01*
X46489Y-50585D02*
X46969Y-50585D01*
X46522Y-50665D02*
X46969Y-50665D01*
X46540Y-50745D02*
X46969Y-50745D01*
X46540Y-50825D02*
X46969Y-50825D01*
X46517Y-50905D02*
X46969Y-50905D01*
X39645Y-47899D02*
X39902Y-47899D01*
X39645Y-47979D02*
X39965Y-47979D01*
X39645Y-48059D02*
X40279Y-48059D01*
X39645Y-48139D02*
X40279Y-48139D01*
X39645Y-48219D02*
X40279Y-48219D01*
X39645Y-48299D02*
X40303Y-48299D01*
X39645Y-48379D02*
X40365Y-48379D01*
X39645Y-48459D02*
X40396Y-48459D01*
X39645Y-48539D02*
X40396Y-48539D01*
X39645Y-48619D02*
X40396Y-48619D01*
X39645Y-48699D02*
X40396Y-48699D01*
X39645Y-48779D02*
X40426Y-48779D01*
X39645Y-48859D02*
X40497Y-48859D01*
X39645Y-48939D02*
X41333Y-48939D01*
X39645Y-49019D02*
X41366Y-49019D01*
X39645Y-49099D02*
X41420Y-49099D01*
X39645Y-49179D02*
X41519Y-49179D01*
X39645Y-49259D02*
X41576Y-49259D01*
X44756Y-49259D02*
X44764Y-49259D01*
X39645Y-49339D02*
X41543Y-49339D01*
X44661Y-49339D02*
X44760Y-49339D01*
X39645Y-49419D02*
X41530Y-49419D01*
X43928Y-49419D02*
X44763Y-49419D01*
X39645Y-49499D02*
X41530Y-49499D01*
X43895Y-49499D02*
X44796Y-49499D01*
X39645Y-49579D02*
X41558Y-49579D01*
X43829Y-49579D02*
X44850Y-49579D01*
X39645Y-49659D02*
X41600Y-49659D01*
X43244Y-49659D02*
X43457Y-49659D01*
X43701Y-49659D02*
X44950Y-49659D01*
X39645Y-49739D02*
X41680Y-49739D01*
X43211Y-49739D02*
X44950Y-49739D01*
X39645Y-49819D02*
X41872Y-49819D01*
X43139Y-49819D02*
X44907Y-49819D01*
X39645Y-49899D02*
X41972Y-49899D01*
X42997Y-49899D02*
X44894Y-49899D01*
X39645Y-49979D02*
X44894Y-49979D01*
X39645Y-50059D02*
X42024Y-50059D01*
X42258Y-50059D02*
X42883Y-50059D01*
X43298Y-50059D02*
X44894Y-50059D01*
X39645Y-50139D02*
X41411Y-50139D01*
X42539Y-50139D02*
X42803Y-50139D01*
X39645Y-50219D02*
X41306Y-50219D01*
X42643Y-50219D02*
X42759Y-50219D01*
X39645Y-50299D02*
X41226Y-50299D01*
X42723Y-50299D02*
X42730Y-50299D01*
X39645Y-50379D02*
X41146Y-50379D01*
X39645Y-50459D02*
X41066Y-50459D01*
X39645Y-50539D02*
X40954Y-50539D01*
X39645Y-50619D02*
X40823Y-50619D01*
X39645Y-50699D02*
X40756Y-50699D01*
X39645Y-50779D02*
X40723Y-50779D01*
X39645Y-50859D02*
X40710Y-50859D01*
X44960Y-47232D02*
X44960Y-47232D01*
X44699Y-47312D02*
X44989Y-47312D01*
X44699Y-47392D02*
X45033Y-47392D01*
X44698Y-47472D02*
X45113Y-47472D01*
X44664Y-47552D02*
X45319Y-47552D01*
X44588Y-47632D02*
X45284Y-47632D01*
X44401Y-47712D02*
X45270Y-47712D01*
X44302Y-47792D02*
X45252Y-47792D01*
X44216Y-47872D02*
X45172Y-47872D01*
X44169Y-47952D02*
X45092Y-47952D01*
X44040Y-48032D02*
X45012Y-48032D01*
X43828Y-48112D02*
X44932Y-48112D01*
X43828Y-48192D02*
X44852Y-48192D01*
X43814Y-48272D02*
X44772Y-48272D01*
X43769Y-48352D02*
X44692Y-48352D01*
X43250Y-48432D02*
X43414Y-48432D01*
X43644Y-48432D02*
X44612Y-48432D01*
X42789Y-48512D02*
X44532Y-48512D01*
X42830Y-48592D02*
X44452Y-48592D01*
X42863Y-48672D02*
X44372Y-48672D01*
X41039Y-47570D02*
X41141Y-47570D01*
X40977Y-47650D02*
X41015Y-47650D01*
X40949Y-46141D02*
X40949Y-46141D01*
X40688Y-46221D02*
X40949Y-46221D01*
X40671Y-46301D02*
X40949Y-46301D01*
X40656Y-46381D02*
X40949Y-46381D01*
X40688Y-46461D02*
X40949Y-46461D01*
X40688Y-46541D02*
X40949Y-46541D01*
X40688Y-46621D02*
X40949Y-46621D01*
X40688Y-46701D02*
X40949Y-46701D01*
X40688Y-46781D02*
X40949Y-46781D01*
X40688Y-46861D02*
X40949Y-46861D01*
X40688Y-46941D02*
X40949Y-46941D01*
X46349Y-40879D02*
X46457Y-40879D01*
X46349Y-40959D02*
X46457Y-40959D01*
X46349Y-41039D02*
X46457Y-41039D01*
X46332Y-41119D02*
X46457Y-41119D01*
X46349Y-41199D02*
X46457Y-41199D01*
X46349Y-41279D02*
X46468Y-41279D01*
X46349Y-41359D02*
X46500Y-41359D01*
X46349Y-41439D02*
X46573Y-41439D01*
X46340Y-41519D02*
X46969Y-41519D01*
X46349Y-41599D02*
X46969Y-41599D01*
X46349Y-41679D02*
X46969Y-41679D01*
X46349Y-41759D02*
X46969Y-41759D01*
X46341Y-41839D02*
X46969Y-41839D01*
X46303Y-41919D02*
X46969Y-41919D01*
X45784Y-41999D02*
X45822Y-41999D01*
X46197Y-41999D02*
X46969Y-41999D01*
X45375Y-42079D02*
X46969Y-42079D01*
X45295Y-42159D02*
X46969Y-42159D01*
X45964Y-42239D02*
X46969Y-42239D01*
X46073Y-42319D02*
X46969Y-42319D01*
X46153Y-42399D02*
X46969Y-42399D01*
X46230Y-42479D02*
X46969Y-42479D01*
X46283Y-42559D02*
X46969Y-42559D01*
X46320Y-42639D02*
X46969Y-42639D01*
X46349Y-42719D02*
X46969Y-42719D01*
X46349Y-42799D02*
X46969Y-42799D01*
X46349Y-42879D02*
X46969Y-42879D01*
X46349Y-42959D02*
X46969Y-42959D01*
X46339Y-43039D02*
X46969Y-43039D01*
X46353Y-43119D02*
X46969Y-43119D01*
X46353Y-43199D02*
X46969Y-43199D01*
X46353Y-43279D02*
X46969Y-43279D01*
X46353Y-43359D02*
X46969Y-43359D01*
X46353Y-43439D02*
X46969Y-43439D01*
X46432Y-43519D02*
X46969Y-43519D01*
X46548Y-43599D02*
X46969Y-43599D01*
X46609Y-43679D02*
X46969Y-43679D01*
X46642Y-43759D02*
X46969Y-43759D01*
X45795Y-43839D02*
X45855Y-43839D01*
X46650Y-43839D02*
X46969Y-43839D01*
X45795Y-43919D02*
X45930Y-43919D01*
X46650Y-43919D02*
X46969Y-43919D01*
X45795Y-43999D02*
X45962Y-43999D01*
X46617Y-43999D02*
X46969Y-43999D01*
X45795Y-44079D02*
X46010Y-44079D01*
X46569Y-44079D02*
X46969Y-44079D01*
X45795Y-44159D02*
X46095Y-44159D01*
X46483Y-44159D02*
X46969Y-44159D01*
X45762Y-44239D02*
X46969Y-44239D01*
X45690Y-44319D02*
X46969Y-44319D01*
X45449Y-44399D02*
X46969Y-44399D01*
X45449Y-44479D02*
X46969Y-44479D01*
X45449Y-44559D02*
X46969Y-44559D01*
X45424Y-44639D02*
X45918Y-44639D01*
X46104Y-44639D02*
X46969Y-44639D01*
X46248Y-44719D02*
X46969Y-44719D01*
X46321Y-44799D02*
X46969Y-44799D01*
X46742Y-44879D02*
X46969Y-44879D01*
X46858Y-44959D02*
X46969Y-44959D01*
X46938Y-45039D02*
X46969Y-45039D01*
X44764Y-44589D02*
X44764Y-44589D01*
X44679Y-44669D02*
X44808Y-44669D01*
X40508Y-43755D02*
X40508Y-43755D01*
X40428Y-43835D02*
X40543Y-43835D01*
X40349Y-43915D02*
X40620Y-43915D01*
X40269Y-43995D02*
X40689Y-43995D01*
X40188Y-44075D02*
X40691Y-44075D01*
X40184Y-44155D02*
X40354Y-44155D01*
X41559Y-43589D02*
X41641Y-43589D01*
X41575Y-43669D02*
X41641Y-43669D01*
X44215Y-42849D02*
X44215Y-42849D01*
X43924Y-42929D02*
X44215Y-42929D01*
X43844Y-43009D02*
X44157Y-43009D01*
X43830Y-43089D02*
X44077Y-43089D01*
X43839Y-43169D02*
X43997Y-43169D01*
X43839Y-43249D02*
X43917Y-43249D01*
X40735Y-41246D02*
X40736Y-41246D01*
X40607Y-41326D02*
X40803Y-41326D01*
X40607Y-41406D02*
X40901Y-41406D01*
X41343Y-41406D02*
X41478Y-41406D01*
X40649Y-41486D02*
X41670Y-41486D01*
X40766Y-41566D02*
X41670Y-41566D01*
X40810Y-41646D02*
X41670Y-41646D01*
X40821Y-41726D02*
X41670Y-41726D01*
X40821Y-41806D02*
X41379Y-41806D01*
X40821Y-41886D02*
X41315Y-41886D01*
X40821Y-41966D02*
X41288Y-41966D01*
X40821Y-42046D02*
X41288Y-42046D01*
X40821Y-42126D02*
X41288Y-42126D01*
X40821Y-42206D02*
X41288Y-42206D01*
X41001Y-42286D02*
X41288Y-42286D01*
X41135Y-42366D02*
X41288Y-42366D01*
X41203Y-42446D02*
X41288Y-42446D01*
X41237Y-42526D02*
X41288Y-42526D01*
X41250Y-42606D02*
X41288Y-42606D01*
X41250Y-42686D02*
X41288Y-42686D01*
X41223Y-42766D02*
X41288Y-42766D01*
X41182Y-42846D02*
X41292Y-42846D01*
X45215Y-39645D02*
X46457Y-39645D01*
X45239Y-39725D02*
X46064Y-39725D01*
X45243Y-39805D02*
X45998Y-39805D01*
X45250Y-39885D02*
X45969Y-39885D01*
X45250Y-39965D02*
X45969Y-39965D01*
X45250Y-40045D02*
X45969Y-40045D01*
X45250Y-40125D02*
X45969Y-40125D01*
X45250Y-40205D02*
X45862Y-40205D01*
X45236Y-40285D02*
X45733Y-40285D01*
X45215Y-40365D02*
X45686Y-40365D01*
X45162Y-40445D02*
X45671Y-40445D01*
X45154Y-40525D02*
X45671Y-40525D01*
X45154Y-40605D02*
X45258Y-40605D01*
X45124Y-40685D02*
X45185Y-40685D01*
X45057Y-40765D02*
X45151Y-40765D01*
X44949Y-40845D02*
X45151Y-40845D01*
X44949Y-40925D02*
X45131Y-40925D01*
X44949Y-41005D02*
X45057Y-41005D01*
X44940Y-41085D02*
X45003Y-41085D01*
X44902Y-41165D02*
X44987Y-41165D01*
X44795Y-41245D02*
X44856Y-41245D01*
X40688Y-46853D02*
X40688Y-47017D01*
X40725Y-46993D01*
X40840Y-46970D01*
X40949Y-46970D01*
X40949Y-46141D01*
X40881Y-46170D01*
X40738Y-46170D01*
X40688Y-46149D01*
X40688Y-46262D01*
X40650Y-46353D01*
X40642Y-46359D01*
X40650Y-46367D01*
X40688Y-46459D01*
X40688Y-46656D01*
X40688Y-46853D01*
X46221Y-48265D02*
X46221Y-48265D01*
X46146Y-48345D02*
X46238Y-48345D01*
X46244Y-48425D02*
X46291Y-48425D01*
X46280Y-48505D02*
X46338Y-48505D01*
X46286Y-48585D02*
X46338Y-48585D01*
X46286Y-48665D02*
X46338Y-48665D01*
X46286Y-48745D02*
X46338Y-48745D01*
X46286Y-48825D02*
X46338Y-48825D01*
X46282Y-48905D02*
X46341Y-48905D01*
X46248Y-48985D02*
X46374Y-48985D01*
X46158Y-49065D02*
X46460Y-49065D01*
X45788Y-49145D02*
X46969Y-49145D01*
X45755Y-49225D02*
X46969Y-49225D01*
X45715Y-49305D02*
X46969Y-49305D01*
X45771Y-49385D02*
X46969Y-49385D01*
X45851Y-49465D02*
X46969Y-49465D01*
X45931Y-49545D02*
X46969Y-49545D01*
X46007Y-49625D02*
X46969Y-49625D01*
X46116Y-49705D02*
X46969Y-49705D01*
X46180Y-49785D02*
X46969Y-49785D01*
X46206Y-49865D02*
X46969Y-49865D01*
X46206Y-49945D02*
X46969Y-49945D01*
X46206Y-50025D02*
X46969Y-50025D01*
X46206Y-50105D02*
X46969Y-50105D01*
X46206Y-50185D02*
X46969Y-50185D01*
X46204Y-50265D02*
X46969Y-50265D01*
X46171Y-50345D02*
X46969Y-50345D01*
X46264Y-50425D02*
X46969Y-50425D01*
X46414Y-50505D02*
X46969Y-50505D01*
X46489Y-50585D02*
X46969Y-50585D01*
X46522Y-50665D02*
X46969Y-50665D01*
X46540Y-50745D02*
X46969Y-50745D01*
X46540Y-50825D02*
X46969Y-50825D01*
X46517Y-50905D02*
X46969Y-50905D01*
X39645Y-47899D02*
X39902Y-47899D01*
X39645Y-47979D02*
X39965Y-47979D01*
X39645Y-48059D02*
X40279Y-48059D01*
X39645Y-48139D02*
X40279Y-48139D01*
X39645Y-48219D02*
X40279Y-48219D01*
X39645Y-48299D02*
X40303Y-48299D01*
X39645Y-48379D02*
X40365Y-48379D01*
X39645Y-48459D02*
X40396Y-48459D01*
X39645Y-48539D02*
X40396Y-48539D01*
X39645Y-48619D02*
X40396Y-48619D01*
X39645Y-48699D02*
X40396Y-48699D01*
X39645Y-48779D02*
X40426Y-48779D01*
X39645Y-48859D02*
X40497Y-48859D01*
X39645Y-48939D02*
X41333Y-48939D01*
X39645Y-49019D02*
X41366Y-49019D01*
X39645Y-49099D02*
X41420Y-49099D01*
X39645Y-49179D02*
X41519Y-49179D01*
X39645Y-49259D02*
X41576Y-49259D01*
X44756Y-49259D02*
X44764Y-49259D01*
X39645Y-49339D02*
X41543Y-49339D01*
X44661Y-49339D02*
X44760Y-49339D01*
X39645Y-49419D02*
X41530Y-49419D01*
X43928Y-49419D02*
X44763Y-49419D01*
X39645Y-49499D02*
X41530Y-49499D01*
X43895Y-49499D02*
X44796Y-49499D01*
X39645Y-49579D02*
X41558Y-49579D01*
X43829Y-49579D02*
X44850Y-49579D01*
X39645Y-49659D02*
X41600Y-49659D01*
X43244Y-49659D02*
X43457Y-49659D01*
X43701Y-49659D02*
X44950Y-49659D01*
X39645Y-49739D02*
X41680Y-49739D01*
X43211Y-49739D02*
X44950Y-49739D01*
X39645Y-49819D02*
X41872Y-49819D01*
X43139Y-49819D02*
X44907Y-49819D01*
X39645Y-49899D02*
X41972Y-49899D01*
X42997Y-49899D02*
X44894Y-49899D01*
X39645Y-49979D02*
X44894Y-49979D01*
X39645Y-50059D02*
X42024Y-50059D01*
X42258Y-50059D02*
X42883Y-50059D01*
X43298Y-50059D02*
X44894Y-50059D01*
X39645Y-50139D02*
X41411Y-50139D01*
X42539Y-50139D02*
X42803Y-50139D01*
X39645Y-50219D02*
X41306Y-50219D01*
X42643Y-50219D02*
X42759Y-50219D01*
X39645Y-50299D02*
X41226Y-50299D01*
X42723Y-50299D02*
X42730Y-50299D01*
X39645Y-50379D02*
X41146Y-50379D01*
X39645Y-50459D02*
X41066Y-50459D01*
X39645Y-50539D02*
X40954Y-50539D01*
X39645Y-50619D02*
X40823Y-50619D01*
X39645Y-50699D02*
X40756Y-50699D01*
X39645Y-50779D02*
X40723Y-50779D01*
X39645Y-50859D02*
X40710Y-50859D01*
X44960Y-47232D02*
X44960Y-47232D01*
X44699Y-47312D02*
X44989Y-47312D01*
X44699Y-47392D02*
X45033Y-47392D01*
X44698Y-47472D02*
X45113Y-47472D01*
X44664Y-47552D02*
X45319Y-47552D01*
X44588Y-47632D02*
X45284Y-47632D01*
X44401Y-47712D02*
X45270Y-47712D01*
X44302Y-47792D02*
X45252Y-47792D01*
X44216Y-47872D02*
X45172Y-47872D01*
X44169Y-47952D02*
X45092Y-47952D01*
X44040Y-48032D02*
X45012Y-48032D01*
X43828Y-48112D02*
X44932Y-48112D01*
X43828Y-48192D02*
X44852Y-48192D01*
X43814Y-48272D02*
X44772Y-48272D01*
X43769Y-48352D02*
X44692Y-48352D01*
X43250Y-48432D02*
X43414Y-48432D01*
X43644Y-48432D02*
X44612Y-48432D01*
X42789Y-48512D02*
X44532Y-48512D01*
X42830Y-48592D02*
X44452Y-48592D01*
X42863Y-48672D02*
X44372Y-48672D01*
X41039Y-47570D02*
X41141Y-47570D01*
X40977Y-47650D02*
X41015Y-47650D01*
X40949Y-46141D02*
X40949Y-46141D01*
X40688Y-46221D02*
X40949Y-46221D01*
X40671Y-46301D02*
X40949Y-46301D01*
X40656Y-46381D02*
X40949Y-46381D01*
X40688Y-46461D02*
X40949Y-46461D01*
X40688Y-46541D02*
X40949Y-46541D01*
X40688Y-46621D02*
X40949Y-46621D01*
X40688Y-46701D02*
X40949Y-46701D01*
X40688Y-46781D02*
X40949Y-46781D01*
X40688Y-46861D02*
X40949Y-46861D01*
X40688Y-46941D02*
X40949Y-46941D01*
X46349Y-40879D02*
X46457Y-40879D01*
X46349Y-40959D02*
X46457Y-40959D01*
X46349Y-41039D02*
X46457Y-41039D01*
X46332Y-41119D02*
X46457Y-41119D01*
X46349Y-41199D02*
X46457Y-41199D01*
X46349Y-41279D02*
X46468Y-41279D01*
X46349Y-41359D02*
X46500Y-41359D01*
X46349Y-41439D02*
X46573Y-41439D01*
X46340Y-41519D02*
X46969Y-41519D01*
X46349Y-41599D02*
X46969Y-41599D01*
X46349Y-41679D02*
X46969Y-41679D01*
X46349Y-41759D02*
X46969Y-41759D01*
X46341Y-41839D02*
X46969Y-41839D01*
X46303Y-41919D02*
X46969Y-41919D01*
X45784Y-41999D02*
X45822Y-41999D01*
X46197Y-41999D02*
X46969Y-41999D01*
X45375Y-42079D02*
X46969Y-42079D01*
X45295Y-42159D02*
X46969Y-42159D01*
X45964Y-42239D02*
X46969Y-42239D01*
X46073Y-42319D02*
X46969Y-42319D01*
X46153Y-42399D02*
X46969Y-42399D01*
X46230Y-42479D02*
X46969Y-42479D01*
X46283Y-42559D02*
X46969Y-42559D01*
X46320Y-42639D02*
X46969Y-42639D01*
X46349Y-42719D02*
X46969Y-42719D01*
X46349Y-42799D02*
X46969Y-42799D01*
X46349Y-42879D02*
X46969Y-42879D01*
X46349Y-42959D02*
X46969Y-42959D01*
X46339Y-43039D02*
X46969Y-43039D01*
X46353Y-43119D02*
X46969Y-43119D01*
X46353Y-43199D02*
X46969Y-43199D01*
X46353Y-43279D02*
X46969Y-43279D01*
X46353Y-43359D02*
X46969Y-43359D01*
X46353Y-43439D02*
X46969Y-43439D01*
X46432Y-43519D02*
X46969Y-43519D01*
X46548Y-43599D02*
X46969Y-43599D01*
X46609Y-43679D02*
X46969Y-43679D01*
X46642Y-43759D02*
X46969Y-43759D01*
X45795Y-43839D02*
X45855Y-43839D01*
X46650Y-43839D02*
X46969Y-43839D01*
X45795Y-43919D02*
X45930Y-43919D01*
X46650Y-43919D02*
X46969Y-43919D01*
X45795Y-43999D02*
X45962Y-43999D01*
X46617Y-43999D02*
X46969Y-43999D01*
X45795Y-44079D02*
X46010Y-44079D01*
X46569Y-44079D02*
X46969Y-44079D01*
X45795Y-44159D02*
X46095Y-44159D01*
X46483Y-44159D02*
X46969Y-44159D01*
X45762Y-44239D02*
X46969Y-44239D01*
X45690Y-44319D02*
X46969Y-44319D01*
X45449Y-44399D02*
X46969Y-44399D01*
X45449Y-44479D02*
X46969Y-44479D01*
X45449Y-44559D02*
X46969Y-44559D01*
X45424Y-44639D02*
X45918Y-44639D01*
X46104Y-44639D02*
X46969Y-44639D01*
X46248Y-44719D02*
X46969Y-44719D01*
X46321Y-44799D02*
X46969Y-44799D01*
X46742Y-44879D02*
X46969Y-44879D01*
X46858Y-44959D02*
X46969Y-44959D01*
X46938Y-45039D02*
X46969Y-45039D01*
X44764Y-44589D02*
X44764Y-44589D01*
X44679Y-44669D02*
X44808Y-44669D01*
X40508Y-43755D02*
X40508Y-43755D01*
X40428Y-43835D02*
X40543Y-43835D01*
X40349Y-43915D02*
X40620Y-43915D01*
X40269Y-43995D02*
X40689Y-43995D01*
X40188Y-44075D02*
X40691Y-44075D01*
X40184Y-44155D02*
X40354Y-44155D01*
X41559Y-43589D02*
X41641Y-43589D01*
X41575Y-43669D02*
X41641Y-43669D01*
X44215Y-42849D02*
X44215Y-42849D01*
X43924Y-42929D02*
X44215Y-42929D01*
X43844Y-43009D02*
X44157Y-43009D01*
X43830Y-43089D02*
X44077Y-43089D01*
X43839Y-43169D02*
X43997Y-43169D01*
X43839Y-43249D02*
X43917Y-43249D01*
X40735Y-41246D02*
X40736Y-41246D01*
X40607Y-41326D02*
X40803Y-41326D01*
X40607Y-41406D02*
X40901Y-41406D01*
X41343Y-41406D02*
X41478Y-41406D01*
X40649Y-41486D02*
X41670Y-41486D01*
X40766Y-41566D02*
X41670Y-41566D01*
X40810Y-41646D02*
X41670Y-41646D01*
X40821Y-41726D02*
X41670Y-41726D01*
X40821Y-41806D02*
X41379Y-41806D01*
X40821Y-41886D02*
X41315Y-41886D01*
X40821Y-41966D02*
X41288Y-41966D01*
X40821Y-42046D02*
X41288Y-42046D01*
X40821Y-42126D02*
X41288Y-42126D01*
X40821Y-42206D02*
X41288Y-42206D01*
X41001Y-42286D02*
X41288Y-42286D01*
X41135Y-42366D02*
X41288Y-42366D01*
X41203Y-42446D02*
X41288Y-42446D01*
X41237Y-42526D02*
X41288Y-42526D01*
X41250Y-42606D02*
X41288Y-42606D01*
X41250Y-42686D02*
X41288Y-42686D01*
X41223Y-42766D02*
X41288Y-42766D01*
X41182Y-42846D02*
X41292Y-42846D01*
X45215Y-39645D02*
X46457Y-39645D01*
X45239Y-39725D02*
X46064Y-39725D01*
X45243Y-39805D02*
X45998Y-39805D01*
X45250Y-39885D02*
X45969Y-39885D01*
X45250Y-39965D02*
X45969Y-39965D01*
X45250Y-40045D02*
X45969Y-40045D01*
X45250Y-40125D02*
X45969Y-40125D01*
X45250Y-40205D02*
X45862Y-40205D01*
X45236Y-40285D02*
X45733Y-40285D01*
X45215Y-40365D02*
X45686Y-40365D01*
X45162Y-40445D02*
X45671Y-40445D01*
X45154Y-40525D02*
X45671Y-40525D01*
X45154Y-40605D02*
X45258Y-40605D01*
X45124Y-40685D02*
X45185Y-40685D01*
X45057Y-40765D02*
X45151Y-40765D01*
X44949Y-40845D02*
X45151Y-40845D01*
X44949Y-40925D02*
X45131Y-40925D01*
X44949Y-41005D02*
X45057Y-41005D01*
X44940Y-41085D02*
X45003Y-41085D01*
X44902Y-41165D02*
X44987Y-41165D01*
X44795Y-41245D02*
X44856Y-41245D01*
X46969Y-45086D02*
X46969Y-41496D01*
X46732Y-41496D01*
X46627Y-41475D01*
X46538Y-41415D01*
X46478Y-41326D01*
X46457Y-41221D01*
X46457Y-41220D01*
X46457Y-41220D01*
X46457Y-40879D01*
X46349Y-40879D01*
X46349Y-41060D01*
X46328Y-41110D01*
X46349Y-41161D01*
X46349Y-41440D01*
X46328Y-41490D01*
X46349Y-41541D01*
X46349Y-41820D01*
X46311Y-41911D01*
X46241Y-41981D01*
X46149Y-42019D01*
X45870Y-42019D01*
X45803Y-41991D01*
X45749Y-42014D01*
X45440Y-42014D01*
X45244Y-42210D01*
X45840Y-42210D01*
X45955Y-42233D01*
X46052Y-42298D01*
X46222Y-42468D01*
X46287Y-42565D01*
X46294Y-42602D01*
X46311Y-42619D01*
X46349Y-42711D01*
X46349Y-42990D01*
X46333Y-43026D01*
X46354Y-43076D01*
X46353Y-43490D01*
X46362Y-43490D01*
X46494Y-43545D01*
X46595Y-43647D01*
X46650Y-43779D01*
X46650Y-43922D01*
X46595Y-44054D01*
X46493Y-44155D01*
X46361Y-44210D01*
X46218Y-44210D01*
X46086Y-44155D01*
X45985Y-44053D01*
X45930Y-43921D01*
X45930Y-43914D01*
X45840Y-43824D01*
X45805Y-43824D01*
X45795Y-43819D01*
X45795Y-44161D01*
X45757Y-44252D01*
X45687Y-44322D01*
X45595Y-44360D01*
X45449Y-44360D01*
X45449Y-44580D01*
X45411Y-44671D01*
X45379Y-44702D01*
X45500Y-44702D01*
X45789Y-44702D01*
X45807Y-44685D01*
X45939Y-44630D01*
X46082Y-44630D01*
X46214Y-44685D01*
X46315Y-44787D01*
X46338Y-44842D01*
X46388Y-44822D01*
X46604Y-44822D01*
X46804Y-44905D01*
X46957Y-45058D01*
X46969Y-45086D01*
X46221Y-48265D02*
X46221Y-48265D01*
X46146Y-48345D02*
X46238Y-48345D01*
X46244Y-48425D02*
X46291Y-48425D01*
X46280Y-48505D02*
X46338Y-48505D01*
X46286Y-48585D02*
X46338Y-48585D01*
X46286Y-48665D02*
X46338Y-48665D01*
X46286Y-48745D02*
X46338Y-48745D01*
X46286Y-48825D02*
X46338Y-48825D01*
X46282Y-48905D02*
X46341Y-48905D01*
X46248Y-48985D02*
X46374Y-48985D01*
X46158Y-49065D02*
X46460Y-49065D01*
X45788Y-49145D02*
X46969Y-49145D01*
X45755Y-49225D02*
X46969Y-49225D01*
X45715Y-49305D02*
X46969Y-49305D01*
X45771Y-49385D02*
X46969Y-49385D01*
X45851Y-49465D02*
X46969Y-49465D01*
X45931Y-49545D02*
X46969Y-49545D01*
X46007Y-49625D02*
X46969Y-49625D01*
X46116Y-49705D02*
X46969Y-49705D01*
X46180Y-49785D02*
X46969Y-49785D01*
X46206Y-49865D02*
X46969Y-49865D01*
X46206Y-49945D02*
X46969Y-49945D01*
X46206Y-50025D02*
X46969Y-50025D01*
X46206Y-50105D02*
X46969Y-50105D01*
X46206Y-50185D02*
X46969Y-50185D01*
X46204Y-50265D02*
X46969Y-50265D01*
X46171Y-50345D02*
X46969Y-50345D01*
X46264Y-50425D02*
X46969Y-50425D01*
X46414Y-50505D02*
X46969Y-50505D01*
X46489Y-50585D02*
X46969Y-50585D01*
X46522Y-50665D02*
X46969Y-50665D01*
X46540Y-50745D02*
X46969Y-50745D01*
X46540Y-50825D02*
X46969Y-50825D01*
X46517Y-50905D02*
X46969Y-50905D01*
X39645Y-47899D02*
X39902Y-47899D01*
X39645Y-47979D02*
X39965Y-47979D01*
X39645Y-48059D02*
X40279Y-48059D01*
X39645Y-48139D02*
X40279Y-48139D01*
X39645Y-48219D02*
X40279Y-48219D01*
X39645Y-48299D02*
X40303Y-48299D01*
X39645Y-48379D02*
X40365Y-48379D01*
X39645Y-48459D02*
X40396Y-48459D01*
X39645Y-48539D02*
X40396Y-48539D01*
X39645Y-48619D02*
X40396Y-48619D01*
X39645Y-48699D02*
X40396Y-48699D01*
X39645Y-48779D02*
X40426Y-48779D01*
X39645Y-48859D02*
X40497Y-48859D01*
X39645Y-48939D02*
X41333Y-48939D01*
X39645Y-49019D02*
X41366Y-49019D01*
X39645Y-49099D02*
X41420Y-49099D01*
X39645Y-49179D02*
X41519Y-49179D01*
X39645Y-49259D02*
X41576Y-49259D01*
X44756Y-49259D02*
X44764Y-49259D01*
X39645Y-49339D02*
X41543Y-49339D01*
X44661Y-49339D02*
X44760Y-49339D01*
X39645Y-49419D02*
X41530Y-49419D01*
X43928Y-49419D02*
X44763Y-49419D01*
X39645Y-49499D02*
X41530Y-49499D01*
X43895Y-49499D02*
X44796Y-49499D01*
X39645Y-49579D02*
X41558Y-49579D01*
X43829Y-49579D02*
X44850Y-49579D01*
X39645Y-49659D02*
X41600Y-49659D01*
X43244Y-49659D02*
X43457Y-49659D01*
X43701Y-49659D02*
X44950Y-49659D01*
X39645Y-49739D02*
X41680Y-49739D01*
X43211Y-49739D02*
X44950Y-49739D01*
X39645Y-49819D02*
X41872Y-49819D01*
X43139Y-49819D02*
X44907Y-49819D01*
X39645Y-49899D02*
X41972Y-49899D01*
X42997Y-49899D02*
X44894Y-49899D01*
X39645Y-49979D02*
X44894Y-49979D01*
X39645Y-50059D02*
X42024Y-50059D01*
X42258Y-50059D02*
X42883Y-50059D01*
X43298Y-50059D02*
X44894Y-50059D01*
X39645Y-50139D02*
X41411Y-50139D01*
X42539Y-50139D02*
X42803Y-50139D01*
X39645Y-50219D02*
X41306Y-50219D01*
X42643Y-50219D02*
X42759Y-50219D01*
X39645Y-50299D02*
X41226Y-50299D01*
X42723Y-50299D02*
X42730Y-50299D01*
X39645Y-50379D02*
X41146Y-50379D01*
X39645Y-50459D02*
X41066Y-50459D01*
X39645Y-50539D02*
X40954Y-50539D01*
X39645Y-50619D02*
X40823Y-50619D01*
X39645Y-50699D02*
X40756Y-50699D01*
X39645Y-50779D02*
X40723Y-50779D01*
X39645Y-50859D02*
X40710Y-50859D01*
X44960Y-47232D02*
X44960Y-47232D01*
X44699Y-47312D02*
X44989Y-47312D01*
X44699Y-47392D02*
X45033Y-47392D01*
X44698Y-47472D02*
X45113Y-47472D01*
X44664Y-47552D02*
X45319Y-47552D01*
X44588Y-47632D02*
X45284Y-47632D01*
X44401Y-47712D02*
X45270Y-47712D01*
X44302Y-47792D02*
X45252Y-47792D01*
X44216Y-47872D02*
X45172Y-47872D01*
X44169Y-47952D02*
X45092Y-47952D01*
X44040Y-48032D02*
X45012Y-48032D01*
X43828Y-48112D02*
X44932Y-48112D01*
X43828Y-48192D02*
X44852Y-48192D01*
X43814Y-48272D02*
X44772Y-48272D01*
X43769Y-48352D02*
X44692Y-48352D01*
X43250Y-48432D02*
X43414Y-48432D01*
X43644Y-48432D02*
X44612Y-48432D01*
X42789Y-48512D02*
X44532Y-48512D01*
X42830Y-48592D02*
X44452Y-48592D01*
X42863Y-48672D02*
X44372Y-48672D01*
X41039Y-47570D02*
X41141Y-47570D01*
X40977Y-47650D02*
X41015Y-47650D01*
X40949Y-46141D02*
X40949Y-46141D01*
X40688Y-46221D02*
X40949Y-46221D01*
X40671Y-46301D02*
X40949Y-46301D01*
X40656Y-46381D02*
X40949Y-46381D01*
X40688Y-46461D02*
X40949Y-46461D01*
X40688Y-46541D02*
X40949Y-46541D01*
X40688Y-46621D02*
X40949Y-46621D01*
X40688Y-46701D02*
X40949Y-46701D01*
X40688Y-46781D02*
X40949Y-46781D01*
X40688Y-46861D02*
X40949Y-46861D01*
X40688Y-46941D02*
X40949Y-46941D01*
X46349Y-40879D02*
X46457Y-40879D01*
X46349Y-40959D02*
X46457Y-40959D01*
X46349Y-41039D02*
X46457Y-41039D01*
X46332Y-41119D02*
X46457Y-41119D01*
X46349Y-41199D02*
X46457Y-41199D01*
X46349Y-41279D02*
X46468Y-41279D01*
X46349Y-41359D02*
X46500Y-41359D01*
X46349Y-41439D02*
X46573Y-41439D01*
X46340Y-41519D02*
X46969Y-41519D01*
X46349Y-41599D02*
X46969Y-41599D01*
X46349Y-41679D02*
X46969Y-41679D01*
X46349Y-41759D02*
X46969Y-41759D01*
X46341Y-41839D02*
X46969Y-41839D01*
X46303Y-41919D02*
X46969Y-41919D01*
X45784Y-41999D02*
X45822Y-41999D01*
X46197Y-41999D02*
X46969Y-41999D01*
X45375Y-42079D02*
X46969Y-42079D01*
X45295Y-42159D02*
X46969Y-42159D01*
X45964Y-42239D02*
X46969Y-42239D01*
X46073Y-42319D02*
X46969Y-42319D01*
X46153Y-42399D02*
X46969Y-42399D01*
X46230Y-42479D02*
X46969Y-42479D01*
X46283Y-42559D02*
X46969Y-42559D01*
X46320Y-42639D02*
X46969Y-42639D01*
X46349Y-42719D02*
X46969Y-42719D01*
X46349Y-42799D02*
X46969Y-42799D01*
X46349Y-42879D02*
X46969Y-42879D01*
X46349Y-42959D02*
X46969Y-42959D01*
X46339Y-43039D02*
X46969Y-43039D01*
X46353Y-43119D02*
X46969Y-43119D01*
X46353Y-43199D02*
X46969Y-43199D01*
X46353Y-43279D02*
X46969Y-43279D01*
X46353Y-43359D02*
X46969Y-43359D01*
X46353Y-43439D02*
X46969Y-43439D01*
X46432Y-43519D02*
X46969Y-43519D01*
X46548Y-43599D02*
X46969Y-43599D01*
X46609Y-43679D02*
X46969Y-43679D01*
X46642Y-43759D02*
X46969Y-43759D01*
X45795Y-43839D02*
X45855Y-43839D01*
X46650Y-43839D02*
X46969Y-43839D01*
X45795Y-43919D02*
X45930Y-43919D01*
X46650Y-43919D02*
X46969Y-43919D01*
X45795Y-43999D02*
X45962Y-43999D01*
X46617Y-43999D02*
X46969Y-43999D01*
X45795Y-44079D02*
X46010Y-44079D01*
X46569Y-44079D02*
X46969Y-44079D01*
X45795Y-44159D02*
X46095Y-44159D01*
X46483Y-44159D02*
X46969Y-44159D01*
X45762Y-44239D02*
X46969Y-44239D01*
X45690Y-44319D02*
X46969Y-44319D01*
X45449Y-44399D02*
X46969Y-44399D01*
X45449Y-44479D02*
X46969Y-44479D01*
X45449Y-44559D02*
X46969Y-44559D01*
X45424Y-44639D02*
X45918Y-44639D01*
X46104Y-44639D02*
X46969Y-44639D01*
X46248Y-44719D02*
X46969Y-44719D01*
X46321Y-44799D02*
X46969Y-44799D01*
X46742Y-44879D02*
X46969Y-44879D01*
X46858Y-44959D02*
X46969Y-44959D01*
X46938Y-45039D02*
X46969Y-45039D01*
X44764Y-44589D02*
X44764Y-44589D01*
X44679Y-44669D02*
X44808Y-44669D01*
X40508Y-43755D02*
X40508Y-43755D01*
X40428Y-43835D02*
X40543Y-43835D01*
X40349Y-43915D02*
X40620Y-43915D01*
X40269Y-43995D02*
X40689Y-43995D01*
X40188Y-44075D02*
X40691Y-44075D01*
X40184Y-44155D02*
X40354Y-44155D01*
X41559Y-43589D02*
X41641Y-43589D01*
X41575Y-43669D02*
X41641Y-43669D01*
X44215Y-42849D02*
X44215Y-42849D01*
X43924Y-42929D02*
X44215Y-42929D01*
X43844Y-43009D02*
X44157Y-43009D01*
X43830Y-43089D02*
X44077Y-43089D01*
X43839Y-43169D02*
X43997Y-43169D01*
X43839Y-43249D02*
X43917Y-43249D01*
X40735Y-41246D02*
X40736Y-41246D01*
X40607Y-41326D02*
X40803Y-41326D01*
X40607Y-41406D02*
X40901Y-41406D01*
X41343Y-41406D02*
X41478Y-41406D01*
X40649Y-41486D02*
X41670Y-41486D01*
X40766Y-41566D02*
X41670Y-41566D01*
X40810Y-41646D02*
X41670Y-41646D01*
X40821Y-41726D02*
X41670Y-41726D01*
X40821Y-41806D02*
X41379Y-41806D01*
X40821Y-41886D02*
X41315Y-41886D01*
X40821Y-41966D02*
X41288Y-41966D01*
X40821Y-42046D02*
X41288Y-42046D01*
X40821Y-42126D02*
X41288Y-42126D01*
X40821Y-42206D02*
X41288Y-42206D01*
X41001Y-42286D02*
X41288Y-42286D01*
X41135Y-42366D02*
X41288Y-42366D01*
X41203Y-42446D02*
X41288Y-42446D01*
X41237Y-42526D02*
X41288Y-42526D01*
X41250Y-42606D02*
X41288Y-42606D01*
X41250Y-42686D02*
X41288Y-42686D01*
X41223Y-42766D02*
X41288Y-42766D01*
X41182Y-42846D02*
X41292Y-42846D01*
X45215Y-39645D02*
X46457Y-39645D01*
X45239Y-39725D02*
X46064Y-39725D01*
X45243Y-39805D02*
X45998Y-39805D01*
X45250Y-39885D02*
X45969Y-39885D01*
X45250Y-39965D02*
X45969Y-39965D01*
X45250Y-40045D02*
X45969Y-40045D01*
X45250Y-40125D02*
X45969Y-40125D01*
X45250Y-40205D02*
X45862Y-40205D01*
X45236Y-40285D02*
X45733Y-40285D01*
X45215Y-40365D02*
X45686Y-40365D01*
X45162Y-40445D02*
X45671Y-40445D01*
X45154Y-40525D02*
X45671Y-40525D01*
X45154Y-40605D02*
X45258Y-40605D01*
X45124Y-40685D02*
X45185Y-40685D01*
X45057Y-40765D02*
X45151Y-40765D01*
X44949Y-40845D02*
X45151Y-40845D01*
X44949Y-40925D02*
X45131Y-40925D01*
X44949Y-41005D02*
X45057Y-41005D01*
X44940Y-41085D02*
X45003Y-41085D01*
X44902Y-41165D02*
X44987Y-41165D01*
X44795Y-41245D02*
X44856Y-41245D01*
X44840Y-44702D02*
X44809Y-44671D01*
X44783Y-44609D01*
X44764Y-44589D01*
X44653Y-44590D01*
X44679Y-44651D01*
X44679Y-44702D01*
X44840Y-44702D01*
X46221Y-48265D02*
X46221Y-48265D01*
X46146Y-48345D02*
X46238Y-48345D01*
X46244Y-48425D02*
X46291Y-48425D01*
X46280Y-48505D02*
X46338Y-48505D01*
X46286Y-48585D02*
X46338Y-48585D01*
X46286Y-48665D02*
X46338Y-48665D01*
X46286Y-48745D02*
X46338Y-48745D01*
X46286Y-48825D02*
X46338Y-48825D01*
X46282Y-48905D02*
X46341Y-48905D01*
X46248Y-48985D02*
X46374Y-48985D01*
X46158Y-49065D02*
X46460Y-49065D01*
X45788Y-49145D02*
X46969Y-49145D01*
X45755Y-49225D02*
X46969Y-49225D01*
X45715Y-49305D02*
X46969Y-49305D01*
X45771Y-49385D02*
X46969Y-49385D01*
X45851Y-49465D02*
X46969Y-49465D01*
X45931Y-49545D02*
X46969Y-49545D01*
X46007Y-49625D02*
X46969Y-49625D01*
X46116Y-49705D02*
X46969Y-49705D01*
X46180Y-49785D02*
X46969Y-49785D01*
X46206Y-49865D02*
X46969Y-49865D01*
X46206Y-49945D02*
X46969Y-49945D01*
X46206Y-50025D02*
X46969Y-50025D01*
X46206Y-50105D02*
X46969Y-50105D01*
X46206Y-50185D02*
X46969Y-50185D01*
X46204Y-50265D02*
X46969Y-50265D01*
X46171Y-50345D02*
X46969Y-50345D01*
X46264Y-50425D02*
X46969Y-50425D01*
X46414Y-50505D02*
X46969Y-50505D01*
X46489Y-50585D02*
X46969Y-50585D01*
X46522Y-50665D02*
X46969Y-50665D01*
X46540Y-50745D02*
X46969Y-50745D01*
X46540Y-50825D02*
X46969Y-50825D01*
X46517Y-50905D02*
X46969Y-50905D01*
X39645Y-47899D02*
X39902Y-47899D01*
X39645Y-47979D02*
X39965Y-47979D01*
X39645Y-48059D02*
X40279Y-48059D01*
X39645Y-48139D02*
X40279Y-48139D01*
X39645Y-48219D02*
X40279Y-48219D01*
X39645Y-48299D02*
X40303Y-48299D01*
X39645Y-48379D02*
X40365Y-48379D01*
X39645Y-48459D02*
X40396Y-48459D01*
X39645Y-48539D02*
X40396Y-48539D01*
X39645Y-48619D02*
X40396Y-48619D01*
X39645Y-48699D02*
X40396Y-48699D01*
X39645Y-48779D02*
X40426Y-48779D01*
X39645Y-48859D02*
X40497Y-48859D01*
X39645Y-48939D02*
X41333Y-48939D01*
X39645Y-49019D02*
X41366Y-49019D01*
X39645Y-49099D02*
X41420Y-49099D01*
X39645Y-49179D02*
X41519Y-49179D01*
X39645Y-49259D02*
X41576Y-49259D01*
X44756Y-49259D02*
X44764Y-49259D01*
X39645Y-49339D02*
X41543Y-49339D01*
X44661Y-49339D02*
X44760Y-49339D01*
X39645Y-49419D02*
X41530Y-49419D01*
X43928Y-49419D02*
X44763Y-49419D01*
X39645Y-49499D02*
X41530Y-49499D01*
X43895Y-49499D02*
X44796Y-49499D01*
X39645Y-49579D02*
X41558Y-49579D01*
X43829Y-49579D02*
X44850Y-49579D01*
X39645Y-49659D02*
X41600Y-49659D01*
X43244Y-49659D02*
X43457Y-49659D01*
X43701Y-49659D02*
X44950Y-49659D01*
X39645Y-49739D02*
X41680Y-49739D01*
X43211Y-49739D02*
X44950Y-49739D01*
X39645Y-49819D02*
X41872Y-49819D01*
X43139Y-49819D02*
X44907Y-49819D01*
X39645Y-49899D02*
X41972Y-49899D01*
X42997Y-49899D02*
X44894Y-49899D01*
X39645Y-49979D02*
X44894Y-49979D01*
X39645Y-50059D02*
X42024Y-50059D01*
X42258Y-50059D02*
X42883Y-50059D01*
X43298Y-50059D02*
X44894Y-50059D01*
X39645Y-50139D02*
X41411Y-50139D01*
X42539Y-50139D02*
X42803Y-50139D01*
X39645Y-50219D02*
X41306Y-50219D01*
X42643Y-50219D02*
X42759Y-50219D01*
X39645Y-50299D02*
X41226Y-50299D01*
X42723Y-50299D02*
X42730Y-50299D01*
X39645Y-50379D02*
X41146Y-50379D01*
X39645Y-50459D02*
X41066Y-50459D01*
X39645Y-50539D02*
X40954Y-50539D01*
X39645Y-50619D02*
X40823Y-50619D01*
X39645Y-50699D02*
X40756Y-50699D01*
X39645Y-50779D02*
X40723Y-50779D01*
X39645Y-50859D02*
X40710Y-50859D01*
X44960Y-47232D02*
X44960Y-47232D01*
X44699Y-47312D02*
X44989Y-47312D01*
X44699Y-47392D02*
X45033Y-47392D01*
X44698Y-47472D02*
X45113Y-47472D01*
X44664Y-47552D02*
X45319Y-47552D01*
X44588Y-47632D02*
X45284Y-47632D01*
X44401Y-47712D02*
X45270Y-47712D01*
X44302Y-47792D02*
X45252Y-47792D01*
X44216Y-47872D02*
X45172Y-47872D01*
X44169Y-47952D02*
X45092Y-47952D01*
X44040Y-48032D02*
X45012Y-48032D01*
X43828Y-48112D02*
X44932Y-48112D01*
X43828Y-48192D02*
X44852Y-48192D01*
X43814Y-48272D02*
X44772Y-48272D01*
X43769Y-48352D02*
X44692Y-48352D01*
X43250Y-48432D02*
X43414Y-48432D01*
X43644Y-48432D02*
X44612Y-48432D01*
X42789Y-48512D02*
X44532Y-48512D01*
X42830Y-48592D02*
X44452Y-48592D01*
X42863Y-48672D02*
X44372Y-48672D01*
X41039Y-47570D02*
X41141Y-47570D01*
X40977Y-47650D02*
X41015Y-47650D01*
X40949Y-46141D02*
X40949Y-46141D01*
X40688Y-46221D02*
X40949Y-46221D01*
X40671Y-46301D02*
X40949Y-46301D01*
X40656Y-46381D02*
X40949Y-46381D01*
X40688Y-46461D02*
X40949Y-46461D01*
X40688Y-46541D02*
X40949Y-46541D01*
X40688Y-46621D02*
X40949Y-46621D01*
X40688Y-46701D02*
X40949Y-46701D01*
X40688Y-46781D02*
X40949Y-46781D01*
X40688Y-46861D02*
X40949Y-46861D01*
X40688Y-46941D02*
X40949Y-46941D01*
X46349Y-40879D02*
X46457Y-40879D01*
X46349Y-40959D02*
X46457Y-40959D01*
X46349Y-41039D02*
X46457Y-41039D01*
X46332Y-41119D02*
X46457Y-41119D01*
X46349Y-41199D02*
X46457Y-41199D01*
X46349Y-41279D02*
X46468Y-41279D01*
X46349Y-41359D02*
X46500Y-41359D01*
X46349Y-41439D02*
X46573Y-41439D01*
X46340Y-41519D02*
X46969Y-41519D01*
X46349Y-41599D02*
X46969Y-41599D01*
X46349Y-41679D02*
X46969Y-41679D01*
X46349Y-41759D02*
X46969Y-41759D01*
X46341Y-41839D02*
X46969Y-41839D01*
X46303Y-41919D02*
X46969Y-41919D01*
X45784Y-41999D02*
X45822Y-41999D01*
X46197Y-41999D02*
X46969Y-41999D01*
X45375Y-42079D02*
X46969Y-42079D01*
X45295Y-42159D02*
X46969Y-42159D01*
X45964Y-42239D02*
X46969Y-42239D01*
X46073Y-42319D02*
X46969Y-42319D01*
X46153Y-42399D02*
X46969Y-42399D01*
X46230Y-42479D02*
X46969Y-42479D01*
X46283Y-42559D02*
X46969Y-42559D01*
X46320Y-42639D02*
X46969Y-42639D01*
X46349Y-42719D02*
X46969Y-42719D01*
X46349Y-42799D02*
X46969Y-42799D01*
X46349Y-42879D02*
X46969Y-42879D01*
X46349Y-42959D02*
X46969Y-42959D01*
X46339Y-43039D02*
X46969Y-43039D01*
X46353Y-43119D02*
X46969Y-43119D01*
X46353Y-43199D02*
X46969Y-43199D01*
X46353Y-43279D02*
X46969Y-43279D01*
X46353Y-43359D02*
X46969Y-43359D01*
X46353Y-43439D02*
X46969Y-43439D01*
X46432Y-43519D02*
X46969Y-43519D01*
X46548Y-43599D02*
X46969Y-43599D01*
X46609Y-43679D02*
X46969Y-43679D01*
X46642Y-43759D02*
X46969Y-43759D01*
X45795Y-43839D02*
X45855Y-43839D01*
X46650Y-43839D02*
X46969Y-43839D01*
X45795Y-43919D02*
X45930Y-43919D01*
X46650Y-43919D02*
X46969Y-43919D01*
X45795Y-43999D02*
X45962Y-43999D01*
X46617Y-43999D02*
X46969Y-43999D01*
X45795Y-44079D02*
X46010Y-44079D01*
X46569Y-44079D02*
X46969Y-44079D01*
X45795Y-44159D02*
X46095Y-44159D01*
X46483Y-44159D02*
X46969Y-44159D01*
X45762Y-44239D02*
X46969Y-44239D01*
X45690Y-44319D02*
X46969Y-44319D01*
X45449Y-44399D02*
X46969Y-44399D01*
X45449Y-44479D02*
X46969Y-44479D01*
X45449Y-44559D02*
X46969Y-44559D01*
X45424Y-44639D02*
X45918Y-44639D01*
X46104Y-44639D02*
X46969Y-44639D01*
X46248Y-44719D02*
X46969Y-44719D01*
X46321Y-44799D02*
X46969Y-44799D01*
X46742Y-44879D02*
X46969Y-44879D01*
X46858Y-44959D02*
X46969Y-44959D01*
X46938Y-45039D02*
X46969Y-45039D01*
X44764Y-44589D02*
X44764Y-44589D01*
X44679Y-44669D02*
X44808Y-44669D01*
X40508Y-43755D02*
X40508Y-43755D01*
X40428Y-43835D02*
X40543Y-43835D01*
X40349Y-43915D02*
X40620Y-43915D01*
X40269Y-43995D02*
X40689Y-43995D01*
X40188Y-44075D02*
X40691Y-44075D01*
X40184Y-44155D02*
X40354Y-44155D01*
X41559Y-43589D02*
X41641Y-43589D01*
X41575Y-43669D02*
X41641Y-43669D01*
X44215Y-42849D02*
X44215Y-42849D01*
X43924Y-42929D02*
X44215Y-42929D01*
X43844Y-43009D02*
X44157Y-43009D01*
X43830Y-43089D02*
X44077Y-43089D01*
X43839Y-43169D02*
X43997Y-43169D01*
X43839Y-43249D02*
X43917Y-43249D01*
X40735Y-41246D02*
X40736Y-41246D01*
X40607Y-41326D02*
X40803Y-41326D01*
X40607Y-41406D02*
X40901Y-41406D01*
X41343Y-41406D02*
X41478Y-41406D01*
X40649Y-41486D02*
X41670Y-41486D01*
X40766Y-41566D02*
X41670Y-41566D01*
X40810Y-41646D02*
X41670Y-41646D01*
X40821Y-41726D02*
X41670Y-41726D01*
X40821Y-41806D02*
X41379Y-41806D01*
X40821Y-41886D02*
X41315Y-41886D01*
X40821Y-41966D02*
X41288Y-41966D01*
X40821Y-42046D02*
X41288Y-42046D01*
X40821Y-42126D02*
X41288Y-42126D01*
X40821Y-42206D02*
X41288Y-42206D01*
X41001Y-42286D02*
X41288Y-42286D01*
X41135Y-42366D02*
X41288Y-42366D01*
X41203Y-42446D02*
X41288Y-42446D01*
X41237Y-42526D02*
X41288Y-42526D01*
X41250Y-42606D02*
X41288Y-42606D01*
X41250Y-42686D02*
X41288Y-42686D01*
X41223Y-42766D02*
X41288Y-42766D01*
X41182Y-42846D02*
X41292Y-42846D01*
X45215Y-39645D02*
X46457Y-39645D01*
X45239Y-39725D02*
X46064Y-39725D01*
X45243Y-39805D02*
X45998Y-39805D01*
X45250Y-39885D02*
X45969Y-39885D01*
X45250Y-39965D02*
X45969Y-39965D01*
X45250Y-40045D02*
X45969Y-40045D01*
X45250Y-40125D02*
X45969Y-40125D01*
X45250Y-40205D02*
X45862Y-40205D01*
X45236Y-40285D02*
X45733Y-40285D01*
X45215Y-40365D02*
X45686Y-40365D01*
X45162Y-40445D02*
X45671Y-40445D01*
X45154Y-40525D02*
X45671Y-40525D01*
X45154Y-40605D02*
X45258Y-40605D01*
X45124Y-40685D02*
X45185Y-40685D01*
X45057Y-40765D02*
X45151Y-40765D01*
X44949Y-40845D02*
X45151Y-40845D01*
X44949Y-40925D02*
X45131Y-40925D01*
X44949Y-41005D02*
X45057Y-41005D01*
X44940Y-41085D02*
X45003Y-41085D01*
X44902Y-41165D02*
X44987Y-41165D01*
X44795Y-41245D02*
X44856Y-41245D01*
X40309Y-44210D02*
X40317Y-44192D01*
X40387Y-44122D01*
X40479Y-44084D01*
X40676Y-44084D01*
X40691Y-44090D01*
X40691Y-43997D01*
X40642Y-43948D01*
X40611Y-43901D01*
X40609Y-43901D01*
X40539Y-43831D01*
X40508Y-43755D01*
X40383Y-43880D01*
X40382Y-43883D01*
X40143Y-44120D01*
X40154Y-44125D01*
X40238Y-44210D01*
X40280Y-44210D01*
X40309Y-44210D01*
X46221Y-48265D02*
X46221Y-48265D01*
X46146Y-48345D02*
X46238Y-48345D01*
X46244Y-48425D02*
X46291Y-48425D01*
X46280Y-48505D02*
X46338Y-48505D01*
X46286Y-48585D02*
X46338Y-48585D01*
X46286Y-48665D02*
X46338Y-48665D01*
X46286Y-48745D02*
X46338Y-48745D01*
X46286Y-48825D02*
X46338Y-48825D01*
X46282Y-48905D02*
X46341Y-48905D01*
X46248Y-48985D02*
X46374Y-48985D01*
X46158Y-49065D02*
X46460Y-49065D01*
X45788Y-49145D02*
X46969Y-49145D01*
X45755Y-49225D02*
X46969Y-49225D01*
X45715Y-49305D02*
X46969Y-49305D01*
X45771Y-49385D02*
X46969Y-49385D01*
X45851Y-49465D02*
X46969Y-49465D01*
X45931Y-49545D02*
X46969Y-49545D01*
X46007Y-49625D02*
X46969Y-49625D01*
X46116Y-49705D02*
X46969Y-49705D01*
X46180Y-49785D02*
X46969Y-49785D01*
X46206Y-49865D02*
X46969Y-49865D01*
X46206Y-49945D02*
X46969Y-49945D01*
X46206Y-50025D02*
X46969Y-50025D01*
X46206Y-50105D02*
X46969Y-50105D01*
X46206Y-50185D02*
X46969Y-50185D01*
X46204Y-50265D02*
X46969Y-50265D01*
X46171Y-50345D02*
X46969Y-50345D01*
X46264Y-50425D02*
X46969Y-50425D01*
X46414Y-50505D02*
X46969Y-50505D01*
X46489Y-50585D02*
X46969Y-50585D01*
X46522Y-50665D02*
X46969Y-50665D01*
X46540Y-50745D02*
X46969Y-50745D01*
X46540Y-50825D02*
X46969Y-50825D01*
X46517Y-50905D02*
X46969Y-50905D01*
X39645Y-47899D02*
X39902Y-47899D01*
X39645Y-47979D02*
X39965Y-47979D01*
X39645Y-48059D02*
X40279Y-48059D01*
X39645Y-48139D02*
X40279Y-48139D01*
X39645Y-48219D02*
X40279Y-48219D01*
X39645Y-48299D02*
X40303Y-48299D01*
X39645Y-48379D02*
X40365Y-48379D01*
X39645Y-48459D02*
X40396Y-48459D01*
X39645Y-48539D02*
X40396Y-48539D01*
X39645Y-48619D02*
X40396Y-48619D01*
X39645Y-48699D02*
X40396Y-48699D01*
X39645Y-48779D02*
X40426Y-48779D01*
X39645Y-48859D02*
X40497Y-48859D01*
X39645Y-48939D02*
X41333Y-48939D01*
X39645Y-49019D02*
X41366Y-49019D01*
X39645Y-49099D02*
X41420Y-49099D01*
X39645Y-49179D02*
X41519Y-49179D01*
X39645Y-49259D02*
X41576Y-49259D01*
X44756Y-49259D02*
X44764Y-49259D01*
X39645Y-49339D02*
X41543Y-49339D01*
X44661Y-49339D02*
X44760Y-49339D01*
X39645Y-49419D02*
X41530Y-49419D01*
X43928Y-49419D02*
X44763Y-49419D01*
X39645Y-49499D02*
X41530Y-49499D01*
X43895Y-49499D02*
X44796Y-49499D01*
X39645Y-49579D02*
X41558Y-49579D01*
X43829Y-49579D02*
X44850Y-49579D01*
X39645Y-49659D02*
X41600Y-49659D01*
X43244Y-49659D02*
X43457Y-49659D01*
X43701Y-49659D02*
X44950Y-49659D01*
X39645Y-49739D02*
X41680Y-49739D01*
X43211Y-49739D02*
X44950Y-49739D01*
X39645Y-49819D02*
X41872Y-49819D01*
X43139Y-49819D02*
X44907Y-49819D01*
X39645Y-49899D02*
X41972Y-49899D01*
X42997Y-49899D02*
X44894Y-49899D01*
X39645Y-49979D02*
X44894Y-49979D01*
X39645Y-50059D02*
X42024Y-50059D01*
X42258Y-50059D02*
X42883Y-50059D01*
X43298Y-50059D02*
X44894Y-50059D01*
X39645Y-50139D02*
X41411Y-50139D01*
X42539Y-50139D02*
X42803Y-50139D01*
X39645Y-50219D02*
X41306Y-50219D01*
X42643Y-50219D02*
X42759Y-50219D01*
X39645Y-50299D02*
X41226Y-50299D01*
X42723Y-50299D02*
X42730Y-50299D01*
X39645Y-50379D02*
X41146Y-50379D01*
X39645Y-50459D02*
X41066Y-50459D01*
X39645Y-50539D02*
X40954Y-50539D01*
X39645Y-50619D02*
X40823Y-50619D01*
X39645Y-50699D02*
X40756Y-50699D01*
X39645Y-50779D02*
X40723Y-50779D01*
X39645Y-50859D02*
X40710Y-50859D01*
X44960Y-47232D02*
X44960Y-47232D01*
X44699Y-47312D02*
X44989Y-47312D01*
X44699Y-47392D02*
X45033Y-47392D01*
X44698Y-47472D02*
X45113Y-47472D01*
X44664Y-47552D02*
X45319Y-47552D01*
X44588Y-47632D02*
X45284Y-47632D01*
X44401Y-47712D02*
X45270Y-47712D01*
X44302Y-47792D02*
X45252Y-47792D01*
X44216Y-47872D02*
X45172Y-47872D01*
X44169Y-47952D02*
X45092Y-47952D01*
X44040Y-48032D02*
X45012Y-48032D01*
X43828Y-48112D02*
X44932Y-48112D01*
X43828Y-48192D02*
X44852Y-48192D01*
X43814Y-48272D02*
X44772Y-48272D01*
X43769Y-48352D02*
X44692Y-48352D01*
X43250Y-48432D02*
X43414Y-48432D01*
X43644Y-48432D02*
X44612Y-48432D01*
X42789Y-48512D02*
X44532Y-48512D01*
X42830Y-48592D02*
X44452Y-48592D01*
X42863Y-48672D02*
X44372Y-48672D01*
X41039Y-47570D02*
X41141Y-47570D01*
X40977Y-47650D02*
X41015Y-47650D01*
X40949Y-46141D02*
X40949Y-46141D01*
X40688Y-46221D02*
X40949Y-46221D01*
X40671Y-46301D02*
X40949Y-46301D01*
X40656Y-46381D02*
X40949Y-46381D01*
X40688Y-46461D02*
X40949Y-46461D01*
X40688Y-46541D02*
X40949Y-46541D01*
X40688Y-46621D02*
X40949Y-46621D01*
X40688Y-46701D02*
X40949Y-46701D01*
X40688Y-46781D02*
X40949Y-46781D01*
X40688Y-46861D02*
X40949Y-46861D01*
X40688Y-46941D02*
X40949Y-46941D01*
X46349Y-40879D02*
X46457Y-40879D01*
X46349Y-40959D02*
X46457Y-40959D01*
X46349Y-41039D02*
X46457Y-41039D01*
X46332Y-41119D02*
X46457Y-41119D01*
X46349Y-41199D02*
X46457Y-41199D01*
X46349Y-41279D02*
X46468Y-41279D01*
X46349Y-41359D02*
X46500Y-41359D01*
X46349Y-41439D02*
X46573Y-41439D01*
X46340Y-41519D02*
X46969Y-41519D01*
X46349Y-41599D02*
X46969Y-41599D01*
X46349Y-41679D02*
X46969Y-41679D01*
X46349Y-41759D02*
X46969Y-41759D01*
X46341Y-41839D02*
X46969Y-41839D01*
X46303Y-41919D02*
X46969Y-41919D01*
X45784Y-41999D02*
X45822Y-41999D01*
X46197Y-41999D02*
X46969Y-41999D01*
X45375Y-42079D02*
X46969Y-42079D01*
X45295Y-42159D02*
X46969Y-42159D01*
X45964Y-42239D02*
X46969Y-42239D01*
X46073Y-42319D02*
X46969Y-42319D01*
X46153Y-42399D02*
X46969Y-42399D01*
X46230Y-42479D02*
X46969Y-42479D01*
X46283Y-42559D02*
X46969Y-42559D01*
X46320Y-42639D02*
X46969Y-42639D01*
X46349Y-42719D02*
X46969Y-42719D01*
X46349Y-42799D02*
X46969Y-42799D01*
X46349Y-42879D02*
X46969Y-42879D01*
X46349Y-42959D02*
X46969Y-42959D01*
X46339Y-43039D02*
X46969Y-43039D01*
X46353Y-43119D02*
X46969Y-43119D01*
X46353Y-43199D02*
X46969Y-43199D01*
X46353Y-43279D02*
X46969Y-43279D01*
X46353Y-43359D02*
X46969Y-43359D01*
X46353Y-43439D02*
X46969Y-43439D01*
X46432Y-43519D02*
X46969Y-43519D01*
X46548Y-43599D02*
X46969Y-43599D01*
X46609Y-43679D02*
X46969Y-43679D01*
X46642Y-43759D02*
X46969Y-43759D01*
X45795Y-43839D02*
X45855Y-43839D01*
X46650Y-43839D02*
X46969Y-43839D01*
X45795Y-43919D02*
X45930Y-43919D01*
X46650Y-43919D02*
X46969Y-43919D01*
X45795Y-43999D02*
X45962Y-43999D01*
X46617Y-43999D02*
X46969Y-43999D01*
X45795Y-44079D02*
X46010Y-44079D01*
X46569Y-44079D02*
X46969Y-44079D01*
X45795Y-44159D02*
X46095Y-44159D01*
X46483Y-44159D02*
X46969Y-44159D01*
X45762Y-44239D02*
X46969Y-44239D01*
X45690Y-44319D02*
X46969Y-44319D01*
X45449Y-44399D02*
X46969Y-44399D01*
X45449Y-44479D02*
X46969Y-44479D01*
X45449Y-44559D02*
X46969Y-44559D01*
X45424Y-44639D02*
X45918Y-44639D01*
X46104Y-44639D02*
X46969Y-44639D01*
X46248Y-44719D02*
X46969Y-44719D01*
X46321Y-44799D02*
X46969Y-44799D01*
X46742Y-44879D02*
X46969Y-44879D01*
X46858Y-44959D02*
X46969Y-44959D01*
X46938Y-45039D02*
X46969Y-45039D01*
X44764Y-44589D02*
X44764Y-44589D01*
X44679Y-44669D02*
X44808Y-44669D01*
X40508Y-43755D02*
X40508Y-43755D01*
X40428Y-43835D02*
X40543Y-43835D01*
X40349Y-43915D02*
X40620Y-43915D01*
X40269Y-43995D02*
X40689Y-43995D01*
X40188Y-44075D02*
X40691Y-44075D01*
X40184Y-44155D02*
X40354Y-44155D01*
X41559Y-43589D02*
X41641Y-43589D01*
X41575Y-43669D02*
X41641Y-43669D01*
X44215Y-42849D02*
X44215Y-42849D01*
X43924Y-42929D02*
X44215Y-42929D01*
X43844Y-43009D02*
X44157Y-43009D01*
X43830Y-43089D02*
X44077Y-43089D01*
X43839Y-43169D02*
X43997Y-43169D01*
X43839Y-43249D02*
X43917Y-43249D01*
X40735Y-41246D02*
X40736Y-41246D01*
X40607Y-41326D02*
X40803Y-41326D01*
X40607Y-41406D02*
X40901Y-41406D01*
X41343Y-41406D02*
X41478Y-41406D01*
X40649Y-41486D02*
X41670Y-41486D01*
X40766Y-41566D02*
X41670Y-41566D01*
X40810Y-41646D02*
X41670Y-41646D01*
X40821Y-41726D02*
X41670Y-41726D01*
X40821Y-41806D02*
X41379Y-41806D01*
X40821Y-41886D02*
X41315Y-41886D01*
X40821Y-41966D02*
X41288Y-41966D01*
X40821Y-42046D02*
X41288Y-42046D01*
X40821Y-42126D02*
X41288Y-42126D01*
X40821Y-42206D02*
X41288Y-42206D01*
X41001Y-42286D02*
X41288Y-42286D01*
X41135Y-42366D02*
X41288Y-42366D01*
X41203Y-42446D02*
X41288Y-42446D01*
X41237Y-42526D02*
X41288Y-42526D01*
X41250Y-42606D02*
X41288Y-42606D01*
X41250Y-42686D02*
X41288Y-42686D01*
X41223Y-42766D02*
X41288Y-42766D01*
X41182Y-42846D02*
X41292Y-42846D01*
X45215Y-39645D02*
X46457Y-39645D01*
X45239Y-39725D02*
X46064Y-39725D01*
X45243Y-39805D02*
X45998Y-39805D01*
X45250Y-39885D02*
X45969Y-39885D01*
X45250Y-39965D02*
X45969Y-39965D01*
X45250Y-40045D02*
X45969Y-40045D01*
X45250Y-40125D02*
X45969Y-40125D01*
X45250Y-40205D02*
X45862Y-40205D01*
X45236Y-40285D02*
X45733Y-40285D01*
X45215Y-40365D02*
X45686Y-40365D01*
X45162Y-40445D02*
X45671Y-40445D01*
X45154Y-40525D02*
X45671Y-40525D01*
X45154Y-40605D02*
X45258Y-40605D01*
X45124Y-40685D02*
X45185Y-40685D01*
X45057Y-40765D02*
X45151Y-40765D01*
X44949Y-40845D02*
X45151Y-40845D01*
X44949Y-40925D02*
X45131Y-40925D01*
X44949Y-41005D02*
X45057Y-41005D01*
X44940Y-41085D02*
X45003Y-41085D01*
X44902Y-41165D02*
X44987Y-41165D01*
X44795Y-41245D02*
X44856Y-41245D01*
X41641Y-43680D02*
X41641Y-43589D01*
X41559Y-43589D01*
X41559Y-43653D01*
X41585Y-43680D01*
X41640Y-43680D01*
X41641Y-43680D01*
X46221Y-48265D02*
X46221Y-48265D01*
X46146Y-48345D02*
X46238Y-48345D01*
X46244Y-48425D02*
X46291Y-48425D01*
X46280Y-48505D02*
X46338Y-48505D01*
X46286Y-48585D02*
X46338Y-48585D01*
X46286Y-48665D02*
X46338Y-48665D01*
X46286Y-48745D02*
X46338Y-48745D01*
X46286Y-48825D02*
X46338Y-48825D01*
X46282Y-48905D02*
X46341Y-48905D01*
X46248Y-48985D02*
X46374Y-48985D01*
X46158Y-49065D02*
X46460Y-49065D01*
X45788Y-49145D02*
X46969Y-49145D01*
X45755Y-49225D02*
X46969Y-49225D01*
X45715Y-49305D02*
X46969Y-49305D01*
X45771Y-49385D02*
X46969Y-49385D01*
X45851Y-49465D02*
X46969Y-49465D01*
X45931Y-49545D02*
X46969Y-49545D01*
X46007Y-49625D02*
X46969Y-49625D01*
X46116Y-49705D02*
X46969Y-49705D01*
X46180Y-49785D02*
X46969Y-49785D01*
X46206Y-49865D02*
X46969Y-49865D01*
X46206Y-49945D02*
X46969Y-49945D01*
X46206Y-50025D02*
X46969Y-50025D01*
X46206Y-50105D02*
X46969Y-50105D01*
X46206Y-50185D02*
X46969Y-50185D01*
X46204Y-50265D02*
X46969Y-50265D01*
X46171Y-50345D02*
X46969Y-50345D01*
X46264Y-50425D02*
X46969Y-50425D01*
X46414Y-50505D02*
X46969Y-50505D01*
X46489Y-50585D02*
X46969Y-50585D01*
X46522Y-50665D02*
X46969Y-50665D01*
X46540Y-50745D02*
X46969Y-50745D01*
X46540Y-50825D02*
X46969Y-50825D01*
X46517Y-50905D02*
X46969Y-50905D01*
X39645Y-47899D02*
X39902Y-47899D01*
X39645Y-47979D02*
X39965Y-47979D01*
X39645Y-48059D02*
X40279Y-48059D01*
X39645Y-48139D02*
X40279Y-48139D01*
X39645Y-48219D02*
X40279Y-48219D01*
X39645Y-48299D02*
X40303Y-48299D01*
X39645Y-48379D02*
X40365Y-48379D01*
X39645Y-48459D02*
X40396Y-48459D01*
X39645Y-48539D02*
X40396Y-48539D01*
X39645Y-48619D02*
X40396Y-48619D01*
X39645Y-48699D02*
X40396Y-48699D01*
X39645Y-48779D02*
X40426Y-48779D01*
X39645Y-48859D02*
X40497Y-48859D01*
X39645Y-48939D02*
X41333Y-48939D01*
X39645Y-49019D02*
X41366Y-49019D01*
X39645Y-49099D02*
X41420Y-49099D01*
X39645Y-49179D02*
X41519Y-49179D01*
X39645Y-49259D02*
X41576Y-49259D01*
X44756Y-49259D02*
X44764Y-49259D01*
X39645Y-49339D02*
X41543Y-49339D01*
X44661Y-49339D02*
X44760Y-49339D01*
X39645Y-49419D02*
X41530Y-49419D01*
X43928Y-49419D02*
X44763Y-49419D01*
X39645Y-49499D02*
X41530Y-49499D01*
X43895Y-49499D02*
X44796Y-49499D01*
X39645Y-49579D02*
X41558Y-49579D01*
X43829Y-49579D02*
X44850Y-49579D01*
X39645Y-49659D02*
X41600Y-49659D01*
X43244Y-49659D02*
X43457Y-49659D01*
X43701Y-49659D02*
X44950Y-49659D01*
X39645Y-49739D02*
X41680Y-49739D01*
X43211Y-49739D02*
X44950Y-49739D01*
X39645Y-49819D02*
X41872Y-49819D01*
X43139Y-49819D02*
X44907Y-49819D01*
X39645Y-49899D02*
X41972Y-49899D01*
X42997Y-49899D02*
X44894Y-49899D01*
X39645Y-49979D02*
X44894Y-49979D01*
X39645Y-50059D02*
X42024Y-50059D01*
X42258Y-50059D02*
X42883Y-50059D01*
X43298Y-50059D02*
X44894Y-50059D01*
X39645Y-50139D02*
X41411Y-50139D01*
X42539Y-50139D02*
X42803Y-50139D01*
X39645Y-50219D02*
X41306Y-50219D01*
X42643Y-50219D02*
X42759Y-50219D01*
X39645Y-50299D02*
X41226Y-50299D01*
X42723Y-50299D02*
X42730Y-50299D01*
X39645Y-50379D02*
X41146Y-50379D01*
X39645Y-50459D02*
X41066Y-50459D01*
X39645Y-50539D02*
X40954Y-50539D01*
X39645Y-50619D02*
X40823Y-50619D01*
X39645Y-50699D02*
X40756Y-50699D01*
X39645Y-50779D02*
X40723Y-50779D01*
X39645Y-50859D02*
X40710Y-50859D01*
X44960Y-47232D02*
X44960Y-47232D01*
X44699Y-47312D02*
X44989Y-47312D01*
X44699Y-47392D02*
X45033Y-47392D01*
X44698Y-47472D02*
X45113Y-47472D01*
X44664Y-47552D02*
X45319Y-47552D01*
X44588Y-47632D02*
X45284Y-47632D01*
X44401Y-47712D02*
X45270Y-47712D01*
X44302Y-47792D02*
X45252Y-47792D01*
X44216Y-47872D02*
X45172Y-47872D01*
X44169Y-47952D02*
X45092Y-47952D01*
X44040Y-48032D02*
X45012Y-48032D01*
X43828Y-48112D02*
X44932Y-48112D01*
X43828Y-48192D02*
X44852Y-48192D01*
X43814Y-48272D02*
X44772Y-48272D01*
X43769Y-48352D02*
X44692Y-48352D01*
X43250Y-48432D02*
X43414Y-48432D01*
X43644Y-48432D02*
X44612Y-48432D01*
X42789Y-48512D02*
X44532Y-48512D01*
X42830Y-48592D02*
X44452Y-48592D01*
X42863Y-48672D02*
X44372Y-48672D01*
X41039Y-47570D02*
X41141Y-47570D01*
X40977Y-47650D02*
X41015Y-47650D01*
X40949Y-46141D02*
X40949Y-46141D01*
X40688Y-46221D02*
X40949Y-46221D01*
X40671Y-46301D02*
X40949Y-46301D01*
X40656Y-46381D02*
X40949Y-46381D01*
X40688Y-46461D02*
X40949Y-46461D01*
X40688Y-46541D02*
X40949Y-46541D01*
X40688Y-46621D02*
X40949Y-46621D01*
X40688Y-46701D02*
X40949Y-46701D01*
X40688Y-46781D02*
X40949Y-46781D01*
X40688Y-46861D02*
X40949Y-46861D01*
X40688Y-46941D02*
X40949Y-46941D01*
X46349Y-40879D02*
X46457Y-40879D01*
X46349Y-40959D02*
X46457Y-40959D01*
X46349Y-41039D02*
X46457Y-41039D01*
X46332Y-41119D02*
X46457Y-41119D01*
X46349Y-41199D02*
X46457Y-41199D01*
X46349Y-41279D02*
X46468Y-41279D01*
X46349Y-41359D02*
X46500Y-41359D01*
X46349Y-41439D02*
X46573Y-41439D01*
X46340Y-41519D02*
X46969Y-41519D01*
X46349Y-41599D02*
X46969Y-41599D01*
X46349Y-41679D02*
X46969Y-41679D01*
X46349Y-41759D02*
X46969Y-41759D01*
X46341Y-41839D02*
X46969Y-41839D01*
X46303Y-41919D02*
X46969Y-41919D01*
X45784Y-41999D02*
X45822Y-41999D01*
X46197Y-41999D02*
X46969Y-41999D01*
X45375Y-42079D02*
X46969Y-42079D01*
X45295Y-42159D02*
X46969Y-42159D01*
X45964Y-42239D02*
X46969Y-42239D01*
X46073Y-42319D02*
X46969Y-42319D01*
X46153Y-42399D02*
X46969Y-42399D01*
X46230Y-42479D02*
X46969Y-42479D01*
X46283Y-42559D02*
X46969Y-42559D01*
X46320Y-42639D02*
X46969Y-42639D01*
X46349Y-42719D02*
X46969Y-42719D01*
X46349Y-42799D02*
X46969Y-42799D01*
X46349Y-42879D02*
X46969Y-42879D01*
X46349Y-42959D02*
X46969Y-42959D01*
X46339Y-43039D02*
X46969Y-43039D01*
X46353Y-43119D02*
X46969Y-43119D01*
X46353Y-43199D02*
X46969Y-43199D01*
X46353Y-43279D02*
X46969Y-43279D01*
X46353Y-43359D02*
X46969Y-43359D01*
X46353Y-43439D02*
X46969Y-43439D01*
X46432Y-43519D02*
X46969Y-43519D01*
X46548Y-43599D02*
X46969Y-43599D01*
X46609Y-43679D02*
X46969Y-43679D01*
X46642Y-43759D02*
X46969Y-43759D01*
X45795Y-43839D02*
X45855Y-43839D01*
X46650Y-43839D02*
X46969Y-43839D01*
X45795Y-43919D02*
X45930Y-43919D01*
X46650Y-43919D02*
X46969Y-43919D01*
X45795Y-43999D02*
X45962Y-43999D01*
X46617Y-43999D02*
X46969Y-43999D01*
X45795Y-44079D02*
X46010Y-44079D01*
X46569Y-44079D02*
X46969Y-44079D01*
X45795Y-44159D02*
X46095Y-44159D01*
X46483Y-44159D02*
X46969Y-44159D01*
X45762Y-44239D02*
X46969Y-44239D01*
X45690Y-44319D02*
X46969Y-44319D01*
X45449Y-44399D02*
X46969Y-44399D01*
X45449Y-44479D02*
X46969Y-44479D01*
X45449Y-44559D02*
X46969Y-44559D01*
X45424Y-44639D02*
X45918Y-44639D01*
X46104Y-44639D02*
X46969Y-44639D01*
X46248Y-44719D02*
X46969Y-44719D01*
X46321Y-44799D02*
X46969Y-44799D01*
X46742Y-44879D02*
X46969Y-44879D01*
X46858Y-44959D02*
X46969Y-44959D01*
X46938Y-45039D02*
X46969Y-45039D01*
X44764Y-44589D02*
X44764Y-44589D01*
X44679Y-44669D02*
X44808Y-44669D01*
X40508Y-43755D02*
X40508Y-43755D01*
X40428Y-43835D02*
X40543Y-43835D01*
X40349Y-43915D02*
X40620Y-43915D01*
X40269Y-43995D02*
X40689Y-43995D01*
X40188Y-44075D02*
X40691Y-44075D01*
X40184Y-44155D02*
X40354Y-44155D01*
X41559Y-43589D02*
X41641Y-43589D01*
X41575Y-43669D02*
X41641Y-43669D01*
X44215Y-42849D02*
X44215Y-42849D01*
X43924Y-42929D02*
X44215Y-42929D01*
X43844Y-43009D02*
X44157Y-43009D01*
X43830Y-43089D02*
X44077Y-43089D01*
X43839Y-43169D02*
X43997Y-43169D01*
X43839Y-43249D02*
X43917Y-43249D01*
X40735Y-41246D02*
X40736Y-41246D01*
X40607Y-41326D02*
X40803Y-41326D01*
X40607Y-41406D02*
X40901Y-41406D01*
X41343Y-41406D02*
X41478Y-41406D01*
X40649Y-41486D02*
X41670Y-41486D01*
X40766Y-41566D02*
X41670Y-41566D01*
X40810Y-41646D02*
X41670Y-41646D01*
X40821Y-41726D02*
X41670Y-41726D01*
X40821Y-41806D02*
X41379Y-41806D01*
X40821Y-41886D02*
X41315Y-41886D01*
X40821Y-41966D02*
X41288Y-41966D01*
X40821Y-42046D02*
X41288Y-42046D01*
X40821Y-42126D02*
X41288Y-42126D01*
X40821Y-42206D02*
X41288Y-42206D01*
X41001Y-42286D02*
X41288Y-42286D01*
X41135Y-42366D02*
X41288Y-42366D01*
X41203Y-42446D02*
X41288Y-42446D01*
X41237Y-42526D02*
X41288Y-42526D01*
X41250Y-42606D02*
X41288Y-42606D01*
X41250Y-42686D02*
X41288Y-42686D01*
X41223Y-42766D02*
X41288Y-42766D01*
X41182Y-42846D02*
X41292Y-42846D01*
X45215Y-39645D02*
X46457Y-39645D01*
X45239Y-39725D02*
X46064Y-39725D01*
X45243Y-39805D02*
X45998Y-39805D01*
X45250Y-39885D02*
X45969Y-39885D01*
X45250Y-39965D02*
X45969Y-39965D01*
X45250Y-40045D02*
X45969Y-40045D01*
X45250Y-40125D02*
X45969Y-40125D01*
X45250Y-40205D02*
X45862Y-40205D01*
X45236Y-40285D02*
X45733Y-40285D01*
X45215Y-40365D02*
X45686Y-40365D01*
X45162Y-40445D02*
X45671Y-40445D01*
X45154Y-40525D02*
X45671Y-40525D01*
X45154Y-40605D02*
X45258Y-40605D01*
X45124Y-40685D02*
X45185Y-40685D01*
X45057Y-40765D02*
X45151Y-40765D01*
X44949Y-40845D02*
X45151Y-40845D01*
X44949Y-40925D02*
X45131Y-40925D01*
X44949Y-41005D02*
X45057Y-41005D01*
X44940Y-41085D02*
X45003Y-41085D01*
X44902Y-41165D02*
X44987Y-41165D01*
X44795Y-41245D02*
X44856Y-41245D01*
X43905Y-43261D02*
X44215Y-42951D01*
X44215Y-42849D01*
X44160Y-42860D01*
X43994Y-42860D01*
X43810Y-43043D01*
X43839Y-43111D01*
X43839Y-43261D01*
X43905Y-43261D01*
X46221Y-48265D02*
X46221Y-48265D01*
X46146Y-48345D02*
X46238Y-48345D01*
X46244Y-48425D02*
X46291Y-48425D01*
X46280Y-48505D02*
X46338Y-48505D01*
X46286Y-48585D02*
X46338Y-48585D01*
X46286Y-48665D02*
X46338Y-48665D01*
X46286Y-48745D02*
X46338Y-48745D01*
X46286Y-48825D02*
X46338Y-48825D01*
X46282Y-48905D02*
X46341Y-48905D01*
X46248Y-48985D02*
X46374Y-48985D01*
X46158Y-49065D02*
X46460Y-49065D01*
X45788Y-49145D02*
X46969Y-49145D01*
X45755Y-49225D02*
X46969Y-49225D01*
X45715Y-49305D02*
X46969Y-49305D01*
X45771Y-49385D02*
X46969Y-49385D01*
X45851Y-49465D02*
X46969Y-49465D01*
X45931Y-49545D02*
X46969Y-49545D01*
X46007Y-49625D02*
X46969Y-49625D01*
X46116Y-49705D02*
X46969Y-49705D01*
X46180Y-49785D02*
X46969Y-49785D01*
X46206Y-49865D02*
X46969Y-49865D01*
X46206Y-49945D02*
X46969Y-49945D01*
X46206Y-50025D02*
X46969Y-50025D01*
X46206Y-50105D02*
X46969Y-50105D01*
X46206Y-50185D02*
X46969Y-50185D01*
X46204Y-50265D02*
X46969Y-50265D01*
X46171Y-50345D02*
X46969Y-50345D01*
X46264Y-50425D02*
X46969Y-50425D01*
X46414Y-50505D02*
X46969Y-50505D01*
X46489Y-50585D02*
X46969Y-50585D01*
X46522Y-50665D02*
X46969Y-50665D01*
X46540Y-50745D02*
X46969Y-50745D01*
X46540Y-50825D02*
X46969Y-50825D01*
X46517Y-50905D02*
X46969Y-50905D01*
X39645Y-47899D02*
X39902Y-47899D01*
X39645Y-47979D02*
X39965Y-47979D01*
X39645Y-48059D02*
X40279Y-48059D01*
X39645Y-48139D02*
X40279Y-48139D01*
X39645Y-48219D02*
X40279Y-48219D01*
X39645Y-48299D02*
X40303Y-48299D01*
X39645Y-48379D02*
X40365Y-48379D01*
X39645Y-48459D02*
X40396Y-48459D01*
X39645Y-48539D02*
X40396Y-48539D01*
X39645Y-48619D02*
X40396Y-48619D01*
X39645Y-48699D02*
X40396Y-48699D01*
X39645Y-48779D02*
X40426Y-48779D01*
X39645Y-48859D02*
X40497Y-48859D01*
X39645Y-48939D02*
X41333Y-48939D01*
X39645Y-49019D02*
X41366Y-49019D01*
X39645Y-49099D02*
X41420Y-49099D01*
X39645Y-49179D02*
X41519Y-49179D01*
X39645Y-49259D02*
X41576Y-49259D01*
X44756Y-49259D02*
X44764Y-49259D01*
X39645Y-49339D02*
X41543Y-49339D01*
X44661Y-49339D02*
X44760Y-49339D01*
X39645Y-49419D02*
X41530Y-49419D01*
X43928Y-49419D02*
X44763Y-49419D01*
X39645Y-49499D02*
X41530Y-49499D01*
X43895Y-49499D02*
X44796Y-49499D01*
X39645Y-49579D02*
X41558Y-49579D01*
X43829Y-49579D02*
X44850Y-49579D01*
X39645Y-49659D02*
X41600Y-49659D01*
X43244Y-49659D02*
X43457Y-49659D01*
X43701Y-49659D02*
X44950Y-49659D01*
X39645Y-49739D02*
X41680Y-49739D01*
X43211Y-49739D02*
X44950Y-49739D01*
X39645Y-49819D02*
X41872Y-49819D01*
X43139Y-49819D02*
X44907Y-49819D01*
X39645Y-49899D02*
X41972Y-49899D01*
X42997Y-49899D02*
X44894Y-49899D01*
X39645Y-49979D02*
X44894Y-49979D01*
X39645Y-50059D02*
X42024Y-50059D01*
X42258Y-50059D02*
X42883Y-50059D01*
X43298Y-50059D02*
X44894Y-50059D01*
X39645Y-50139D02*
X41411Y-50139D01*
X42539Y-50139D02*
X42803Y-50139D01*
X39645Y-50219D02*
X41306Y-50219D01*
X42643Y-50219D02*
X42759Y-50219D01*
X39645Y-50299D02*
X41226Y-50299D01*
X42723Y-50299D02*
X42730Y-50299D01*
X39645Y-50379D02*
X41146Y-50379D01*
X39645Y-50459D02*
X41066Y-50459D01*
X39645Y-50539D02*
X40954Y-50539D01*
X39645Y-50619D02*
X40823Y-50619D01*
X39645Y-50699D02*
X40756Y-50699D01*
X39645Y-50779D02*
X40723Y-50779D01*
X39645Y-50859D02*
X40710Y-50859D01*
X44960Y-47232D02*
X44960Y-47232D01*
X44699Y-47312D02*
X44989Y-47312D01*
X44699Y-47392D02*
X45033Y-47392D01*
X44698Y-47472D02*
X45113Y-47472D01*
X44664Y-47552D02*
X45319Y-47552D01*
X44588Y-47632D02*
X45284Y-47632D01*
X44401Y-47712D02*
X45270Y-47712D01*
X44302Y-47792D02*
X45252Y-47792D01*
X44216Y-47872D02*
X45172Y-47872D01*
X44169Y-47952D02*
X45092Y-47952D01*
X44040Y-48032D02*
X45012Y-48032D01*
X43828Y-48112D02*
X44932Y-48112D01*
X43828Y-48192D02*
X44852Y-48192D01*
X43814Y-48272D02*
X44772Y-48272D01*
X43769Y-48352D02*
X44692Y-48352D01*
X43250Y-48432D02*
X43414Y-48432D01*
X43644Y-48432D02*
X44612Y-48432D01*
X42789Y-48512D02*
X44532Y-48512D01*
X42830Y-48592D02*
X44452Y-48592D01*
X42863Y-48672D02*
X44372Y-48672D01*
X41039Y-47570D02*
X41141Y-47570D01*
X40977Y-47650D02*
X41015Y-47650D01*
X40949Y-46141D02*
X40949Y-46141D01*
X40688Y-46221D02*
X40949Y-46221D01*
X40671Y-46301D02*
X40949Y-46301D01*
X40656Y-46381D02*
X40949Y-46381D01*
X40688Y-46461D02*
X40949Y-46461D01*
X40688Y-46541D02*
X40949Y-46541D01*
X40688Y-46621D02*
X40949Y-46621D01*
X40688Y-46701D02*
X40949Y-46701D01*
X40688Y-46781D02*
X40949Y-46781D01*
X40688Y-46861D02*
X40949Y-46861D01*
X40688Y-46941D02*
X40949Y-46941D01*
X46349Y-40879D02*
X46457Y-40879D01*
X46349Y-40959D02*
X46457Y-40959D01*
X46349Y-41039D02*
X46457Y-41039D01*
X46332Y-41119D02*
X46457Y-41119D01*
X46349Y-41199D02*
X46457Y-41199D01*
X46349Y-41279D02*
X46468Y-41279D01*
X46349Y-41359D02*
X46500Y-41359D01*
X46349Y-41439D02*
X46573Y-41439D01*
X46340Y-41519D02*
X46969Y-41519D01*
X46349Y-41599D02*
X46969Y-41599D01*
X46349Y-41679D02*
X46969Y-41679D01*
X46349Y-41759D02*
X46969Y-41759D01*
X46341Y-41839D02*
X46969Y-41839D01*
X46303Y-41919D02*
X46969Y-41919D01*
X45784Y-41999D02*
X45822Y-41999D01*
X46197Y-41999D02*
X46969Y-41999D01*
X45375Y-42079D02*
X46969Y-42079D01*
X45295Y-42159D02*
X46969Y-42159D01*
X45964Y-42239D02*
X46969Y-42239D01*
X46073Y-42319D02*
X46969Y-42319D01*
X46153Y-42399D02*
X46969Y-42399D01*
X46230Y-42479D02*
X46969Y-42479D01*
X46283Y-42559D02*
X46969Y-42559D01*
X46320Y-42639D02*
X46969Y-42639D01*
X46349Y-42719D02*
X46969Y-42719D01*
X46349Y-42799D02*
X46969Y-42799D01*
X46349Y-42879D02*
X46969Y-42879D01*
X46349Y-42959D02*
X46969Y-42959D01*
X46339Y-43039D02*
X46969Y-43039D01*
X46353Y-43119D02*
X46969Y-43119D01*
X46353Y-43199D02*
X46969Y-43199D01*
X46353Y-43279D02*
X46969Y-43279D01*
X46353Y-43359D02*
X46969Y-43359D01*
X46353Y-43439D02*
X46969Y-43439D01*
X46432Y-43519D02*
X46969Y-43519D01*
X46548Y-43599D02*
X46969Y-43599D01*
X46609Y-43679D02*
X46969Y-43679D01*
X46642Y-43759D02*
X46969Y-43759D01*
X45795Y-43839D02*
X45855Y-43839D01*
X46650Y-43839D02*
X46969Y-43839D01*
X45795Y-43919D02*
X45930Y-43919D01*
X46650Y-43919D02*
X46969Y-43919D01*
X45795Y-43999D02*
X45962Y-43999D01*
X46617Y-43999D02*
X46969Y-43999D01*
X45795Y-44079D02*
X46010Y-44079D01*
X46569Y-44079D02*
X46969Y-44079D01*
X45795Y-44159D02*
X46095Y-44159D01*
X46483Y-44159D02*
X46969Y-44159D01*
X45762Y-44239D02*
X46969Y-44239D01*
X45690Y-44319D02*
X46969Y-44319D01*
X45449Y-44399D02*
X46969Y-44399D01*
X45449Y-44479D02*
X46969Y-44479D01*
X45449Y-44559D02*
X46969Y-44559D01*
X45424Y-44639D02*
X45918Y-44639D01*
X46104Y-44639D02*
X46969Y-44639D01*
X46248Y-44719D02*
X46969Y-44719D01*
X46321Y-44799D02*
X46969Y-44799D01*
X46742Y-44879D02*
X46969Y-44879D01*
X46858Y-44959D02*
X46969Y-44959D01*
X46938Y-45039D02*
X46969Y-45039D01*
X44764Y-44589D02*
X44764Y-44589D01*
X44679Y-44669D02*
X44808Y-44669D01*
X40508Y-43755D02*
X40508Y-43755D01*
X40428Y-43835D02*
X40543Y-43835D01*
X40349Y-43915D02*
X40620Y-43915D01*
X40269Y-43995D02*
X40689Y-43995D01*
X40188Y-44075D02*
X40691Y-44075D01*
X40184Y-44155D02*
X40354Y-44155D01*
X41559Y-43589D02*
X41641Y-43589D01*
X41575Y-43669D02*
X41641Y-43669D01*
X44215Y-42849D02*
X44215Y-42849D01*
X43924Y-42929D02*
X44215Y-42929D01*
X43844Y-43009D02*
X44157Y-43009D01*
X43830Y-43089D02*
X44077Y-43089D01*
X43839Y-43169D02*
X43997Y-43169D01*
X43839Y-43249D02*
X43917Y-43249D01*
X40735Y-41246D02*
X40736Y-41246D01*
X40607Y-41326D02*
X40803Y-41326D01*
X40607Y-41406D02*
X40901Y-41406D01*
X41343Y-41406D02*
X41478Y-41406D01*
X40649Y-41486D02*
X41670Y-41486D01*
X40766Y-41566D02*
X41670Y-41566D01*
X40810Y-41646D02*
X41670Y-41646D01*
X40821Y-41726D02*
X41670Y-41726D01*
X40821Y-41806D02*
X41379Y-41806D01*
X40821Y-41886D02*
X41315Y-41886D01*
X40821Y-41966D02*
X41288Y-41966D01*
X40821Y-42046D02*
X41288Y-42046D01*
X40821Y-42126D02*
X41288Y-42126D01*
X40821Y-42206D02*
X41288Y-42206D01*
X41001Y-42286D02*
X41288Y-42286D01*
X41135Y-42366D02*
X41288Y-42366D01*
X41203Y-42446D02*
X41288Y-42446D01*
X41237Y-42526D02*
X41288Y-42526D01*
X41250Y-42606D02*
X41288Y-42606D01*
X41250Y-42686D02*
X41288Y-42686D01*
X41223Y-42766D02*
X41288Y-42766D01*
X41182Y-42846D02*
X41292Y-42846D01*
X45215Y-39645D02*
X46457Y-39645D01*
X45239Y-39725D02*
X46064Y-39725D01*
X45243Y-39805D02*
X45998Y-39805D01*
X45250Y-39885D02*
X45969Y-39885D01*
X45250Y-39965D02*
X45969Y-39965D01*
X45250Y-40045D02*
X45969Y-40045D01*
X45250Y-40125D02*
X45969Y-40125D01*
X45250Y-40205D02*
X45862Y-40205D01*
X45236Y-40285D02*
X45733Y-40285D01*
X45215Y-40365D02*
X45686Y-40365D01*
X45162Y-40445D02*
X45671Y-40445D01*
X45154Y-40525D02*
X45671Y-40525D01*
X45154Y-40605D02*
X45258Y-40605D01*
X45124Y-40685D02*
X45185Y-40685D01*
X45057Y-40765D02*
X45151Y-40765D01*
X44949Y-40845D02*
X45151Y-40845D01*
X44949Y-40925D02*
X45131Y-40925D01*
X44949Y-41005D02*
X45057Y-41005D01*
X44940Y-41085D02*
X45003Y-41085D01*
X44902Y-41165D02*
X44987Y-41165D01*
X44795Y-41245D02*
X44856Y-41245D01*
X41319Y-42911D02*
X41288Y-42835D01*
X41288Y-41950D01*
X41326Y-41859D01*
X41396Y-41789D01*
X41488Y-41751D01*
X41670Y-41751D01*
X41670Y-41486D01*
X41644Y-41460D01*
X41608Y-41460D01*
X41476Y-41405D01*
X41419Y-41348D01*
X41375Y-41393D01*
X41211Y-41461D01*
X41034Y-41461D01*
X40870Y-41393D01*
X40745Y-41267D01*
X40736Y-41246D01*
X40644Y-41285D01*
X40607Y-41285D01*
X40607Y-41475D01*
X40622Y-41475D01*
X40713Y-41513D01*
X40783Y-41583D01*
X40821Y-41675D01*
X40821Y-42270D01*
X40962Y-42270D01*
X41094Y-42325D01*
X41195Y-42427D01*
X41250Y-42559D01*
X41250Y-42702D01*
X41195Y-42834D01*
X41117Y-42911D01*
X41319Y-42911D01*
X46221Y-48265D02*
X46221Y-48265D01*
X46146Y-48345D02*
X46238Y-48345D01*
X46244Y-48425D02*
X46291Y-48425D01*
X46280Y-48505D02*
X46338Y-48505D01*
X46286Y-48585D02*
X46338Y-48585D01*
X46286Y-48665D02*
X46338Y-48665D01*
X46286Y-48745D02*
X46338Y-48745D01*
X46286Y-48825D02*
X46338Y-48825D01*
X46282Y-48905D02*
X46341Y-48905D01*
X46248Y-48985D02*
X46374Y-48985D01*
X46158Y-49065D02*
X46460Y-49065D01*
X45788Y-49145D02*
X46969Y-49145D01*
X45755Y-49225D02*
X46969Y-49225D01*
X45715Y-49305D02*
X46969Y-49305D01*
X45771Y-49385D02*
X46969Y-49385D01*
X45851Y-49465D02*
X46969Y-49465D01*
X45931Y-49545D02*
X46969Y-49545D01*
X46007Y-49625D02*
X46969Y-49625D01*
X46116Y-49705D02*
X46969Y-49705D01*
X46180Y-49785D02*
X46969Y-49785D01*
X46206Y-49865D02*
X46969Y-49865D01*
X46206Y-49945D02*
X46969Y-49945D01*
X46206Y-50025D02*
X46969Y-50025D01*
X46206Y-50105D02*
X46969Y-50105D01*
X46206Y-50185D02*
X46969Y-50185D01*
X46204Y-50265D02*
X46969Y-50265D01*
X46171Y-50345D02*
X46969Y-50345D01*
X46264Y-50425D02*
X46969Y-50425D01*
X46414Y-50505D02*
X46969Y-50505D01*
X46489Y-50585D02*
X46969Y-50585D01*
X46522Y-50665D02*
X46969Y-50665D01*
X46540Y-50745D02*
X46969Y-50745D01*
X46540Y-50825D02*
X46969Y-50825D01*
X46517Y-50905D02*
X46969Y-50905D01*
X39645Y-47899D02*
X39902Y-47899D01*
X39645Y-47979D02*
X39965Y-47979D01*
X39645Y-48059D02*
X40279Y-48059D01*
X39645Y-48139D02*
X40279Y-48139D01*
X39645Y-48219D02*
X40279Y-48219D01*
X39645Y-48299D02*
X40303Y-48299D01*
X39645Y-48379D02*
X40365Y-48379D01*
X39645Y-48459D02*
X40396Y-48459D01*
X39645Y-48539D02*
X40396Y-48539D01*
X39645Y-48619D02*
X40396Y-48619D01*
X39645Y-48699D02*
X40396Y-48699D01*
X39645Y-48779D02*
X40426Y-48779D01*
X39645Y-48859D02*
X40497Y-48859D01*
X39645Y-48939D02*
X41333Y-48939D01*
X39645Y-49019D02*
X41366Y-49019D01*
X39645Y-49099D02*
X41420Y-49099D01*
X39645Y-49179D02*
X41519Y-49179D01*
X39645Y-49259D02*
X41576Y-49259D01*
X44756Y-49259D02*
X44764Y-49259D01*
X39645Y-49339D02*
X41543Y-49339D01*
X44661Y-49339D02*
X44760Y-49339D01*
X39645Y-49419D02*
X41530Y-49419D01*
X43928Y-49419D02*
X44763Y-49419D01*
X39645Y-49499D02*
X41530Y-49499D01*
X43895Y-49499D02*
X44796Y-49499D01*
X39645Y-49579D02*
X41558Y-49579D01*
X43829Y-49579D02*
X44850Y-49579D01*
X39645Y-49659D02*
X41600Y-49659D01*
X43244Y-49659D02*
X43457Y-49659D01*
X43701Y-49659D02*
X44950Y-49659D01*
X39645Y-49739D02*
X41680Y-49739D01*
X43211Y-49739D02*
X44950Y-49739D01*
X39645Y-49819D02*
X41872Y-49819D01*
X43139Y-49819D02*
X44907Y-49819D01*
X39645Y-49899D02*
X41972Y-49899D01*
X42997Y-49899D02*
X44894Y-49899D01*
X39645Y-49979D02*
X44894Y-49979D01*
X39645Y-50059D02*
X42024Y-50059D01*
X42258Y-50059D02*
X42883Y-50059D01*
X43298Y-50059D02*
X44894Y-50059D01*
X39645Y-50139D02*
X41411Y-50139D01*
X42539Y-50139D02*
X42803Y-50139D01*
X39645Y-50219D02*
X41306Y-50219D01*
X42643Y-50219D02*
X42759Y-50219D01*
X39645Y-50299D02*
X41226Y-50299D01*
X42723Y-50299D02*
X42730Y-50299D01*
X39645Y-50379D02*
X41146Y-50379D01*
X39645Y-50459D02*
X41066Y-50459D01*
X39645Y-50539D02*
X40954Y-50539D01*
X39645Y-50619D02*
X40823Y-50619D01*
X39645Y-50699D02*
X40756Y-50699D01*
X39645Y-50779D02*
X40723Y-50779D01*
X39645Y-50859D02*
X40710Y-50859D01*
X44960Y-47232D02*
X44960Y-47232D01*
X44699Y-47312D02*
X44989Y-47312D01*
X44699Y-47392D02*
X45033Y-47392D01*
X44698Y-47472D02*
X45113Y-47472D01*
X44664Y-47552D02*
X45319Y-47552D01*
X44588Y-47632D02*
X45284Y-47632D01*
X44401Y-47712D02*
X45270Y-47712D01*
X44302Y-47792D02*
X45252Y-47792D01*
X44216Y-47872D02*
X45172Y-47872D01*
X44169Y-47952D02*
X45092Y-47952D01*
X44040Y-48032D02*
X45012Y-48032D01*
X43828Y-48112D02*
X44932Y-48112D01*
X43828Y-48192D02*
X44852Y-48192D01*
X43814Y-48272D02*
X44772Y-48272D01*
X43769Y-48352D02*
X44692Y-48352D01*
X43250Y-48432D02*
X43414Y-48432D01*
X43644Y-48432D02*
X44612Y-48432D01*
X42789Y-48512D02*
X44532Y-48512D01*
X42830Y-48592D02*
X44452Y-48592D01*
X42863Y-48672D02*
X44372Y-48672D01*
X41039Y-47570D02*
X41141Y-47570D01*
X40977Y-47650D02*
X41015Y-47650D01*
X40949Y-46141D02*
X40949Y-46141D01*
X40688Y-46221D02*
X40949Y-46221D01*
X40671Y-46301D02*
X40949Y-46301D01*
X40656Y-46381D02*
X40949Y-46381D01*
X40688Y-46461D02*
X40949Y-46461D01*
X40688Y-46541D02*
X40949Y-46541D01*
X40688Y-46621D02*
X40949Y-46621D01*
X40688Y-46701D02*
X40949Y-46701D01*
X40688Y-46781D02*
X40949Y-46781D01*
X40688Y-46861D02*
X40949Y-46861D01*
X40688Y-46941D02*
X40949Y-46941D01*
X46349Y-40879D02*
X46457Y-40879D01*
X46349Y-40959D02*
X46457Y-40959D01*
X46349Y-41039D02*
X46457Y-41039D01*
X46332Y-41119D02*
X46457Y-41119D01*
X46349Y-41199D02*
X46457Y-41199D01*
X46349Y-41279D02*
X46468Y-41279D01*
X46349Y-41359D02*
X46500Y-41359D01*
X46349Y-41439D02*
X46573Y-41439D01*
X46340Y-41519D02*
X46969Y-41519D01*
X46349Y-41599D02*
X46969Y-41599D01*
X46349Y-41679D02*
X46969Y-41679D01*
X46349Y-41759D02*
X46969Y-41759D01*
X46341Y-41839D02*
X46969Y-41839D01*
X46303Y-41919D02*
X46969Y-41919D01*
X45784Y-41999D02*
X45822Y-41999D01*
X46197Y-41999D02*
X46969Y-41999D01*
X45375Y-42079D02*
X46969Y-42079D01*
X45295Y-42159D02*
X46969Y-42159D01*
X45964Y-42239D02*
X46969Y-42239D01*
X46073Y-42319D02*
X46969Y-42319D01*
X46153Y-42399D02*
X46969Y-42399D01*
X46230Y-42479D02*
X46969Y-42479D01*
X46283Y-42559D02*
X46969Y-42559D01*
X46320Y-42639D02*
X46969Y-42639D01*
X46349Y-42719D02*
X46969Y-42719D01*
X46349Y-42799D02*
X46969Y-42799D01*
X46349Y-42879D02*
X46969Y-42879D01*
X46349Y-42959D02*
X46969Y-42959D01*
X46339Y-43039D02*
X46969Y-43039D01*
X46353Y-43119D02*
X46969Y-43119D01*
X46353Y-43199D02*
X46969Y-43199D01*
X46353Y-43279D02*
X46969Y-43279D01*
X46353Y-43359D02*
X46969Y-43359D01*
X46353Y-43439D02*
X46969Y-43439D01*
X46432Y-43519D02*
X46969Y-43519D01*
X46548Y-43599D02*
X46969Y-43599D01*
X46609Y-43679D02*
X46969Y-43679D01*
X46642Y-43759D02*
X46969Y-43759D01*
X45795Y-43839D02*
X45855Y-43839D01*
X46650Y-43839D02*
X46969Y-43839D01*
X45795Y-43919D02*
X45930Y-43919D01*
X46650Y-43919D02*
X46969Y-43919D01*
X45795Y-43999D02*
X45962Y-43999D01*
X46617Y-43999D02*
X46969Y-43999D01*
X45795Y-44079D02*
X46010Y-44079D01*
X46569Y-44079D02*
X46969Y-44079D01*
X45795Y-44159D02*
X46095Y-44159D01*
X46483Y-44159D02*
X46969Y-44159D01*
X45762Y-44239D02*
X46969Y-44239D01*
X45690Y-44319D02*
X46969Y-44319D01*
X45449Y-44399D02*
X46969Y-44399D01*
X45449Y-44479D02*
X46969Y-44479D01*
X45449Y-44559D02*
X46969Y-44559D01*
X45424Y-44639D02*
X45918Y-44639D01*
X46104Y-44639D02*
X46969Y-44639D01*
X46248Y-44719D02*
X46969Y-44719D01*
X46321Y-44799D02*
X46969Y-44799D01*
X46742Y-44879D02*
X46969Y-44879D01*
X46858Y-44959D02*
X46969Y-44959D01*
X46938Y-45039D02*
X46969Y-45039D01*
X44764Y-44589D02*
X44764Y-44589D01*
X44679Y-44669D02*
X44808Y-44669D01*
X40508Y-43755D02*
X40508Y-43755D01*
X40428Y-43835D02*
X40543Y-43835D01*
X40349Y-43915D02*
X40620Y-43915D01*
X40269Y-43995D02*
X40689Y-43995D01*
X40188Y-44075D02*
X40691Y-44075D01*
X40184Y-44155D02*
X40354Y-44155D01*
X41559Y-43589D02*
X41641Y-43589D01*
X41575Y-43669D02*
X41641Y-43669D01*
X44215Y-42849D02*
X44215Y-42849D01*
X43924Y-42929D02*
X44215Y-42929D01*
X43844Y-43009D02*
X44157Y-43009D01*
X43830Y-43089D02*
X44077Y-43089D01*
X43839Y-43169D02*
X43997Y-43169D01*
X43839Y-43249D02*
X43917Y-43249D01*
X40735Y-41246D02*
X40736Y-41246D01*
X40607Y-41326D02*
X40803Y-41326D01*
X40607Y-41406D02*
X40901Y-41406D01*
X41343Y-41406D02*
X41478Y-41406D01*
X40649Y-41486D02*
X41670Y-41486D01*
X40766Y-41566D02*
X41670Y-41566D01*
X40810Y-41646D02*
X41670Y-41646D01*
X40821Y-41726D02*
X41670Y-41726D01*
X40821Y-41806D02*
X41379Y-41806D01*
X40821Y-41886D02*
X41315Y-41886D01*
X40821Y-41966D02*
X41288Y-41966D01*
X40821Y-42046D02*
X41288Y-42046D01*
X40821Y-42126D02*
X41288Y-42126D01*
X40821Y-42206D02*
X41288Y-42206D01*
X41001Y-42286D02*
X41288Y-42286D01*
X41135Y-42366D02*
X41288Y-42366D01*
X41203Y-42446D02*
X41288Y-42446D01*
X41237Y-42526D02*
X41288Y-42526D01*
X41250Y-42606D02*
X41288Y-42606D01*
X41250Y-42686D02*
X41288Y-42686D01*
X41223Y-42766D02*
X41288Y-42766D01*
X41182Y-42846D02*
X41292Y-42846D01*
X45215Y-39645D02*
X46457Y-39645D01*
X45239Y-39725D02*
X46064Y-39725D01*
X45243Y-39805D02*
X45998Y-39805D01*
X45250Y-39885D02*
X45969Y-39885D01*
X45250Y-39965D02*
X45969Y-39965D01*
X45250Y-40045D02*
X45969Y-40045D01*
X45250Y-40125D02*
X45969Y-40125D01*
X45250Y-40205D02*
X45862Y-40205D01*
X45236Y-40285D02*
X45733Y-40285D01*
X45215Y-40365D02*
X45686Y-40365D01*
X45162Y-40445D02*
X45671Y-40445D01*
X45154Y-40525D02*
X45671Y-40525D01*
X45154Y-40605D02*
X45258Y-40605D01*
X45124Y-40685D02*
X45185Y-40685D01*
X45057Y-40765D02*
X45151Y-40765D01*
X44949Y-40845D02*
X45151Y-40845D01*
X44949Y-40925D02*
X45131Y-40925D01*
X44949Y-41005D02*
X45057Y-41005D01*
X44940Y-41085D02*
X45003Y-41085D01*
X44902Y-41165D02*
X44987Y-41165D01*
X44795Y-41245D02*
X44856Y-41245D01*
X44545Y-41316D02*
X44550Y-41315D01*
X44694Y-41315D01*
X44700Y-41309D01*
X44856Y-41245D01*
X44980Y-41245D01*
X44980Y-41200D01*
X45003Y-41085D01*
X45068Y-40988D01*
X45151Y-40904D01*
X45151Y-40765D01*
X45189Y-40674D01*
X45259Y-40604D01*
X45351Y-40566D01*
X45671Y-40566D01*
X45671Y-40400D01*
X45709Y-40309D01*
X45779Y-40239D01*
X45871Y-40201D01*
X45969Y-40201D01*
X45969Y-39873D01*
X46007Y-39782D01*
X46077Y-39712D01*
X46169Y-39674D01*
X46457Y-39674D01*
X46457Y-39645D01*
X45215Y-39645D01*
X45239Y-39701D01*
X45239Y-39785D01*
X45250Y-39840D01*
X45250Y-40220D01*
X45223Y-40354D01*
X45154Y-40457D01*
X45154Y-40615D01*
X45116Y-40706D01*
X45046Y-40776D01*
X44954Y-40814D01*
X44949Y-40814D01*
X44949Y-41065D01*
X44911Y-41156D01*
X44841Y-41226D01*
X44749Y-41264D01*
X44554Y-41263D01*
X44550Y-41265D01*
X44389Y-41265D01*
X44389Y-41295D01*
X44393Y-41316D01*
X44545Y-41316D01*
M02*
