M48
;DRILL file {PCBnew (2010-05-05 BZR 2356)-stable} date 2010年10月26日 星期二 23时10分19秒
;FORMAT={-.-/ absolute / inch / decimal}
R,T
VER,1
FMAT,2
INCH,TZ
TCST,OFF
ICI,OFF
ATC,ON
T1C0.012
T2C0.025
T3C0.035
T4C0.039
%
M47
G05
M72
T1
X3.969Y-4.557
X3.981Y-4.064
X3.981Y-4.279
X3.985Y-4.930
X3.994Y-4.478
X3.995Y-4.443
X4.018Y-4.415
X4.040Y-4.888
X4.056Y-4.086
X4.062Y-4.518
X4.065Y-4.487
X4.072Y-4.740
X4.077Y-4.416
X4.081Y-4.581
X4.082Y-4.683
X4.089Y-4.263
X4.097Y-4.767
X4.099Y-4.212
X4.101Y-3.993
X4.104Y-4.493
X4.107Y-5.088
X4.118Y-4.398
X4.141Y-4.732
X4.156Y-4.417
X4.168Y-4.110
X4.169Y-4.886
X4.181Y-4.973
X4.187Y-4.500
X4.189Y-4.944
X4.196Y-4.768
X4.197Y-4.844
X4.214Y-5.040
X4.226Y-4.109
X4.250Y-4.943
X4.251Y-4.876
X4.288Y-4.401
X4.290Y-4.955
X4.298Y-4.269
X4.309Y-5.036
X4.325Y-4.285
X4.333Y-4.765
X4.333Y-4.843
X4.340Y-4.544
X4.358Y-4.932
X4.362Y-4.094
X4.409Y-4.311
X4.411Y-4.796
X4.420Y-3.972
X4.421Y-4.195
X4.476Y-4.921
X4.484Y-5.076
X4.489Y-4.247
X4.500Y-4.102
X4.512Y-4.934
X4.532Y-4.717
X4.542Y-4.657
X4.543Y-4.907
X4.546Y-4.548
X4.555Y-4.119
X4.556Y-4.519
X4.587Y-4.213
X4.601Y-4.499
X4.618Y-5.078
X4.629Y-4.385
X4.659Y-4.907
T2
X4.301Y-4.234
X4.343Y-4.136
X4.436Y-4.031
X4.494Y-4.167
T3
X4.650Y-4.437
X4.650Y-4.537
X4.650Y-4.637
X4.650Y-4.737
T4
X4.112Y-4.102
X4.278Y-4.102
T0
M30
