G04 (created by PCBNEW-RS274X (2010-05-05 BZR 2356)-stable) date 2010年10月26日 星期二 23时10分03秒*
G01*
G70*
G90*
%MOIN*%
G04 Gerber Fmt 3.4, Leading zero omitted, Abs format*
%FSLAX34Y34*%
G04 APERTURE LIST*
%ADD10C,0.006000*%
%ADD11C,0.015000*%
%ADD12R,0.018100X0.018100*%
%ADD13R,0.025000X0.045000*%
%ADD14R,0.060000X0.080000*%
%ADD15R,0.045000X0.020000*%
%ADD16R,0.030000X0.020000*%
%ADD17R,0.020000X0.030000*%
%ADD18R,0.039400X0.027600*%
%ADD19C,0.039400*%
%ADD20R,0.098400X0.039400*%
%ADD21R,0.059100X0.059100*%
%ADD22C,0.059100*%
%ADD23C,0.022000*%
%ADD24C,0.035000*%
%ADD25C,0.010000*%
%ADD26C,0.020000*%
G04 APERTURE END LIST*
G54D10*
G54D11*
X47244Y-41220D02*
X47244Y-41220D01*
X46732Y-41221D02*
X47244Y-41221D01*
X46732Y-39370D02*
X46732Y-41220D01*
X39370Y-51181D02*
X39370Y-39370D01*
X47244Y-51181D02*
X39370Y-51181D01*
X47244Y-41220D02*
X47244Y-51181D01*
X39370Y-39370D02*
X46732Y-39370D01*
G54D12*
X43370Y-50010D03*
X43720Y-50010D03*
X46520Y-48580D03*
X46870Y-48580D03*
X43720Y-49630D03*
X43370Y-49630D03*
X40810Y-46180D03*
X40810Y-46530D03*
X41250Y-44940D03*
X41600Y-44940D03*
X43720Y-50390D03*
X43370Y-50390D03*
X43720Y-50780D03*
X43370Y-50780D03*
X40250Y-41210D03*
X40250Y-40860D03*
X42390Y-50880D03*
X42040Y-50880D03*
X40840Y-50880D03*
X40490Y-50880D03*
X40580Y-41680D03*
X40930Y-41680D03*
X39800Y-43920D03*
X39800Y-43570D03*
G54D13*
X43598Y-42677D03*
X44198Y-42677D03*
X41820Y-45400D03*
X41220Y-45400D03*
G54D14*
X41720Y-39930D03*
X43020Y-39930D03*
G54D15*
X46670Y-50790D03*
X46670Y-50290D03*
X46670Y-49790D03*
X46670Y-49290D03*
X44170Y-49290D03*
X44170Y-49790D03*
X44170Y-50290D03*
X44170Y-50790D03*
G54D16*
X41430Y-50395D03*
X41430Y-49645D03*
X42430Y-50395D03*
X41430Y-50020D03*
X42430Y-49645D03*
G54D17*
X40655Y-43120D03*
X39905Y-43120D03*
X40655Y-42120D03*
X40280Y-43120D03*
X39905Y-42120D03*
G54D16*
X39860Y-50385D03*
X39860Y-49635D03*
X40860Y-50385D03*
X39860Y-50010D03*
X40860Y-49635D03*
G54D18*
X41510Y-42320D03*
X41510Y-41945D03*
X41510Y-41572D03*
X42454Y-41570D03*
X42454Y-41948D03*
X42454Y-42320D03*
G54D19*
X41123Y-41015D03*
X42777Y-41015D03*
G54D12*
X43622Y-42244D03*
X43972Y-42244D03*
X41810Y-45870D03*
X41460Y-45870D03*
G54D20*
X44729Y-43630D03*
X42642Y-43630D03*
X44729Y-44417D03*
X42642Y-44417D03*
X44729Y-45205D03*
X42642Y-45205D03*
X44729Y-45992D03*
X42642Y-45992D03*
X44729Y-46780D03*
X42642Y-46780D03*
X44729Y-47567D03*
X42642Y-47567D03*
X44729Y-48354D03*
X42642Y-48354D03*
G54D21*
X46496Y-47366D03*
G54D22*
X46496Y-46366D03*
X46496Y-45366D03*
X46496Y-44366D03*
G54D23*
X43400Y-45440D03*
X43330Y-47650D03*
X41040Y-44930D03*
X39810Y-40640D03*
X45550Y-41190D03*
X42510Y-48760D03*
X41410Y-47320D03*
X41960Y-47680D03*
X40720Y-47400D03*
X43090Y-50360D03*
X46180Y-50780D03*
X40810Y-45810D03*
G54D24*
X44940Y-41670D03*
X44360Y-40310D03*
G54D23*
X41680Y-41100D03*
X46010Y-44990D03*
X45460Y-45480D03*
X45560Y-45190D03*
X39950Y-44430D03*
X39940Y-44780D03*
X40620Y-45180D03*
X41970Y-48440D03*
X41690Y-48860D03*
X41890Y-49440D03*
X42900Y-49550D03*
X43580Y-49320D03*
X42500Y-49430D03*
X40650Y-44870D03*
X42260Y-41090D03*
G54D24*
X43430Y-41360D03*
X43010Y-42340D03*
G54D23*
X44094Y-43110D03*
X45000Y-41024D03*
X45866Y-42126D03*
X44200Y-39720D03*
X40180Y-44150D03*
X41180Y-43980D03*
X44110Y-47960D03*
X44760Y-49210D03*
X42880Y-44010D03*
X40770Y-44160D03*
X41560Y-44170D03*
X42980Y-42690D03*
X40990Y-42120D03*
X46590Y-49070D03*
X43330Y-48430D03*
X40820Y-46830D03*
X40970Y-47670D03*
X40400Y-48880D03*
X39850Y-49300D03*
X41810Y-49730D03*
X41870Y-45000D03*
X43248Y-42854D03*
X45420Y-46570D03*
X45430Y-49070D03*
X45120Y-49340D03*
X45320Y-47170D03*
X39690Y-45570D03*
G54D24*
X40560Y-40860D03*
X43620Y-40940D03*
X44210Y-41950D03*
X41010Y-39930D03*
G54D23*
X39810Y-42790D03*
X44890Y-42470D03*
X44840Y-50760D03*
X41070Y-50880D03*
X42140Y-50400D03*
X40890Y-42630D03*
X46290Y-43850D03*
G54D25*
X43400Y-45440D02*
X43330Y-45510D01*
X43330Y-45510D02*
X43330Y-47650D01*
X41250Y-44940D02*
X40990Y-44940D01*
X40990Y-44940D02*
X41040Y-44930D01*
X46670Y-50790D02*
X46190Y-50790D01*
X46190Y-50790D02*
X46180Y-50780D01*
X39830Y-40640D02*
X39810Y-40640D01*
X39970Y-40500D02*
X39830Y-40640D01*
X43450Y-40500D02*
X39970Y-40500D01*
X43950Y-40000D02*
X43450Y-40500D01*
X44680Y-40000D02*
X43950Y-40000D01*
X45210Y-40530D02*
X44680Y-40000D01*
X45210Y-40850D02*
X45210Y-40530D01*
X45550Y-41190D02*
X45210Y-40850D01*
X42330Y-50100D02*
X43050Y-50100D01*
X42130Y-49900D02*
X42330Y-50100D01*
X42130Y-49140D02*
X42130Y-49900D01*
X42510Y-48760D02*
X42130Y-49140D01*
X41600Y-47320D02*
X41410Y-47320D01*
X41960Y-47680D02*
X41600Y-47320D01*
X46275Y-48815D02*
X46275Y-49790D01*
X46275Y-49790D02*
X46270Y-49790D01*
X40810Y-45810D02*
X40710Y-45810D01*
X40510Y-47190D02*
X40720Y-47400D01*
X40510Y-46010D02*
X40510Y-47190D01*
X40710Y-45810D02*
X40510Y-46010D01*
X43120Y-50390D02*
X43370Y-50390D01*
X43090Y-50360D02*
X43120Y-50390D01*
X43190Y-50380D02*
X43360Y-50380D01*
X43050Y-50100D02*
X43050Y-50240D01*
X43190Y-50380D02*
X43050Y-50240D01*
X43360Y-50380D02*
X43370Y-50390D01*
X43370Y-49630D02*
X43200Y-49630D01*
X43200Y-49630D02*
X43050Y-49780D01*
X43050Y-49780D02*
X43050Y-50100D01*
X43260Y-49630D02*
X43370Y-49630D01*
X43370Y-50390D02*
X43370Y-50780D01*
X46670Y-49790D02*
X46270Y-49790D01*
X46270Y-49790D02*
X46180Y-49880D01*
X46520Y-48580D02*
X46510Y-48580D01*
X46180Y-49880D02*
X46180Y-50780D01*
X46510Y-48580D02*
X46275Y-48815D01*
X40810Y-45810D02*
X40810Y-46180D01*
G54D26*
X44610Y-41670D02*
X44940Y-41670D01*
X44540Y-41600D02*
X44610Y-41670D01*
X44540Y-40490D02*
X44540Y-41600D01*
X44360Y-40310D02*
X44540Y-40490D01*
G54D10*
X41510Y-42320D02*
X41770Y-42320D01*
X41830Y-41250D02*
X41680Y-41100D01*
X41830Y-42260D02*
X41830Y-41250D01*
X41770Y-42320D02*
X41830Y-42260D01*
X44170Y-50790D02*
X44400Y-50790D01*
X46010Y-44990D02*
X45930Y-45110D01*
X45930Y-45110D02*
X45930Y-49260D01*
X45930Y-49260D02*
X44400Y-50790D01*
X43720Y-50780D02*
X44170Y-50790D01*
X45686Y-49162D02*
X45686Y-45706D01*
X45058Y-49790D02*
X45686Y-49162D01*
X44170Y-49790D02*
X45058Y-49790D01*
X45686Y-45706D02*
X45460Y-45480D01*
X43720Y-50010D02*
X44060Y-50010D01*
X44060Y-50010D02*
X44170Y-49900D01*
X44170Y-49900D02*
X44170Y-49790D01*
X45808Y-45438D02*
X45560Y-45190D01*
X44400Y-50281D02*
X44179Y-50281D01*
X44179Y-50281D02*
X44170Y-50290D01*
X45808Y-49211D02*
X45808Y-45438D01*
X44738Y-50281D02*
X44400Y-50281D01*
X44738Y-50281D02*
X45808Y-49211D01*
X44430Y-50280D02*
X44400Y-50281D01*
X43720Y-50390D02*
X44180Y-50390D01*
X44180Y-50390D02*
X44170Y-50290D01*
X39980Y-45470D02*
X39980Y-48880D01*
X39980Y-48880D02*
X39610Y-49250D01*
X39780Y-44430D02*
X39950Y-44430D01*
X39730Y-44480D02*
X39780Y-44430D01*
X39730Y-45220D02*
X39730Y-44480D01*
X39980Y-45470D02*
X39730Y-45220D01*
X39860Y-50010D02*
X39690Y-50010D01*
X39690Y-50010D02*
X39610Y-49930D01*
X39610Y-49930D02*
X39610Y-49250D01*
X40120Y-45790D02*
X40120Y-49160D01*
X40300Y-49620D02*
X40700Y-50020D01*
X40120Y-49160D02*
X40300Y-49340D01*
X40300Y-49340D02*
X40300Y-49620D01*
X40700Y-50020D02*
X41430Y-50020D01*
X40120Y-45410D02*
X40120Y-45790D01*
X39940Y-45230D02*
X40120Y-45410D01*
X39940Y-44780D02*
X39940Y-45230D01*
X40280Y-43330D02*
X40430Y-43480D01*
X40430Y-44990D02*
X40620Y-45180D01*
X40430Y-43480D02*
X40430Y-44990D01*
X40280Y-43120D02*
X40280Y-43330D01*
X41690Y-48720D02*
X41690Y-48860D01*
X41970Y-48440D02*
X41690Y-48720D01*
X40860Y-49635D02*
X40915Y-49635D01*
X41110Y-49440D02*
X41890Y-49440D01*
X40915Y-49635D02*
X41110Y-49440D01*
X44729Y-45205D02*
X44735Y-45205D01*
X44140Y-46400D02*
X43738Y-46802D01*
X45270Y-46400D02*
X44140Y-46400D01*
X45470Y-46200D02*
X45270Y-46400D01*
X45470Y-45780D02*
X45470Y-46200D01*
X45380Y-45690D02*
X45470Y-45780D01*
X45220Y-45690D02*
X45380Y-45690D01*
X44735Y-45205D02*
X45220Y-45690D01*
X43738Y-48750D02*
X43738Y-48902D01*
X43600Y-49040D02*
X43460Y-49040D01*
X43738Y-48902D02*
X43600Y-49040D01*
X43460Y-49040D02*
X42950Y-49550D01*
X42950Y-49550D02*
X42900Y-49550D01*
X43738Y-48750D02*
X43738Y-46802D01*
X43860Y-49040D02*
X43860Y-47030D01*
X43860Y-47030D02*
X44110Y-46780D01*
X44729Y-46780D02*
X44110Y-46780D01*
X43860Y-49040D02*
X43580Y-49320D01*
X42430Y-49500D02*
X42430Y-49645D01*
X42500Y-49430D02*
X42430Y-49500D01*
X44729Y-45992D02*
X44432Y-45992D01*
X40940Y-44580D02*
X40650Y-44870D01*
X41980Y-44580D02*
X40940Y-44580D01*
X42160Y-44760D02*
X41980Y-44580D01*
X43200Y-44760D02*
X42160Y-44760D01*
X44432Y-45992D02*
X43200Y-44760D01*
X44729Y-44417D02*
X44487Y-44417D01*
X39900Y-42120D02*
X39905Y-42120D01*
X40620Y-42840D02*
X39900Y-42120D01*
X42540Y-42840D02*
X40620Y-42840D01*
X43040Y-43340D02*
X42540Y-42840D01*
X43410Y-43340D02*
X43040Y-43340D01*
X44487Y-44417D02*
X43410Y-43340D01*
X42454Y-42320D02*
X42190Y-42320D01*
X42190Y-42320D02*
X42130Y-42260D01*
X42130Y-42260D02*
X42130Y-41220D01*
X42130Y-41220D02*
X42260Y-41090D01*
G54D26*
X42454Y-41948D02*
X42842Y-41948D01*
X42842Y-41948D02*
X43430Y-41360D01*
X42456Y-41950D02*
X42454Y-41948D01*
X42840Y-41950D02*
X42456Y-41950D01*
X43010Y-42120D02*
X42840Y-41950D01*
X43010Y-42340D02*
X43010Y-42120D01*
G54D25*
X44198Y-42677D02*
X44198Y-42568D01*
X43972Y-42342D02*
X43972Y-42244D01*
X44198Y-42568D02*
X43972Y-42342D01*
X44198Y-43006D02*
X44198Y-42677D01*
X44094Y-43110D02*
X44198Y-43006D01*
X45866Y-41890D02*
X45866Y-42126D01*
X45866Y-41890D02*
X45000Y-41024D01*
X43280Y-39670D02*
X43020Y-39930D01*
X44150Y-39670D02*
X43280Y-39670D01*
X44200Y-39720D02*
X44150Y-39670D01*
X41170Y-43990D02*
X41170Y-44160D01*
X41180Y-43980D02*
X41170Y-43990D01*
X41220Y-45400D02*
X40810Y-45400D01*
X40810Y-45400D02*
X40710Y-45500D01*
X40710Y-45500D02*
X40550Y-45500D01*
X40550Y-45500D02*
X40180Y-45130D01*
X40180Y-45130D02*
X40180Y-44150D01*
X39905Y-43295D02*
X39905Y-43120D01*
X40180Y-44150D02*
X40180Y-43570D01*
X40180Y-43570D02*
X39905Y-43295D01*
X44050Y-48020D02*
X44110Y-47960D01*
X44050Y-48680D02*
X44050Y-48020D01*
X44130Y-48760D02*
X44050Y-48680D01*
X44310Y-48760D02*
X44130Y-48760D01*
X44760Y-49210D02*
X44310Y-48760D01*
X42642Y-43772D02*
X42642Y-43630D01*
X42880Y-44010D02*
X42642Y-43772D01*
X42642Y-43630D02*
X41970Y-43630D01*
X41970Y-43630D02*
X41560Y-44040D01*
X41560Y-44040D02*
X41560Y-44170D01*
X41550Y-44160D02*
X41170Y-44160D01*
X41170Y-44160D02*
X40770Y-44160D01*
X41560Y-44170D02*
X41550Y-44160D01*
X41600Y-44940D02*
X41600Y-44870D01*
X42405Y-45205D02*
X42642Y-45205D01*
X41930Y-44730D02*
X42405Y-45205D01*
X41740Y-44730D02*
X41930Y-44730D01*
X41600Y-44870D02*
X41740Y-44730D01*
X41600Y-44940D02*
X41600Y-45020D01*
X41600Y-45020D02*
X41220Y-45400D01*
X42642Y-43630D02*
X42642Y-44417D01*
X43131Y-42630D02*
X43040Y-42630D01*
X43131Y-42630D02*
X43380Y-42381D01*
X43380Y-42381D02*
X43380Y-42111D01*
X43380Y-42111D02*
X43470Y-42021D01*
X43470Y-42021D02*
X43849Y-42021D01*
X43849Y-42021D02*
X43970Y-42142D01*
X43970Y-42360D02*
X43970Y-42142D01*
X43040Y-42630D02*
X42980Y-42690D01*
X44090Y-42480D02*
X44090Y-42850D01*
X43970Y-42360D02*
X44090Y-42480D01*
X40250Y-41210D02*
X40090Y-41210D01*
X40090Y-41210D02*
X39680Y-41620D01*
X39680Y-41620D02*
X39680Y-42340D01*
X39680Y-42340D02*
X39760Y-42420D01*
X39760Y-42420D02*
X39880Y-42420D01*
X39880Y-42420D02*
X40040Y-42580D01*
X40040Y-42580D02*
X40040Y-42985D01*
X40040Y-42985D02*
X39905Y-43120D01*
X40930Y-42060D02*
X40930Y-41680D01*
X40990Y-42120D02*
X40930Y-42060D01*
X40250Y-41210D02*
X40600Y-41210D01*
X40930Y-41540D02*
X40930Y-41680D01*
X40600Y-41210D02*
X40930Y-41540D01*
X40930Y-41680D02*
X41200Y-41950D01*
X41200Y-41950D02*
X41505Y-41950D01*
X41505Y-41950D02*
X41510Y-41945D01*
X46670Y-49150D02*
X46670Y-49290D01*
X46590Y-49070D02*
X46670Y-49150D01*
X42642Y-48354D02*
X43254Y-48354D01*
X43254Y-48354D02*
X43330Y-48430D01*
X40820Y-46830D02*
X40930Y-46830D01*
X41140Y-47500D02*
X40970Y-47670D01*
X41140Y-47040D02*
X41140Y-47500D01*
X40930Y-46830D02*
X41140Y-47040D01*
X41220Y-45400D02*
X41220Y-45790D01*
X41300Y-45870D02*
X41460Y-45870D01*
X41220Y-45790D02*
X41300Y-45870D01*
X40810Y-46530D02*
X41290Y-46530D01*
X41460Y-46360D02*
X41460Y-45870D01*
X41290Y-46530D02*
X41460Y-46360D01*
X40810Y-46820D02*
X40810Y-46530D01*
X40820Y-46830D02*
X40810Y-46820D01*
X40970Y-47670D02*
X40400Y-48240D01*
X40400Y-48240D02*
X40400Y-48880D01*
X39860Y-49310D02*
X39860Y-49635D01*
X39850Y-49300D02*
X39860Y-49310D01*
X41810Y-49730D02*
X41810Y-49740D01*
X41810Y-49740D02*
X41715Y-49645D01*
X41715Y-49645D02*
X41430Y-49645D01*
X39860Y-49635D02*
X40095Y-49635D01*
X40490Y-50030D02*
X40490Y-50880D01*
X40095Y-49635D02*
X40490Y-50030D01*
X41900Y-50880D02*
X42040Y-50880D01*
X41810Y-50790D02*
X41900Y-50880D01*
X41810Y-49740D02*
X41810Y-50790D01*
X46670Y-49290D02*
X46900Y-49290D01*
X46930Y-50290D02*
X46670Y-50290D01*
X47020Y-50200D02*
X46930Y-50290D01*
X47020Y-49410D02*
X47020Y-50200D01*
X46900Y-49290D02*
X47020Y-49410D01*
X46870Y-48580D02*
X46870Y-49200D01*
X46870Y-49200D02*
X46670Y-49290D01*
X42642Y-45205D02*
X42642Y-45992D01*
X42642Y-45992D02*
X42642Y-46780D01*
X42642Y-46780D02*
X42642Y-47567D01*
X42642Y-47567D02*
X42642Y-48354D01*
G54D10*
X41820Y-45050D02*
X41820Y-45400D01*
X41870Y-45000D02*
X41820Y-45050D01*
X41820Y-45400D02*
X41820Y-45860D01*
X41820Y-45860D02*
X41810Y-45870D01*
X43425Y-42677D02*
X43598Y-42677D01*
X43248Y-42854D02*
X43425Y-42677D01*
X43598Y-42677D02*
X43598Y-42268D01*
X43598Y-42268D02*
X43622Y-42244D01*
X45564Y-46710D02*
X45560Y-46710D01*
X45560Y-46710D02*
X45420Y-46570D01*
X45564Y-46710D02*
X45564Y-48936D01*
X45564Y-48936D02*
X45430Y-49070D01*
X43370Y-50010D02*
X43370Y-49980D01*
X43370Y-49980D02*
X43720Y-49630D01*
X43720Y-49630D02*
X43720Y-49650D01*
X44083Y-49287D02*
X44170Y-49290D01*
X43720Y-49650D02*
X44083Y-49287D01*
X45120Y-48980D02*
X45120Y-49340D01*
X45440Y-48660D02*
X45120Y-48980D01*
X45440Y-47290D02*
X45440Y-48660D01*
X45320Y-47170D02*
X45440Y-47290D01*
X39600Y-45480D02*
X39600Y-44090D01*
X39800Y-43920D02*
X39770Y-43920D01*
X39770Y-43920D02*
X39600Y-44090D01*
X39600Y-45480D02*
X39690Y-45570D01*
G54D26*
X40250Y-40860D02*
X40560Y-40860D01*
X44220Y-41940D02*
X44220Y-41540D01*
X43620Y-40940D02*
X44220Y-41540D01*
X44220Y-41940D02*
X44210Y-41950D01*
X41720Y-39930D02*
X41010Y-39930D01*
G54D25*
X39690Y-42940D02*
X39680Y-42940D01*
X39680Y-42950D02*
X39690Y-42940D01*
X39680Y-42920D02*
X39680Y-42950D01*
X39810Y-42790D02*
X39680Y-42920D01*
X44729Y-43630D02*
X44729Y-42631D01*
X44729Y-42631D02*
X44890Y-42470D01*
X46080Y-48620D02*
X46080Y-49520D01*
X46080Y-49520D02*
X44840Y-50760D01*
X46960Y-47740D02*
X46080Y-48620D01*
X46960Y-44140D02*
X46960Y-47740D01*
X46670Y-43850D02*
X46960Y-44140D01*
X46290Y-43850D02*
X46670Y-43850D01*
X40840Y-50880D02*
X41070Y-50880D01*
X42145Y-50395D02*
X42430Y-50395D01*
X42140Y-50400D02*
X42145Y-50395D01*
X41995Y-50395D02*
X42430Y-50395D01*
X39800Y-43570D02*
X39800Y-43500D01*
X39800Y-43500D02*
X39680Y-43380D01*
X39680Y-42940D02*
X39680Y-43380D01*
X42430Y-50395D02*
X42430Y-50840D01*
X42430Y-50840D02*
X42390Y-50880D01*
X40860Y-50385D02*
X40860Y-50860D01*
X40860Y-50860D02*
X40840Y-50880D01*
X40890Y-42630D02*
X42560Y-42630D01*
X44140Y-43630D02*
X44729Y-43630D01*
X43700Y-43190D02*
X44140Y-43630D01*
X43120Y-43190D02*
X43700Y-43190D01*
X42560Y-42630D02*
X43120Y-43190D01*
X40655Y-42120D02*
X40655Y-42395D01*
X40655Y-42395D02*
X40890Y-42630D01*
X40580Y-41680D02*
X40580Y-42045D01*
X40580Y-42045D02*
X40655Y-42120D01*
X41798Y-50617D02*
X41798Y-50617D01*
X41730Y-50697D02*
X41928Y-50697D01*
X41417Y-50777D02*
X42051Y-50777D01*
X41430Y-50857D02*
X42051Y-50857D01*
X40259Y-49975D02*
X40259Y-49975D01*
X40259Y-50055D02*
X40339Y-50055D01*
X40259Y-50135D02*
X40419Y-50135D01*
X40251Y-50215D02*
X40470Y-50215D01*
X40259Y-50295D02*
X40461Y-50295D01*
X40259Y-50375D02*
X40461Y-50375D01*
X40259Y-50455D02*
X40461Y-50455D01*
X40259Y-50535D02*
X40461Y-50535D01*
X40225Y-50615D02*
X40494Y-50615D01*
X40152Y-50695D02*
X40519Y-50695D01*
X39645Y-50775D02*
X40501Y-50775D01*
X39645Y-50855D02*
X40501Y-50855D01*
X46969Y-50128D02*
X46969Y-50128D01*
X46480Y-50208D02*
X46969Y-50208D01*
X46480Y-50288D02*
X46969Y-50288D01*
X46480Y-50368D02*
X46969Y-50368D01*
X46962Y-50448D02*
X46969Y-50448D01*
X44140Y-48780D02*
X44140Y-48780D01*
X44140Y-48860D02*
X44870Y-48860D01*
X44140Y-48940D02*
X44848Y-48940D01*
X44577Y-49020D02*
X44840Y-49020D01*
X44628Y-49100D02*
X44840Y-49100D01*
X44644Y-49180D02*
X44797Y-49180D01*
X44644Y-49260D02*
X44764Y-49260D01*
X44644Y-49340D02*
X44760Y-49340D01*
X44644Y-49420D02*
X44763Y-49420D01*
X44618Y-49500D02*
X44796Y-49500D01*
X46969Y-48155D02*
X46969Y-48155D01*
X46888Y-48235D02*
X46969Y-48235D01*
X46807Y-48315D02*
X46969Y-48315D01*
X46840Y-48395D02*
X46969Y-48395D01*
X46859Y-48475D02*
X46969Y-48475D01*
X46859Y-48555D02*
X46969Y-48555D01*
X46859Y-48635D02*
X46969Y-48635D01*
X46859Y-48715D02*
X46969Y-48715D01*
X46827Y-48795D02*
X46969Y-48795D01*
X46757Y-48875D02*
X46969Y-48875D01*
X46575Y-48955D02*
X46969Y-48955D01*
X46575Y-49035D02*
X46969Y-49035D01*
X46575Y-49115D02*
X46969Y-49115D01*
X46575Y-49195D02*
X46969Y-49195D01*
X46575Y-49275D02*
X46969Y-49275D01*
X46575Y-49355D02*
X46969Y-49355D01*
X46575Y-49435D02*
X46969Y-49435D01*
X42230Y-45040D02*
X43083Y-45040D01*
X42209Y-45120D02*
X43163Y-45120D01*
X42194Y-45200D02*
X43131Y-45200D01*
X41134Y-45280D02*
X41446Y-45280D01*
X42194Y-45280D02*
X43077Y-45280D01*
X40934Y-45360D02*
X41446Y-45360D01*
X42194Y-45360D02*
X43044Y-45360D01*
X40868Y-45440D02*
X41446Y-45440D01*
X42194Y-45440D02*
X43040Y-45440D01*
X41029Y-45520D02*
X41446Y-45520D01*
X42194Y-45520D02*
X43030Y-45520D01*
X41109Y-45600D02*
X41446Y-45600D01*
X42194Y-45600D02*
X43030Y-45600D01*
X41146Y-45680D02*
X41448Y-45680D01*
X42191Y-45680D02*
X43030Y-45680D01*
X41170Y-45760D02*
X41471Y-45760D01*
X42158Y-45760D02*
X43030Y-45760D01*
X41170Y-45840D02*
X41471Y-45840D01*
X42149Y-45840D02*
X43030Y-45840D01*
X41153Y-45920D02*
X41471Y-45920D01*
X42149Y-45920D02*
X43030Y-45920D01*
X41132Y-46000D02*
X41471Y-46000D01*
X42149Y-46000D02*
X43030Y-46000D01*
X41149Y-46080D02*
X41500Y-46080D01*
X42119Y-46080D02*
X43030Y-46080D01*
X41149Y-46160D02*
X41568Y-46160D01*
X42052Y-46160D02*
X43030Y-46160D01*
X41149Y-46240D02*
X43030Y-46240D01*
X41149Y-46320D02*
X43030Y-46320D01*
X41115Y-46400D02*
X43030Y-46400D01*
X41042Y-46480D02*
X43030Y-46480D01*
X40810Y-46560D02*
X43030Y-46560D01*
X40810Y-46640D02*
X43030Y-46640D01*
X40810Y-46720D02*
X43030Y-46720D01*
X40810Y-46800D02*
X43030Y-46800D01*
X40810Y-46880D02*
X43030Y-46880D01*
X40810Y-46960D02*
X41339Y-46960D01*
X41482Y-46960D02*
X43030Y-46960D01*
X40810Y-47040D02*
X41182Y-47040D01*
X41701Y-47040D02*
X43030Y-47040D01*
X40949Y-47120D02*
X41104Y-47120D01*
X41824Y-47120D02*
X43030Y-47120D01*
X41027Y-47200D02*
X41070Y-47200D01*
X41904Y-47200D02*
X43030Y-47200D01*
X41984Y-47280D02*
X43030Y-47280D01*
X42128Y-47360D02*
X43030Y-47360D01*
X42229Y-47440D02*
X43030Y-47440D01*
X41060Y-47520D02*
X41103Y-47520D01*
X42283Y-47520D02*
X42995Y-47520D01*
X40400Y-47600D02*
X40413Y-47600D01*
X41026Y-47600D02*
X41181Y-47600D01*
X42317Y-47600D02*
X42970Y-47600D01*
X40400Y-47680D02*
X40491Y-47680D01*
X40948Y-47680D02*
X41536Y-47680D01*
X42320Y-47680D02*
X42970Y-47680D01*
X40400Y-47760D02*
X41603Y-47760D01*
X42316Y-47760D02*
X42986Y-47760D01*
X40400Y-47840D02*
X41637Y-47840D01*
X42283Y-47840D02*
X43019Y-47840D01*
X40400Y-47920D02*
X41691Y-47920D01*
X42228Y-47920D02*
X43091Y-47920D01*
X40400Y-48000D02*
X41792Y-48000D01*
X42127Y-48000D02*
X43234Y-48000D01*
X43424Y-48000D02*
X43458Y-48000D01*
X40400Y-48080D02*
X41899Y-48080D01*
X42042Y-48080D02*
X43458Y-48080D01*
X40400Y-48160D02*
X41742Y-48160D01*
X42199Y-48160D02*
X43458Y-48160D01*
X40400Y-48240D02*
X41664Y-48240D01*
X42277Y-48240D02*
X43458Y-48240D01*
X40400Y-48320D02*
X41630Y-48320D01*
X42310Y-48320D02*
X43458Y-48320D01*
X40400Y-48400D02*
X41610Y-48400D01*
X42330Y-48400D02*
X42439Y-48400D01*
X42582Y-48400D02*
X43458Y-48400D01*
X40400Y-48480D02*
X41534Y-48480D01*
X42739Y-48480D02*
X43458Y-48480D01*
X40400Y-48560D02*
X41467Y-48560D01*
X42817Y-48560D02*
X43458Y-48560D01*
X40400Y-48640D02*
X41401Y-48640D01*
X42850Y-48640D02*
X43458Y-48640D01*
X40400Y-48720D02*
X41359Y-48720D01*
X42870Y-48720D02*
X43458Y-48720D01*
X40400Y-48800D02*
X41330Y-48800D01*
X42870Y-48800D02*
X43324Y-48800D01*
X40400Y-48880D02*
X41330Y-48880D01*
X42850Y-48880D02*
X43223Y-48880D01*
X40400Y-48960D02*
X41342Y-48960D01*
X42816Y-48960D02*
X43143Y-48960D01*
X40400Y-49040D02*
X41375Y-49040D01*
X42738Y-49040D02*
X43063Y-49040D01*
X40476Y-49120D02*
X41441Y-49120D01*
X42693Y-49120D02*
X42983Y-49120D01*
X40537Y-49200D02*
X40975Y-49200D01*
X42779Y-49200D02*
X42804Y-49200D01*
X40569Y-49280D02*
X40874Y-49280D01*
X41004Y-43120D02*
X42423Y-43120D01*
X41004Y-43200D02*
X42503Y-43200D01*
X41004Y-43280D02*
X42583Y-43280D01*
X40987Y-43360D02*
X42663Y-43360D01*
X40937Y-43440D02*
X42743Y-43440D01*
X40710Y-43520D02*
X42823Y-43520D01*
X40710Y-43600D02*
X42937Y-43600D01*
X40710Y-43680D02*
X43353Y-43680D01*
X40710Y-43760D02*
X43433Y-43760D01*
X40710Y-43840D02*
X43513Y-43840D01*
X40710Y-43920D02*
X43593Y-43920D01*
X40710Y-44000D02*
X43673Y-44000D01*
X40710Y-44080D02*
X43753Y-44080D01*
X40710Y-44160D02*
X43833Y-44160D01*
X40710Y-44240D02*
X43913Y-44240D01*
X40710Y-44320D02*
X40838Y-44320D01*
X42082Y-44320D02*
X43988Y-44320D01*
X40710Y-44400D02*
X40724Y-44400D01*
X42197Y-44400D02*
X43988Y-44400D01*
X43200Y-44480D02*
X43988Y-44480D01*
X43396Y-44560D02*
X43988Y-44560D01*
X43476Y-44640D02*
X43988Y-44640D01*
X43556Y-44720D02*
X44011Y-44720D01*
X43636Y-44800D02*
X44071Y-44800D01*
X43716Y-44880D02*
X44021Y-44880D01*
X43796Y-44960D02*
X43988Y-44960D01*
X43876Y-45040D02*
X43988Y-45040D01*
X43956Y-45120D02*
X43988Y-45120D01*
X42269Y-39645D02*
X46457Y-39645D01*
X42269Y-39725D02*
X43832Y-39725D01*
X44798Y-39725D02*
X46457Y-39725D01*
X42269Y-39805D02*
X43720Y-39805D01*
X44910Y-39805D02*
X46457Y-39805D01*
X42269Y-39885D02*
X43640Y-39885D01*
X44990Y-39885D02*
X46457Y-39885D01*
X42269Y-39965D02*
X43560Y-39965D01*
X45070Y-39965D02*
X46457Y-39965D01*
X42269Y-40045D02*
X43480Y-40045D01*
X45150Y-40045D02*
X46457Y-40045D01*
X42269Y-40125D02*
X43400Y-40125D01*
X45230Y-40125D02*
X46457Y-40125D01*
X45310Y-40205D02*
X46457Y-40205D01*
X45390Y-40285D02*
X46457Y-40285D01*
X45454Y-40365D02*
X46457Y-40365D01*
X45493Y-40445D02*
X46457Y-40445D01*
X45509Y-40525D02*
X46457Y-40525D01*
X45510Y-40605D02*
X46457Y-40605D01*
X45510Y-40685D02*
X46457Y-40685D01*
X45550Y-40765D02*
X46457Y-40765D01*
X45658Y-40845D02*
X46457Y-40845D01*
X45794Y-40925D02*
X46457Y-40925D01*
X45863Y-41005D02*
X46457Y-41005D01*
X45896Y-41085D02*
X46457Y-41085D01*
X45910Y-41165D02*
X46457Y-41165D01*
X45910Y-41245D02*
X46461Y-41245D01*
X45883Y-41325D02*
X46477Y-41325D01*
X45843Y-41405D02*
X46531Y-41405D01*
X45324Y-41485D02*
X45336Y-41485D01*
X45763Y-41485D02*
X46677Y-41485D01*
X45357Y-41565D02*
X46969Y-41565D01*
X45365Y-41645D02*
X46969Y-41645D01*
X45365Y-41725D02*
X46969Y-41725D01*
X45344Y-41805D02*
X46969Y-41805D01*
X45310Y-41885D02*
X46969Y-41885D01*
X45246Y-41965D02*
X46969Y-41965D01*
X44630Y-42045D02*
X44735Y-42045D01*
X45145Y-42045D02*
X46969Y-42045D01*
X44597Y-42125D02*
X44783Y-42125D01*
X44998Y-42125D02*
X46969Y-42125D01*
X44556Y-42205D02*
X44647Y-42205D01*
X45134Y-42205D02*
X46969Y-42205D01*
X44476Y-42285D02*
X44578Y-42285D01*
X45203Y-42285D02*
X46969Y-42285D01*
X43961Y-42365D02*
X44101Y-42365D01*
X44318Y-42365D02*
X44544Y-42365D01*
X45236Y-42365D02*
X46969Y-42365D01*
X43972Y-42445D02*
X44500Y-42445D01*
X45250Y-42445D02*
X46969Y-42445D01*
X43972Y-42525D02*
X44451Y-42525D01*
X45250Y-42525D02*
X46969Y-42525D01*
X43972Y-42605D02*
X44435Y-42605D01*
X45223Y-42605D02*
X46969Y-42605D01*
X43972Y-42685D02*
X44429Y-42685D01*
X45183Y-42685D02*
X46969Y-42685D01*
X43972Y-42765D02*
X44429Y-42765D01*
X45103Y-42765D02*
X46969Y-42765D01*
X43972Y-42845D02*
X44429Y-42845D01*
X45029Y-42845D02*
X46969Y-42845D01*
X43972Y-42925D02*
X44429Y-42925D01*
X45029Y-42925D02*
X46969Y-42925D01*
X43949Y-43005D02*
X44429Y-43005D01*
X45029Y-43005D02*
X46969Y-43005D01*
X44019Y-43085D02*
X44429Y-43085D01*
X45029Y-43085D02*
X46969Y-43085D01*
X44099Y-43165D02*
X44429Y-43165D01*
X45029Y-43165D02*
X46969Y-43165D01*
X45385Y-43245D02*
X46969Y-43245D01*
X45446Y-43325D02*
X46969Y-43325D01*
X45470Y-43405D02*
X46969Y-43405D01*
X45470Y-43485D02*
X46969Y-43485D01*
X45470Y-43565D02*
X46067Y-43565D01*
X46745Y-43565D02*
X46969Y-43565D01*
X45470Y-43645D02*
X45987Y-43645D01*
X46889Y-43645D02*
X46969Y-43645D01*
X45470Y-43725D02*
X45953Y-43725D01*
X45470Y-43805D02*
X45930Y-43805D01*
X45466Y-43885D02*
X45930Y-43885D01*
X45433Y-43965D02*
X45948Y-43965D01*
X45398Y-44045D02*
X45981Y-44045D01*
X45451Y-44125D02*
X46056Y-44125D01*
X45470Y-44205D02*
X46206Y-44205D01*
X46373Y-44205D02*
X46601Y-44205D01*
X45470Y-44285D02*
X46660Y-44285D01*
X45470Y-44365D02*
X46660Y-44365D01*
X45470Y-44445D02*
X46660Y-44445D01*
X45470Y-44525D02*
X46660Y-44525D01*
X45470Y-44605D02*
X46660Y-44605D01*
X45461Y-44685D02*
X45807Y-44685D01*
X46214Y-44685D02*
X46660Y-44685D01*
X45421Y-44765D02*
X45727Y-44765D01*
X46294Y-44765D02*
X46660Y-44765D01*
X45410Y-44845D02*
X45452Y-44845D01*
X45669Y-44845D02*
X45680Y-44845D01*
X39645Y-40961D02*
X39645Y-40961D01*
X39645Y-41041D02*
X39928Y-41041D01*
X39645Y-41121D02*
X39979Y-41121D01*
X39645Y-41201D02*
X40205Y-41201D01*
X39645Y-41281D02*
X40465Y-41281D01*
X40653Y-41281D02*
X40758Y-41281D01*
X39645Y-41361D02*
X40393Y-41361D01*
X40768Y-41361D02*
X40838Y-41361D01*
X39645Y-41441D02*
X40287Y-41441D01*
X40873Y-41441D02*
X40985Y-41441D01*
X39645Y-41521D02*
X40249Y-41521D01*
X40911Y-41521D02*
X41064Y-41521D01*
X39645Y-41601D02*
X40241Y-41601D01*
X40919Y-41601D02*
X41064Y-41601D01*
X39645Y-41681D02*
X40241Y-41681D01*
X40919Y-41681D02*
X41064Y-41681D01*
X39645Y-41761D02*
X39662Y-41761D01*
X40148Y-41761D02*
X40241Y-41761D01*
X40919Y-41761D02*
X41064Y-41761D01*
X40221Y-41841D02*
X40250Y-41841D01*
X40971Y-41841D02*
X41097Y-41841D01*
X40254Y-41921D02*
X40280Y-41921D01*
X41004Y-41921D02*
X41172Y-41921D01*
X40254Y-42001D02*
X40280Y-42001D01*
X41004Y-42001D02*
X41142Y-42001D01*
X40257Y-42081D02*
X40286Y-42081D01*
X41004Y-42081D02*
X41086Y-42081D01*
X41004Y-42161D02*
X41064Y-42161D01*
X41004Y-42241D02*
X41064Y-42241D01*
X42051Y-50906D02*
X42051Y-50752D01*
X41936Y-50705D01*
X41909Y-50677D01*
X41880Y-50672D01*
X41798Y-50617D01*
X41791Y-50636D01*
X41721Y-50706D01*
X41629Y-50744D01*
X41402Y-50744D01*
X41430Y-50809D01*
X41430Y-50906D01*
X42051Y-50906D01*
X41798Y-50617D02*
X41798Y-50617D01*
X41730Y-50697D02*
X41928Y-50697D01*
X41417Y-50777D02*
X42051Y-50777D01*
X41430Y-50857D02*
X42051Y-50857D01*
X40259Y-49975D02*
X40259Y-49975D01*
X40259Y-50055D02*
X40339Y-50055D01*
X40259Y-50135D02*
X40419Y-50135D01*
X40251Y-50215D02*
X40470Y-50215D01*
X40259Y-50295D02*
X40461Y-50295D01*
X40259Y-50375D02*
X40461Y-50375D01*
X40259Y-50455D02*
X40461Y-50455D01*
X40259Y-50535D02*
X40461Y-50535D01*
X40225Y-50615D02*
X40494Y-50615D01*
X40152Y-50695D02*
X40519Y-50695D01*
X39645Y-50775D02*
X40501Y-50775D01*
X39645Y-50855D02*
X40501Y-50855D01*
X46969Y-50128D02*
X46969Y-50128D01*
X46480Y-50208D02*
X46969Y-50208D01*
X46480Y-50288D02*
X46969Y-50288D01*
X46480Y-50368D02*
X46969Y-50368D01*
X46962Y-50448D02*
X46969Y-50448D01*
X44140Y-48780D02*
X44140Y-48780D01*
X44140Y-48860D02*
X44870Y-48860D01*
X44140Y-48940D02*
X44848Y-48940D01*
X44577Y-49020D02*
X44840Y-49020D01*
X44628Y-49100D02*
X44840Y-49100D01*
X44644Y-49180D02*
X44797Y-49180D01*
X44644Y-49260D02*
X44764Y-49260D01*
X44644Y-49340D02*
X44760Y-49340D01*
X44644Y-49420D02*
X44763Y-49420D01*
X44618Y-49500D02*
X44796Y-49500D01*
X46969Y-48155D02*
X46969Y-48155D01*
X46888Y-48235D02*
X46969Y-48235D01*
X46807Y-48315D02*
X46969Y-48315D01*
X46840Y-48395D02*
X46969Y-48395D01*
X46859Y-48475D02*
X46969Y-48475D01*
X46859Y-48555D02*
X46969Y-48555D01*
X46859Y-48635D02*
X46969Y-48635D01*
X46859Y-48715D02*
X46969Y-48715D01*
X46827Y-48795D02*
X46969Y-48795D01*
X46757Y-48875D02*
X46969Y-48875D01*
X46575Y-48955D02*
X46969Y-48955D01*
X46575Y-49035D02*
X46969Y-49035D01*
X46575Y-49115D02*
X46969Y-49115D01*
X46575Y-49195D02*
X46969Y-49195D01*
X46575Y-49275D02*
X46969Y-49275D01*
X46575Y-49355D02*
X46969Y-49355D01*
X46575Y-49435D02*
X46969Y-49435D01*
X42230Y-45040D02*
X43083Y-45040D01*
X42209Y-45120D02*
X43163Y-45120D01*
X42194Y-45200D02*
X43131Y-45200D01*
X41134Y-45280D02*
X41446Y-45280D01*
X42194Y-45280D02*
X43077Y-45280D01*
X40934Y-45360D02*
X41446Y-45360D01*
X42194Y-45360D02*
X43044Y-45360D01*
X40868Y-45440D02*
X41446Y-45440D01*
X42194Y-45440D02*
X43040Y-45440D01*
X41029Y-45520D02*
X41446Y-45520D01*
X42194Y-45520D02*
X43030Y-45520D01*
X41109Y-45600D02*
X41446Y-45600D01*
X42194Y-45600D02*
X43030Y-45600D01*
X41146Y-45680D02*
X41448Y-45680D01*
X42191Y-45680D02*
X43030Y-45680D01*
X41170Y-45760D02*
X41471Y-45760D01*
X42158Y-45760D02*
X43030Y-45760D01*
X41170Y-45840D02*
X41471Y-45840D01*
X42149Y-45840D02*
X43030Y-45840D01*
X41153Y-45920D02*
X41471Y-45920D01*
X42149Y-45920D02*
X43030Y-45920D01*
X41132Y-46000D02*
X41471Y-46000D01*
X42149Y-46000D02*
X43030Y-46000D01*
X41149Y-46080D02*
X41500Y-46080D01*
X42119Y-46080D02*
X43030Y-46080D01*
X41149Y-46160D02*
X41568Y-46160D01*
X42052Y-46160D02*
X43030Y-46160D01*
X41149Y-46240D02*
X43030Y-46240D01*
X41149Y-46320D02*
X43030Y-46320D01*
X41115Y-46400D02*
X43030Y-46400D01*
X41042Y-46480D02*
X43030Y-46480D01*
X40810Y-46560D02*
X43030Y-46560D01*
X40810Y-46640D02*
X43030Y-46640D01*
X40810Y-46720D02*
X43030Y-46720D01*
X40810Y-46800D02*
X43030Y-46800D01*
X40810Y-46880D02*
X43030Y-46880D01*
X40810Y-46960D02*
X41339Y-46960D01*
X41482Y-46960D02*
X43030Y-46960D01*
X40810Y-47040D02*
X41182Y-47040D01*
X41701Y-47040D02*
X43030Y-47040D01*
X40949Y-47120D02*
X41104Y-47120D01*
X41824Y-47120D02*
X43030Y-47120D01*
X41027Y-47200D02*
X41070Y-47200D01*
X41904Y-47200D02*
X43030Y-47200D01*
X41984Y-47280D02*
X43030Y-47280D01*
X42128Y-47360D02*
X43030Y-47360D01*
X42229Y-47440D02*
X43030Y-47440D01*
X41060Y-47520D02*
X41103Y-47520D01*
X42283Y-47520D02*
X42995Y-47520D01*
X40400Y-47600D02*
X40413Y-47600D01*
X41026Y-47600D02*
X41181Y-47600D01*
X42317Y-47600D02*
X42970Y-47600D01*
X40400Y-47680D02*
X40491Y-47680D01*
X40948Y-47680D02*
X41536Y-47680D01*
X42320Y-47680D02*
X42970Y-47680D01*
X40400Y-47760D02*
X41603Y-47760D01*
X42316Y-47760D02*
X42986Y-47760D01*
X40400Y-47840D02*
X41637Y-47840D01*
X42283Y-47840D02*
X43019Y-47840D01*
X40400Y-47920D02*
X41691Y-47920D01*
X42228Y-47920D02*
X43091Y-47920D01*
X40400Y-48000D02*
X41792Y-48000D01*
X42127Y-48000D02*
X43234Y-48000D01*
X43424Y-48000D02*
X43458Y-48000D01*
X40400Y-48080D02*
X41899Y-48080D01*
X42042Y-48080D02*
X43458Y-48080D01*
X40400Y-48160D02*
X41742Y-48160D01*
X42199Y-48160D02*
X43458Y-48160D01*
X40400Y-48240D02*
X41664Y-48240D01*
X42277Y-48240D02*
X43458Y-48240D01*
X40400Y-48320D02*
X41630Y-48320D01*
X42310Y-48320D02*
X43458Y-48320D01*
X40400Y-48400D02*
X41610Y-48400D01*
X42330Y-48400D02*
X42439Y-48400D01*
X42582Y-48400D02*
X43458Y-48400D01*
X40400Y-48480D02*
X41534Y-48480D01*
X42739Y-48480D02*
X43458Y-48480D01*
X40400Y-48560D02*
X41467Y-48560D01*
X42817Y-48560D02*
X43458Y-48560D01*
X40400Y-48640D02*
X41401Y-48640D01*
X42850Y-48640D02*
X43458Y-48640D01*
X40400Y-48720D02*
X41359Y-48720D01*
X42870Y-48720D02*
X43458Y-48720D01*
X40400Y-48800D02*
X41330Y-48800D01*
X42870Y-48800D02*
X43324Y-48800D01*
X40400Y-48880D02*
X41330Y-48880D01*
X42850Y-48880D02*
X43223Y-48880D01*
X40400Y-48960D02*
X41342Y-48960D01*
X42816Y-48960D02*
X43143Y-48960D01*
X40400Y-49040D02*
X41375Y-49040D01*
X42738Y-49040D02*
X43063Y-49040D01*
X40476Y-49120D02*
X41441Y-49120D01*
X42693Y-49120D02*
X42983Y-49120D01*
X40537Y-49200D02*
X40975Y-49200D01*
X42779Y-49200D02*
X42804Y-49200D01*
X40569Y-49280D02*
X40874Y-49280D01*
X41004Y-43120D02*
X42423Y-43120D01*
X41004Y-43200D02*
X42503Y-43200D01*
X41004Y-43280D02*
X42583Y-43280D01*
X40987Y-43360D02*
X42663Y-43360D01*
X40937Y-43440D02*
X42743Y-43440D01*
X40710Y-43520D02*
X42823Y-43520D01*
X40710Y-43600D02*
X42937Y-43600D01*
X40710Y-43680D02*
X43353Y-43680D01*
X40710Y-43760D02*
X43433Y-43760D01*
X40710Y-43840D02*
X43513Y-43840D01*
X40710Y-43920D02*
X43593Y-43920D01*
X40710Y-44000D02*
X43673Y-44000D01*
X40710Y-44080D02*
X43753Y-44080D01*
X40710Y-44160D02*
X43833Y-44160D01*
X40710Y-44240D02*
X43913Y-44240D01*
X40710Y-44320D02*
X40838Y-44320D01*
X42082Y-44320D02*
X43988Y-44320D01*
X40710Y-44400D02*
X40724Y-44400D01*
X42197Y-44400D02*
X43988Y-44400D01*
X43200Y-44480D02*
X43988Y-44480D01*
X43396Y-44560D02*
X43988Y-44560D01*
X43476Y-44640D02*
X43988Y-44640D01*
X43556Y-44720D02*
X44011Y-44720D01*
X43636Y-44800D02*
X44071Y-44800D01*
X43716Y-44880D02*
X44021Y-44880D01*
X43796Y-44960D02*
X43988Y-44960D01*
X43876Y-45040D02*
X43988Y-45040D01*
X43956Y-45120D02*
X43988Y-45120D01*
X42269Y-39645D02*
X46457Y-39645D01*
X42269Y-39725D02*
X43832Y-39725D01*
X44798Y-39725D02*
X46457Y-39725D01*
X42269Y-39805D02*
X43720Y-39805D01*
X44910Y-39805D02*
X46457Y-39805D01*
X42269Y-39885D02*
X43640Y-39885D01*
X44990Y-39885D02*
X46457Y-39885D01*
X42269Y-39965D02*
X43560Y-39965D01*
X45070Y-39965D02*
X46457Y-39965D01*
X42269Y-40045D02*
X43480Y-40045D01*
X45150Y-40045D02*
X46457Y-40045D01*
X42269Y-40125D02*
X43400Y-40125D01*
X45230Y-40125D02*
X46457Y-40125D01*
X45310Y-40205D02*
X46457Y-40205D01*
X45390Y-40285D02*
X46457Y-40285D01*
X45454Y-40365D02*
X46457Y-40365D01*
X45493Y-40445D02*
X46457Y-40445D01*
X45509Y-40525D02*
X46457Y-40525D01*
X45510Y-40605D02*
X46457Y-40605D01*
X45510Y-40685D02*
X46457Y-40685D01*
X45550Y-40765D02*
X46457Y-40765D01*
X45658Y-40845D02*
X46457Y-40845D01*
X45794Y-40925D02*
X46457Y-40925D01*
X45863Y-41005D02*
X46457Y-41005D01*
X45896Y-41085D02*
X46457Y-41085D01*
X45910Y-41165D02*
X46457Y-41165D01*
X45910Y-41245D02*
X46461Y-41245D01*
X45883Y-41325D02*
X46477Y-41325D01*
X45843Y-41405D02*
X46531Y-41405D01*
X45324Y-41485D02*
X45336Y-41485D01*
X45763Y-41485D02*
X46677Y-41485D01*
X45357Y-41565D02*
X46969Y-41565D01*
X45365Y-41645D02*
X46969Y-41645D01*
X45365Y-41725D02*
X46969Y-41725D01*
X45344Y-41805D02*
X46969Y-41805D01*
X45310Y-41885D02*
X46969Y-41885D01*
X45246Y-41965D02*
X46969Y-41965D01*
X44630Y-42045D02*
X44735Y-42045D01*
X45145Y-42045D02*
X46969Y-42045D01*
X44597Y-42125D02*
X44783Y-42125D01*
X44998Y-42125D02*
X46969Y-42125D01*
X44556Y-42205D02*
X44647Y-42205D01*
X45134Y-42205D02*
X46969Y-42205D01*
X44476Y-42285D02*
X44578Y-42285D01*
X45203Y-42285D02*
X46969Y-42285D01*
X43961Y-42365D02*
X44101Y-42365D01*
X44318Y-42365D02*
X44544Y-42365D01*
X45236Y-42365D02*
X46969Y-42365D01*
X43972Y-42445D02*
X44500Y-42445D01*
X45250Y-42445D02*
X46969Y-42445D01*
X43972Y-42525D02*
X44451Y-42525D01*
X45250Y-42525D02*
X46969Y-42525D01*
X43972Y-42605D02*
X44435Y-42605D01*
X45223Y-42605D02*
X46969Y-42605D01*
X43972Y-42685D02*
X44429Y-42685D01*
X45183Y-42685D02*
X46969Y-42685D01*
X43972Y-42765D02*
X44429Y-42765D01*
X45103Y-42765D02*
X46969Y-42765D01*
X43972Y-42845D02*
X44429Y-42845D01*
X45029Y-42845D02*
X46969Y-42845D01*
X43972Y-42925D02*
X44429Y-42925D01*
X45029Y-42925D02*
X46969Y-42925D01*
X43949Y-43005D02*
X44429Y-43005D01*
X45029Y-43005D02*
X46969Y-43005D01*
X44019Y-43085D02*
X44429Y-43085D01*
X45029Y-43085D02*
X46969Y-43085D01*
X44099Y-43165D02*
X44429Y-43165D01*
X45029Y-43165D02*
X46969Y-43165D01*
X45385Y-43245D02*
X46969Y-43245D01*
X45446Y-43325D02*
X46969Y-43325D01*
X45470Y-43405D02*
X46969Y-43405D01*
X45470Y-43485D02*
X46969Y-43485D01*
X45470Y-43565D02*
X46067Y-43565D01*
X46745Y-43565D02*
X46969Y-43565D01*
X45470Y-43645D02*
X45987Y-43645D01*
X46889Y-43645D02*
X46969Y-43645D01*
X45470Y-43725D02*
X45953Y-43725D01*
X45470Y-43805D02*
X45930Y-43805D01*
X45466Y-43885D02*
X45930Y-43885D01*
X45433Y-43965D02*
X45948Y-43965D01*
X45398Y-44045D02*
X45981Y-44045D01*
X45451Y-44125D02*
X46056Y-44125D01*
X45470Y-44205D02*
X46206Y-44205D01*
X46373Y-44205D02*
X46601Y-44205D01*
X45470Y-44285D02*
X46660Y-44285D01*
X45470Y-44365D02*
X46660Y-44365D01*
X45470Y-44445D02*
X46660Y-44445D01*
X45470Y-44525D02*
X46660Y-44525D01*
X45470Y-44605D02*
X46660Y-44605D01*
X45461Y-44685D02*
X45807Y-44685D01*
X46214Y-44685D02*
X46660Y-44685D01*
X45421Y-44765D02*
X45727Y-44765D01*
X46294Y-44765D02*
X46660Y-44765D01*
X45410Y-44845D02*
X45452Y-44845D01*
X45669Y-44845D02*
X45680Y-44845D01*
X39645Y-40961D02*
X39645Y-40961D01*
X39645Y-41041D02*
X39928Y-41041D01*
X39645Y-41121D02*
X39979Y-41121D01*
X39645Y-41201D02*
X40205Y-41201D01*
X39645Y-41281D02*
X40465Y-41281D01*
X40653Y-41281D02*
X40758Y-41281D01*
X39645Y-41361D02*
X40393Y-41361D01*
X40768Y-41361D02*
X40838Y-41361D01*
X39645Y-41441D02*
X40287Y-41441D01*
X40873Y-41441D02*
X40985Y-41441D01*
X39645Y-41521D02*
X40249Y-41521D01*
X40911Y-41521D02*
X41064Y-41521D01*
X39645Y-41601D02*
X40241Y-41601D01*
X40919Y-41601D02*
X41064Y-41601D01*
X39645Y-41681D02*
X40241Y-41681D01*
X40919Y-41681D02*
X41064Y-41681D01*
X39645Y-41761D02*
X39662Y-41761D01*
X40148Y-41761D02*
X40241Y-41761D01*
X40919Y-41761D02*
X41064Y-41761D01*
X40221Y-41841D02*
X40250Y-41841D01*
X40971Y-41841D02*
X41097Y-41841D01*
X40254Y-41921D02*
X40280Y-41921D01*
X41004Y-41921D02*
X41172Y-41921D01*
X40254Y-42001D02*
X40280Y-42001D01*
X41004Y-42001D02*
X41142Y-42001D01*
X40257Y-42081D02*
X40286Y-42081D01*
X41004Y-42081D02*
X41086Y-42081D01*
X41004Y-42161D02*
X41064Y-42161D01*
X41004Y-42241D02*
X41064Y-42241D01*
X40501Y-50906D02*
X40501Y-50740D01*
X40533Y-50660D01*
X40499Y-50626D01*
X40461Y-50534D01*
X40461Y-50235D01*
X40478Y-50194D01*
X40259Y-49975D01*
X40259Y-50160D01*
X40243Y-50197D01*
X40259Y-50236D01*
X40259Y-50535D01*
X40221Y-50626D01*
X40151Y-50696D01*
X40059Y-50734D01*
X39660Y-50734D01*
X39645Y-50727D01*
X39645Y-50906D01*
X40501Y-50906D01*
X41798Y-50617D02*
X41798Y-50617D01*
X41730Y-50697D02*
X41928Y-50697D01*
X41417Y-50777D02*
X42051Y-50777D01*
X41430Y-50857D02*
X42051Y-50857D01*
X40259Y-49975D02*
X40259Y-49975D01*
X40259Y-50055D02*
X40339Y-50055D01*
X40259Y-50135D02*
X40419Y-50135D01*
X40251Y-50215D02*
X40470Y-50215D01*
X40259Y-50295D02*
X40461Y-50295D01*
X40259Y-50375D02*
X40461Y-50375D01*
X40259Y-50455D02*
X40461Y-50455D01*
X40259Y-50535D02*
X40461Y-50535D01*
X40225Y-50615D02*
X40494Y-50615D01*
X40152Y-50695D02*
X40519Y-50695D01*
X39645Y-50775D02*
X40501Y-50775D01*
X39645Y-50855D02*
X40501Y-50855D01*
X46969Y-50128D02*
X46969Y-50128D01*
X46480Y-50208D02*
X46969Y-50208D01*
X46480Y-50288D02*
X46969Y-50288D01*
X46480Y-50368D02*
X46969Y-50368D01*
X46962Y-50448D02*
X46969Y-50448D01*
X44140Y-48780D02*
X44140Y-48780D01*
X44140Y-48860D02*
X44870Y-48860D01*
X44140Y-48940D02*
X44848Y-48940D01*
X44577Y-49020D02*
X44840Y-49020D01*
X44628Y-49100D02*
X44840Y-49100D01*
X44644Y-49180D02*
X44797Y-49180D01*
X44644Y-49260D02*
X44764Y-49260D01*
X44644Y-49340D02*
X44760Y-49340D01*
X44644Y-49420D02*
X44763Y-49420D01*
X44618Y-49500D02*
X44796Y-49500D01*
X46969Y-48155D02*
X46969Y-48155D01*
X46888Y-48235D02*
X46969Y-48235D01*
X46807Y-48315D02*
X46969Y-48315D01*
X46840Y-48395D02*
X46969Y-48395D01*
X46859Y-48475D02*
X46969Y-48475D01*
X46859Y-48555D02*
X46969Y-48555D01*
X46859Y-48635D02*
X46969Y-48635D01*
X46859Y-48715D02*
X46969Y-48715D01*
X46827Y-48795D02*
X46969Y-48795D01*
X46757Y-48875D02*
X46969Y-48875D01*
X46575Y-48955D02*
X46969Y-48955D01*
X46575Y-49035D02*
X46969Y-49035D01*
X46575Y-49115D02*
X46969Y-49115D01*
X46575Y-49195D02*
X46969Y-49195D01*
X46575Y-49275D02*
X46969Y-49275D01*
X46575Y-49355D02*
X46969Y-49355D01*
X46575Y-49435D02*
X46969Y-49435D01*
X42230Y-45040D02*
X43083Y-45040D01*
X42209Y-45120D02*
X43163Y-45120D01*
X42194Y-45200D02*
X43131Y-45200D01*
X41134Y-45280D02*
X41446Y-45280D01*
X42194Y-45280D02*
X43077Y-45280D01*
X40934Y-45360D02*
X41446Y-45360D01*
X42194Y-45360D02*
X43044Y-45360D01*
X40868Y-45440D02*
X41446Y-45440D01*
X42194Y-45440D02*
X43040Y-45440D01*
X41029Y-45520D02*
X41446Y-45520D01*
X42194Y-45520D02*
X43030Y-45520D01*
X41109Y-45600D02*
X41446Y-45600D01*
X42194Y-45600D02*
X43030Y-45600D01*
X41146Y-45680D02*
X41448Y-45680D01*
X42191Y-45680D02*
X43030Y-45680D01*
X41170Y-45760D02*
X41471Y-45760D01*
X42158Y-45760D02*
X43030Y-45760D01*
X41170Y-45840D02*
X41471Y-45840D01*
X42149Y-45840D02*
X43030Y-45840D01*
X41153Y-45920D02*
X41471Y-45920D01*
X42149Y-45920D02*
X43030Y-45920D01*
X41132Y-46000D02*
X41471Y-46000D01*
X42149Y-46000D02*
X43030Y-46000D01*
X41149Y-46080D02*
X41500Y-46080D01*
X42119Y-46080D02*
X43030Y-46080D01*
X41149Y-46160D02*
X41568Y-46160D01*
X42052Y-46160D02*
X43030Y-46160D01*
X41149Y-46240D02*
X43030Y-46240D01*
X41149Y-46320D02*
X43030Y-46320D01*
X41115Y-46400D02*
X43030Y-46400D01*
X41042Y-46480D02*
X43030Y-46480D01*
X40810Y-46560D02*
X43030Y-46560D01*
X40810Y-46640D02*
X43030Y-46640D01*
X40810Y-46720D02*
X43030Y-46720D01*
X40810Y-46800D02*
X43030Y-46800D01*
X40810Y-46880D02*
X43030Y-46880D01*
X40810Y-46960D02*
X41339Y-46960D01*
X41482Y-46960D02*
X43030Y-46960D01*
X40810Y-47040D02*
X41182Y-47040D01*
X41701Y-47040D02*
X43030Y-47040D01*
X40949Y-47120D02*
X41104Y-47120D01*
X41824Y-47120D02*
X43030Y-47120D01*
X41027Y-47200D02*
X41070Y-47200D01*
X41904Y-47200D02*
X43030Y-47200D01*
X41984Y-47280D02*
X43030Y-47280D01*
X42128Y-47360D02*
X43030Y-47360D01*
X42229Y-47440D02*
X43030Y-47440D01*
X41060Y-47520D02*
X41103Y-47520D01*
X42283Y-47520D02*
X42995Y-47520D01*
X40400Y-47600D02*
X40413Y-47600D01*
X41026Y-47600D02*
X41181Y-47600D01*
X42317Y-47600D02*
X42970Y-47600D01*
X40400Y-47680D02*
X40491Y-47680D01*
X40948Y-47680D02*
X41536Y-47680D01*
X42320Y-47680D02*
X42970Y-47680D01*
X40400Y-47760D02*
X41603Y-47760D01*
X42316Y-47760D02*
X42986Y-47760D01*
X40400Y-47840D02*
X41637Y-47840D01*
X42283Y-47840D02*
X43019Y-47840D01*
X40400Y-47920D02*
X41691Y-47920D01*
X42228Y-47920D02*
X43091Y-47920D01*
X40400Y-48000D02*
X41792Y-48000D01*
X42127Y-48000D02*
X43234Y-48000D01*
X43424Y-48000D02*
X43458Y-48000D01*
X40400Y-48080D02*
X41899Y-48080D01*
X42042Y-48080D02*
X43458Y-48080D01*
X40400Y-48160D02*
X41742Y-48160D01*
X42199Y-48160D02*
X43458Y-48160D01*
X40400Y-48240D02*
X41664Y-48240D01*
X42277Y-48240D02*
X43458Y-48240D01*
X40400Y-48320D02*
X41630Y-48320D01*
X42310Y-48320D02*
X43458Y-48320D01*
X40400Y-48400D02*
X41610Y-48400D01*
X42330Y-48400D02*
X42439Y-48400D01*
X42582Y-48400D02*
X43458Y-48400D01*
X40400Y-48480D02*
X41534Y-48480D01*
X42739Y-48480D02*
X43458Y-48480D01*
X40400Y-48560D02*
X41467Y-48560D01*
X42817Y-48560D02*
X43458Y-48560D01*
X40400Y-48640D02*
X41401Y-48640D01*
X42850Y-48640D02*
X43458Y-48640D01*
X40400Y-48720D02*
X41359Y-48720D01*
X42870Y-48720D02*
X43458Y-48720D01*
X40400Y-48800D02*
X41330Y-48800D01*
X42870Y-48800D02*
X43324Y-48800D01*
X40400Y-48880D02*
X41330Y-48880D01*
X42850Y-48880D02*
X43223Y-48880D01*
X40400Y-48960D02*
X41342Y-48960D01*
X42816Y-48960D02*
X43143Y-48960D01*
X40400Y-49040D02*
X41375Y-49040D01*
X42738Y-49040D02*
X43063Y-49040D01*
X40476Y-49120D02*
X41441Y-49120D01*
X42693Y-49120D02*
X42983Y-49120D01*
X40537Y-49200D02*
X40975Y-49200D01*
X42779Y-49200D02*
X42804Y-49200D01*
X40569Y-49280D02*
X40874Y-49280D01*
X41004Y-43120D02*
X42423Y-43120D01*
X41004Y-43200D02*
X42503Y-43200D01*
X41004Y-43280D02*
X42583Y-43280D01*
X40987Y-43360D02*
X42663Y-43360D01*
X40937Y-43440D02*
X42743Y-43440D01*
X40710Y-43520D02*
X42823Y-43520D01*
X40710Y-43600D02*
X42937Y-43600D01*
X40710Y-43680D02*
X43353Y-43680D01*
X40710Y-43760D02*
X43433Y-43760D01*
X40710Y-43840D02*
X43513Y-43840D01*
X40710Y-43920D02*
X43593Y-43920D01*
X40710Y-44000D02*
X43673Y-44000D01*
X40710Y-44080D02*
X43753Y-44080D01*
X40710Y-44160D02*
X43833Y-44160D01*
X40710Y-44240D02*
X43913Y-44240D01*
X40710Y-44320D02*
X40838Y-44320D01*
X42082Y-44320D02*
X43988Y-44320D01*
X40710Y-44400D02*
X40724Y-44400D01*
X42197Y-44400D02*
X43988Y-44400D01*
X43200Y-44480D02*
X43988Y-44480D01*
X43396Y-44560D02*
X43988Y-44560D01*
X43476Y-44640D02*
X43988Y-44640D01*
X43556Y-44720D02*
X44011Y-44720D01*
X43636Y-44800D02*
X44071Y-44800D01*
X43716Y-44880D02*
X44021Y-44880D01*
X43796Y-44960D02*
X43988Y-44960D01*
X43876Y-45040D02*
X43988Y-45040D01*
X43956Y-45120D02*
X43988Y-45120D01*
X42269Y-39645D02*
X46457Y-39645D01*
X42269Y-39725D02*
X43832Y-39725D01*
X44798Y-39725D02*
X46457Y-39725D01*
X42269Y-39805D02*
X43720Y-39805D01*
X44910Y-39805D02*
X46457Y-39805D01*
X42269Y-39885D02*
X43640Y-39885D01*
X44990Y-39885D02*
X46457Y-39885D01*
X42269Y-39965D02*
X43560Y-39965D01*
X45070Y-39965D02*
X46457Y-39965D01*
X42269Y-40045D02*
X43480Y-40045D01*
X45150Y-40045D02*
X46457Y-40045D01*
X42269Y-40125D02*
X43400Y-40125D01*
X45230Y-40125D02*
X46457Y-40125D01*
X45310Y-40205D02*
X46457Y-40205D01*
X45390Y-40285D02*
X46457Y-40285D01*
X45454Y-40365D02*
X46457Y-40365D01*
X45493Y-40445D02*
X46457Y-40445D01*
X45509Y-40525D02*
X46457Y-40525D01*
X45510Y-40605D02*
X46457Y-40605D01*
X45510Y-40685D02*
X46457Y-40685D01*
X45550Y-40765D02*
X46457Y-40765D01*
X45658Y-40845D02*
X46457Y-40845D01*
X45794Y-40925D02*
X46457Y-40925D01*
X45863Y-41005D02*
X46457Y-41005D01*
X45896Y-41085D02*
X46457Y-41085D01*
X45910Y-41165D02*
X46457Y-41165D01*
X45910Y-41245D02*
X46461Y-41245D01*
X45883Y-41325D02*
X46477Y-41325D01*
X45843Y-41405D02*
X46531Y-41405D01*
X45324Y-41485D02*
X45336Y-41485D01*
X45763Y-41485D02*
X46677Y-41485D01*
X45357Y-41565D02*
X46969Y-41565D01*
X45365Y-41645D02*
X46969Y-41645D01*
X45365Y-41725D02*
X46969Y-41725D01*
X45344Y-41805D02*
X46969Y-41805D01*
X45310Y-41885D02*
X46969Y-41885D01*
X45246Y-41965D02*
X46969Y-41965D01*
X44630Y-42045D02*
X44735Y-42045D01*
X45145Y-42045D02*
X46969Y-42045D01*
X44597Y-42125D02*
X44783Y-42125D01*
X44998Y-42125D02*
X46969Y-42125D01*
X44556Y-42205D02*
X44647Y-42205D01*
X45134Y-42205D02*
X46969Y-42205D01*
X44476Y-42285D02*
X44578Y-42285D01*
X45203Y-42285D02*
X46969Y-42285D01*
X43961Y-42365D02*
X44101Y-42365D01*
X44318Y-42365D02*
X44544Y-42365D01*
X45236Y-42365D02*
X46969Y-42365D01*
X43972Y-42445D02*
X44500Y-42445D01*
X45250Y-42445D02*
X46969Y-42445D01*
X43972Y-42525D02*
X44451Y-42525D01*
X45250Y-42525D02*
X46969Y-42525D01*
X43972Y-42605D02*
X44435Y-42605D01*
X45223Y-42605D02*
X46969Y-42605D01*
X43972Y-42685D02*
X44429Y-42685D01*
X45183Y-42685D02*
X46969Y-42685D01*
X43972Y-42765D02*
X44429Y-42765D01*
X45103Y-42765D02*
X46969Y-42765D01*
X43972Y-42845D02*
X44429Y-42845D01*
X45029Y-42845D02*
X46969Y-42845D01*
X43972Y-42925D02*
X44429Y-42925D01*
X45029Y-42925D02*
X46969Y-42925D01*
X43949Y-43005D02*
X44429Y-43005D01*
X45029Y-43005D02*
X46969Y-43005D01*
X44019Y-43085D02*
X44429Y-43085D01*
X45029Y-43085D02*
X46969Y-43085D01*
X44099Y-43165D02*
X44429Y-43165D01*
X45029Y-43165D02*
X46969Y-43165D01*
X45385Y-43245D02*
X46969Y-43245D01*
X45446Y-43325D02*
X46969Y-43325D01*
X45470Y-43405D02*
X46969Y-43405D01*
X45470Y-43485D02*
X46969Y-43485D01*
X45470Y-43565D02*
X46067Y-43565D01*
X46745Y-43565D02*
X46969Y-43565D01*
X45470Y-43645D02*
X45987Y-43645D01*
X46889Y-43645D02*
X46969Y-43645D01*
X45470Y-43725D02*
X45953Y-43725D01*
X45470Y-43805D02*
X45930Y-43805D01*
X45466Y-43885D02*
X45930Y-43885D01*
X45433Y-43965D02*
X45948Y-43965D01*
X45398Y-44045D02*
X45981Y-44045D01*
X45451Y-44125D02*
X46056Y-44125D01*
X45470Y-44205D02*
X46206Y-44205D01*
X46373Y-44205D02*
X46601Y-44205D01*
X45470Y-44285D02*
X46660Y-44285D01*
X45470Y-44365D02*
X46660Y-44365D01*
X45470Y-44445D02*
X46660Y-44445D01*
X45470Y-44525D02*
X46660Y-44525D01*
X45470Y-44605D02*
X46660Y-44605D01*
X45461Y-44685D02*
X45807Y-44685D01*
X46214Y-44685D02*
X46660Y-44685D01*
X45421Y-44765D02*
X45727Y-44765D01*
X46294Y-44765D02*
X46660Y-44765D01*
X45410Y-44845D02*
X45452Y-44845D01*
X45669Y-44845D02*
X45680Y-44845D01*
X39645Y-40961D02*
X39645Y-40961D01*
X39645Y-41041D02*
X39928Y-41041D01*
X39645Y-41121D02*
X39979Y-41121D01*
X39645Y-41201D02*
X40205Y-41201D01*
X39645Y-41281D02*
X40465Y-41281D01*
X40653Y-41281D02*
X40758Y-41281D01*
X39645Y-41361D02*
X40393Y-41361D01*
X40768Y-41361D02*
X40838Y-41361D01*
X39645Y-41441D02*
X40287Y-41441D01*
X40873Y-41441D02*
X40985Y-41441D01*
X39645Y-41521D02*
X40249Y-41521D01*
X40911Y-41521D02*
X41064Y-41521D01*
X39645Y-41601D02*
X40241Y-41601D01*
X40919Y-41601D02*
X41064Y-41601D01*
X39645Y-41681D02*
X40241Y-41681D01*
X40919Y-41681D02*
X41064Y-41681D01*
X39645Y-41761D02*
X39662Y-41761D01*
X40148Y-41761D02*
X40241Y-41761D01*
X40919Y-41761D02*
X41064Y-41761D01*
X40221Y-41841D02*
X40250Y-41841D01*
X40971Y-41841D02*
X41097Y-41841D01*
X40254Y-41921D02*
X40280Y-41921D01*
X41004Y-41921D02*
X41172Y-41921D01*
X40254Y-42001D02*
X40280Y-42001D01*
X41004Y-42001D02*
X41142Y-42001D01*
X40257Y-42081D02*
X40286Y-42081D01*
X41004Y-42081D02*
X41086Y-42081D01*
X41004Y-42161D02*
X41064Y-42161D01*
X41004Y-42241D02*
X41064Y-42241D01*
X46969Y-50451D02*
X46969Y-50128D01*
X46944Y-50139D01*
X46480Y-50139D01*
X46480Y-50441D01*
X46945Y-50441D01*
X46969Y-50451D01*
X41798Y-50617D02*
X41798Y-50617D01*
X41730Y-50697D02*
X41928Y-50697D01*
X41417Y-50777D02*
X42051Y-50777D01*
X41430Y-50857D02*
X42051Y-50857D01*
X40259Y-49975D02*
X40259Y-49975D01*
X40259Y-50055D02*
X40339Y-50055D01*
X40259Y-50135D02*
X40419Y-50135D01*
X40251Y-50215D02*
X40470Y-50215D01*
X40259Y-50295D02*
X40461Y-50295D01*
X40259Y-50375D02*
X40461Y-50375D01*
X40259Y-50455D02*
X40461Y-50455D01*
X40259Y-50535D02*
X40461Y-50535D01*
X40225Y-50615D02*
X40494Y-50615D01*
X40152Y-50695D02*
X40519Y-50695D01*
X39645Y-50775D02*
X40501Y-50775D01*
X39645Y-50855D02*
X40501Y-50855D01*
X46969Y-50128D02*
X46969Y-50128D01*
X46480Y-50208D02*
X46969Y-50208D01*
X46480Y-50288D02*
X46969Y-50288D01*
X46480Y-50368D02*
X46969Y-50368D01*
X46962Y-50448D02*
X46969Y-50448D01*
X44140Y-48780D02*
X44140Y-48780D01*
X44140Y-48860D02*
X44870Y-48860D01*
X44140Y-48940D02*
X44848Y-48940D01*
X44577Y-49020D02*
X44840Y-49020D01*
X44628Y-49100D02*
X44840Y-49100D01*
X44644Y-49180D02*
X44797Y-49180D01*
X44644Y-49260D02*
X44764Y-49260D01*
X44644Y-49340D02*
X44760Y-49340D01*
X44644Y-49420D02*
X44763Y-49420D01*
X44618Y-49500D02*
X44796Y-49500D01*
X46969Y-48155D02*
X46969Y-48155D01*
X46888Y-48235D02*
X46969Y-48235D01*
X46807Y-48315D02*
X46969Y-48315D01*
X46840Y-48395D02*
X46969Y-48395D01*
X46859Y-48475D02*
X46969Y-48475D01*
X46859Y-48555D02*
X46969Y-48555D01*
X46859Y-48635D02*
X46969Y-48635D01*
X46859Y-48715D02*
X46969Y-48715D01*
X46827Y-48795D02*
X46969Y-48795D01*
X46757Y-48875D02*
X46969Y-48875D01*
X46575Y-48955D02*
X46969Y-48955D01*
X46575Y-49035D02*
X46969Y-49035D01*
X46575Y-49115D02*
X46969Y-49115D01*
X46575Y-49195D02*
X46969Y-49195D01*
X46575Y-49275D02*
X46969Y-49275D01*
X46575Y-49355D02*
X46969Y-49355D01*
X46575Y-49435D02*
X46969Y-49435D01*
X42230Y-45040D02*
X43083Y-45040D01*
X42209Y-45120D02*
X43163Y-45120D01*
X42194Y-45200D02*
X43131Y-45200D01*
X41134Y-45280D02*
X41446Y-45280D01*
X42194Y-45280D02*
X43077Y-45280D01*
X40934Y-45360D02*
X41446Y-45360D01*
X42194Y-45360D02*
X43044Y-45360D01*
X40868Y-45440D02*
X41446Y-45440D01*
X42194Y-45440D02*
X43040Y-45440D01*
X41029Y-45520D02*
X41446Y-45520D01*
X42194Y-45520D02*
X43030Y-45520D01*
X41109Y-45600D02*
X41446Y-45600D01*
X42194Y-45600D02*
X43030Y-45600D01*
X41146Y-45680D02*
X41448Y-45680D01*
X42191Y-45680D02*
X43030Y-45680D01*
X41170Y-45760D02*
X41471Y-45760D01*
X42158Y-45760D02*
X43030Y-45760D01*
X41170Y-45840D02*
X41471Y-45840D01*
X42149Y-45840D02*
X43030Y-45840D01*
X41153Y-45920D02*
X41471Y-45920D01*
X42149Y-45920D02*
X43030Y-45920D01*
X41132Y-46000D02*
X41471Y-46000D01*
X42149Y-46000D02*
X43030Y-46000D01*
X41149Y-46080D02*
X41500Y-46080D01*
X42119Y-46080D02*
X43030Y-46080D01*
X41149Y-46160D02*
X41568Y-46160D01*
X42052Y-46160D02*
X43030Y-46160D01*
X41149Y-46240D02*
X43030Y-46240D01*
X41149Y-46320D02*
X43030Y-46320D01*
X41115Y-46400D02*
X43030Y-46400D01*
X41042Y-46480D02*
X43030Y-46480D01*
X40810Y-46560D02*
X43030Y-46560D01*
X40810Y-46640D02*
X43030Y-46640D01*
X40810Y-46720D02*
X43030Y-46720D01*
X40810Y-46800D02*
X43030Y-46800D01*
X40810Y-46880D02*
X43030Y-46880D01*
X40810Y-46960D02*
X41339Y-46960D01*
X41482Y-46960D02*
X43030Y-46960D01*
X40810Y-47040D02*
X41182Y-47040D01*
X41701Y-47040D02*
X43030Y-47040D01*
X40949Y-47120D02*
X41104Y-47120D01*
X41824Y-47120D02*
X43030Y-47120D01*
X41027Y-47200D02*
X41070Y-47200D01*
X41904Y-47200D02*
X43030Y-47200D01*
X41984Y-47280D02*
X43030Y-47280D01*
X42128Y-47360D02*
X43030Y-47360D01*
X42229Y-47440D02*
X43030Y-47440D01*
X41060Y-47520D02*
X41103Y-47520D01*
X42283Y-47520D02*
X42995Y-47520D01*
X40400Y-47600D02*
X40413Y-47600D01*
X41026Y-47600D02*
X41181Y-47600D01*
X42317Y-47600D02*
X42970Y-47600D01*
X40400Y-47680D02*
X40491Y-47680D01*
X40948Y-47680D02*
X41536Y-47680D01*
X42320Y-47680D02*
X42970Y-47680D01*
X40400Y-47760D02*
X41603Y-47760D01*
X42316Y-47760D02*
X42986Y-47760D01*
X40400Y-47840D02*
X41637Y-47840D01*
X42283Y-47840D02*
X43019Y-47840D01*
X40400Y-47920D02*
X41691Y-47920D01*
X42228Y-47920D02*
X43091Y-47920D01*
X40400Y-48000D02*
X41792Y-48000D01*
X42127Y-48000D02*
X43234Y-48000D01*
X43424Y-48000D02*
X43458Y-48000D01*
X40400Y-48080D02*
X41899Y-48080D01*
X42042Y-48080D02*
X43458Y-48080D01*
X40400Y-48160D02*
X41742Y-48160D01*
X42199Y-48160D02*
X43458Y-48160D01*
X40400Y-48240D02*
X41664Y-48240D01*
X42277Y-48240D02*
X43458Y-48240D01*
X40400Y-48320D02*
X41630Y-48320D01*
X42310Y-48320D02*
X43458Y-48320D01*
X40400Y-48400D02*
X41610Y-48400D01*
X42330Y-48400D02*
X42439Y-48400D01*
X42582Y-48400D02*
X43458Y-48400D01*
X40400Y-48480D02*
X41534Y-48480D01*
X42739Y-48480D02*
X43458Y-48480D01*
X40400Y-48560D02*
X41467Y-48560D01*
X42817Y-48560D02*
X43458Y-48560D01*
X40400Y-48640D02*
X41401Y-48640D01*
X42850Y-48640D02*
X43458Y-48640D01*
X40400Y-48720D02*
X41359Y-48720D01*
X42870Y-48720D02*
X43458Y-48720D01*
X40400Y-48800D02*
X41330Y-48800D01*
X42870Y-48800D02*
X43324Y-48800D01*
X40400Y-48880D02*
X41330Y-48880D01*
X42850Y-48880D02*
X43223Y-48880D01*
X40400Y-48960D02*
X41342Y-48960D01*
X42816Y-48960D02*
X43143Y-48960D01*
X40400Y-49040D02*
X41375Y-49040D01*
X42738Y-49040D02*
X43063Y-49040D01*
X40476Y-49120D02*
X41441Y-49120D01*
X42693Y-49120D02*
X42983Y-49120D01*
X40537Y-49200D02*
X40975Y-49200D01*
X42779Y-49200D02*
X42804Y-49200D01*
X40569Y-49280D02*
X40874Y-49280D01*
X41004Y-43120D02*
X42423Y-43120D01*
X41004Y-43200D02*
X42503Y-43200D01*
X41004Y-43280D02*
X42583Y-43280D01*
X40987Y-43360D02*
X42663Y-43360D01*
X40937Y-43440D02*
X42743Y-43440D01*
X40710Y-43520D02*
X42823Y-43520D01*
X40710Y-43600D02*
X42937Y-43600D01*
X40710Y-43680D02*
X43353Y-43680D01*
X40710Y-43760D02*
X43433Y-43760D01*
X40710Y-43840D02*
X43513Y-43840D01*
X40710Y-43920D02*
X43593Y-43920D01*
X40710Y-44000D02*
X43673Y-44000D01*
X40710Y-44080D02*
X43753Y-44080D01*
X40710Y-44160D02*
X43833Y-44160D01*
X40710Y-44240D02*
X43913Y-44240D01*
X40710Y-44320D02*
X40838Y-44320D01*
X42082Y-44320D02*
X43988Y-44320D01*
X40710Y-44400D02*
X40724Y-44400D01*
X42197Y-44400D02*
X43988Y-44400D01*
X43200Y-44480D02*
X43988Y-44480D01*
X43396Y-44560D02*
X43988Y-44560D01*
X43476Y-44640D02*
X43988Y-44640D01*
X43556Y-44720D02*
X44011Y-44720D01*
X43636Y-44800D02*
X44071Y-44800D01*
X43716Y-44880D02*
X44021Y-44880D01*
X43796Y-44960D02*
X43988Y-44960D01*
X43876Y-45040D02*
X43988Y-45040D01*
X43956Y-45120D02*
X43988Y-45120D01*
X42269Y-39645D02*
X46457Y-39645D01*
X42269Y-39725D02*
X43832Y-39725D01*
X44798Y-39725D02*
X46457Y-39725D01*
X42269Y-39805D02*
X43720Y-39805D01*
X44910Y-39805D02*
X46457Y-39805D01*
X42269Y-39885D02*
X43640Y-39885D01*
X44990Y-39885D02*
X46457Y-39885D01*
X42269Y-39965D02*
X43560Y-39965D01*
X45070Y-39965D02*
X46457Y-39965D01*
X42269Y-40045D02*
X43480Y-40045D01*
X45150Y-40045D02*
X46457Y-40045D01*
X42269Y-40125D02*
X43400Y-40125D01*
X45230Y-40125D02*
X46457Y-40125D01*
X45310Y-40205D02*
X46457Y-40205D01*
X45390Y-40285D02*
X46457Y-40285D01*
X45454Y-40365D02*
X46457Y-40365D01*
X45493Y-40445D02*
X46457Y-40445D01*
X45509Y-40525D02*
X46457Y-40525D01*
X45510Y-40605D02*
X46457Y-40605D01*
X45510Y-40685D02*
X46457Y-40685D01*
X45550Y-40765D02*
X46457Y-40765D01*
X45658Y-40845D02*
X46457Y-40845D01*
X45794Y-40925D02*
X46457Y-40925D01*
X45863Y-41005D02*
X46457Y-41005D01*
X45896Y-41085D02*
X46457Y-41085D01*
X45910Y-41165D02*
X46457Y-41165D01*
X45910Y-41245D02*
X46461Y-41245D01*
X45883Y-41325D02*
X46477Y-41325D01*
X45843Y-41405D02*
X46531Y-41405D01*
X45324Y-41485D02*
X45336Y-41485D01*
X45763Y-41485D02*
X46677Y-41485D01*
X45357Y-41565D02*
X46969Y-41565D01*
X45365Y-41645D02*
X46969Y-41645D01*
X45365Y-41725D02*
X46969Y-41725D01*
X45344Y-41805D02*
X46969Y-41805D01*
X45310Y-41885D02*
X46969Y-41885D01*
X45246Y-41965D02*
X46969Y-41965D01*
X44630Y-42045D02*
X44735Y-42045D01*
X45145Y-42045D02*
X46969Y-42045D01*
X44597Y-42125D02*
X44783Y-42125D01*
X44998Y-42125D02*
X46969Y-42125D01*
X44556Y-42205D02*
X44647Y-42205D01*
X45134Y-42205D02*
X46969Y-42205D01*
X44476Y-42285D02*
X44578Y-42285D01*
X45203Y-42285D02*
X46969Y-42285D01*
X43961Y-42365D02*
X44101Y-42365D01*
X44318Y-42365D02*
X44544Y-42365D01*
X45236Y-42365D02*
X46969Y-42365D01*
X43972Y-42445D02*
X44500Y-42445D01*
X45250Y-42445D02*
X46969Y-42445D01*
X43972Y-42525D02*
X44451Y-42525D01*
X45250Y-42525D02*
X46969Y-42525D01*
X43972Y-42605D02*
X44435Y-42605D01*
X45223Y-42605D02*
X46969Y-42605D01*
X43972Y-42685D02*
X44429Y-42685D01*
X45183Y-42685D02*
X46969Y-42685D01*
X43972Y-42765D02*
X44429Y-42765D01*
X45103Y-42765D02*
X46969Y-42765D01*
X43972Y-42845D02*
X44429Y-42845D01*
X45029Y-42845D02*
X46969Y-42845D01*
X43972Y-42925D02*
X44429Y-42925D01*
X45029Y-42925D02*
X46969Y-42925D01*
X43949Y-43005D02*
X44429Y-43005D01*
X45029Y-43005D02*
X46969Y-43005D01*
X44019Y-43085D02*
X44429Y-43085D01*
X45029Y-43085D02*
X46969Y-43085D01*
X44099Y-43165D02*
X44429Y-43165D01*
X45029Y-43165D02*
X46969Y-43165D01*
X45385Y-43245D02*
X46969Y-43245D01*
X45446Y-43325D02*
X46969Y-43325D01*
X45470Y-43405D02*
X46969Y-43405D01*
X45470Y-43485D02*
X46969Y-43485D01*
X45470Y-43565D02*
X46067Y-43565D01*
X46745Y-43565D02*
X46969Y-43565D01*
X45470Y-43645D02*
X45987Y-43645D01*
X46889Y-43645D02*
X46969Y-43645D01*
X45470Y-43725D02*
X45953Y-43725D01*
X45470Y-43805D02*
X45930Y-43805D01*
X45466Y-43885D02*
X45930Y-43885D01*
X45433Y-43965D02*
X45948Y-43965D01*
X45398Y-44045D02*
X45981Y-44045D01*
X45451Y-44125D02*
X46056Y-44125D01*
X45470Y-44205D02*
X46206Y-44205D01*
X46373Y-44205D02*
X46601Y-44205D01*
X45470Y-44285D02*
X46660Y-44285D01*
X45470Y-44365D02*
X46660Y-44365D01*
X45470Y-44445D02*
X46660Y-44445D01*
X45470Y-44525D02*
X46660Y-44525D01*
X45470Y-44605D02*
X46660Y-44605D01*
X45461Y-44685D02*
X45807Y-44685D01*
X46214Y-44685D02*
X46660Y-44685D01*
X45421Y-44765D02*
X45727Y-44765D01*
X46294Y-44765D02*
X46660Y-44765D01*
X45410Y-44845D02*
X45452Y-44845D01*
X45669Y-44845D02*
X45680Y-44845D01*
X39645Y-40961D02*
X39645Y-40961D01*
X39645Y-41041D02*
X39928Y-41041D01*
X39645Y-41121D02*
X39979Y-41121D01*
X39645Y-41201D02*
X40205Y-41201D01*
X39645Y-41281D02*
X40465Y-41281D01*
X40653Y-41281D02*
X40758Y-41281D01*
X39645Y-41361D02*
X40393Y-41361D01*
X40768Y-41361D02*
X40838Y-41361D01*
X39645Y-41441D02*
X40287Y-41441D01*
X40873Y-41441D02*
X40985Y-41441D01*
X39645Y-41521D02*
X40249Y-41521D01*
X40911Y-41521D02*
X41064Y-41521D01*
X39645Y-41601D02*
X40241Y-41601D01*
X40919Y-41601D02*
X41064Y-41601D01*
X39645Y-41681D02*
X40241Y-41681D01*
X40919Y-41681D02*
X41064Y-41681D01*
X39645Y-41761D02*
X39662Y-41761D01*
X40148Y-41761D02*
X40241Y-41761D01*
X40919Y-41761D02*
X41064Y-41761D01*
X40221Y-41841D02*
X40250Y-41841D01*
X40971Y-41841D02*
X41097Y-41841D01*
X40254Y-41921D02*
X40280Y-41921D01*
X41004Y-41921D02*
X41172Y-41921D01*
X40254Y-42001D02*
X40280Y-42001D01*
X41004Y-42001D02*
X41142Y-42001D01*
X40257Y-42081D02*
X40286Y-42081D01*
X41004Y-42081D02*
X41086Y-42081D01*
X41004Y-42161D02*
X41064Y-42161D01*
X41004Y-42241D02*
X41064Y-42241D01*
X44801Y-49510D02*
X44760Y-49411D01*
X44760Y-49268D01*
X44815Y-49136D01*
X44840Y-49111D01*
X44840Y-48980D01*
X44861Y-48873D01*
X44909Y-48800D01*
X44187Y-48800D01*
X44140Y-48780D01*
X44140Y-48941D01*
X44445Y-48941D01*
X44536Y-48979D01*
X44606Y-49049D01*
X44644Y-49141D01*
X44644Y-49440D01*
X44614Y-49510D01*
X44801Y-49510D01*
X41798Y-50617D02*
X41798Y-50617D01*
X41730Y-50697D02*
X41928Y-50697D01*
X41417Y-50777D02*
X42051Y-50777D01*
X41430Y-50857D02*
X42051Y-50857D01*
X40259Y-49975D02*
X40259Y-49975D01*
X40259Y-50055D02*
X40339Y-50055D01*
X40259Y-50135D02*
X40419Y-50135D01*
X40251Y-50215D02*
X40470Y-50215D01*
X40259Y-50295D02*
X40461Y-50295D01*
X40259Y-50375D02*
X40461Y-50375D01*
X40259Y-50455D02*
X40461Y-50455D01*
X40259Y-50535D02*
X40461Y-50535D01*
X40225Y-50615D02*
X40494Y-50615D01*
X40152Y-50695D02*
X40519Y-50695D01*
X39645Y-50775D02*
X40501Y-50775D01*
X39645Y-50855D02*
X40501Y-50855D01*
X46969Y-50128D02*
X46969Y-50128D01*
X46480Y-50208D02*
X46969Y-50208D01*
X46480Y-50288D02*
X46969Y-50288D01*
X46480Y-50368D02*
X46969Y-50368D01*
X46962Y-50448D02*
X46969Y-50448D01*
X44140Y-48780D02*
X44140Y-48780D01*
X44140Y-48860D02*
X44870Y-48860D01*
X44140Y-48940D02*
X44848Y-48940D01*
X44577Y-49020D02*
X44840Y-49020D01*
X44628Y-49100D02*
X44840Y-49100D01*
X44644Y-49180D02*
X44797Y-49180D01*
X44644Y-49260D02*
X44764Y-49260D01*
X44644Y-49340D02*
X44760Y-49340D01*
X44644Y-49420D02*
X44763Y-49420D01*
X44618Y-49500D02*
X44796Y-49500D01*
X46969Y-48155D02*
X46969Y-48155D01*
X46888Y-48235D02*
X46969Y-48235D01*
X46807Y-48315D02*
X46969Y-48315D01*
X46840Y-48395D02*
X46969Y-48395D01*
X46859Y-48475D02*
X46969Y-48475D01*
X46859Y-48555D02*
X46969Y-48555D01*
X46859Y-48635D02*
X46969Y-48635D01*
X46859Y-48715D02*
X46969Y-48715D01*
X46827Y-48795D02*
X46969Y-48795D01*
X46757Y-48875D02*
X46969Y-48875D01*
X46575Y-48955D02*
X46969Y-48955D01*
X46575Y-49035D02*
X46969Y-49035D01*
X46575Y-49115D02*
X46969Y-49115D01*
X46575Y-49195D02*
X46969Y-49195D01*
X46575Y-49275D02*
X46969Y-49275D01*
X46575Y-49355D02*
X46969Y-49355D01*
X46575Y-49435D02*
X46969Y-49435D01*
X42230Y-45040D02*
X43083Y-45040D01*
X42209Y-45120D02*
X43163Y-45120D01*
X42194Y-45200D02*
X43131Y-45200D01*
X41134Y-45280D02*
X41446Y-45280D01*
X42194Y-45280D02*
X43077Y-45280D01*
X40934Y-45360D02*
X41446Y-45360D01*
X42194Y-45360D02*
X43044Y-45360D01*
X40868Y-45440D02*
X41446Y-45440D01*
X42194Y-45440D02*
X43040Y-45440D01*
X41029Y-45520D02*
X41446Y-45520D01*
X42194Y-45520D02*
X43030Y-45520D01*
X41109Y-45600D02*
X41446Y-45600D01*
X42194Y-45600D02*
X43030Y-45600D01*
X41146Y-45680D02*
X41448Y-45680D01*
X42191Y-45680D02*
X43030Y-45680D01*
X41170Y-45760D02*
X41471Y-45760D01*
X42158Y-45760D02*
X43030Y-45760D01*
X41170Y-45840D02*
X41471Y-45840D01*
X42149Y-45840D02*
X43030Y-45840D01*
X41153Y-45920D02*
X41471Y-45920D01*
X42149Y-45920D02*
X43030Y-45920D01*
X41132Y-46000D02*
X41471Y-46000D01*
X42149Y-46000D02*
X43030Y-46000D01*
X41149Y-46080D02*
X41500Y-46080D01*
X42119Y-46080D02*
X43030Y-46080D01*
X41149Y-46160D02*
X41568Y-46160D01*
X42052Y-46160D02*
X43030Y-46160D01*
X41149Y-46240D02*
X43030Y-46240D01*
X41149Y-46320D02*
X43030Y-46320D01*
X41115Y-46400D02*
X43030Y-46400D01*
X41042Y-46480D02*
X43030Y-46480D01*
X40810Y-46560D02*
X43030Y-46560D01*
X40810Y-46640D02*
X43030Y-46640D01*
X40810Y-46720D02*
X43030Y-46720D01*
X40810Y-46800D02*
X43030Y-46800D01*
X40810Y-46880D02*
X43030Y-46880D01*
X40810Y-46960D02*
X41339Y-46960D01*
X41482Y-46960D02*
X43030Y-46960D01*
X40810Y-47040D02*
X41182Y-47040D01*
X41701Y-47040D02*
X43030Y-47040D01*
X40949Y-47120D02*
X41104Y-47120D01*
X41824Y-47120D02*
X43030Y-47120D01*
X41027Y-47200D02*
X41070Y-47200D01*
X41904Y-47200D02*
X43030Y-47200D01*
X41984Y-47280D02*
X43030Y-47280D01*
X42128Y-47360D02*
X43030Y-47360D01*
X42229Y-47440D02*
X43030Y-47440D01*
X41060Y-47520D02*
X41103Y-47520D01*
X42283Y-47520D02*
X42995Y-47520D01*
X40400Y-47600D02*
X40413Y-47600D01*
X41026Y-47600D02*
X41181Y-47600D01*
X42317Y-47600D02*
X42970Y-47600D01*
X40400Y-47680D02*
X40491Y-47680D01*
X40948Y-47680D02*
X41536Y-47680D01*
X42320Y-47680D02*
X42970Y-47680D01*
X40400Y-47760D02*
X41603Y-47760D01*
X42316Y-47760D02*
X42986Y-47760D01*
X40400Y-47840D02*
X41637Y-47840D01*
X42283Y-47840D02*
X43019Y-47840D01*
X40400Y-47920D02*
X41691Y-47920D01*
X42228Y-47920D02*
X43091Y-47920D01*
X40400Y-48000D02*
X41792Y-48000D01*
X42127Y-48000D02*
X43234Y-48000D01*
X43424Y-48000D02*
X43458Y-48000D01*
X40400Y-48080D02*
X41899Y-48080D01*
X42042Y-48080D02*
X43458Y-48080D01*
X40400Y-48160D02*
X41742Y-48160D01*
X42199Y-48160D02*
X43458Y-48160D01*
X40400Y-48240D02*
X41664Y-48240D01*
X42277Y-48240D02*
X43458Y-48240D01*
X40400Y-48320D02*
X41630Y-48320D01*
X42310Y-48320D02*
X43458Y-48320D01*
X40400Y-48400D02*
X41610Y-48400D01*
X42330Y-48400D02*
X42439Y-48400D01*
X42582Y-48400D02*
X43458Y-48400D01*
X40400Y-48480D02*
X41534Y-48480D01*
X42739Y-48480D02*
X43458Y-48480D01*
X40400Y-48560D02*
X41467Y-48560D01*
X42817Y-48560D02*
X43458Y-48560D01*
X40400Y-48640D02*
X41401Y-48640D01*
X42850Y-48640D02*
X43458Y-48640D01*
X40400Y-48720D02*
X41359Y-48720D01*
X42870Y-48720D02*
X43458Y-48720D01*
X40400Y-48800D02*
X41330Y-48800D01*
X42870Y-48800D02*
X43324Y-48800D01*
X40400Y-48880D02*
X41330Y-48880D01*
X42850Y-48880D02*
X43223Y-48880D01*
X40400Y-48960D02*
X41342Y-48960D01*
X42816Y-48960D02*
X43143Y-48960D01*
X40400Y-49040D02*
X41375Y-49040D01*
X42738Y-49040D02*
X43063Y-49040D01*
X40476Y-49120D02*
X41441Y-49120D01*
X42693Y-49120D02*
X42983Y-49120D01*
X40537Y-49200D02*
X40975Y-49200D01*
X42779Y-49200D02*
X42804Y-49200D01*
X40569Y-49280D02*
X40874Y-49280D01*
X41004Y-43120D02*
X42423Y-43120D01*
X41004Y-43200D02*
X42503Y-43200D01*
X41004Y-43280D02*
X42583Y-43280D01*
X40987Y-43360D02*
X42663Y-43360D01*
X40937Y-43440D02*
X42743Y-43440D01*
X40710Y-43520D02*
X42823Y-43520D01*
X40710Y-43600D02*
X42937Y-43600D01*
X40710Y-43680D02*
X43353Y-43680D01*
X40710Y-43760D02*
X43433Y-43760D01*
X40710Y-43840D02*
X43513Y-43840D01*
X40710Y-43920D02*
X43593Y-43920D01*
X40710Y-44000D02*
X43673Y-44000D01*
X40710Y-44080D02*
X43753Y-44080D01*
X40710Y-44160D02*
X43833Y-44160D01*
X40710Y-44240D02*
X43913Y-44240D01*
X40710Y-44320D02*
X40838Y-44320D01*
X42082Y-44320D02*
X43988Y-44320D01*
X40710Y-44400D02*
X40724Y-44400D01*
X42197Y-44400D02*
X43988Y-44400D01*
X43200Y-44480D02*
X43988Y-44480D01*
X43396Y-44560D02*
X43988Y-44560D01*
X43476Y-44640D02*
X43988Y-44640D01*
X43556Y-44720D02*
X44011Y-44720D01*
X43636Y-44800D02*
X44071Y-44800D01*
X43716Y-44880D02*
X44021Y-44880D01*
X43796Y-44960D02*
X43988Y-44960D01*
X43876Y-45040D02*
X43988Y-45040D01*
X43956Y-45120D02*
X43988Y-45120D01*
X42269Y-39645D02*
X46457Y-39645D01*
X42269Y-39725D02*
X43832Y-39725D01*
X44798Y-39725D02*
X46457Y-39725D01*
X42269Y-39805D02*
X43720Y-39805D01*
X44910Y-39805D02*
X46457Y-39805D01*
X42269Y-39885D02*
X43640Y-39885D01*
X44990Y-39885D02*
X46457Y-39885D01*
X42269Y-39965D02*
X43560Y-39965D01*
X45070Y-39965D02*
X46457Y-39965D01*
X42269Y-40045D02*
X43480Y-40045D01*
X45150Y-40045D02*
X46457Y-40045D01*
X42269Y-40125D02*
X43400Y-40125D01*
X45230Y-40125D02*
X46457Y-40125D01*
X45310Y-40205D02*
X46457Y-40205D01*
X45390Y-40285D02*
X46457Y-40285D01*
X45454Y-40365D02*
X46457Y-40365D01*
X45493Y-40445D02*
X46457Y-40445D01*
X45509Y-40525D02*
X46457Y-40525D01*
X45510Y-40605D02*
X46457Y-40605D01*
X45510Y-40685D02*
X46457Y-40685D01*
X45550Y-40765D02*
X46457Y-40765D01*
X45658Y-40845D02*
X46457Y-40845D01*
X45794Y-40925D02*
X46457Y-40925D01*
X45863Y-41005D02*
X46457Y-41005D01*
X45896Y-41085D02*
X46457Y-41085D01*
X45910Y-41165D02*
X46457Y-41165D01*
X45910Y-41245D02*
X46461Y-41245D01*
X45883Y-41325D02*
X46477Y-41325D01*
X45843Y-41405D02*
X46531Y-41405D01*
X45324Y-41485D02*
X45336Y-41485D01*
X45763Y-41485D02*
X46677Y-41485D01*
X45357Y-41565D02*
X46969Y-41565D01*
X45365Y-41645D02*
X46969Y-41645D01*
X45365Y-41725D02*
X46969Y-41725D01*
X45344Y-41805D02*
X46969Y-41805D01*
X45310Y-41885D02*
X46969Y-41885D01*
X45246Y-41965D02*
X46969Y-41965D01*
X44630Y-42045D02*
X44735Y-42045D01*
X45145Y-42045D02*
X46969Y-42045D01*
X44597Y-42125D02*
X44783Y-42125D01*
X44998Y-42125D02*
X46969Y-42125D01*
X44556Y-42205D02*
X44647Y-42205D01*
X45134Y-42205D02*
X46969Y-42205D01*
X44476Y-42285D02*
X44578Y-42285D01*
X45203Y-42285D02*
X46969Y-42285D01*
X43961Y-42365D02*
X44101Y-42365D01*
X44318Y-42365D02*
X44544Y-42365D01*
X45236Y-42365D02*
X46969Y-42365D01*
X43972Y-42445D02*
X44500Y-42445D01*
X45250Y-42445D02*
X46969Y-42445D01*
X43972Y-42525D02*
X44451Y-42525D01*
X45250Y-42525D02*
X46969Y-42525D01*
X43972Y-42605D02*
X44435Y-42605D01*
X45223Y-42605D02*
X46969Y-42605D01*
X43972Y-42685D02*
X44429Y-42685D01*
X45183Y-42685D02*
X46969Y-42685D01*
X43972Y-42765D02*
X44429Y-42765D01*
X45103Y-42765D02*
X46969Y-42765D01*
X43972Y-42845D02*
X44429Y-42845D01*
X45029Y-42845D02*
X46969Y-42845D01*
X43972Y-42925D02*
X44429Y-42925D01*
X45029Y-42925D02*
X46969Y-42925D01*
X43949Y-43005D02*
X44429Y-43005D01*
X45029Y-43005D02*
X46969Y-43005D01*
X44019Y-43085D02*
X44429Y-43085D01*
X45029Y-43085D02*
X46969Y-43085D01*
X44099Y-43165D02*
X44429Y-43165D01*
X45029Y-43165D02*
X46969Y-43165D01*
X45385Y-43245D02*
X46969Y-43245D01*
X45446Y-43325D02*
X46969Y-43325D01*
X45470Y-43405D02*
X46969Y-43405D01*
X45470Y-43485D02*
X46969Y-43485D01*
X45470Y-43565D02*
X46067Y-43565D01*
X46745Y-43565D02*
X46969Y-43565D01*
X45470Y-43645D02*
X45987Y-43645D01*
X46889Y-43645D02*
X46969Y-43645D01*
X45470Y-43725D02*
X45953Y-43725D01*
X45470Y-43805D02*
X45930Y-43805D01*
X45466Y-43885D02*
X45930Y-43885D01*
X45433Y-43965D02*
X45948Y-43965D01*
X45398Y-44045D02*
X45981Y-44045D01*
X45451Y-44125D02*
X46056Y-44125D01*
X45470Y-44205D02*
X46206Y-44205D01*
X46373Y-44205D02*
X46601Y-44205D01*
X45470Y-44285D02*
X46660Y-44285D01*
X45470Y-44365D02*
X46660Y-44365D01*
X45470Y-44445D02*
X46660Y-44445D01*
X45470Y-44525D02*
X46660Y-44525D01*
X45470Y-44605D02*
X46660Y-44605D01*
X45461Y-44685D02*
X45807Y-44685D01*
X46214Y-44685D02*
X46660Y-44685D01*
X45421Y-44765D02*
X45727Y-44765D01*
X46294Y-44765D02*
X46660Y-44765D01*
X45410Y-44845D02*
X45452Y-44845D01*
X45669Y-44845D02*
X45680Y-44845D01*
X39645Y-40961D02*
X39645Y-40961D01*
X39645Y-41041D02*
X39928Y-41041D01*
X39645Y-41121D02*
X39979Y-41121D01*
X39645Y-41201D02*
X40205Y-41201D01*
X39645Y-41281D02*
X40465Y-41281D01*
X40653Y-41281D02*
X40758Y-41281D01*
X39645Y-41361D02*
X40393Y-41361D01*
X40768Y-41361D02*
X40838Y-41361D01*
X39645Y-41441D02*
X40287Y-41441D01*
X40873Y-41441D02*
X40985Y-41441D01*
X39645Y-41521D02*
X40249Y-41521D01*
X40911Y-41521D02*
X41064Y-41521D01*
X39645Y-41601D02*
X40241Y-41601D01*
X40919Y-41601D02*
X41064Y-41601D01*
X39645Y-41681D02*
X40241Y-41681D01*
X40919Y-41681D02*
X41064Y-41681D01*
X39645Y-41761D02*
X39662Y-41761D01*
X40148Y-41761D02*
X40241Y-41761D01*
X40919Y-41761D02*
X41064Y-41761D01*
X40221Y-41841D02*
X40250Y-41841D01*
X40971Y-41841D02*
X41097Y-41841D01*
X40254Y-41921D02*
X40280Y-41921D01*
X41004Y-41921D02*
X41172Y-41921D01*
X40254Y-42001D02*
X40280Y-42001D01*
X41004Y-42001D02*
X41142Y-42001D01*
X40257Y-42081D02*
X40286Y-42081D01*
X41004Y-42081D02*
X41086Y-42081D01*
X41004Y-42161D02*
X41064Y-42161D01*
X41004Y-42241D02*
X41064Y-42241D01*
X46969Y-49451D02*
X46969Y-48155D01*
X46797Y-48325D01*
X46821Y-48349D01*
X46859Y-48441D01*
X46859Y-48720D01*
X46821Y-48811D01*
X46751Y-48881D01*
X46659Y-48919D01*
X46594Y-48919D01*
X46575Y-48939D01*
X46575Y-49441D01*
X46945Y-49441D01*
X46969Y-49451D01*
X41798Y-50617D02*
X41798Y-50617D01*
X41730Y-50697D02*
X41928Y-50697D01*
X41417Y-50777D02*
X42051Y-50777D01*
X41430Y-50857D02*
X42051Y-50857D01*
X40259Y-49975D02*
X40259Y-49975D01*
X40259Y-50055D02*
X40339Y-50055D01*
X40259Y-50135D02*
X40419Y-50135D01*
X40251Y-50215D02*
X40470Y-50215D01*
X40259Y-50295D02*
X40461Y-50295D01*
X40259Y-50375D02*
X40461Y-50375D01*
X40259Y-50455D02*
X40461Y-50455D01*
X40259Y-50535D02*
X40461Y-50535D01*
X40225Y-50615D02*
X40494Y-50615D01*
X40152Y-50695D02*
X40519Y-50695D01*
X39645Y-50775D02*
X40501Y-50775D01*
X39645Y-50855D02*
X40501Y-50855D01*
X46969Y-50128D02*
X46969Y-50128D01*
X46480Y-50208D02*
X46969Y-50208D01*
X46480Y-50288D02*
X46969Y-50288D01*
X46480Y-50368D02*
X46969Y-50368D01*
X46962Y-50448D02*
X46969Y-50448D01*
X44140Y-48780D02*
X44140Y-48780D01*
X44140Y-48860D02*
X44870Y-48860D01*
X44140Y-48940D02*
X44848Y-48940D01*
X44577Y-49020D02*
X44840Y-49020D01*
X44628Y-49100D02*
X44840Y-49100D01*
X44644Y-49180D02*
X44797Y-49180D01*
X44644Y-49260D02*
X44764Y-49260D01*
X44644Y-49340D02*
X44760Y-49340D01*
X44644Y-49420D02*
X44763Y-49420D01*
X44618Y-49500D02*
X44796Y-49500D01*
X46969Y-48155D02*
X46969Y-48155D01*
X46888Y-48235D02*
X46969Y-48235D01*
X46807Y-48315D02*
X46969Y-48315D01*
X46840Y-48395D02*
X46969Y-48395D01*
X46859Y-48475D02*
X46969Y-48475D01*
X46859Y-48555D02*
X46969Y-48555D01*
X46859Y-48635D02*
X46969Y-48635D01*
X46859Y-48715D02*
X46969Y-48715D01*
X46827Y-48795D02*
X46969Y-48795D01*
X46757Y-48875D02*
X46969Y-48875D01*
X46575Y-48955D02*
X46969Y-48955D01*
X46575Y-49035D02*
X46969Y-49035D01*
X46575Y-49115D02*
X46969Y-49115D01*
X46575Y-49195D02*
X46969Y-49195D01*
X46575Y-49275D02*
X46969Y-49275D01*
X46575Y-49355D02*
X46969Y-49355D01*
X46575Y-49435D02*
X46969Y-49435D01*
X42230Y-45040D02*
X43083Y-45040D01*
X42209Y-45120D02*
X43163Y-45120D01*
X42194Y-45200D02*
X43131Y-45200D01*
X41134Y-45280D02*
X41446Y-45280D01*
X42194Y-45280D02*
X43077Y-45280D01*
X40934Y-45360D02*
X41446Y-45360D01*
X42194Y-45360D02*
X43044Y-45360D01*
X40868Y-45440D02*
X41446Y-45440D01*
X42194Y-45440D02*
X43040Y-45440D01*
X41029Y-45520D02*
X41446Y-45520D01*
X42194Y-45520D02*
X43030Y-45520D01*
X41109Y-45600D02*
X41446Y-45600D01*
X42194Y-45600D02*
X43030Y-45600D01*
X41146Y-45680D02*
X41448Y-45680D01*
X42191Y-45680D02*
X43030Y-45680D01*
X41170Y-45760D02*
X41471Y-45760D01*
X42158Y-45760D02*
X43030Y-45760D01*
X41170Y-45840D02*
X41471Y-45840D01*
X42149Y-45840D02*
X43030Y-45840D01*
X41153Y-45920D02*
X41471Y-45920D01*
X42149Y-45920D02*
X43030Y-45920D01*
X41132Y-46000D02*
X41471Y-46000D01*
X42149Y-46000D02*
X43030Y-46000D01*
X41149Y-46080D02*
X41500Y-46080D01*
X42119Y-46080D02*
X43030Y-46080D01*
X41149Y-46160D02*
X41568Y-46160D01*
X42052Y-46160D02*
X43030Y-46160D01*
X41149Y-46240D02*
X43030Y-46240D01*
X41149Y-46320D02*
X43030Y-46320D01*
X41115Y-46400D02*
X43030Y-46400D01*
X41042Y-46480D02*
X43030Y-46480D01*
X40810Y-46560D02*
X43030Y-46560D01*
X40810Y-46640D02*
X43030Y-46640D01*
X40810Y-46720D02*
X43030Y-46720D01*
X40810Y-46800D02*
X43030Y-46800D01*
X40810Y-46880D02*
X43030Y-46880D01*
X40810Y-46960D02*
X41339Y-46960D01*
X41482Y-46960D02*
X43030Y-46960D01*
X40810Y-47040D02*
X41182Y-47040D01*
X41701Y-47040D02*
X43030Y-47040D01*
X40949Y-47120D02*
X41104Y-47120D01*
X41824Y-47120D02*
X43030Y-47120D01*
X41027Y-47200D02*
X41070Y-47200D01*
X41904Y-47200D02*
X43030Y-47200D01*
X41984Y-47280D02*
X43030Y-47280D01*
X42128Y-47360D02*
X43030Y-47360D01*
X42229Y-47440D02*
X43030Y-47440D01*
X41060Y-47520D02*
X41103Y-47520D01*
X42283Y-47520D02*
X42995Y-47520D01*
X40400Y-47600D02*
X40413Y-47600D01*
X41026Y-47600D02*
X41181Y-47600D01*
X42317Y-47600D02*
X42970Y-47600D01*
X40400Y-47680D02*
X40491Y-47680D01*
X40948Y-47680D02*
X41536Y-47680D01*
X42320Y-47680D02*
X42970Y-47680D01*
X40400Y-47760D02*
X41603Y-47760D01*
X42316Y-47760D02*
X42986Y-47760D01*
X40400Y-47840D02*
X41637Y-47840D01*
X42283Y-47840D02*
X43019Y-47840D01*
X40400Y-47920D02*
X41691Y-47920D01*
X42228Y-47920D02*
X43091Y-47920D01*
X40400Y-48000D02*
X41792Y-48000D01*
X42127Y-48000D02*
X43234Y-48000D01*
X43424Y-48000D02*
X43458Y-48000D01*
X40400Y-48080D02*
X41899Y-48080D01*
X42042Y-48080D02*
X43458Y-48080D01*
X40400Y-48160D02*
X41742Y-48160D01*
X42199Y-48160D02*
X43458Y-48160D01*
X40400Y-48240D02*
X41664Y-48240D01*
X42277Y-48240D02*
X43458Y-48240D01*
X40400Y-48320D02*
X41630Y-48320D01*
X42310Y-48320D02*
X43458Y-48320D01*
X40400Y-48400D02*
X41610Y-48400D01*
X42330Y-48400D02*
X42439Y-48400D01*
X42582Y-48400D02*
X43458Y-48400D01*
X40400Y-48480D02*
X41534Y-48480D01*
X42739Y-48480D02*
X43458Y-48480D01*
X40400Y-48560D02*
X41467Y-48560D01*
X42817Y-48560D02*
X43458Y-48560D01*
X40400Y-48640D02*
X41401Y-48640D01*
X42850Y-48640D02*
X43458Y-48640D01*
X40400Y-48720D02*
X41359Y-48720D01*
X42870Y-48720D02*
X43458Y-48720D01*
X40400Y-48800D02*
X41330Y-48800D01*
X42870Y-48800D02*
X43324Y-48800D01*
X40400Y-48880D02*
X41330Y-48880D01*
X42850Y-48880D02*
X43223Y-48880D01*
X40400Y-48960D02*
X41342Y-48960D01*
X42816Y-48960D02*
X43143Y-48960D01*
X40400Y-49040D02*
X41375Y-49040D01*
X42738Y-49040D02*
X43063Y-49040D01*
X40476Y-49120D02*
X41441Y-49120D01*
X42693Y-49120D02*
X42983Y-49120D01*
X40537Y-49200D02*
X40975Y-49200D01*
X42779Y-49200D02*
X42804Y-49200D01*
X40569Y-49280D02*
X40874Y-49280D01*
X41004Y-43120D02*
X42423Y-43120D01*
X41004Y-43200D02*
X42503Y-43200D01*
X41004Y-43280D02*
X42583Y-43280D01*
X40987Y-43360D02*
X42663Y-43360D01*
X40937Y-43440D02*
X42743Y-43440D01*
X40710Y-43520D02*
X42823Y-43520D01*
X40710Y-43600D02*
X42937Y-43600D01*
X40710Y-43680D02*
X43353Y-43680D01*
X40710Y-43760D02*
X43433Y-43760D01*
X40710Y-43840D02*
X43513Y-43840D01*
X40710Y-43920D02*
X43593Y-43920D01*
X40710Y-44000D02*
X43673Y-44000D01*
X40710Y-44080D02*
X43753Y-44080D01*
X40710Y-44160D02*
X43833Y-44160D01*
X40710Y-44240D02*
X43913Y-44240D01*
X40710Y-44320D02*
X40838Y-44320D01*
X42082Y-44320D02*
X43988Y-44320D01*
X40710Y-44400D02*
X40724Y-44400D01*
X42197Y-44400D02*
X43988Y-44400D01*
X43200Y-44480D02*
X43988Y-44480D01*
X43396Y-44560D02*
X43988Y-44560D01*
X43476Y-44640D02*
X43988Y-44640D01*
X43556Y-44720D02*
X44011Y-44720D01*
X43636Y-44800D02*
X44071Y-44800D01*
X43716Y-44880D02*
X44021Y-44880D01*
X43796Y-44960D02*
X43988Y-44960D01*
X43876Y-45040D02*
X43988Y-45040D01*
X43956Y-45120D02*
X43988Y-45120D01*
X42269Y-39645D02*
X46457Y-39645D01*
X42269Y-39725D02*
X43832Y-39725D01*
X44798Y-39725D02*
X46457Y-39725D01*
X42269Y-39805D02*
X43720Y-39805D01*
X44910Y-39805D02*
X46457Y-39805D01*
X42269Y-39885D02*
X43640Y-39885D01*
X44990Y-39885D02*
X46457Y-39885D01*
X42269Y-39965D02*
X43560Y-39965D01*
X45070Y-39965D02*
X46457Y-39965D01*
X42269Y-40045D02*
X43480Y-40045D01*
X45150Y-40045D02*
X46457Y-40045D01*
X42269Y-40125D02*
X43400Y-40125D01*
X45230Y-40125D02*
X46457Y-40125D01*
X45310Y-40205D02*
X46457Y-40205D01*
X45390Y-40285D02*
X46457Y-40285D01*
X45454Y-40365D02*
X46457Y-40365D01*
X45493Y-40445D02*
X46457Y-40445D01*
X45509Y-40525D02*
X46457Y-40525D01*
X45510Y-40605D02*
X46457Y-40605D01*
X45510Y-40685D02*
X46457Y-40685D01*
X45550Y-40765D02*
X46457Y-40765D01*
X45658Y-40845D02*
X46457Y-40845D01*
X45794Y-40925D02*
X46457Y-40925D01*
X45863Y-41005D02*
X46457Y-41005D01*
X45896Y-41085D02*
X46457Y-41085D01*
X45910Y-41165D02*
X46457Y-41165D01*
X45910Y-41245D02*
X46461Y-41245D01*
X45883Y-41325D02*
X46477Y-41325D01*
X45843Y-41405D02*
X46531Y-41405D01*
X45324Y-41485D02*
X45336Y-41485D01*
X45763Y-41485D02*
X46677Y-41485D01*
X45357Y-41565D02*
X46969Y-41565D01*
X45365Y-41645D02*
X46969Y-41645D01*
X45365Y-41725D02*
X46969Y-41725D01*
X45344Y-41805D02*
X46969Y-41805D01*
X45310Y-41885D02*
X46969Y-41885D01*
X45246Y-41965D02*
X46969Y-41965D01*
X44630Y-42045D02*
X44735Y-42045D01*
X45145Y-42045D02*
X46969Y-42045D01*
X44597Y-42125D02*
X44783Y-42125D01*
X44998Y-42125D02*
X46969Y-42125D01*
X44556Y-42205D02*
X44647Y-42205D01*
X45134Y-42205D02*
X46969Y-42205D01*
X44476Y-42285D02*
X44578Y-42285D01*
X45203Y-42285D02*
X46969Y-42285D01*
X43961Y-42365D02*
X44101Y-42365D01*
X44318Y-42365D02*
X44544Y-42365D01*
X45236Y-42365D02*
X46969Y-42365D01*
X43972Y-42445D02*
X44500Y-42445D01*
X45250Y-42445D02*
X46969Y-42445D01*
X43972Y-42525D02*
X44451Y-42525D01*
X45250Y-42525D02*
X46969Y-42525D01*
X43972Y-42605D02*
X44435Y-42605D01*
X45223Y-42605D02*
X46969Y-42605D01*
X43972Y-42685D02*
X44429Y-42685D01*
X45183Y-42685D02*
X46969Y-42685D01*
X43972Y-42765D02*
X44429Y-42765D01*
X45103Y-42765D02*
X46969Y-42765D01*
X43972Y-42845D02*
X44429Y-42845D01*
X45029Y-42845D02*
X46969Y-42845D01*
X43972Y-42925D02*
X44429Y-42925D01*
X45029Y-42925D02*
X46969Y-42925D01*
X43949Y-43005D02*
X44429Y-43005D01*
X45029Y-43005D02*
X46969Y-43005D01*
X44019Y-43085D02*
X44429Y-43085D01*
X45029Y-43085D02*
X46969Y-43085D01*
X44099Y-43165D02*
X44429Y-43165D01*
X45029Y-43165D02*
X46969Y-43165D01*
X45385Y-43245D02*
X46969Y-43245D01*
X45446Y-43325D02*
X46969Y-43325D01*
X45470Y-43405D02*
X46969Y-43405D01*
X45470Y-43485D02*
X46969Y-43485D01*
X45470Y-43565D02*
X46067Y-43565D01*
X46745Y-43565D02*
X46969Y-43565D01*
X45470Y-43645D02*
X45987Y-43645D01*
X46889Y-43645D02*
X46969Y-43645D01*
X45470Y-43725D02*
X45953Y-43725D01*
X45470Y-43805D02*
X45930Y-43805D01*
X45466Y-43885D02*
X45930Y-43885D01*
X45433Y-43965D02*
X45948Y-43965D01*
X45398Y-44045D02*
X45981Y-44045D01*
X45451Y-44125D02*
X46056Y-44125D01*
X45470Y-44205D02*
X46206Y-44205D01*
X46373Y-44205D02*
X46601Y-44205D01*
X45470Y-44285D02*
X46660Y-44285D01*
X45470Y-44365D02*
X46660Y-44365D01*
X45470Y-44445D02*
X46660Y-44445D01*
X45470Y-44525D02*
X46660Y-44525D01*
X45470Y-44605D02*
X46660Y-44605D01*
X45461Y-44685D02*
X45807Y-44685D01*
X46214Y-44685D02*
X46660Y-44685D01*
X45421Y-44765D02*
X45727Y-44765D01*
X46294Y-44765D02*
X46660Y-44765D01*
X45410Y-44845D02*
X45452Y-44845D01*
X45669Y-44845D02*
X45680Y-44845D01*
X39645Y-40961D02*
X39645Y-40961D01*
X39645Y-41041D02*
X39928Y-41041D01*
X39645Y-41121D02*
X39979Y-41121D01*
X39645Y-41201D02*
X40205Y-41201D01*
X39645Y-41281D02*
X40465Y-41281D01*
X40653Y-41281D02*
X40758Y-41281D01*
X39645Y-41361D02*
X40393Y-41361D01*
X40768Y-41361D02*
X40838Y-41361D01*
X39645Y-41441D02*
X40287Y-41441D01*
X40873Y-41441D02*
X40985Y-41441D01*
X39645Y-41521D02*
X40249Y-41521D01*
X40911Y-41521D02*
X41064Y-41521D01*
X39645Y-41601D02*
X40241Y-41601D01*
X40919Y-41601D02*
X41064Y-41601D01*
X39645Y-41681D02*
X40241Y-41681D01*
X40919Y-41681D02*
X41064Y-41681D01*
X39645Y-41761D02*
X39662Y-41761D01*
X40148Y-41761D02*
X40241Y-41761D01*
X40919Y-41761D02*
X41064Y-41761D01*
X40221Y-41841D02*
X40250Y-41841D01*
X40971Y-41841D02*
X41097Y-41841D01*
X40254Y-41921D02*
X40280Y-41921D01*
X41004Y-41921D02*
X41172Y-41921D01*
X40254Y-42001D02*
X40280Y-42001D01*
X41004Y-42001D02*
X41142Y-42001D01*
X40257Y-42081D02*
X40286Y-42081D01*
X41004Y-42081D02*
X41086Y-42081D01*
X41004Y-42161D02*
X41064Y-42161D01*
X41004Y-42241D02*
X41064Y-42241D01*
X40576Y-49320D02*
X40661Y-49286D01*
X40867Y-49286D01*
X40911Y-49243D01*
X40911Y-49242D01*
X40912Y-49242D01*
X41003Y-49181D01*
X41110Y-49160D01*
X41481Y-49160D01*
X41385Y-49063D01*
X41330Y-48931D01*
X41330Y-48788D01*
X41385Y-48656D01*
X41436Y-48605D01*
X41492Y-48522D01*
X41610Y-48404D01*
X41610Y-48368D01*
X41665Y-48236D01*
X41767Y-48135D01*
X41899Y-48080D01*
X42042Y-48080D01*
X42174Y-48135D01*
X42275Y-48237D01*
X42330Y-48369D01*
X42330Y-48445D01*
X42439Y-48400D01*
X42582Y-48400D01*
X42714Y-48455D01*
X42815Y-48557D01*
X42870Y-48689D01*
X42870Y-48832D01*
X42815Y-48964D01*
X42713Y-49065D01*
X42636Y-49096D01*
X42704Y-49125D01*
X42786Y-49207D01*
X42829Y-49190D01*
X42913Y-49190D01*
X43261Y-48842D01*
X43352Y-48781D01*
X43458Y-48760D01*
X43458Y-48750D01*
X43458Y-47986D01*
X43401Y-48010D01*
X43258Y-48010D01*
X43126Y-47955D01*
X43025Y-47853D01*
X42970Y-47721D01*
X42970Y-47578D01*
X43025Y-47446D01*
X43030Y-47441D01*
X43030Y-45510D01*
X43040Y-45460D01*
X43040Y-45368D01*
X43095Y-45236D01*
X43187Y-45143D01*
X43083Y-45040D01*
X42230Y-45040D01*
X42230Y-45072D01*
X42194Y-45158D01*
X42194Y-45675D01*
X42156Y-45766D01*
X42149Y-45773D01*
X42149Y-46010D01*
X42111Y-46101D01*
X42041Y-46171D01*
X41949Y-46209D01*
X41670Y-46209D01*
X41579Y-46171D01*
X41509Y-46101D01*
X41471Y-46009D01*
X41471Y-45734D01*
X41446Y-45674D01*
X41446Y-45255D01*
X41389Y-45279D01*
X41137Y-45279D01*
X41111Y-45290D01*
X40968Y-45290D01*
X40964Y-45288D01*
X40925Y-45384D01*
X40858Y-45450D01*
X40882Y-45450D01*
X41014Y-45505D01*
X41115Y-45607D01*
X41170Y-45739D01*
X41170Y-45882D01*
X41126Y-45986D01*
X41149Y-46041D01*
X41149Y-46320D01*
X41111Y-46411D01*
X41041Y-46481D01*
X40949Y-46519D01*
X40810Y-46519D01*
X40810Y-47047D01*
X40924Y-47095D01*
X41025Y-47197D01*
X41050Y-47257D01*
X41050Y-47248D01*
X41105Y-47116D01*
X41207Y-47015D01*
X41339Y-46960D01*
X41482Y-46960D01*
X41614Y-47015D01*
X41623Y-47024D01*
X41715Y-47043D01*
X41812Y-47108D01*
X42023Y-47320D01*
X42032Y-47320D01*
X42164Y-47375D01*
X42265Y-47477D01*
X42320Y-47609D01*
X42320Y-47752D01*
X42265Y-47884D01*
X42163Y-47985D01*
X42031Y-48040D01*
X41888Y-48040D01*
X41756Y-47985D01*
X41655Y-47883D01*
X41600Y-47751D01*
X41600Y-47744D01*
X41519Y-47663D01*
X41481Y-47680D01*
X41338Y-47680D01*
X41206Y-47625D01*
X41105Y-47523D01*
X41080Y-47463D01*
X41080Y-47472D01*
X41025Y-47604D01*
X40923Y-47705D01*
X40791Y-47760D01*
X40648Y-47760D01*
X40516Y-47705D01*
X40415Y-47603D01*
X40400Y-47567D01*
X40400Y-49044D01*
X40498Y-49142D01*
X40559Y-49233D01*
X40576Y-49320D01*
X41798Y-50617D02*
X41798Y-50617D01*
X41730Y-50697D02*
X41928Y-50697D01*
X41417Y-50777D02*
X42051Y-50777D01*
X41430Y-50857D02*
X42051Y-50857D01*
X40259Y-49975D02*
X40259Y-49975D01*
X40259Y-50055D02*
X40339Y-50055D01*
X40259Y-50135D02*
X40419Y-50135D01*
X40251Y-50215D02*
X40470Y-50215D01*
X40259Y-50295D02*
X40461Y-50295D01*
X40259Y-50375D02*
X40461Y-50375D01*
X40259Y-50455D02*
X40461Y-50455D01*
X40259Y-50535D02*
X40461Y-50535D01*
X40225Y-50615D02*
X40494Y-50615D01*
X40152Y-50695D02*
X40519Y-50695D01*
X39645Y-50775D02*
X40501Y-50775D01*
X39645Y-50855D02*
X40501Y-50855D01*
X46969Y-50128D02*
X46969Y-50128D01*
X46480Y-50208D02*
X46969Y-50208D01*
X46480Y-50288D02*
X46969Y-50288D01*
X46480Y-50368D02*
X46969Y-50368D01*
X46962Y-50448D02*
X46969Y-50448D01*
X44140Y-48780D02*
X44140Y-48780D01*
X44140Y-48860D02*
X44870Y-48860D01*
X44140Y-48940D02*
X44848Y-48940D01*
X44577Y-49020D02*
X44840Y-49020D01*
X44628Y-49100D02*
X44840Y-49100D01*
X44644Y-49180D02*
X44797Y-49180D01*
X44644Y-49260D02*
X44764Y-49260D01*
X44644Y-49340D02*
X44760Y-49340D01*
X44644Y-49420D02*
X44763Y-49420D01*
X44618Y-49500D02*
X44796Y-49500D01*
X46969Y-48155D02*
X46969Y-48155D01*
X46888Y-48235D02*
X46969Y-48235D01*
X46807Y-48315D02*
X46969Y-48315D01*
X46840Y-48395D02*
X46969Y-48395D01*
X46859Y-48475D02*
X46969Y-48475D01*
X46859Y-48555D02*
X46969Y-48555D01*
X46859Y-48635D02*
X46969Y-48635D01*
X46859Y-48715D02*
X46969Y-48715D01*
X46827Y-48795D02*
X46969Y-48795D01*
X46757Y-48875D02*
X46969Y-48875D01*
X46575Y-48955D02*
X46969Y-48955D01*
X46575Y-49035D02*
X46969Y-49035D01*
X46575Y-49115D02*
X46969Y-49115D01*
X46575Y-49195D02*
X46969Y-49195D01*
X46575Y-49275D02*
X46969Y-49275D01*
X46575Y-49355D02*
X46969Y-49355D01*
X46575Y-49435D02*
X46969Y-49435D01*
X42230Y-45040D02*
X43083Y-45040D01*
X42209Y-45120D02*
X43163Y-45120D01*
X42194Y-45200D02*
X43131Y-45200D01*
X41134Y-45280D02*
X41446Y-45280D01*
X42194Y-45280D02*
X43077Y-45280D01*
X40934Y-45360D02*
X41446Y-45360D01*
X42194Y-45360D02*
X43044Y-45360D01*
X40868Y-45440D02*
X41446Y-45440D01*
X42194Y-45440D02*
X43040Y-45440D01*
X41029Y-45520D02*
X41446Y-45520D01*
X42194Y-45520D02*
X43030Y-45520D01*
X41109Y-45600D02*
X41446Y-45600D01*
X42194Y-45600D02*
X43030Y-45600D01*
X41146Y-45680D02*
X41448Y-45680D01*
X42191Y-45680D02*
X43030Y-45680D01*
X41170Y-45760D02*
X41471Y-45760D01*
X42158Y-45760D02*
X43030Y-45760D01*
X41170Y-45840D02*
X41471Y-45840D01*
X42149Y-45840D02*
X43030Y-45840D01*
X41153Y-45920D02*
X41471Y-45920D01*
X42149Y-45920D02*
X43030Y-45920D01*
X41132Y-46000D02*
X41471Y-46000D01*
X42149Y-46000D02*
X43030Y-46000D01*
X41149Y-46080D02*
X41500Y-46080D01*
X42119Y-46080D02*
X43030Y-46080D01*
X41149Y-46160D02*
X41568Y-46160D01*
X42052Y-46160D02*
X43030Y-46160D01*
X41149Y-46240D02*
X43030Y-46240D01*
X41149Y-46320D02*
X43030Y-46320D01*
X41115Y-46400D02*
X43030Y-46400D01*
X41042Y-46480D02*
X43030Y-46480D01*
X40810Y-46560D02*
X43030Y-46560D01*
X40810Y-46640D02*
X43030Y-46640D01*
X40810Y-46720D02*
X43030Y-46720D01*
X40810Y-46800D02*
X43030Y-46800D01*
X40810Y-46880D02*
X43030Y-46880D01*
X40810Y-46960D02*
X41339Y-46960D01*
X41482Y-46960D02*
X43030Y-46960D01*
X40810Y-47040D02*
X41182Y-47040D01*
X41701Y-47040D02*
X43030Y-47040D01*
X40949Y-47120D02*
X41104Y-47120D01*
X41824Y-47120D02*
X43030Y-47120D01*
X41027Y-47200D02*
X41070Y-47200D01*
X41904Y-47200D02*
X43030Y-47200D01*
X41984Y-47280D02*
X43030Y-47280D01*
X42128Y-47360D02*
X43030Y-47360D01*
X42229Y-47440D02*
X43030Y-47440D01*
X41060Y-47520D02*
X41103Y-47520D01*
X42283Y-47520D02*
X42995Y-47520D01*
X40400Y-47600D02*
X40413Y-47600D01*
X41026Y-47600D02*
X41181Y-47600D01*
X42317Y-47600D02*
X42970Y-47600D01*
X40400Y-47680D02*
X40491Y-47680D01*
X40948Y-47680D02*
X41536Y-47680D01*
X42320Y-47680D02*
X42970Y-47680D01*
X40400Y-47760D02*
X41603Y-47760D01*
X42316Y-47760D02*
X42986Y-47760D01*
X40400Y-47840D02*
X41637Y-47840D01*
X42283Y-47840D02*
X43019Y-47840D01*
X40400Y-47920D02*
X41691Y-47920D01*
X42228Y-47920D02*
X43091Y-47920D01*
X40400Y-48000D02*
X41792Y-48000D01*
X42127Y-48000D02*
X43234Y-48000D01*
X43424Y-48000D02*
X43458Y-48000D01*
X40400Y-48080D02*
X41899Y-48080D01*
X42042Y-48080D02*
X43458Y-48080D01*
X40400Y-48160D02*
X41742Y-48160D01*
X42199Y-48160D02*
X43458Y-48160D01*
X40400Y-48240D02*
X41664Y-48240D01*
X42277Y-48240D02*
X43458Y-48240D01*
X40400Y-48320D02*
X41630Y-48320D01*
X42310Y-48320D02*
X43458Y-48320D01*
X40400Y-48400D02*
X41610Y-48400D01*
X42330Y-48400D02*
X42439Y-48400D01*
X42582Y-48400D02*
X43458Y-48400D01*
X40400Y-48480D02*
X41534Y-48480D01*
X42739Y-48480D02*
X43458Y-48480D01*
X40400Y-48560D02*
X41467Y-48560D01*
X42817Y-48560D02*
X43458Y-48560D01*
X40400Y-48640D02*
X41401Y-48640D01*
X42850Y-48640D02*
X43458Y-48640D01*
X40400Y-48720D02*
X41359Y-48720D01*
X42870Y-48720D02*
X43458Y-48720D01*
X40400Y-48800D02*
X41330Y-48800D01*
X42870Y-48800D02*
X43324Y-48800D01*
X40400Y-48880D02*
X41330Y-48880D01*
X42850Y-48880D02*
X43223Y-48880D01*
X40400Y-48960D02*
X41342Y-48960D01*
X42816Y-48960D02*
X43143Y-48960D01*
X40400Y-49040D02*
X41375Y-49040D01*
X42738Y-49040D02*
X43063Y-49040D01*
X40476Y-49120D02*
X41441Y-49120D01*
X42693Y-49120D02*
X42983Y-49120D01*
X40537Y-49200D02*
X40975Y-49200D01*
X42779Y-49200D02*
X42804Y-49200D01*
X40569Y-49280D02*
X40874Y-49280D01*
X41004Y-43120D02*
X42423Y-43120D01*
X41004Y-43200D02*
X42503Y-43200D01*
X41004Y-43280D02*
X42583Y-43280D01*
X40987Y-43360D02*
X42663Y-43360D01*
X40937Y-43440D02*
X42743Y-43440D01*
X40710Y-43520D02*
X42823Y-43520D01*
X40710Y-43600D02*
X42937Y-43600D01*
X40710Y-43680D02*
X43353Y-43680D01*
X40710Y-43760D02*
X43433Y-43760D01*
X40710Y-43840D02*
X43513Y-43840D01*
X40710Y-43920D02*
X43593Y-43920D01*
X40710Y-44000D02*
X43673Y-44000D01*
X40710Y-44080D02*
X43753Y-44080D01*
X40710Y-44160D02*
X43833Y-44160D01*
X40710Y-44240D02*
X43913Y-44240D01*
X40710Y-44320D02*
X40838Y-44320D01*
X42082Y-44320D02*
X43988Y-44320D01*
X40710Y-44400D02*
X40724Y-44400D01*
X42197Y-44400D02*
X43988Y-44400D01*
X43200Y-44480D02*
X43988Y-44480D01*
X43396Y-44560D02*
X43988Y-44560D01*
X43476Y-44640D02*
X43988Y-44640D01*
X43556Y-44720D02*
X44011Y-44720D01*
X43636Y-44800D02*
X44071Y-44800D01*
X43716Y-44880D02*
X44021Y-44880D01*
X43796Y-44960D02*
X43988Y-44960D01*
X43876Y-45040D02*
X43988Y-45040D01*
X43956Y-45120D02*
X43988Y-45120D01*
X42269Y-39645D02*
X46457Y-39645D01*
X42269Y-39725D02*
X43832Y-39725D01*
X44798Y-39725D02*
X46457Y-39725D01*
X42269Y-39805D02*
X43720Y-39805D01*
X44910Y-39805D02*
X46457Y-39805D01*
X42269Y-39885D02*
X43640Y-39885D01*
X44990Y-39885D02*
X46457Y-39885D01*
X42269Y-39965D02*
X43560Y-39965D01*
X45070Y-39965D02*
X46457Y-39965D01*
X42269Y-40045D02*
X43480Y-40045D01*
X45150Y-40045D02*
X46457Y-40045D01*
X42269Y-40125D02*
X43400Y-40125D01*
X45230Y-40125D02*
X46457Y-40125D01*
X45310Y-40205D02*
X46457Y-40205D01*
X45390Y-40285D02*
X46457Y-40285D01*
X45454Y-40365D02*
X46457Y-40365D01*
X45493Y-40445D02*
X46457Y-40445D01*
X45509Y-40525D02*
X46457Y-40525D01*
X45510Y-40605D02*
X46457Y-40605D01*
X45510Y-40685D02*
X46457Y-40685D01*
X45550Y-40765D02*
X46457Y-40765D01*
X45658Y-40845D02*
X46457Y-40845D01*
X45794Y-40925D02*
X46457Y-40925D01*
X45863Y-41005D02*
X46457Y-41005D01*
X45896Y-41085D02*
X46457Y-41085D01*
X45910Y-41165D02*
X46457Y-41165D01*
X45910Y-41245D02*
X46461Y-41245D01*
X45883Y-41325D02*
X46477Y-41325D01*
X45843Y-41405D02*
X46531Y-41405D01*
X45324Y-41485D02*
X45336Y-41485D01*
X45763Y-41485D02*
X46677Y-41485D01*
X45357Y-41565D02*
X46969Y-41565D01*
X45365Y-41645D02*
X46969Y-41645D01*
X45365Y-41725D02*
X46969Y-41725D01*
X45344Y-41805D02*
X46969Y-41805D01*
X45310Y-41885D02*
X46969Y-41885D01*
X45246Y-41965D02*
X46969Y-41965D01*
X44630Y-42045D02*
X44735Y-42045D01*
X45145Y-42045D02*
X46969Y-42045D01*
X44597Y-42125D02*
X44783Y-42125D01*
X44998Y-42125D02*
X46969Y-42125D01*
X44556Y-42205D02*
X44647Y-42205D01*
X45134Y-42205D02*
X46969Y-42205D01*
X44476Y-42285D02*
X44578Y-42285D01*
X45203Y-42285D02*
X46969Y-42285D01*
X43961Y-42365D02*
X44101Y-42365D01*
X44318Y-42365D02*
X44544Y-42365D01*
X45236Y-42365D02*
X46969Y-42365D01*
X43972Y-42445D02*
X44500Y-42445D01*
X45250Y-42445D02*
X46969Y-42445D01*
X43972Y-42525D02*
X44451Y-42525D01*
X45250Y-42525D02*
X46969Y-42525D01*
X43972Y-42605D02*
X44435Y-42605D01*
X45223Y-42605D02*
X46969Y-42605D01*
X43972Y-42685D02*
X44429Y-42685D01*
X45183Y-42685D02*
X46969Y-42685D01*
X43972Y-42765D02*
X44429Y-42765D01*
X45103Y-42765D02*
X46969Y-42765D01*
X43972Y-42845D02*
X44429Y-42845D01*
X45029Y-42845D02*
X46969Y-42845D01*
X43972Y-42925D02*
X44429Y-42925D01*
X45029Y-42925D02*
X46969Y-42925D01*
X43949Y-43005D02*
X44429Y-43005D01*
X45029Y-43005D02*
X46969Y-43005D01*
X44019Y-43085D02*
X44429Y-43085D01*
X45029Y-43085D02*
X46969Y-43085D01*
X44099Y-43165D02*
X44429Y-43165D01*
X45029Y-43165D02*
X46969Y-43165D01*
X45385Y-43245D02*
X46969Y-43245D01*
X45446Y-43325D02*
X46969Y-43325D01*
X45470Y-43405D02*
X46969Y-43405D01*
X45470Y-43485D02*
X46969Y-43485D01*
X45470Y-43565D02*
X46067Y-43565D01*
X46745Y-43565D02*
X46969Y-43565D01*
X45470Y-43645D02*
X45987Y-43645D01*
X46889Y-43645D02*
X46969Y-43645D01*
X45470Y-43725D02*
X45953Y-43725D01*
X45470Y-43805D02*
X45930Y-43805D01*
X45466Y-43885D02*
X45930Y-43885D01*
X45433Y-43965D02*
X45948Y-43965D01*
X45398Y-44045D02*
X45981Y-44045D01*
X45451Y-44125D02*
X46056Y-44125D01*
X45470Y-44205D02*
X46206Y-44205D01*
X46373Y-44205D02*
X46601Y-44205D01*
X45470Y-44285D02*
X46660Y-44285D01*
X45470Y-44365D02*
X46660Y-44365D01*
X45470Y-44445D02*
X46660Y-44445D01*
X45470Y-44525D02*
X46660Y-44525D01*
X45470Y-44605D02*
X46660Y-44605D01*
X45461Y-44685D02*
X45807Y-44685D01*
X46214Y-44685D02*
X46660Y-44685D01*
X45421Y-44765D02*
X45727Y-44765D01*
X46294Y-44765D02*
X46660Y-44765D01*
X45410Y-44845D02*
X45452Y-44845D01*
X45669Y-44845D02*
X45680Y-44845D01*
X39645Y-40961D02*
X39645Y-40961D01*
X39645Y-41041D02*
X39928Y-41041D01*
X39645Y-41121D02*
X39979Y-41121D01*
X39645Y-41201D02*
X40205Y-41201D01*
X39645Y-41281D02*
X40465Y-41281D01*
X40653Y-41281D02*
X40758Y-41281D01*
X39645Y-41361D02*
X40393Y-41361D01*
X40768Y-41361D02*
X40838Y-41361D01*
X39645Y-41441D02*
X40287Y-41441D01*
X40873Y-41441D02*
X40985Y-41441D01*
X39645Y-41521D02*
X40249Y-41521D01*
X40911Y-41521D02*
X41064Y-41521D01*
X39645Y-41601D02*
X40241Y-41601D01*
X40919Y-41601D02*
X41064Y-41601D01*
X39645Y-41681D02*
X40241Y-41681D01*
X40919Y-41681D02*
X41064Y-41681D01*
X39645Y-41761D02*
X39662Y-41761D01*
X40148Y-41761D02*
X40241Y-41761D01*
X40919Y-41761D02*
X41064Y-41761D01*
X40221Y-41841D02*
X40250Y-41841D01*
X40971Y-41841D02*
X41097Y-41841D01*
X40254Y-41921D02*
X40280Y-41921D01*
X41004Y-41921D02*
X41172Y-41921D01*
X40254Y-42001D02*
X40280Y-42001D01*
X41004Y-42001D02*
X41142Y-42001D01*
X40257Y-42081D02*
X40286Y-42081D01*
X41004Y-42081D02*
X41086Y-42081D01*
X41004Y-42161D02*
X41064Y-42161D01*
X41004Y-42241D02*
X41064Y-42241D01*
X43988Y-45152D02*
X43988Y-44958D01*
X44026Y-44867D01*
X44081Y-44810D01*
X44026Y-44755D01*
X43988Y-44663D01*
X43988Y-44314D01*
X43293Y-43620D01*
X43040Y-43620D01*
X42932Y-43599D01*
X42842Y-43538D01*
X42423Y-43120D01*
X41004Y-43120D01*
X41004Y-43320D01*
X40966Y-43411D01*
X40896Y-43481D01*
X40804Y-43519D01*
X40710Y-43519D01*
X40710Y-44414D01*
X40742Y-44382D01*
X40832Y-44321D01*
X40940Y-44300D01*
X41980Y-44300D01*
X42087Y-44321D01*
X42178Y-44382D01*
X42276Y-44479D01*
X43200Y-44480D01*
X43307Y-44501D01*
X43398Y-44562D01*
X43988Y-45152D01*
X41798Y-50617D02*
X41798Y-50617D01*
X41730Y-50697D02*
X41928Y-50697D01*
X41417Y-50777D02*
X42051Y-50777D01*
X41430Y-50857D02*
X42051Y-50857D01*
X40259Y-49975D02*
X40259Y-49975D01*
X40259Y-50055D02*
X40339Y-50055D01*
X40259Y-50135D02*
X40419Y-50135D01*
X40251Y-50215D02*
X40470Y-50215D01*
X40259Y-50295D02*
X40461Y-50295D01*
X40259Y-50375D02*
X40461Y-50375D01*
X40259Y-50455D02*
X40461Y-50455D01*
X40259Y-50535D02*
X40461Y-50535D01*
X40225Y-50615D02*
X40494Y-50615D01*
X40152Y-50695D02*
X40519Y-50695D01*
X39645Y-50775D02*
X40501Y-50775D01*
X39645Y-50855D02*
X40501Y-50855D01*
X46969Y-50128D02*
X46969Y-50128D01*
X46480Y-50208D02*
X46969Y-50208D01*
X46480Y-50288D02*
X46969Y-50288D01*
X46480Y-50368D02*
X46969Y-50368D01*
X46962Y-50448D02*
X46969Y-50448D01*
X44140Y-48780D02*
X44140Y-48780D01*
X44140Y-48860D02*
X44870Y-48860D01*
X44140Y-48940D02*
X44848Y-48940D01*
X44577Y-49020D02*
X44840Y-49020D01*
X44628Y-49100D02*
X44840Y-49100D01*
X44644Y-49180D02*
X44797Y-49180D01*
X44644Y-49260D02*
X44764Y-49260D01*
X44644Y-49340D02*
X44760Y-49340D01*
X44644Y-49420D02*
X44763Y-49420D01*
X44618Y-49500D02*
X44796Y-49500D01*
X46969Y-48155D02*
X46969Y-48155D01*
X46888Y-48235D02*
X46969Y-48235D01*
X46807Y-48315D02*
X46969Y-48315D01*
X46840Y-48395D02*
X46969Y-48395D01*
X46859Y-48475D02*
X46969Y-48475D01*
X46859Y-48555D02*
X46969Y-48555D01*
X46859Y-48635D02*
X46969Y-48635D01*
X46859Y-48715D02*
X46969Y-48715D01*
X46827Y-48795D02*
X46969Y-48795D01*
X46757Y-48875D02*
X46969Y-48875D01*
X46575Y-48955D02*
X46969Y-48955D01*
X46575Y-49035D02*
X46969Y-49035D01*
X46575Y-49115D02*
X46969Y-49115D01*
X46575Y-49195D02*
X46969Y-49195D01*
X46575Y-49275D02*
X46969Y-49275D01*
X46575Y-49355D02*
X46969Y-49355D01*
X46575Y-49435D02*
X46969Y-49435D01*
X42230Y-45040D02*
X43083Y-45040D01*
X42209Y-45120D02*
X43163Y-45120D01*
X42194Y-45200D02*
X43131Y-45200D01*
X41134Y-45280D02*
X41446Y-45280D01*
X42194Y-45280D02*
X43077Y-45280D01*
X40934Y-45360D02*
X41446Y-45360D01*
X42194Y-45360D02*
X43044Y-45360D01*
X40868Y-45440D02*
X41446Y-45440D01*
X42194Y-45440D02*
X43040Y-45440D01*
X41029Y-45520D02*
X41446Y-45520D01*
X42194Y-45520D02*
X43030Y-45520D01*
X41109Y-45600D02*
X41446Y-45600D01*
X42194Y-45600D02*
X43030Y-45600D01*
X41146Y-45680D02*
X41448Y-45680D01*
X42191Y-45680D02*
X43030Y-45680D01*
X41170Y-45760D02*
X41471Y-45760D01*
X42158Y-45760D02*
X43030Y-45760D01*
X41170Y-45840D02*
X41471Y-45840D01*
X42149Y-45840D02*
X43030Y-45840D01*
X41153Y-45920D02*
X41471Y-45920D01*
X42149Y-45920D02*
X43030Y-45920D01*
X41132Y-46000D02*
X41471Y-46000D01*
X42149Y-46000D02*
X43030Y-46000D01*
X41149Y-46080D02*
X41500Y-46080D01*
X42119Y-46080D02*
X43030Y-46080D01*
X41149Y-46160D02*
X41568Y-46160D01*
X42052Y-46160D02*
X43030Y-46160D01*
X41149Y-46240D02*
X43030Y-46240D01*
X41149Y-46320D02*
X43030Y-46320D01*
X41115Y-46400D02*
X43030Y-46400D01*
X41042Y-46480D02*
X43030Y-46480D01*
X40810Y-46560D02*
X43030Y-46560D01*
X40810Y-46640D02*
X43030Y-46640D01*
X40810Y-46720D02*
X43030Y-46720D01*
X40810Y-46800D02*
X43030Y-46800D01*
X40810Y-46880D02*
X43030Y-46880D01*
X40810Y-46960D02*
X41339Y-46960D01*
X41482Y-46960D02*
X43030Y-46960D01*
X40810Y-47040D02*
X41182Y-47040D01*
X41701Y-47040D02*
X43030Y-47040D01*
X40949Y-47120D02*
X41104Y-47120D01*
X41824Y-47120D02*
X43030Y-47120D01*
X41027Y-47200D02*
X41070Y-47200D01*
X41904Y-47200D02*
X43030Y-47200D01*
X41984Y-47280D02*
X43030Y-47280D01*
X42128Y-47360D02*
X43030Y-47360D01*
X42229Y-47440D02*
X43030Y-47440D01*
X41060Y-47520D02*
X41103Y-47520D01*
X42283Y-47520D02*
X42995Y-47520D01*
X40400Y-47600D02*
X40413Y-47600D01*
X41026Y-47600D02*
X41181Y-47600D01*
X42317Y-47600D02*
X42970Y-47600D01*
X40400Y-47680D02*
X40491Y-47680D01*
X40948Y-47680D02*
X41536Y-47680D01*
X42320Y-47680D02*
X42970Y-47680D01*
X40400Y-47760D02*
X41603Y-47760D01*
X42316Y-47760D02*
X42986Y-47760D01*
X40400Y-47840D02*
X41637Y-47840D01*
X42283Y-47840D02*
X43019Y-47840D01*
X40400Y-47920D02*
X41691Y-47920D01*
X42228Y-47920D02*
X43091Y-47920D01*
X40400Y-48000D02*
X41792Y-48000D01*
X42127Y-48000D02*
X43234Y-48000D01*
X43424Y-48000D02*
X43458Y-48000D01*
X40400Y-48080D02*
X41899Y-48080D01*
X42042Y-48080D02*
X43458Y-48080D01*
X40400Y-48160D02*
X41742Y-48160D01*
X42199Y-48160D02*
X43458Y-48160D01*
X40400Y-48240D02*
X41664Y-48240D01*
X42277Y-48240D02*
X43458Y-48240D01*
X40400Y-48320D02*
X41630Y-48320D01*
X42310Y-48320D02*
X43458Y-48320D01*
X40400Y-48400D02*
X41610Y-48400D01*
X42330Y-48400D02*
X42439Y-48400D01*
X42582Y-48400D02*
X43458Y-48400D01*
X40400Y-48480D02*
X41534Y-48480D01*
X42739Y-48480D02*
X43458Y-48480D01*
X40400Y-48560D02*
X41467Y-48560D01*
X42817Y-48560D02*
X43458Y-48560D01*
X40400Y-48640D02*
X41401Y-48640D01*
X42850Y-48640D02*
X43458Y-48640D01*
X40400Y-48720D02*
X41359Y-48720D01*
X42870Y-48720D02*
X43458Y-48720D01*
X40400Y-48800D02*
X41330Y-48800D01*
X42870Y-48800D02*
X43324Y-48800D01*
X40400Y-48880D02*
X41330Y-48880D01*
X42850Y-48880D02*
X43223Y-48880D01*
X40400Y-48960D02*
X41342Y-48960D01*
X42816Y-48960D02*
X43143Y-48960D01*
X40400Y-49040D02*
X41375Y-49040D01*
X42738Y-49040D02*
X43063Y-49040D01*
X40476Y-49120D02*
X41441Y-49120D01*
X42693Y-49120D02*
X42983Y-49120D01*
X40537Y-49200D02*
X40975Y-49200D01*
X42779Y-49200D02*
X42804Y-49200D01*
X40569Y-49280D02*
X40874Y-49280D01*
X41004Y-43120D02*
X42423Y-43120D01*
X41004Y-43200D02*
X42503Y-43200D01*
X41004Y-43280D02*
X42583Y-43280D01*
X40987Y-43360D02*
X42663Y-43360D01*
X40937Y-43440D02*
X42743Y-43440D01*
X40710Y-43520D02*
X42823Y-43520D01*
X40710Y-43600D02*
X42937Y-43600D01*
X40710Y-43680D02*
X43353Y-43680D01*
X40710Y-43760D02*
X43433Y-43760D01*
X40710Y-43840D02*
X43513Y-43840D01*
X40710Y-43920D02*
X43593Y-43920D01*
X40710Y-44000D02*
X43673Y-44000D01*
X40710Y-44080D02*
X43753Y-44080D01*
X40710Y-44160D02*
X43833Y-44160D01*
X40710Y-44240D02*
X43913Y-44240D01*
X40710Y-44320D02*
X40838Y-44320D01*
X42082Y-44320D02*
X43988Y-44320D01*
X40710Y-44400D02*
X40724Y-44400D01*
X42197Y-44400D02*
X43988Y-44400D01*
X43200Y-44480D02*
X43988Y-44480D01*
X43396Y-44560D02*
X43988Y-44560D01*
X43476Y-44640D02*
X43988Y-44640D01*
X43556Y-44720D02*
X44011Y-44720D01*
X43636Y-44800D02*
X44071Y-44800D01*
X43716Y-44880D02*
X44021Y-44880D01*
X43796Y-44960D02*
X43988Y-44960D01*
X43876Y-45040D02*
X43988Y-45040D01*
X43956Y-45120D02*
X43988Y-45120D01*
X42269Y-39645D02*
X46457Y-39645D01*
X42269Y-39725D02*
X43832Y-39725D01*
X44798Y-39725D02*
X46457Y-39725D01*
X42269Y-39805D02*
X43720Y-39805D01*
X44910Y-39805D02*
X46457Y-39805D01*
X42269Y-39885D02*
X43640Y-39885D01*
X44990Y-39885D02*
X46457Y-39885D01*
X42269Y-39965D02*
X43560Y-39965D01*
X45070Y-39965D02*
X46457Y-39965D01*
X42269Y-40045D02*
X43480Y-40045D01*
X45150Y-40045D02*
X46457Y-40045D01*
X42269Y-40125D02*
X43400Y-40125D01*
X45230Y-40125D02*
X46457Y-40125D01*
X45310Y-40205D02*
X46457Y-40205D01*
X45390Y-40285D02*
X46457Y-40285D01*
X45454Y-40365D02*
X46457Y-40365D01*
X45493Y-40445D02*
X46457Y-40445D01*
X45509Y-40525D02*
X46457Y-40525D01*
X45510Y-40605D02*
X46457Y-40605D01*
X45510Y-40685D02*
X46457Y-40685D01*
X45550Y-40765D02*
X46457Y-40765D01*
X45658Y-40845D02*
X46457Y-40845D01*
X45794Y-40925D02*
X46457Y-40925D01*
X45863Y-41005D02*
X46457Y-41005D01*
X45896Y-41085D02*
X46457Y-41085D01*
X45910Y-41165D02*
X46457Y-41165D01*
X45910Y-41245D02*
X46461Y-41245D01*
X45883Y-41325D02*
X46477Y-41325D01*
X45843Y-41405D02*
X46531Y-41405D01*
X45324Y-41485D02*
X45336Y-41485D01*
X45763Y-41485D02*
X46677Y-41485D01*
X45357Y-41565D02*
X46969Y-41565D01*
X45365Y-41645D02*
X46969Y-41645D01*
X45365Y-41725D02*
X46969Y-41725D01*
X45344Y-41805D02*
X46969Y-41805D01*
X45310Y-41885D02*
X46969Y-41885D01*
X45246Y-41965D02*
X46969Y-41965D01*
X44630Y-42045D02*
X44735Y-42045D01*
X45145Y-42045D02*
X46969Y-42045D01*
X44597Y-42125D02*
X44783Y-42125D01*
X44998Y-42125D02*
X46969Y-42125D01*
X44556Y-42205D02*
X44647Y-42205D01*
X45134Y-42205D02*
X46969Y-42205D01*
X44476Y-42285D02*
X44578Y-42285D01*
X45203Y-42285D02*
X46969Y-42285D01*
X43961Y-42365D02*
X44101Y-42365D01*
X44318Y-42365D02*
X44544Y-42365D01*
X45236Y-42365D02*
X46969Y-42365D01*
X43972Y-42445D02*
X44500Y-42445D01*
X45250Y-42445D02*
X46969Y-42445D01*
X43972Y-42525D02*
X44451Y-42525D01*
X45250Y-42525D02*
X46969Y-42525D01*
X43972Y-42605D02*
X44435Y-42605D01*
X45223Y-42605D02*
X46969Y-42605D01*
X43972Y-42685D02*
X44429Y-42685D01*
X45183Y-42685D02*
X46969Y-42685D01*
X43972Y-42765D02*
X44429Y-42765D01*
X45103Y-42765D02*
X46969Y-42765D01*
X43972Y-42845D02*
X44429Y-42845D01*
X45029Y-42845D02*
X46969Y-42845D01*
X43972Y-42925D02*
X44429Y-42925D01*
X45029Y-42925D02*
X46969Y-42925D01*
X43949Y-43005D02*
X44429Y-43005D01*
X45029Y-43005D02*
X46969Y-43005D01*
X44019Y-43085D02*
X44429Y-43085D01*
X45029Y-43085D02*
X46969Y-43085D01*
X44099Y-43165D02*
X44429Y-43165D01*
X45029Y-43165D02*
X46969Y-43165D01*
X45385Y-43245D02*
X46969Y-43245D01*
X45446Y-43325D02*
X46969Y-43325D01*
X45470Y-43405D02*
X46969Y-43405D01*
X45470Y-43485D02*
X46969Y-43485D01*
X45470Y-43565D02*
X46067Y-43565D01*
X46745Y-43565D02*
X46969Y-43565D01*
X45470Y-43645D02*
X45987Y-43645D01*
X46889Y-43645D02*
X46969Y-43645D01*
X45470Y-43725D02*
X45953Y-43725D01*
X45470Y-43805D02*
X45930Y-43805D01*
X45466Y-43885D02*
X45930Y-43885D01*
X45433Y-43965D02*
X45948Y-43965D01*
X45398Y-44045D02*
X45981Y-44045D01*
X45451Y-44125D02*
X46056Y-44125D01*
X45470Y-44205D02*
X46206Y-44205D01*
X46373Y-44205D02*
X46601Y-44205D01*
X45470Y-44285D02*
X46660Y-44285D01*
X45470Y-44365D02*
X46660Y-44365D01*
X45470Y-44445D02*
X46660Y-44445D01*
X45470Y-44525D02*
X46660Y-44525D01*
X45470Y-44605D02*
X46660Y-44605D01*
X45461Y-44685D02*
X45807Y-44685D01*
X46214Y-44685D02*
X46660Y-44685D01*
X45421Y-44765D02*
X45727Y-44765D01*
X46294Y-44765D02*
X46660Y-44765D01*
X45410Y-44845D02*
X45452Y-44845D01*
X45669Y-44845D02*
X45680Y-44845D01*
X39645Y-40961D02*
X39645Y-40961D01*
X39645Y-41041D02*
X39928Y-41041D01*
X39645Y-41121D02*
X39979Y-41121D01*
X39645Y-41201D02*
X40205Y-41201D01*
X39645Y-41281D02*
X40465Y-41281D01*
X40653Y-41281D02*
X40758Y-41281D01*
X39645Y-41361D02*
X40393Y-41361D01*
X40768Y-41361D02*
X40838Y-41361D01*
X39645Y-41441D02*
X40287Y-41441D01*
X40873Y-41441D02*
X40985Y-41441D01*
X39645Y-41521D02*
X40249Y-41521D01*
X40911Y-41521D02*
X41064Y-41521D01*
X39645Y-41601D02*
X40241Y-41601D01*
X40919Y-41601D02*
X41064Y-41601D01*
X39645Y-41681D02*
X40241Y-41681D01*
X40919Y-41681D02*
X41064Y-41681D01*
X39645Y-41761D02*
X39662Y-41761D01*
X40148Y-41761D02*
X40241Y-41761D01*
X40919Y-41761D02*
X41064Y-41761D01*
X40221Y-41841D02*
X40250Y-41841D01*
X40971Y-41841D02*
X41097Y-41841D01*
X40254Y-41921D02*
X40280Y-41921D01*
X41004Y-41921D02*
X41172Y-41921D01*
X40254Y-42001D02*
X40280Y-42001D01*
X41004Y-42001D02*
X41142Y-42001D01*
X40257Y-42081D02*
X40286Y-42081D01*
X41004Y-42081D02*
X41086Y-42081D01*
X41004Y-42161D02*
X41064Y-42161D01*
X41004Y-42241D02*
X41064Y-42241D01*
X45422Y-44857D02*
X45489Y-44830D01*
X45632Y-44830D01*
X45678Y-44849D01*
X45705Y-44786D01*
X45807Y-44685D01*
X45939Y-44630D01*
X46082Y-44630D01*
X46214Y-44685D01*
X46315Y-44787D01*
X46338Y-44842D01*
X46388Y-44822D01*
X46604Y-44822D01*
X46660Y-44845D01*
X46660Y-44264D01*
X46546Y-44150D01*
X46498Y-44149D01*
X46493Y-44155D01*
X46361Y-44210D01*
X46218Y-44210D01*
X46086Y-44155D01*
X45985Y-44053D01*
X45930Y-43921D01*
X45930Y-43778D01*
X45985Y-43646D01*
X46087Y-43545D01*
X46219Y-43490D01*
X46362Y-43490D01*
X46494Y-43545D01*
X46498Y-43549D01*
X46670Y-43550D01*
X46785Y-43573D01*
X46882Y-43638D01*
X46969Y-43725D01*
X46969Y-41496D01*
X46732Y-41496D01*
X46627Y-41475D01*
X46538Y-41415D01*
X46478Y-41326D01*
X46457Y-41221D01*
X46457Y-41220D01*
X46457Y-41220D01*
X46457Y-39645D01*
X42269Y-39645D01*
X42269Y-40200D01*
X43325Y-40200D01*
X43737Y-39787D01*
X43835Y-39723D01*
X43950Y-39700D01*
X44680Y-39700D01*
X44795Y-39723D01*
X44892Y-39788D01*
X45422Y-40317D01*
X45487Y-40415D01*
X45510Y-40530D01*
X45510Y-40725D01*
X45614Y-40830D01*
X45622Y-40830D01*
X45754Y-40885D01*
X45855Y-40987D01*
X45910Y-41119D01*
X45910Y-41262D01*
X45855Y-41394D01*
X45753Y-41495D01*
X45621Y-41550D01*
X45478Y-41550D01*
X45346Y-41495D01*
X45314Y-41463D01*
X45365Y-41586D01*
X45365Y-41755D01*
X45300Y-41911D01*
X45180Y-42031D01*
X45024Y-42095D01*
X44855Y-42095D01*
X44699Y-42030D01*
X44688Y-42020D01*
X44635Y-42020D01*
X44635Y-42035D01*
X44570Y-42191D01*
X44450Y-42311D01*
X44294Y-42375D01*
X44125Y-42375D01*
X43969Y-42310D01*
X43961Y-42302D01*
X43961Y-42376D01*
X43972Y-42403D01*
X43972Y-42952D01*
X43946Y-43012D01*
X44138Y-43204D01*
X44188Y-43184D01*
X44429Y-43184D01*
X44429Y-42631D01*
X44452Y-42516D01*
X44517Y-42419D01*
X44530Y-42405D01*
X44530Y-42398D01*
X44585Y-42266D01*
X44687Y-42165D01*
X44819Y-42110D01*
X44962Y-42110D01*
X45094Y-42165D01*
X45195Y-42267D01*
X45250Y-42399D01*
X45250Y-42542D01*
X45195Y-42674D01*
X45093Y-42775D01*
X45029Y-42801D01*
X45029Y-43184D01*
X45271Y-43184D01*
X45362Y-43222D01*
X45432Y-43292D01*
X45470Y-43384D01*
X45470Y-43877D01*
X45432Y-43968D01*
X45376Y-44023D01*
X45432Y-44079D01*
X45470Y-44171D01*
X45470Y-44664D01*
X45432Y-44755D01*
X45375Y-44810D01*
X45422Y-44857D01*
X41798Y-50617D02*
X41798Y-50617D01*
X41730Y-50697D02*
X41928Y-50697D01*
X41417Y-50777D02*
X42051Y-50777D01*
X41430Y-50857D02*
X42051Y-50857D01*
X40259Y-49975D02*
X40259Y-49975D01*
X40259Y-50055D02*
X40339Y-50055D01*
X40259Y-50135D02*
X40419Y-50135D01*
X40251Y-50215D02*
X40470Y-50215D01*
X40259Y-50295D02*
X40461Y-50295D01*
X40259Y-50375D02*
X40461Y-50375D01*
X40259Y-50455D02*
X40461Y-50455D01*
X40259Y-50535D02*
X40461Y-50535D01*
X40225Y-50615D02*
X40494Y-50615D01*
X40152Y-50695D02*
X40519Y-50695D01*
X39645Y-50775D02*
X40501Y-50775D01*
X39645Y-50855D02*
X40501Y-50855D01*
X46969Y-50128D02*
X46969Y-50128D01*
X46480Y-50208D02*
X46969Y-50208D01*
X46480Y-50288D02*
X46969Y-50288D01*
X46480Y-50368D02*
X46969Y-50368D01*
X46962Y-50448D02*
X46969Y-50448D01*
X44140Y-48780D02*
X44140Y-48780D01*
X44140Y-48860D02*
X44870Y-48860D01*
X44140Y-48940D02*
X44848Y-48940D01*
X44577Y-49020D02*
X44840Y-49020D01*
X44628Y-49100D02*
X44840Y-49100D01*
X44644Y-49180D02*
X44797Y-49180D01*
X44644Y-49260D02*
X44764Y-49260D01*
X44644Y-49340D02*
X44760Y-49340D01*
X44644Y-49420D02*
X44763Y-49420D01*
X44618Y-49500D02*
X44796Y-49500D01*
X46969Y-48155D02*
X46969Y-48155D01*
X46888Y-48235D02*
X46969Y-48235D01*
X46807Y-48315D02*
X46969Y-48315D01*
X46840Y-48395D02*
X46969Y-48395D01*
X46859Y-48475D02*
X46969Y-48475D01*
X46859Y-48555D02*
X46969Y-48555D01*
X46859Y-48635D02*
X46969Y-48635D01*
X46859Y-48715D02*
X46969Y-48715D01*
X46827Y-48795D02*
X46969Y-48795D01*
X46757Y-48875D02*
X46969Y-48875D01*
X46575Y-48955D02*
X46969Y-48955D01*
X46575Y-49035D02*
X46969Y-49035D01*
X46575Y-49115D02*
X46969Y-49115D01*
X46575Y-49195D02*
X46969Y-49195D01*
X46575Y-49275D02*
X46969Y-49275D01*
X46575Y-49355D02*
X46969Y-49355D01*
X46575Y-49435D02*
X46969Y-49435D01*
X42230Y-45040D02*
X43083Y-45040D01*
X42209Y-45120D02*
X43163Y-45120D01*
X42194Y-45200D02*
X43131Y-45200D01*
X41134Y-45280D02*
X41446Y-45280D01*
X42194Y-45280D02*
X43077Y-45280D01*
X40934Y-45360D02*
X41446Y-45360D01*
X42194Y-45360D02*
X43044Y-45360D01*
X40868Y-45440D02*
X41446Y-45440D01*
X42194Y-45440D02*
X43040Y-45440D01*
X41029Y-45520D02*
X41446Y-45520D01*
X42194Y-45520D02*
X43030Y-45520D01*
X41109Y-45600D02*
X41446Y-45600D01*
X42194Y-45600D02*
X43030Y-45600D01*
X41146Y-45680D02*
X41448Y-45680D01*
X42191Y-45680D02*
X43030Y-45680D01*
X41170Y-45760D02*
X41471Y-45760D01*
X42158Y-45760D02*
X43030Y-45760D01*
X41170Y-45840D02*
X41471Y-45840D01*
X42149Y-45840D02*
X43030Y-45840D01*
X41153Y-45920D02*
X41471Y-45920D01*
X42149Y-45920D02*
X43030Y-45920D01*
X41132Y-46000D02*
X41471Y-46000D01*
X42149Y-46000D02*
X43030Y-46000D01*
X41149Y-46080D02*
X41500Y-46080D01*
X42119Y-46080D02*
X43030Y-46080D01*
X41149Y-46160D02*
X41568Y-46160D01*
X42052Y-46160D02*
X43030Y-46160D01*
X41149Y-46240D02*
X43030Y-46240D01*
X41149Y-46320D02*
X43030Y-46320D01*
X41115Y-46400D02*
X43030Y-46400D01*
X41042Y-46480D02*
X43030Y-46480D01*
X40810Y-46560D02*
X43030Y-46560D01*
X40810Y-46640D02*
X43030Y-46640D01*
X40810Y-46720D02*
X43030Y-46720D01*
X40810Y-46800D02*
X43030Y-46800D01*
X40810Y-46880D02*
X43030Y-46880D01*
X40810Y-46960D02*
X41339Y-46960D01*
X41482Y-46960D02*
X43030Y-46960D01*
X40810Y-47040D02*
X41182Y-47040D01*
X41701Y-47040D02*
X43030Y-47040D01*
X40949Y-47120D02*
X41104Y-47120D01*
X41824Y-47120D02*
X43030Y-47120D01*
X41027Y-47200D02*
X41070Y-47200D01*
X41904Y-47200D02*
X43030Y-47200D01*
X41984Y-47280D02*
X43030Y-47280D01*
X42128Y-47360D02*
X43030Y-47360D01*
X42229Y-47440D02*
X43030Y-47440D01*
X41060Y-47520D02*
X41103Y-47520D01*
X42283Y-47520D02*
X42995Y-47520D01*
X40400Y-47600D02*
X40413Y-47600D01*
X41026Y-47600D02*
X41181Y-47600D01*
X42317Y-47600D02*
X42970Y-47600D01*
X40400Y-47680D02*
X40491Y-47680D01*
X40948Y-47680D02*
X41536Y-47680D01*
X42320Y-47680D02*
X42970Y-47680D01*
X40400Y-47760D02*
X41603Y-47760D01*
X42316Y-47760D02*
X42986Y-47760D01*
X40400Y-47840D02*
X41637Y-47840D01*
X42283Y-47840D02*
X43019Y-47840D01*
X40400Y-47920D02*
X41691Y-47920D01*
X42228Y-47920D02*
X43091Y-47920D01*
X40400Y-48000D02*
X41792Y-48000D01*
X42127Y-48000D02*
X43234Y-48000D01*
X43424Y-48000D02*
X43458Y-48000D01*
X40400Y-48080D02*
X41899Y-48080D01*
X42042Y-48080D02*
X43458Y-48080D01*
X40400Y-48160D02*
X41742Y-48160D01*
X42199Y-48160D02*
X43458Y-48160D01*
X40400Y-48240D02*
X41664Y-48240D01*
X42277Y-48240D02*
X43458Y-48240D01*
X40400Y-48320D02*
X41630Y-48320D01*
X42310Y-48320D02*
X43458Y-48320D01*
X40400Y-48400D02*
X41610Y-48400D01*
X42330Y-48400D02*
X42439Y-48400D01*
X42582Y-48400D02*
X43458Y-48400D01*
X40400Y-48480D02*
X41534Y-48480D01*
X42739Y-48480D02*
X43458Y-48480D01*
X40400Y-48560D02*
X41467Y-48560D01*
X42817Y-48560D02*
X43458Y-48560D01*
X40400Y-48640D02*
X41401Y-48640D01*
X42850Y-48640D02*
X43458Y-48640D01*
X40400Y-48720D02*
X41359Y-48720D01*
X42870Y-48720D02*
X43458Y-48720D01*
X40400Y-48800D02*
X41330Y-48800D01*
X42870Y-48800D02*
X43324Y-48800D01*
X40400Y-48880D02*
X41330Y-48880D01*
X42850Y-48880D02*
X43223Y-48880D01*
X40400Y-48960D02*
X41342Y-48960D01*
X42816Y-48960D02*
X43143Y-48960D01*
X40400Y-49040D02*
X41375Y-49040D01*
X42738Y-49040D02*
X43063Y-49040D01*
X40476Y-49120D02*
X41441Y-49120D01*
X42693Y-49120D02*
X42983Y-49120D01*
X40537Y-49200D02*
X40975Y-49200D01*
X42779Y-49200D02*
X42804Y-49200D01*
X40569Y-49280D02*
X40874Y-49280D01*
X41004Y-43120D02*
X42423Y-43120D01*
X41004Y-43200D02*
X42503Y-43200D01*
X41004Y-43280D02*
X42583Y-43280D01*
X40987Y-43360D02*
X42663Y-43360D01*
X40937Y-43440D02*
X42743Y-43440D01*
X40710Y-43520D02*
X42823Y-43520D01*
X40710Y-43600D02*
X42937Y-43600D01*
X40710Y-43680D02*
X43353Y-43680D01*
X40710Y-43760D02*
X43433Y-43760D01*
X40710Y-43840D02*
X43513Y-43840D01*
X40710Y-43920D02*
X43593Y-43920D01*
X40710Y-44000D02*
X43673Y-44000D01*
X40710Y-44080D02*
X43753Y-44080D01*
X40710Y-44160D02*
X43833Y-44160D01*
X40710Y-44240D02*
X43913Y-44240D01*
X40710Y-44320D02*
X40838Y-44320D01*
X42082Y-44320D02*
X43988Y-44320D01*
X40710Y-44400D02*
X40724Y-44400D01*
X42197Y-44400D02*
X43988Y-44400D01*
X43200Y-44480D02*
X43988Y-44480D01*
X43396Y-44560D02*
X43988Y-44560D01*
X43476Y-44640D02*
X43988Y-44640D01*
X43556Y-44720D02*
X44011Y-44720D01*
X43636Y-44800D02*
X44071Y-44800D01*
X43716Y-44880D02*
X44021Y-44880D01*
X43796Y-44960D02*
X43988Y-44960D01*
X43876Y-45040D02*
X43988Y-45040D01*
X43956Y-45120D02*
X43988Y-45120D01*
X42269Y-39645D02*
X46457Y-39645D01*
X42269Y-39725D02*
X43832Y-39725D01*
X44798Y-39725D02*
X46457Y-39725D01*
X42269Y-39805D02*
X43720Y-39805D01*
X44910Y-39805D02*
X46457Y-39805D01*
X42269Y-39885D02*
X43640Y-39885D01*
X44990Y-39885D02*
X46457Y-39885D01*
X42269Y-39965D02*
X43560Y-39965D01*
X45070Y-39965D02*
X46457Y-39965D01*
X42269Y-40045D02*
X43480Y-40045D01*
X45150Y-40045D02*
X46457Y-40045D01*
X42269Y-40125D02*
X43400Y-40125D01*
X45230Y-40125D02*
X46457Y-40125D01*
X45310Y-40205D02*
X46457Y-40205D01*
X45390Y-40285D02*
X46457Y-40285D01*
X45454Y-40365D02*
X46457Y-40365D01*
X45493Y-40445D02*
X46457Y-40445D01*
X45509Y-40525D02*
X46457Y-40525D01*
X45510Y-40605D02*
X46457Y-40605D01*
X45510Y-40685D02*
X46457Y-40685D01*
X45550Y-40765D02*
X46457Y-40765D01*
X45658Y-40845D02*
X46457Y-40845D01*
X45794Y-40925D02*
X46457Y-40925D01*
X45863Y-41005D02*
X46457Y-41005D01*
X45896Y-41085D02*
X46457Y-41085D01*
X45910Y-41165D02*
X46457Y-41165D01*
X45910Y-41245D02*
X46461Y-41245D01*
X45883Y-41325D02*
X46477Y-41325D01*
X45843Y-41405D02*
X46531Y-41405D01*
X45324Y-41485D02*
X45336Y-41485D01*
X45763Y-41485D02*
X46677Y-41485D01*
X45357Y-41565D02*
X46969Y-41565D01*
X45365Y-41645D02*
X46969Y-41645D01*
X45365Y-41725D02*
X46969Y-41725D01*
X45344Y-41805D02*
X46969Y-41805D01*
X45310Y-41885D02*
X46969Y-41885D01*
X45246Y-41965D02*
X46969Y-41965D01*
X44630Y-42045D02*
X44735Y-42045D01*
X45145Y-42045D02*
X46969Y-42045D01*
X44597Y-42125D02*
X44783Y-42125D01*
X44998Y-42125D02*
X46969Y-42125D01*
X44556Y-42205D02*
X44647Y-42205D01*
X45134Y-42205D02*
X46969Y-42205D01*
X44476Y-42285D02*
X44578Y-42285D01*
X45203Y-42285D02*
X46969Y-42285D01*
X43961Y-42365D02*
X44101Y-42365D01*
X44318Y-42365D02*
X44544Y-42365D01*
X45236Y-42365D02*
X46969Y-42365D01*
X43972Y-42445D02*
X44500Y-42445D01*
X45250Y-42445D02*
X46969Y-42445D01*
X43972Y-42525D02*
X44451Y-42525D01*
X45250Y-42525D02*
X46969Y-42525D01*
X43972Y-42605D02*
X44435Y-42605D01*
X45223Y-42605D02*
X46969Y-42605D01*
X43972Y-42685D02*
X44429Y-42685D01*
X45183Y-42685D02*
X46969Y-42685D01*
X43972Y-42765D02*
X44429Y-42765D01*
X45103Y-42765D02*
X46969Y-42765D01*
X43972Y-42845D02*
X44429Y-42845D01*
X45029Y-42845D02*
X46969Y-42845D01*
X43972Y-42925D02*
X44429Y-42925D01*
X45029Y-42925D02*
X46969Y-42925D01*
X43949Y-43005D02*
X44429Y-43005D01*
X45029Y-43005D02*
X46969Y-43005D01*
X44019Y-43085D02*
X44429Y-43085D01*
X45029Y-43085D02*
X46969Y-43085D01*
X44099Y-43165D02*
X44429Y-43165D01*
X45029Y-43165D02*
X46969Y-43165D01*
X45385Y-43245D02*
X46969Y-43245D01*
X45446Y-43325D02*
X46969Y-43325D01*
X45470Y-43405D02*
X46969Y-43405D01*
X45470Y-43485D02*
X46969Y-43485D01*
X45470Y-43565D02*
X46067Y-43565D01*
X46745Y-43565D02*
X46969Y-43565D01*
X45470Y-43645D02*
X45987Y-43645D01*
X46889Y-43645D02*
X46969Y-43645D01*
X45470Y-43725D02*
X45953Y-43725D01*
X45470Y-43805D02*
X45930Y-43805D01*
X45466Y-43885D02*
X45930Y-43885D01*
X45433Y-43965D02*
X45948Y-43965D01*
X45398Y-44045D02*
X45981Y-44045D01*
X45451Y-44125D02*
X46056Y-44125D01*
X45470Y-44205D02*
X46206Y-44205D01*
X46373Y-44205D02*
X46601Y-44205D01*
X45470Y-44285D02*
X46660Y-44285D01*
X45470Y-44365D02*
X46660Y-44365D01*
X45470Y-44445D02*
X46660Y-44445D01*
X45470Y-44525D02*
X46660Y-44525D01*
X45470Y-44605D02*
X46660Y-44605D01*
X45461Y-44685D02*
X45807Y-44685D01*
X46214Y-44685D02*
X46660Y-44685D01*
X45421Y-44765D02*
X45727Y-44765D01*
X46294Y-44765D02*
X46660Y-44765D01*
X45410Y-44845D02*
X45452Y-44845D01*
X45669Y-44845D02*
X45680Y-44845D01*
X39645Y-40961D02*
X39645Y-40961D01*
X39645Y-41041D02*
X39928Y-41041D01*
X39645Y-41121D02*
X39979Y-41121D01*
X39645Y-41201D02*
X40205Y-41201D01*
X39645Y-41281D02*
X40465Y-41281D01*
X40653Y-41281D02*
X40758Y-41281D01*
X39645Y-41361D02*
X40393Y-41361D01*
X40768Y-41361D02*
X40838Y-41361D01*
X39645Y-41441D02*
X40287Y-41441D01*
X40873Y-41441D02*
X40985Y-41441D01*
X39645Y-41521D02*
X40249Y-41521D01*
X40911Y-41521D02*
X41064Y-41521D01*
X39645Y-41601D02*
X40241Y-41601D01*
X40919Y-41601D02*
X41064Y-41601D01*
X39645Y-41681D02*
X40241Y-41681D01*
X40919Y-41681D02*
X41064Y-41681D01*
X39645Y-41761D02*
X39662Y-41761D01*
X40148Y-41761D02*
X40241Y-41761D01*
X40919Y-41761D02*
X41064Y-41761D01*
X40221Y-41841D02*
X40250Y-41841D01*
X40971Y-41841D02*
X41097Y-41841D01*
X40254Y-41921D02*
X40280Y-41921D01*
X41004Y-41921D02*
X41172Y-41921D01*
X40254Y-42001D02*
X40280Y-42001D01*
X41004Y-42001D02*
X41142Y-42001D01*
X40257Y-42081D02*
X40286Y-42081D01*
X41004Y-42081D02*
X41086Y-42081D01*
X41004Y-42161D02*
X41064Y-42161D01*
X41004Y-42241D02*
X41064Y-42241D01*
X41064Y-42312D02*
X41064Y-42132D01*
X41102Y-42041D01*
X41172Y-41971D01*
X41232Y-41946D01*
X41172Y-41921D01*
X41102Y-41851D01*
X41064Y-41759D01*
X41064Y-41461D01*
X41034Y-41461D01*
X40870Y-41393D01*
X40745Y-41267D01*
X40736Y-41246D01*
X40644Y-41285D01*
X40475Y-41285D01*
X40319Y-41220D01*
X40309Y-41210D01*
X40250Y-41210D01*
X40195Y-41199D01*
X40110Y-41199D01*
X40019Y-41161D01*
X39949Y-41091D01*
X39911Y-40999D01*
X39911Y-40987D01*
X39881Y-41000D01*
X39738Y-41000D01*
X39645Y-40961D01*
X39645Y-41778D01*
X39664Y-41759D01*
X39756Y-41721D01*
X40055Y-41721D01*
X40146Y-41759D01*
X40216Y-41829D01*
X40254Y-41921D01*
X40254Y-42078D01*
X40294Y-42118D01*
X40280Y-42045D01*
X40280Y-41912D01*
X40279Y-41911D01*
X40241Y-41819D01*
X40241Y-41540D01*
X40279Y-41449D01*
X40349Y-41379D01*
X40441Y-41341D01*
X40720Y-41341D01*
X40811Y-41379D01*
X40881Y-41449D01*
X40919Y-41541D01*
X40919Y-41782D01*
X40966Y-41829D01*
X41004Y-41921D01*
X41004Y-42287D01*
X41064Y-42312D01*
M02*
