G04 (created by PCBNEW-RS274X (2010-05-05 BZR 2356)-stable) date 2010年10月26日 星期二 23时10分03秒*
G01*
G70*
G90*
%MOIN*%
G04 Gerber Fmt 3.4, Leading zero omitted, Abs format*
%FSLAX34Y34*%
G04 APERTURE LIST*
%ADD10C,0.006000*%
%ADD11C,0.015000*%
%ADD12C,0.003000*%
%ADD13C,0.005000*%
%ADD14C,0.012000*%
%ADD15C,0.004500*%
G04 APERTURE END LIST*
G54D10*
G54D11*
X47244Y-41220D02*
X47244Y-41220D01*
X46732Y-41221D02*
X47244Y-41221D01*
X46732Y-39370D02*
X46732Y-41220D01*
X39370Y-51181D02*
X39370Y-39370D01*
X47244Y-51181D02*
X39370Y-51181D01*
X47244Y-41220D02*
X47244Y-51181D01*
X39370Y-39370D02*
X46732Y-39370D01*
G54D12*
X43180Y-50200D02*
X43910Y-50200D01*
X43910Y-50200D02*
X43910Y-49820D01*
X43910Y-49820D02*
X43180Y-49820D01*
X43180Y-49820D02*
X43180Y-50200D01*
X46330Y-48770D02*
X47060Y-48770D01*
X47060Y-48770D02*
X47060Y-48390D01*
X47060Y-48390D02*
X46330Y-48390D01*
X46330Y-48390D02*
X46330Y-48770D01*
X43910Y-49440D02*
X43180Y-49440D01*
X43180Y-49440D02*
X43180Y-49820D01*
X43180Y-49820D02*
X43910Y-49820D01*
X43910Y-49820D02*
X43910Y-49440D01*
X40620Y-45990D02*
X40620Y-46720D01*
X40620Y-46720D02*
X41000Y-46720D01*
X41000Y-46720D02*
X41000Y-45990D01*
X41000Y-45990D02*
X40620Y-45990D01*
X41060Y-45130D02*
X41790Y-45130D01*
X41790Y-45130D02*
X41790Y-44750D01*
X41790Y-44750D02*
X41060Y-44750D01*
X41060Y-44750D02*
X41060Y-45130D01*
X43910Y-50200D02*
X43180Y-50200D01*
X43180Y-50200D02*
X43180Y-50580D01*
X43180Y-50580D02*
X43910Y-50580D01*
X43910Y-50580D02*
X43910Y-50200D01*
X43910Y-50590D02*
X43180Y-50590D01*
X43180Y-50590D02*
X43180Y-50970D01*
X43180Y-50970D02*
X43910Y-50970D01*
X43910Y-50970D02*
X43910Y-50590D01*
X40440Y-41400D02*
X40440Y-40670D01*
X40440Y-40670D02*
X40060Y-40670D01*
X40060Y-40670D02*
X40060Y-41400D01*
X40060Y-41400D02*
X40440Y-41400D01*
X42580Y-50690D02*
X41850Y-50690D01*
X41850Y-50690D02*
X41850Y-51070D01*
X41850Y-51070D02*
X42580Y-51070D01*
X42580Y-51070D02*
X42580Y-50690D01*
X41030Y-50690D02*
X40300Y-50690D01*
X40300Y-50690D02*
X40300Y-51070D01*
X40300Y-51070D02*
X41030Y-51070D01*
X41030Y-51070D02*
X41030Y-50690D01*
X40390Y-41870D02*
X41120Y-41870D01*
X41120Y-41870D02*
X41120Y-41490D01*
X41120Y-41490D02*
X40390Y-41490D01*
X40390Y-41490D02*
X40390Y-41870D01*
X39990Y-44110D02*
X39990Y-43380D01*
X39990Y-43380D02*
X39610Y-43380D01*
X39610Y-43380D02*
X39610Y-44110D01*
X39610Y-44110D02*
X39990Y-44110D01*
G54D13*
X43448Y-42927D02*
X44348Y-42927D01*
X44348Y-42927D02*
X44348Y-42427D01*
X44348Y-42427D02*
X43448Y-42427D01*
X43448Y-42427D02*
X43448Y-42927D01*
X41970Y-45150D02*
X41070Y-45150D01*
X41070Y-45150D02*
X41070Y-45650D01*
X41070Y-45650D02*
X41970Y-45650D01*
X41970Y-45650D02*
X41970Y-45150D01*
X41370Y-40380D02*
X41370Y-39480D01*
X41370Y-39480D02*
X42020Y-39480D01*
X42720Y-40380D02*
X43370Y-40380D01*
X43370Y-40380D02*
X43370Y-39480D01*
X43370Y-39480D02*
X42720Y-39480D01*
X42020Y-40380D02*
X41370Y-40380D01*
X46320Y-51040D02*
X46320Y-49040D01*
X46320Y-49040D02*
X44520Y-49040D01*
X44520Y-49040D02*
X44520Y-51040D01*
X44520Y-51040D02*
X46320Y-51040D01*
X45720Y-51040D02*
X45720Y-50840D01*
X45720Y-50840D02*
X45220Y-50840D01*
X45220Y-50840D02*
X45220Y-51040D01*
X42280Y-49420D02*
X41580Y-49420D01*
X41580Y-49420D02*
X41580Y-50620D01*
X41580Y-50620D02*
X42280Y-50620D01*
X42280Y-50620D02*
X42280Y-49420D01*
X39680Y-42270D02*
X39680Y-42970D01*
X39680Y-42970D02*
X40880Y-42970D01*
X40880Y-42970D02*
X40880Y-42270D01*
X40880Y-42270D02*
X39680Y-42270D01*
X40710Y-49410D02*
X40010Y-49410D01*
X40010Y-49410D02*
X40010Y-50610D01*
X40010Y-50610D02*
X40710Y-50610D01*
X40710Y-50610D02*
X40710Y-49410D01*
G54D12*
X41897Y-42408D02*
X41895Y-42421D01*
X41891Y-42434D01*
X41885Y-42446D01*
X41876Y-42457D01*
X41866Y-42466D01*
X41854Y-42472D01*
X41841Y-42476D01*
X41827Y-42477D01*
X41814Y-42476D01*
X41801Y-42472D01*
X41789Y-42466D01*
X41779Y-42458D01*
X41770Y-42447D01*
X41763Y-42435D01*
X41759Y-42422D01*
X41758Y-42408D01*
X41759Y-42396D01*
X41762Y-42383D01*
X41769Y-42371D01*
X41777Y-42360D01*
X41788Y-42351D01*
X41799Y-42344D01*
X41812Y-42340D01*
X41826Y-42339D01*
X41839Y-42340D01*
X41852Y-42343D01*
X41864Y-42349D01*
X41875Y-42358D01*
X41884Y-42368D01*
X41890Y-42380D01*
X41895Y-42393D01*
X41896Y-42407D01*
X41897Y-42408D01*
X42257Y-41432D02*
X42257Y-41353D01*
X42257Y-41353D02*
X41711Y-41351D01*
X41711Y-41351D02*
X41711Y-41432D01*
X42256Y-42459D02*
X42256Y-42537D01*
X42256Y-42537D02*
X41715Y-42536D01*
X41715Y-42536D02*
X41714Y-42463D01*
X43432Y-42434D02*
X44162Y-42434D01*
X44162Y-42434D02*
X44162Y-42054D01*
X44162Y-42054D02*
X43432Y-42054D01*
X43432Y-42054D02*
X43432Y-42434D01*
X42000Y-45680D02*
X41270Y-45680D01*
X41270Y-45680D02*
X41270Y-46060D01*
X41270Y-46060D02*
X42000Y-46060D01*
X42000Y-46060D02*
X42000Y-45680D01*
X45438Y-43433D02*
X45241Y-43630D01*
X45241Y-43630D02*
X45438Y-43827D01*
X45438Y-43827D02*
X45438Y-43433D01*
X42603Y-43433D02*
X42603Y-43039D01*
X42603Y-43039D02*
X44768Y-43039D01*
X44768Y-43039D02*
X44768Y-43433D01*
X42603Y-48551D02*
X42603Y-48945D01*
X42603Y-48945D02*
X44768Y-48945D01*
X44768Y-48945D02*
X44768Y-48551D01*
G54D14*
X46996Y-47866D02*
X46996Y-47866D01*
X45996Y-47866D02*
X46996Y-47866D01*
X46996Y-47866D02*
X46996Y-47866D01*
X46996Y-47866D02*
X46996Y-43866D01*
X46996Y-43866D02*
X45996Y-43866D01*
X45996Y-43866D02*
X45996Y-47866D01*
X45996Y-46866D02*
X46996Y-46866D01*
G54D15*
X42829Y-50073D02*
X42889Y-49940D01*
X42932Y-50073D02*
X42932Y-49793D01*
X42864Y-49793D01*
X42846Y-49807D01*
X42838Y-49820D01*
X42829Y-49847D01*
X42829Y-49887D01*
X42838Y-49913D01*
X42846Y-49927D01*
X42864Y-49940D01*
X42932Y-49940D01*
X42761Y-49820D02*
X42752Y-49807D01*
X42735Y-49793D01*
X42692Y-49793D01*
X42675Y-49807D01*
X42666Y-49820D01*
X42658Y-49847D01*
X42658Y-49873D01*
X42666Y-49913D01*
X42769Y-50073D01*
X42658Y-50073D01*
X46835Y-48297D02*
X46844Y-48310D01*
X46870Y-48323D01*
X46887Y-48323D01*
X46912Y-48310D01*
X46930Y-48283D01*
X46938Y-48257D01*
X46947Y-48203D01*
X46947Y-48163D01*
X46938Y-48110D01*
X46930Y-48083D01*
X46912Y-48057D01*
X46887Y-48043D01*
X46870Y-48043D01*
X46844Y-48057D01*
X46835Y-48070D01*
X46664Y-48323D02*
X46767Y-48323D01*
X46715Y-48323D02*
X46715Y-48043D01*
X46732Y-48083D01*
X46750Y-48110D01*
X46767Y-48123D01*
X46553Y-48043D02*
X46536Y-48043D01*
X46519Y-48057D01*
X46510Y-48070D01*
X46501Y-48097D01*
X46493Y-48150D01*
X46493Y-48217D01*
X46501Y-48270D01*
X46510Y-48297D01*
X46519Y-48310D01*
X46536Y-48323D01*
X46553Y-48323D01*
X46570Y-48310D01*
X46579Y-48297D01*
X46587Y-48270D01*
X46596Y-48217D01*
X46596Y-48150D01*
X46587Y-48097D01*
X46579Y-48070D01*
X46570Y-48057D01*
X46553Y-48043D01*
X42839Y-49663D02*
X42899Y-49530D01*
X42942Y-49663D02*
X42942Y-49383D01*
X42874Y-49383D01*
X42856Y-49397D01*
X42848Y-49410D01*
X42839Y-49437D01*
X42839Y-49477D01*
X42848Y-49503D01*
X42856Y-49517D01*
X42874Y-49530D01*
X42942Y-49530D01*
X42668Y-49663D02*
X42771Y-49663D01*
X42719Y-49663D02*
X42719Y-49383D01*
X42736Y-49423D01*
X42754Y-49450D01*
X42771Y-49463D01*
X40945Y-47067D02*
X40954Y-47080D01*
X40980Y-47093D01*
X40997Y-47093D01*
X41022Y-47080D01*
X41040Y-47053D01*
X41048Y-47027D01*
X41057Y-46973D01*
X41057Y-46933D01*
X41048Y-46880D01*
X41040Y-46853D01*
X41022Y-46827D01*
X40997Y-46813D01*
X40980Y-46813D01*
X40954Y-46827D01*
X40945Y-46840D01*
X40877Y-46840D02*
X40868Y-46827D01*
X40851Y-46813D01*
X40808Y-46813D01*
X40791Y-46827D01*
X40782Y-46840D01*
X40774Y-46867D01*
X40774Y-46893D01*
X40782Y-46933D01*
X40885Y-47093D01*
X40774Y-47093D01*
X40714Y-46813D02*
X40603Y-46813D01*
X40663Y-46920D01*
X40637Y-46920D01*
X40620Y-46933D01*
X40611Y-46947D01*
X40603Y-46973D01*
X40603Y-47040D01*
X40611Y-47067D01*
X40620Y-47080D01*
X40637Y-47093D01*
X40689Y-47093D01*
X40706Y-47080D01*
X40714Y-47067D01*
X42215Y-45057D02*
X42224Y-45070D01*
X42250Y-45083D01*
X42267Y-45083D01*
X42292Y-45070D01*
X42310Y-45043D01*
X42318Y-45017D01*
X42327Y-44963D01*
X42327Y-44923D01*
X42318Y-44870D01*
X42310Y-44843D01*
X42292Y-44817D01*
X42267Y-44803D01*
X42250Y-44803D01*
X42224Y-44817D01*
X42215Y-44830D01*
X42147Y-44830D02*
X42138Y-44817D01*
X42121Y-44803D01*
X42078Y-44803D01*
X42061Y-44817D01*
X42052Y-44830D01*
X42044Y-44857D01*
X42044Y-44883D01*
X42052Y-44923D01*
X42155Y-45083D01*
X42044Y-45083D01*
X41933Y-44803D02*
X41916Y-44803D01*
X41899Y-44817D01*
X41890Y-44830D01*
X41881Y-44857D01*
X41873Y-44910D01*
X41873Y-44977D01*
X41881Y-45030D01*
X41890Y-45057D01*
X41899Y-45070D01*
X41916Y-45083D01*
X41933Y-45083D01*
X41950Y-45070D01*
X41959Y-45057D01*
X41967Y-45030D01*
X41976Y-44977D01*
X41976Y-44910D01*
X41967Y-44857D01*
X41959Y-44830D01*
X41950Y-44817D01*
X41933Y-44803D01*
X42995Y-50473D02*
X43055Y-50340D01*
X43098Y-50473D02*
X43098Y-50193D01*
X43030Y-50193D01*
X43012Y-50207D01*
X43004Y-50220D01*
X42995Y-50247D01*
X42995Y-50287D01*
X43004Y-50313D01*
X43012Y-50327D01*
X43030Y-50340D01*
X43098Y-50340D01*
X42824Y-50473D02*
X42927Y-50473D01*
X42875Y-50473D02*
X42875Y-50193D01*
X42892Y-50233D01*
X42910Y-50260D01*
X42927Y-50273D01*
X42756Y-50220D02*
X42747Y-50207D01*
X42730Y-50193D01*
X42687Y-50193D01*
X42670Y-50207D01*
X42661Y-50220D01*
X42653Y-50247D01*
X42653Y-50273D01*
X42661Y-50313D01*
X42764Y-50473D01*
X42653Y-50473D01*
X42995Y-50873D02*
X43055Y-50740D01*
X43098Y-50873D02*
X43098Y-50593D01*
X43030Y-50593D01*
X43012Y-50607D01*
X43004Y-50620D01*
X42995Y-50647D01*
X42995Y-50687D01*
X43004Y-50713D01*
X43012Y-50727D01*
X43030Y-50740D01*
X43098Y-50740D01*
X42824Y-50873D02*
X42927Y-50873D01*
X42875Y-50873D02*
X42875Y-50593D01*
X42892Y-50633D01*
X42910Y-50660D01*
X42927Y-50673D01*
X42764Y-50593D02*
X42653Y-50593D01*
X42713Y-50700D01*
X42687Y-50700D01*
X42670Y-50713D01*
X42661Y-50727D01*
X42653Y-50753D01*
X42653Y-50820D01*
X42661Y-50847D01*
X42670Y-50860D01*
X42687Y-50873D01*
X42739Y-50873D01*
X42756Y-50860D01*
X42764Y-50847D01*
X39973Y-40965D02*
X39840Y-40905D01*
X39973Y-40862D02*
X39693Y-40862D01*
X39693Y-40930D01*
X39707Y-40948D01*
X39720Y-40956D01*
X39747Y-40965D01*
X39787Y-40965D01*
X39813Y-40956D01*
X39827Y-40948D01*
X39840Y-40930D01*
X39840Y-40862D01*
X39973Y-41136D02*
X39973Y-41033D01*
X39973Y-41085D02*
X39693Y-41085D01*
X39733Y-41068D01*
X39760Y-41050D01*
X39773Y-41033D01*
X39693Y-41290D02*
X39693Y-41256D01*
X39707Y-41239D01*
X39720Y-41230D01*
X39760Y-41213D01*
X39813Y-41204D01*
X39920Y-41204D01*
X39947Y-41213D01*
X39960Y-41221D01*
X39973Y-41239D01*
X39973Y-41273D01*
X39960Y-41290D01*
X39947Y-41299D01*
X39920Y-41307D01*
X39853Y-41307D01*
X39827Y-41299D01*
X39813Y-41290D01*
X39800Y-41273D01*
X39800Y-41239D01*
X39813Y-41221D01*
X39827Y-41213D01*
X39853Y-41204D01*
X41645Y-50987D02*
X41654Y-51000D01*
X41680Y-51013D01*
X41697Y-51013D01*
X41722Y-51000D01*
X41740Y-50973D01*
X41748Y-50947D01*
X41757Y-50893D01*
X41757Y-50853D01*
X41748Y-50800D01*
X41740Y-50773D01*
X41722Y-50747D01*
X41697Y-50733D01*
X41680Y-50733D01*
X41654Y-50747D01*
X41645Y-50760D01*
X41585Y-50733D02*
X41474Y-50733D01*
X41534Y-50840D01*
X41508Y-50840D01*
X41491Y-50853D01*
X41482Y-50867D01*
X41474Y-50893D01*
X41474Y-50960D01*
X41482Y-50987D01*
X41491Y-51000D01*
X41508Y-51013D01*
X41560Y-51013D01*
X41577Y-51000D01*
X41585Y-50987D01*
X41406Y-50760D02*
X41397Y-50747D01*
X41380Y-50733D01*
X41337Y-50733D01*
X41320Y-50747D01*
X41311Y-50760D01*
X41303Y-50787D01*
X41303Y-50813D01*
X41311Y-50853D01*
X41414Y-51013D01*
X41303Y-51013D01*
X40075Y-51007D02*
X40084Y-51020D01*
X40110Y-51033D01*
X40127Y-51033D01*
X40152Y-51020D01*
X40170Y-50993D01*
X40178Y-50967D01*
X40187Y-50913D01*
X40187Y-50873D01*
X40178Y-50820D01*
X40170Y-50793D01*
X40152Y-50767D01*
X40127Y-50753D01*
X40110Y-50753D01*
X40084Y-50767D01*
X40075Y-50780D01*
X40015Y-50753D02*
X39904Y-50753D01*
X39964Y-50860D01*
X39938Y-50860D01*
X39921Y-50873D01*
X39912Y-50887D01*
X39904Y-50913D01*
X39904Y-50980D01*
X39912Y-51007D01*
X39921Y-51020D01*
X39938Y-51033D01*
X39990Y-51033D01*
X40007Y-51020D01*
X40015Y-51007D01*
X39844Y-50753D02*
X39733Y-50753D01*
X39793Y-50860D01*
X39767Y-50860D01*
X39750Y-50873D01*
X39741Y-50887D01*
X39733Y-50913D01*
X39733Y-50980D01*
X39741Y-51007D01*
X39750Y-51020D01*
X39767Y-51033D01*
X39819Y-51033D01*
X39836Y-51020D01*
X39844Y-51007D01*
X40225Y-41787D02*
X40234Y-41800D01*
X40260Y-41813D01*
X40277Y-41813D01*
X40302Y-41800D01*
X40320Y-41773D01*
X40328Y-41747D01*
X40337Y-41693D01*
X40337Y-41653D01*
X40328Y-41600D01*
X40320Y-41573D01*
X40302Y-41547D01*
X40277Y-41533D01*
X40260Y-41533D01*
X40234Y-41547D01*
X40225Y-41560D01*
X40165Y-41533D02*
X40054Y-41533D01*
X40114Y-41640D01*
X40088Y-41640D01*
X40071Y-41653D01*
X40062Y-41667D01*
X40054Y-41693D01*
X40054Y-41760D01*
X40062Y-41787D01*
X40071Y-41800D01*
X40088Y-41813D01*
X40140Y-41813D01*
X40157Y-41800D01*
X40165Y-41787D01*
X39891Y-41533D02*
X39977Y-41533D01*
X39986Y-41667D01*
X39977Y-41653D01*
X39960Y-41640D01*
X39917Y-41640D01*
X39900Y-41653D01*
X39891Y-41667D01*
X39883Y-41693D01*
X39883Y-41760D01*
X39891Y-41787D01*
X39900Y-41800D01*
X39917Y-41813D01*
X39960Y-41813D01*
X39977Y-41800D01*
X39986Y-41787D01*
X39895Y-44483D02*
X39955Y-44350D01*
X39998Y-44483D02*
X39998Y-44203D01*
X39930Y-44203D01*
X39912Y-44217D01*
X39904Y-44230D01*
X39895Y-44257D01*
X39895Y-44297D01*
X39904Y-44323D01*
X39912Y-44337D01*
X39930Y-44350D01*
X39998Y-44350D01*
X39724Y-44483D02*
X39827Y-44483D01*
X39775Y-44483D02*
X39775Y-44203D01*
X39792Y-44243D01*
X39810Y-44270D01*
X39827Y-44283D01*
X39664Y-44203D02*
X39544Y-44203D01*
X39621Y-44483D01*
X43243Y-42754D02*
X43252Y-42767D01*
X43278Y-42780D01*
X43295Y-42780D01*
X43320Y-42767D01*
X43338Y-42740D01*
X43346Y-42714D01*
X43355Y-42660D01*
X43355Y-42620D01*
X43346Y-42567D01*
X43338Y-42540D01*
X43320Y-42514D01*
X43295Y-42500D01*
X43278Y-42500D01*
X43252Y-42514D01*
X43243Y-42527D01*
X43175Y-42527D02*
X43166Y-42514D01*
X43149Y-42500D01*
X43106Y-42500D01*
X43089Y-42514D01*
X43080Y-42527D01*
X43072Y-42554D01*
X43072Y-42580D01*
X43080Y-42620D01*
X43183Y-42780D01*
X43072Y-42780D01*
X43012Y-42500D02*
X42892Y-42500D01*
X42969Y-42780D01*
X42425Y-45497D02*
X42434Y-45510D01*
X42460Y-45523D01*
X42477Y-45523D01*
X42502Y-45510D01*
X42520Y-45483D01*
X42528Y-45457D01*
X42537Y-45403D01*
X42537Y-45363D01*
X42528Y-45310D01*
X42520Y-45283D01*
X42502Y-45257D01*
X42477Y-45243D01*
X42460Y-45243D01*
X42434Y-45257D01*
X42425Y-45270D01*
X42357Y-45270D02*
X42348Y-45257D01*
X42331Y-45243D01*
X42288Y-45243D01*
X42271Y-45257D01*
X42262Y-45270D01*
X42254Y-45297D01*
X42254Y-45323D01*
X42262Y-45363D01*
X42365Y-45523D01*
X42254Y-45523D01*
X42169Y-45523D02*
X42134Y-45523D01*
X42117Y-45510D01*
X42109Y-45497D01*
X42091Y-45457D01*
X42083Y-45403D01*
X42083Y-45297D01*
X42091Y-45270D01*
X42100Y-45257D01*
X42117Y-45243D01*
X42151Y-45243D01*
X42169Y-45257D01*
X42177Y-45270D01*
X42186Y-45297D01*
X42186Y-45363D01*
X42177Y-45390D01*
X42169Y-45403D01*
X42151Y-45417D01*
X42117Y-45417D01*
X42100Y-45403D01*
X42091Y-45390D01*
X42083Y-45363D01*
X43805Y-40027D02*
X43814Y-40040D01*
X43840Y-40053D01*
X43857Y-40053D01*
X43882Y-40040D01*
X43900Y-40013D01*
X43908Y-39987D01*
X43917Y-39933D01*
X43917Y-39893D01*
X43908Y-39840D01*
X43900Y-39813D01*
X43882Y-39787D01*
X43857Y-39773D01*
X43840Y-39773D01*
X43814Y-39787D01*
X43805Y-39800D01*
X43745Y-39773D02*
X43634Y-39773D01*
X43694Y-39880D01*
X43668Y-39880D01*
X43651Y-39893D01*
X43642Y-39907D01*
X43634Y-39933D01*
X43634Y-40000D01*
X43642Y-40027D01*
X43651Y-40040D01*
X43668Y-40053D01*
X43720Y-40053D01*
X43737Y-40040D01*
X43745Y-40027D01*
X43463Y-40053D02*
X43566Y-40053D01*
X43514Y-40053D02*
X43514Y-39773D01*
X43531Y-39813D01*
X43549Y-39840D01*
X43566Y-39853D01*
X45507Y-48643D02*
X45507Y-48870D01*
X45499Y-48897D01*
X45490Y-48910D01*
X45473Y-48923D01*
X45439Y-48923D01*
X45421Y-48910D01*
X45413Y-48897D01*
X45404Y-48870D01*
X45404Y-48643D01*
X45224Y-48923D02*
X45327Y-48923D01*
X45275Y-48923D02*
X45275Y-48643D01*
X45292Y-48683D01*
X45310Y-48710D01*
X45327Y-48723D01*
X42097Y-49043D02*
X42097Y-49270D01*
X42089Y-49297D01*
X42080Y-49310D01*
X42063Y-49323D01*
X42029Y-49323D01*
X42011Y-49310D01*
X42003Y-49297D01*
X41994Y-49270D01*
X41994Y-49043D01*
X41900Y-49323D02*
X41865Y-49323D01*
X41848Y-49310D01*
X41840Y-49297D01*
X41822Y-49257D01*
X41814Y-49203D01*
X41814Y-49097D01*
X41822Y-49070D01*
X41831Y-49057D01*
X41848Y-49043D01*
X41882Y-49043D01*
X41900Y-49057D01*
X41908Y-49070D01*
X41917Y-49097D01*
X41917Y-49163D01*
X41908Y-49190D01*
X41900Y-49203D01*
X41882Y-49217D01*
X41848Y-49217D01*
X41831Y-49203D01*
X41822Y-49190D01*
X41814Y-49163D01*
X40482Y-43453D02*
X40482Y-43680D01*
X40474Y-43707D01*
X40465Y-43720D01*
X40448Y-43733D01*
X40414Y-43733D01*
X40396Y-43720D01*
X40388Y-43707D01*
X40379Y-43680D01*
X40379Y-43453D01*
X40199Y-43733D02*
X40302Y-43733D01*
X40250Y-43733D02*
X40250Y-43453D01*
X40267Y-43493D01*
X40285Y-43520D01*
X40302Y-43533D01*
X40088Y-43453D02*
X40071Y-43453D01*
X40054Y-43467D01*
X40045Y-43480D01*
X40036Y-43507D01*
X40028Y-43560D01*
X40028Y-43627D01*
X40036Y-43680D01*
X40045Y-43707D01*
X40054Y-43720D01*
X40071Y-43733D01*
X40088Y-43733D01*
X40105Y-43720D01*
X40114Y-43707D01*
X40122Y-43680D01*
X40131Y-43627D01*
X40131Y-43560D01*
X40122Y-43507D01*
X40114Y-43480D01*
X40105Y-43467D01*
X40088Y-43453D01*
X40592Y-49033D02*
X40592Y-49260D01*
X40584Y-49287D01*
X40575Y-49300D01*
X40558Y-49313D01*
X40524Y-49313D01*
X40506Y-49300D01*
X40498Y-49287D01*
X40489Y-49260D01*
X40489Y-49033D01*
X40309Y-49313D02*
X40412Y-49313D01*
X40360Y-49313D02*
X40360Y-49033D01*
X40377Y-49073D01*
X40395Y-49100D01*
X40412Y-49113D01*
X40138Y-49313D02*
X40241Y-49313D01*
X40189Y-49313D02*
X40189Y-49033D01*
X40206Y-49073D01*
X40224Y-49100D01*
X40241Y-49113D01*
X42147Y-40953D02*
X42147Y-41180D01*
X42139Y-41207D01*
X42130Y-41220D01*
X42113Y-41233D01*
X42079Y-41233D01*
X42061Y-41220D01*
X42053Y-41207D01*
X42044Y-41180D01*
X42044Y-40953D01*
X41881Y-40953D02*
X41915Y-40953D01*
X41932Y-40967D01*
X41941Y-40980D01*
X41958Y-41020D01*
X41967Y-41073D01*
X41967Y-41180D01*
X41958Y-41207D01*
X41950Y-41220D01*
X41932Y-41233D01*
X41898Y-41233D01*
X41881Y-41220D01*
X41872Y-41207D01*
X41864Y-41180D01*
X41864Y-41113D01*
X41872Y-41087D01*
X41881Y-41073D01*
X41898Y-41060D01*
X41932Y-41060D01*
X41950Y-41073D01*
X41958Y-41087D01*
X41967Y-41113D01*
X43247Y-42291D02*
X43256Y-42304D01*
X43282Y-42317D01*
X43299Y-42317D01*
X43324Y-42304D01*
X43342Y-42277D01*
X43350Y-42251D01*
X43359Y-42197D01*
X43359Y-42157D01*
X43350Y-42104D01*
X43342Y-42077D01*
X43324Y-42051D01*
X43299Y-42037D01*
X43282Y-42037D01*
X43256Y-42051D01*
X43247Y-42064D01*
X43179Y-42064D02*
X43170Y-42051D01*
X43153Y-42037D01*
X43110Y-42037D01*
X43093Y-42051D01*
X43084Y-42064D01*
X43076Y-42091D01*
X43076Y-42117D01*
X43084Y-42157D01*
X43187Y-42317D01*
X43076Y-42317D01*
X42973Y-42157D02*
X42991Y-42144D01*
X42999Y-42131D01*
X43008Y-42104D01*
X43008Y-42091D01*
X42999Y-42064D01*
X42991Y-42051D01*
X42973Y-42037D01*
X42939Y-42037D01*
X42922Y-42051D01*
X42913Y-42064D01*
X42905Y-42091D01*
X42905Y-42104D01*
X42913Y-42131D01*
X42922Y-42144D01*
X42939Y-42157D01*
X42973Y-42157D01*
X42991Y-42171D01*
X42999Y-42184D01*
X43008Y-42211D01*
X43008Y-42264D01*
X42999Y-42291D01*
X42991Y-42304D01*
X42973Y-42317D01*
X42939Y-42317D01*
X42922Y-42304D01*
X42913Y-42291D01*
X42905Y-42264D01*
X42905Y-42211D01*
X42913Y-42184D01*
X42922Y-42171D01*
X42939Y-42157D01*
X42565Y-45957D02*
X42574Y-45970D01*
X42600Y-45983D01*
X42617Y-45983D01*
X42642Y-45970D01*
X42660Y-45943D01*
X42668Y-45917D01*
X42677Y-45863D01*
X42677Y-45823D01*
X42668Y-45770D01*
X42660Y-45743D01*
X42642Y-45717D01*
X42617Y-45703D01*
X42600Y-45703D01*
X42574Y-45717D01*
X42565Y-45730D01*
X42505Y-45703D02*
X42394Y-45703D01*
X42454Y-45810D01*
X42428Y-45810D01*
X42411Y-45823D01*
X42402Y-45837D01*
X42394Y-45863D01*
X42394Y-45930D01*
X42402Y-45957D01*
X42411Y-45970D01*
X42428Y-45983D01*
X42480Y-45983D01*
X42497Y-45970D01*
X42505Y-45957D01*
X42283Y-45703D02*
X42266Y-45703D01*
X42249Y-45717D01*
X42240Y-45730D01*
X42231Y-45757D01*
X42223Y-45810D01*
X42223Y-45877D01*
X42231Y-45930D01*
X42240Y-45957D01*
X42249Y-45970D01*
X42266Y-45983D01*
X42283Y-45983D01*
X42300Y-45970D01*
X42309Y-45957D01*
X42317Y-45930D01*
X42326Y-45877D01*
X42326Y-45810D01*
X42317Y-45757D01*
X42309Y-45730D01*
X42300Y-45717D01*
X42283Y-45703D01*
X45737Y-46095D02*
X45737Y-45815D01*
X45669Y-45815D01*
X45651Y-45829D01*
X45643Y-45842D01*
X45634Y-45869D01*
X45634Y-45909D01*
X45643Y-45935D01*
X45651Y-45949D01*
X45669Y-45962D01*
X45737Y-45962D01*
X45566Y-45842D02*
X45557Y-45829D01*
X45540Y-45815D01*
X45497Y-45815D01*
X45480Y-45829D01*
X45471Y-45842D01*
X45463Y-45869D01*
X45463Y-45895D01*
X45471Y-45935D01*
X45574Y-46095D01*
X45463Y-46095D01*
X46633Y-48268D02*
X46633Y-47988D01*
X46565Y-47988D01*
X46547Y-48002D01*
X46539Y-48015D01*
X46530Y-48042D01*
X46530Y-48082D01*
X46539Y-48108D01*
X46547Y-48122D01*
X46565Y-48135D01*
X46633Y-48135D01*
X46359Y-48268D02*
X46462Y-48268D01*
X46410Y-48268D02*
X46410Y-47988D01*
X46427Y-48028D01*
X46445Y-48055D01*
X46462Y-48068D01*
M02*
