G04 (created by PCBNEW-RS274X (2010-08-11 BZR 2448)-unstable) date Thu 16 Jun 2011 14:25:03 CST*
G01*
G70*
G90*
%MOIN*%
G04 Gerber Fmt 3.4, Leading zero omitted, Abs format*
%FSLAX34Y34*%
G04 APERTURE LIST*
%ADD10C,0.001000*%
%ADD11C,0.004200*%
%ADD12C,0.015000*%
%ADD13C,0.004500*%
%ADD14C,0.002600*%
%ADD15C,0.004000*%
%ADD16C,0.003000*%
%ADD17C,0.005000*%
%ADD18C,0.003500*%
G04 APERTURE END LIST*
G54D10*
G54D11*
X39638Y-50325D02*
X39583Y-50169D01*
X39543Y-50325D02*
X39543Y-49997D01*
X39606Y-49997D01*
X39622Y-50012D01*
X39630Y-50028D01*
X39638Y-50059D01*
X39638Y-50106D01*
X39630Y-50137D01*
X39622Y-50153D01*
X39606Y-50169D01*
X39543Y-50169D01*
X39805Y-50294D02*
X39797Y-50309D01*
X39773Y-50325D01*
X39757Y-50325D01*
X39734Y-50309D01*
X39718Y-50278D01*
X39710Y-50247D01*
X39702Y-50184D01*
X39702Y-50137D01*
X39710Y-50075D01*
X39718Y-50044D01*
X39734Y-50012D01*
X39757Y-49997D01*
X39773Y-49997D01*
X39797Y-50012D01*
X39805Y-50028D01*
X39869Y-50028D02*
X39877Y-50012D01*
X39893Y-49997D01*
X39932Y-49997D01*
X39948Y-50012D01*
X39956Y-50028D01*
X39964Y-50059D01*
X39964Y-50090D01*
X39956Y-50137D01*
X39861Y-50325D01*
X39964Y-50325D01*
X40282Y-50028D02*
X40290Y-50012D01*
X40306Y-49997D01*
X40345Y-49997D01*
X40361Y-50012D01*
X40369Y-50028D01*
X40377Y-50059D01*
X40377Y-50090D01*
X40369Y-50137D01*
X40274Y-50325D01*
X40377Y-50325D01*
X40481Y-49997D02*
X40496Y-49997D01*
X40512Y-50012D01*
X40520Y-50028D01*
X40528Y-50059D01*
X40536Y-50122D01*
X40536Y-50200D01*
X40528Y-50262D01*
X40520Y-50294D01*
X40512Y-50309D01*
X40496Y-50325D01*
X40481Y-50325D01*
X40465Y-50309D01*
X40457Y-50294D01*
X40449Y-50262D01*
X40441Y-50200D01*
X40441Y-50122D01*
X40449Y-50059D01*
X40457Y-50028D01*
X40465Y-50012D01*
X40481Y-49997D01*
X40695Y-50325D02*
X40600Y-50325D01*
X40648Y-50325D02*
X40648Y-49997D01*
X40632Y-50044D01*
X40616Y-50075D01*
X40600Y-50090D01*
X40854Y-50325D02*
X40759Y-50325D01*
X40807Y-50325D02*
X40807Y-49997D01*
X40791Y-50044D01*
X40775Y-50075D01*
X40759Y-50090D01*
X40958Y-49997D02*
X40973Y-49997D01*
X40989Y-50012D01*
X40997Y-50028D01*
X41005Y-50059D01*
X41013Y-50122D01*
X41013Y-50200D01*
X41005Y-50262D01*
X40997Y-50294D01*
X40989Y-50309D01*
X40973Y-50325D01*
X40958Y-50325D01*
X40942Y-50309D01*
X40934Y-50294D01*
X40926Y-50262D01*
X40918Y-50200D01*
X40918Y-50122D01*
X40926Y-50059D01*
X40934Y-50028D01*
X40942Y-50012D01*
X40958Y-49997D01*
X41156Y-49997D02*
X41125Y-49997D01*
X41109Y-50012D01*
X41101Y-50028D01*
X41085Y-50075D01*
X41077Y-50137D01*
X41077Y-50262D01*
X41085Y-50294D01*
X41093Y-50309D01*
X41109Y-50325D01*
X41140Y-50325D01*
X41156Y-50309D01*
X41164Y-50294D01*
X41172Y-50262D01*
X41172Y-50184D01*
X41164Y-50153D01*
X41156Y-50137D01*
X41140Y-50122D01*
X41109Y-50122D01*
X41093Y-50137D01*
X41085Y-50153D01*
X41077Y-50184D01*
X41331Y-50325D02*
X41236Y-50325D01*
X41284Y-50325D02*
X41284Y-49997D01*
X41268Y-50044D01*
X41252Y-50075D01*
X41236Y-50090D01*
X41474Y-49997D02*
X41443Y-49997D01*
X41427Y-50012D01*
X41419Y-50028D01*
X41403Y-50075D01*
X41395Y-50137D01*
X41395Y-50262D01*
X41403Y-50294D01*
X41411Y-50309D01*
X41427Y-50325D01*
X41458Y-50325D01*
X41474Y-50309D01*
X41482Y-50294D01*
X41490Y-50262D01*
X41490Y-50184D01*
X41482Y-50153D01*
X41474Y-50137D01*
X41458Y-50122D01*
X41427Y-50122D01*
X41411Y-50137D01*
X41403Y-50153D01*
X41395Y-50184D01*
X39621Y-50971D02*
X39613Y-50986D01*
X39589Y-51002D01*
X39573Y-51002D01*
X39550Y-50986D01*
X39534Y-50955D01*
X39526Y-50924D01*
X39518Y-50862D01*
X39518Y-50815D01*
X39526Y-50753D01*
X39534Y-50722D01*
X39550Y-50690D01*
X39573Y-50675D01*
X39589Y-50675D01*
X39613Y-50690D01*
X39621Y-50706D01*
X39788Y-50971D02*
X39780Y-50986D01*
X39756Y-51002D01*
X39740Y-51002D01*
X39717Y-50986D01*
X39701Y-50955D01*
X39693Y-50924D01*
X39685Y-50862D01*
X39685Y-50815D01*
X39693Y-50753D01*
X39701Y-50722D01*
X39717Y-50690D01*
X39740Y-50675D01*
X39756Y-50675D01*
X39780Y-50690D01*
X39788Y-50706D01*
X39860Y-50877D02*
X39987Y-50877D01*
X40122Y-50831D02*
X40146Y-50846D01*
X40154Y-50862D01*
X40162Y-50893D01*
X40162Y-50940D01*
X40154Y-50971D01*
X40146Y-50986D01*
X40130Y-51002D01*
X40067Y-51002D01*
X40067Y-50675D01*
X40122Y-50675D01*
X40138Y-50690D01*
X40146Y-50706D01*
X40154Y-50737D01*
X40154Y-50768D01*
X40146Y-50799D01*
X40138Y-50815D01*
X40122Y-50831D01*
X40067Y-50831D01*
X40266Y-50846D02*
X40266Y-51002D01*
X40210Y-50675D02*
X40266Y-50846D01*
X40321Y-50675D01*
X40377Y-50877D02*
X40504Y-50877D01*
X40576Y-50986D02*
X40600Y-51002D01*
X40639Y-51002D01*
X40655Y-50986D01*
X40663Y-50971D01*
X40671Y-50940D01*
X40671Y-50908D01*
X40663Y-50877D01*
X40655Y-50862D01*
X40639Y-50846D01*
X40608Y-50831D01*
X40592Y-50815D01*
X40584Y-50799D01*
X40576Y-50768D01*
X40576Y-50737D01*
X40584Y-50706D01*
X40592Y-50690D01*
X40608Y-50675D01*
X40647Y-50675D01*
X40671Y-50690D01*
X40735Y-50908D02*
X40814Y-50908D01*
X40719Y-51002D02*
X40775Y-50675D01*
X40830Y-51002D01*
X40997Y-50675D02*
X41100Y-50675D01*
X41045Y-50799D01*
X41068Y-50799D01*
X41084Y-50815D01*
X41092Y-50831D01*
X41100Y-50862D01*
X41100Y-50940D01*
X41092Y-50971D01*
X41084Y-50986D01*
X41068Y-51002D01*
X41021Y-51002D01*
X41005Y-50986D01*
X40997Y-50971D01*
X41172Y-50971D02*
X41180Y-50986D01*
X41172Y-51002D01*
X41164Y-50986D01*
X41172Y-50971D01*
X41172Y-51002D01*
X41284Y-50675D02*
X41299Y-50675D01*
X41315Y-50690D01*
X41323Y-50706D01*
X41331Y-50737D01*
X41339Y-50799D01*
X41339Y-50877D01*
X41331Y-50940D01*
X41323Y-50971D01*
X41315Y-50986D01*
X41299Y-51002D01*
X41284Y-51002D01*
X41268Y-50986D01*
X41260Y-50971D01*
X41252Y-50940D01*
X41244Y-50877D01*
X41244Y-50799D01*
X41252Y-50737D01*
X41260Y-50706D01*
X41268Y-50690D01*
X41284Y-50675D01*
X41538Y-50675D02*
X41538Y-50940D01*
X41546Y-50971D01*
X41554Y-50986D01*
X41570Y-51002D01*
X41601Y-51002D01*
X41617Y-50986D01*
X41625Y-50971D01*
X41633Y-50940D01*
X41633Y-50675D01*
X41713Y-50784D02*
X41713Y-51002D01*
X41713Y-50815D02*
X41721Y-50799D01*
X41737Y-50784D01*
X41760Y-50784D01*
X41776Y-50799D01*
X41784Y-50831D01*
X41784Y-51002D01*
X41864Y-50784D02*
X41864Y-51111D01*
X41864Y-50799D02*
X41880Y-50784D01*
X41911Y-50784D01*
X41927Y-50799D01*
X41935Y-50815D01*
X41943Y-50846D01*
X41943Y-50940D01*
X41935Y-50971D01*
X41927Y-50986D01*
X41911Y-51002D01*
X41880Y-51002D01*
X41864Y-50986D01*
X42039Y-51002D02*
X42023Y-50986D01*
X42015Y-50971D01*
X42007Y-50940D01*
X42007Y-50846D01*
X42015Y-50815D01*
X42023Y-50799D01*
X42039Y-50784D01*
X42062Y-50784D01*
X42078Y-50799D01*
X42086Y-50815D01*
X42094Y-50846D01*
X42094Y-50940D01*
X42086Y-50971D01*
X42078Y-50986D01*
X42062Y-51002D01*
X42039Y-51002D01*
X42166Y-51002D02*
X42166Y-50784D01*
X42166Y-50846D02*
X42174Y-50815D01*
X42182Y-50799D01*
X42198Y-50784D01*
X42213Y-50784D01*
X42245Y-50784D02*
X42309Y-50784D01*
X42269Y-50675D02*
X42269Y-50955D01*
X42277Y-50986D01*
X42293Y-51002D01*
X42309Y-51002D01*
X42427Y-50986D02*
X42411Y-51002D01*
X42380Y-51002D01*
X42364Y-50986D01*
X42356Y-50955D01*
X42356Y-50831D01*
X42364Y-50799D01*
X42380Y-50784D01*
X42411Y-50784D01*
X42427Y-50799D01*
X42435Y-50831D01*
X42435Y-50862D01*
X42356Y-50893D01*
X42578Y-51002D02*
X42578Y-50675D01*
X42578Y-50986D02*
X42562Y-51002D01*
X42531Y-51002D01*
X42515Y-50986D01*
X42507Y-50971D01*
X42499Y-50940D01*
X42499Y-50846D01*
X42507Y-50815D01*
X42515Y-50799D01*
X42531Y-50784D01*
X42562Y-50784D01*
X42578Y-50799D01*
G54D12*
X47244Y-41220D02*
X47244Y-41220D01*
X46732Y-41221D02*
X47244Y-41221D01*
X46732Y-39370D02*
X46732Y-41220D01*
G54D13*
X39525Y-51327D02*
X39525Y-51554D01*
X39533Y-51581D01*
X39542Y-51594D01*
X39559Y-51607D01*
X39593Y-51607D01*
X39611Y-51594D01*
X39619Y-51581D01*
X39628Y-51554D01*
X39628Y-51327D01*
X39705Y-51594D02*
X39731Y-51607D01*
X39774Y-51607D01*
X39791Y-51594D01*
X39800Y-51581D01*
X39808Y-51554D01*
X39808Y-51527D01*
X39800Y-51501D01*
X39791Y-51487D01*
X39774Y-51474D01*
X39740Y-51461D01*
X39722Y-51447D01*
X39714Y-51434D01*
X39705Y-51407D01*
X39705Y-51381D01*
X39714Y-51354D01*
X39722Y-51341D01*
X39740Y-51327D01*
X39782Y-51327D01*
X39808Y-51341D01*
X39945Y-51461D02*
X39971Y-51474D01*
X39979Y-51487D01*
X39988Y-51514D01*
X39988Y-51554D01*
X39979Y-51581D01*
X39971Y-51594D01*
X39953Y-51607D01*
X39885Y-51607D01*
X39885Y-51327D01*
X39945Y-51327D01*
X39962Y-51341D01*
X39971Y-51354D01*
X39979Y-51381D01*
X39979Y-51407D01*
X39971Y-51434D01*
X39962Y-51447D01*
X39945Y-51461D01*
X39885Y-51461D01*
X40253Y-51327D02*
X40253Y-51527D01*
X40245Y-51567D01*
X40228Y-51594D01*
X40202Y-51607D01*
X40185Y-51607D01*
X40313Y-51327D02*
X40416Y-51327D01*
X40365Y-51607D02*
X40365Y-51327D01*
X40467Y-51527D02*
X40553Y-51527D01*
X40450Y-51607D02*
X40510Y-51327D01*
X40570Y-51607D01*
X40724Y-51341D02*
X40707Y-51327D01*
X40681Y-51327D01*
X40656Y-51341D01*
X40638Y-51367D01*
X40630Y-51394D01*
X40621Y-51447D01*
X40621Y-51487D01*
X40630Y-51541D01*
X40638Y-51567D01*
X40656Y-51594D01*
X40681Y-51607D01*
X40698Y-51607D01*
X40724Y-51594D01*
X40733Y-51581D01*
X40733Y-51487D01*
X40698Y-51487D01*
X40938Y-51314D02*
X40784Y-51674D01*
X40990Y-51594D02*
X41007Y-51607D01*
X41042Y-51607D01*
X41059Y-51594D01*
X41067Y-51567D01*
X41067Y-51554D01*
X41059Y-51527D01*
X41042Y-51514D01*
X41016Y-51514D01*
X40999Y-51501D01*
X40990Y-51474D01*
X40990Y-51461D01*
X40999Y-51434D01*
X41016Y-51421D01*
X41042Y-51421D01*
X41059Y-51434D01*
X41213Y-51594D02*
X41196Y-51607D01*
X41162Y-51607D01*
X41145Y-51594D01*
X41136Y-51567D01*
X41136Y-51461D01*
X41145Y-51434D01*
X41162Y-51421D01*
X41196Y-51421D01*
X41213Y-51434D01*
X41222Y-51461D01*
X41222Y-51487D01*
X41136Y-51514D01*
X41299Y-51607D02*
X41299Y-51421D01*
X41299Y-51474D02*
X41307Y-51447D01*
X41316Y-51434D01*
X41333Y-51421D01*
X41350Y-51421D01*
X41410Y-51607D02*
X41410Y-51421D01*
X41410Y-51327D02*
X41401Y-51341D01*
X41410Y-51354D01*
X41418Y-51341D01*
X41410Y-51327D01*
X41410Y-51354D01*
X41573Y-51607D02*
X41573Y-51461D01*
X41564Y-51434D01*
X41547Y-51421D01*
X41513Y-51421D01*
X41496Y-51434D01*
X41573Y-51594D02*
X41556Y-51607D01*
X41513Y-51607D01*
X41496Y-51594D01*
X41487Y-51567D01*
X41487Y-51541D01*
X41496Y-51514D01*
X41513Y-51501D01*
X41556Y-51501D01*
X41573Y-51487D01*
X41685Y-51607D02*
X41667Y-51594D01*
X41659Y-51567D01*
X41659Y-51327D01*
X41967Y-51594D02*
X41950Y-51607D01*
X41916Y-51607D01*
X41898Y-51594D01*
X41890Y-51581D01*
X41881Y-51554D01*
X41881Y-51474D01*
X41890Y-51447D01*
X41898Y-51434D01*
X41916Y-51421D01*
X41950Y-51421D01*
X41967Y-51434D01*
X42121Y-51607D02*
X42121Y-51461D01*
X42112Y-51434D01*
X42095Y-51421D01*
X42061Y-51421D01*
X42044Y-51434D01*
X42121Y-51594D02*
X42104Y-51607D01*
X42061Y-51607D01*
X42044Y-51594D01*
X42035Y-51567D01*
X42035Y-51541D01*
X42044Y-51514D01*
X42061Y-51501D01*
X42104Y-51501D01*
X42121Y-51487D01*
X42207Y-51607D02*
X42207Y-51327D01*
X42207Y-51434D02*
X42224Y-51421D01*
X42258Y-51421D01*
X42275Y-51434D01*
X42284Y-51447D01*
X42293Y-51474D01*
X42293Y-51554D01*
X42284Y-51581D01*
X42275Y-51594D01*
X42258Y-51607D01*
X42224Y-51607D01*
X42207Y-51594D01*
X42396Y-51607D02*
X42378Y-51594D01*
X42370Y-51567D01*
X42370Y-51327D01*
X42532Y-51594D02*
X42515Y-51607D01*
X42481Y-51607D01*
X42464Y-51594D01*
X42455Y-51567D01*
X42455Y-51461D01*
X42464Y-51434D01*
X42481Y-51421D01*
X42515Y-51421D01*
X42532Y-51434D01*
X42541Y-51461D01*
X42541Y-51487D01*
X42455Y-51514D01*
X42729Y-51421D02*
X42798Y-51421D01*
X42755Y-51607D02*
X42755Y-51367D01*
X42763Y-51341D01*
X42781Y-51327D01*
X42798Y-51327D01*
X42884Y-51607D02*
X42866Y-51594D01*
X42858Y-51581D01*
X42849Y-51554D01*
X42849Y-51474D01*
X42858Y-51447D01*
X42866Y-51434D01*
X42884Y-51421D01*
X42909Y-51421D01*
X42926Y-51434D01*
X42935Y-51447D01*
X42944Y-51474D01*
X42944Y-51554D01*
X42935Y-51581D01*
X42926Y-51594D01*
X42909Y-51607D01*
X42884Y-51607D01*
X43021Y-51607D02*
X43021Y-51421D01*
X43021Y-51474D02*
X43029Y-51447D01*
X43038Y-51434D01*
X43055Y-51421D01*
X43072Y-51421D01*
X43269Y-51607D02*
X43269Y-51327D01*
X43329Y-51527D01*
X43389Y-51327D01*
X43389Y-51607D01*
X43475Y-51607D02*
X43475Y-51421D01*
X43475Y-51327D02*
X43466Y-51341D01*
X43475Y-51354D01*
X43483Y-51341D01*
X43475Y-51327D01*
X43475Y-51354D01*
X43587Y-51607D02*
X43569Y-51594D01*
X43561Y-51567D01*
X43561Y-51327D01*
X43655Y-51607D02*
X43655Y-51327D01*
X43672Y-51501D02*
X43723Y-51607D01*
X43723Y-51421D02*
X43655Y-51527D01*
X43784Y-51421D02*
X43827Y-51607D01*
X43869Y-51421D02*
X43827Y-51607D01*
X43809Y-51674D01*
X43801Y-51687D01*
X43784Y-51701D01*
X43938Y-51607D02*
X43938Y-51421D01*
X43938Y-51447D02*
X43946Y-51434D01*
X43964Y-51421D01*
X43989Y-51421D01*
X44006Y-51434D01*
X44015Y-51461D01*
X44015Y-51607D01*
X44015Y-51461D02*
X44024Y-51434D01*
X44041Y-51421D01*
X44066Y-51421D01*
X44084Y-51434D01*
X44092Y-51461D01*
X44092Y-51607D01*
X44178Y-51607D02*
X44178Y-51421D01*
X44178Y-51327D02*
X44169Y-51341D01*
X44178Y-51354D01*
X44186Y-51341D01*
X44178Y-51327D01*
X44178Y-51354D01*
X44255Y-51594D02*
X44272Y-51607D01*
X44307Y-51607D01*
X44324Y-51594D01*
X44332Y-51567D01*
X44332Y-51554D01*
X44324Y-51527D01*
X44307Y-51514D01*
X44281Y-51514D01*
X44264Y-51501D01*
X44255Y-51474D01*
X44255Y-51461D01*
X44264Y-51434D01*
X44281Y-51421D01*
X44307Y-51421D01*
X44324Y-51434D01*
X44384Y-51421D02*
X44453Y-51421D01*
X44410Y-51327D02*
X44410Y-51567D01*
X44418Y-51594D01*
X44436Y-51607D01*
X44453Y-51607D01*
X44684Y-51327D02*
X44718Y-51327D01*
X44736Y-51341D01*
X44753Y-51367D01*
X44761Y-51421D01*
X44761Y-51514D01*
X44753Y-51567D01*
X44736Y-51594D01*
X44718Y-51607D01*
X44684Y-51607D01*
X44667Y-51594D01*
X44650Y-51567D01*
X44641Y-51514D01*
X44641Y-51421D01*
X44650Y-51367D01*
X44667Y-51341D01*
X44684Y-51327D01*
X44839Y-51421D02*
X44839Y-51607D01*
X44839Y-51447D02*
X44847Y-51434D01*
X44865Y-51421D01*
X44890Y-51421D01*
X44907Y-51434D01*
X44916Y-51461D01*
X44916Y-51607D01*
X45070Y-51594D02*
X45053Y-51607D01*
X45019Y-51607D01*
X45002Y-51594D01*
X44993Y-51567D01*
X44993Y-51461D01*
X45002Y-51434D01*
X45019Y-51421D01*
X45053Y-51421D01*
X45070Y-51434D01*
X45079Y-51461D01*
X45079Y-51487D01*
X44993Y-51514D01*
X45156Y-51581D02*
X45164Y-51594D01*
X45156Y-51607D01*
X45147Y-51594D01*
X45156Y-51581D01*
X45156Y-51607D01*
G54D12*
X39370Y-51811D02*
X39370Y-39370D01*
X47244Y-51811D02*
X39370Y-51811D01*
X47244Y-41220D02*
X47244Y-51811D01*
X39370Y-39370D02*
X46732Y-39370D01*
G54D14*
X45903Y-40257D02*
X45903Y-39903D01*
X45903Y-39903D02*
X45746Y-39903D01*
X45746Y-40257D02*
X45746Y-39903D01*
X45903Y-40257D02*
X45746Y-40257D01*
X46414Y-40257D02*
X46414Y-39903D01*
X46414Y-39903D02*
X46257Y-39903D01*
X46257Y-40257D02*
X46257Y-39903D01*
X46414Y-40257D02*
X46257Y-40257D01*
X46080Y-40257D02*
X46080Y-40198D01*
X46080Y-40198D02*
X45962Y-40198D01*
X45962Y-40257D02*
X45962Y-40198D01*
X46080Y-40257D02*
X45962Y-40257D01*
X46080Y-39962D02*
X46080Y-39903D01*
X46080Y-39903D02*
X45962Y-39903D01*
X45962Y-39962D02*
X45962Y-39903D01*
X46080Y-39962D02*
X45962Y-39962D01*
X46080Y-40139D02*
X46080Y-40021D01*
X46080Y-40021D02*
X45962Y-40021D01*
X45962Y-40139D02*
X45962Y-40021D01*
X46080Y-40139D02*
X45962Y-40139D01*
G54D15*
X45903Y-40237D02*
X46257Y-40237D01*
X45903Y-39923D02*
X46257Y-39923D01*
G54D14*
X45623Y-50173D02*
X45977Y-50173D01*
X45977Y-50173D02*
X45977Y-50016D01*
X45623Y-50016D02*
X45977Y-50016D01*
X45623Y-50173D02*
X45623Y-50016D01*
X45623Y-50684D02*
X45977Y-50684D01*
X45977Y-50684D02*
X45977Y-50527D01*
X45623Y-50527D02*
X45977Y-50527D01*
X45623Y-50684D02*
X45623Y-50527D01*
X45623Y-50350D02*
X45682Y-50350D01*
X45682Y-50350D02*
X45682Y-50232D01*
X45623Y-50232D02*
X45682Y-50232D01*
X45623Y-50350D02*
X45623Y-50232D01*
X45918Y-50350D02*
X45977Y-50350D01*
X45977Y-50350D02*
X45977Y-50232D01*
X45918Y-50232D02*
X45977Y-50232D01*
X45918Y-50350D02*
X45918Y-50232D01*
X45741Y-50350D02*
X45859Y-50350D01*
X45859Y-50350D02*
X45859Y-50232D01*
X45741Y-50232D02*
X45859Y-50232D01*
X45741Y-50350D02*
X45741Y-50232D01*
G54D15*
X45643Y-50173D02*
X45643Y-50527D01*
X45957Y-50173D02*
X45957Y-50527D01*
G54D14*
X45123Y-50173D02*
X45477Y-50173D01*
X45477Y-50173D02*
X45477Y-50016D01*
X45123Y-50016D02*
X45477Y-50016D01*
X45123Y-50173D02*
X45123Y-50016D01*
X45123Y-50684D02*
X45477Y-50684D01*
X45477Y-50684D02*
X45477Y-50527D01*
X45123Y-50527D02*
X45477Y-50527D01*
X45123Y-50684D02*
X45123Y-50527D01*
X45123Y-50350D02*
X45182Y-50350D01*
X45182Y-50350D02*
X45182Y-50232D01*
X45123Y-50232D02*
X45182Y-50232D01*
X45123Y-50350D02*
X45123Y-50232D01*
X45418Y-50350D02*
X45477Y-50350D01*
X45477Y-50350D02*
X45477Y-50232D01*
X45418Y-50232D02*
X45477Y-50232D01*
X45418Y-50350D02*
X45418Y-50232D01*
X45241Y-50350D02*
X45359Y-50350D01*
X45359Y-50350D02*
X45359Y-50232D01*
X45241Y-50232D02*
X45359Y-50232D01*
X45241Y-50350D02*
X45241Y-50232D01*
G54D15*
X45143Y-50173D02*
X45143Y-50527D01*
X45457Y-50173D02*
X45457Y-50527D01*
G54D16*
X43613Y-44096D02*
X43611Y-44112D01*
X43606Y-44127D01*
X43599Y-44141D01*
X43588Y-44154D01*
X43576Y-44164D01*
X43562Y-44172D01*
X43546Y-44177D01*
X43530Y-44178D01*
X43515Y-44177D01*
X43499Y-44172D01*
X43485Y-44165D01*
X43472Y-44155D01*
X43462Y-44142D01*
X43454Y-44128D01*
X43449Y-44113D01*
X43448Y-44097D01*
X43449Y-44082D01*
X43453Y-44066D01*
X43461Y-44052D01*
X43471Y-44039D01*
X43483Y-44028D01*
X43497Y-44020D01*
X43513Y-44015D01*
X43529Y-44014D01*
X43544Y-44015D01*
X43560Y-44019D01*
X43574Y-44026D01*
X43587Y-44036D01*
X43597Y-44049D01*
X43605Y-44063D01*
X43610Y-44078D01*
X43612Y-44094D01*
X43613Y-44096D01*
X43825Y-44726D02*
X43825Y-44588D01*
X43825Y-44588D02*
X43727Y-44490D01*
X43727Y-44490D02*
X43589Y-44490D01*
X40282Y-47797D02*
X40282Y-48033D01*
X40282Y-48033D02*
X40518Y-48033D01*
X40518Y-44490D02*
X40282Y-44490D01*
X40282Y-44490D02*
X40282Y-44726D01*
X43589Y-48033D02*
X43825Y-48033D01*
X43825Y-48033D02*
X43825Y-47797D01*
X44920Y-44250D02*
X45650Y-44250D01*
X45650Y-44250D02*
X45650Y-44630D01*
X45650Y-44630D02*
X44920Y-44630D01*
X44920Y-44630D02*
X44920Y-44250D01*
X43397Y-43808D02*
X43397Y-43078D01*
X43397Y-43078D02*
X43777Y-43078D01*
X43777Y-43078D02*
X43777Y-43808D01*
X43777Y-43808D02*
X43397Y-43808D01*
X43860Y-41190D02*
X43860Y-40460D01*
X43860Y-40460D02*
X44240Y-40460D01*
X44240Y-40460D02*
X44240Y-41190D01*
X44240Y-41190D02*
X43860Y-41190D01*
X44900Y-47140D02*
X44170Y-47140D01*
X44170Y-47140D02*
X44170Y-46760D01*
X44170Y-46760D02*
X44900Y-46760D01*
X44900Y-46760D02*
X44900Y-47140D01*
X44900Y-46760D02*
X44170Y-46760D01*
X44170Y-46760D02*
X44170Y-46380D01*
X44170Y-46380D02*
X44900Y-46380D01*
X44900Y-46380D02*
X44900Y-46760D01*
X45820Y-41110D02*
X46550Y-41110D01*
X46550Y-41110D02*
X46550Y-41490D01*
X46550Y-41490D02*
X45820Y-41490D01*
X45820Y-41490D02*
X45820Y-41110D01*
X45820Y-40730D02*
X46550Y-40730D01*
X46550Y-40730D02*
X46550Y-41110D01*
X46550Y-41110D02*
X45820Y-41110D01*
X45820Y-41110D02*
X45820Y-40730D01*
X44710Y-39650D02*
X45440Y-39650D01*
X45440Y-39650D02*
X45440Y-40030D01*
X45440Y-40030D02*
X44710Y-40030D01*
X44710Y-40030D02*
X44710Y-39650D01*
X42260Y-48390D02*
X42990Y-48390D01*
X42990Y-48390D02*
X42990Y-48770D01*
X42990Y-48770D02*
X42260Y-48770D01*
X42260Y-48770D02*
X42260Y-48390D01*
X44170Y-47140D02*
X44900Y-47140D01*
X44900Y-47140D02*
X44900Y-47520D01*
X44900Y-47520D02*
X44170Y-47520D01*
X44170Y-47520D02*
X44170Y-47140D01*
X39970Y-47370D02*
X39970Y-48100D01*
X39970Y-48100D02*
X39590Y-48100D01*
X39590Y-48100D02*
X39590Y-47370D01*
X39590Y-47370D02*
X39970Y-47370D01*
X41550Y-48380D02*
X41550Y-49110D01*
X41550Y-49110D02*
X41170Y-49110D01*
X41170Y-49110D02*
X41170Y-48380D01*
X41170Y-48380D02*
X41550Y-48380D01*
X44150Y-44600D02*
X44880Y-44600D01*
X44880Y-44600D02*
X44880Y-44980D01*
X44880Y-44980D02*
X44150Y-44980D01*
X44150Y-44980D02*
X44150Y-44600D01*
X43359Y-43078D02*
X43359Y-43808D01*
X43359Y-43808D02*
X42979Y-43808D01*
X42979Y-43808D02*
X42979Y-43078D01*
X42979Y-43078D02*
X43359Y-43078D01*
X42060Y-43058D02*
X42060Y-43788D01*
X42060Y-43788D02*
X41680Y-43788D01*
X41680Y-43788D02*
X41680Y-43058D01*
X41680Y-43058D02*
X42060Y-43058D01*
X46550Y-40730D02*
X45820Y-40730D01*
X45820Y-40730D02*
X45820Y-40350D01*
X45820Y-40350D02*
X46550Y-40350D01*
X46550Y-40350D02*
X46550Y-40730D01*
X45820Y-42660D02*
X46550Y-42660D01*
X46550Y-42660D02*
X46550Y-43040D01*
X46550Y-43040D02*
X45820Y-43040D01*
X45820Y-43040D02*
X45820Y-42660D01*
X45820Y-41490D02*
X46550Y-41490D01*
X46550Y-41490D02*
X46550Y-41870D01*
X46550Y-41870D02*
X45820Y-41870D01*
X45820Y-41870D02*
X45820Y-41490D01*
G54D17*
X44630Y-40090D02*
X45530Y-40090D01*
X45530Y-40090D02*
X45530Y-40590D01*
X45530Y-40590D02*
X44630Y-40590D01*
X44630Y-40590D02*
X44630Y-40090D01*
X45830Y-43100D02*
X46730Y-43100D01*
X46730Y-43100D02*
X46730Y-43600D01*
X46730Y-43600D02*
X45830Y-43600D01*
X45830Y-43600D02*
X45830Y-43100D01*
X41120Y-48380D02*
X41120Y-49280D01*
X41120Y-49280D02*
X40620Y-49280D01*
X40620Y-49280D02*
X40620Y-48380D01*
X40620Y-48380D02*
X41120Y-48380D01*
X45400Y-41890D02*
X44700Y-41890D01*
X44700Y-41890D02*
X44700Y-40690D01*
X44700Y-40690D02*
X45400Y-40690D01*
X45400Y-40690D02*
X45400Y-41890D01*
G54D16*
X46227Y-47872D02*
X46225Y-47885D01*
X46221Y-47898D01*
X46215Y-47910D01*
X46206Y-47921D01*
X46196Y-47930D01*
X46184Y-47936D01*
X46171Y-47940D01*
X46157Y-47941D01*
X46144Y-47940D01*
X46131Y-47936D01*
X46119Y-47930D01*
X46109Y-47922D01*
X46100Y-47911D01*
X46093Y-47899D01*
X46089Y-47886D01*
X46088Y-47872D01*
X46089Y-47860D01*
X46092Y-47847D01*
X46099Y-47835D01*
X46107Y-47824D01*
X46118Y-47815D01*
X46129Y-47808D01*
X46142Y-47804D01*
X46156Y-47803D01*
X46169Y-47804D01*
X46182Y-47807D01*
X46194Y-47813D01*
X46205Y-47822D01*
X46214Y-47832D01*
X46220Y-47844D01*
X46225Y-47857D01*
X46226Y-47871D01*
X46227Y-47872D01*
X46587Y-48848D02*
X46587Y-48927D01*
X46587Y-48927D02*
X46041Y-48929D01*
X46041Y-48929D02*
X46041Y-48848D01*
X46586Y-47821D02*
X46586Y-47743D01*
X46586Y-47743D02*
X46045Y-47744D01*
X46045Y-47744D02*
X46044Y-47817D01*
X42686Y-42925D02*
X42684Y-42941D01*
X42679Y-42958D01*
X42671Y-42973D01*
X42660Y-42986D01*
X42647Y-42997D01*
X42632Y-43005D01*
X42616Y-43010D01*
X42599Y-43011D01*
X42583Y-43010D01*
X42567Y-43005D01*
X42552Y-42997D01*
X42539Y-42987D01*
X42528Y-42974D01*
X42520Y-42959D01*
X42514Y-42943D01*
X42513Y-42926D01*
X42514Y-42910D01*
X42519Y-42893D01*
X42526Y-42878D01*
X42537Y-42865D01*
X42550Y-42854D01*
X42565Y-42846D01*
X42581Y-42841D01*
X42598Y-42839D01*
X42614Y-42840D01*
X42630Y-42844D01*
X42645Y-42852D01*
X42658Y-42862D01*
X42670Y-42875D01*
X42678Y-42890D01*
X42683Y-42906D01*
X42685Y-42923D01*
X42686Y-42925D01*
X43446Y-40307D02*
X43446Y-41704D01*
X40414Y-39578D02*
X40414Y-38732D01*
X40414Y-38732D02*
X43446Y-38732D01*
X43446Y-38732D02*
X43446Y-39559D01*
X40414Y-41704D02*
X40414Y-40307D01*
X42678Y-42393D02*
X43308Y-42393D01*
X41222Y-42393D02*
X40592Y-42393D01*
X40759Y-43788D02*
X40759Y-43058D01*
X40759Y-43058D02*
X41139Y-43058D01*
X41139Y-43058D02*
X41139Y-43788D01*
X41139Y-43788D02*
X40759Y-43788D01*
X42349Y-43792D02*
X42349Y-43062D01*
X42349Y-43062D02*
X42729Y-43062D01*
X42729Y-43062D02*
X42729Y-43792D01*
X42729Y-43792D02*
X42349Y-43792D01*
X44316Y-42970D02*
X44314Y-42981D01*
X44311Y-42992D01*
X44306Y-43002D01*
X44298Y-43011D01*
X44289Y-43018D01*
X44279Y-43024D01*
X44268Y-43027D01*
X44257Y-43028D01*
X44246Y-43027D01*
X44235Y-43024D01*
X44225Y-43019D01*
X44216Y-43012D01*
X44209Y-43003D01*
X44203Y-42993D01*
X44200Y-42982D01*
X44199Y-42970D01*
X44199Y-42960D01*
X44203Y-42949D01*
X44208Y-42939D01*
X44215Y-42930D01*
X44224Y-42922D01*
X44234Y-42916D01*
X44245Y-42913D01*
X44256Y-42912D01*
X44267Y-42912D01*
X44278Y-42915D01*
X44288Y-42921D01*
X44297Y-42928D01*
X44305Y-42936D01*
X44310Y-42947D01*
X44314Y-42957D01*
X44315Y-42969D01*
X44316Y-42970D01*
X45645Y-42596D02*
X44365Y-42596D01*
X44365Y-42596D02*
X44365Y-44210D01*
X44365Y-44210D02*
X45645Y-44210D01*
X45645Y-44210D02*
X45645Y-42596D01*
G54D10*
X41315Y-41015D02*
X41311Y-41052D01*
X41300Y-41088D01*
X41282Y-41121D01*
X41259Y-41150D01*
X41230Y-41174D01*
X41197Y-41191D01*
X41161Y-41203D01*
X41124Y-41206D01*
X41088Y-41203D01*
X41052Y-41193D01*
X41018Y-41175D01*
X40989Y-41152D01*
X40965Y-41123D01*
X40947Y-41090D01*
X40936Y-41054D01*
X40932Y-41017D01*
X40935Y-40981D01*
X40945Y-40945D01*
X40962Y-40911D01*
X40985Y-40882D01*
X41014Y-40858D01*
X41047Y-40840D01*
X41082Y-40828D01*
X41119Y-40824D01*
X41156Y-40826D01*
X41192Y-40836D01*
X41225Y-40853D01*
X41255Y-40876D01*
X41279Y-40905D01*
X41298Y-40937D01*
X41310Y-40973D01*
X41314Y-41010D01*
X41315Y-41015D01*
X42969Y-41015D02*
X42965Y-41052D01*
X42954Y-41088D01*
X42936Y-41121D01*
X42913Y-41150D01*
X42884Y-41174D01*
X42851Y-41191D01*
X42815Y-41203D01*
X42778Y-41206D01*
X42742Y-41203D01*
X42706Y-41193D01*
X42672Y-41175D01*
X42643Y-41152D01*
X42619Y-41123D01*
X42601Y-41090D01*
X42590Y-41054D01*
X42586Y-41017D01*
X42589Y-40981D01*
X42599Y-40945D01*
X42616Y-40911D01*
X42639Y-40882D01*
X42668Y-40858D01*
X42701Y-40840D01*
X42736Y-40828D01*
X42773Y-40824D01*
X42810Y-40826D01*
X42846Y-40836D01*
X42879Y-40853D01*
X42909Y-40876D01*
X42933Y-40905D01*
X42952Y-40937D01*
X42964Y-40973D01*
X42968Y-41010D01*
X42969Y-41015D01*
G54D18*
X45880Y-39845D02*
X45880Y-39545D01*
X45952Y-39545D01*
X45995Y-39560D01*
X46023Y-39588D01*
X46038Y-39617D01*
X46052Y-39674D01*
X46052Y-39717D01*
X46038Y-39774D01*
X46023Y-39803D01*
X45995Y-39831D01*
X45952Y-39845D01*
X45880Y-39845D01*
X46166Y-39574D02*
X46180Y-39560D01*
X46209Y-39545D01*
X46280Y-39545D01*
X46309Y-39560D01*
X46323Y-39574D01*
X46338Y-39603D01*
X46338Y-39631D01*
X46323Y-39674D01*
X46152Y-39845D01*
X46338Y-39845D01*
X45578Y-49781D02*
X45578Y-49481D01*
X45650Y-49481D01*
X45693Y-49496D01*
X45721Y-49524D01*
X45736Y-49553D01*
X45750Y-49610D01*
X45750Y-49653D01*
X45736Y-49710D01*
X45721Y-49739D01*
X45693Y-49767D01*
X45650Y-49781D01*
X45578Y-49781D01*
X45850Y-49481D02*
X46036Y-49481D01*
X45936Y-49596D01*
X45978Y-49596D01*
X46007Y-49610D01*
X46021Y-49624D01*
X46036Y-49653D01*
X46036Y-49724D01*
X46021Y-49753D01*
X46007Y-49767D01*
X45978Y-49781D01*
X45893Y-49781D01*
X45864Y-49767D01*
X45850Y-49753D01*
X44988Y-49791D02*
X44988Y-49491D01*
X45060Y-49491D01*
X45103Y-49506D01*
X45131Y-49534D01*
X45146Y-49563D01*
X45160Y-49620D01*
X45160Y-49663D01*
X45146Y-49720D01*
X45131Y-49749D01*
X45103Y-49777D01*
X45060Y-49791D01*
X44988Y-49791D01*
X45417Y-49591D02*
X45417Y-49791D01*
X45346Y-49477D02*
X45274Y-49691D01*
X45460Y-49691D01*
G54D13*
X40133Y-48193D02*
X40133Y-48420D01*
X40141Y-48447D01*
X40150Y-48460D01*
X40167Y-48473D01*
X40201Y-48473D01*
X40219Y-48460D01*
X40227Y-48447D01*
X40236Y-48420D01*
X40236Y-48193D01*
X40408Y-48193D02*
X40322Y-48193D01*
X40313Y-48327D01*
X40322Y-48313D01*
X40339Y-48300D01*
X40382Y-48300D01*
X40399Y-48313D01*
X40408Y-48327D01*
X40416Y-48353D01*
X40416Y-48420D01*
X40408Y-48447D01*
X40399Y-48460D01*
X40382Y-48473D01*
X40339Y-48473D01*
X40322Y-48460D01*
X40313Y-48447D01*
X45811Y-44547D02*
X45802Y-44560D01*
X45776Y-44573D01*
X45759Y-44573D01*
X45734Y-44560D01*
X45716Y-44533D01*
X45708Y-44507D01*
X45699Y-44453D01*
X45699Y-44413D01*
X45708Y-44360D01*
X45716Y-44333D01*
X45734Y-44307D01*
X45759Y-44293D01*
X45776Y-44293D01*
X45802Y-44307D01*
X45811Y-44320D01*
X45982Y-44573D02*
X45879Y-44573D01*
X45931Y-44573D02*
X45931Y-44293D01*
X45914Y-44333D01*
X45896Y-44360D01*
X45879Y-44373D01*
X43781Y-42915D02*
X43794Y-42924D01*
X43807Y-42950D01*
X43807Y-42967D01*
X43794Y-42992D01*
X43767Y-43010D01*
X43741Y-43018D01*
X43687Y-43027D01*
X43647Y-43027D01*
X43594Y-43018D01*
X43567Y-43010D01*
X43541Y-42992D01*
X43527Y-42967D01*
X43527Y-42950D01*
X43541Y-42924D01*
X43554Y-42915D01*
X43527Y-42855D02*
X43527Y-42744D01*
X43634Y-42804D01*
X43634Y-42778D01*
X43647Y-42761D01*
X43661Y-42752D01*
X43687Y-42744D01*
X43754Y-42744D01*
X43781Y-42752D01*
X43794Y-42761D01*
X43807Y-42778D01*
X43807Y-42830D01*
X43794Y-42847D01*
X43781Y-42855D01*
X43797Y-41421D02*
X43737Y-41421D01*
X43737Y-41567D02*
X43737Y-41287D01*
X43823Y-41287D01*
X43951Y-41421D02*
X43977Y-41434D01*
X43985Y-41447D01*
X43994Y-41474D01*
X43994Y-41514D01*
X43985Y-41541D01*
X43977Y-41554D01*
X43959Y-41567D01*
X43891Y-41567D01*
X43891Y-41287D01*
X43951Y-41287D01*
X43968Y-41301D01*
X43977Y-41314D01*
X43985Y-41341D01*
X43985Y-41367D01*
X43977Y-41394D01*
X43968Y-41407D01*
X43951Y-41421D01*
X43891Y-41421D01*
X44165Y-41567D02*
X44062Y-41567D01*
X44114Y-41567D02*
X44114Y-41287D01*
X44097Y-41327D01*
X44079Y-41354D01*
X44062Y-41367D01*
X45091Y-47103D02*
X45031Y-46970D01*
X44988Y-47103D02*
X44988Y-46823D01*
X45056Y-46823D01*
X45074Y-46837D01*
X45082Y-46850D01*
X45091Y-46877D01*
X45091Y-46917D01*
X45082Y-46943D01*
X45074Y-46957D01*
X45056Y-46970D01*
X44988Y-46970D01*
X45176Y-47103D02*
X45211Y-47103D01*
X45228Y-47090D01*
X45236Y-47077D01*
X45254Y-47037D01*
X45262Y-46983D01*
X45262Y-46877D01*
X45254Y-46850D01*
X45245Y-46837D01*
X45228Y-46823D01*
X45194Y-46823D01*
X45176Y-46837D01*
X45168Y-46850D01*
X45159Y-46877D01*
X45159Y-46943D01*
X45168Y-46970D01*
X45176Y-46983D01*
X45194Y-46997D01*
X45228Y-46997D01*
X45245Y-46983D01*
X45254Y-46970D01*
X45262Y-46943D01*
X45091Y-46713D02*
X45031Y-46580D01*
X44988Y-46713D02*
X44988Y-46433D01*
X45056Y-46433D01*
X45074Y-46447D01*
X45082Y-46460D01*
X45091Y-46487D01*
X45091Y-46527D01*
X45082Y-46553D01*
X45074Y-46567D01*
X45056Y-46580D01*
X44988Y-46580D01*
X45151Y-46433D02*
X45271Y-46433D01*
X45194Y-46713D01*
X46735Y-42331D02*
X46726Y-42344D01*
X46700Y-42357D01*
X46683Y-42357D01*
X46658Y-42344D01*
X46640Y-42317D01*
X46632Y-42291D01*
X46623Y-42237D01*
X46623Y-42197D01*
X46632Y-42144D01*
X46640Y-42117D01*
X46658Y-42091D01*
X46683Y-42077D01*
X46700Y-42077D01*
X46726Y-42091D01*
X46735Y-42104D01*
X46906Y-42357D02*
X46803Y-42357D01*
X46855Y-42357D02*
X46855Y-42077D01*
X46838Y-42117D01*
X46820Y-42144D01*
X46803Y-42157D01*
X47069Y-42077D02*
X46983Y-42077D01*
X46974Y-42211D01*
X46983Y-42197D01*
X47000Y-42184D01*
X47043Y-42184D01*
X47060Y-42197D01*
X47069Y-42211D01*
X47077Y-42237D01*
X47077Y-42304D01*
X47069Y-42331D01*
X47060Y-42344D01*
X47043Y-42357D01*
X47000Y-42357D01*
X46983Y-42344D01*
X46974Y-42331D01*
X46735Y-41977D02*
X46726Y-41990D01*
X46700Y-42003D01*
X46683Y-42003D01*
X46658Y-41990D01*
X46640Y-41963D01*
X46632Y-41937D01*
X46623Y-41883D01*
X46623Y-41843D01*
X46632Y-41790D01*
X46640Y-41763D01*
X46658Y-41737D01*
X46683Y-41723D01*
X46700Y-41723D01*
X46726Y-41737D01*
X46735Y-41750D01*
X46906Y-42003D02*
X46803Y-42003D01*
X46855Y-42003D02*
X46855Y-41723D01*
X46838Y-41763D01*
X46820Y-41790D01*
X46803Y-41803D01*
X47060Y-41817D02*
X47060Y-42003D01*
X47017Y-41710D02*
X46974Y-41910D01*
X47086Y-41910D01*
X44213Y-39759D02*
X44204Y-39772D01*
X44178Y-39785D01*
X44161Y-39785D01*
X44136Y-39772D01*
X44118Y-39745D01*
X44110Y-39719D01*
X44101Y-39665D01*
X44101Y-39625D01*
X44110Y-39572D01*
X44118Y-39545D01*
X44136Y-39519D01*
X44161Y-39505D01*
X44178Y-39505D01*
X44204Y-39519D01*
X44213Y-39532D01*
X44384Y-39785D02*
X44281Y-39785D01*
X44333Y-39785D02*
X44333Y-39505D01*
X44316Y-39545D01*
X44298Y-39572D01*
X44281Y-39585D01*
X44444Y-39505D02*
X44555Y-39505D01*
X44495Y-39612D01*
X44521Y-39612D01*
X44538Y-39625D01*
X44547Y-39639D01*
X44555Y-39665D01*
X44555Y-39732D01*
X44547Y-39759D01*
X44538Y-39772D01*
X44521Y-39785D01*
X44469Y-39785D01*
X44452Y-39772D01*
X44444Y-39759D01*
X42697Y-49089D02*
X42688Y-49102D01*
X42662Y-49115D01*
X42645Y-49115D01*
X42620Y-49102D01*
X42602Y-49075D01*
X42594Y-49049D01*
X42585Y-48995D01*
X42585Y-48955D01*
X42594Y-48902D01*
X42602Y-48875D01*
X42620Y-48849D01*
X42645Y-48835D01*
X42662Y-48835D01*
X42688Y-48849D01*
X42697Y-48862D01*
X42765Y-48862D02*
X42774Y-48849D01*
X42791Y-48835D01*
X42834Y-48835D01*
X42851Y-48849D01*
X42860Y-48862D01*
X42868Y-48889D01*
X42868Y-48915D01*
X42860Y-48955D01*
X42757Y-49115D01*
X42868Y-49115D01*
X43022Y-48929D02*
X43022Y-49115D01*
X42979Y-48822D02*
X42936Y-49022D01*
X43048Y-49022D01*
X45073Y-47559D02*
X45064Y-47572D01*
X45038Y-47585D01*
X45021Y-47585D01*
X44996Y-47572D01*
X44978Y-47545D01*
X44970Y-47519D01*
X44961Y-47465D01*
X44961Y-47425D01*
X44970Y-47372D01*
X44978Y-47345D01*
X44996Y-47319D01*
X45021Y-47305D01*
X45038Y-47305D01*
X45064Y-47319D01*
X45073Y-47332D01*
X45141Y-47332D02*
X45150Y-47319D01*
X45167Y-47305D01*
X45210Y-47305D01*
X45227Y-47319D01*
X45236Y-47332D01*
X45244Y-47359D01*
X45244Y-47385D01*
X45236Y-47425D01*
X45133Y-47585D01*
X45244Y-47585D01*
X45398Y-47305D02*
X45364Y-47305D01*
X45347Y-47319D01*
X45338Y-47332D01*
X45321Y-47372D01*
X45312Y-47425D01*
X45312Y-47532D01*
X45321Y-47559D01*
X45329Y-47572D01*
X45347Y-47585D01*
X45381Y-47585D01*
X45398Y-47572D01*
X45407Y-47559D01*
X45415Y-47532D01*
X45415Y-47465D01*
X45407Y-47439D01*
X45398Y-47425D01*
X45381Y-47412D01*
X45347Y-47412D01*
X45329Y-47425D01*
X45321Y-47439D01*
X45312Y-47465D01*
X39655Y-47277D02*
X39646Y-47290D01*
X39620Y-47303D01*
X39603Y-47303D01*
X39578Y-47290D01*
X39560Y-47263D01*
X39552Y-47237D01*
X39543Y-47183D01*
X39543Y-47143D01*
X39552Y-47090D01*
X39560Y-47063D01*
X39578Y-47037D01*
X39603Y-47023D01*
X39620Y-47023D01*
X39646Y-47037D01*
X39655Y-47050D01*
X39723Y-47050D02*
X39732Y-47037D01*
X39749Y-47023D01*
X39792Y-47023D01*
X39809Y-47037D01*
X39818Y-47050D01*
X39826Y-47077D01*
X39826Y-47103D01*
X39818Y-47143D01*
X39715Y-47303D01*
X39826Y-47303D01*
X39989Y-47023D02*
X39903Y-47023D01*
X39894Y-47157D01*
X39903Y-47143D01*
X39920Y-47130D01*
X39963Y-47130D01*
X39980Y-47143D01*
X39989Y-47157D01*
X39997Y-47183D01*
X39997Y-47250D01*
X39989Y-47277D01*
X39980Y-47290D01*
X39963Y-47303D01*
X39920Y-47303D01*
X39903Y-47290D01*
X39894Y-47277D01*
X41315Y-49447D02*
X41306Y-49460D01*
X41280Y-49473D01*
X41263Y-49473D01*
X41238Y-49460D01*
X41220Y-49433D01*
X41212Y-49407D01*
X41203Y-49353D01*
X41203Y-49313D01*
X41212Y-49260D01*
X41220Y-49233D01*
X41238Y-49207D01*
X41263Y-49193D01*
X41280Y-49193D01*
X41306Y-49207D01*
X41315Y-49220D01*
X41383Y-49220D02*
X41392Y-49207D01*
X41409Y-49193D01*
X41452Y-49193D01*
X41469Y-49207D01*
X41478Y-49220D01*
X41486Y-49247D01*
X41486Y-49273D01*
X41478Y-49313D01*
X41375Y-49473D01*
X41486Y-49473D01*
X41657Y-49473D02*
X41554Y-49473D01*
X41606Y-49473D02*
X41606Y-49193D01*
X41589Y-49233D01*
X41571Y-49260D01*
X41554Y-49273D01*
X45055Y-44957D02*
X45046Y-44970D01*
X45020Y-44983D01*
X45003Y-44983D01*
X44978Y-44970D01*
X44960Y-44943D01*
X44952Y-44917D01*
X44943Y-44863D01*
X44943Y-44823D01*
X44952Y-44770D01*
X44960Y-44743D01*
X44978Y-44717D01*
X45003Y-44703D01*
X45020Y-44703D01*
X45046Y-44717D01*
X45055Y-44730D01*
X45123Y-44730D02*
X45132Y-44717D01*
X45149Y-44703D01*
X45192Y-44703D01*
X45209Y-44717D01*
X45218Y-44730D01*
X45226Y-44757D01*
X45226Y-44783D01*
X45218Y-44823D01*
X45115Y-44983D01*
X45226Y-44983D01*
X45294Y-44730D02*
X45303Y-44717D01*
X45320Y-44703D01*
X45363Y-44703D01*
X45380Y-44717D01*
X45389Y-44730D01*
X45397Y-44757D01*
X45397Y-44783D01*
X45389Y-44823D01*
X45286Y-44983D01*
X45397Y-44983D01*
X43176Y-44207D02*
X43176Y-44267D01*
X43322Y-44267D02*
X43042Y-44267D01*
X43042Y-44181D01*
X43176Y-44053D02*
X43189Y-44027D01*
X43202Y-44019D01*
X43229Y-44010D01*
X43269Y-44010D01*
X43296Y-44019D01*
X43309Y-44027D01*
X43322Y-44045D01*
X43322Y-44113D01*
X43042Y-44113D01*
X43042Y-44053D01*
X43056Y-44036D01*
X43069Y-44027D01*
X43096Y-44019D01*
X43122Y-44019D01*
X43149Y-44027D01*
X43162Y-44036D01*
X43176Y-44053D01*
X43176Y-44113D01*
X43042Y-43950D02*
X43042Y-43839D01*
X43149Y-43899D01*
X43149Y-43873D01*
X43162Y-43856D01*
X43176Y-43847D01*
X43202Y-43839D01*
X43269Y-43839D01*
X43296Y-43847D01*
X43309Y-43856D01*
X43322Y-43873D01*
X43322Y-43925D01*
X43309Y-43942D01*
X43296Y-43950D01*
X41877Y-44187D02*
X41877Y-44247D01*
X42023Y-44247D02*
X41743Y-44247D01*
X41743Y-44161D01*
X41877Y-44033D02*
X41890Y-44007D01*
X41903Y-43999D01*
X41930Y-43990D01*
X41970Y-43990D01*
X41997Y-43999D01*
X42010Y-44007D01*
X42023Y-44025D01*
X42023Y-44093D01*
X41743Y-44093D01*
X41743Y-44033D01*
X41757Y-44016D01*
X41770Y-44007D01*
X41797Y-43999D01*
X41823Y-43999D01*
X41850Y-44007D01*
X41863Y-44016D01*
X41877Y-44033D01*
X41877Y-44093D01*
X41770Y-43922D02*
X41757Y-43913D01*
X41743Y-43896D01*
X41743Y-43853D01*
X41757Y-43836D01*
X41770Y-43827D01*
X41797Y-43819D01*
X41823Y-43819D01*
X41863Y-43827D01*
X42023Y-43930D01*
X42023Y-43819D01*
X46735Y-41648D02*
X46675Y-41515D01*
X46632Y-41648D02*
X46632Y-41368D01*
X46700Y-41368D01*
X46718Y-41382D01*
X46726Y-41395D01*
X46735Y-41422D01*
X46735Y-41462D01*
X46726Y-41488D01*
X46718Y-41502D01*
X46700Y-41515D01*
X46632Y-41515D01*
X46906Y-41648D02*
X46803Y-41648D01*
X46855Y-41648D02*
X46855Y-41368D01*
X46838Y-41408D01*
X46820Y-41435D01*
X46803Y-41448D01*
X47069Y-41368D02*
X46983Y-41368D01*
X46974Y-41502D01*
X46983Y-41488D01*
X47000Y-41475D01*
X47043Y-41475D01*
X47060Y-41488D01*
X47069Y-41502D01*
X47077Y-41528D01*
X47077Y-41595D01*
X47069Y-41622D01*
X47060Y-41635D01*
X47043Y-41648D01*
X47000Y-41648D01*
X46983Y-41635D01*
X46974Y-41622D01*
X46027Y-42567D02*
X46018Y-42580D01*
X45992Y-42593D01*
X45975Y-42593D01*
X45950Y-42580D01*
X45932Y-42553D01*
X45924Y-42527D01*
X45915Y-42473D01*
X45915Y-42433D01*
X45924Y-42380D01*
X45932Y-42353D01*
X45950Y-42327D01*
X45975Y-42313D01*
X45992Y-42313D01*
X46018Y-42327D01*
X46027Y-42340D01*
X46198Y-42593D02*
X46095Y-42593D01*
X46147Y-42593D02*
X46147Y-42313D01*
X46130Y-42353D01*
X46112Y-42380D01*
X46095Y-42393D01*
X46301Y-42433D02*
X46283Y-42420D01*
X46275Y-42407D01*
X46266Y-42380D01*
X46266Y-42367D01*
X46275Y-42340D01*
X46283Y-42327D01*
X46301Y-42313D01*
X46335Y-42313D01*
X46352Y-42327D01*
X46361Y-42340D01*
X46369Y-42367D01*
X46369Y-42380D01*
X46361Y-42407D01*
X46352Y-42420D01*
X46335Y-42433D01*
X46301Y-42433D01*
X46283Y-42447D01*
X46275Y-42460D01*
X46266Y-42487D01*
X46266Y-42540D01*
X46275Y-42567D01*
X46283Y-42580D01*
X46301Y-42593D01*
X46335Y-42593D01*
X46352Y-42580D01*
X46361Y-42567D01*
X46369Y-42540D01*
X46369Y-42487D01*
X46361Y-42460D01*
X46352Y-42447D01*
X46335Y-42433D01*
X46735Y-42685D02*
X46726Y-42698D01*
X46700Y-42711D01*
X46683Y-42711D01*
X46658Y-42698D01*
X46640Y-42671D01*
X46632Y-42645D01*
X46623Y-42591D01*
X46623Y-42551D01*
X46632Y-42498D01*
X46640Y-42471D01*
X46658Y-42445D01*
X46683Y-42431D01*
X46700Y-42431D01*
X46726Y-42445D01*
X46735Y-42458D01*
X46906Y-42711D02*
X46803Y-42711D01*
X46855Y-42711D02*
X46855Y-42431D01*
X46838Y-42471D01*
X46820Y-42498D01*
X46803Y-42511D01*
X47060Y-42431D02*
X47026Y-42431D01*
X47009Y-42445D01*
X47000Y-42458D01*
X46983Y-42498D01*
X46974Y-42551D01*
X46974Y-42658D01*
X46983Y-42685D01*
X46991Y-42698D01*
X47009Y-42711D01*
X47043Y-42711D01*
X47060Y-42698D01*
X47069Y-42685D01*
X47077Y-42658D01*
X47077Y-42591D01*
X47069Y-42565D01*
X47060Y-42551D01*
X47043Y-42538D01*
X47009Y-42538D01*
X46991Y-42551D01*
X46983Y-42565D01*
X46974Y-42591D01*
X44213Y-40101D02*
X44204Y-40114D01*
X44178Y-40127D01*
X44161Y-40127D01*
X44136Y-40114D01*
X44118Y-40087D01*
X44110Y-40061D01*
X44101Y-40007D01*
X44101Y-39967D01*
X44110Y-39914D01*
X44118Y-39887D01*
X44136Y-39861D01*
X44161Y-39847D01*
X44178Y-39847D01*
X44204Y-39861D01*
X44213Y-39874D01*
X44384Y-40127D02*
X44281Y-40127D01*
X44333Y-40127D02*
X44333Y-39847D01*
X44316Y-39887D01*
X44298Y-39914D01*
X44281Y-39927D01*
X44452Y-39874D02*
X44461Y-39861D01*
X44478Y-39847D01*
X44521Y-39847D01*
X44538Y-39861D01*
X44547Y-39874D01*
X44555Y-39901D01*
X44555Y-39927D01*
X44547Y-39967D01*
X44444Y-40127D01*
X44555Y-40127D01*
X46541Y-43945D02*
X46532Y-43958D01*
X46506Y-43971D01*
X46489Y-43971D01*
X46464Y-43958D01*
X46446Y-43931D01*
X46438Y-43905D01*
X46429Y-43851D01*
X46429Y-43811D01*
X46438Y-43758D01*
X46446Y-43731D01*
X46464Y-43705D01*
X46489Y-43691D01*
X46506Y-43691D01*
X46532Y-43705D01*
X46541Y-43718D01*
X46712Y-43971D02*
X46609Y-43971D01*
X46661Y-43971D02*
X46661Y-43691D01*
X46644Y-43731D01*
X46626Y-43758D01*
X46609Y-43771D01*
X46772Y-43691D02*
X46892Y-43691D01*
X46815Y-43971D01*
X40755Y-49617D02*
X40746Y-49630D01*
X40720Y-49643D01*
X40703Y-49643D01*
X40678Y-49630D01*
X40660Y-49603D01*
X40652Y-49577D01*
X40643Y-49523D01*
X40643Y-49483D01*
X40652Y-49430D01*
X40660Y-49403D01*
X40678Y-49377D01*
X40703Y-49363D01*
X40720Y-49363D01*
X40746Y-49377D01*
X40755Y-49390D01*
X40926Y-49643D02*
X40823Y-49643D01*
X40875Y-49643D02*
X40875Y-49363D01*
X40858Y-49403D01*
X40840Y-49430D01*
X40823Y-49443D01*
X41011Y-49643D02*
X41046Y-49643D01*
X41063Y-49630D01*
X41071Y-49617D01*
X41089Y-49577D01*
X41097Y-49523D01*
X41097Y-49417D01*
X41089Y-49390D01*
X41080Y-49377D01*
X41063Y-49363D01*
X41029Y-49363D01*
X41011Y-49377D01*
X41003Y-49390D01*
X40994Y-49417D01*
X40994Y-49483D01*
X41003Y-49510D01*
X41011Y-49523D01*
X41029Y-49537D01*
X41063Y-49537D01*
X41080Y-49523D01*
X41089Y-49510D01*
X41097Y-49483D01*
G54D17*
X44860Y-42001D02*
X44860Y-42244D01*
X44871Y-42273D01*
X44883Y-42287D01*
X44907Y-42301D01*
X44955Y-42301D01*
X44979Y-42287D01*
X44990Y-42273D01*
X45002Y-42244D01*
X45002Y-42001D01*
X45229Y-42101D02*
X45229Y-42301D01*
X45169Y-41987D02*
X45110Y-42201D01*
X45264Y-42201D01*
G54D13*
X46103Y-49003D02*
X46103Y-49230D01*
X46111Y-49257D01*
X46120Y-49270D01*
X46137Y-49283D01*
X46171Y-49283D01*
X46189Y-49270D01*
X46197Y-49257D01*
X46206Y-49230D01*
X46206Y-49003D01*
X46275Y-49003D02*
X46395Y-49003D01*
X46318Y-49283D01*
X39810Y-40743D02*
X39810Y-40943D01*
X39802Y-40983D01*
X39785Y-41010D01*
X39759Y-41023D01*
X39742Y-41023D01*
X39990Y-41023D02*
X39887Y-41023D01*
X39939Y-41023D02*
X39939Y-40743D01*
X39922Y-40783D01*
X39904Y-40810D01*
X39887Y-40823D01*
X41082Y-43997D02*
X40949Y-44057D01*
X41082Y-44100D02*
X40802Y-44100D01*
X40802Y-44032D01*
X40816Y-44014D01*
X40829Y-44006D01*
X40856Y-43997D01*
X40896Y-43997D01*
X40922Y-44006D01*
X40936Y-44014D01*
X40949Y-44032D01*
X40949Y-44100D01*
X40802Y-43843D02*
X40802Y-43877D01*
X40816Y-43894D01*
X40829Y-43903D01*
X40869Y-43920D01*
X40922Y-43929D01*
X41029Y-43929D01*
X41056Y-43920D01*
X41069Y-43912D01*
X41082Y-43894D01*
X41082Y-43860D01*
X41069Y-43843D01*
X41056Y-43834D01*
X41029Y-43826D01*
X40962Y-43826D01*
X40936Y-43834D01*
X40922Y-43843D01*
X40909Y-43860D01*
X40909Y-43894D01*
X40922Y-43912D01*
X40936Y-43920D01*
X40962Y-43929D01*
X42702Y-44157D02*
X42569Y-44217D01*
X42702Y-44260D02*
X42422Y-44260D01*
X42422Y-44192D01*
X42436Y-44174D01*
X42449Y-44166D01*
X42476Y-44157D01*
X42516Y-44157D01*
X42542Y-44166D01*
X42556Y-44174D01*
X42569Y-44192D01*
X42569Y-44260D01*
X42702Y-43986D02*
X42702Y-44089D01*
X42702Y-44037D02*
X42422Y-44037D01*
X42462Y-44054D01*
X42489Y-44072D01*
X42502Y-44089D01*
X42516Y-43832D02*
X42702Y-43832D01*
X42409Y-43875D02*
X42609Y-43918D01*
X42609Y-43806D01*
X44023Y-43557D02*
X44303Y-43437D01*
X44023Y-43437D02*
X44303Y-43557D01*
X44303Y-43275D02*
X44303Y-43378D01*
X44303Y-43326D02*
X44023Y-43326D01*
X44063Y-43343D01*
X44090Y-43361D01*
X44103Y-43378D01*
M02*
