  0
SECTION
  2
HEADER
  9
$ACADVER
  1
AC1018
  9
$ACADMAINTVER
 70
    77
  9
$DWGCODEPAGE
  3
ANSI_936
  9
$LASTSAVEDBY
  1
daicl
  9
$INSBASE
 10
0.0
 20
0.0
 30
0.0
  9
$EXTMIN
 10
3045.875713902288
 20
953.7803271993984
 30
0.0
  9
$EXTMAX
 10
5779.854644114959
 20
1521.819303378223
 30
0.0
  9
$LIMMIN
 10
0.0
 20
0.0
  9
$LIMMAX
 10
0.0
 20
0.0
  9
$ORTHOMODE
 70
     1
  9
$REGENMODE
 70
     1
  9
$FILLMODE
 70
     1
  9
$QTEXTMODE
 70
     0
  9
$MIRRTEXT
 70
     1
  9
$LTSCALE
 40
1.0
  9
$ATTMODE
 70
     1
  9
$TEXTSIZE
 40
0.0
  9
$TRACEWID
 40
0.05
  9
$TEXTSTYLE
  7
Standard
  9
$CLAYER
  8
0
  9
$CELTYPE
  6
Continuous
  9
$CECOLOR
 62
   256
  9
$CELTSCALE
 40
1.0
  9
$DISPSILH
 70
     0
  9
$DIMSCALE
 40
1.0
  9
$DIMASZ
 40
0.4
  9
$DIMEXO
 40
0.0625
  9
$DIMDLI
 40
1.0
  9
$DIMRND
 40
0.0
  9
$DIMDLE
 40
0.0
  9
$DIMEXE
 40
0.18
  9
$DIMTP
 40
0.0015
  9
$DIMTM
 40
0.0015
  9
$DIMTXT
 40
1.0
  9
$DIMCEN
 40
2.0
  9
$DIMTSZ
 40
0.0
  9
$DIMTOL
 70
     0
  9
$DIMLIM
 70
     0
  9
$DIMTIH
 70
     0
  9
$DIMTOH
 70
     0
  9
$DIMSE1
 70
     0
  9
$DIMSE2
 70
     0
  9
$DIMTAD
 70
     0
  9
$DIMZIN
 70
     0
  9
$DIMBLK
  1

  9
$DIMASO
 70
     1
  9
$DIMSHO
 70
     1
  9
$DIMPOST
  1

  9
$DIMAPOST
  1

  9
$DIMALT
 70
     0
  9
$DIMALTD
 70
     2
  9
$DIMALTF
 40
25.4
  9
$DIMLFAC
 40
1.0
  9
$DIMTOFL
 70
     0
  9
$DIMTVP
 40
0.0
  9
$DIMTIX
 70
     0
  9
$DIMSOXD
 70
     0
  9
$DIMSAH
 70
     0
  9
$DIMBLK1
  1

  9
$DIMBLK2
  1

  9
$DIMSTYLE
  2
Standard
  9
$DIMCLRD
 70
     3
  9
$DIMCLRE
 70
     0
  9
$DIMCLRT
 70
     0
  9
$DIMTFAC
 40
1.000499999999999
  9
$DIMGAP
 40
0.3
  9
$DIMJUST
 70
     0
  9
$DIMSD1
 70
     0
  9
$DIMSD2
 70
     0
  9
$DIMTOLJ
 70
     1
  9
$DIMTZIN
 70
     0
  9
$DIMALTZ
 70
     0
  9
$DIMALTTZ
 70
     0
  9
$DIMUPT
 70
     0
  9
$DIMDEC
 70
     1
  9
$DIMTDEC
 70
     1
  9
$DIMALTU
 70
     2
  9
$DIMALTTD
 70
     2
  9
$DIMTXSTY
  7
Standard
  9
$DIMAUNIT
 70
     0
  9
$DIMADEC
 70
     0
  9
$DIMALTRND
 40
0.0
  9
$DIMAZIN
 70
     0
  9
$DIMDSEP
 70
     0
  9
$DIMATFIT
 70
     3
  9
$DIMFRAC
 70
     0
  9
$DIMLDRBLK
  1

  9
$DIMLUNIT
 70
     2
  9
$DIMLWD
 70
     0
  9
$DIMLWE
 70
     0
  9
$DIMTMOVE
 70
     0
  9
$LUNITS
 70
     2
  9
$LUPREC
 70
     4
  9
$SKETCHINC
 40
0.1
  9
$FILLETRAD
 40
15.0
  9
$AUNITS
 70
     0
  9
$AUPREC
 70
     0
  9
$MENU
  1
acad
  9
$ELEVATION
 40
0.0
  9
$PELEVATION
 40
0.0
  9
$THICKNESS
 40
0.0
  9
$LIMCHECK
 70
     0
  9
$CHAMFERA
 40
0.0
  9
$CHAMFERB
 40
0.0
  9
$CHAMFERC
 40
0.0
  9
$CHAMFERD
 40
0.0
  9
$SKPOLY
 70
     0
  9
$TDCREATE
 40
2455639.606456157
  9
$TDUCREATE
 40
2455639.273122824
  9
$TDUPDATE
 40
2455735.840774375
  9
$TDUUPDATE
 40
2455735.507441041
  9
$TDINDWG
 40
0.6254660764
  9
$TDUSRTIMER
 40
0.6254544792
  9
$USRTIMER
 70
     1
  9
$ANGBASE
 50
0.0
  9
$ANGDIR
 70
     0
  9
$PDMODE
 70
     0
  9
$PDSIZE
 40
0.0
  9
$PLINEWID
 40
0.0
  9
$SPLFRAME
 70
     0
  9
$SPLINETYPE
 70
     6
  9
$SPLINESEGS
 70
     8
  9
$HANDSEED
  5
27DC
  9
$SURFTAB1
 70
     6
  9
$SURFTAB2
 70
     6
  9
$SURFTYPE
 70
     6
  9
$SURFU
 70
     6
  9
$SURFV
 70
     6
  9
$UCSBASE
  2

  9
$UCSNAME
  2

  9
$UCSORG
 10
0.0
 20
0.0
 30
0.0
  9
$UCSXDIR
 10
1.0
 20
0.0
 30
0.0
  9
$UCSYDIR
 10
0.0
 20
1.0
 30
0.0
  9
$UCSORTHOREF
  2

  9
$UCSORTHOVIEW
 70
     0
  9
$UCSORGTOP
 10
0.0
 20
0.0
 30
0.0
  9
$UCSORGBOTTOM
 10
0.0
 20
0.0
 30
0.0
  9
$UCSORGLEFT
 10
0.0
 20
0.0
 30
0.0
  9
$UCSORGRIGHT
 10
0.0
 20
0.0
 30
0.0
  9
$UCSORGFRONT
 10
0.0
 20
0.0
 30
0.0
  9
$UCSORGBACK
 10
0.0
 20
0.0
 30
0.0
  9
$PUCSBASE
  2

  9
$PUCSNAME
  2

  9
$PUCSORG
 10
0.0
 20
0.0
 30
0.0
  9
$PUCSXDIR
 10
1.0
 20
0.0
 30
0.0
  9
$PUCSYDIR
 10
0.0
 20
1.0
 30
0.0
  9
$PUCSORTHOREF
  2

  9
$PUCSORTHOVIEW
 70
     0
  9
$PUCSORGTOP
 10
0.0
 20
0.0
 30
0.0
  9
$PUCSORGBOTTOM
 10
0.0
 20
0.0
 30
0.0
  9
$PUCSORGLEFT
 10
0.0
 20
0.0
 30
0.0
  9
$PUCSORGRIGHT
 10
0.0
 20
0.0
 30
0.0
  9
$PUCSORGFRONT
 10
0.0
 20
0.0
 30
0.0
  9
$PUCSORGBACK
 10
0.0
 20
0.0
 30
0.0
  9
$USERI1
 70
     0
  9
$USERI2
 70
     0
  9
$USERI3
 70
     0
  9
$USERI4
 70
     0
  9
$USERI5
 70
     0
  9
$USERR1
 40
0.0
  9
$USERR2
 40
0.0
  9
$USERR3
 40
0.0
  9
$USERR4
 40
0.0
  9
$USERR5
 40
0.0
  9
$WORLDVIEW
 70
     1
  9
$SHADEDGE
 70
     3
  9
$SHADEDIF
 70
    70
  9
$TILEMODE
 70
     1
  9
$MAXACTVP
 70
    16
  9
$PINSBASE
 10
0.0
 20
0.0
 30
0.0
  9
$PLIMCHECK
 70
     0
  9
$PEXTMIN
 10
1.000000000000000E+20
 20
1.000000000000000E+20
 30
1.000000000000000E+20
  9
$PEXTMAX
 10
-1.000000000000000E+20
 20
-1.000000000000000E+20
 30
-1.000000000000000E+20
  9
$PLIMMIN
 10
0.0
 20
0.0
  9
$PLIMMAX
 10
12.0
 20
9.0
  9
$UNITMODE
 70
     0
  9
$VISRETAIN
 70
     0
  9
$PLINEGEN
 70
     1
  9
$PSLTSCALE
 70
     0
  9
$TREEDEPTH
 70
  3020
  9
$CMLSTYLE
  2
Standard
  9
$CMLJUST
 70
     0
  9
$CMLSCALE
 40
1.0
  9
$PROXYGRAPHICS
 70
     0
  9
$MEASUREMENT
 70
     0
  9
$CELWEIGHT
370
     0
  9
$ENDCAPS
280
     0
  9
$JOINSTYLE
280
     0
  9
$LWDISPLAY
290
     0
  9
$INSUNITS
 70
     0
  9
$HYPERLINKBASE
  1

  9
$STYLESHEET
  1

  9
$XEDIT
290
     1
  9
$CEPSNTYPE
380
     0
  9
$PSTYLEMODE
290
     1
  9
$FINGERPRINTGUID
  2

  9
$VERSIONGUID
  2
{38B1AD51-190D-4810-A9BB-4A9E1CE7741B}
  9
$EXTNAMES
290
     1
  9
$PSVPSCALE
 40
0.0
  9
$OLESTARTUP
290
     0
  9
$SORTENTS
280
   127
  9
$INDEXCTL
280
     0
  9
$HIDETEXT
280
     0
  9
$XCLIPFRAME
290
     0
  9
$HALOGAP
280
     0
  9
$OBSCOLOR
 70
   257
  9
$OBSLTYPE
280
     0
  9
$INTERSECTIONDISPLAY
280
     0
  9
$INTERSECTIONCOLOR
 70
   257
  9
$DIMASSOC
280
     1
  9
$PROJECTNAME
  1

  0
ENDSEC
  0
SECTION
  2
CLASSES
  0
CLASS
  1
IMAGE
  2
AcDbRasterImage
  3
ISM
 90
      127
 91
        0
280
     0
281
     1
  0
CLASS
  1
DICTIONARYVAR
  2
AcDbDictionaryVar
  3
ObjectDBX Classes
 90
        0
 91
        6
280
     0
281
     0
  0
CLASS
  1
RASTERVARIABLES
  2
AcDbRasterVariables
  3
ISM
 90
        0
 91
        0
280
     0
281
     0
  0
CLASS
  1
IMAGEDEF
  2
AcDbRasterImageDef
  3
ISM
 90
        0
 91
        0
280
     0
281
     0
  0
CLASS
  1
IMAGEDEF_REACTOR
  2
AcDbRasterImageDefReactor
  3
ISM
 90
        1
 91
        0
280
     0
281
     0
  0
CLASS
  1
IDBUFFER
  2
AcDbIdBuffer
  3
ObjectDBX Classes
 90
        0
 91
        0
280
     0
281
     0
  0
CLASS
  1
SPATIAL_FILTER
  2
AcDbSpatialFilter
  3
ObjectDBX Classes
 90
        0
 91
        0
280
     0
281
     0
  0
CLASS
  1
SORTENTSTABLE
  2
AcDbSortentsTable
  3
ObjectDBX Classes
 90
        0
 91
        3
280
     0
281
     0
  0
CLASS
  1
LAYER_INDEX
  2
AcDbLayerIndex
  3
ObjectDBX Classes
 90
        0
 91
        0
280
     0
281
     0
  0
CLASS
  1
SPATIAL_INDEX
  2
AcDbSpatialIndex
  3
ObjectDBX Classes
 90
        0
 91
        0
280
     0
281
     0
  0
CLASS
  1
OBJECT_PTR
  2
CAseDLPNTableRecord
  3
ASE-LPNTableRecord
 90
        1
 91
        0
280
     0
281
     0
  0
CLASS
  1
LAYOUT
  2
AcDbLayout
  3
ObjectDBX Classes
 90
        0
 91
        2
280
     0
281
     0
  0
CLASS
  1
PLOTSETTINGS
  2
AcDbPlotSettings
  3
ObjectDBX Classes
 90
        0
 91
        0
280
     0
281
     0
  0
CLASS
  1
ACDBDICTIONARYWDFLT
  2
AcDbDictionaryWithDefault
  3
ObjectDBX Classes
 90
        0
 91
        1
280
     0
281
     0
  0
CLASS
  1
ACDBPLACEHOLDER
  2
AcDbPlaceHolder
  3
ObjectDBX Classes
 90
        0
 91
        1
280
     0
281
     0
  0
CLASS
  1
VBA_PROJECT
  2
AcDbVbaProject
  3
acad
 90
        0
 91
        0
280
     0
281
     0
  0
CLASS
  1
WIPEOUT
  2
AcDbWipeout
  3
"WipeOut|Product Desc: Object Enabler for WipeOut entity^I^I^I^I^I^I|Company: Autodesk, Inc.^I^I^I^I^I^I|WEB Address: www.autodesk.com"
 90
      127
 91
        0
280
     0
281
     1
  0
CLASS
  1
WIPEOUTVARIABLES
  2
AcDbWipeoutVariables
  3
"WipeOut|Product Desc:     WipeOut Dbx Application|Company:          Autodesk, Inc.|WEB Address:      www.autodesk.com"
 90
        0
 91
        1
280
     0
281
     0
  0
CLASS
  1
RTEXT
  2
RText
  3
RText|AutoCAD Express Tool|expresstools@autodesk.com
 90
        0
 91
        0
280
     0
281
     1
  0
CLASS
  1
ARCALIGNEDTEXT
  2
AcDbArcAlignedText
  3
ATEXT|AutoCAD Express Tool|expresstools@autodesk.com
 90
        0
 91
        0
280
     0
281
     1
  0
CLASS
  1
MATERIAL
  2
AcDbMaterial
  3
ObjectDBX Classes
 90
        0
 91
        3
280
     0
281
     0
  0
CLASS
  1
VISUALSTYLE
  2
AcDbVisualStyle
  3
ObjectDBX Classes
 90
     4095
 91
       16
280
     0
281
     0
  0
CLASS
  1
TABLESTYLE
  2
AcDbTableStyle
  3
ObjectDBX Classes
 90
     2047
 91
        1
280
     0
281
     0
  0
CLASS
  1
SCALE
  2
AcDbScale
  3
ObjectDBX Classes
 90
     1153
 91
       33
280
     0
281
     0
  0
CLASS
  1
MLEADERSTYLE
  2
AcDbMLeaderStyle
  3
ACDB_MLEADERSTYLE_CLASS
 90
     4095
 91
        1
280
     0
281
     0
  0
CLASS
  1
CELLSTYLEMAP
  2
AcDbCellStyleMap
  3
ObjectDBX Classes
 90
     1152
 91
        1
280
     0
281
     0
  0
ENDSEC
  0
SECTION
  2
TABLES
  0
TABLE
  2
VPORT
  5
7
330
0
100
AcDbSymbolTable
 70
     4
  0
VPORT
  5
27DB
330
7
100
AcDbSymbolTableRecord
100
AcDbViewportTableRecord
  2
*Active
 70
     0
 10
0.0
 20
0.0
 11
1.0
 21
1.0
 12
5110.886620929512
 22
1278.363716081913
 13
0.0
 23
0.0
 14
1.0
 24
1.0
 15
0.0
 25
0.0
 16
0.0
 26
0.0
 36
1.0
 17
0.0
 27
0.0
 37
0.0
 40
5589.34992233744
 41
1.695035460992907
 42
50.0
 43
0.0
 44
0.0
 50
0.0
 51
0.0
 71
     0
 72
   100
 73
     1
 74
     1
 75
     0
 76
     0
 77
     0
 78
     0
281
     0
 65
     0
110
0.0
120
0.0
130
0.0
111
1.0
121
0.0
131
0.0
112
0.0
122
1.0
132
0.0
 79
     0
146
0.0
  0
ENDTAB
  0
TABLE
  2
LTYPE
  5
4
330
0
100
AcDbSymbolTable
 70
    11
  0
LTYPE
  5
11
330
4
100
AcDbSymbolTableRecord
100
AcDbLinetypeTableRecord
  2
ByBlock
 70
     0
  3

 72
    65
 73
     0
 40
0.0
  0
LTYPE
  5
12
330
4
100
AcDbSymbolTableRecord
100
AcDbLinetypeTableRecord
  2
ByLayer
 70
     0
  3

 72
    65
 73
     0
 40
0.0
  0
LTYPE
  5
13
330
4
100
AcDbSymbolTableRecord
100
AcDbLinetypeTableRecord
  2
Continuous
 70
     0
  3
Solid line
 72
    65
 73
     0
 40
0.0
  0
LTYPE
  5
25
330
4
100
AcDbSymbolTableRecord
100
AcDbLinetypeTableRecord
  2
\U+00D0¨¦\U+00CF\U+00DF
 70
     0
  3
\U+00D0¨¦\U+00CF\U+00DF
 72
    65
 73
     2
 40
0.125
 49
0.0
 74
     0
 49
-0.125
 74
     0
  0
LTYPE
  5
26
330
4
100
AcDbSymbolTableRecord
100
AcDbLinetypeTableRecord
  2
\U+00D6\U+00D0\U+00D0\U+00C4\U+00CF\U+00DF
 70
     0
  3
\U+00D6\U+00D0\U+00D0\U+00C4\U+00CF\U+00DF
 72
    65
 73
     4
 40
43.0
 49
40.0
 74
     0
 49
-1.0
 74
     0
 49
1.0
 74
     0
 49
-1.0
 74
     0
  0
LTYPE
  5
27
330
4
100
AcDbSymbolTableRecord
100
AcDbLinetypeTableRecord
  2
\U+00C6\U+00C6\U+00D5\U+00DB\U+00CF\U+00DF
 70
     0
  3
\U+00C6\U+00C6\U+00D5\U+00DB\U+00CF\U+00DF
 72
    65
 73
     2
 40
4.0
 49
3.0
 74
     0
 49
-1.0
 74
     0
  0
LTYPE
  5
28
330
4
100
AcDbSymbolTableRecord
100
AcDbLinetypeTableRecord
  2
\U+00D2\U+00FE\U+00B2\U+00D8\U+00CF\U+00DF
 70
     0
  3
\U+00D2\U+00FE\U+00B2\U+00D8\U+00CF\U+00DF
 72
    65
 73
     2
 40
3.0
 49
2.0
 74
     0
 49
-1.0
 74
     0
  0
LTYPE
  5
29
330
4
100
AcDbSymbolTableRecord
100
AcDbLinetypeTableRecord
  2
\U+00BC\U+00D9\U+00CF\U+00EB\U+00CF\U+00DF
 70
     0
  3
\U+00BC\U+00D9\U+00CF\U+00EB\U+00CF\U+00DF
 72
    65
 73
     6
 40
35.0
 49
30.0
 74
     0
 49
-1.0
 74
     0
 49
1.0
 74
     0
 49
-1.0
 74
     0
 49
1.0
 74
     0
 49
-1.0
 74
     0
  0
LTYPE
  5
2A
330
4
100
AcDbSymbolTableRecord
100
AcDbLinetypeTableRecord
  2
\U+00B5\U+00E3\U+00BB\U+00AD\U+00CF\U+00DF
 70
     0
  3
\U+00B5\U+00E3\U+00BB\U+00AD\U+00CF\U+00DF
 72
    65
 73
     4
 40
33.0
 49
30.0
 74
     0
 49
-1.0
 74
     0
 49
1.0
 74
     0
 49
-1.0
 74
     0
  0
LTYPE
  5
2B
330
4
100
AcDbSymbolTableRecord
100
AcDbLinetypeTableRecord
  2
¡À\U+00DF\U+00BD\U+00E7\U+00CF\U+00DF
 70
     0
  3
¡À\U+00DF\U+00BD\U+00E7\U+00CF\U+00DF
 72
    65
 73
     4
 40
23.0
 49
20.0
 74
     0
 49
-1.0
 74
     0
 49
1.0
 74
     0
 49
-1.0
 74
     0
  0
LTYPE
  5
2C
330
4
100
AcDbSymbolTableRecord
100
AcDbLinetypeTableRecord
  2
¡¤\U+00D6\U+00B8\U+00EE\U+00CF\U+00DF
 70
     0
  3
¡¤\U+00D6\U+00B8\U+00EE\U+00CF\U+00DF
 72
    65
 73
     6
 40
25.0
 49
20.0
 74
     0
 49
-1.0
 74
     0
 49
1.0
 74
     0
 49
-1.0
 74
     0
 49
1.0
 74
     0
 49
-1.0
 74
     0
  0
LTYPE
  5
2D
330
4
100
AcDbSymbolTableRecord
100
AcDbLinetypeTableRecord
  2
\U+00C7\U+00D0\U+00B8\U+00EE\U+00CF\U+00DF
 70
     0
  3
\U+00C7\U+00D0\U+00B8\U+00EE\U+00CF\U+00DF
 72
    65
 73
     6
 40
45.0
 49
40.0
 74
     0
 49
-1.0
 74
     0
 49
1.0
 74
     0
 49
-1.0
 74
     0
 49
1.0
 74
     0
 49
-1.0
 74
     0
  0
LTYPE
  5
2E
330
4
100
AcDbSymbolTableRecord
100
AcDbLinetypeTableRecord
  2
¡¤¨¬\U+00BA\U+00CF\U+00CF\U+00DF
 70
     0
  3
¡¤¨¬\U+00BA\U+00CF\U+00CF\U+00DF
 72
    65
 73
     2
 40
2.0
 49
1.0
 74
     0
 49
-1.0
 74
     0
  0
ENDTAB
  0
TABLE
  2
LAYER
  5
2
330
0
100
AcDbSymbolTable
 70
    15
  0
LAYER
  5
14
102
{ACAD_XDICTIONARY
360
10C
102
}
330
2
100
AcDbSymbolTableRecord
100
AcDbLayerTableRecord
  2
0
 70
     0
 62
     7
  6
Continuous
370
    -3
390
1D
  0
LAYER
  5
2F
102
{ACAD_XDICTIONARY
360
10E
102
}
330
2
100
AcDbSymbolTableRecord
100
AcDbLayerTableRecord
  2
$FF
 70
     0
 62
     7
  6
Continuous
370
    -3
390
1D
  0
LAYER
  5
30
102
{ACAD_XDICTIONARY
360
110
102
}
330
2
100
AcDbSymbolTableRecord
100
AcDbLayerTableRecord
  2
CREASE
 70
     0
 62
     3
  6
Continuous
370
    -3
390
1D
  0
LAYER
  5
31
102
{ACAD_XDICTIONARY
360
112
102
}
330
2
100
AcDbSymbolTableRecord
100
AcDbLayerTableRecord
  2
CUT
 70
     0
 62
     7
  6
Continuous
370
    -3
390
1D
  0
LAYER
  5
32
102
{ACAD_XDICTIONARY
360
114
102
}
330
2
100
AcDbSymbolTableRecord
100
AcDbLayerTableRecord
  2
CUT2
 70
     0
 62
     6
  6
Continuous
370
    -3
390
1D
  0
LAYER
  5
33
102
{ACAD_XDICTIONARY
360
116
102
}
330
2
100
AcDbSymbolTableRecord
100
AcDbLayerTableRecord
  2
DIMENSION
 70
     0
 62
     7
  6
Continuous
370
    -3
390
1D
  0
LAYER
  5
34
102
{ACAD_XDICTIONARY
360
118
102
}
330
2
100
AcDbSymbolTableRecord
100
AcDbLayerTableRecord
  2
$FF$FF
 70
     0
 62
     7
  6
Continuous
370
     0
390
1D
  0
LAYER
  5
35
102
{ACAD_XDICTIONARY
360
11A
102
}
330
2
100
AcDbSymbolTableRecord
100
AcDbLayerTableRecord
  2
CONSTRUCTION
 70
     0
 62
     7
  6
Continuous
370
     0
390
1D
  0
LAYER
  5
36
102
{ACAD_XDICTIONARY
360
11C
102
}
330
2
100
AcDbSymbolTableRecord
100
AcDbLayerTableRecord
  2
CREASE1
 70
     0
 62
     7
  6
Continuous
370
     0
390
1D
  0
LAYER
  5
38
102
{ACAD_XDICTIONARY
360
11E
102
}
330
2
100
AcDbSymbolTableRecord
100
AcDbLayerTableRecord
  2
DESIGN
 70
     0
 62
     7
  6
Continuous
370
    -3
390
1D
  0
LAYER
  5
39
102
{ACAD_XDICTIONARY
360
120
102
}
330
2
100
AcDbSymbolTableRecord
100
AcDbLayerTableRecord
  2
LAYER1
 70
     0
 62
     7
  6
Continuous
370
    -3
390
1D
  0
LAYER
  5
3A
330
2
100
AcDbSymbolTableRecord
100
AcDbLayerTableRecord
  2
DEFPOINTS
 70
     0
 62
     7
  6
Continuous
290
     0
370
    -3
390
1D
  0
LAYER
  5
3B
102
{ACAD_XDICTIONARY
360
122
102
}
330
2
100
AcDbSymbolTableRecord
100
AcDbLayerTableRecord
  2
$FF$
 70
     0
 62
     7
  6
Continuous
370
    -3
390
1D
  0
LAYER
  5
383
102
{ACAD_XDICTIONARY
360
384
102
}
330
2
100
AcDbSymbolTableRecord
100
AcDbLayerTableRecord
  2
Í¼²ã 2
 70
     0
 62
     7
  6
Continuous
370
    -3
390
1D
  0
LAYER
  5
FB6
102
{ACAD_XDICTIONARY
360
FB7
102
}
330
2
100
AcDbSymbolTableRecord
100
AcDbLayerTableRecord
  2
GREEN
 70
     0
 62
     3
  6
Continuous
370
    -3
390
1D
  0
ENDTAB
  0
TABLE
  2
STYLE
  5
3
330
0
100
AcDbSymbolTable
 70
     2
  0
STYLE
  5
17
330
3
100
AcDbSymbolTableRecord
100
AcDbTextStyleTableRecord
  2
Standard
 70
     0
 40
0.0
 41
1.0
 50
0.0
 71
     0
 42
0.0
  3
txt
  4

  0
STYLE
  5
24
330
3
100
AcDbSymbolTableRecord
100
AcDbTextStyleTableRecord
  2
Plotter
 70
     0
 40
0.0
 41
0.98
 50
0.0
 71
     0
 42
0.0
  3
SIMPLEX
  4

  0
ENDTAB
  0
TABLE
  2
VIEW
  5
5
330
0
100
AcDbSymbolTable
 70
     0
  0
ENDTAB
  0
TABLE
  2
UCS
  5
6
330
0
100
AcDbSymbolTable
 70
     0
  0
ENDTAB
  0
TABLE
  2
APPID
  5
8
330
0
100
AcDbSymbolTable
 70
    17
  0
APPID
  5
16
330
8
100
AcDbSymbolTableRecord
100
AcDbRegAppTableRecord
  2
ACAD
 70
     0
  0
APPID
  5
CD
330
8
100
AcDbSymbolTableRecord
100
AcDbRegAppTableRecord
  2
ACAD_MLEADERVER
 70
     0
  0
APPID
  5
E3
330
8
100
AcDbSymbolTableRecord
100
AcDbRegAppTableRecord
  2
ACAD_EXEMPT_FROM_CAD_STANDARDS
 70
     0
  0
APPID
  5
101
330
8
100
AcDbSymbolTableRecord
100
AcDbRegAppTableRecord
  2
DCO15
 70
     0
  0
APPID
  5
387
330
8
100
AcDbSymbolTableRecord
100
AcDbRegAppTableRecord
  2
ACAD_PSEXT
 70
     0
  0
APPID
  5
388
330
8
100
AcDbSymbolTableRecord
100
AcDbRegAppTableRecord
  2
AcadAnnotative
 70
     0
  0
APPID
  5
389
330
8
100
AcDbSymbolTableRecord
100
AcDbRegAppTableRecord
  2
ACAD_DSTYLE_DIMJAG
 70
     0
  0
APPID
  5
38A
330
8
100
AcDbSymbolTableRecord
100
AcDbRegAppTableRecord
  2
ACAD_DSTYLE_DIMTALN
 70
     0
  0
APPID
  5
10D2
330
8
100
AcDbSymbolTableRecord
100
AcDbRegAppTableRecord
  2
ACAD_DSTYLE_DIMRADIAL_EXTENSION
 70
     0
  0
APPID
  5
12ED
330
8
100
AcDbSymbolTableRecord
100
AcDbRegAppTableRecord
  2
ACAD_DSTYLE_DIMTEXT_FILL
 70
     0
  0
APPID
  5
12EE
330
8
100
AcDbSymbolTableRecord
100
AcDbRegAppTableRecord
  2
ACAD_DSTYLE_DIMEXT_LENGTH
 70
     0
  0
APPID
  5
12EF
330
8
100
AcDbSymbolTableRecord
100
AcDbRegAppTableRecord
  2
ACAD_DSTYLE_DIMEXT_ENABLED
 70
     0
  0
APPID
  5
12F0
330
8
100
AcDbSymbolTableRecord
100
AcDbRegAppTableRecord
  2
ACAD_DSTYLE_DIM_LINETYPE
 70
     0
  0
APPID
  5
12F1
330
8
100
AcDbSymbolTableRecord
100
AcDbRegAppTableRecord
  2
ACAD_DSTYLE_DIM_EXT1_LINETYPE
 70
     0
  0
APPID
  5
12F2
330
8
100
AcDbSymbolTableRecord
100
AcDbRegAppTableRecord
  2
ACAD_DSTYLE_DIM_EXT2_LINETYPE
 70
     0
  0
APPID
  5
13AE
330
8
100
AcDbSymbolTableRecord
100
AcDbRegAppTableRecord
  2
ACAD_DSTYLE_DIMJOGGED_JOGANGLE_SYMBOL
 70
     0
  0
APPID
  5
1832
330
8
100
AcDbSymbolTableRecord
100
AcDbRegAppTableRecord
  2
ACAD_DSTYLE_DIMARC_LENGTH_SYMBOL
 70
     0
  0
ENDTAB
  0
TABLE
  2
DIMSTYLE
  5
9
330
0
100
AcDbSymbolTable
 70
     3
100
AcDbDimStyleTable
 71
     1
340
18
  0
DIMSTYLE
105
18
330
9
100
AcDbSymbolTableRecord
100
AcDbDimStyleTableRecord
  2
Standard
 70
     0
340
17
  0
DIMSTYLE
105
385
330
9
100
AcDbSymbolTableRecord
100
AcDbDimStyleTableRecord
  2
ISO-25
 70
     0
 41
2.5
 42
0.625
 43
3.75
 44
1.25
 73
     0
 74
     0
 77
     1
 78
     8
140
2.5
141
2.5
143
0.03937007874016
147
0.625
171
     3
172
     1
271
     2
272
     2
274
     3
278
    44
283
     0
284
     8
340
17
  0
DIMSTYLE
105
386
330
9
100
AcDbSymbolTableRecord
100
AcDbDimStyleTableRecord
  2
Annotative
 70
     0
 40
0.0
 41
2.5
 42
0.625
 43
3.75
 44
1.25
 73
     0
 74
     0
 77
     1
 78
     8
140
2.5
141
2.5
143
0.03937007874016
147
0.625
171
     3
172
     1
271
     2
272
     2
274
     3
278
    44
283
     0
284
     8
340
17
1001
AcadAnnotative
1000
AnnotativeData
1002
{
1070
     1
1070
     1
1002
}
1001
ACAD_DSTYLE_DIMJAG
1070
   388
1040
1.5
1001
ACAD_DSTYLE_DIMTALN
1070
   392
1070
     0
  0
ENDTAB
  0
TABLE
  2
BLOCK_RECORD
  5
1
330
0
100
AcDbSymbolTable
 70
    10
  0
BLOCK_RECORD
  5
A
102
{ACAD_XDICTIONARY
360
DF
102
}
330
1
100
AcDbSymbolTableRecord
100
AcDbBlockTableRecord
  2
*MODEL_SPACE
340
20
  0
BLOCK_RECORD
  5
B
330
1
100
AcDbSymbolTableRecord
100
AcDbBlockTableRecord
  2
*PAPER_SPACE
340
21
  0
BLOCK_RECORD
  5
1172
330
1
100
AcDbSymbolTableRecord
100
AcDbBlockTableRecord
  2
*D0
340
0
  0
BLOCK_RECORD
  5
117F
330
1
100
AcDbSymbolTableRecord
100
AcDbBlockTableRecord
  2
*D1
340
0
  0
BLOCK_RECORD
  5
1187
330
1
100
AcDbSymbolTableRecord
100
AcDbBlockTableRecord
  2
*D2
340
0
  0
BLOCK_RECORD
  5
1195
102
{ACAD_XDICTIONARY
360
11C3
102
}
330
1
100
AcDbSymbolTableRecord
100
AcDbBlockTableRecord
  2
A$C4E510C91
340
0
1001
ACAD
1000
DesignCenter Data
1002
{
1070
     1
1070
     0
1002
}
  0
BLOCK_RECORD
  5
1203
102
{ACAD_XDICTIONARY
360
1212
102
}
330
1
100
AcDbSymbolTableRecord
100
AcDbBlockTableRecord
  2
A$C2F79653B
340
0
1001
ACAD
1000
DesignCenter Data
1002
{
1070
     1
1070
     0
1002
}
  0
BLOCK_RECORD
  5
1243
330
1
100
AcDbSymbolTableRecord
100
AcDbBlockTableRecord
  2
*D5
340
0
  0
BLOCK_RECORD
  5
1258
330
1
100
AcDbSymbolTableRecord
100
AcDbBlockTableRecord
  2
*D6
340
0
  0
BLOCK_RECORD
  5
12DF
330
1
100
AcDbSymbolTableRecord
100
AcDbBlockTableRecord
  2
_ArchTick
340
0
  0
BLOCK_RECORD
  5
251F
330
1
100
AcDbSymbolTableRecord
100
AcDbBlockTableRecord
  2
*D8
340
0
  0
BLOCK_RECORD
  5
25C1
330
1
100
AcDbSymbolTableRecord
100
AcDbBlockTableRecord
  2
*D9
340
0
  0
ENDTAB
  0
ENDSEC
  0
SECTION
  2
BLOCKS
  0
BLOCK
  5
D
330
A
100
AcDbEntity
  8
0
100
AcDbBlockBegin
  2
*MODEL_SPACE
 70
     0
 10
0.0
 20
0.0
 30
0.0
  3
*MODEL_SPACE
  1

  0
ENDBLK
  5
E
330
A
100
AcDbEntity
  8
0
100
AcDbBlockEnd
  0
BLOCK
  5
F
330
B
100
AcDbEntity
 67
     1
  8
0
100
AcDbBlockBegin
  2
*PAPER_SPACE
 70
     0
 10
0.0
 20
0.0
 30
0.0
  3
*PAPER_SPACE
  1

  0
ENDBLK
  5
10
330
B
100
AcDbEntity
 67
     1
  8
0
100
AcDbBlockEnd
  0
BLOCK
  5
1173
330
1172
100
AcDbEntity
  8
0
370
     0
100
AcDbBlockBegin
  2
*D0
 70
     1
 10
0.0
 20
0.0
 30
0.0
  3
*D0
  1

  0
LINE
  5
1174
330
1172
100
AcDbEntity
  8
0
  6
Continuous
 62
     0
370
     0
100
AcDbLine
 10
3810.40343133509
 20
358.0689181074331
 30
0.0
 11
3810.40343133509
 21
367.0812873696843
 31
0.0
  0
LINE
  5
1175
330
1172
100
AcDbEntity
  8
0
  6
Continuous
 62
     0
370
     0
100
AcDbLine
 10
3819.40343133509
 20
358.068918107433
 30
0.0
 11
3819.40343133509
 21
367.0812873696843
 31
0.0
  0
LINE
  5
1176
330
1172
100
AcDbEntity
  8
0
  6
Continuous
 62
     0
370
     0
100
AcDbLine
 10
3805.40343133509
 20
366.9012873696843
 30
0.0
 11
3800.403431335091
 21
366.9012873696843
 31
0.0
  0
LINE
  5
1177
330
1172
100
AcDbEntity
  8
0
  6
Continuous
 62
     0
370
     0
100
AcDbLine
 10
3824.40343133509
 20
366.9012873696843
 30
0.0
 11
3829.40343133509
 21
366.9012873696843
 31
0.0
  0
SOLID
  5
1178
330
1172
100
AcDbEntity
  8
0
  6
Continuous
 62
     0
370
     0
100
AcDbTrace
 10
3805.40343133509
 20
367.7346207030177
 30
0.0
 11
3805.40343133509
 21
366.0679540363509
 31
0.0
 12
3810.40343133509
 22
366.9012873696843
 32
0.0
 13
3810.40343133509
 23
366.9012873696843
 33
0.0
  0
SOLID
  5
1179
330
1172
100
AcDbEntity
  8
0
  6
Continuous
 62
     0
370
     0
100
AcDbTrace
 10
3824.40343133509
 20
367.7346207030177
 30
0.0
 11
3824.40343133509
 21
366.0679540363509
 31
0.0
 12
3819.40343133509
 22
366.9012873696843
 32
0.0
 13
3819.40343133509
 23
366.9012873696843
 33
0.0
  0
MTEXT
  5
117A
330
1172
100
AcDbEntity
  8
0
  6
Continuous
 62
     0
370
     0
100
AcDbMText
 10
3851.160098001757
 20
366.9012873696843
 30
0.0
 40
10.0
 41
0.0
 71
     5
 72
     1
  1
\A1;9.0000
 73
     1
 44
1.0
  0
POINT
  5
117B
330
1172
100
AcDbEntity
  8
DEFPOINTS
  6
Continuous
 62
     0
370
     0
100
AcDbPoint
 10
3810.40343133509
 20
358.0064181074331
 30
0.0
  0
POINT
  5
117C
330
1172
100
AcDbEntity
  8
DEFPOINTS
  6
Continuous
 62
     0
370
     0
100
AcDbPoint
 10
3819.40343133509
 20
358.006418107433
 30
0.0
  0
POINT
  5
117D
330
1172
100
AcDbEntity
  8
DEFPOINTS
  6
Continuous
 62
     0
370
     0
100
AcDbPoint
 10
3819.40343133509
 20
366.9012873696843
 30
0.0
  0
ENDBLK
  5
117E
330
1172
100
AcDbEntity
  8
0
370
     0
100
AcDbBlockEnd
  0
BLOCK
  5
1180
330
117F
100
AcDbEntity
  8
0
370
     0
100
AcDbBlockBegin
  2
*D1
 70
     1
 10
0.0
 20
0.0
 30
0.0
  3
*D1
  1

  0
LINE
  5
1181
330
117F
100
AcDbEntity
  8
0
  6
Continuous
 62
     0
370
     0
100
AcDbLine
 10
3482.688000892859
 20
358.0064181074343
 30
0.0
 11
3542.688000892859
 21
358.0064181074332
 31
0.0
  0
MTEXT
  5
1182
330
117F
100
AcDbEntity
  8
0
  6
Continuous
 62
     0
370
     0
100
AcDbMText
 10
3469.264667559526
 20
358.0064181074343
 30
0.0
 40
10.0
 41
0.0
 71
     5
 72
     1
  1
\A1;R65
 73
     1
 44
1.0
  0
SOLID
  5
1183
330
117F
100
AcDbEntity
  8
0
  6
Continuous
 62
     0
370
     0
100
AcDbTrace
 10
3542.688000892859
 20
358.8397514407665
 30
0.0
 11
3542.688000892859
 21
357.1730847740999
 31
0.0
 12
3547.688000892859
 22
358.0064181074331
 32
0.0
 13
3547.688000892859
 23
358.0064181074331
 33
0.0
  0
POINT
  5
1184
330
117F
100
AcDbEntity
  8
DEFPOINTS
  6
Continuous
 62
     0
370
     0
100
AcDbPoint
 10
3547.688000892859
 20
358.0064181074331
 30
0.0
  0
POINT
  5
1185
330
117F
100
AcDbEntity
  8
DEFPOINTS
  6
Continuous
 62
     0
370
     0
100
AcDbPoint
 10
3482.68800089286
 20
358.0064181074342
 30
0.0
  0
ENDBLK
  5
1186
330
117F
100
AcDbEntity
  8
0
370
     0
100
AcDbBlockEnd
  0
BLOCK
  5
1188
330
1187
100
AcDbEntity
  8
0
370
     0
100
AcDbBlockBegin
  2
*D2
 70
     1
 10
0.0
 20
0.0
 30
0.0
  3
*D2
  1

  0
LINE
  5
1189
330
1187
100
AcDbEntity
  8
0
  6
Continuous
 62
     0
370
     0
100
AcDbLine
 10
3558.12550089286
 20
420.006418107433
 30
0.0
 11
3527.658141308469
 21
420.006418107433
 31
0.0
  0
LINE
  5
118A
330
1187
100
AcDbEntity
  8
0
  6
Continuous
 62
     0
370
     0
100
AcDbLine
 10
3558.125500892859
 20
430.0064181074331
 30
0.0
 11
3527.658141308469
 21
430.0064181074331
 31
0.0
  0
LINE
  5
118B
330
1187
100
AcDbEntity
  8
0
  6
Continuous
 62
     0
370
     0
100
AcDbLine
 10
3527.838141308468
 20
422.0064181074331
 30
0.0
 11
3527.838141308468
 21
428.006418107433
 31
0.0
  0
LINE
  5
118C
330
1187
100
AcDbEntity
  8
0
  6
Continuous
 62
     0
370
     0
100
AcDbLine
 10
3527.838141308468
 20
430.0064181074331
 30
0.0
 11
3527.838141308468
 21
464.1929906149126
 31
0.0
  0
LINE
  5
118D
330
1187
100
AcDbEntity
  8
0
  6
Continuous
 62
     0
370
     0
100
AcDbLine
 10
3527.838141308468
 20
464.1929906149126
 30
0.0
 11
3529.83814130847
 21
464.1929906149126
 31
0.0
  0
SOLID
  5
118E
330
1187
100
AcDbEntity
  8
0
  6
Continuous
 62
     0
370
     0
100
AcDbTrace
 10
3527.504807975134
 20
422.0064181074331
 30
0.0
 11
3528.171474641802
 21
422.0064181074331
 31
0.0
 12
3527.838141308468
 22
420.006418107433
 32
0.0
 13
3527.838141308468
 23
420.006418107433
 33
0.0
  0
SOLID
  5
118F
330
1187
100
AcDbEntity
  8
0
  6
Continuous
 62
     0
370
     0
100
AcDbTrace
 10
3527.504807975134
 20
428.006418107433
 30
0.0
 11
3528.171474641802
 21
428.006418107433
 31
0.0
 12
3527.838141308468
 22
430.0064181074331
 32
0.0
 13
3527.838141308468
 23
430.0064181074331
 33
0.0
  0
MTEXT
  5
1190
330
1187
100
AcDbEntity
  8
0
  6
Continuous
 62
     0
370
     0
100
AcDbMText
 10
3548.261474641801
 20
464.1929906149131
 30
0.0
 40
10.0
 41
0.0
 71
     5
 72
     1
  1
\A1;10*10
 73
     1
 44
1.0
  0
POINT
  5
1191
330
1187
100
AcDbEntity
  8
DEFPOINTS
  6
Continuous
 62
     0
370
     0
100
AcDbPoint
 10
3558.188000892859
 20
420.006418107433
 30
0.0
  0
POINT
  5
1192
330
1187
100
AcDbEntity
  8
DEFPOINTS
  6
Continuous
 62
     0
370
     0
100
AcDbPoint
 10
3558.188000892859
 20
430.0064181074331
 30
0.0
  0
POINT
  5
1193
330
1187
100
AcDbEntity
  8
DEFPOINTS
  6
Continuous
 62
     0
370
     0
100
AcDbPoint
 10
3527.838141308468
 20
430.0064181074331
 30
0.0
  0
ENDBLK
  5
1194
330
1187
100
AcDbEntity
  8
0
370
     0
100
AcDbBlockEnd
  0
BLOCK
  5
11C5
330
1195
100
AcDbEntity
  8
0
370
     0
100
AcDbBlockBegin
  2
A$C4E510C91
 70
     0
 10
0.0
 20
0.0
 30
0.0
  3
A$C4E510C91
  1

  0
LINE
  5
1196
330
1195
100
AcDbEntity
  8
0
  6
Continuous
 62
     3
370
     0
100
AcDbLine
 10
32.72309472217376
 20
293.0157171111193
 30
0.0
 11
221.7230947221738
 21
293.0157171111194
 31
0.0
  0
LINE
  5
1197
330
1195
100
AcDbEntity
  8
0
  6
Continuous
 62
     3
370
     0
100
AcDbLine
 10
41.72309472217375
 20
284.0157171111193
 30
0.0
 11
51.72309472217375
 21
284.0157171111193
 31
0.0
  0
LINE
  5
1198
330
1195
100
AcDbEntity
  8
0
  6
Continuous
 62
     3
370
     0
100
AcDbLine
 10
202.7230947221738
 20
284.0157171111193
 30
0.0
 11
212.7230947221737
 21
284.0157171111193
 31
0.0
  0
LINE
  5
1199
330
1195
100
AcDbEntity
  8
0
  6
Continuous
 62
     3
370
     0
100
AcDbLine
 10
41.72309472217375
 20
274.0157171111191
 30
0.0
 11
51.72309472217375
 21
274.0157171111193
 31
0.0
  0
LINE
  5
119A
330
1195
100
AcDbEntity
  8
0
  6
Continuous
 62
     3
370
     0
100
AcDbLine
 10
202.7230947221738
 20
274.0157171111193
 30
0.0
 11
212.7230947221737
 21
274.0157171111191
 31
0.0
  0
LINE
  5
119B
330
1195
100
AcDbEntity
  8
0
  6
Continuous
 62
     3
370
     0
100
AcDbLine
 10
221.7230947221738
 20
293.0157171111193
 30
0.0
 11
221.7230947221738
 21
131.0157171111193
 31
0.0
  0
LINE
  5
119C
330
1195
100
AcDbEntity
  8
0
  6
Continuous
 62
     3
370
     0
100
AcDbLine
 10
212.7230947221737
 20
284.0157171111193
 30
0.0
 11
212.7230947221751
 21
274.0157171111193
 31
0.0
  0
LINE
  5
119D
330
1195
100
AcDbEntity
  8
0
  6
Continuous
 62
     3
370
     0
100
AcDbLine
 10
212.7230947221751
 20
150.0157171111194
 30
0.0
 11
212.7230947221751
 21
140.0157171111194
 31
0.0
  0
LINE
  5
119E
330
1195
100
AcDbEntity
  8
0
  6
Continuous
 62
     3
370
     0
100
AcDbLine
 10
202.7230947221738
 20
284.0157171111193
 30
0.0
 11
202.7230947221738
 21
274.0157171111193
 31
0.0
  0
LINE
  5
119F
330
1195
100
AcDbEntity
  8
0
  6
Continuous
 62
     3
370
     0
100
AcDbLine
 10
202.7230947221738
 20
150.0157171111194
 30
0.0
 11
202.7230947221738
 21
140.0157171111194
 31
0.0
  0
LINE
  5
11A0
330
1195
100
AcDbEntity
  8
0
  6
Continuous
 62
     3
370
     0
100
AcDbLine
 10
221.7230947221738
 20
131.0157171111193
 30
0.0
 11
32.72309472217376
 21
131.0157171111193
 31
0.0
  0
LINE
  5
11A1
330
1195
100
AcDbEntity
  8
0
  6
Continuous
 62
     3
370
     0
100
AcDbLine
 10
212.7230947221751
 20
140.0157171111194
 30
0.0
 11
202.7230947221738
 21
140.0157171111194
 31
0.0
  0
LINE
  5
11A2
330
1195
100
AcDbEntity
  8
0
  6
Continuous
 62
     3
370
     0
100
AcDbLine
 10
51.72309472217375
 20
140.0157171111194
 30
0.0
 11
41.72309472217375
 21
140.0157171111194
 31
0.0
  0
LINE
  5
11A3
330
1195
100
AcDbEntity
  8
0
  6
Continuous
 62
     3
370
     0
100
AcDbLine
 10
212.7230947221751
 20
150.0157171111194
 30
0.0
 11
202.7230947221738
 21
150.0157171111194
 31
0.0
  0
LINE
  5
11A4
330
1195
100
AcDbEntity
  8
0
  6
Continuous
 62
     3
370
     0
100
AcDbLine
 10
51.72309472217375
 20
150.0157171111194
 30
0.0
 11
41.72309472217375
 21
150.0157171111194
 31
0.0
  0
LINE
  5
11A5
330
1195
100
AcDbEntity
  8
0
  6
Continuous
 62
     3
370
     0
100
AcDbLine
 10
32.72309472217376
 20
131.0157171111193
 30
0.0
 11
32.72309472217376
 21
293.0157171111193
 31
0.0
  0
LINE
  5
11A6
330
1195
100
AcDbEntity
  8
0
  6
Continuous
 62
     3
370
     0
100
AcDbLine
 10
41.72309472217375
 20
140.0157171111194
 30
0.0
 11
41.72309472217375
 21
150.0157171111194
 31
0.0
  0
LINE
  5
11A7
330
1195
100
AcDbEntity
  8
0
  6
Continuous
 62
     3
370
     0
100
AcDbLine
 10
41.72309472217375
 20
274.0157171111191
 30
0.0
 11
41.72309472217375
 21
284.0157171111193
 31
0.0
  0
LINE
  5
11A8
330
1195
100
AcDbEntity
  8
0
  6
Continuous
 62
     3
370
     0
100
AcDbLine
 10
51.7230947221733
 20
140.0157171111194
 30
0.0
 11
51.72309472217375
 21
150.0157171111194
 31
0.0
  0
LINE
  5
11A9
330
1195
100
AcDbEntity
  8
0
  6
Continuous
 62
     3
370
     0
100
AcDbLine
 10
51.7230947221733
 20
274.0157171111191
 30
0.0
 11
51.7230947221733
 21
284.0157171111193
 31
0.0
  0
CIRCLE
  5
11AA
330
1195
100
AcDbEntity
  8
0
  6
Continuous
 62
     3
370
     0
100
AcDbCircle
 10
127.2230947221737
 20
212.0157171111193
 30
0.0
 40
65.0
  0
MTEXT
  5
11AB
330
1195
100
AcDbEntity
  8
0
  6
Continuous
370
     0
100
AcDbMText
 10
21.60521426342985
 20
114.3736463664288
 30
0.0
 40
15.0
 41
228.3165831294991
 71
     1
 72
     5
  1
{\fSimSun|b0|i0|c134|p2;A³ß´ç£º\fArial|b1|i0|c0|p34;189*162*10mm}
 73
     1
 44
1.0
  0
LINE
  5
11AC
330
1195
100
AcDbEntity
  8
0
  6
Continuous
 62
     3
370
     0
100
AcDbLine
 10
279.9385251644048
 20
293.0157171111193
 30
0.0
 11
458.9385251644048
 21
293.0157171111193
 31
0.0
  0
LINE
  5
11AD
330
1195
100
AcDbEntity
  8
0
  6
Continuous
 62
     3
370
     0
100
AcDbLine
 10
288.9385251644048
 20
284.0157171111193
 30
0.0
 11
449.9385251644048
 21
284.0157171111193
 31
0.0
  0
LINE
  5
11AE
330
1195
100
AcDbEntity
  8
0
  6
Continuous
 62
     3
370
     0
100
AcDbLine
 10
463.9385251644048
 20
288.0157171111193
 30
0.0
 11
463.9385251644048
 21
136.0157171111194
 31
0.0
  0
ARC
  5
11AF
330
1195
100
AcDbEntity
  8
0
  6
Continuous
 62
     3
370
     0
100
AcDbCircle
 10
458.9385251644048
 20
288.0157171111193
 30
0.0
 40
5.0
100
AcDbArc
 50
0.0
 51
90.0
  0
LINE
  5
11B0
330
1195
100
AcDbEntity
  8
0
  6
Continuous
 62
     3
370
     0
100
AcDbLine
 10
454.9385251644048
 20
279.0157171111193
 30
0.0
 11
454.9385251644057
 21
145.0157171111194
 31
0.0
  0
ARC
  5
11B1
330
1195
100
AcDbEntity
  8
0
  6
Continuous
 62
     3
370
     0
100
AcDbCircle
 10
449.9385251644048
 20
279.0157171111193
 30
0.0
 40
5.0
100
AcDbArc
 50
0.0
 51
90.0
  0
LINE
  5
11B2
330
1195
100
AcDbEntity
  8
0
  6
Continuous
 62
     3
370
     0
100
AcDbLine
 10
458.9385251644038
 20
131.0157171111193
 30
0.0
 11
279.9385251644039
 21
131.0157171111193
 31
0.0
  0
ARC
  5
11B3
330
1195
100
AcDbEntity
  8
0
  6
Continuous
 62
     3
370
     0
100
AcDbCircle
 10
458.9385251644038
 20
136.0157171111194
 30
0.0
 40
5.0
100
AcDbArc
 50
270.0
 51
0.0
  0
LINE
  5
11B4
330
1195
100
AcDbEntity
  8
0
  6
Continuous
 62
     3
370
     0
100
AcDbLine
 10
449.9385251644057
 20
140.0157171111194
 30
0.0
 11
288.9385251644048
 21
140.0157171111194
 31
0.0
  0
ARC
  5
11B5
330
1195
100
AcDbEntity
  8
0
  6
Continuous
 62
     3
370
     0
100
AcDbCircle
 10
449.9385251644057
 20
145.0157171111194
 30
0.0
 40
5.0
100
AcDbArc
 50
270.0
 51
0.0
  0
ARC
  5
11B6
330
1195
100
AcDbEntity
  8
0
  6
Continuous
 62
     3
370
     0
100
AcDbCircle
 10
288.9385251644048
 20
145.0157171111194
 30
0.0
 40
5.0
100
AcDbArc
 50
180.0
 51
270.0
  0
LINE
  5
11B7
330
1195
100
AcDbEntity
  8
0
  6
Continuous
 62
     3
370
     0
100
AcDbLine
 10
274.9385251644039
 20
136.0157171111194
 30
0.0
 11
274.9385251644048
 21
288.0157171111193
 31
0.0
  0
ARC
  5
11B8
330
1195
100
AcDbEntity
  8
0
  6
Continuous
 62
     3
370
     0
100
AcDbCircle
 10
279.9385251644039
 20
136.0157171111194
 30
0.0
 40
5.0
100
AcDbArc
 50
180.0
 51
270.0
  0
ARC
  5
11B9
330
1195
100
AcDbEntity
  8
0
  6
Continuous
 62
     3
370
     0
100
AcDbCircle
 10
279.9385251644048
 20
288.0157171111193
 30
0.0
 40
5.0
100
AcDbArc
 50
90.0
 51
180.0
  0
LINE
  5
11BA
330
1195
100
AcDbEntity
  8
0
  6
Continuous
 62
     3
370
     0
100
AcDbLine
 10
283.9385251644048
 20
145.0157171111194
 30
0.0
 11
283.9385251644048
 21
279.0157171111193
 31
0.0
  0
ARC
  5
11BB
330
1195
100
AcDbEntity
  8
0
  6
Continuous
 62
     3
370
     0
100
AcDbCircle
 10
288.9385251644048
 20
279.0157171111193
 30
0.0
 40
5.0
100
AcDbArc
 50
90.0
 51
180.0
  0
MTEXT
  5
11BC
330
1195
100
AcDbEntity
  8
0
  6
Continuous
370
     0
100
AcDbMText
 10
271.3885442862929
 20
114.3736463664288
 30
0.0
 40
15.0
 41
228.3165831294991
 71
     1
 72
     5
  1
{\fSimSun|b0|i0|c134|p2;B³ß´ç£º\fArial|b1|i0|c0|p34;189*162*45mm}
 73
     1
 44
1.0
  0
MTEXT
  5
11BD
330
1195
100
AcDbEntity
  8
0
  6
Continuous
370
     0
100
AcDbMText
 10
145.7727598455776
 20
62.58456932892542
 30
0.0
 40
15.0
 41
228.3165831294991
 71
     1
 72
     5
  1
{\fSimSun|b0|i0|c134|p2;ABÕ³ºÏ³ß´ç£º\fArial|b1|i0|c0|p34;189*162*55mm}
 73
     1
 44
1.0
  0
DIMENSION
  5
11BE
330
1195
100
AcDbEntity
  8
0
  6
Continuous
370
     0
100
AcDbDimension
  2
*D0
 10
463.9385251644048
 20
220.9105863733705
 30
0.0
 11
495.695191831072
 21
220.9105863733705
 31
0.0
 12
-3355.464906170686
 22
-145.9907009963137
 32
0.0
 71
     5
 42
8.999999999999545
  3
Standard
100
AcDbAlignedDimension
 13
454.9385251644048
 23
212.0157171111193
 33
0.0
 14
463.9385251644048
 24
212.0157171111193
 34
0.0
100
AcDbRotatedDimension
1001
ACAD
1000
DSTYLE
1002
{
1070
    41
1040
5.0
1070
   140
1040
10.0
1070
   278
1070
     0
1070
   371
1070
     0
1070
   372
1070
     0
1002
}
  0
DIMENSION
  5
11BF
330
1195
100
AcDbEntity
  8
0
  6
Continuous
370
     0
100
AcDbDimension
  2
*D1
 10
127.2230947221751
 20
212.0157171111204
 30
0.0
 11
127.2230947221737
 21
212.0157171111205
 31
0.0
 12
-3355.464906170686
 22
-145.9907009963137
 32
0.0
 70
   132
  1
R65
 71
     5
 42
64.99999999999864
  3
Standard
100
AcDbRadialDimension
 15
192.2230947221737
 25
212.0157171111193
 35
0.0
 40
0.0
1001
ACAD_DSTYLE_DIMRADIAL_EXTENSION
1070
   387
1070
     1
1070
   388
1040
0.0
1070
   390
1040
0.0
1001
ACAD
1000
DSTYLE
1002
{
1070
    41
1040
5.0
1070
   140
1040
10.0
1070
   278
1070
     0
1070
   371
1070
     0
1070
   372
1070
     0
1002
}
  0
DIMENSION
  5
11C0
330
1195
100
AcDbEntity
  8
0
  6
Continuous
370
     0
100
AcDbDimension
  2
*D2
 10
172.373235137783
 20
284.0157171111193
 30
0.0
 11
192.7965684711162
 21
318.2022896185994
 31
0.0
 12
-3355.464906170686
 22
-145.9907009963137
 32
0.0
 70
   128
  1
10*10
 71
     5
 42
10.0
  3
Standard
100
AcDbAlignedDimension
 13
202.7230947221738
 23
274.0157171111193
 33
0.0
 14
202.7230947221738
 24
284.0157171111193
 34
0.0
 50
90.0
100
AcDbRotatedDimension
1001
ACAD
1000
DSTYLE
1002
{
1070
    41
1040
2.0
1070
   140
1040
10.0
1070
   278
1070
     0
1070
   371
1070
     0
1070
   372
1070
     0
1002
}
  0
MTEXT
  5
11C1
330
1195
100
AcDbEntity
  8
0
  6
Continuous
370
     0
100
AcDbMText
 10
220.350243788886
 20
325.240615905819
 30
0.0
 40
10.0
 41
228.3165831294991
 71
     1
 72
     5
  1
{\fSimSun|b0|i0|c134|p2;´Ë4´¦È·ÇÐÎ»ÖÃ´ýÈ·¶¨}
 73
     1
 44
1.0
  0
LWPOLYLINE
  5
11C2
330
1195
100
AcDbEntity
  8
0
  6
Continuous
370
     0
100
AcDbPolyline
 90
        4
 70
     1
 43
0.0
 10
-0.000000650498805
 20
335.1289989668691
 10
526.4263717041399
 20
335.1289989668691
 10
526.4263717041399
 20
0.0000002340600531
 10
-0.000000650498805
 20
0.0000002340600531
  0
ENDBLK
  5
11C6
330
1195
100
AcDbEntity
  8
0
370
     0
100
AcDbBlockEnd
  0
BLOCK
  5
1214
330
1203
100
AcDbEntity
  8
0
370
     0
100
AcDbBlockBegin
  2
A$C2F79653B
 70
     0
 10
0.0
 20
0.0
 30
0.0
  3
A$C2F79653B
  1

  0
LINE
  5
1204
330
1203
100
AcDbEntity
  8
CREASE
  6
Continuous
 62
     0
370
    35
100
AcDbLine
 10
20.90917733189508
 20
239.4701208812388
 30
0.0
 11
181.409177331896
 21
239.4701208812388
 31
0.0
  0
LINE
  5
1205
330
1203
100
AcDbEntity
  8
CREASE
  6
\U+00D2\U+00FE\U+00B2\U+00D8\U+00CF\U+00DF
 62
     3
370
    35
100
AcDbLine
 10
20.90917733189508
 20
185.9701208812388
 30
0.0
 11
181.409177331896
 21
185.9701208812388
 31
0.0
  0
LINE
  5
1206
330
1203
100
AcDbEntity
  8
CREASE
  6
\U+00D2\U+00FE\U+00B2\U+00D8\U+00CF\U+00DF
 62
     3
370
    35
100
AcDbLine
 10
20.90917733189508
 20
132.4701208812388
 30
0.0
 11
181.409177331896
 21
132.4701208812388
 31
0.0
  0
LINE
  5
1207
330
1203
100
AcDbEntity
  8
CREASE
  6
Continuous
 62
     0
370
    35
100
AcDbLine
 10
181.409177331896
 20
239.4701208812388
 30
0.0
 11
181.409177331896
 21
185.9701208812388
 31
0.0
  0
LINE
  5
1208
330
1203
100
AcDbEntity
  8
CREASE
  6
Continuous
 62
     0
370
    35
100
AcDbLine
 10
181.409177331896
 20
185.9701208812388
 30
0.0
 11
181.409177331896
 21
132.4701208812388
 31
0.0
  0
LINE
  5
1209
330
1203
100
AcDbEntity
  8
CREASE
  6
Continuous
 62
     0
370
    35
100
AcDbLine
 10
181.409177331896
 20
132.4701208812388
 30
0.0
 11
181.409177331896
 21
79.47012088123878
 31
0.0
  0
LINE
  5
120A
330
1203
100
AcDbEntity
  8
CREASE
  6
Continuous
 62
     0
370
    35
100
AcDbLine
 10
20.90917733189508
 20
239.4701208812388
 30
0.0
 11
20.90917733189508
 21
185.9701208812388
 31
0.0
  0
LINE
  5
120B
330
1203
100
AcDbEntity
  8
CREASE
  6
Continuous
 62
     0
370
    35
100
AcDbLine
 10
20.90917733189508
 20
185.9701208812388
 30
0.0
 11
20.90917733189508
 21
132.4701208812388
 31
0.0
  0
LINE
  5
120C
330
1203
100
AcDbEntity
  8
CREASE
  6
Continuous
 62
     0
370
    35
100
AcDbLine
 10
20.90917733189508
 20
132.4701208812388
 30
0.0
 11
20.90917733189508
 21
79.47012088123878
 31
0.0
  0
LINE
  5
120D
330
1203
100
AcDbEntity
  8
CUT
  6
Continuous
 62
     7
370
    35
100
AcDbLine
 10
20.90917733189508
 20
78.97012088123879
 30
0.0
 11
181.409177331896
 21
78.97012088123879
 31
0.0
  0
LINE
  5
120E
330
1203
100
AcDbEntity
  8
CUT
  6
Continuous
 62
     7
370
    35
100
AcDbLine
 10
20.90917733189508
 20
78.97012088123879
 30
0.0
 11
20.90917733189508
 21
79.47012088123878
 31
0.0
  0
LINE
  5
120F
330
1203
100
AcDbEntity
  8
CUT
  6
Continuous
 62
     7
370
    35
100
AcDbLine
 10
181.409177331896
 20
78.97012088123879
 30
0.0
 11
181.409177331896
 21
79.47012088123878
 31
0.0
  0
MTEXT
  5
1210
330
1203
100
AcDbEntity
  8
0
  6
Continuous
370
     0
100
AcDbMText
 10
18.91996219030079
 20
42.4891148375705
 30
0.0
 40
15.0
 41
340.0094037259342
 71
     1
 72
     5
  1
\A1;E flute(175GA/110G/145GB)
 73
     1
 44
1.0
  0
LWPOLYLINE
  5
1211
330
1203
100
AcDbEntity
  8
0
  6
Continuous
370
     0
100
AcDbPolyline
 90
        4
 70
     1
 43
0.0
 10
-0.0000004401617844
 20
257.4977275336883
 10
367.5210282193257
 20
257.4977275336883
 10
367.5210282193257
 20
0.0000004461834919
 10
-0.0000004401617844
 20
0.0000004461834919
  0
ENDBLK
  5
1215
330
1203
100
AcDbEntity
  8
0
370
     0
100
AcDbBlockEnd
  0
BLOCK
  5
124E
330
1243
100
AcDbEntity
  8
0
370
     0
100
AcDbBlockBegin
  2
*D5
 70
     1
 10
0.0
 20
0.0
 30
0.0
  3
*D5
  1

  0
LINE
  5
2679
330
1243
100
AcDbEntity
  8
0
  6
Continuous
 62
     0
370
     0
100
AcDbLine
 10
4543.187209893238
 20
1308.469514058662
 30
0.0
 11
4543.187209893238
 21
1317.481883320913
 31
0.0
  0
LINE
  5
267A
330
1243
100
AcDbEntity
  8
0
  6
Continuous
 62
     0
370
     0
100
AcDbLine
 10
4552.187209893238
 20
1308.469514058662
 30
0.0
 11
4552.187209893238
 21
1317.481883320913
 31
0.0
  0
LINE
  5
267B
330
1243
100
AcDbEntity
  8
0
  6
Continuous
 62
     0
370
     0
100
AcDbLine
 10
4538.187209893238
 20
1317.301883320913
 30
0.0
 11
4533.187209893237
 21
1317.301883320913
 31
0.0
  0
LINE
  5
267C
330
1243
100
AcDbEntity
  8
0
  6
Continuous
 62
     0
370
     0
100
AcDbLine
 10
4557.187209893238
 20
1317.301883320913
 30
0.0
 11
4562.187209893237
 21
1317.301883320913
 31
0.0
  0
SOLID
  5
267D
330
1243
100
AcDbEntity
  8
0
  6
Continuous
 62
     0
370
     0
100
AcDbTrace
 10
4538.187209893238
 20
1318.135216654246
 30
0.0
 11
4538.187209893238
 21
1316.46854998758
 31
0.0
 12
4543.187209893238
 22
1317.301883320913
 32
0.0
 13
4543.187209893238
 23
1317.301883320913
 33
0.0
  0
SOLID
  5
267E
330
1243
100
AcDbEntity
  8
0
  6
Continuous
 62
     0
370
     0
100
AcDbTrace
 10
4557.187209893238
 20
1318.135216654246
 30
0.0
 11
4557.187209893238
 21
1316.46854998758
 31
0.0
 12
4552.187209893238
 22
1317.301883320913
 32
0.0
 13
4552.187209893238
 23
1317.301883320913
 33
0.0
  0
MTEXT
  5
267F
330
1243
100
AcDbEntity
  8
0
  6
Continuous
 62
     0
370
     0
100
AcDbMText
 10
4584.063650571205
 20
1317.301883320913
 30
0.0
 40
10.0
 41
0.0
 71
     5
 72
     1
  1
\A1;9.0000
 73
     1
 44
1.0
  0
POINT
  5
2680
330
1243
100
AcDbEntity
  8
DEFPOINTS
  6
Continuous
 62
     0
370
     0
100
AcDbPoint
 10
4543.187209893238
 20
1308.407014058662
 30
0.0
  0
POINT
  5
2681
330
1243
100
AcDbEntity
  8
DEFPOINTS
  6
Continuous
 62
     0
370
     0
100
AcDbPoint
 10
4552.187209893238
 20
1308.407014058662
 30
0.0
  0
POINT
  5
2682
330
1243
100
AcDbEntity
  8
DEFPOINTS
  6
Continuous
 62
     0
370
     0
100
AcDbPoint
 10
4552.187209893238
 20
1317.301883320913
 30
0.0
  0
ENDBLK
  5
124F
330
1243
100
AcDbEntity
  8
0
370
     0
100
AcDbBlockEnd
  0
BLOCK
  5
1264
330
1258
100
AcDbEntity
  8
0
370
     0
100
AcDbBlockBegin
  2
*D6
 70
     1
 10
0.0
 20
0.0
 30
0.0
  3
*D6
  1

  0
LINE
  5
2683
330
1258
100
AcDbEntity
  8
0
  6
Continuous
 62
     0
370
     0
100
AcDbLine
 10
4255.882714915521
 20
1345.407014058662
 30
0.0
 11
4246.969027647513
 21
1345.407014058662
 31
0.0
  0
LINE
  5
2684
330
1258
100
AcDbEntity
  8
0
  6
Continuous
 62
     0
370
     0
100
AcDbLine
 10
4255.882714915521
 20
1365.407014058662
 30
0.0
 11
4246.969027647513
 21
1365.407014058662
 31
0.0
  0
LINE
  5
2685
330
1258
100
AcDbEntity
  8
0
  6
Continuous
 62
     0
370
     0
100
AcDbLine
 10
4247.149027647513
 20
1347.407014058662
 30
0.0
 11
4247.149027647513
 21
1363.407014058662
 31
0.0
  0
LINE
  5
2686
330
1258
100
AcDbEntity
  8
0
  6
Continuous
 62
     0
370
     0
100
AcDbLine
 10
4247.149027647513
 20
1365.407014058662
 30
0.0
 11
4247.149027647513
 21
1414.593586566141
 31
0.0
  0
LINE
  5
2687
330
1258
100
AcDbEntity
  8
0
  6
Continuous
 62
     0
370
     0
100
AcDbLine
 10
4247.149027647513
 20
1414.593586566141
 30
0.0
 11
4249.149027647513
 21
1414.593586566141
 31
0.0
  0
SOLID
  5
2688
330
1258
100
AcDbEntity
  8
0
  6
Continuous
 62
     0
370
     0
100
AcDbTrace
 10
4246.815694314181
 20
1347.407014058662
 30
0.0
 11
4247.482360980846
 21
1347.407014058662
 31
0.0
 12
4247.149027647513
 22
1345.407014058662
 32
0.0
 13
4247.149027647513
 23
1345.407014058662
 33
0.0
  0
SOLID
  5
2689
330
1258
100
AcDbEntity
  8
0
  6
Continuous
 62
     0
370
     0
100
AcDbTrace
 10
4246.815694314181
 20
1363.407014058662
 30
0.0
 11
4247.482360980846
 21
1363.407014058662
 31
0.0
 12
4247.149027647513
 22
1365.407014058662
 32
0.0
 13
4247.149027647513
 23
1365.407014058662
 33
0.0
  0
MTEXT
  5
268A
330
1258
100
AcDbEntity
  8
0
  6
Continuous
 62
     0
370
     0
100
AcDbMText
 10
4271.018688664462
 20
1414.593586566142
 30
0.0
 40
10.0
 41
0.0
 71
     5
 72
     1
  1
\A1;20*20
 73
     1
 44
1.0
  0
POINT
  5
268B
330
1258
100
AcDbEntity
  8
DEFPOINTS
  6
Continuous
 62
     0
370
     0
100
AcDbPoint
 10
4255.94521491552
 20
1345.407014058662
 30
0.0
  0
POINT
  5
268C
330
1258
100
AcDbEntity
  8
DEFPOINTS
  6
Continuous
 62
     0
370
     0
100
AcDbPoint
 10
4255.94521491552
 20
1365.407014058662
 30
0.0
  0
POINT
  5
268D
330
1258
100
AcDbEntity
  8
DEFPOINTS
  6
Continuous
 62
     0
370
     0
100
AcDbPoint
 10
4247.149027647513
 20
1365.407014058662
 30
0.0
  0
ENDBLK
  5
1265
330
1258
100
AcDbEntity
  8
0
370
     0
100
AcDbBlockEnd
  0
BLOCK
  5
12E1
330
12DF
100
AcDbEntity
  8
0
370
     0
100
AcDbBlockBegin
  2
_ArchTick
 70
     0
 10
0.0
 20
0.0
 30
0.0
  3
_ArchTick
  1

  0
LWPOLYLINE
  5
12E0
330
12DF
100
AcDbEntity
  8
0
  6
ByBlock
 62
     0
370
     0
100
AcDbPolyline
 90
        2
 70
     0
 43
0.15
 10
-0.5
 20
-0.5
 10
0.5
 20
0.5
  0
ENDBLK
  5
12E2
330
12DF
100
AcDbEntity
  8
0
370
     0
100
AcDbBlockEnd
  0
BLOCK
  5
252B
330
251F
100
AcDbEntity
  8
0
370
     0
100
AcDbBlockBegin
  2
*D8
 70
     1
 10
0.0
 20
0.0
 30
0.0
  3
*D8
  1

  0
LINE
  5
268E
330
251F
100
AcDbEntity
  8
0
  6
Continuous
 62
     0
370
     0
100
AcDbLine
 10
4169.847022684932
 20
1365.407014058662
 30
0.0
 11
4185.067236132963
 21
1365.407014058662
 31
0.0
  0
LINE
  5
268F
330
251F
100
AcDbEntity
  8
0
  6
Continuous
 62
     0
370
     0
100
AcDbLine
 10
4171.216852924606
 20
1389.407014058662
 30
0.0
 11
4185.067236132963
 21
1389.407014058662
 31
0.0
  0
LINE
  5
2690
330
251F
100
AcDbEntity
  8
0
  6
Continuous
 62
     0
370
     0
100
AcDbLine
 10
4184.887236132963
 20
1367.407014058662
 30
0.0
 11
4184.887236132963
 21
1387.407014058662
 31
0.0
  0
LINE
  5
2691
330
251F
100
AcDbEntity
  8
0
  6
Continuous
 62
     0
370
     0
100
AcDbLine
 10
4184.887236132963
 20
1389.407014058662
 30
0.0
 11
4184.887236132963
 21
1414.593586566141
 31
0.0
  0
LINE
  5
2692
330
251F
100
AcDbEntity
  8
0
  6
Continuous
 62
     0
370
     0
100
AcDbLine
 10
4184.887236132963
 20
1414.593586566141
 30
0.0
 11
4186.887236132963
 21
1414.593586566141
 31
0.0
  0
SOLID
  5
2693
330
251F
100
AcDbEntity
  8
0
  6
Continuous
 62
     0
370
     0
100
AcDbTrace
 10
4184.55390279963
 20
1367.407014058662
 30
0.0
 11
4185.220569466296
 21
1367.407014058662
 31
0.0
 12
4184.887236132963
 22
1365.407014058662
 32
0.0
 13
4184.887236132963
 23
1365.407014058662
 33
0.0
  0
SOLID
  5
2694
330
251F
100
AcDbEntity
  8
0
  6
Continuous
 62
     0
370
     0
100
AcDbTrace
 10
4184.55390279963
 20
1387.407014058662
 30
0.0
 11
4185.220569466296
 21
1387.407014058662
 31
0.0
 12
4184.887236132963
 22
1389.407014058662
 32
0.0
 13
4184.887236132963
 23
1389.407014058662
 33
0.0
  0
MTEXT
  5
2695
330
251F
100
AcDbEntity
  8
0
  6
Continuous
 62
     0
370
     0
100
AcDbMText
 10
4195.363676810929
 20
1414.593586566142
 30
0.0
 40
10.0
 41
0.0
 71
     5
 72
     1
  1
\A1;24
 73
     1
 44
1.0
  0
POINT
  5
2696
330
251F
100
AcDbEntity
  8
DEFPOINTS
  6
Continuous
 62
     0
370
     0
100
AcDbPoint
 10
4169.784522684933
 20
1365.407014058662
 30
0.0
  0
POINT
  5
2697
330
251F
100
AcDbEntity
  8
DEFPOINTS
  6
Continuous
 62
     0
370
     0
100
AcDbPoint
 10
4171.154352924606
 20
1389.407014058662
 30
0.0
  0
POINT
  5
2698
330
251F
100
AcDbEntity
  8
DEFPOINTS
  6
Continuous
 62
     0
370
     0
100
AcDbPoint
 10
4184.887236132963
 20
1389.407014058662
 30
0.0
  0
ENDBLK
  5
252C
330
251F
100
AcDbEntity
  8
0
370
     0
100
AcDbBlockEnd
  0
BLOCK
  5
25CC
330
25C1
100
AcDbEntity
  8
0
370
     0
100
AcDbBlockBegin
  2
*D9
 70
     1
 10
0.0
 20
0.0
 30
0.0
  3
*D9
  1

  0
LINE
  5
2699
330
25C1
100
AcDbEntity
  8
0
  6
Continuous
 62
     0
370
     0
100
AcDbLine
 10
4144.971779451007
 20
1396.364536338425
 30
0.0
 11
4144.971779451007
 21
1407.956186319687
 31
0.0
  0
LINE
  5
269A
330
25C1
100
AcDbEntity
  8
0
  6
Continuous
 62
     0
370
     0
100
AcDbLine
 10
4120.971779451006
 20
1396.364536338425
 30
0.0
 11
4120.971779451006
 21
1407.956186319687
 31
0.0
  0
LINE
  5
269B
330
25C1
100
AcDbEntity
  8
0
  6
Continuous
 62
     0
370
     0
100
AcDbLine
 10
4142.971779451007
 20
1407.776186319687
 30
0.0
 11
4141.448220128973
 21
1407.776186319687
 31
0.0
  0
LINE
  5
269C
330
25C1
100
AcDbEntity
  8
0
  6
Continuous
 62
     0
370
     0
100
AcDbLine
 10
4122.971779451007
 20
1407.776186319687
 30
0.0
 11
4124.495338773041
 21
1407.776186319687
 31
0.0
  0
SOLID
  5
269D
330
25C1
100
AcDbEntity
  8
0
  6
Continuous
 62
     0
370
     0
100
AcDbTrace
 10
4142.971779451007
 20
1408.10951965302
 30
0.0
 11
4142.971779451007
 21
1407.442852986354
 31
0.0
 12
4144.971779451007
 22
1407.776186319687
 32
0.0
 13
4144.971779451007
 23
1407.776186319687
 33
0.0
  0
SOLID
  5
269E
330
25C1
100
AcDbEntity
  8
0
  6
Continuous
 62
     0
370
     0
100
AcDbTrace
 10
4122.971779451007
 20
1408.10951965302
 30
0.0
 11
4122.971779451007
 21
1407.442852986354
 31
0.0
 12
4120.971779451006
 22
1407.776186319687
 32
0.0
 13
4120.971779451006
 23
1407.776186319687
 33
0.0
  0
MTEXT
  5
269F
330
25C1
100
AcDbEntity
  8
0
  6
Continuous
 62
     0
370
     0
100
AcDbMText
 10
4132.971779451007
 20
1407.776186319687
 30
0.0
 40
10.0
 41
0.0
 71
     5
 72
     1
  1
\A1;24
 73
     1
 44
1.0
  0
POINT
  5
26A0
330
25C1
100
AcDbEntity
  8
DEFPOINTS
  6
Continuous
 62
     0
370
     0
100
AcDbPoint
 10
4144.971779451007
 20
1396.302036338425
 30
0.0
  0
POINT
  5
26A1
330
25C1
100
AcDbEntity
  8
DEFPOINTS
  6
Continuous
 62
     0
370
     0
100
AcDbPoint
 10
4120.971779451006
 20
1396.302036338425
 30
0.0
  0
POINT
  5
26A2
330
25C1
100
AcDbEntity
  8
DEFPOINTS
  6
Continuous
 62
     0
370
     0
100
AcDbPoint
 10
4120.971779451006
 20
1407.776186319687
 30
0.0
  0
ENDBLK
  5
25CD
330
25C1
100
AcDbEntity
  8
0
370
     0
100
AcDbBlockEnd
  0
ENDSEC
  0
SECTION
  2
ENTITIES
  0
LINE
  5
1038
330
A
100
AcDbEntity
  8
CREASE
  6
Continuous
 62
     3
370
    35
100
AcDbLine
 10
3735.874923755356
 20
1401.318658703556
 30
0.0
 11
3735.87673008047
 21
1253.058963533368
 31
0.0
  0
LINE
  5
1039
330
A
100
AcDbEntity
  8
CREASE
  6
Continuous
 62
     3
370
    35
100
AcDbLine
 10
3735.877244029077
 20
1222.540663980882
 30
0.0
 11
3735.879050354127
 21
1074.280972601471
 31
0.0
  0
LINE
  5
103A
330
A
100
AcDbEntity
  8
CREASE
  6
Continuous
 62
     0
370
    35
100
AcDbLine
 10
3737.876730080753
 20
1253.058963533368
 30
0.0
 11
3737.877244029359
 21
1222.540663980882
 31
0.0
  0
LINE
  5
103B
330
A
100
AcDbEntity
  8
CREASE
  6
Continuous
 62
     3
370
    35
100
AcDbLine
 10
3452.875828835456
 20
1072.780976014054
 30
0.0
 11
3452.875828835456
 21
1402.818653877456
 31
0.0
  0
LINE
  5
103C
330
A
100
AcDbEntity
  8
CREASE
  6
Continuous
 62
     3
370
    35
100
AcDbLine
 10
3735.876091981356
 20
1401.318658313656
 30
0.0
 11
3790.876080443954
 21
1401.299800990055
 31
0.0
  0
LINE
  5
103D
330
A
100
AcDbEntity
  8
CREASE
  6
Continuous
 62
     3
370
    35
100
AcDbLine
 10
3396.876100417255
 20
1075.780738272768
 30
0.0
 11
3396.876100417255
 21
1399.818890944355
 31
0.0
  0
LINE
  5
103E
330
A
100
AcDbEntity
  8
CREASE
  6
Continuous
 62
     3
370
    35
100
AcDbLine
 10
3398.37610645774
 20
1402.81865518218
 30
0.0
 11
3452.875828835456
 21
1402.818653877456
 31
0.0
  0
LINE
  5
103F
330
A
100
AcDbEntity
  8
CREASE
  6
Continuous
 62
     3
370
    35
100
AcDbLine
 10
3111.875785767855
 20
1075.49461046623
 30
0.0
 11
3111.875785767855
 21
1400.105017736447
 31
0.0
  0
LINE
  5
1040
330
A
100
AcDbEntity
  8
CREASE
  6
Continuous
 62
     3
370
    35
100
AcDbLine
 10
3736.876203860556
 20
1460.818950563855
 30
0.0
 11
3451.876061466055
 21
1460.818950563855
 31
0.0
  0
LINE
  5
1041
330
A
100
AcDbEntity
  8
CREASE
  6
Continuous
 62
     3
370
    35
100
AcDbLine
 10
3735.376100853756
 20
1464.318937255255
 30
0.0
 11
3453.376164472856
 21
1464.318937255255
 31
0.0
  0
LINE
  5
1042
330
A
100
AcDbEntity
  8
CREASE
  6
Continuous
 62
     3
370
    35
100
AcDbLine
 10
3735.376102443043
 20
1011.280692657574
 30
0.0
 11
3453.376166062144
 21
1011.280692640441
 31
0.0
  0
LINE
  5
1043
330
A
100
AcDbEntity
  8
CREASE
  6
Continuous
 62
     3
370
    35
100
AcDbLine
 10
3451.876061466055
 20
1014.780679327756
 30
0.0
 11
3736.876203860556
 21
1014.780679327756
 31
0.0
  0
LINE
  5
1044
330
A
100
AcDbEntity
  8
CREASE
  6
Continuous
 62
     3
370
    35
100
AcDbLine
 10
3736.876203860556
 20
1074.280627068056
 30
0.0
 11
3790.876080443954
 21
1074.299484391656
 31
0.0
  0
LINE
  5
1045
330
A
100
AcDbEntity
  8
CREASE
  6
Continuous
 62
     3
370
    35
100
AcDbLine
 10
3398.819922172655
 20
1072.780974719956
 30
0.0
 11
3452.875828835456
 21
1072.780976014056
 31
0.0
  0
LINE
  5
1046
330
A
100
AcDbEntity
  8
CREASE
  6
Continuous
 62
     3
370
    35
100
AcDbLine
 10
3451.876061466055
 20
1070.780752255755
 30
0.0
 11
3571.75078047265
 21
1070.780752255755
 31
0.0
  0
LINE
  5
1047
330
A
100
AcDbEntity
  8
CREASE
  6
Continuous
 62
     3
370
    35
100
AcDbLine
 10
3617.000877388454
 20
1070.780752255756
 30
0.0
 11
3736.876203860556
 21
1070.780752255755
 31
0.0
  0
LINE
  5
1048
330
A
100
AcDbEntity
  8
CREASE
  6
Continuous
 62
     3
370
    35
100
AcDbLine
 10
3735.876091981356
 20
1074.280971577855
 30
0.0
 11
3790.876080443954
 21
1074.299828901456
 31
0.0
  0
LINE
  5
1049
330
A
100
AcDbEntity
  8
CREASE
  6
Continuous
 62
     3
370
    35
100
AcDbLine
 10
3736.876203860556
 20
1401.319002823455
 30
0.0
 11
3790.876080443954
 21
1401.300145499856
 31
0.0
  0
LINE
  5
104A
330
A
100
AcDbEntity
  8
CREASE
  6
Continuous
 62
     3
370
    35
100
AcDbLine
 10
3110.375850579855
 20
1402.818998387255
 30
0.0
 11
3056.875713902288
 21
1402.818998387255
 31
0.0
  0
LINE
  5
104B
330
A
100
AcDbEntity
  8
CUT
  6
Continuous
 62
     7
370
    35
100
AcDbLine
 10
3451.876061466055
 20
1404.818877635755
 30
0.0
 11
3451.876061466055
 21
1460.818950563855
 31
0.0
  0
LINE
  5
104C
330
A
100
AcDbEntity
  8
CUT
  6
Continuous
 62
     7
370
    35
100
AcDbLine
 10
3110.375850579855
 20
1402.818647252285
 30
0.0
 11
3110.375850579855
 21
1432.313522694855
 31
0.0
  0
LINE
  5
104D
330
A
100
AcDbEntity
  8
CUT
  6
Continuous
 62
     7
370
    35
100
AcDbLine
 10
3741.876074236659
 20
1453.318910638154
 30
0.0
 11
3736.876203860556
 21
1446.569102855855
 31
0.0
  0
LINE
  5
104E
330
A
100
AcDbEntity
  8
CUT
  6
Continuous
 62
     7
370
    35
100
AcDbLine
 10
3398.376102833676
 20
1401.318890944355
 30
0.0
 11
3398.376228443108
 21
1453.300476361955
 31
0.0
  0
LINE
  5
104F
330
A
100
AcDbEntity
  8
CUT
  6
Continuous
 62
     7
370
    35
100
AcDbLine
 10
3790.876080443954
 20
1401.299800990055
 30
0.0
 11
3790.876080443954
 21
1074.299828901456
 31
0.0
  0
LINE
  5
1050
330
A
100
AcDbEntity
  8
CUT
  6
Continuous
 62
     7
370
    35
100
AcDbLine
 10
3451.876061466055
 20
1460.818950563855
 30
0.0
 11
3451.876061466055
 21
1404.818877635755
 31
0.0
  0
LINE
  5
1051
330
A
100
AcDbEntity
  8
CUT
  6
Continuous
 62
     7
370
    35
100
AcDbLine
 10
3736.876203860556
 20
1460.818950563855
 30
0.0
 11
3735.376100853756
 21
1464.318937255356
 31
0.0
  0
LINE
  5
1052
330
A
100
AcDbEntity
  8
CUT
  6
Continuous
 62
     7
370
    35
100
AcDbLine
 10
3790.876080443954
 20
1401.300145499856
 30
0.0
 11
3790.876080443954
 21
1453.300053314555
 31
0.0
  0
SPLINE
  5
1053
330
A
100
AcDbEntity
  8
CUT
  6
Continuous
 62
     7
370
    35
100
AcDbSpline
210
0.0
220
0.0
230
1.0
 70
    24
 71
     3
 72
     8
 73
     4
 74
     0
 42
0.0000000001
 43
0.0000000001
 40
0.0
 40
0.0
 40
0.0
 40
0.0
 40
1.0
 40
1.0
 40
1.0
 40
1.0
 10
3077.517127935815
 20
1446.670623091412
 30
0.0
 10
3077.517127935815
 20
1446.670623091412
 30
0.0
 10
3074.17555536548
 20
1443.873548221724
 30
0.0
 10
3074.17555536548
 20
1443.873548221724
 30
0.0
  0
SPLINE
  5
1054
330
A
100
AcDbEntity
  8
CUT
  6
Continuous
 62
     7
370
    35
100
AcDbSpline
210
0.0
220
0.0
230
1.0
 70
     8
 71
     3
 72
     8
 73
     4
 74
     0
 42
0.0000000001
 43
0.0000000001
 40
0.0
 40
0.0
 40
0.0
 40
0.0
 40
1.0
 40
1.0
 40
1.0
 40
1.0
 10
3074.17555536548
 20
1443.873548221724
 30
0.0
 10
3063.852836698411
 20
1434.455339971007
 30
0.0
 10
3057.375880658555
 20
1420.893368137017
 30
0.0
 10
3056.875713902288
 20
1402.818998387254
 30
0.0
  0
SPLINE
  5
1055
330
A
100
AcDbEntity
  8
CUT
  6
Continuous
 62
     7
370
    35
100
AcDbSpline
210
0.0
220
0.0
230
1.0
 70
     8
 71
     3
 72
     8
 73
     4
 74
     0
 42
0.0000000001
 43
0.0000000001
 40
0.0911902105882717
 40
0.0911902105882717
 40
0.0911902105882717
 40
0.0911902105882717
 40
1.0
 40
1.0
 40
1.0
 40
1.0
 10
3395.355016431299
 20
1401.318890944355
 30
0.0
 10
3392.607064363004
 20
1408.387514154352
 30
0.0
 10
3384.230926310578
 20
1446.673034659844
 30
0.0
 10
3384.230926310578
 20
1446.673034659844
 30
0.0
  0
SPLINE
  5
1056
330
A
100
AcDbEntity
  8
CUT
  6
Continuous
 62
     7
370
    35
100
AcDbSpline
210
0.0
220
0.0
230
1.0
 70
     8
 71
     3
 72
     8
 73
     4
 74
     0
 42
0.0000000001
 43
0.0000000001
 40
0.0
 40
0.0
 40
0.0
 40
0.0
 40
1.0
 40
1.0
 40
1.0
 40
1.0
 10
3384.088299263399
 20
1447.054751491427
 30
0.0
 10
3382.608285266577
 20
1450.727225701412
 30
0.0
 10
3379.011603207265
 20
1453.318972744727
 30
0.0
 10
3374.809272962103
 20
1453.318972744727
 30
0.0
  0
SPLINE
  5
1057
330
A
100
AcDbEntity
  8
CUT
  6
Continuous
 62
     7
370
    35
100
AcDbSpline
210
0.0
220
0.0
230
1.0
 70
    24
 71
     3
 72
     8
 73
     4
 74
     0
 42
0.0000000001
 43
0.0000000001
 40
0.0
 40
0.0
 40
0.0
 40
0.0
 40
1.0
 40
1.0
 40
1.0
 40
1.0
 10
3370.046368097753
 20
1453.318972744727
 30
0.0
 10
3370.046368097753
 20
1453.318972744727
 30
0.0
 10
3369.639157542763
 20
1453.318972744727
 30
0.0
 10
3369.639157542763
 20
1453.318972744727
 30
0.0
  0
SPLINE
  5
1058
330
A
100
AcDbEntity
  8
CUT
  6
Continuous
 62
     7
370
    35
100
AcDbSpline
210
0.0
220
0.0
230
1.0
 70
    24
 71
     3
 72
     8
 73
     4
 74
     0
 42
0.0000000001
 43
0.0000000001
 40
0.0
 40
0.0
 40
0.0
 40
0.0
 40
1.0
 40
1.0
 40
1.0
 40
1.0
 10
3374.809272962103
 20
1453.318972744727
 30
0.0
 10
3374.809272962103
 20
1453.318972744727
 30
0.0
 10
3131.746007265397
 20
1453.322417842484
 30
0.0
 10
3131.746007265397
 20
1453.322417842484
 30
0.0
  0
SPLINE
  5
1059
330
A
100
AcDbEntity
  8
CUT
  6
Continuous
 62
     7
370
    35
100
AcDbSpline
210
0.0
220
0.0
230
1.0
 70
     8
 71
     3
 72
     8
 73
     4
 74
     0
 42
0.0000000001
 43
0.0000000001
 40
0.0
 40
0.0
 40
0.0
 40
0.0
 40
1.0
 40
1.0
 40
1.0
 40
1.0
 10
3131.746007265397
 20
1453.322417842484
 30
0.0
 10
3127.543677020235
 20
1453.322417842484
 30
0.0
 10
3123.946994960924
 20
1450.730670799169
 30
0.0
 10
3122.466980964104
 20
1447.058196589184
 30
0.0
  0
SPLINE
  5
105A
330
A
100
AcDbEntity
  8
CUT
  6
Continuous
 62
     7
370
    35
100
AcDbSpline
210
0.0
220
0.0
230
1.0
 70
    24
 71
     3
 72
     8
 73
     4
 74
     0
 42
0.0000000001
 43
0.0000000001
 40
0.0
 40
0.0
 40
0.0
 40
0.0
 40
1.0
 40
1.0
 40
1.0
 40
1.0
 10
3122.466980964104
 20
1447.058196589184
 30
0.0
 10
3122.466980964104
 20
1447.058196589184
 30
0.0
 10
3112.85815365726
 20
1401.318890944355
 30
0.0
 10
3112.85815365726
 20
1401.318890944355
 30
0.0
  0
SPLINE
  5
105B
330
A
100
AcDbEntity
  8
CUT
  6
Continuous
 62
     7
370
    35
100
AcDbSpline
210
0.0
220
0.0
230
1.0
 70
     8
 71
     3
 72
    11
 73
     7
 74
     0
 42
0.0000000001
 43
0.0000000001
 40
0.0
 40
0.0
 40
0.0
 40
0.0
 40
0.5
 40
0.5
 40
0.5
 40
1.0
 40
1.0
 40
1.0
 40
1.0
 10
3110.375850579855
 20
1432.313522694884
 30
0.0
 10
3109.375850579821
 20
1442.254352275481
 30
0.0
 10
3101.316905649508
 20
1450.313469460682
 30
0.0
 10
3088.375731559135
 20
1450.313469460682
 30
0.0
 10
3084.297252578371
 20
1450.313469460682
 30
0.0
 10
3080.535550336453
 20
1448.957134473372
 30
0.0
 10
3077.517127935815
 20
1446.670623091412
 30
0.0
  0
LINE
  5
105C
330
A
100
AcDbEntity
  8
CUT
  6
Continuous
 62
     7
370
    35
100
AcDbLine
 10
3571.75078047265
 20
1073.780752255756
 30
0.0
 11
3617.000877388454
 21
1073.780752255756
 31
0.0
  0
LINE
  5
105D
330
A
100
AcDbEntity
  8
CUT
  6
Continuous
 62
     7
370
    35
100
AcDbLine
 10
3736.876203860556
 20
1014.780679327756
 30
0.0
 11
3735.376102443043
 21
1011.28069404538
 31
0.0
  0
LINE
  5
105E
330
A
100
AcDbEntity
  8
CUT
  6
Continuous
 62
     7
370
    35
100
AcDbLine
 10
3453.376166062144
 20
1011.280692640441
 30
0.0
 11
3451.876061466055
 21
1014.780679327756
 31
0.0
  0
LINE
  5
105F
330
A
100
AcDbEntity
  8
CUT
  6
Continuous
 62
     7
370
    35
100
AcDbLine
 10
3790.876080443954
 20
1074.299484391656
 30
0.0
 11
3790.876080443954
 21
1022.299576576955
 31
0.0
  0
LINE
  5
1060
330
A
100
AcDbEntity
  8
CUT
  6
Continuous
 62
     7
370
    35
100
AcDbLine
 10
3790.876080443954
 20
1022.299576576955
 30
0.0
 11
3741.876074236659
 21
1022.280719253356
 31
0.0
  0
LINE
  5
1061
330
A
100
AcDbEntity
  8
CUT
  6
Continuous
 62
     7
370
    35
100
AcDbLine
 10
3736.876203860556
 20
1014.780679327756
 30
0.0
 11
3736.876203860556
 21
1070.780752255755
 31
0.0
  0
LINE
  5
1062
330
A
100
AcDbEntity
  8
CUT
  6
Continuous
 62
     7
370
    35
100
AcDbLine
 10
3451.876061466055
 20
1070.780752255755
 30
0.0
 11
3451.876061466055
 21
1014.780679327756
 31
0.0
  0
LINE
  5
1063
330
A
100
AcDbEntity
  8
CUT
  6
Continuous
 62
     7
370
    35
100
AcDbLine
 10
3451.876061466055
 20
1014.780679327756
 30
0.0
 11
3451.876061466055
 21
1070.780752255755
 31
0.0
  0
LINE
  5
1064
330
A
100
AcDbEntity
  8
CUT
  6
Continuous
 62
     7
370
    35
100
AcDbLine
 10
3790.876080443954
 20
1453.300053314555
 30
0.0
 11
3741.876074236659
 21
1453.318910638154
 31
0.0
  0
LINE
  5
1065
330
A
100
AcDbEntity
  8
CUT
  6
Continuous
 62
     7
370
    35
100
AcDbLine
 10
3736.876203860556
 20
1460.818950563855
 30
0.0
 11
3736.876203860556
 21
1404.818877635755
 31
0.0
  0
LINE
  5
1066
330
A
100
AcDbEntity
  8
CUT
  6
Continuous
 62
     7
370
    35
100
AcDbLine
 10
3398.376228442697
 20
1453.300304814555
 30
0.0
 11
3446.876308642355
 21
1453.319051467656
 31
0.0
  0
LINE
  5
1067
330
A
100
AcDbEntity
  8
CUT
  6
Continuous
 62
     7
370
    35
100
AcDbLine
 10
3446.876308642355
 20
1453.319051467656
 30
0.0
 11
3451.876163306457
 21
1446.569232046855
 31
0.0
  0
LINE
  5
1068
330
A
100
AcDbEntity
  8
CUT
  6
Continuous
 62
     7
370
    35
100
AcDbLine
 10
3451.876061466055
 20
1404.818877635755
 30
0.0
 11
3452.875828835456
 21
1402.818653877456
 31
0.0
  0
LINE
  5
1069
330
A
100
AcDbEntity
  8
CUT
  6
Continuous
 62
     7
370
    35
100
AcDbLine
 10
3735.876091981356
 20
1401.318658313656
 30
0.0
 11
3736.876203860556
 21
1404.818877635755
 31
0.0
  0
LINE
  5
106A
330
A
100
AcDbEntity
  8
CUT
  6
Continuous
 62
     7
370
    35
100
AcDbLine
 10
3741.876074236659
 20
1022.280719253356
 30
0.0
 11
3736.876203860556
 21
1029.030527035655
 31
0.0
  0
LINE
  5
106B
330
A
100
AcDbEntity
  8
CUT
  6
Continuous
 62
     7
370
    35
100
AcDbLine
 10
3446.876308642355
 20
1022.280578423856
 30
0.0
 11
3451.876163306457
 21
1029.030397844656
 31
0.0
  0
LINE
  5
106C
330
A
100
AcDbEntity
  8
CUT
  6
Continuous
 62
     7
370
    35
100
AcDbLine
 10
3451.876061466055
 20
1070.780752255755
 30
0.0
 11
3452.875828835456
 21
1072.780976014056
 31
0.0
  0
LINE
  5
106D
330
A
100
AcDbEntity
  8
CUT
  6
Continuous
 62
     7
370
    35
100
AcDbLine
 10
3735.876091981356
 20
1074.280971577855
 30
0.0
 11
3736.876203860556
 21
1070.780752255755
 31
0.0
  0
LINE
  5
106E
330
A
100
AcDbEntity
  8
CUT
  6
Continuous
 62
     7
370
    35
100
AcDbLine
 10
3453.376164472856
 20
1464.318937255356
 30
0.0
 11
3451.876061466055
 21
1460.818950563855
 31
0.0
  0
LINE
  5
106F
330
A
100
AcDbEntity
  8
0
  6
Continuous
370
     0
100
AcDbLine
 10
3571.75078047265
 20
1070.780752255755
 30
0.0
 11
3617.000877388454
 21
1070.780752255754
 31
0.0
  0
LINE
  5
1070
330
A
100
AcDbEntity
  8
0
  6
Continuous
 62
     3
370
     0
100
AcDbLine
 10
3112.858153657258
 20
1401.318890944355
 30
0.0
 11
3395.355016431299
 21
1401.318890944355
 31
0.0
  0
ARC
  5
1071
330
A
100
AcDbEntity
  8
0
  6
Continuous
370
     0
100
AcDbCircle
 10
3396.865559632489
 20
1401.329434162526
 30
0.0
 40
1.510579995268718
100
AcDbArc
 50
270.3998115843287
 51
359.6000961152241
  0
ARC
  5
1072
330
A
100
AcDbEntity
  8
0
  6
Continuous
370
     0
100
AcDbCircle
 10
3397.823416449995
 20
1402.300754606487
 30
0.0
 40
2.656511792425376
100
AcDbArc
 50
201.6913427297129
 51
249.1083727393837
  0
LINE
  5
1073
330
A
100
AcDbEntity
  8
0
  6
Continuous
370
     0
100
AcDbLine
 10
3110.375850579855
 20
1402.818647252286
 30
0.0
 11
3110.375850579855
 21
1401.318890944355
 31
0.0
  0
ARC
  5
1074
330
A
100
AcDbEntity
  8
0
  6
Continuous
370
     0
100
AcDbCircle
 10
3111.617002118557
 20
1401.318890944355
 30
0.0
 40
1.24115153870133
100
AcDbArc
 50
180.0
 51
282.0346306138984
  0
ARC
  5
1075
330
A
100
AcDbEntity
  8
0
  6
Continuous
370
     0
100
AcDbCircle
 10
3110.962179702943
 20
1401.848828099379
 30
0.0
 40
1.968641822098014
100
AcDbArc
 50
297.6506569908125
 51
344.3839736231291
  0
LINE
  5
1076
330
A
100
AcDbEntity
  8
CREASE
  6
Continuous
 62
     3
370
    35
100
AcDbLine
 10
3398.376107520172
 20
1072.780974242448
 30
0.0
 11
3452.875829897887
 21
1072.780976014055
 31
0.0
  0
LINE
  5
1077
330
A
100
AcDbEntity
  8
CUT
  6
Continuous
 62
     7
370
    35
100
AcDbLine
 10
3110.375851642289
 20
1072.780980716001
 30
0.0
 11
3110.375851894963
 21
1043.286105273431
 31
0.0
  0
LINE
  5
1078
330
A
100
AcDbEntity
  8
CUT
  6
Continuous
 62
     7
370
    35
100
AcDbLine
 10
3398.376103883263
 20
1074.280738480273
 30
0.0
 11
3398.376229938004
 21
1022.299153062673
 31
0.0
  0
SPLINE
  5
1079
330
A
100
AcDbEntity
  8
CUT
  6
Continuous
 62
     7
370
    35
100
AcDbSpline
210
0.0
220
0.0
230
1.0
 70
    24
 71
     3
 72
     8
 73
     4
 74
     0
 42
0.0000000001
 43
0.0000000001
 40
0.0
 40
0.0
 40
0.0
 40
0.0
 40
1.0
 40
1.0
 40
1.0
 40
1.0
 10
3077.517129373914
 20
1028.929004595383
 30
0.0
 10
3077.517129373914
 20
1028.929004595383
 30
0.0
 10
3074.175556779617
 20
1031.726079436445
 30
0.0
 10
3074.175556779617
 20
1031.726079436445
 30
0.0
  0
SPLINE
  5
107A
330
A
100
AcDbEntity
  8
CUT
  6
Continuous
 62
     7
370
    35
100
AcDbSpline
210
0.0
220
0.0
230
1.0
 70
     8
 71
     3
 72
     8
 73
     4
 74
     0
 42
0.0000000001
 43
0.0000000001
 40
0.0
 40
0.0
 40
0.0
 40
0.0
 40
1.0
 40
1.0
 40
1.0
 40
1.0
 10
3074.175556779617
 20
1031.726079436445
 30
0.0
 10
3063.852838031867
 20
1041.144287598731
 30
0.0
 10
3057.375881875828
 20
1054.706259377235
 30
0.0
 10
3056.875713902288
 20
1072.780629126973
 30
0.0
  0
SPLINE
  5
107B
330
A
100
AcDbEntity
  8
CUT
  6
Continuous
 62
     7
370
    35
100
AcDbSpline
210
0.0
220
0.0
230
1.0
 70
     8
 71
     3
 72
    11
 73
     7
 74
     0
 42
0.0000000001
 43
0.0000000001
 40
0.0
 40
0.0
 40
0.0
 40
0.0
 40
0.5
 40
0.5
 40
0.5
 40
1.0
 40
1.0
 40
1.0
 40
1.0
 10
3110.375851894963
 20
1043.286105273402
 30
0.0
 10
3109.375851980086
 20
1033.345275684239
 30
0.0
 10
3101.316907118814
 20
1025.286158429999
 30
0.0
 10
3088.37573302844
 20
1025.286158319136
 30
0.0
 10
3084.297254047678
 20
1025.286158284197
 30
0.0
 10
3080.53555179414
 20
1026.642493239281
 30
0.0
 10
3077.517129373914
 20
1028.929004595383
 30
0.0
  0
LINE
  5
107C
330
A
100
AcDbEntity
  8
CUT
  6
Continuous
 62
     7
370
    35
100
AcDbLine
 10
3398.376229937588
 20
1022.299324610074
 30
0.0
 11
3446.876310137409
 21
1022.280578372459
 31
0.0
  0
LINE
  5
107D
330
A
100
AcDbEntity
  8
0
  6
Continuous
 62
     3
370
     0
100
AcDbLine
 10
3112.858154706842
 20
1074.280737045196
 30
0.0
 11
3395.355017480885
 21
1074.280738454391
 31
0.0
  0
ARC
  5
107E
330
A
100
AcDbEntity
  8
0
  6
Continuous
370
     0
100
AcDbCircle
 10
3396.865560682164
 20
1074.270195249162
 30
0.0
 40
1.510579995268718
100
AcDbArc
 50
0.3999043755878003
 51
89.60018890650934
  0
ARC
  5
107F
330
A
100
AcDbEntity
  8
0
  6
Continuous
370
     0
100
AcDbCircle
 10
3397.228896361197
 20
1073.90175253354
 30
0.0
 40
1.911819130116884
100
AcDbArc
 50
100.6339427206488
 51
168.5663427918618
  0
LINE
  5
1080
330
A
100
AcDbEntity
  8
0
  6
Continuous
370
     0
100
AcDbLine
 10
3110.375851642289
 20
1072.780980716001
 30
0.0
 11
3110.37585162944
 21
1074.280737023931
 31
0.0
  0
ARC
  5
1081
330
A
100
AcDbEntity
  8
0
  6
Continuous
370
     0
100
AcDbCircle
 10
3111.617003168141
 20
1074.280737034563
 30
0.0
 40
1.24115153870133
100
AcDbArc
 50
77.96536987692833
 51
180.000000490826
  0
ARC
  5
1082
330
A
100
AcDbEntity
  8
0
  6
Continuous
370
     0
100
AcDbCircle
 10
3110.962180757067
 20
1073.75079987393
 30
0.0
 40
1.968641822098014
100
AcDbArc
 50
15.61602686770605
 51
62.3493435000257
  0
LINE
  5
1083
330
A
100
AcDbEntity
  8
CUT
  6
Continuous
 62
     7
370
    35
100
AcDbLine
 10
3735.376102443043
 20
1011.28069404538
 30
0.0
 11
3735.376102914214
 21
956.2803281109797
 31
0.0
  0
LINE
  5
1084
330
A
100
AcDbEntity
  8
CUT
  6
Continuous
 62
     7
370
    35
100
AcDbLine
 10
3571.751085781073
 20
956.2803271886892
 30
0.0
 11
3454.376166533312
 21
956.2803267146078
 31
0.0
  0
LINE
  5
1085
330
A
100
AcDbEntity
  8
CUT
  6
Continuous
 62
     7
370
    35
100
AcDbLine
 10
3453.376166533312
 20
956.2803267060411
 30
0.0
 11
3453.376166062144
 21
1011.280692640441
 31
0.0
  0
LINE
  5
1086
330
A
100
AcDbEntity
  8
CUT
  6
Continuous
 62
     7
370
    35
100
AcDbLine
 10
3617.001182696878
 20
956.2803274192201
 30
0.0
 11
3615.751085781073
 21
953.7803274085108
 31
0.0
  0
LINE
  5
1087
330
A
100
AcDbEntity
  8
CUT
  6
Continuous
 62
     7
370
    35
100
AcDbLine
 10
3573.001182739793
 20
953.7803271993984
 30
0.0
 11
3571.751085781073
 21
956.2803271886892
 31
0.0
  0
LINE
  5
1088
330
A
100
AcDbEntity
  8
0
  6
Continuous
370
     0
100
AcDbLine
 10
3573.001182724115
 20
953.7803272307527
 30
0.0
 11
3615.751085781073
 21
953.7803275969782
 31
0.0
  0
LINE
  5
1089
330
A
100
AcDbEntity
  8
0
  6
Continuous
370
     0
100
AcDbLine
 10
3056.875713902288
 20
1072.780629126997
 30
0.0
 11
3056.875713902288
 21
1222.540663980882
 31
0.0
  0
LINE
  5
108A
330
A
100
AcDbEntity
  8
0
  6
Continuous
370
     0
100
AcDbLine
 10
3056.875713902288
 20
1253.058963533368
 30
0.0
 11
3056.875713902288
 21
1402.818998387254
 31
0.0
  0
LINE
  5
108B
330
A
100
AcDbEntity
  8
0
  6
Continuous
 62
     3
370
     0
100
AcDbLine
 10
3056.875713902288
 20
1072.780629126997
 30
0.0
 11
3110.37585164229
 21
1072.780629126997
 31
0.0
  0
LINE
  5
108C
330
A
100
AcDbEntity
  8
0
  6
Continuous
370
     0
100
AcDbLine
 10
3617.001182696878
 20
956.2803274192201
 30
0.0
 11
3734.376102914215
 21
956.2803279139465
 31
0.0
  0
LINE
  5
108D
330
A
100
AcDbEntity
  8
0
  6
Continuous
370
     0
100
AcDbLine
 10
3571.75078047265
 20
1070.780752255755
 30
0.0
 11
3571.75078047265
 21
1073.780752255755
 31
0.0
  0
LINE
  5
108E
330
A
100
AcDbEntity
  8
0
  6
Continuous
370
     0
100
AcDbLine
 10
3617.000877388454
 20
1070.780752255755
 30
0.0
 11
3617.000877388454
 21
1073.780752255755
 31
0.0
  0
LINE
  5
108F
330
A
100
AcDbEntity
  8
CREASE
  6
Continuous
 62
     3
370
    35
100
AcDbLine
 10
3451.876060386488
 20
1404.818877627191
 30
0.0
 11
3571.750779393081
 21
1404.818878154044
 31
0.0
  0
LINE
  5
1090
330
A
100
AcDbEntity
  8
CREASE
  6
Continuous
 62
     3
370
    35
100
AcDbLine
 10
3617.000876308885
 20
1404.818878541687
 30
0.0
 11
3736.876202780987
 21
1404.818879057832
 31
0.0
  0
LINE
  5
1091
330
A
100
AcDbEntity
  8
CUT
  6
Continuous
 62
     7
370
    35
100
AcDbLine
 10
3571.750779418782
 20
1401.818878154043
 30
0.0
 11
3617.000876334586
 21
1401.818878541687
 31
0.0
  0
LINE
  5
1092
330
A
100
AcDbEntity
  8
0
  6
Continuous
370
     0
100
AcDbLine
 10
3571.750779393081
 20
1404.818878154044
 30
0.0
 11
3617.000876308885
 21
1404.818878541688
 31
0.0
  0
LINE
  5
1093
330
A
100
AcDbEntity
  8
CUT
  6
Continuous
 62
     7
370
    35
100
AcDbLine
 10
3735.376100853756
 20
1464.318937255356
 30
0.0
 11
3735.376100853756
 21
1519.319303189756
 31
0.0
  0
LINE
  5
1094
330
A
100
AcDbEntity
  8
CUT
  6
Continuous
 62
     7
370
    35
100
AcDbLine
 10
3571.751084213203
 20
1519.31930322111
 30
0.0
 11
3453.376164472856
 21
1519.319303189224
 31
0.0
  0
LINE
  5
1095
330
A
100
AcDbEntity
  8
CUT
  6
Continuous
 62
     7
370
    35
100
AcDbLine
 10
3453.376164472856
 20
1519.319303189756
 30
0.0
 11
3453.376164472856
 21
1464.318937255356
 31
0.0
  0
LINE
  5
1096
330
A
100
AcDbEntity
  8
CUT
  6
Continuous
 62
     7
370
    35
100
AcDbLine
 10
3617.001181129005
 20
1519.319303378223
 30
0.0
 11
3615.751084191785
 21
1521.819303378223
 31
0.0
  0
LINE
  5
1097
330
A
100
AcDbEntity
  8
CUT
  6
Continuous
 62
     7
370
    35
100
AcDbLine
 10
3573.001181150505
 20
1521.81930322111
 30
0.0
 11
3571.751084213203
 21
1519.31930322111
 31
0.0
  0
LINE
  5
1098
330
A
100
AcDbEntity
  8
0
  6
Continuous
370
     0
100
AcDbLine
 10
3573.001181134827
 20
1521.819303189755
 30
0.0
 11
3615.751084191785
 21
1521.819303189755
 31
0.0
  0
LINE
  5
1099
330
A
100
AcDbEntity
  8
0
  6
Continuous
370
     0
100
AcDbLine
 10
3617.001181129005
 20
1519.319303378223
 30
0.0
 11
3735.376100853756
 21
1519.319303189756
 31
0.0
  0
LINE
  5
109A
330
A
100
AcDbEntity
  8
0
  6
Continuous
370
     0
100
AcDbLine
 10
3571.750779393081
 20
1404.818878154044
 30
0.0
 11
3571.750779418782
 21
1401.818878154044
 31
0.0
  0
LINE
  5
109B
330
A
100
AcDbEntity
  8
0
  6
Continuous
370
     0
100
AcDbLine
 10
3617.000876308885
 20
1404.818878541688
 30
0.0
 11
3617.000876334586
 21
1401.818878541688
 31
0.0
  0
SPLINE
  5
109C
330
A
100
AcDbEntity
  8
CUT
  6
Continuous
 62
     7
370
    35
100
AcDbSpline
210
0.0
220
0.0
230
1.0
 70
     8
 71
     3
 72
     8
 73
     4
 74
     0
 42
0.0000000001
 43
0.0000000001
 40
0.0911902105882717
 40
0.0911902105882717
 40
0.0911902105882717
 40
0.0911902105882717
 40
1.0
 40
1.0
 40
1.0
 40
1.0
 10
3395.355016431299
 20
1074.280737258322
 30
0.0
 10
3392.607064363004
 20
1067.212114048326
 30
0.0
 10
3384.230926310578
 20
1028.926593542834
 30
0.0
 10
3384.230926310578
 20
1028.926593542834
 30
0.0
  0
SPLINE
  5
109D
330
A
100
AcDbEntity
  8
CUT
  6
Continuous
 62
     7
370
    35
100
AcDbSpline
210
0.0
220
0.0
230
1.0
 70
     8
 71
     3
 72
     8
 73
     4
 74
     0
 42
0.0000000001
 43
0.0000000001
 40
0.0
 40
0.0
 40
0.0
 40
0.0
 40
1.0
 40
1.0
 40
1.0
 40
1.0
 10
3384.088299263399
 20
1028.54487671125
 30
0.0
 10
3382.608285266577
 20
1024.872402501265
 30
0.0
 10
3379.011603207265
 20
1022.28065545795
 30
0.0
 10
3374.809272962103
 20
1022.28065545795
 30
0.0
  0
SPLINE
  5
109E
330
A
100
AcDbEntity
  8
CUT
  6
Continuous
 62
     7
370
    35
100
AcDbSpline
210
0.0
220
0.0
230
1.0
 70
    24
 71
     3
 72
     8
 73
     4
 74
     0
 42
0.0000000001
 43
0.0000000001
 40
0.0
 40
0.0
 40
0.0
 40
0.0
 40
1.0
 40
1.0
 40
1.0
 40
1.0
 10
3370.046368097753
 20
1022.28065545795
 30
0.0
 10
3370.046368097753
 20
1022.28065545795
 30
0.0
 10
3369.639157542763
 20
1022.28065545795
 30
0.0
 10
3369.639157542763
 20
1022.28065545795
 30
0.0
  0
SPLINE
  5
109F
330
A
100
AcDbEntity
  8
CUT
  6
Continuous
 62
     7
370
    35
100
AcDbSpline
210
0.0
220
0.0
230
1.0
 70
    24
 71
     3
 72
     8
 73
     4
 74
     0
 42
0.0000000001
 43
0.0000000001
 40
0.0
 40
0.0
 40
0.0
 40
0.0
 40
1.0
 40
1.0
 40
1.0
 40
1.0
 10
3374.809272962103
 20
1022.28065545795
 30
0.0
 10
3374.809272962103
 20
1022.28065545795
 30
0.0
 10
3131.746007265397
 20
1022.277210360194
 30
0.0
 10
3131.746007265397
 20
1022.277210360194
 30
0.0
  0
SPLINE
  5
10A0
330
A
100
AcDbEntity
  8
CUT
  6
Continuous
 62
     7
370
    35
100
AcDbSpline
210
0.0
220
0.0
230
1.0
 70
     8
 71
     3
 72
     8
 73
     4
 74
     0
 42
0.0000000001
 43
0.0000000001
 40
0.0
 40
0.0
 40
0.0
 40
0.0
 40
1.0
 40
1.0
 40
1.0
 40
1.0
 10
3131.746007265397
 20
1022.277210360194
 30
0.0
 10
3127.543677020235
 20
1022.277210360194
 30
0.0
 10
3123.946994960924
 20
1024.868957403509
 30
0.0
 10
3122.466980964104
 20
1028.541431613494
 30
0.0
  0
SPLINE
  5
10A1
330
A
100
AcDbEntity
  8
CUT
  6
Continuous
 62
     7
370
    35
100
AcDbSpline
210
0.0
220
0.0
230
1.0
 70
    24
 71
     3
 72
     8
 73
     4
 74
     0
 42
0.0000000001
 43
0.0000000001
 40
0.0
 40
0.0
 40
0.0
 40
0.0
 40
1.0
 40
1.0
 40
1.0
 40
1.0
 10
3122.466980964104
 20
1028.541431613494
 30
0.0
 10
3122.466980964104
 20
1028.541431613494
 30
0.0
 10
3112.85815365726
 20
1074.280737258322
 30
0.0
 10
3112.85815365726
 20
1074.280737258322
 30
0.0
  0
LINE
  5
10A2
330
A
100
AcDbEntity
  8
CUT
100
AcDbLine
 10
3055.875713902289
 20
1222.540663980882
 30
0.0
 11
3058.875713902288
 21
1222.540663980882
 31
0.0
  0
LINE
  5
10A3
330
A
100
AcDbEntity
  8
CUT
100
AcDbLine
 10
3055.875713902289
 20
1253.058963533368
 30
0.0
 11
3058.875713902288
 21
1253.058963533368
 31
0.0
  0
ARC
  5
10A4
330
A
100
AcDbEntity
  8
CUT
100
AcDbCircle
 10
3050.875713902288
 20
1228.631717380151
 30
0.0
 40
5.0
100
AcDbArc
 50
180.0
 51
242.4678144876458
  0
ARC
  5
10A5
330
A
100
AcDbEntity
  8
CUT
100
AcDbCircle
 10
3050.875713902288
 20
1246.9679101341
 30
0.0
 40
4.999999999999903
100
AcDbArc
 50
117.5321855123542
 51
179.9999999999935
  0
LINE
  5
10A6
330
A
100
AcDbEntity
  8
CUT
100
AcDbLine
 10
3045.875713902288
 20
1246.9679101341
 30
0.0
 11
3045.875713902288
 21
1228.631717380151
 31
0.0
  0
LINE
  5
10A7
330
A
100
AcDbEntity
  8
CUT
100
AcDbLine
 10
3053.592322322201
 20
1221.577040923571
 30
0.0
 11
3048.564479839162
 21
1224.197960834576
 31
0.0
  0
ARC
  5
10A8
330
A
100
AcDbEntity
  8
CUT
100
AcDbCircle
 10
3054.099394582554
 20
1223.5116927586
 30
0.0
 40
2.000000000000019
100
AcDbArc
 50
255.3131387066865
 51
322.4314079711988
  0
LINE
  5
10A9
330
A
100
AcDbEntity
  8
CUT
100
AcDbLine
 10
3053.592322322201
 20
1254.02258659068
 30
0.0
 11
3048.564479839162
 21
1251.401666679675
 31
0.0
  0
ARC
  5
10AA
330
A
100
AcDbEntity
  8
CUT
100
AcDbCircle
 10
3054.099394582554
 20
1252.087934755651
 30
0.0
 40
2.000000000000019
100
AcDbArc
 50
37.56859202877857
 51
104.6868612933135
  0
LINE
  5
10AB
330
A
100
AcDbEntity
  8
0
  6
Continuous
 62
     3
370
     0
100
AcDbLine
 10
3058.875713902288
 20
1253.058963533368
 30
0.0
 11
3058.875713902288
 21
1222.540663980882
 31
0.0
  0
LINE
  5
10AC
330
A
100
AcDbEntity
  8
0
  6
Continuous
370
     0
100
AcDbLine
 10
3735.87673008047
 20
1253.058963533368
 30
0.0
 11
3735.877244029077
 21
1222.540663980882
 31
0.0
  0
LINE
  5
10AD
330
A
100
AcDbEntity
  8
0
  6
Continuous
370
     0
100
AcDbLine
 10
3737.876730080753
 20
1253.058963533368
 30
0.0
 11
3735.876730081037
 21
1253.058929852028
 31
0.0
  0
LINE
  5
10AE
330
A
100
AcDbEntity
  8
0
  6
Continuous
370
     0
100
AcDbLine
 10
3737.877244029359
 20
1222.540663980882
 30
0.0
 11
3735.877244029644
 21
1222.540630299543
 31
0.0
  0
ENDSEC
  0
SECTION
  2
OBJECTS
  0
DICTIONARY
  5
19
330
0
100
AcDbDictionary
281
     1
  3
ACAD_COLOR
350
A6
  3
ACAD_GROUP
350
1A
  3
ACAD_LAYOUT
350
1E
  3
ACAD_MATERIAL
350
7C
  3
ACAD_MLEADERSTYLE
350
CB
  3
ACAD_MLINESTYLE
350
1B
  3
ACAD_PLOTSETTINGS
350
22
  3
ACAD_PLOTSTYLENAME
350
1F
  3
ACAD_SCALELIST
350
A9
  3
ACAD_TABLESTYLE
350
A7
  3
ACAD_VISUALSTYLE
350
95
  3
ACAD_WIPEOUT_VARS
350
23
  3
ACDB_RECOMPOSE_DATA
350
12D
  3
AcDbVariableDictionary
350
124
  3
ASE_INDEX_DICTIONARY
350
27D0
  0
DICTIONARY
  5
10C
330
14
100
AcDbDictionary
280
     1
281
     1
  3
ADSK_XREC_LAYER_RECONCILED
360
10D
  0
DICTIONARY
  5
10E
330
2F
100
AcDbDictionary
280
     1
281
     1
  3
ADSK_XREC_LAYER_RECONCILED
360
10F
  0
DICTIONARY
  5
110
330
30
100
AcDbDictionary
280
     1
281
     1
  3
ADSK_XREC_LAYER_RECONCILED
360
111
  0
DICTIONARY
  5
112
330
31
100
AcDbDictionary
280
     1
281
     1
  3
ADSK_XREC_LAYER_RECONCILED
360
113
  0
DICTIONARY
  5
114
330
32
100
AcDbDictionary
280
     1
281
     1
  3
ADSK_XREC_LAYER_RECONCILED
360
115
  0
DICTIONARY
  5
116
330
33
100
AcDbDictionary
280
     1
281
     1
  3
ADSK_XREC_LAYER_RECONCILED
360
117
  0
DICTIONARY
  5
118
330
34
100
AcDbDictionary
280
     1
281
     1
  3
ADSK_XREC_LAYER_RECONCILED
360
119
  0
DICTIONARY
  5
11A
330
35
100
AcDbDictionary
280
     1
281
     1
  3
ADSK_XREC_LAYER_RECONCILED
360
11B
  0
DICTIONARY
  5
11C
330
36
100
AcDbDictionary
280
     1
281
     1
  3
ADSK_XREC_LAYER_RECONCILED
360
11D
  0
DICTIONARY
  5
11E
330
38
100
AcDbDictionary
280
     1
281
     1
  3
ADSK_XREC_LAYER_RECONCILED
360
11F
  0
DICTIONARY
  5
120
330
39
100
AcDbDictionary
280
     1
281
     1
  3
ADSK_XREC_LAYER_RECONCILED
360
121
  0
DICTIONARY
  5
122
330
3B
100
AcDbDictionary
280
     1
281
     1
  3
ADSK_XREC_LAYER_RECONCILED
360
123
  0
DICTIONARY
  5
384
330
383
100
AcDbDictionary
280
     1
281
     1
  0
DICTIONARY
  5
FB7
330
FB6
100
AcDbDictionary
280
     1
281
     1
  0
DICTIONARY
  5
DF
330
A
100
AcDbDictionary
280
     1
281
     1
  3
ACAD_SORTENTS
360
E0
  0
DICTIONARY
  5
11C3
330
1195
100
AcDbDictionary
280
     1
281
     1
  3
ACAD_SORTENTS
360
11C4
  0
DICTIONARY
  5
1212
330
1203
100
AcDbDictionary
280
     1
281
     1
  3
ACAD_SORTENTS
360
1213
  0
DICTIONARY
  5
A6
102
{ACAD_REACTORS
330
19
102
}
330
19
100
AcDbDictionary
281
     1
  0
DICTIONARY
  5
1A
102
{ACAD_REACTORS
330
19
102
}
330
19
100
AcDbDictionary
281
     1
  0
DICTIONARY
  5
1E
102
{ACAD_REACTORS
330
19
102
}
330
19
100
AcDbDictionary
281
     1
  3
Layout1
350
21
  3
Model
350
20
  0
DICTIONARY
  5
7C
102
{ACAD_REACTORS
330
19
102
}
330
19
100
AcDbDictionary
281
     1
  3
ByBlock
350
85
  3
ByLayer
350
7D
  3
Global
350
8D
  0
DICTIONARY
  5
CB
102
{ACAD_REACTORS
330
19
102
}
330
19
100
AcDbDictionary
281
     1
  3
Standard
350
CC
  0
DICTIONARY
  5
1B
102
{ACAD_REACTORS
330
19
102
}
330
19
100
AcDbDictionary
281
     1
  3
Standard
350
1C
  0
DICTIONARY
  5
22
102
{ACAD_REACTORS
330
19
102
}
330
19
100
AcDbDictionary
281
     1
  0
ACDBDICTIONARYWDFLT
  5
1F
102
{ACAD_REACTORS
330
19
102
}
330
19
100
AcDbDictionary
281
     1
  3
Normal
350
1D
100
AcDbDictionaryWithDefault
340
1D
  0
DICTIONARY
  5
A9
102
{ACAD_REACTORS
330
19
102
}
330
19
100
AcDbDictionary
281
     1
  3
A0
350
AA
  3
A1
350
AB
  3
A2
350
AC
  3
A3
350
AD
  3
A4
350
AE
  3
A5
350
AF
  3
A6
350
B0
  3
A7
350
B1
  3
A8
350
B2
  3
A9
350
B3
  3
B0
350
B4
  3
B1
350
B5
  3
B2
350
B6
  3
B3
350
B7
  3
B4
350
B8
  3
B5
350
B9
  3
B6
350
BA
  3
B7
350
BB
  3
B8
350
BC
  3
B9
350
BD
  3
C0
350
BE
  3
C1
350
BF
  3
C2
350
C0
  3
C3
350
C1
  3
C4
350
C2
  3
C5
350
C3
  3
C6
350
C4
  3
C7
350
C5
  3
C8
350
C6
  3
C9
350
C7
  3
D0
350
C8
  3
D1
350
C9
  3
D2
350
CA
  0
DICTIONARY
  5
A7
102
{ACAD_REACTORS
330
19
102
}
330
19
100
AcDbDictionary
281
     1
  3
Standard
350
A8
  0
DICTIONARY
  5
95
102
{ACAD_REACTORS
330
19
102
}
330
19
100
AcDbDictionary
281
     1
  3
2dWireframe
350
9B
  3
3D Hidden
350
9D
  3
3dWireframe
350
9C
  3
Basic
350
9A
  3
Brighten
350
A1
  3
ColorChange
350
A5
  3
Conceptual
350
9E
  3
Dim
350
A0
  3
Facepattern
350
A4
  3
Flat
350
96
  3
FlatWithEdges
350
97
  3
Gouraud
350
98
  3
GouraudWithEdges
350
99
  3
Linepattern
350
A3
  3
Realistic
350
9F
  3
Thicken
350
A2
  0
WIPEOUTVARIABLES
  5
23
330
19
100
AcDbWipeoutVariables
 70
     1
  0
XRECORD
  5
12D
102
{ACAD_REACTORS
330
19
102
}
330
19
100
AcDbXrecord
280
     1
 90
        1
330
A8
  0
DICTIONARY
  5
124
102
{ACAD_REACTORS
330
19
102
}
330
19
100
AcDbDictionary
281
     1
  3
CANNOSCALE
350
127
  3
CMLEADERSTYLE
350
126
  3
CTABLESTYLE
350
125
  3
DIMASSOC
350
12A
  3
INDEXCTL
350
129
  3
SORTENTS
350
128
  0
DICTIONARY
  5
27D0
102
{ACAD_REACTORS
330
19
102
}
330
19
100
AcDbDictionary
281
     1
  3
ASEBlockHierarchyIndexRecord
350
27D1
1001
DCO15
1040
1722179138.906
  0
XRECORD
  5
10D
102
{ACAD_REACTORS
330
10C
102
}
330
10C
100
AcDbXrecord
280
     1
290
     1
  0
XRECORD
  5
10F
102
{ACAD_REACTORS
330
10E
102
}
330
10E
100
AcDbXrecord
280
     1
290
     1
  0
XRECORD
  5
111
102
{ACAD_REACTORS
330
110
102
}
330
110
100
AcDbXrecord
280
     1
290
     1
  0
XRECORD
  5
113
102
{ACAD_REACTORS
330
112
102
}
330
112
100
AcDbXrecord
280
     1
290
     1
  0
XRECORD
  5
115
102
{ACAD_REACTORS
330
114
102
}
330
114
100
AcDbXrecord
280
     1
290
     1
  0
XRECORD
  5
117
102
{ACAD_REACTORS
330
116
102
}
330
116
100
AcDbXrecord
280
     1
290
     1
  0
XRECORD
  5
119
102
{ACAD_REACTORS
330
118
102
}
330
118
100
AcDbXrecord
280
     1
290
     1
  0
XRECORD
  5
11B
102
{ACAD_REACTORS
330
11A
102
}
330
11A
100
AcDbXrecord
280
     1
290
     1
  0
XRECORD
  5
11D
102
{ACAD_REACTORS
330
11C
102
}
330
11C
100
AcDbXrecord
280
     1
290
     1
  0
XRECORD
  5
11F
102
{ACAD_REACTORS
330
11E
102
}
330
11E
100
AcDbXrecord
280
     1
290
     1
  0
XRECORD
  5
121
102
{ACAD_REACTORS
330
120
102
}
330
120
100
AcDbXrecord
280
     1
290
     1
  0
XRECORD
  5
123
102
{ACAD_REACTORS
330
122
102
}
330
122
100
AcDbXrecord
280
     1
290
     1
  0
SORTENTSTABLE
  5
E0
102
{ACAD_REACTORS
330
DF
102
}
330
DF
100
AcDbSortentsTable
330
A
331
1085
  5
1085
331
1046
  5
1046
331
108D
  5
108D
331
104E
  5
104E
331
1095
  5
1095
331
1056
  5
1056
331
105E
  5
105E
331
1066
  5
1066
331
109D
  5
109D
331
106E
  5
106E
331
10A5
  5
10A5
331
1076
  5
1076
331
10AD
  5
10AD
331
107E
  5
107E
331
103F
  5
103F
331
1086
  5
1086
331
1047
  5
1047
331
104F
  5
104F
331
108E
  5
108E
331
1057
  5
1057
331
1096
  5
1096
331
105F
  5
105F
331
1067
  5
1067
331
109E
  5
109E
331
106F
  5
106F
331
10A6
  5
10A6
331
1077
  5
1077
331
1038
  5
1038
331
10AE
  5
10AE
331
107F
  5
107F
331
1040
  5
1040
331
1048
  5
1048
331
1087
  5
1087
331
108F
  5
108F
331
1050
  5
1050
331
1097
  5
1097
331
1058
  5
1058
331
1060
  5
1060
331
1068
  5
1068
331
109F
  5
109F
331
1070
  5
1070
331
10A7
  5
10A7
331
1078
  5
1078
331
1039
  5
1039
331
1080
  5
1080
331
1041
  5
1041
331
1088
  5
1088
331
1049
  5
1049
331
1051
  5
1051
331
1090
  5
1090
331
1059
  5
1059
331
1061
  5
1061
331
1098
  5
1098
331
1069
  5
1069
331
10A0
  5
10A0
331
1071
  5
1071
331
10A8
  5
10A8
331
1079
  5
1079
331
103A
  5
103A
331
1081
  5
1081
331
1042
  5
1042
331
104A
  5
104A
331
1089
  5
1089
331
1052
  5
1052
331
1091
  5
1091
331
105A
  5
105A
331
1062
  5
1062
331
1099
  5
1099
331
106A
  5
106A
331
10A1
  5
10A1
331
1072
  5
1072
331
10A9
  5
10A9
331
107A
  5
107A
331
103B
  5
103B
331
1043
  5
1043
331
1082
  5
1082
331
108A
  5
108A
331
104B
  5
104B
331
1092
  5
1092
331
1053
  5
1053
331
105B
  5
105B
331
1063
  5
1063
331
109A
  5
109A
331
106B
  5
106B
331
10A2
  5
10A2
331
1073
  5
1073
331
10AA
  5
10AA
331
107B
  5
107B
331
103C
  5
103C
331
1083
  5
1083
331
1044
  5
1044
331
108B
  5
108B
331
104C
  5
104C
331
1054
  5
1054
331
1093
  5
1093
331
105C
  5
105C
331
1064
  5
1064
331
109B
  5
109B
331
106C
  5
106C
331
10A3
  5
10A3
331
1074
  5
1074
331
10AB
  5
10AB
331
107C
  5
107C
331
103D
  5
103D
331
1084
  5
1084
331
1045
  5
1045
331
108C
  5
108C
331
104D
  5
104D
331
1094
  5
1094
331
1055
  5
1055
331
105D
  5
105D
331
1065
  5
1065
331
109C
  5
109C
331
106D
  5
106D
331
10A4
  5
10A4
331
1075
  5
1075
331
10AC
  5
10AC
331
107D
  5
107D
331
103E
  5
103E
  0
SORTENTSTABLE
  5
11C4
102
{ACAD_REACTORS
330
11C3
102
}
330
11C3
100
AcDbSortentsTable
330
1195
  0
SORTENTSTABLE
  5
1213
102
{ACAD_REACTORS
330
1212
102
}
330
1212
100
AcDbSortentsTable
330
1203
  0
LAYOUT
  5
21
102
{ACAD_REACTORS
330
1E
102
}
330
1E
100
AcDbPlotSettings
  1

  2

  4

  6

 40
0.0
 41
0.0
 42
0.0
 43
0.0
 44
0.0
 45
0.0
 46
0.0
 47
0.0
 48
0.0
 49
0.0
140
0.0
141
0.0
142
1.0
143
1.0
 70
     0
 72
     0
 73
     0
 74
     0
  7

 75
     0
147
1.0
 76
     0
 77
     2
 78
   300
148
0.0
149
0.0
100
AcDbLayout
  1
Layout1
 70
     0
 71
     1
 10
0.0
 20
0.0
 11
12.0
 21
9.0
 12
0.0
 22
0.0
 32
0.0
 14
1.000000000000000E+20
 24
1.000000000000000E+20
 34
1.000000000000000E+20
 15
-1.000000000000000E+20
 25
-1.000000000000000E+20
 35
-1.000000000000000E+20
146
0.0
 13
0.0
 23
0.0
 33
0.0
 16
1.0
 26
0.0
 36
0.0
 17
0.0
 27
1.0
 37
0.0
 76
     0
330
B
  0
LAYOUT
  5
20
102
{ACAD_REACTORS
330
1E
102
}
330
1E
100
AcDbPlotSettings
  1

  2

  4

  6

 40
0.0
 41
0.0
 42
0.0
 43
0.0
 44
0.0
 45
0.0
 46
0.0
 47
0.0
 48
0.0
 49
0.0
140
0.0
141
0.0
142
1.0
143
1.0
 70
  1024
 72
     0
 73
     0
 74
     0
  7

 75
     0
147
1.0
 76
     0
 77
     2
 78
   300
148
0.0
149
0.0
100
AcDbLayout
  1
Model
 70
     0
 71
     0
 10
0.0
 20
0.0
 11
0.0
 21
0.0
 12
0.0
 22
0.0
 32
0.0
 14
0.0
 24
0.0
 34
0.0
 15
0.0
 25
0.0
 35
0.0
146
0.0
 13
0.0
 23
0.0
 33
0.0
 16
0.0
 26
0.0
 36
0.0
 17
0.0
 27
0.0
 37
0.0
 76
     0
330
A
  0
MATERIAL
  5
85
102
{ACAD_XDICTIONARY
360
86
102
}
102
{ACAD_REACTORS
330
7C
102
}
330
7C
100
AcDbMaterial
  1
ByBlock
 72
     0
 43
0.0208333333333333
 43
0.0
 43
0.0
 43
0.0
 43
0.0
 43
0.0208333333333333
 43
0.0
 43
0.0
 43
0.0
 43
0.0
 43
1.0
 43
0.0
 43
0.0
 43
0.0
 43
0.0
 43
1.0
 77
     0
 47
0.0208333333333333
 47
0.0
 47
0.0
 47
0.0
 47
0.0
 47
0.0208333333333333
 47
0.0
 47
0.0
 47
0.0
 47
0.0
 47
1.0
 47
0.0
 47
0.0
 47
0.0
 47
0.0
 47
1.0
171
     0
 49
0.0208333333333333
 49
0.0
 49
0.0
 49
0.0
 49
0.0
 49
0.0208333333333333
 49
0.0
 49
0.0
 49
0.0
 49
0.0
 49
1.0
 49
0.0
 49
0.0
 49
0.0
 49
0.0
 49
1.0
175
     0
142
0.0208333333333333
142
0.0
142
0.0
142
0.0
142
0.0
142
0.0208333333333333
142
0.0
142
0.0
142
0.0
142
0.0
142
1.0
142
0.0
142
0.0
142
0.0
142
0.0
142
1.0
179
     0
144
0.0208333333333333
144
0.0
144
0.0
144
0.0
144
0.0
144
0.0208333333333333
144
0.0
144
0.0
144
0.0
144
0.0
144
1.0
144
0.0
144
0.0
144
0.0
144
0.0
144
1.0
147
0.0208333333333333
147
0.0
147
0.0
147
0.0
147
0.0
147
0.0208333333333333
147
0.0
147
0.0
147
0.0
147
0.0
147
1.0
147
0.0
147
0.0
147
0.0
147
0.0
147
1.0
  0
MATERIAL
  5
7D
102
{ACAD_XDICTIONARY
360
7E
102
}
102
{ACAD_REACTORS
330
7C
102
}
330
7C
100
AcDbMaterial
  1
ByLayer
 72
     0
 43
0.0208333333333333
 43
0.0
 43
0.0
 43
0.0
 43
0.0
 43
0.0208333333333333
 43
0.0
 43
0.0
 43
0.0
 43
0.0
 43
1.0
 43
0.0
 43
0.0
 43
0.0
 43
0.0
 43
1.0
 77
     0
 47
0.0208333333333333
 47
0.0
 47
0.0
 47
0.0
 47
0.0
 47
0.0208333333333333
 47
0.0
 47
0.0
 47
0.0
 47
0.0
 47
1.0
 47
0.0
 47
0.0
 47
0.0
 47
0.0
 47
1.0
171
     0
 49
0.0208333333333333
 49
0.0
 49
0.0
 49
0.0
 49
0.0
 49
0.0208333333333333
 49
0.0
 49
0.0
 49
0.0
 49
0.0
 49
1.0
 49
0.0
 49
0.0
 49
0.0
 49
0.0
 49
1.0
175
     0
142
0.0208333333333333
142
0.0
142
0.0
142
0.0
142
0.0
142
0.0208333333333333
142
0.0
142
0.0
142
0.0
142
0.0
142
1.0
142
0.0
142
0.0
142
0.0
142
0.0
142
1.0
179
     0
144
0.0208333333333333
144
0.0
144
0.0
144
0.0
144
0.0
144
0.0208333333333333
144
0.0
144
0.0
144
0.0
144
0.0
144
1.0
144
0.0
144
0.0
144
0.0
144
0.0
144
1.0
147
0.0208333333333333
147
0.0
147
0.0
147
0.0
147
0.0
147
0.0208333333333333
147
0.0
147
0.0
147
0.0
147
0.0
147
1.0
147
0.0
147
0.0
147
0.0
147
0.0
147
1.0
  0
MATERIAL
  5
8D
102
{ACAD_XDICTIONARY
360
8E
102
}
102
{ACAD_REACTORS
330
7C
102
}
330
7C
100
AcDbMaterial
  1
Global
 72
     0
 43
0.0208333333333333
 43
0.0
 43
0.0
 43
0.0
 43
0.0
 43
0.0208333333333333
 43
0.0
 43
0.0
 43
0.0
 43
0.0
 43
1.0
 43
0.0
 43
0.0
 43
0.0
 43
0.0
 43
1.0
 77
     0
 47
0.0208333333333333
 47
0.0
 47
0.0
 47
0.0
 47
0.0
 47
0.0208333333333333
 47
0.0
 47
0.0
 47
0.0
 47
0.0
 47
1.0
 47
0.0
 47
0.0
 47
0.0
 47
0.0
 47
1.0
171
     0
 49
0.0208333333333333
 49
0.0
 49
0.0
 49
0.0
 49
0.0
 49
0.0208333333333333
 49
0.0
 49
0.0
 49
0.0
 49
0.0
 49
1.0
 49
0.0
 49
0.0
 49
0.0
 49
0.0
 49
1.0
175
     0
142
0.0208333333333333
142
0.0
142
0.0
142
0.0
142
0.0
142
0.0208333333333333
142
0.0
142
0.0
142
0.0
142
0.0
142
1.0
142
0.0
142
0.0
142
0.0
142
0.0
142
1.0
179
     0
144
0.0208333333333333
144
0.0
144
0.0
144
0.0
144
0.0
144
0.0208333333333333
144
0.0
144
0.0
144
0.0
144
0.0
144
1.0
144
0.0
144
0.0
144
0.0
144
0.0
144
1.0
147
0.0208333333333333
147
0.0
147
0.0
147
0.0
147
0.0
147
0.0208333333333333
147
0.0
147
0.0
147
0.0
147
0.0
147
1.0
147
0.0
147
0.0
147
0.0
147
0.0
147
1.0
  0
ACAD_PROXY_OBJECT
  5
CC
102
{ACAD_REACTORS
330
CB
102
}
330
CB
100
AcDbProxyObject
 90
      499
 91
      524
 95
  1310743
 70
     1
100
AcDbMLeaderStyle
170
     2
171
     1
172
     0
 90
        2
 40
0.0
 41
0.0
173
     1
 91
-1056964608
340
11
 92
       -2
290
     1
 42
0.09
291
     1
 43
0.36
  3
Standard
 44
0.18
300

342
17
174
     1
178
     6
175
     1
176
     0
 93
-1056964608
 45
0.18
292
     0
297
     0
 46
0.18
 94
-1056964608
 47
1.0
 49
1.0
140
1.0
293
     1
141
0.0
294
     1
177
     0
142
1.0
295
     0
296
     0
143
0.125
1001
ACAD_MLEADERVER
1070
     2
  0
MLINESTYLE
  5
1C
102
{ACAD_REACTORS
330
1B
102
}
330
1B
100
AcDbMlineStyle
  2
STANDARD
 70
     0
  3

 62
     0
 51
90.0
 52
90.0
 71
     2
 49
0.5
 62
   256
  6
BYLAYER
 49
-0.5
 62
   256
  6
BYLAYER
  0
ACDBPLACEHOLDER
  5
1D
102
{ACAD_REACTORS
330
1F
102
}
330
1F
  0
ACAD_PROXY_OBJECT
  5
AA
102
{ACAD_REACTORS
330
A9
102
}
330
A9
100
AcDbProxyObject
 90
      499
 91
      523
 95
  1310743
 70
     1
100
AcDbScale
 70
     0
300
1:1
140
1.0
141
1.0
290
     1
  0
ACAD_PROXY_OBJECT
  5
AB
102
{ACAD_REACTORS
330
A9
102
}
330
A9
100
AcDbProxyObject
 90
      499
 91
      523
 95
  1310743
 70
     1
100
AcDbScale
 70
     0
300
1:2
140
1.0
141
2.0
290
     0
  0
ACAD_PROXY_OBJECT
  5
AC
102
{ACAD_REACTORS
330
A9
102
}
330
A9
100
AcDbProxyObject
 90
      499
 91
      523
 95
  1310743
 70
     1
100
AcDbScale
 70
     0
300
1:4
140
1.0
141
4.0
290
     0
  0
ACAD_PROXY_OBJECT
  5
AD
102
{ACAD_REACTORS
330
A9
102
}
330
A9
100
AcDbProxyObject
 90
      499
 91
      523
 95
  1310743
 70
     1
100
AcDbScale
 70
     0
300
1:5
140
1.0
141
5.0
290
     0
  0
ACAD_PROXY_OBJECT
  5
AE
102
{ACAD_REACTORS
330
A9
102
}
330
A9
100
AcDbProxyObject
 90
      499
 91
      523
 95
  1310743
 70
     1
100
AcDbScale
 70
     0
300
1:8
140
1.0
141
8.0
290
     0
  0
ACAD_PROXY_OBJECT
  5
AF
102
{ACAD_REACTORS
330
A9
102
}
330
A9
100
AcDbProxyObject
 90
      499
 91
      523
 95
  1310743
 70
     1
100
AcDbScale
 70
     0
300
1:10
140
1.0
141
10.0
290
     0
  0
ACAD_PROXY_OBJECT
  5
B0
102
{ACAD_REACTORS
330
A9
102
}
330
A9
100
AcDbProxyObject
 90
      499
 91
      523
 95
  1310743
 70
     1
100
AcDbScale
 70
     0
300
1:16
140
1.0
141
16.0
290
     0
  0
ACAD_PROXY_OBJECT
  5
B1
102
{ACAD_REACTORS
330
A9
102
}
330
A9
100
AcDbProxyObject
 90
      499
 91
      523
 95
  1310743
 70
     1
100
AcDbScale
 70
     0
300
1:20
140
1.0
141
20.0
290
     0
  0
ACAD_PROXY_OBJECT
  5
B2
102
{ACAD_REACTORS
330
A9
102
}
330
A9
100
AcDbProxyObject
 90
      499
 91
      523
 95
  1310743
 70
     1
100
AcDbScale
 70
     0
300
1:30
140
1.0
141
30.0
290
     0
  0
ACAD_PROXY_OBJECT
  5
B3
102
{ACAD_REACTORS
330
A9
102
}
330
A9
100
AcDbProxyObject
 90
      499
 91
      523
 95
  1310743
 70
     1
100
AcDbScale
 70
     0
300
1:40
140
1.0
141
40.0
290
     0
  0
ACAD_PROXY_OBJECT
  5
B4
102
{ACAD_REACTORS
330
A9
102
}
330
A9
100
AcDbProxyObject
 90
      499
 91
      523
 95
  1310743
 70
     1
100
AcDbScale
 70
     0
300
1:50
140
1.0
141
50.0
290
     0
  0
ACAD_PROXY_OBJECT
  5
B5
102
{ACAD_REACTORS
330
A9
102
}
330
A9
100
AcDbProxyObject
 90
      499
 91
      523
 95
  1310743
 70
     1
100
AcDbScale
 70
     0
300
1:100
140
1.0
141
100.0
290
     0
  0
ACAD_PROXY_OBJECT
  5
B6
102
{ACAD_REACTORS
330
A9
102
}
330
A9
100
AcDbProxyObject
 90
      499
 91
      523
 95
  1310743
 70
     1
100
AcDbScale
 70
     0
300
2:1
140
2.0
141
1.0
290
     0
  0
ACAD_PROXY_OBJECT
  5
B7
102
{ACAD_REACTORS
330
A9
102
}
330
A9
100
AcDbProxyObject
 90
      499
 91
      523
 95
  1310743
 70
     1
100
AcDbScale
 70
     0
300
4:1
140
4.0
141
1.0
290
     0
  0
ACAD_PROXY_OBJECT
  5
B8
102
{ACAD_REACTORS
330
A9
102
}
330
A9
100
AcDbProxyObject
 90
      499
 91
      523
 95
  1310743
 70
     1
100
AcDbScale
 70
     0
300
8:1
140
8.0
141
1.0
290
     0
  0
ACAD_PROXY_OBJECT
  5
B9
102
{ACAD_REACTORS
330
A9
102
}
330
A9
100
AcDbProxyObject
 90
      499
 91
      523
 95
  1310743
 70
     1
100
AcDbScale
 70
     0
300
10:1
140
10.0
141
1.0
290
     0
  0
ACAD_PROXY_OBJECT
  5
BA
102
{ACAD_REACTORS
330
A9
102
}
330
A9
100
AcDbProxyObject
 90
      499
 91
      523
 95
  1310743
 70
     1
100
AcDbScale
 70
     0
300
100:1
140
100.0
141
1.0
290
     0
  0
ACAD_PROXY_OBJECT
  5
BB
102
{ACAD_REACTORS
330
A9
102
}
330
A9
100
AcDbProxyObject
 90
      499
 91
      523
 95
  1310743
 70
     1
100
AcDbScale
 70
     0
300
1/128" = 1'-0"
140
0.0078125
141
12.0
290
     0
  0
ACAD_PROXY_OBJECT
  5
BC
102
{ACAD_REACTORS
330
A9
102
}
330
A9
100
AcDbProxyObject
 90
      499
 91
      523
 95
  1310743
 70
     1
100
AcDbScale
 70
     0
300
1/64" = 1'-0"
140
0.015625
141
12.0
290
     0
  0
ACAD_PROXY_OBJECT
  5
BD
102
{ACAD_REACTORS
330
A9
102
}
330
A9
100
AcDbProxyObject
 90
      499
 91
      523
 95
  1310743
 70
     1
100
AcDbScale
 70
     0
300
1/32" = 1'-0"
140
0.03125
141
12.0
290
     0
  0
ACAD_PROXY_OBJECT
  5
BE
102
{ACAD_REACTORS
330
A9
102
}
330
A9
100
AcDbProxyObject
 90
      499
 91
      523
 95
  1310743
 70
     1
100
AcDbScale
 70
     0
300
1/16" = 1'-0"
140
0.0625
141
12.0
290
     0
  0
ACAD_PROXY_OBJECT
  5
BF
102
{ACAD_REACTORS
330
A9
102
}
330
A9
100
AcDbProxyObject
 90
      499
 91
      523
 95
  1310743
 70
     1
100
AcDbScale
 70
     0
300
3/32" = 1'-0"
140
0.09375
141
12.0
290
     0
  0
ACAD_PROXY_OBJECT
  5
C0
102
{ACAD_REACTORS
330
A9
102
}
330
A9
100
AcDbProxyObject
 90
      499
 91
      523
 95
  1310743
 70
     1
100
AcDbScale
 70
     0
300
1/8" = 1'-0"
140
0.125
141
12.0
290
     0
  0
ACAD_PROXY_OBJECT
  5
C1
102
{ACAD_REACTORS
330
A9
102
}
330
A9
100
AcDbProxyObject
 90
      499
 91
      523
 95
  1310743
 70
     1
100
AcDbScale
 70
     0
300
3/16" = 1'-0"
140
0.1875
141
12.0
290
     0
  0
ACAD_PROXY_OBJECT
  5
C2
102
{ACAD_REACTORS
330
A9
102
}
330
A9
100
AcDbProxyObject
 90
      499
 91
      523
 95
  1310743
 70
     1
100
AcDbScale
 70
     0
300
1/4" = 1'-0"
140
0.25
141
12.0
290
     0
  0
ACAD_PROXY_OBJECT
  5
C3
102
{ACAD_REACTORS
330
A9
102
}
330
A9
100
AcDbProxyObject
 90
      499
 91
      523
 95
  1310743
 70
     1
100
AcDbScale
 70
     0
300
3/8" = 1'-0"
140
0.375
141
12.0
290
     0
  0
ACAD_PROXY_OBJECT
  5
C4
102
{ACAD_REACTORS
330
A9
102
}
330
A9
100
AcDbProxyObject
 90
      499
 91
      523
 95
  1310743
 70
     1
100
AcDbScale
 70
     0
300
1/2" = 1'-0"
140
0.5
141
12.0
290
     0
  0
ACAD_PROXY_OBJECT
  5
C5
102
{ACAD_REACTORS
330
A9
102
}
330
A9
100
AcDbProxyObject
 90
      499
 91
      523
 95
  1310743
 70
     1
100
AcDbScale
 70
     0
300
3/4" = 1'-0"
140
0.75
141
12.0
290
     0
  0
ACAD_PROXY_OBJECT
  5
C6
102
{ACAD_REACTORS
330
A9
102
}
330
A9
100
AcDbProxyObject
 90
      499
 91
      523
 95
  1310743
 70
     1
100
AcDbScale
 70
     0
300
1" = 1'-0"
140
1.0
141
12.0
290
     0
  0
ACAD_PROXY_OBJECT
  5
C7
102
{ACAD_REACTORS
330
A9
102
}
330
A9
100
AcDbProxyObject
 90
      499
 91
      523
 95
  1310743
 70
     1
100
AcDbScale
 70
     0
300
1-1/2" = 1'-0"
140
1.5
141
12.0
290
     0
  0
ACAD_PROXY_OBJECT
  5
C8
102
{ACAD_REACTORS
330
A9
102
}
330
A9
100
AcDbProxyObject
 90
      499
 91
      523
 95
  1310743
 70
     1
100
AcDbScale
 70
     0
300
3" = 1'-0"
140
3.0
141
12.0
290
     0
  0
ACAD_PROXY_OBJECT
  5
C9
102
{ACAD_REACTORS
330
A9
102
}
330
A9
100
AcDbProxyObject
 90
      499
 91
      523
 95
  1310743
 70
     1
100
AcDbScale
 70
     0
300
6" = 1'-0"
140
6.0
141
12.0
290
     0
  0
ACAD_PROXY_OBJECT
  5
CA
102
{ACAD_REACTORS
330
A9
102
}
330
A9
100
AcDbProxyObject
 90
      499
 91
      523
 95
  1310743
 70
     1
100
AcDbScale
 70
     0
300
1'-0" = 1'-0"
140
12.0
141
12.0
290
     0
  0
TABLESTYLE
  5
A8
102
{ACAD_XDICTIONARY
360
12B
102
}
102
{ACAD_REACTORS
330
A7
102
}
330
A7
100
AcDbTableStyle
  3
Standard
 70
     0
 71
     0
 40
0.06
 41
0.06
280
     0
281
     0
  7
Standard
140
0.18
170
     2
 62
     0
 63
     7
283
     0
274
    -2
284
     1
 64
     0
275
    -2
285
     1
 65
     0
276
    -2
286
     1
 66
     0
277
    -2
287
     1
 67
     0
278
    -2
288
     1
 68
     0
279
    -2
289
     1
 69
     0
  7
Standard
140
0.25
170
     5
 62
     0
 63
     7
283
     0
274
    -2
284
     1
 64
     0
275
    -2
285
     1
 65
     0
276
    -2
286
     1
 66
     0
277
    -2
287
     1
 67
     0
278
    -2
288
     1
 68
     0
279
    -2
289
     1
 69
     0
  7
Standard
140
0.18
170
     5
 62
     0
 63
     7
283
     0
274
    -2
284
     1
 64
     0
275
    -2
285
     1
 65
     0
276
    -2
286
     1
 66
     0
277
    -2
287
     1
 67
     0
278
    -2
288
     1
 68
     0
279
    -2
289
     1
 69
     0
  0
ACAD_PROXY_OBJECT
  5
9B
102
{ACAD_REACTORS
330
95
102
}
330
95
100
AcDbProxyObject
 90
      499
 91
      521
 95
  1310743
 70
     1
100
AcDbVisualStyle
  2
2dWireframe
 70
     4
 71
     0
 72
     2
 73
     0
 90
        0
 40
-0.6
 41
-30.0
 62
     5
 63
     7
 74
     1
 91
        4
 64
     7
 65
   257
 75
     1
175
     1
 42
1.0
 92
        0
 66
   257
 43
1.0
 76
     1
 77
     6
 78
     2
 67
     7
 79
     5
170
     0
171
     0
290
     0
174
     0
 93
        1
 44
0.0
173
     0
291
     0
 45
0.0
1001
ACAD
1000
AcDbSavedByObjectVersion
1070
     0
1000
AcDbSavedByObjectVersion
1070
     0
1000
AcDbSavedByObjectVersion
1070
     0
1000
AcDbSavedByObjectVersion
1070
     0
1000
AcDbSavedByObjectVersion
1070
     0
1000
AcDbSavedByObjectVersion
1070
     0
1000
AcDbSavedByObjectVersion
1070
     0
  0
ACAD_PROXY_OBJECT
  5
9D
102
{ACAD_REACTORS
330
95
102
}
330
95
100
AcDbProxyObject
 90
      499
 91
      521
 95
  1310743
 70
     1
100
AcDbVisualStyle
  2
3D Hidden
 70
     6
 71
     1
 72
     2
 73
     2
 90
        0
 40
-0.6
 41
-30.0
 62
     5
 63
     7
 74
     2
 91
        2
 64
     7
 65
   257
 75
     2
175
     1
 42
40.0
 92
        0
 66
   257
 43
1.0
 76
     1
 77
     6
 78
     2
 67
     7
 79
     3
170
     0
171
     0
290
     0
174
     0
 93
        1
 44
0.0
173
     0
291
     0
 45
0.0
1001
ACAD
1000
AcDbSavedByObjectVersion
1070
     0
1000
AcDbSavedByObjectVersion
1070
     0
1000
AcDbSavedByObjectVersion
1070
     0
1000
AcDbSavedByObjectVersion
1070
     0
1000
AcDbSavedByObjectVersion
1070
     0
1000
AcDbSavedByObjectVersion
1070
     0
1000
AcDbSavedByObjectVersion
1070
     0
  0
ACAD_PROXY_OBJECT
  5
9C
102
{ACAD_REACTORS
330
95
102
}
330
95
100
AcDbProxyObject
 90
      499
 91
      521
 95
  1310743
 70
     1
100
AcDbVisualStyle
  2
3dWireframe
 70
     5
 71
     0
 72
     2
 73
     0
 90
        0
 40
-0.6
 41
-30.0
 62
     5
 63
     7
 74
     1
 91
        4
 64
     7
 65
   257
 75
     1
175
     1
 42
1.0
 92
        0
 66
   257
 43
1.0
 76
     1
 77
     6
 78
     2
 67
     7
 79
     5
170
     0
171
     0
290
     0
174
     0
 93
        1
 44
0.0
173
     0
291
     0
 45
0.0
1001
ACAD
1000
AcDbSavedByObjectVersion
1070
     0
1000
AcDbSavedByObjectVersion
1070
     0
1000
AcDbSavedByObjectVersion
1070
     0
1000
AcDbSavedByObjectVersion
1070
     0
1000
AcDbSavedByObjectVersion
1070
     0
1000
AcDbSavedByObjectVersion
1070
     0
1000
AcDbSavedByObjectVersion
1070
     0
  0
ACAD_PROXY_OBJECT
  5
9A
102
{ACAD_REACTORS
330
95
102
}
330
95
100
AcDbProxyObject
 90
      499
 91
      521
 95
  1310743
 70
     1
100
AcDbVisualStyle
  2
Basic
 70
     7
 71
     1
 72
     0
 73
     1
 90
        0
 40
-0.6
 41
-30.0
 62
     5
 63
     7
 74
     0
 91
        4
 64
     7
 65
   257
 75
     1
175
     1
 42
1.0
 92
        8
 66
     7
 43
1.0
 76
     1
 77
     6
 78
     2
 67
     7
 79
     5
170
     0
171
     0
290
     0
174
     0
 93
        1
 44
0.0
173
     0
291
     1
 45
0.0
1001
ACAD
1000
AcDbSavedByObjectVersion
1070
     0
1000
AcDbSavedByObjectVersion
1070
     0
1000
AcDbSavedByObjectVersion
1070
     0
1000
AcDbSavedByObjectVersion
1070
     0
1000
AcDbSavedByObjectVersion
1070
     0
1000
AcDbSavedByObjectVersion
1070
     0
1000
AcDbSavedByObjectVersion
1070
     0
  0
ACAD_PROXY_OBJECT
  5
A1
102
{ACAD_REACTORS
330
95
102
}
330
95
100
AcDbProxyObject
 90
      499
 91
      521
 95
  1310743
 70
     1
100
AcDbVisualStyle
  2
Brighten
 70
    12
 71
     2
 72
     2
 73
     0
 90
        0
 40
-0.6
 41
-30.0
 62
     5
 63
     7
 74
     1
 91
        4
 64
     7
 65
   257
 75
     1
175
     1
 42
1.0
 92
        8
 66
     7
 43
1.0
 76
     1
 77
     6
 78
     2
 67
     7
 79
     5
170
     0
171
     0
290
     0
174
     0
 93
        1
 44
50.0
173
     0
291
     1
 45
0.0
1001
ACAD
1000
AcDbSavedByObjectVersion
1070
     0
1000
AcDbSavedByObjectVersion
1070
     0
1000
AcDbSavedByObjectVersion
1070
     0
1000
AcDbSavedByObjectVersion
1070
     0
1000
AcDbSavedByObjectVersion
1070
     0
1000
AcDbSavedByObjectVersion
1070
     0
1000
AcDbSavedByObjectVersion
1070
     0
  0
ACAD_PROXY_OBJECT
  5
A5
102
{ACAD_REACTORS
330
95
102
}
330
95
100
AcDbProxyObject
 90
      499
 91
      521
 95
  1310743
 70
     1
100
AcDbVisualStyle
  2
ColorChange
 70
    16
 71
     2
 72
     2
 73
     3
 90
        0
 40
-0.6
 41
-30.0
 62
     5
 63
     8
 74
     1
 91
        4
 64
     7
 65
   257
 75
     1
175
     1
 42
1.0
 92
        8
 66
     8
 43
1.0
 76
     1
 77
     6
 78
     2
 67
     7
 79
     5
170
     0
171
     0
290
     0
174
     0
 93
        1
 44
0.0
173
     0
291
     1
 45
0.0
1001
ACAD
1000
AcDbSavedByObjectVersion
1070
     0
1000
AcDbSavedByObjectVersion
1070
     0
1000
AcDbSavedByObjectVersion
1070
     0
1000
AcDbSavedByObjectVersion
1070
     0
1000
AcDbSavedByObjectVersion
1070
     0
1000
AcDbSavedByObjectVersion
1070
     0
1000
AcDbSavedByObjectVersion
1070
     0
  0
ACAD_PROXY_OBJECT
  5
9E
102
{ACAD_REACTORS
330
95
102
}
330
95
100
AcDbProxyObject
 90
      499
 91
      521
 95
  1310743
 70
     1
100
AcDbVisualStyle
  2
Conceptual
 70
     9
 71
     3
 72
     2
 73
     0
 90
        0
 40
-0.6
 41
-30.0
 62
     5
 63
     7
 74
     2
 91
        2
 64
     7
 65
   257
 75
     1
175
     1
 42
40.0
 92
        8
 66
     7
 43
1.0
 76
     1
 77
     6
 78
     2
 67
     7
 79
     3
170
     0
171
     0
290
     0
174
     0
 93
        1
 44
0.0
173
     0
291
     0
 45
0.0
1001
ACAD
1000
AcDbSavedByObjectVersion
1070
     0
1000
AcDbSavedByObjectVersion
1070
     0
1000
AcDbSavedByObjectVersion
1070
     0
1000
AcDbSavedByObjectVersion
1070
     0
1000
AcDbSavedByObjectVersion
1070
     0
1000
AcDbSavedByObjectVersion
1070
     0
1000
AcDbSavedByObjectVersion
1070
     0
  0
ACAD_PROXY_OBJECT
  5
A0
102
{ACAD_REACTORS
330
95
102
}
330
95
100
AcDbProxyObject
 90
      499
 91
      521
 95
  1310743
 70
     1
100
AcDbVisualStyle
  2
Dim
 70
    11
 71
     2
 72
     2
 73
     0
 90
        0
 40
-0.6
 41
-30.0
 62
     5
 63
     7
 74
     1
 91
        4
 64
     7
 65
   257
 75
     1
175
     1
 42
1.0
 92
        8
 66
     7
 43
1.0
 76
     1
 77
     6
 78
     2
 67
     7
 79
     5
170
     0
171
     0
290
     0
174
     0
 93
        1
 44
-50.0
173
     0
291
     1
 45
0.0
1001
ACAD
1000
AcDbSavedByObjectVersion
1070
     0
1000
AcDbSavedByObjectVersion
1070
     0
1000
AcDbSavedByObjectVersion
1070
     0
1000
AcDbSavedByObjectVersion
1070
     0
1000
AcDbSavedByObjectVersion
1070
     0
1000
AcDbSavedByObjectVersion
1070
     0
1000
AcDbSavedByObjectVersion
1070
     0
  0
ACAD_PROXY_OBJECT
  5
A4
102
{ACAD_REACTORS
330
95
102
}
330
95
100
AcDbProxyObject
 90
      499
 91
      521
 95
  1310743
 70
     1
100
AcDbVisualStyle
  2
Facepattern
 70
    15
 71
     2
 72
     2
 73
     0
 90
        0
 40
-0.6
 41
-30.0
 62
     5
 63
     7
 74
     1
 91
        4
 64
     7
 65
   257
 75
     1
175
     1
 42
1.0
 92
        8
 66
     7
 43
1.0
 76
     1
 77
     6
 78
     2
 67
     7
 79
     5
170
     0
171
     0
290
     0
174
     0
 93
        1
 44
0.0
173
     0
291
     1
 45
0.0
1001
ACAD
1000
AcDbSavedByObjectVersion
1070
     0
1000
AcDbSavedByObjectVersion
1070
     0
1000
AcDbSavedByObjectVersion
1070
     0
1000
AcDbSavedByObjectVersion
1070
     0
1000
AcDbSavedByObjectVersion
1070
     0
1000
AcDbSavedByObjectVersion
1070
     0
1000
AcDbSavedByObjectVersion
1070
     0
  0
ACAD_PROXY_OBJECT
  5
96
102
{ACAD_REACTORS
330
95
102
}
330
95
100
AcDbProxyObject
 90
      499
 91
      521
 95
  1310743
 70
     1
100
AcDbVisualStyle
  2
Flat
 70
     0
 71
     2
 72
     1
 73
     1
 90
        2
 40
-0.6
 41
30.0
 62
     5
 63
     7
 74
     0
 91
        4
 64
     7
 65
   257
 75
     1
175
     1
 42
1.0
 92
        8
 66
     7
 43
1.0
 76
     1
 77
     6
 78
     2
 67
     7
 79
     5
170
     0
171
     0
290
     0
174
     0
 93
       13
 44
0.0
173
     0
291
     1
 45
0.0
1001
ACAD
1000
AcDbSavedByObjectVersion
1070
     0
1000
AcDbSavedByObjectVersion
1070
     0
1000
AcDbSavedByObjectVersion
1070
     0
1000
AcDbSavedByObjectVersion
1070
     0
1000
AcDbSavedByObjectVersion
1070
     0
1000
AcDbSavedByObjectVersion
1070
     0
1000
AcDbSavedByObjectVersion
1070
     0
  0
ACAD_PROXY_OBJECT
  5
97
102
{ACAD_REACTORS
330
95
102
}
330
95
100
AcDbProxyObject
 90
      499
 91
      521
 95
  1310743
 70
     1
100
AcDbVisualStyle
  2
FlatWithEdges
 70
     1
 71
     2
 72
     1
 73
     1
 90
        2
 40
-0.6
 41
30.0
 62
     5
 63
     7
 74
     1
 91
        4
 64
     7
 65
   257
 75
     1
175
     1
 42
1.0
 92
        0
 66
   257
 43
1.0
 76
     1
 77
     6
 78
     2
 67
     7
 79
     5
170
     0
171
     0
290
     0
174
     0
 93
       13
 44
0.0
173
     0
291
     1
 45
0.0
1001
ACAD
1000
AcDbSavedByObjectVersion
1070
     0
1000
AcDbSavedByObjectVersion
1070
     0
1000
AcDbSavedByObjectVersion
1070
     0
1000
AcDbSavedByObjectVersion
1070
     0
1000
AcDbSavedByObjectVersion
1070
     0
1000
AcDbSavedByObjectVersion
1070
     0
1000
AcDbSavedByObjectVersion
1070
     0
  0
ACAD_PROXY_OBJECT
  5
98
102
{ACAD_REACTORS
330
95
102
}
330
95
100
AcDbProxyObject
 90
      499
 91
      521
 95
  1310743
 70
     1
100
AcDbVisualStyle
  2
Gouraud
 70
     2
 71
     2
 72
     2
 73
     1
 90
        2
 40
-0.6
 41
30.0
 62
     5
 63
     7
 74
     0
 91
        4
 64
     7
 65
   257
 75
     1
175
     1
 42
1.0
 92
        0
 66
     7
 43
1.0
 76
     1
 77
     6
 78
     2
 67
     7
 79
     5
170
     0
171
     0
290
     0
174
     0
 93
       13
 44
0.0
173
     0
291
     1
 45
0.0
1001
ACAD
1000
AcDbSavedByObjectVersion
1070
     0
1000
AcDbSavedByObjectVersion
1070
     0
1000
AcDbSavedByObjectVersion
1070
     0
1000
AcDbSavedByObjectVersion
1070
     0
1000
AcDbSavedByObjectVersion
1070
     0
1000
AcDbSavedByObjectVersion
1070
     0
1000
AcDbSavedByObjectVersion
1070
     0
  0
ACAD_PROXY_OBJECT
  5
99
102
{ACAD_REACTORS
330
95
102
}
330
95
100
AcDbProxyObject
 90
      499
 91
      521
 95
  1310743
 70
     1
100
AcDbVisualStyle
  2
GouraudWithEdges
 70
     3
 71
     2
 72
     2
 73
     1
 90
        2
 40
-0.6
 41
30.0
 62
     5
 63
     7
 74
     1
 91
        4
 64
     7
 65
   257
 75
     1
175
     1
 42
1.0
 92
        0
 66
   257
 43
1.0
 76
     1
 77
     6
 78
     2
 67
     7
 79
     5
170
     0
171
     0
290
     0
174
     0
 93
       13
 44
0.0
173
     0
291
     1
 45
0.0
1001
ACAD
1000
AcDbSavedByObjectVersion
1070
     0
1000
AcDbSavedByObjectVersion
1070
     0
1000
AcDbSavedByObjectVersion
1070
     0
1000
AcDbSavedByObjectVersion
1070
     0
1000
AcDbSavedByObjectVersion
1070
     0
1000
AcDbSavedByObjectVersion
1070
     0
1000
AcDbSavedByObjectVersion
1070
     0
  0
ACAD_PROXY_OBJECT
  5
A3
102
{ACAD_REACTORS
330
95
102
}
330
95
100
AcDbProxyObject
 90
      499
 91
      521
 95
  1310743
 70
     1
100
AcDbVisualStyle
  2
Linepattern
 70
    14
 71
     2
 72
     2
 73
     0
 90
        0
 40
-0.6
 41
-30.0
 62
     5
 63
     7
 74
     1
 91
        4
 64
     7
 65
   257
 75
     7
175
     7
 42
1.0
 92
        8
 66
     7
 43
1.0
 76
     1
 77
     6
 78
     2
 67
     7
 79
     5
170
     0
171
     0
290
     0
174
     0
 93
        1
 44
0.0
173
     0
291
     1
 45
0.0
1001
ACAD
1000
AcDbSavedByObjectVersion
1070
     0
1000
AcDbSavedByObjectVersion
1070
     0
1000
AcDbSavedByObjectVersion
1070
     0
1000
AcDbSavedByObjectVersion
1070
     0
1000
AcDbSavedByObjectVersion
1070
     0
1000
AcDbSavedByObjectVersion
1070
     0
1000
AcDbSavedByObjectVersion
1070
     0
  0
ACAD_PROXY_OBJECT
  5
9F
102
{ACAD_REACTORS
330
95
102
}
330
95
100
AcDbProxyObject
 90
      499
 91
      521
 95
  1310743
 70
     1
100
AcDbVisualStyle
  2
Realistic
 70
     8
 71
     2
 72
     2
 73
     0
 90
        0
 40
-0.6
 41
-30.0
 62
     5
 63
     7
 74
     1
 91
        0
 64
     7
 65
   257
 75
     1
175
     1
 42
1.0
 92
        8
 66
     8
 43
1.0
 76
     1
 77
     6
 78
     2
 67
     7
 79
     5
170
     0
171
     0
290
     0
174
     0
 93
       13
 44
0.0
173
     0
291
     0
 45
0.0
1001
ACAD
1000
AcDbSavedByObjectVersion
1070
     0
1000
AcDbSavedByObjectVersion
1070
     0
1000
AcDbSavedByObjectVersion
1070
     0
1000
AcDbSavedByObjectVersion
1070
     0
1000
AcDbSavedByObjectVersion
1070
     0
1000
AcDbSavedByObjectVersion
1070
     0
1000
AcDbSavedByObjectVersion
1070
     0
  0
ACAD_PROXY_OBJECT
  5
A2
102
{ACAD_REACTORS
330
95
102
}
330
95
100
AcDbProxyObject
 90
      499
 91
      521
 95
  1310743
 70
     1
100
AcDbVisualStyle
  2
Thicken
 70
    13
 71
     2
 72
     2
 73
     0
 90
        0
 40
-0.6
 41
-30.0
 62
     5
 63
     7
 74
     1
 91
        4
 64
     7
 65
   257
 75
     1
175
     1
 42
1.0
 92
       12
 66
     7
 43
1.0
 76
     1
 77
     6
 78
     2
 67
     7
 79
     5
170
     0
171
     0
290
     0
174
     0
 93
        1
 44
0.0
173
     0
291
     1
 45
0.0
1001
ACAD
1000
AcDbSavedByObjectVersion
1070
     0
1000
AcDbSavedByObjectVersion
1070
     0
1000
AcDbSavedByObjectVersion
1070
     0
1000
AcDbSavedByObjectVersion
1070
     0
1000
AcDbSavedByObjectVersion
1070
     0
1000
AcDbSavedByObjectVersion
1070
     0
1000
AcDbSavedByObjectVersion
1070
     0
  0
DICTIONARYVAR
  5
127
102
{ACAD_REACTORS
330
124
102
}
330
124
100
DictionaryVariables
280
     0
  1
1:1
  0
DICTIONARYVAR
  5
126
102
{ACAD_REACTORS
330
124
102
}
330
124
100
DictionaryVariables
280
     0
  1
STANDARD
  0
DICTIONARYVAR
  5
125
102
{ACAD_REACTORS
330
124
102
}
330
124
100
DictionaryVariables
280
     0
  1
STANDARD
  0
DICTIONARYVAR
  5
12A
102
{ACAD_REACTORS
330
124
102
}
330
124
100
DictionaryVariables
280
     0
  1
1
  0
DICTIONARYVAR
  5
129
102
{ACAD_REACTORS
330
124
102
}
330
124
100
DictionaryVariables
280
     0
  1
0
  0
DICTIONARYVAR
  5
128
102
{ACAD_REACTORS
330
124
102
}
330
124
100
DictionaryVariables
280
     0
  1
127
  0
XRECORD
  5
27D1
102
{ACAD_REACTORS
330
27D0
102
}
330
27D0
100
AcDbXrecord
280
     1
  0
DICTIONARY
  5
86
330
85
100
AcDbDictionary
280
     1
281
     1
  3
ACAD_XREC_ROUNDTRIP
360
134
  3
BUMPTILE
360
88
  3
DIFFUSETILE
360
87
  3
OPACITYTILE
360
8B
  3
REFLECTIONTILE
360
8A
  3
REFRACTIONTILE
360
8C
  3
SPECULARTILE
360
89
  0
DICTIONARY
  5
7E
330
7D
100
AcDbDictionary
280
     1
281
     1
  3
ACAD_XREC_ROUNDTRIP
360
133
  3
BUMPTILE
360
80
  3
DIFFUSETILE
360
7F
  3
OPACITYTILE
360
83
  3
REFLECTIONTILE
360
82
  3
REFRACTIONTILE
360
84
  3
SPECULARTILE
360
81
  0
DICTIONARY
  5
8E
330
8D
100
AcDbDictionary
280
     1
281
     1
  3
ACAD_XREC_ROUNDTRIP
360
135
  3
BUMPTILE
360
90
  3
DIFFUSETILE
360
8F
  3
OPACITYTILE
360
93
  3
REFLECTIONTILE
360
92
  3
REFRACTIONTILE
360
94
  3
SPECULARTILE
360
91
  0
DICTIONARY
  5
12B
330
A8
100
AcDbDictionary
280
     1
281
     1
  3
ACAD_ROUNDTRIP_2008_TABLESTYLE_CELLSTYLEMAP
360
102A
  3
ACAD_XREC_ROUNDTRIP
360
1030
  0
XRECORD
  5
134
102
{ACAD_REACTORS
330
86
102
}
330
86
100
AcDbXrecord
280
     1
102
MATERIAL
148
0.0
149
0.0
149
0.0
 93
        0
 94
      127
282
     0
 72
     0
 77
     0
171
     0
175
     0
179
     0
273
     0
  0
XRECORD
  5
88
102
{ACAD_REACTORS
330
86
102
}
330
86
100
AcDbXrecord
280
     1
270
     1
271
     1
  0
XRECORD
  5
87
102
{ACAD_REACTORS
330
86
102
}
330
86
100
AcDbXrecord
280
     1
270
     1
271
     1
  0
XRECORD
  5
8B
102
{ACAD_REACTORS
330
86
102
}
330
86
100
AcDbXrecord
280
     1
270
     1
271
     1
  0
XRECORD
  5
8A
102
{ACAD_REACTORS
330
86
102
}
330
86
100
AcDbXrecord
280
     1
270
     1
271
     1
  0
XRECORD
  5
8C
102
{ACAD_REACTORS
330
86
102
}
330
86
100
AcDbXrecord
280
     1
270
     1
271
     1
  0
XRECORD
  5
89
102
{ACAD_REACTORS
330
86
102
}
330
86
100
AcDbXrecord
280
     1
270
     1
271
     1
  0
XRECORD
  5
133
102
{ACAD_REACTORS
330
7E
102
}
330
7E
100
AcDbXrecord
280
     1
102
MATERIAL
148
0.0
149
0.0
149
0.0
 93
        0
 94
      127
282
     0
 72
     0
 77
     0
171
     0
175
     0
179
     0
273
     0
  0
XRECORD
  5
80
102
{ACAD_REACTORS
330
7E
102
}
330
7E
100
AcDbXrecord
280
     1
270
     1
271
     1
  0
XRECORD
  5
7F
102
{ACAD_REACTORS
330
7E
102
}
330
7E
100
AcDbXrecord
280
     1
270
     1
271
     1
  0
XRECORD
  5
83
102
{ACAD_REACTORS
330
7E
102
}
330
7E
100
AcDbXrecord
280
     1
270
     1
271
     1
  0
XRECORD
  5
82
102
{ACAD_REACTORS
330
7E
102
}
330
7E
100
AcDbXrecord
280
     1
270
     1
271
     1
  0
XRECORD
  5
84
102
{ACAD_REACTORS
330
7E
102
}
330
7E
100
AcDbXrecord
280
     1
270
     1
271
     1
  0
XRECORD
  5
81
102
{ACAD_REACTORS
330
7E
102
}
330
7E
100
AcDbXrecord
280
     1
270
     1
271
     1
  0
XRECORD
  5
135
102
{ACAD_REACTORS
330
8E
102
}
330
8E
100
AcDbXrecord
280
     1
102
MATERIAL
148
0.0
149
0.0
149
0.0
 93
        0
 94
      127
282
     0
 72
     0
 77
     0
171
     0
175
     0
179
     0
273
     0
  0
XRECORD
  5
90
102
{ACAD_REACTORS
330
8E
102
}
330
8E
100
AcDbXrecord
280
     1
270
     1
271
     1
  0
XRECORD
  5
8F
102
{ACAD_REACTORS
330
8E
102
}
330
8E
100
AcDbXrecord
280
     1
270
     1
271
     1
  0
XRECORD
  5
93
102
{ACAD_REACTORS
330
8E
102
}
330
8E
100
AcDbXrecord
280
     1
270
     1
271
     1
  0
XRECORD
  5
92
102
{ACAD_REACTORS
330
8E
102
}
330
8E
100
AcDbXrecord
280
     1
270
     1
271
     1
  0
XRECORD
  5
94
102
{ACAD_REACTORS
330
8E
102
}
330
8E
100
AcDbXrecord
280
     1
270
     1
271
     1
  0
XRECORD
  5
91
102
{ACAD_REACTORS
330
8E
102
}
330
8E
100
AcDbXrecord
280
     1
270
     1
271
     1
  0
ACAD_PROXY_OBJECT
  5
102A
102
{ACAD_REACTORS
330
12B
102
}
330
12B
100
AcDbProxyObject
 90
      499
 91
      525
 95
  1310743
 70
     1
100
AcDbCellStyleMap
 90
        3
300
CELLSTYLE
  1
TABLEFORMAT_BEGIN
 90
        5
170
     1
 91
        0
 92
    32768
 62
   257
 93
        1
300
CONTENTFORMAT
  1
CONTENTFORMAT_BEGIN
 90
        0
 91
        0
 92
      512
 93
        0
300

 40
0.0
140
1.0
 94
        5
 62
     0
340
17
144
0.25
309
CONTENTFORMAT_END
171
     1
301
MARGIN
  1
CELLMARGIN_BEGIN
 40
0.06
 40
0.06
 40
0.06
 40
0.06
 40
0.18
 40
0.18
309
CELLMARGIN_END
 94
        6
 95
        1
302
GRIDFORMAT
  1
GRIDFORMAT_BEGIN
 90
        0
 91
        1
 62
     0
 92
       -2
340
0
 93
        0
 40
0.045
309
GRIDFORMAT_END
 95
        2
302
GRIDFORMAT
  1
GRIDFORMAT_BEGIN
 90
        0
 91
        1
 62
     0
 92
       -2
340
0
 93
        0
 40
0.045
309
GRIDFORMAT_END
 95
        4
302
GRIDFORMAT
  1
GRIDFORMAT_BEGIN
 90
        0
 91
        1
 62
     0
 92
       -2
340
0
 93
        0
 40
0.045
309
GRIDFORMAT_END
 95
        8
302
GRIDFORMAT
  1
GRIDFORMAT_BEGIN
 90
        0
 91
        1
 62
     0
 92
       -2
340
0
 93
        0
 40
0.045
309
GRIDFORMAT_END
 95
       16
302
GRIDFORMAT
  1
GRIDFORMAT_BEGIN
 90
        0
 91
        1
 62
     0
 92
       -2
340
0
 93
        0
 40
0.045
309
GRIDFORMAT_END
 95
       32
302
GRIDFORMAT
  1
GRIDFORMAT_BEGIN
 90
        0
 91
        1
 62
     0
 92
       -2
340
0
 93
        0
 40
0.045
309
GRIDFORMAT_END
309
TABLEFORMAT_END
  1
CELLSTYLE_BEGIN
 90
        1
 91
        1
300
_TITLE
309
CELLSTYLE_END
300
CELLSTYLE
  1
TABLEFORMAT_BEGIN
 90
        5
170
     1
 91
        0
 92
        0
 62
   257
 93
        1
300
CONTENTFORMAT
  1
CONTENTFORMAT_BEGIN
 90
        0
 91
        0
 92
      512
 93
        0
300

 40
0.0
140
1.0
 94
        5
 62
     0
340
17
144
0.18
309
CONTENTFORMAT_END
171
     1
301
MARGIN
  1
CELLMARGIN_BEGIN
 40
0.06
 40
0.06
 40
0.06
 40
0.06
 40
0.18
 40
0.18
309
CELLMARGIN_END
 94
        6
 95
        1
302
GRIDFORMAT
  1
GRIDFORMAT_BEGIN
 90
        0
 91
        1
 62
     0
 92
       -2
340
0
 93
        0
 40
0.045
309
GRIDFORMAT_END
 95
        2
302
GRIDFORMAT
  1
GRIDFORMAT_BEGIN
 90
        0
 91
        1
 62
     0
 92
       -2
340
0
 93
        0
 40
0.045
309
GRIDFORMAT_END
 95
        4
302
GRIDFORMAT
  1
GRIDFORMAT_BEGIN
 90
        0
 91
        1
 62
     0
 92
       -2
340
0
 93
        0
 40
0.045
309
GRIDFORMAT_END
 95
        8
302
GRIDFORMAT
  1
GRIDFORMAT_BEGIN
 90
        0
 91
        1
 62
     0
 92
       -2
340
0
 93
        0
 40
0.045
309
GRIDFORMAT_END
 95
       16
302
GRIDFORMAT
  1
GRIDFORMAT_BEGIN
 90
        0
 91
        1
 62
     0
 92
       -2
340
0
 93
        0
 40
0.045
309
GRIDFORMAT_END
 95
       32
302
GRIDFORMAT
  1
GRIDFORMAT_BEGIN
 90
        0
 91
        1
 62
     0
 92
       -2
340
0
 93
        0
 40
0.045
309
GRIDFORMAT_END
309
TABLEFORMAT_END
  1
CELLSTYLE_BEGIN
 90
        2
 91
        1
300
_HEADER
309
CELLSTYLE_END
300
CELLSTYLE
  1
TABLEFORMAT_BEGIN
 90
        5
170
     1
 91
        0
 92
        0
 62
   257
 93
        1
300
CONTENTFORMAT
  1
CONTENTFORMAT_BEGIN
 90
        0
 91
        0
 92
      512
 93
        0
300

 40
0.0
140
1.0
 94
        2
 62
     0
340
17
144
0.18
309
CONTENTFORMAT_END
171
     1
301
MARGIN
  1
CELLMARGIN_BEGIN
 40
0.06
 40
0.06
 40
0.06
 40
0.06
 40
0.18
 40
0.18
309
CELLMARGIN_END
 94
        6
 95
        1
302
GRIDFORMAT
  1
GRIDFORMAT_BEGIN
 90
        0
 91
        1
 62
     0
 92
       -2
340
0
 93
        0
 40
0.045
309
GRIDFORMAT_END
 95
        2
302
GRIDFORMAT
  1
GRIDFORMAT_BEGIN
 90
        0
 91
        1
 62
     0
 92
       -2
340
0
 93
        0
 40
0.045
309
GRIDFORMAT_END
 95
        4
302
GRIDFORMAT
  1
GRIDFORMAT_BEGIN
 90
        0
 91
        1
 62
     0
 92
       -2
340
0
 93
        0
 40
0.045
309
GRIDFORMAT_END
 95
        8
302
GRIDFORMAT
  1
GRIDFORMAT_BEGIN
 90
        0
 91
        1
 62
     0
 92
       -2
340
0
 93
        0
 40
0.045
309
GRIDFORMAT_END
 95
       16
302
GRIDFORMAT
  1
GRIDFORMAT_BEGIN
 90
        0
 91
        1
 62
     0
 92
       -2
340
0
 93
        0
 40
0.045
309
GRIDFORMAT_END
 95
       32
302
GRIDFORMAT
  1
GRIDFORMAT_BEGIN
 90
        0
 91
        1
 62
     0
 92
       -2
340
0
 93
        0
 40
0.045
309
GRIDFORMAT_END
309
TABLEFORMAT_END
  1
CELLSTYLE_BEGIN
 90
        3
 91
        2
300
_DATA
309
CELLSTYLE_END
  0
XRECORD
  5
1030
102
{ACAD_REACTORS
330
12B
102
}
330
12B
100
AcDbXrecord
280
     1
102
ACAD_ROUNDTRIP_PRE2007_TABLESTYLE
 90
      512
 91
        0
  1

 92
      512
 93
        0
  2

 94
      512
 95
        0
  3

  0
ENDSEC
  0
EOF
