  0
SECTION
  2
HEADER
  9
$ACADVER
  1
AC1018
  9
$ACADMAINTVER
 70
   104
  9
$DWGCODEPAGE
  3
ANSI_936
  9
$LASTSAVEDBY
  1
k3
  9
$INSBASE
 10
0.0
 20
0.0
 30
0.0
  9
$EXTMIN
 10
3762.647223700457
 20
959.932692147494
 30
0.0
  9
$EXTMAX
 10
4788.359453700675
 20
1488.248305643601
 30
0.0
  9
$LIMMIN
 10
0.0
 20
0.0
  9
$LIMMAX
 10
0.0
 20
0.0
  9
$ORTHOMODE
 70
     1
  9
$REGENMODE
 70
     1
  9
$FILLMODE
 70
     1
  9
$QTEXTMODE
 70
     0
  9
$MIRRTEXT
 70
     1
  9
$LTSCALE
 40
1.0
  9
$ATTMODE
 70
     1
  9
$TEXTSIZE
 40
0.0
  9
$TRACEWID
 40
0.05
  9
$TEXTSTYLE
  7
Standard
  9
$CLAYER
  8
0
  9
$CELTYPE
  6
Continuous
  9
$CECOLOR
 62
   256
  9
$CELTSCALE
 40
1.0
  9
$DISPSILH
 70
     0
  9
$DIMSCALE
 40
1.0
  9
$DIMASZ
 40
0.4
  9
$DIMEXO
 40
3.0
  9
$DIMDLI
 40
3.0
  9
$DIMRND
 40
0.0
  9
$DIMDLE
 40
3.0
  9
$DIMEXE
 40
10.0
  9
$DIMTP
 40
0.0015
  9
$DIMTM
 40
0.0015
  9
$DIMTXT
 40
20.0
  9
$DIMCEN
 40
2.0
  9
$DIMTSZ
 40
0.0
  9
$DIMTOL
 70
     0
  9
$DIMLIM
 70
     0
  9
$DIMTIH
 70
     0
  9
$DIMTOH
 70
     0
  9
$DIMSE1
 70
     0
  9
$DIMSE2
 70
     0
  9
$DIMTAD
 70
     1
  9
$DIMZIN
 70
     0
  9
$DIMBLK
  1
ArchTick
  9
$DIMASO
 70
     1
  9
$DIMSHO
 70
     1
  9
$DIMPOST
  1

  9
$DIMAPOST
  1

  9
$DIMALT
 70
     0
  9
$DIMALTD
 70
     2
  9
$DIMALTF
 40
25.4
  9
$DIMLFAC
 40
1.0
  9
$DIMTOFL
 70
     0
  9
$DIMTVP
 40
0.0
  9
$DIMTIX
 70
     0
  9
$DIMSOXD
 70
     0
  9
$DIMSAH
 70
     0
  9
$DIMBLK1
  1

  9
$DIMBLK2
  1

  9
$DIMSTYLE
  2
Standard
  9
$DIMCLRD
 70
     3
  9
$DIMCLRE
 70
     0
  9
$DIMCLRT
 70
     0
  9
$DIMTFAC
 40
1.000499999999999
  9
$DIMGAP
 40
5.0
  9
$DIMJUST
 70
     0
  9
$DIMSD1
 70
     0
  9
$DIMSD2
 70
     0
  9
$DIMTOLJ
 70
     1
  9
$DIMTZIN
 70
     0
  9
$DIMALTZ
 70
     0
  9
$DIMALTTZ
 70
     0
  9
$DIMUPT
 70
     0
  9
$DIMDEC
 70
     1
  9
$DIMTDEC
 70
     1
  9
$DIMALTU
 70
     2
  9
$DIMALTTD
 70
     2
  9
$DIMTXSTY
  7
Standard
  9
$DIMAUNIT
 70
     0
  9
$DIMADEC
 70
     0
  9
$DIMALTRND
 40
0.0
  9
$DIMAZIN
 70
     0
  9
$DIMDSEP
 70
     0
  9
$DIMATFIT
 70
     3
  9
$DIMFRAC
 70
     0
  9
$DIMLDRBLK
  1
ArchTick
  9
$DIMLUNIT
 70
     2
  9
$DIMLWD
 70
     0
  9
$DIMLWE
 70
     0
  9
$DIMTMOVE
 70
     0
  9
$LUNITS
 70
     2
  9
$LUPREC
 70
     4
  9
$SKETCHINC
 40
0.1
  9
$FILLETRAD
 40
5.0
  9
$AUNITS
 70
     0
  9
$AUPREC
 70
     0
  9
$MENU
  1
acad
  9
$ELEVATION
 40
0.0
  9
$PELEVATION
 40
0.0
  9
$THICKNESS
 40
0.0
  9
$LIMCHECK
 70
     0
  9
$CHAMFERA
 40
0.0
  9
$CHAMFERB
 40
0.0
  9
$CHAMFERC
 40
0.0
  9
$CHAMFERD
 40
0.0
  9
$SKPOLY
 70
     0
  9
$TDCREATE
 40
2455742.909593090
  9
$TDUCREATE
 40
2455742.576259757
  9
$TDUPDATE
 40
2455757.630934954
  9
$TDUUPDATE
 40
2455757.297601620
  9
$TDINDWG
 40
0.0174097685
  9
$TDUSRTIMER
 40
0.0174097685
  9
$USRTIMER
 70
     1
  9
$ANGBASE
 50
0.0
  9
$ANGDIR
 70
     0
  9
$PDMODE
 70
     0
  9
$PDSIZE
 40
0.0
  9
$PLINEWID
 40
0.0
  9
$SPLFRAME
 70
     0
  9
$SPLINETYPE
 70
     6
  9
$SPLINESEGS
 70
     8
  9
$HANDSEED
  5
2D0D
  9
$SURFTAB1
 70
     6
  9
$SURFTAB2
 70
     6
  9
$SURFTYPE
 70
     6
  9
$SURFU
 70
     6
  9
$SURFV
 70
     6
  9
$UCSBASE
  2

  9
$UCSNAME
  2

  9
$UCSORG
 10
0.0
 20
0.0
 30
0.0
  9
$UCSXDIR
 10
1.0
 20
0.0
 30
0.0
  9
$UCSYDIR
 10
0.0
 20
1.0
 30
0.0
  9
$UCSORTHOREF
  2

  9
$UCSORTHOVIEW
 70
     0
  9
$UCSORGTOP
 10
0.0
 20
0.0
 30
0.0
  9
$UCSORGBOTTOM
 10
0.0
 20
0.0
 30
0.0
  9
$UCSORGLEFT
 10
0.0
 20
0.0
 30
0.0
  9
$UCSORGRIGHT
 10
0.0
 20
0.0
 30
0.0
  9
$UCSORGFRONT
 10
0.0
 20
0.0
 30
0.0
  9
$UCSORGBACK
 10
0.0
 20
0.0
 30
0.0
  9
$PUCSBASE
  2

  9
$PUCSNAME
  2

  9
$PUCSORG
 10
0.0
 20
0.0
 30
0.0
  9
$PUCSXDIR
 10
1.0
 20
0.0
 30
0.0
  9
$PUCSYDIR
 10
0.0
 20
1.0
 30
0.0
  9
$PUCSORTHOREF
  2

  9
$PUCSORTHOVIEW
 70
     0
  9
$PUCSORGTOP
 10
0.0
 20
0.0
 30
0.0
  9
$PUCSORGBOTTOM
 10
0.0
 20
0.0
 30
0.0
  9
$PUCSORGLEFT
 10
0.0
 20
0.0
 30
0.0
  9
$PUCSORGRIGHT
 10
0.0
 20
0.0
 30
0.0
  9
$PUCSORGFRONT
 10
0.0
 20
0.0
 30
0.0
  9
$PUCSORGBACK
 10
0.0
 20
0.0
 30
0.0
  9
$USERI1
 70
     0
  9
$USERI2
 70
     0
  9
$USERI3
 70
     0
  9
$USERI4
 70
     0
  9
$USERI5
 70
     0
  9
$USERR1
 40
0.0
  9
$USERR2
 40
0.0
  9
$USERR3
 40
0.0
  9
$USERR4
 40
0.0
  9
$USERR5
 40
0.0
  9
$WORLDVIEW
 70
     1
  9
$SHADEDGE
 70
     3
  9
$SHADEDIF
 70
    70
  9
$TILEMODE
 70
     1
  9
$MAXACTVP
 70
    16
  9
$PINSBASE
 10
0.0
 20
0.0
 30
0.0
  9
$PLIMCHECK
 70
     0
  9
$PEXTMIN
 10
1.000000000000000E+20
 20
1.000000000000000E+20
 30
1.000000000000000E+20
  9
$PEXTMAX
 10
-1.000000000000000E+20
 20
-1.000000000000000E+20
 30
-1.000000000000000E+20
  9
$PLIMMIN
 10
0.0
 20
0.0
  9
$PLIMMAX
 10
12.0
 20
9.0
  9
$UNITMODE
 70
     0
  9
$VISRETAIN
 70
     0
  9
$PLINEGEN
 70
     1
  9
$PSLTSCALE
 70
     0
  9
$TREEDEPTH
 70
  3020
  9
$CMLSTYLE
  2
Standard
  9
$CMLJUST
 70
     0
  9
$CMLSCALE
 40
1.0
  9
$PROXYGRAPHICS
 70
     0
  9
$MEASUREMENT
 70
     0
  9
$CELWEIGHT
370
     0
  9
$ENDCAPS
280
     0
  9
$JOINSTYLE
280
     0
  9
$LWDISPLAY
290
     0
  9
$INSUNITS
 70
     0
  9
$HYPERLINKBASE
  1

  9
$STYLESHEET
  1

  9
$XEDIT
290
     1
  9
$CEPSNTYPE
380
     0
  9
$PSTYLEMODE
290
     1
  9
$FINGERPRINTGUID
  2
{08420E63-788E-4C00-A23B-F6EBF3D823A6}
  9
$VERSIONGUID
  2
{3C097B0B-C536-4E11-95F3-52F34E147402}
  9
$EXTNAMES
290
     1
  9
$PSVPSCALE
 40
0.0
  9
$OLESTARTUP
290
     0
  9
$SORTENTS
280
   127
  9
$INDEXCTL
280
     0
  9
$HIDETEXT
280
     0
  9
$XCLIPFRAME
290
     0
  9
$HALOGAP
280
     0
  9
$OBSCOLOR
 70
   257
  9
$OBSLTYPE
280
     0
  9
$INTERSECTIONDISPLAY
280
     0
  9
$INTERSECTIONCOLOR
 70
   257
  9
$DIMASSOC
280
     1
  9
$PROJECTNAME
  1

  0
ENDSEC
  0
SECTION
  2
CLASSES
  0
CLASS
  1
IMAGE
  2
AcDbRasterImage
  3
ISM
 90
     2175
 91
        0
280
     0
281
     1
  0
CLASS
  1
DICTIONARYVAR
  2
AcDbDictionaryVar
  3
ObjectDBX Classes
 90
        0
 91
        8
280
     0
281
     0
  0
CLASS
  1
RASTERVARIABLES
  2
AcDbRasterVariables
  3
ISM
 90
        0
 91
        0
280
     0
281
     0
  0
CLASS
  1
IMAGEDEF
  2
AcDbRasterImageDef
  3
ISM
 90
        0
 91
        0
280
     0
281
     0
  0
CLASS
  1
IMAGEDEF_REACTOR
  2
AcDbRasterImageDefReactor
  3
ISM
 90
        1
 91
        0
280
     0
281
     0
  0
CLASS
  1
IDBUFFER
  2
AcDbIdBuffer
  3
ObjectDBX Classes
 90
        0
 91
        0
280
     0
281
     0
  0
CLASS
  1
SPATIAL_FILTER
  2
AcDbSpatialFilter
  3
ObjectDBX Classes
 90
        0
 91
        0
280
     0
281
     0
  0
CLASS
  1
SORTENTSTABLE
  2
AcDbSortentsTable
  3
ObjectDBX Classes
 90
        0
 91
        3
280
     0
281
     0
  0
CLASS
  1
LAYER_INDEX
  2
AcDbLayerIndex
  3
ObjectDBX Classes
 90
        0
 91
        0
280
     0
281
     0
  0
CLASS
  1
SPATIAL_INDEX
  2
AcDbSpatialIndex
  3
ObjectDBX Classes
 90
        0
 91
        0
280
     0
281
     0
  0
CLASS
  1
OBJECT_PTR
  2
CAseDLPNTableRecord
  3
ASE-LPNTableRecord
 90
        1
 91
        0
280
     0
281
     0
  0
CLASS
  1
PLOTSETTINGS
  2
AcDbPlotSettings
  3
ObjectDBX Classes
 90
        0
 91
        0
280
     0
281
     0
  0
CLASS
  1
ACDBDICTIONARYWDFLT
  2
AcDbDictionaryWithDefault
  3
ObjectDBX Classes
 90
        0
 91
        1
280
     0
281
     0
  0
CLASS
  1
WIPEOUT
  2
AcDbWipeout
  3
"WipeOut|Product Desc: Object Enabler for WipeOut entity                        |Company: Autodesk, Inc.                        |WEB Address: www.autodesk.com"
 90
     2175
 91
        0
280
     0
281
     1
  0
CLASS
  1
WIPEOUTVARIABLES
  2
AcDbWipeoutVariables
  3
"WipeOut|Product Desc:     WipeOut Dbx Application|Company:          Autodesk, Inc.|WEB Address:      www.autodesk.com"
 90
        0
 91
        1
280
     0
281
     0
  0
CLASS
  1
RTEXT
  2
RText
  3
RText|AutoCAD Express Tool|expresstools@autodesk.com
 90
        0
 91
        0
280
     0
281
     1
  0
CLASS
  1
ARCALIGNEDTEXT
  2
AcDbArcAlignedText
  3
ATEXT|AutoCAD Express Tool|expresstools@autodesk.com
 90
        0
 91
        0
280
     0
281
     1
  0
CLASS
  1
MATERIAL
  2
AcDbMaterial
  3
ObjectDBX Classes
 90
     1153
 91
        3
280
     0
281
     0
  0
CLASS
  1
VISUALSTYLE
  2
AcDbVisualStyle
  3
ObjectDBX Classes
 90
     4095
 91
       16
280
     0
281
     0
  0
CLASS
  1
TABLESTYLE
  2
AcDbTableStyle
  3
ObjectDBX Classes
 90
     4095
 91
        1
280
     0
281
     0
  0
CLASS
  1
SCALE
  2
AcDbScale
  3
ObjectDBX Classes
 90
     1153
 91
       33
280
     0
281
     0
  0
CLASS
  1
MLEADERSTYLE
  2
AcDbMLeaderStyle
  3
ACDB_MLEADERSTYLE_CLASS
 90
     4095
 91
        1
280
     0
281
     0
  0
CLASS
  1
CELLSTYLEMAP
  2
AcDbCellStyleMap
  3
ObjectDBX Classes
 90
     1152
 91
        7
280
     0
281
     0
  0
ENDSEC
  0
SECTION
  2
TABLES
  0
TABLE
  2
VPORT
  5
7
102
{ACAD_XDICTIONARY
360
29D7
102
}
330
0
100
AcDbSymbolTable
 70
     1
  0
VPORT
  5
29F8
330
7
100
AcDbSymbolTableRecord
100
AcDbViewportTableRecord
  2
*Active
 70
     0
 10
0.0
 20
0.0
 11
1.0
 21
1.0
 12
4599.190005846727
 22
1323.992163720216
 13
0.0
 23
0.0
 14
1.0
 24
1.0
 15
0.0
 25
0.0
 16
0.0
 26
0.0
 36
1.0
 17
0.0
 27
0.0
 37
0.0
 40
1146.50536142755
 41
1.565485362095531
 42
50.0
 43
0.0
 44
0.0
 50
0.0
 51
0.0
 71
     0
 72
   100
 73
     1
 74
     1
 75
     0
 76
     0
 77
     0
 78
     0
281
     0
 65
     0
110
0.0
120
0.0
130
0.0
111
1.0
121
0.0
131
0.0
112
0.0
122
1.0
132
0.0
 79
     0
146
0.0
  0
ENDTAB
  0
TABLE
  2
LTYPE
  5
4
330
0
100
AcDbSymbolTable
 70
    11
  0
LTYPE
  5
11
330
4
100
AcDbSymbolTableRecord
100
AcDbLinetypeTableRecord
  2
ByBlock
 70
     0
  3

 72
    65
 73
     0
 40
0.0
  0
LTYPE
  5
12
330
4
100
AcDbSymbolTableRecord
100
AcDbLinetypeTableRecord
  2
ByLayer
 70
     0
  3

 72
    65
 73
     0
 40
0.0
  0
LTYPE
  5
13
330
4
100
AcDbSymbolTableRecord
100
AcDbLinetypeTableRecord
  2
Continuous
 70
     0
  3
Solid line
 72
    65
 73
     0
 40
0.0
  0
LTYPE
  5
25
330
4
100
AcDbSymbolTableRecord
100
AcDbLinetypeTableRecord
  2
\U+00D0¨¦\U+00CF\U+00DF
 70
     0
  3
\U+00D0¨¦\U+00CF\U+00DF
 72
    65
 73
     2
 40
0.125
 49
0.0
 74
     0
 49
-0.125
 74
     0
  0
LTYPE
  5
26
330
4
100
AcDbSymbolTableRecord
100
AcDbLinetypeTableRecord
  2
\U+00D6\U+00D0\U+00D0\U+00C4\U+00CF\U+00DF
 70
     0
  3
\U+00D6\U+00D0\U+00D0\U+00C4\U+00CF\U+00DF
 72
    65
 73
     4
 40
43.0
 49
40.0
 74
     0
 49
-1.0
 74
     0
 49
1.0
 74
     0
 49
-1.0
 74
     0
  0
LTYPE
  5
27
330
4
100
AcDbSymbolTableRecord
100
AcDbLinetypeTableRecord
  2
\U+00C6\U+00C6\U+00D5\U+00DB\U+00CF\U+00DF
 70
     0
  3
\U+00C6\U+00C6\U+00D5\U+00DB\U+00CF\U+00DF
 72
    65
 73
     2
 40
4.0
 49
3.0
 74
     0
 49
-1.0
 74
     0
  0
LTYPE
  5
28
330
4
100
AcDbSymbolTableRecord
100
AcDbLinetypeTableRecord
  2
\U+00D2\U+00FE\U+00B2\U+00D8\U+00CF\U+00DF
 70
     0
  3
\U+00D2\U+00FE\U+00B2\U+00D8\U+00CF\U+00DF
 72
    65
 73
     2
 40
3.0
 49
2.0
 74
     0
 49
-1.0
 74
     0
  0
LTYPE
  5
29
330
4
100
AcDbSymbolTableRecord
100
AcDbLinetypeTableRecord
  2
\U+00BC\U+00D9\U+00CF\U+00EB\U+00CF\U+00DF
 70
     0
  3
\U+00BC\U+00D9\U+00CF\U+00EB\U+00CF\U+00DF
 72
    65
 73
     6
 40
35.0
 49
30.0
 74
     0
 49
-1.0
 74
     0
 49
1.0
 74
     0
 49
-1.0
 74
     0
 49
1.0
 74
     0
 49
-1.0
 74
     0
  0
LTYPE
  5
2A
330
4
100
AcDbSymbolTableRecord
100
AcDbLinetypeTableRecord
  2
\U+00B5\U+00E3\U+00BB\U+00AD\U+00CF\U+00DF
 70
     0
  3
\U+00B5\U+00E3\U+00BB\U+00AD\U+00CF\U+00DF
 72
    65
 73
     4
 40
33.0
 49
30.0
 74
     0
 49
-1.0
 74
     0
 49
1.0
 74
     0
 49
-1.0
 74
     0
  0
LTYPE
  5
2B
330
4
100
AcDbSymbolTableRecord
100
AcDbLinetypeTableRecord
  2
¡À\U+00DF\U+00BD\U+00E7\U+00CF\U+00DF
 70
     0
  3
¡À\U+00DF\U+00BD\U+00E7\U+00CF\U+00DF
 72
    65
 73
     4
 40
23.0
 49
20.0
 74
     0
 49
-1.0
 74
     0
 49
1.0
 74
     0
 49
-1.0
 74
     0
  0
LTYPE
  5
2C
330
4
100
AcDbSymbolTableRecord
100
AcDbLinetypeTableRecord
  2
¡¤\U+00D6\U+00B8\U+00EE\U+00CF\U+00DF
 70
     0
  3
¡¤\U+00D6\U+00B8\U+00EE\U+00CF\U+00DF
 72
    65
 73
     6
 40
25.0
 49
20.0
 74
     0
 49
-1.0
 74
     0
 49
1.0
 74
     0
 49
-1.0
 74
     0
 49
1.0
 74
     0
 49
-1.0
 74
     0
  0
LTYPE
  5
2D
330
4
100
AcDbSymbolTableRecord
100
AcDbLinetypeTableRecord
  2
\U+00C7\U+00D0\U+00B8\U+00EE\U+00CF\U+00DF
 70
     0
  3
\U+00C7\U+00D0\U+00B8\U+00EE\U+00CF\U+00DF
 72
    65
 73
     6
 40
45.0
 49
40.0
 74
     0
 49
-1.0
 74
     0
 49
1.0
 74
     0
 49
-1.0
 74
     0
 49
1.0
 74
     0
 49
-1.0
 74
     0
  0
LTYPE
  5
2E
330
4
100
AcDbSymbolTableRecord
100
AcDbLinetypeTableRecord
  2
¡¤¨¬\U+00BA\U+00CF\U+00CF\U+00DF
 70
     0
  3
¡¤¨¬\U+00BA\U+00CF\U+00CF\U+00DF
 72
    65
 73
     2
 40
2.0
 49
1.0
 74
     0
 49
-1.0
 74
     0
  0
ENDTAB
  0
TABLE
  2
LAYER
  5
2
330
0
100
AcDbSymbolTable
 70
    15
  0
LAYER
  5
14
102
{ACAD_XDICTIONARY
360
10C
102
}
330
2
100
AcDbSymbolTableRecord
100
AcDbLayerTableRecord
  2
0
 70
     0
 62
     7
  6
Continuous
370
    -3
390
1D
  0
LAYER
  5
2F
102
{ACAD_XDICTIONARY
360
10E
102
}
330
2
100
AcDbSymbolTableRecord
100
AcDbLayerTableRecord
  2
$FF
 70
     0
 62
     7
  6
Continuous
370
    -3
390
1D
  0
LAYER
  5
30
102
{ACAD_XDICTIONARY
360
110
102
}
330
2
100
AcDbSymbolTableRecord
100
AcDbLayerTableRecord
  2
CREASE
 70
     0
 62
     3
  6
Continuous
370
    -3
390
1D
  0
LAYER
  5
31
102
{ACAD_XDICTIONARY
360
112
102
}
330
2
100
AcDbSymbolTableRecord
100
AcDbLayerTableRecord
  2
CUT
 70
     0
 62
     7
  6
Continuous
370
    -3
390
1D
  0
LAYER
  5
32
102
{ACAD_XDICTIONARY
360
114
102
}
330
2
100
AcDbSymbolTableRecord
100
AcDbLayerTableRecord
  2
CUT2
 70
     0
 62
     6
  6
Continuous
370
    -3
390
1D
  0
LAYER
  5
33
102
{ACAD_XDICTIONARY
360
116
102
}
330
2
100
AcDbSymbolTableRecord
100
AcDbLayerTableRecord
  2
DIMENSION
 70
     0
 62
     7
  6
Continuous
370
    -3
390
1D
  0
LAYER
  5
34
102
{ACAD_XDICTIONARY
360
118
102
}
330
2
100
AcDbSymbolTableRecord
100
AcDbLayerTableRecord
  2
$FF$FF
 70
     0
 62
     7
  6
Continuous
370
     0
390
1D
  0
LAYER
  5
35
102
{ACAD_XDICTIONARY
360
11A
102
}
330
2
100
AcDbSymbolTableRecord
100
AcDbLayerTableRecord
  2
CONSTRUCTION
 70
     0
 62
     7
  6
Continuous
370
     0
390
1D
  0
LAYER
  5
36
102
{ACAD_XDICTIONARY
360
11C
102
}
330
2
100
AcDbSymbolTableRecord
100
AcDbLayerTableRecord
  2
CREASE1
 70
     0
 62
     7
  6
Continuous
370
     0
390
1D
  0
LAYER
  5
38
102
{ACAD_XDICTIONARY
360
11E
102
}
330
2
100
AcDbSymbolTableRecord
100
AcDbLayerTableRecord
  2
DESIGN
 70
     0
 62
     7
  6
Continuous
370
    -3
390
1D
  0
LAYER
  5
39
102
{ACAD_XDICTIONARY
360
120
102
}
330
2
100
AcDbSymbolTableRecord
100
AcDbLayerTableRecord
  2
LAYER1
 70
     0
 62
     7
  6
Continuous
370
    -3
390
1D
  0
LAYER
  5
3A
330
2
100
AcDbSymbolTableRecord
100
AcDbLayerTableRecord
  2
DEFPOINTS
 70
     0
 62
     7
  6
Continuous
290
     0
370
    -3
390
1D
  0
LAYER
  5
3B
102
{ACAD_XDICTIONARY
360
122
102
}
330
2
100
AcDbSymbolTableRecord
100
AcDbLayerTableRecord
  2
$FF$
 70
     0
 62
     7
  6
Continuous
370
    -3
390
1D
  0
LAYER
  5
383
330
2
100
AcDbSymbolTableRecord
100
AcDbLayerTableRecord
  2
Í¼²ã 2
 70
     0
 62
     7
  6
Continuous
370
    -3
390
1D
  0
LAYER
  5
FB6
330
2
100
AcDbSymbolTableRecord
100
AcDbLayerTableRecord
  2
GREEN
 70
     0
 62
     3
  6
Continuous
370
    -3
390
1D
  0
ENDTAB
  0
TABLE
  2
STYLE
  5
3
330
0
100
AcDbSymbolTable
 70
     2
  0
STYLE
  5
17
330
3
100
AcDbSymbolTableRecord
100
AcDbTextStyleTableRecord
  2
Standard
 70
     0
 40
0.0
 41
1.0
 50
0.0
 71
     0
 42
0.0
  3
txt
  4

  0
STYLE
  5
24
330
3
100
AcDbSymbolTableRecord
100
AcDbTextStyleTableRecord
  2
Plotter
 70
     0
 40
0.0
 41
0.98
 50
0.0
 71
     0
 42
0.0
  3
SIMPLEX
  4

  0
ENDTAB
  0
TABLE
  2
VIEW
  5
5
330
0
100
AcDbSymbolTable
 70
    16
  0
ENDTAB
  0
TABLE
  2
UCS
  5
6
330
0
100
AcDbSymbolTable
 70
     0
  0
ENDTAB
  0
TABLE
  2
APPID
  5
8
330
0
100
AcDbSymbolTable
 70
    17
  0
APPID
  5
16
330
8
100
AcDbSymbolTableRecord
100
AcDbRegAppTableRecord
  2
ACAD
 70
     0
  0
APPID
  5
CD
330
8
100
AcDbSymbolTableRecord
100
AcDbRegAppTableRecord
  2
ACAD_MLEADERVER
 70
     0
  0
APPID
  5
E3
330
8
100
AcDbSymbolTableRecord
100
AcDbRegAppTableRecord
  2
ACAD_EXEMPT_FROM_CAD_STANDARDS
 70
     0
  0
APPID
  5
101
330
8
100
AcDbSymbolTableRecord
100
AcDbRegAppTableRecord
  2
DCO15
 70
     0
  0
APPID
  5
387
330
8
100
AcDbSymbolTableRecord
100
AcDbRegAppTableRecord
  2
ACAD_PSEXT
 70
     0
  0
APPID
  5
388
330
8
100
AcDbSymbolTableRecord
100
AcDbRegAppTableRecord
  2
AcadAnnotative
 70
     0
  0
APPID
  5
389
330
8
100
AcDbSymbolTableRecord
100
AcDbRegAppTableRecord
  2
ACAD_DSTYLE_DIMJAG
 70
     0
  0
APPID
  5
38A
330
8
100
AcDbSymbolTableRecord
100
AcDbRegAppTableRecord
  2
ACAD_DSTYLE_DIMTALN
 70
     0
  0
APPID
  5
10D2
330
8
100
AcDbSymbolTableRecord
100
AcDbRegAppTableRecord
  2
ACAD_DSTYLE_DIMRADIAL_EXTENSION
 70
     0
  0
APPID
  5
12ED
330
8
100
AcDbSymbolTableRecord
100
AcDbRegAppTableRecord
  2
ACAD_DSTYLE_DIMTEXT_FILL
 70
     0
  0
APPID
  5
12EE
330
8
100
AcDbSymbolTableRecord
100
AcDbRegAppTableRecord
  2
ACAD_DSTYLE_DIMEXT_LENGTH
 70
     0
  0
APPID
  5
12EF
330
8
100
AcDbSymbolTableRecord
100
AcDbRegAppTableRecord
  2
ACAD_DSTYLE_DIMEXT_ENABLED
 70
     0
  0
APPID
  5
12F0
330
8
100
AcDbSymbolTableRecord
100
AcDbRegAppTableRecord
  2
ACAD_DSTYLE_DIM_LINETYPE
 70
     0
  0
APPID
  5
12F1
330
8
100
AcDbSymbolTableRecord
100
AcDbRegAppTableRecord
  2
ACAD_DSTYLE_DIM_EXT1_LINETYPE
 70
     0
  0
APPID
  5
12F2
330
8
100
AcDbSymbolTableRecord
100
AcDbRegAppTableRecord
  2
ACAD_DSTYLE_DIM_EXT2_LINETYPE
 70
     0
  0
APPID
  5
13AE
330
8
100
AcDbSymbolTableRecord
100
AcDbRegAppTableRecord
  2
ACAD_DSTYLE_DIMJOGGED_JOGANGLE_SYMBOL
 70
     0
  0
APPID
  5
1832
330
8
100
AcDbSymbolTableRecord
100
AcDbRegAppTableRecord
  2
ACAD_DSTYLE_DIMARC_LENGTH_SYMBOL
 70
     0
  0
ENDTAB
  0
TABLE
  2
DIMSTYLE
  5
9
330
0
100
AcDbSymbolTable
 70
     3
100
AcDbDimStyleTable
 71
     1
340
18
  0
DIMSTYLE
105
18
102
{ACAD_REACTORS
330
1240
330
251E
330
25C0
330
11BE
330
11BF
330
11C0
330
2A31
330
2A3F
330
2A55
330
2A7D
330
2A89
330
2A94
330
2AAA
330
2AB7
330
2AF2
330
2B08
330
2B13
330
2B20
330
2C78
102
}
330
9
100
AcDbSymbolTableRecord
100
AcDbDimStyleTableRecord
  2
Standard
 70
     0
340
17
  0
DIMSTYLE
105
385
330
9
100
AcDbSymbolTableRecord
100
AcDbDimStyleTableRecord
  2
ISO-25
 70
     0
 41
2.5
 42
0.625
 43
3.75
 44
1.25
 73
     0
 74
     0
 77
     1
 78
     8
140
2.5
141
2.5
143
0.03937007874016
147
0.625
171
     3
172
     1
271
     2
272
     2
274
     3
278
    44
283
     0
284
     8
340
17
  0
DIMSTYLE
105
386
330
9
100
AcDbSymbolTableRecord
100
AcDbDimStyleTableRecord
  2
Annotative
 70
     0
 40
0.0
 41
2.5
 42
0.625
 43
3.75
 44
1.25
 73
     0
 74
     0
 77
     1
 78
     8
140
2.5
141
2.5
143
0.03937007874016
147
0.625
171
     3
172
     1
271
     2
272
     2
274
     3
278
    44
283
     0
284
     8
340
17
1001
AcadAnnotative
1000
AnnotativeData
1002
{
1070
     1
1070
     1
1002
}
1001
ACAD_DSTYLE_DIMJAG
1070
   388
1040
1.5
1001
ACAD_DSTYLE_DIMTALN
1070
   392
1070
     0
  0
ENDTAB
  0
TABLE
  2
BLOCK_RECORD
  5
1
330
0
100
AcDbSymbolTable
 70
    23
  0
BLOCK_RECORD
  5
A
102
{ACAD_XDICTIONARY
360
DF
102
}
330
1
100
AcDbSymbolTableRecord
100
AcDbBlockTableRecord
  2
*MODEL_SPACE
340
20
  0
BLOCK_RECORD
  5
B
330
1
100
AcDbSymbolTableRecord
100
AcDbBlockTableRecord
  2
*PAPER_SPACE
340
21
  0
BLOCK_RECORD
  5
1172
330
1
100
AcDbSymbolTableRecord
100
AcDbBlockTableRecord
  2
*D0
340
0
  0
BLOCK_RECORD
  5
117F
330
1
100
AcDbSymbolTableRecord
100
AcDbBlockTableRecord
  2
*D1
340
0
  0
BLOCK_RECORD
  5
1187
330
1
100
AcDbSymbolTableRecord
100
AcDbBlockTableRecord
  2
*D2
340
0
  0
BLOCK_RECORD
  5
1195
102
{ACAD_XDICTIONARY
360
11C3
102
}
330
1
100
AcDbSymbolTableRecord
100
AcDbBlockTableRecord
  2
A$C4E510C91
340
0
  0
BLOCK_RECORD
  5
1203
102
{ACAD_XDICTIONARY
360
1212
102
}
330
1
100
AcDbSymbolTableRecord
100
AcDbBlockTableRecord
  2
A$C2F79653B
340
0
  0
BLOCK_RECORD
  5
1243
330
1
100
AcDbSymbolTableRecord
100
AcDbBlockTableRecord
  2
*D5
340
0
  0
BLOCK_RECORD
  5
1258
330
1
100
AcDbSymbolTableRecord
100
AcDbBlockTableRecord
  2
*D6
340
0
  0
BLOCK_RECORD
  5
12DF
330
1
100
AcDbSymbolTableRecord
100
AcDbBlockTableRecord
  2
_ArchTick
340
0
102
{BLKREFS
331
2AE3
331
2AE4
331
2AEC
331
2AED
331
2B69
331
2B6A
331
2B72
331
2B73
331
2BD4
331
2BDB
331
2BE2
331
2C2D
331
2C2E
331
2C6F
331
2C70
331
2C80
331
2C81
331
2C9D
331
2CC3
331
2CC4
331
2CE7
331
2CE8
102
}
  0
BLOCK_RECORD
  5
251F
330
1
100
AcDbSymbolTableRecord
100
AcDbBlockTableRecord
  2
*D8
340
0
  0
BLOCK_RECORD
  5
25C1
330
1
100
AcDbSymbolTableRecord
100
AcDbBlockTableRecord
  2
*D9
340
0
  0
BLOCK_RECORD
  5
2A32
330
1
100
AcDbSymbolTableRecord
100
AcDbBlockTableRecord
  2
*D10
340
0
  0
BLOCK_RECORD
  5
2A40
330
1
100
AcDbSymbolTableRecord
100
AcDbBlockTableRecord
  2
*D11
340
0
  0
BLOCK_RECORD
  5
2A56
330
1
100
AcDbSymbolTableRecord
100
AcDbBlockTableRecord
  2
*D12
340
0
  0
BLOCK_RECORD
  5
2A7E
330
1
100
AcDbSymbolTableRecord
100
AcDbBlockTableRecord
  2
*D13
340
0
  0
BLOCK_RECORD
  5
2A8A
330
1
100
AcDbSymbolTableRecord
100
AcDbBlockTableRecord
  2
*D14
340
0
  0
BLOCK_RECORD
  5
2A95
330
1
100
AcDbSymbolTableRecord
100
AcDbBlockTableRecord
  2
*D15
340
0
  0
BLOCK_RECORD
  5
2AAB
330
1
100
AcDbSymbolTableRecord
100
AcDbBlockTableRecord
  2
*D16
340
0
  0
BLOCK_RECORD
  5
2AB8
330
1
100
AcDbSymbolTableRecord
100
AcDbBlockTableRecord
  2
*D17
340
0
  0
BLOCK_RECORD
  5
2AF3
330
1
100
AcDbSymbolTableRecord
100
AcDbBlockTableRecord
  2
*D18
340
0
  0
BLOCK_RECORD
  5
2B09
330
1
100
AcDbSymbolTableRecord
100
AcDbBlockTableRecord
  2
*D19
340
0
  0
BLOCK_RECORD
  5
2B14
330
1
100
AcDbSymbolTableRecord
100
AcDbBlockTableRecord
  2
*D20
340
0
  0
BLOCK_RECORD
  5
2B21
330
1
100
AcDbSymbolTableRecord
100
AcDbBlockTableRecord
  2
*D21
340
0
  0
BLOCK_RECORD
  5
2C79
330
1
100
AcDbSymbolTableRecord
100
AcDbBlockTableRecord
  2
*D22
340
0
  0
ENDTAB
  0
ENDSEC
  0
SECTION
  2
BLOCKS
  0
BLOCK
  5
D
330
A
100
AcDbEntity
  8
0
100
AcDbBlockBegin
  2
*MODEL_SPACE
 70
     0
 10
0.0
 20
0.0
 30
0.0
  3
*MODEL_SPACE
  1

  0
ENDBLK
  5
E
330
A
100
AcDbEntity
  8
0
100
AcDbBlockEnd
  0
BLOCK
  5
F
330
B
100
AcDbEntity
 67
     1
  8
0
100
AcDbBlockBegin
  2
*PAPER_SPACE
 70
     0
 10
0.0
 20
0.0
 30
0.0
  3
*PAPER_SPACE
  1

  0
ENDBLK
  5
10
330
B
100
AcDbEntity
 67
     1
  8
0
100
AcDbBlockEnd
  0
BLOCK
  5
1173
330
1172
100
AcDbEntity
  8
0
370
     0
100
AcDbBlockBegin
  2
*D0
 70
     1
 10
0.0
 20
0.0
 30
0.0
  3
*D0
  1

  0
LINE
  5
1174
330
1172
100
AcDbEntity
  8
0
  6
Continuous
 62
     0
370
     0
100
AcDbLine
 10
3810.40343133509
 20
358.0689181074331
 30
0.0
 11
3810.40343133509
 21
367.0812873696843
 31
0.0
  0
LINE
  5
1175
330
1172
100
AcDbEntity
  8
0
  6
Continuous
 62
     0
370
     0
100
AcDbLine
 10
3819.40343133509
 20
358.068918107433
 30
0.0
 11
3819.40343133509
 21
367.0812873696843
 31
0.0
  0
LINE
  5
1176
330
1172
100
AcDbEntity
  8
0
  6
Continuous
 62
     0
370
     0
100
AcDbLine
 10
3805.40343133509
 20
366.9012873696843
 30
0.0
 11
3800.403431335091
 21
366.9012873696843
 31
0.0
  0
LINE
  5
1177
330
1172
100
AcDbEntity
  8
0
  6
Continuous
 62
     0
370
     0
100
AcDbLine
 10
3824.40343133509
 20
366.9012873696843
 30
0.0
 11
3829.40343133509
 21
366.9012873696843
 31
0.0
  0
SOLID
  5
1178
330
1172
100
AcDbEntity
  8
0
  6
Continuous
 62
     0
370
     0
100
AcDbTrace
 10
3805.40343133509
 20
367.7346207030177
 30
0.0
 11
3805.40343133509
 21
366.0679540363509
 31
0.0
 12
3810.40343133509
 22
366.9012873696843
 32
0.0
 13
3810.40343133509
 23
366.9012873696843
 33
0.0
  0
SOLID
  5
1179
330
1172
100
AcDbEntity
  8
0
  6
Continuous
 62
     0
370
     0
100
AcDbTrace
 10
3824.40343133509
 20
367.7346207030177
 30
0.0
 11
3824.40343133509
 21
366.0679540363509
 31
0.0
 12
3819.40343133509
 22
366.9012873696843
 32
0.0
 13
3819.40343133509
 23
366.9012873696843
 33
0.0
  0
MTEXT
  5
117A
330
1172
100
AcDbEntity
  8
0
  6
Continuous
 62
     0
370
     0
100
AcDbMText
 10
3851.160098001757
 20
366.9012873696843
 30
0.0
 40
10.0
 41
0.0
 71
     5
 72
     1
  1
\A1;9.0000
 73
     1
 44
1.0
  0
POINT
  5
117B
330
1172
100
AcDbEntity
  8
DEFPOINTS
  6
Continuous
 62
     0
370
     0
100
AcDbPoint
 10
3810.40343133509
 20
358.0064181074331
 30
0.0
  0
POINT
  5
117C
330
1172
100
AcDbEntity
  8
DEFPOINTS
  6
Continuous
 62
     0
370
     0
100
AcDbPoint
 10
3819.40343133509
 20
358.006418107433
 30
0.0
  0
POINT
  5
117D
330
1172
100
AcDbEntity
  8
DEFPOINTS
  6
Continuous
 62
     0
370
     0
100
AcDbPoint
 10
3819.40343133509
 20
366.9012873696843
 30
0.0
  0
ENDBLK
  5
117E
330
1172
100
AcDbEntity
  8
0
370
     0
100
AcDbBlockEnd
  0
BLOCK
  5
1180
330
117F
100
AcDbEntity
  8
0
370
     0
100
AcDbBlockBegin
  2
*D1
 70
     1
 10
0.0
 20
0.0
 30
0.0
  3
*D1
  1

  0
LINE
  5
1181
330
117F
100
AcDbEntity
  8
0
  6
Continuous
 62
     0
370
     0
100
AcDbLine
 10
3482.688000892859
 20
358.0064181074343
 30
0.0
 11
3542.688000892859
 21
358.0064181074332
 31
0.0
  0
MTEXT
  5
1182
330
117F
100
AcDbEntity
  8
0
  6
Continuous
 62
     0
370
     0
100
AcDbMText
 10
3469.264667559526
 20
358.0064181074343
 30
0.0
 40
10.0
 41
0.0
 71
     5
 72
     1
  1
\A1;R65
 73
     1
 44
1.0
  0
SOLID
  5
1183
330
117F
100
AcDbEntity
  8
0
  6
Continuous
 62
     0
370
     0
100
AcDbTrace
 10
3542.688000892859
 20
358.8397514407665
 30
0.0
 11
3542.688000892859
 21
357.1730847740999
 31
0.0
 12
3547.688000892859
 22
358.0064181074331
 32
0.0
 13
3547.688000892859
 23
358.0064181074331
 33
0.0
  0
POINT
  5
1184
330
117F
100
AcDbEntity
  8
DEFPOINTS
  6
Continuous
 62
     0
370
     0
100
AcDbPoint
 10
3547.688000892859
 20
358.0064181074331
 30
0.0
  0
POINT
  5
1185
330
117F
100
AcDbEntity
  8
DEFPOINTS
  6
Continuous
 62
     0
370
     0
100
AcDbPoint
 10
3482.68800089286
 20
358.0064181074342
 30
0.0
  0
ENDBLK
  5
1186
330
117F
100
AcDbEntity
  8
0
370
     0
100
AcDbBlockEnd
  0
BLOCK
  5
1188
330
1187
100
AcDbEntity
  8
0
370
     0
100
AcDbBlockBegin
  2
*D2
 70
     1
 10
0.0
 20
0.0
 30
0.0
  3
*D2
  1

  0
LINE
  5
1189
330
1187
100
AcDbEntity
  8
0
  6
Continuous
 62
     0
370
     0
100
AcDbLine
 10
3558.12550089286
 20
420.0064181074329
 30
0.0
 11
3527.658141308469
 21
420.0064181074329
 31
0.0
  0
LINE
  5
118A
330
1187
100
AcDbEntity
  8
0
  6
Continuous
 62
     0
370
     0
100
AcDbLine
 10
3558.125500892859
 20
430.0064181074331
 30
0.0
 11
3527.658141308469
 21
430.0064181074331
 31
0.0
  0
LINE
  5
118B
330
1187
100
AcDbEntity
  8
0
  6
Continuous
 62
     0
370
     0
100
AcDbLine
 10
3527.838141308468
 20
422.0064181074331
 30
0.0
 11
3527.838141308468
 21
428.006418107433
 31
0.0
  0
LINE
  5
118C
330
1187
100
AcDbEntity
  8
0
  6
Continuous
 62
     0
370
     0
100
AcDbLine
 10
3527.838141308468
 20
430.0064181074331
 30
0.0
 11
3527.838141308468
 21
464.1929906149126
 31
0.0
  0
LINE
  5
118D
330
1187
100
AcDbEntity
  8
0
  6
Continuous
 62
     0
370
     0
100
AcDbLine
 10
3527.838141308468
 20
464.1929906149126
 30
0.0
 11
3529.83814130847
 21
464.1929906149126
 31
0.0
  0
SOLID
  5
118E
330
1187
100
AcDbEntity
  8
0
  6
Continuous
 62
     0
370
     0
100
AcDbTrace
 10
3527.504807975134
 20
422.0064181074331
 30
0.0
 11
3528.171474641802
 21
422.0064181074331
 31
0.0
 12
3527.838141308468
 22
420.0064181074329
 32
0.0
 13
3527.838141308468
 23
420.0064181074329
 33
0.0
  0
SOLID
  5
118F
330
1187
100
AcDbEntity
  8
0
  6
Continuous
 62
     0
370
     0
100
AcDbTrace
 10
3527.504807975134
 20
428.006418107433
 30
0.0
 11
3528.171474641802
 21
428.006418107433
 31
0.0
 12
3527.838141308468
 22
430.0064181074331
 32
0.0
 13
3527.838141308468
 23
430.0064181074331
 33
0.0
  0
MTEXT
  5
1190
330
1187
100
AcDbEntity
  8
0
  6
Continuous
 62
     0
370
     0
100
AcDbMText
 10
3548.261474641801
 20
464.1929906149131
 30
0.0
 40
10.0
 41
0.0
 71
     5
 72
     1
  1
\A1;10*10
 73
     1
 44
1.0
  0
POINT
  5
1191
330
1187
100
AcDbEntity
  8
DEFPOINTS
  6
Continuous
 62
     0
370
     0
100
AcDbPoint
 10
3558.188000892859
 20
420.0064181074329
 30
0.0
  0
POINT
  5
1192
330
1187
100
AcDbEntity
  8
DEFPOINTS
  6
Continuous
 62
     0
370
     0
100
AcDbPoint
 10
3558.188000892859
 20
430.0064181074331
 30
0.0
  0
POINT
  5
1193
330
1187
100
AcDbEntity
  8
DEFPOINTS
  6
Continuous
 62
     0
370
     0
100
AcDbPoint
 10
3527.838141308468
 20
430.0064181074331
 30
0.0
  0
ENDBLK
  5
1194
330
1187
100
AcDbEntity
  8
0
370
     0
100
AcDbBlockEnd
  0
BLOCK
  5
11C5
330
1195
100
AcDbEntity
  8
0
370
     0
100
AcDbBlockBegin
  2
A$C4E510C91
 70
     0
 10
0.0
 20
0.0
 30
0.0
  3
A$C4E510C91
  1

  0
LINE
  5
1196
330
1195
100
AcDbEntity
  8
0
  6
Continuous
 62
     3
370
     0
100
AcDbLine
 10
32.72309472217376
 20
293.0157171111194
 30
0.0
 11
221.7230947221738
 21
293.0157171111194
 31
0.0
  0
LINE
  5
1197
330
1195
100
AcDbEntity
  8
0
  6
Continuous
 62
     3
370
     0
100
AcDbLine
 10
41.72309472217374
 20
284.0157171111193
 30
0.0
 11
51.72309472217374
 21
284.0157171111193
 31
0.0
  0
LINE
  5
1198
330
1195
100
AcDbEntity
  8
0
  6
Continuous
 62
     3
370
     0
100
AcDbLine
 10
202.7230947221738
 20
284.0157171111193
 30
0.0
 11
212.7230947221737
 21
284.0157171111193
 31
0.0
  0
LINE
  5
1199
330
1195
100
AcDbEntity
  8
0
  6
Continuous
 62
     3
370
     0
100
AcDbLine
 10
41.72309472217374
 20
274.0157171111191
 30
0.0
 11
51.72309472217374
 21
274.0157171111193
 31
0.0
  0
LINE
  5
119A
330
1195
100
AcDbEntity
  8
0
  6
Continuous
 62
     3
370
     0
100
AcDbLine
 10
202.7230947221738
 20
274.0157171111193
 30
0.0
 11
212.7230947221737
 21
274.0157171111191
 31
0.0
  0
LINE
  5
119B
330
1195
100
AcDbEntity
  8
0
  6
Continuous
 62
     3
370
     0
100
AcDbLine
 10
221.7230947221738
 20
293.0157171111194
 30
0.0
 11
221.7230947221738
 21
131.0157171111193
 31
0.0
  0
LINE
  5
119C
330
1195
100
AcDbEntity
  8
0
  6
Continuous
 62
     3
370
     0
100
AcDbLine
 10
212.7230947221737
 20
284.0157171111193
 30
0.0
 11
212.7230947221751
 21
274.0157171111193
 31
0.0
  0
LINE
  5
119D
330
1195
100
AcDbEntity
  8
0
  6
Continuous
 62
     3
370
     0
100
AcDbLine
 10
212.7230947221751
 20
150.0157171111194
 30
0.0
 11
212.7230947221751
 21
140.0157171111194
 31
0.0
  0
LINE
  5
119E
330
1195
100
AcDbEntity
  8
0
  6
Continuous
 62
     3
370
     0
100
AcDbLine
 10
202.7230947221738
 20
284.0157171111193
 30
0.0
 11
202.7230947221738
 21
274.0157171111193
 31
0.0
  0
LINE
  5
119F
330
1195
100
AcDbEntity
  8
0
  6
Continuous
 62
     3
370
     0
100
AcDbLine
 10
202.7230947221738
 20
150.0157171111194
 30
0.0
 11
202.7230947221738
 21
140.0157171111194
 31
0.0
  0
LINE
  5
11A0
330
1195
100
AcDbEntity
  8
0
  6
Continuous
 62
     3
370
     0
100
AcDbLine
 10
221.7230947221738
 20
131.0157171111193
 30
0.0
 11
32.72309472217376
 21
131.0157171111193
 31
0.0
  0
LINE
  5
11A1
330
1195
100
AcDbEntity
  8
0
  6
Continuous
 62
     3
370
     0
100
AcDbLine
 10
212.7230947221751
 20
140.0157171111194
 30
0.0
 11
202.7230947221738
 21
140.0157171111194
 31
0.0
  0
LINE
  5
11A2
330
1195
100
AcDbEntity
  8
0
  6
Continuous
 62
     3
370
     0
100
AcDbLine
 10
51.72309472217374
 20
140.0157171111194
 30
0.0
 11
41.72309472217374
 21
140.0157171111194
 31
0.0
  0
LINE
  5
11A3
330
1195
100
AcDbEntity
  8
0
  6
Continuous
 62
     3
370
     0
100
AcDbLine
 10
212.7230947221751
 20
150.0157171111194
 30
0.0
 11
202.7230947221738
 21
150.0157171111194
 31
0.0
  0
LINE
  5
11A4
330
1195
100
AcDbEntity
  8
0
  6
Continuous
 62
     3
370
     0
100
AcDbLine
 10
51.72309472217374
 20
150.0157171111194
 30
0.0
 11
41.72309472217374
 21
150.0157171111194
 31
0.0
  0
LINE
  5
11A5
330
1195
100
AcDbEntity
  8
0
  6
Continuous
 62
     3
370
     0
100
AcDbLine
 10
32.72309472217376
 20
131.0157171111193
 30
0.0
 11
32.72309472217376
 21
293.0157171111194
 31
0.0
  0
LINE
  5
11A6
330
1195
100
AcDbEntity
  8
0
  6
Continuous
 62
     3
370
     0
100
AcDbLine
 10
41.72309472217374
 20
140.0157171111194
 30
0.0
 11
41.72309472217374
 21
150.0157171111194
 31
0.0
  0
LINE
  5
11A7
330
1195
100
AcDbEntity
  8
0
  6
Continuous
 62
     3
370
     0
100
AcDbLine
 10
41.72309472217374
 20
274.0157171111191
 30
0.0
 11
41.72309472217374
 21
284.0157171111193
 31
0.0
  0
LINE
  5
11A8
330
1195
100
AcDbEntity
  8
0
  6
Continuous
 62
     3
370
     0
100
AcDbLine
 10
51.7230947221733
 20
140.0157171111194
 30
0.0
 11
51.72309472217374
 21
150.0157171111194
 31
0.0
  0
LINE
  5
11A9
330
1195
100
AcDbEntity
  8
0
  6
Continuous
 62
     3
370
     0
100
AcDbLine
 10
51.7230947221733
 20
274.0157171111191
 30
0.0
 11
51.7230947221733
 21
284.0157171111193
 31
0.0
  0
CIRCLE
  5
11AA
330
1195
100
AcDbEntity
  8
0
  6
Continuous
 62
     3
370
     0
100
AcDbCircle
 10
127.2230947221737
 20
212.0157171111193
 30
0.0
 40
65.0
  0
MTEXT
  5
11AB
330
1195
100
AcDbEntity
  8
0
  6
Continuous
370
     0
100
AcDbMText
 10
21.60521426342985
 20
114.3736463664288
 30
0.0
 40
15.0
 41
228.3165831294991
 71
     1
 72
     5
  1
{\fSimSun|b0|i0|c134|p2;A³ß´ç£º\fArial|b1|i0|c0|p34;189*162*10mm}
 73
     1
 44
1.0
  0
LINE
  5
11AC
330
1195
100
AcDbEntity
  8
0
  6
Continuous
 62
     3
370
     0
100
AcDbLine
 10
279.9385251644048
 20
293.0157171111194
 30
0.0
 11
458.9385251644048
 21
293.0157171111194
 31
0.0
  0
LINE
  5
11AD
330
1195
100
AcDbEntity
  8
0
  6
Continuous
 62
     3
370
     0
100
AcDbLine
 10
288.9385251644048
 20
284.0157171111193
 30
0.0
 11
449.9385251644048
 21
284.0157171111193
 31
0.0
  0
LINE
  5
11AE
330
1195
100
AcDbEntity
  8
0
  6
Continuous
 62
     3
370
     0
100
AcDbLine
 10
463.9385251644048
 20
288.0157171111193
 30
0.0
 11
463.9385251644048
 21
136.0157171111194
 31
0.0
  0
ARC
  5
11AF
330
1195
100
AcDbEntity
  8
0
  6
Continuous
 62
     3
370
     0
100
AcDbCircle
 10
458.9385251644048
 20
288.0157171111193
 30
0.0
 40
5.0
100
AcDbArc
 50
0.0
 51
90.0
  0
LINE
  5
11B0
330
1195
100
AcDbEntity
  8
0
  6
Continuous
 62
     3
370
     0
100
AcDbLine
 10
454.9385251644048
 20
279.0157171111193
 30
0.0
 11
454.9385251644056
 21
145.0157171111194
 31
0.0
  0
ARC
  5
11B1
330
1195
100
AcDbEntity
  8
0
  6
Continuous
 62
     3
370
     0
100
AcDbCircle
 10
449.9385251644048
 20
279.0157171111193
 30
0.0
 40
5.0
100
AcDbArc
 50
0.0
 51
90.0
  0
LINE
  5
11B2
330
1195
100
AcDbEntity
  8
0
  6
Continuous
 62
     3
370
     0
100
AcDbLine
 10
458.9385251644038
 20
131.0157171111193
 30
0.0
 11
279.9385251644039
 21
131.0157171111193
 31
0.0
  0
ARC
  5
11B3
330
1195
100
AcDbEntity
  8
0
  6
Continuous
 62
     3
370
     0
100
AcDbCircle
 10
458.9385251644038
 20
136.0157171111194
 30
0.0
 40
5.0
100
AcDbArc
 50
270.0
 51
0.0
  0
LINE
  5
11B4
330
1195
100
AcDbEntity
  8
0
  6
Continuous
 62
     3
370
     0
100
AcDbLine
 10
449.9385251644056
 20
140.0157171111194
 30
0.0
 11
288.9385251644048
 21
140.0157171111194
 31
0.0
  0
ARC
  5
11B5
330
1195
100
AcDbEntity
  8
0
  6
Continuous
 62
     3
370
     0
100
AcDbCircle
 10
449.9385251644056
 20
145.0157171111194
 30
0.0
 40
5.0
100
AcDbArc
 50
270.0
 51
0.0
  0
ARC
  5
11B6
330
1195
100
AcDbEntity
  8
0
  6
Continuous
 62
     3
370
     0
100
AcDbCircle
 10
288.9385251644048
 20
145.0157171111194
 30
0.0
 40
5.0
100
AcDbArc
 50
180.0
 51
270.0
  0
LINE
  5
11B7
330
1195
100
AcDbEntity
  8
0
  6
Continuous
 62
     3
370
     0
100
AcDbLine
 10
274.9385251644039
 20
136.0157171111194
 30
0.0
 11
274.9385251644048
 21
288.0157171111193
 31
0.0
  0
ARC
  5
11B8
330
1195
100
AcDbEntity
  8
0
  6
Continuous
 62
     3
370
     0
100
AcDbCircle
 10
279.9385251644039
 20
136.0157171111194
 30
0.0
 40
5.0
100
AcDbArc
 50
180.0
 51
270.0
  0
ARC
  5
11B9
330
1195
100
AcDbEntity
  8
0
  6
Continuous
 62
     3
370
     0
100
AcDbCircle
 10
279.9385251644048
 20
288.0157171111193
 30
0.0
 40
5.0
100
AcDbArc
 50
90.0
 51
180.0
  0
LINE
  5
11BA
330
1195
100
AcDbEntity
  8
0
  6
Continuous
 62
     3
370
     0
100
AcDbLine
 10
283.9385251644048
 20
145.0157171111194
 30
0.0
 11
283.9385251644048
 21
279.0157171111193
 31
0.0
  0
ARC
  5
11BB
330
1195
100
AcDbEntity
  8
0
  6
Continuous
 62
     3
370
     0
100
AcDbCircle
 10
288.9385251644048
 20
279.0157171111193
 30
0.0
 40
5.0
100
AcDbArc
 50
90.0
 51
180.0
  0
MTEXT
  5
11BC
330
1195
100
AcDbEntity
  8
0
  6
Continuous
370
     0
100
AcDbMText
 10
271.3885442862929
 20
114.3736463664288
 30
0.0
 40
15.0
 41
228.3165831294991
 71
     1
 72
     5
  1
{\fSimSun|b0|i0|c134|p2;B³ß´ç£º\fArial|b1|i0|c0|p34;189*162*45mm}
 73
     1
 44
1.0
  0
MTEXT
  5
11BD
330
1195
100
AcDbEntity
  8
0
  6
Continuous
370
     0
100
AcDbMText
 10
145.7727598455776
 20
62.58456932892542
 30
0.0
 40
15.0
 41
228.3165831294991
 71
     1
 72
     5
  1
{\fSimSun|b0|i0|c134|p2;ABÕ³ºÏ³ß´ç£º\fArial|b1|i0|c0|p34;189*162*55mm}
 73
     1
 44
1.0
  0
DIMENSION
  5
11BE
330
1195
100
AcDbEntity
  8
0
  6
Continuous
370
     0
100
AcDbDimension
  2
*D0
 10
463.9385251644048
 20
220.9105863733705
 30
0.0
 11
495.695191831072
 21
220.9105863733705
 31
0.0
 12
-3355.464906170686
 22
-145.9907009963137
 32
0.0
 71
     5
 42
8.999999999999545
  3
Standard
100
AcDbAlignedDimension
 13
454.9385251644048
 23
212.0157171111193
 33
0.0
 14
463.9385251644048
 24
212.0157171111193
 34
0.0
100
AcDbRotatedDimension
1001
ACAD
1000
DSTYLE
1002
{
1070
    41
1040
5.0
1070
   140
1040
10.0
1070
   278
1070
     0
1070
   371
1070
     0
1070
   372
1070
     0
1002
}
  0
DIMENSION
  5
11BF
330
1195
100
AcDbEntity
  8
0
  6
Continuous
370
     0
100
AcDbDimension
  2
*D1
 10
127.2230947221751
 20
212.0157171111204
 30
0.0
 11
127.2230947221737
 21
212.0157171111205
 31
0.0
 12
-3355.464906170686
 22
-145.9907009963137
 32
0.0
 70
   132
  1
R65
 71
     5
 42
64.99999999999864
  3
Standard
100
AcDbRadialDimension
 15
192.2230947221737
 25
212.0157171111193
 35
0.0
 40
0.0
1001
ACAD_DSTYLE_DIMRADIAL_EXTENSION
1070
   387
1070
     1
1070
   388
1040
0.0
1070
   390
1040
0.0
1001
ACAD
1000
DSTYLE
1002
{
1070
    41
1040
5.0
1070
   140
1040
10.0
1070
   278
1070
     0
1070
   371
1070
     0
1070
   372
1070
     0
1002
}
  0
DIMENSION
  5
11C0
330
1195
100
AcDbEntity
  8
0
  6
Continuous
370
     0
100
AcDbDimension
  2
*D2
 10
172.373235137783
 20
284.0157171111193
 30
0.0
 11
192.7965684711162
 21
318.2022896185994
 31
0.0
 12
-3355.464906170686
 22
-145.9907009963137
 32
0.0
 70
   128
  1
10*10
 71
     5
 42
10.0
  3
Standard
100
AcDbAlignedDimension
 13
202.7230947221738
 23
274.0157171111193
 33
0.0
 14
202.7230947221738
 24
284.0157171111193
 34
0.0
 50
90.0
100
AcDbRotatedDimension
1001
ACAD
1000
DSTYLE
1002
{
1070
    41
1040
2.0
1070
   140
1040
10.0
1070
   278
1070
     0
1070
   371
1070
     0
1070
   372
1070
     0
1002
}
  0
MTEXT
  5
11C1
330
1195
100
AcDbEntity
  8
0
  6
Continuous
370
     0
100
AcDbMText
 10
220.350243788886
 20
325.240615905819
 30
0.0
 40
10.0
 41
228.3165831294991
 71
     1
 72
     5
  1
{\fSimSun|b0|i0|c134|p2;´Ë4´¦È·ÇÐÎ»ÖÃ´ýÈ·¶¨}
 73
     1
 44
1.0
  0
LWPOLYLINE
  5
11C2
330
1195
100
AcDbEntity
  8
0
  6
Continuous
370
     0
100
AcDbPolyline
 90
        4
 70
     1
 43
0.0
 10
-0.000000650498805
 20
335.1289989668691
 10
526.4263717041399
 20
335.1289989668691
 10
526.4263717041399
 20
0.0000002340600531
 10
-0.000000650498805
 20
0.0000002340600531
  0
ENDBLK
  5
11C6
330
1195
100
AcDbEntity
  8
0
370
     0
100
AcDbBlockEnd
  0
BLOCK
  5
1214
330
1203
100
AcDbEntity
  8
0
370
     0
100
AcDbBlockBegin
  2
A$C2F79653B
 70
     0
 10
0.0
 20
0.0
 30
0.0
  3
A$C2F79653B
  1

  0
LINE
  5
1204
330
1203
100
AcDbEntity
  8
CREASE
  6
Continuous
 62
     0
370
    35
100
AcDbLine
 10
20.90917733189508
 20
239.4701208812388
 30
0.0
 11
181.409177331896
 21
239.4701208812388
 31
0.0
  0
LINE
  5
1205
330
1203
100
AcDbEntity
  8
CREASE
  6
\U+00D2\U+00FE\U+00B2\U+00D8\U+00CF\U+00DF
 62
     3
370
    35
100
AcDbLine
 10
20.90917733189508
 20
185.9701208812388
 30
0.0
 11
181.409177331896
 21
185.9701208812388
 31
0.0
  0
LINE
  5
1206
330
1203
100
AcDbEntity
  8
CREASE
  6
\U+00D2\U+00FE\U+00B2\U+00D8\U+00CF\U+00DF
 62
     3
370
    35
100
AcDbLine
 10
20.90917733189508
 20
132.4701208812388
 30
0.0
 11
181.409177331896
 21
132.4701208812388
 31
0.0
  0
LINE
  5
1207
330
1203
100
AcDbEntity
  8
CREASE
  6
Continuous
 62
     0
370
    35
100
AcDbLine
 10
181.409177331896
 20
239.4701208812388
 30
0.0
 11
181.409177331896
 21
185.9701208812388
 31
0.0
  0
LINE
  5
1208
330
1203
100
AcDbEntity
  8
CREASE
  6
Continuous
 62
     0
370
    35
100
AcDbLine
 10
181.409177331896
 20
185.9701208812388
 30
0.0
 11
181.409177331896
 21
132.4701208812388
 31
0.0
  0
LINE
  5
1209
330
1203
100
AcDbEntity
  8
CREASE
  6
Continuous
 62
     0
370
    35
100
AcDbLine
 10
181.409177331896
 20
132.4701208812388
 30
0.0
 11
181.409177331896
 21
79.47012088123878
 31
0.0
  0
LINE
  5
120A
330
1203
100
AcDbEntity
  8
CREASE
  6
Continuous
 62
     0
370
    35
100
AcDbLine
 10
20.90917733189508
 20
239.4701208812388
 30
0.0
 11
20.90917733189508
 21
185.9701208812388
 31
0.0
  0
LINE
  5
120B
330
1203
100
AcDbEntity
  8
CREASE
  6
Continuous
 62
     0
370
    35
100
AcDbLine
 10
20.90917733189508
 20
185.9701208812388
 30
0.0
 11
20.90917733189508
 21
132.4701208812388
 31
0.0
  0
LINE
  5
120C
330
1203
100
AcDbEntity
  8
CREASE
  6
Continuous
 62
     0
370
    35
100
AcDbLine
 10
20.90917733189508
 20
132.4701208812388
 30
0.0
 11
20.90917733189508
 21
79.47012088123878
 31
0.0
  0
LINE
  5
120D
330
1203
100
AcDbEntity
  8
CUT
  6
Continuous
 62
     7
370
    35
100
AcDbLine
 10
20.90917733189508
 20
78.97012088123879
 30
0.0
 11
181.409177331896
 21
78.97012088123879
 31
0.0
  0
LINE
  5
120E
330
1203
100
AcDbEntity
  8
CUT
  6
Continuous
 62
     7
370
    35
100
AcDbLine
 10
20.90917733189508
 20
78.97012088123879
 30
0.0
 11
20.90917733189508
 21
79.47012088123878
 31
0.0
  0
LINE
  5
120F
330
1203
100
AcDbEntity
  8
CUT
  6
Continuous
 62
     7
370
    35
100
AcDbLine
 10
181.409177331896
 20
78.97012088123879
 30
0.0
 11
181.409177331896
 21
79.47012088123878
 31
0.0
  0
MTEXT
  5
1210
330
1203
100
AcDbEntity
  8
0
  6
Continuous
370
     0
100
AcDbMText
 10
18.91996219030079
 20
42.4891148375705
 30
0.0
 40
15.0
 41
340.0094037259342
 71
     1
 72
     5
  1
\A1;E flute(175GA/110G/145GB)
 73
     1
 44
1.0
  0
LWPOLYLINE
  5
1211
330
1203
100
AcDbEntity
  8
0
  6
Continuous
370
     0
100
AcDbPolyline
 90
        4
 70
     1
 43
0.0
 10
-0.0000004401617844
 20
257.4977275336883
 10
367.5210282193257
 20
257.4977275336883
 10
367.5210282193257
 20
0.0000004461834919
 10
-0.0000004401617844
 20
0.0000004461834919
  0
ENDBLK
  5
1215
330
1203
100
AcDbEntity
  8
0
370
     0
100
AcDbBlockEnd
  0
BLOCK
  5
124E
330
1243
100
AcDbEntity
  8
0
370
     0
100
AcDbBlockBegin
  2
*D5
 70
     1
 10
0.0
 20
0.0
 30
0.0
  3
*D5
  1

  0
LINE
  5
29A4
330
1243
100
AcDbEntity
  8
0
  6
Continuous
 62
     0
370
     0
100
AcDbLine
 10
4309.31561526023
 20
1308.469514058662
 30
0.0
 11
4309.31561526023
 21
1317.481883320913
 31
0.0
  0
LINE
  5
29A5
330
1243
100
AcDbEntity
  8
0
  6
Continuous
 62
     0
370
     0
100
AcDbLine
 10
4318.315615260231
 20
1308.469514058662
 30
0.0
 11
4318.315615260231
 21
1317.481883320913
 31
0.0
  0
LINE
  5
29A6
330
1243
100
AcDbEntity
  8
0
  6
Continuous
 62
     0
370
     0
100
AcDbLine
 10
4304.315615260231
 20
1317.301883320913
 30
0.0
 11
4299.315615260232
 21
1317.301883320913
 31
0.0
  0
LINE
  5
29A7
330
1243
100
AcDbEntity
  8
0
  6
Continuous
 62
     0
370
     0
100
AcDbLine
 10
4323.315615260231
 20
1317.301883320913
 30
0.0
 11
4328.315615260232
 21
1317.301883320913
 31
0.0
  0
SOLID
  5
29A8
330
1243
100
AcDbEntity
  8
0
  6
Continuous
 62
     0
370
     0
100
AcDbTrace
 10
4304.315615260231
 20
1318.135216654246
 30
0.0
 11
4304.315615260231
 21
1316.46854998758
 31
0.0
 12
4309.31561526023
 22
1317.301883320913
 32
0.0
 13
4309.31561526023
 23
1317.301883320913
 33
0.0
  0
SOLID
  5
29A9
330
1243
100
AcDbEntity
  8
0
  6
Continuous
 62
     0
370
     0
100
AcDbTrace
 10
4323.315615260231
 20
1318.135216654246
 30
0.0
 11
4323.315615260231
 21
1316.46854998758
 31
0.0
 12
4318.315615260231
 22
1317.301883320913
 32
0.0
 13
4318.315615260231
 23
1317.301883320913
 33
0.0
  0
MTEXT
  5
29AA
330
1243
100
AcDbEntity
  8
0
  6
Continuous
 62
     0
370
     0
100
AcDbMText
 10
4350.072281926898
 20
1317.301883320913
 30
0.0
 40
10.0
 41
0.0
 71
     5
 72
     1
  1
\A1;9.0000
 73
     1
 44
1.0
  0
POINT
  5
29AB
330
1243
100
AcDbEntity
  8
DEFPOINTS
  6
Continuous
 62
     0
370
     0
100
AcDbPoint
 10
4309.31561526023
 20
1308.407014058662
 30
0.0
  0
POINT
  5
29AC
330
1243
100
AcDbEntity
  8
DEFPOINTS
  6
Continuous
 62
     0
370
     0
100
AcDbPoint
 10
4318.315615260231
 20
1308.407014058662
 30
0.0
  0
POINT
  5
29AD
330
1243
100
AcDbEntity
  8
DEFPOINTS
  6
Continuous
 62
     0
370
     0
100
AcDbPoint
 10
4318.315615260231
 20
1317.301883320913
 30
0.0
  0
ENDBLK
  5
124F
330
1243
100
AcDbEntity
  8
0
370
     0
100
AcDbBlockEnd
  0
BLOCK
  5
1264
330
1258
100
AcDbEntity
  8
0
370
     0
100
AcDbBlockBegin
  2
*D6
 70
     1
 10
0.0
 20
0.0
 30
0.0
  3
*D6
  1

  0
LINE
  5
2B3F
330
1258
100
AcDbEntity
  8
0
  6
Continuous
 62
     0
370
     0
100
AcDbLine
 10
3990.505080277742
 20
1345.407014058662
 30
0.0
 11
3981.704387360018
 21
1345.407014058662
 31
0.0
  0
LINE
  5
2B40
330
1258
100
AcDbEntity
  8
0
  6
Continuous
 62
     0
370
     0
100
AcDbLine
 10
3990.505080277742
 20
1365.407014058662
 30
0.0
 11
3981.704387360018
 21
1365.407014058662
 31
0.0
  0
LINE
  5
2B41
330
1258
100
AcDbEntity
  8
0
  6
Continuous
 62
     0
370
     0
100
AcDbLine
 10
3981.884387360017
 20
1347.407014058662
 30
0.0
 11
3981.884387360017
 21
1363.407014058662
 31
0.0
  0
LINE
  5
2B42
330
1258
100
AcDbEntity
  8
0
  6
Continuous
 62
     0
370
     0
100
AcDbLine
 10
3981.884387360017
 20
1365.407014058662
 30
0.0
 11
3981.884387360017
 21
1414.593586566141
 31
0.0
  0
LINE
  5
2B43
330
1258
100
AcDbEntity
  8
0
  6
Continuous
 62
     0
370
     0
100
AcDbLine
 10
3981.884387360017
 20
1414.593586566141
 30
0.0
 11
3983.884387360017
 21
1414.593586566141
 31
0.0
  0
SOLID
  5
2B44
330
1258
100
AcDbEntity
  8
0
  6
Continuous
 62
     0
370
     0
100
AcDbTrace
 10
3981.551054026684
 20
1347.407014058662
 30
0.0
 11
3982.217720693351
 21
1347.407014058662
 31
0.0
 12
3981.884387360017
 22
1345.407014058662
 32
0.0
 13
3981.884387360017
 23
1345.407014058662
 33
0.0
  0
SOLID
  5
2B45
330
1258
100
AcDbEntity
  8
0
  6
Continuous
 62
     0
370
     0
100
AcDbTrace
 10
3981.551054026684
 20
1363.407014058662
 30
0.0
 11
3982.217720693351
 21
1363.407014058662
 31
0.0
 12
3981.884387360017
 22
1365.407014058662
 32
0.0
 13
3981.884387360017
 23
1365.407014058662
 33
0.0
  0
MTEXT
  5
2B46
330
1258
100
AcDbEntity
  8
0
  6
Continuous
 62
     0
370
     0
100
AcDbMText
 10
4005.641054026683
 20
1414.593586566142
 30
0.0
 40
10.0
 41
0.0
 71
     5
 72
     1
  1
\A1;20*20
 73
     1
 44
1.0
  0
POINT
  5
2B47
330
1258
100
AcDbEntity
  8
DEFPOINTS
  6
Continuous
 62
     0
370
     0
100
AcDbPoint
 10
3990.567580277742
 20
1345.407014058662
 30
0.0
  0
POINT
  5
2B48
330
1258
100
AcDbEntity
  8
DEFPOINTS
  6
Continuous
 62
     0
370
     0
100
AcDbPoint
 10
3990.567580277742
 20
1365.407014058662
 30
0.0
  0
POINT
  5
2B49
330
1258
100
AcDbEntity
  8
DEFPOINTS
  6
Continuous
 62
     0
370
     0
100
AcDbPoint
 10
3981.884387360017
 20
1365.407014058662
 30
0.0
  0
ENDBLK
  5
1265
330
1258
100
AcDbEntity
  8
0
370
     0
100
AcDbBlockEnd
  0
BLOCK
  5
12E1
330
12DF
100
AcDbEntity
  8
0
370
     0
100
AcDbBlockBegin
  2
_ArchTick
 70
     0
 10
0.0
 20
0.0
 30
0.0
  3
_ArchTick
  1

  0
LWPOLYLINE
  5
12E0
330
12DF
100
AcDbEntity
  8
0
  6
ByBlock
 62
     0
370
     0
100
AcDbPolyline
 90
        2
 70
     0
 43
0.15
 10
-0.5
 20
-0.5
 10
0.5
 20
0.5
  0
ENDBLK
  5
12E2
330
12DF
100
AcDbEntity
  8
0
370
     0
100
AcDbBlockEnd
  0
BLOCK
  5
252B
330
251F
100
AcDbEntity
  8
0
370
     0
100
AcDbBlockBegin
  2
*D8
 70
     1
 10
0.0
 20
0.0
 30
0.0
  3
*D8
  1

  0
LINE
  5
2B4A
330
251F
100
AcDbEntity
  8
0
  6
Continuous
 62
     0
370
     0
100
AcDbLine
 10
3904.469388047154
 20
1365.407014058662
 30
0.0
 11
3919.742708839817
 21
1365.407014058662
 31
0.0
  0
LINE
  5
2B4B
330
251F
100
AcDbEntity
  8
0
  6
Continuous
 62
     0
370
     0
100
AcDbLine
 10
3905.839218286827
 20
1389.407014058662
 30
0.0
 11
3919.742708839817
 21
1389.407014058662
 31
0.0
  0
LINE
  5
2B4C
330
251F
100
AcDbEntity
  8
0
  6
Continuous
 62
     0
370
     0
100
AcDbLine
 10
3919.562708839818
 20
1367.407014058662
 30
0.0
 11
3919.562708839818
 21
1387.407014058662
 31
0.0
  0
LINE
  5
2B4D
330
251F
100
AcDbEntity
  8
0
  6
Continuous
 62
     0
370
     0
100
AcDbLine
 10
3919.562708839818
 20
1389.407014058662
 30
0.0
 11
3919.562708839818
 21
1414.593586566141
 31
0.0
  0
LINE
  5
2B4E
330
251F
100
AcDbEntity
  8
0
  6
Continuous
 62
     0
370
     0
100
AcDbLine
 10
3919.562708839818
 20
1414.593586566141
 30
0.0
 11
3921.562708839817
 21
1414.593586566141
 31
0.0
  0
SOLID
  5
2B4F
330
251F
100
AcDbEntity
  8
0
  6
Continuous
 62
     0
370
     0
100
AcDbTrace
 10
3919.229375506484
 20
1367.407014058662
 30
0.0
 11
3919.896042173151
 21
1367.407014058662
 31
0.0
 12
3919.562708839818
 22
1365.407014058662
 32
0.0
 13
3919.562708839818
 23
1365.407014058662
 33
0.0
  0
SOLID
  5
2B50
330
251F
100
AcDbEntity
  8
0
  6
Continuous
 62
     0
370
     0
100
AcDbTrace
 10
3919.229375506484
 20
1387.407014058662
 30
0.0
 11
3919.896042173151
 21
1387.407014058662
 31
0.0
 12
3919.562708839818
 22
1389.407014058662
 32
0.0
 13
3919.562708839818
 23
1389.407014058662
 33
0.0
  0
MTEXT
  5
2B51
330
251F
100
AcDbEntity
  8
0
  6
Continuous
 62
     0
370
     0
100
AcDbMText
 10
3929.98604217315
 20
1414.593586566142
 30
0.0
 40
10.0
 41
0.0
 71
     5
 72
     1
  1
\A1;24
 73
     1
 44
1.0
  0
POINT
  5
2B52
330
251F
100
AcDbEntity
  8
DEFPOINTS
  6
Continuous
 62
     0
370
     0
100
AcDbPoint
 10
3904.406888047154
 20
1365.407014058662
 30
0.0
  0
POINT
  5
2B53
330
251F
100
AcDbEntity
  8
DEFPOINTS
  6
Continuous
 62
     0
370
     0
100
AcDbPoint
 10
3905.776718286827
 20
1389.407014058662
 30
0.0
  0
POINT
  5
2B54
330
251F
100
AcDbEntity
  8
DEFPOINTS
  6
Continuous
 62
     0
370
     0
100
AcDbPoint
 10
3919.562708839818
 20
1389.407014058662
 30
0.0
  0
ENDBLK
  5
252C
330
251F
100
AcDbEntity
  8
0
370
     0
100
AcDbBlockEnd
  0
BLOCK
  5
25CC
330
25C1
100
AcDbEntity
  8
0
370
     0
100
AcDbBlockBegin
  2
*D9
 70
     1
 10
0.0
 20
0.0
 30
0.0
  3
*D9
  1

  0
LINE
  5
2B55
330
25C1
100
AcDbEntity
  8
0
  6
Continuous
 62
     0
370
     0
100
AcDbLine
 10
3879.594144813228
 20
1396.364536338425
 30
0.0
 11
3879.594144813228
 21
1407.956186319687
 31
0.0
  0
LINE
  5
2B56
330
25C1
100
AcDbEntity
  8
0
  6
Continuous
 62
     0
370
     0
100
AcDbLine
 10
3855.594144813228
 20
1396.364536338425
 30
0.0
 11
3855.594144813228
 21
1407.956186319687
 31
0.0
  0
LINE
  5
2B57
330
25C1
100
AcDbEntity
  8
0
  6
Continuous
 62
     0
370
     0
100
AcDbLine
 10
3877.594144813228
 20
1407.776186319687
 30
0.0
 11
3876.017478146561
 21
1407.776186319687
 31
0.0
  0
LINE
  5
2B58
330
25C1
100
AcDbEntity
  8
0
  6
Continuous
 62
     0
370
     0
100
AcDbLine
 10
3857.594144813227
 20
1407.776186319687
 30
0.0
 11
3859.170811479895
 21
1407.776186319687
 31
0.0
  0
SOLID
  5
2B59
330
25C1
100
AcDbEntity
  8
0
  6
Continuous
 62
     0
370
     0
100
AcDbTrace
 10
3877.594144813228
 20
1408.10951965302
 30
0.0
 11
3877.594144813228
 21
1407.442852986354
 31
0.0
 12
3879.594144813228
 22
1407.776186319687
 32
0.0
 13
3879.594144813228
 23
1407.776186319687
 33
0.0
  0
SOLID
  5
2B5A
330
25C1
100
AcDbEntity
  8
0
  6
Continuous
 62
     0
370
     0
100
AcDbTrace
 10
3857.594144813227
 20
1408.10951965302
 30
0.0
 11
3857.594144813227
 21
1407.442852986354
 31
0.0
 12
3855.594144813228
 22
1407.776186319687
 32
0.0
 13
3855.594144813228
 23
1407.776186319687
 33
0.0
  0
MTEXT
  5
2B5B
330
25C1
100
AcDbEntity
  8
0
  6
Continuous
 62
     0
370
     0
100
AcDbMText
 10
3867.594144813228
 20
1407.776186319687
 30
0.0
 40
10.0
 41
0.0
 71
     5
 72
     1
  1
\A1;24
 73
     1
 44
1.0
  0
POINT
  5
2B5C
330
25C1
100
AcDbEntity
  8
DEFPOINTS
  6
Continuous
 62
     0
370
     0
100
AcDbPoint
 10
3879.594144813228
 20
1396.302036338425
 30
0.0
  0
POINT
  5
2B5D
330
25C1
100
AcDbEntity
  8
DEFPOINTS
  6
Continuous
 62
     0
370
     0
100
AcDbPoint
 10
3855.594144813228
 20
1396.302036338425
 30
0.0
  0
POINT
  5
2B5E
330
25C1
100
AcDbEntity
  8
DEFPOINTS
  6
Continuous
 62
     0
370
     0
100
AcDbPoint
 10
3855.594144813228
 20
1407.776186319687
 30
0.0
  0
ENDBLK
  5
25CD
330
25C1
100
AcDbEntity
  8
0
370
     0
100
AcDbBlockEnd
  0
BLOCK
  5
2A33
330
2A32
100
AcDbEntity
  8
0
370
     0
100
AcDbBlockBegin
  2
*D10
 70
     1
 10
0.0
 20
0.0
 30
0.0
  3
*D10
  1

  0
LINE
  5
2BD2
330
2A32
100
AcDbEntity
  8
0
  6
Continuous
 62
     3
370
     0
100
AcDbLine
 10
3785.538474484762
 20
1437.150073799307
 30
0.0
 11
3856.503218054908
 21
1387.281786790212
 31
0.0
  0
MTEXT
  5
2BD3
330
2A32
100
AcDbEntity
  8
0
  6
Continuous
 62
     0
370
     0
100
AcDbMText
 10
3821.435637734874
 20
1430.257702530584
 30
0.0
 40
20.0
 41
0.0
 71
     5
 72
     1
  1
\A1;R5.0
 11
0.8181853516637119
 21
-0.5749545463103394
 31
0.0
 73
     1
 44
1.0
  0
INSERT
  5
2BD4
330
2A32
100
AcDbEntity
  8
0
  6
Continuous
 62
     3
370
     0
100
AcDbBlockReference
  2
_ArchTick
 10
3856.503218054908
 20
1387.281786790212
 30
0.0
 41
0.4
 42
0.4
 43
0.4
 50
324.9035508919273
  0
LINE
  5
2BD5
330
2A32
100
AcDbEntity
  8
0
  6
Continuous
 62
     0
370
     0
100
AcDbLine
 10
3858.594144813228
 20
1384.407014058659
 30
0.0
 11
3862.594144813228
 21
1384.40701405866
 31
0.0
  0
LINE
  5
2BD6
330
2A32
100
AcDbEntity
  8
0
  6
Continuous
 62
     0
370
     0
100
AcDbLine
 10
3860.594144813228
 20
1382.40701405866
 30
0.0
 11
3860.594144813228
 21
1386.40701405866
 31
0.0
  0
POINT
  5
2BD7
330
2A32
100
AcDbEntity
  8
DEFPOINTS
  6
Continuous
 62
     0
370
     0
100
AcDbPoint
 10
3856.503218054908
 20
1387.281786790212
 30
0.0
  0
POINT
  5
2BD8
330
2A32
100
AcDbEntity
  8
DEFPOINTS
  6
Continuous
 62
     0
370
     0
100
AcDbPoint
 10
3860.594144813227
 20
1384.40701405866
 30
0.0
  0
ENDBLK
  5
2A34
330
2A32
100
AcDbEntity
  8
0
370
     0
100
AcDbBlockEnd
  0
BLOCK
  5
2A41
330
2A40
100
AcDbEntity
  8
0
370
     0
100
AcDbBlockBegin
  2
*D11
 70
     1
 10
0.0
 20
0.0
 30
0.0
  3
*D11
  1

  0
LINE
  5
2B66
330
2A40
100
AcDbEntity
  8
0
  6
Continuous
 62
     0
370
     0
100
AcDbLine
 10
4044.594144813227
 20
1186.656260966259
 30
0.0
 11
4044.594144813227
 21
1168.798217805683
 31
0.0
  0
LINE
  5
2B67
330
2A40
100
AcDbEntity
  8
0
  6
Continuous
 62
     0
370
     0
100
AcDbLine
 10
3855.594144813227
 20
1186.656260966258
 30
0.0
 11
3855.594144813227
 21
1168.798217805683
 31
0.0
  0
LINE
  5
2B68
330
2A40
100
AcDbEntity
  8
0
  6
Continuous
 62
     3
370
     0
100
AcDbLine
 10
4047.594144813227
 20
1178.798217805683
 30
0.0
 11
3852.594144813227
 21
1178.798217805683
 31
0.0
  0
INSERT
  5
2B69
330
2A40
100
AcDbEntity
  8
0
  6
Continuous
 62
     3
370
     0
100
AcDbBlockReference
  2
_ArchTick
 10
4044.594144813227
 20
1178.798217805683
 30
0.0
 41
0.4
 42
0.4
 43
0.4
  0
INSERT
  5
2B6A
330
2A40
100
AcDbEntity
  8
0
  6
Continuous
 62
     3
370
     0
100
AcDbBlockReference
  2
_ArchTick
 10
3855.594144813227
 20
1178.798217805683
 30
0.0
 41
0.4
 42
0.4
 43
0.4
 50
180.0
  0
MTEXT
  5
2B6B
330
2A40
100
AcDbEntity
  8
0
  6
Continuous
 62
     0
370
     0
100
AcDbMText
 10
3950.094144813228
 20
1193.798217805682
 30
0.0
 40
20.0
 41
0.0
 71
     5
 72
     1
  1
\A1;189.0
 73
     1
 44
1.0
  0
POINT
  5
2B6C
330
2A40
100
AcDbEntity
  8
DEFPOINTS
  6
Continuous
 62
     0
370
     0
100
AcDbPoint
 10
4044.594144813227
 20
1189.656260966259
 30
0.0
  0
POINT
  5
2B6D
330
2A40
100
AcDbEntity
  8
DEFPOINTS
  6
Continuous
 62
     0
370
     0
100
AcDbPoint
 10
3855.594144813227
 20
1189.656260966258
 30
0.0
  0
POINT
  5
2B6E
330
2A40
100
AcDbEntity
  8
DEFPOINTS
  6
Continuous
 62
     0
370
     0
100
AcDbPoint
 10
3855.594144813227
 20
1178.798217805683
 30
0.0
  0
ENDBLK
  5
2A42
330
2A40
100
AcDbEntity
  8
0
370
     0
100
AcDbBlockEnd
  0
BLOCK
  5
2A57
330
2A56
100
AcDbEntity
  8
0
370
     0
100
AcDbBlockBegin
  2
*D12
 70
     1
 10
0.0
 20
0.0
 30
0.0
  3
*D12
  1

  0
LINE
  5
2B6F
330
2A56
100
AcDbEntity
  8
0
  6
Continuous
 62
     0
370
     0
100
AcDbLine
 10
3831.583630483883
 20
1389.407014058662
 30
0.0
 11
3795.636581034214
 21
1389.407014058662
 31
0.0
  0
LINE
  5
2B70
330
2A56
100
AcDbEntity
  8
0
  6
Continuous
 62
     0
370
     0
100
AcDbLine
 10
3831.583630483883
 20
1227.407014058662
 30
0.0
 11
3795.636581034214
 21
1227.407014058662
 31
0.0
  0
LINE
  5
2B71
330
2A56
100
AcDbEntity
  8
0
  6
Continuous
 62
     3
370
     0
100
AcDbLine
 10
3805.636581034214
 20
1392.407014058662
 30
0.0
 11
3805.636581034214
 21
1224.407014058662
 31
0.0
  0
INSERT
  5
2B72
330
2A56
100
AcDbEntity
  8
0
  6
Continuous
 62
     3
370
     0
100
AcDbBlockReference
  2
_ArchTick
 10
3805.636581034214
 20
1389.407014058662
 30
0.0
 41
0.4
 42
0.4
 43
0.4
 50
90.0
  0
INSERT
  5
2B73
330
2A56
100
AcDbEntity
  8
0
  6
Continuous
 62
     3
370
     0
100
AcDbBlockReference
  2
_ArchTick
 10
3805.636581034214
 20
1227.407014058662
 30
0.0
 41
0.4
 42
0.4
 43
0.4
 50
270.0
  0
MTEXT
  5
2B74
330
2A56
100
AcDbEntity
  8
0
  6
Continuous
 62
     0
370
     0
100
AcDbMText
 10
3790.636581034214
 20
1308.407014058662
 30
0.0
 40
20.0
 41
0.0
 71
     5
 72
     1
  1
\A1;162.0
 11
0.0000000000000001
 21
1.0
 31
0.0
 73
     1
 44
1.0
  0
POINT
  5
2B75
330
2A56
100
AcDbEntity
  8
DEFPOINTS
  6
Continuous
 62
     0
370
     0
100
AcDbPoint
 10
3834.583630483882
 20
1389.407014058662
 30
0.0
  0
POINT
  5
2B76
330
2A56
100
AcDbEntity
  8
DEFPOINTS
  6
Continuous
 62
     0
370
     0
100
AcDbPoint
 10
3834.583630483882
 20
1227.407014058662
 30
0.0
  0
POINT
  5
2B77
330
2A56
100
AcDbEntity
  8
DEFPOINTS
  6
Continuous
 62
     0
370
     0
100
AcDbPoint
 10
3805.636581034214
 20
1227.407014058662
 30
0.0
  0
ENDBLK
  5
2A58
330
2A56
100
AcDbEntity
  8
0
370
     0
100
AcDbBlockEnd
  0
BLOCK
  5
2A7F
330
2A7E
100
AcDbEntity
  8
0
370
     0
100
AcDbBlockBegin
  2
*D13
 70
     1
 10
0.0
 20
0.0
 30
0.0
  3
*D13
  1

  0
LINE
  5
2BD9
330
2A7E
100
AcDbEntity
  8
0
  6
Continuous
 62
     3
370
     0
100
AcDbLine
 10
4213.618660330781
 20
1313.457695636972
 30
0.0
 11
4147.066995107504
 21
1372.101390177837
 31
0.0
  0
MTEXT
  5
2BDA
330
2A7E
100
AcDbEntity
  8
0
  6
Continuous
 62
     0
370
     0
100
AcDbMText
 10
4198.5263329914
 20
1346.749327717603
 30
0.0
 40
20.0
 41
0.0
 71
     5
 72
     1
  1
\A1;R5.0
 11
0.7502759694552513
 21
-0.6611247761640634
 31
0.0
 73
     1
 44
1.0
  0
INSERT
  5
2BDB
330
2A7E
100
AcDbEntity
  8
0
  6
Continuous
 62
     3
370
     0
100
AcDbBlockReference
  2
_ArchTick
 10
4147.066995107504
 20
1372.101390177837
 30
0.0
 41
0.4
 42
0.4
 43
0.4
 50
138.6142888720073
  0
LINE
  5
2BDC
330
2A7E
100
AcDbEntity
  8
0
  6
Continuous
 62
     0
370
     0
100
AcDbLine
 10
4141.31561526023
 20
1375.407014058655
 30
0.0
 11
4145.31561526023
 21
1375.407014058655
 31
0.0
  0
LINE
  5
2BDD
330
2A7E
100
AcDbEntity
  8
0
  6
Continuous
 62
     0
370
     0
100
AcDbLine
 10
4143.31561526023
 20
1373.407014058655
 30
0.0
 11
4143.31561526023
 21
1377.407014058655
 31
0.0
  0
POINT
  5
2BDE
330
2A7E
100
AcDbEntity
  8
DEFPOINTS
  6
Continuous
 62
     0
370
     0
100
AcDbPoint
 10
4147.066995107504
 20
1372.101390177837
 30
0.0
  0
POINT
  5
2BDF
330
2A7E
100
AcDbEntity
  8
DEFPOINTS
  6
Continuous
 62
     0
370
     0
100
AcDbPoint
 10
4143.31561526023
 20
1375.407014058655
 30
0.0
  0
ENDBLK
  5
2A80
330
2A7E
100
AcDbEntity
  8
0
370
     0
100
AcDbBlockEnd
  0
BLOCK
  5
2A8B
330
2A8A
100
AcDbEntity
  8
0
370
     0
100
AcDbBlockBegin
  2
*D14
 70
     1
 10
0.0
 20
0.0
 30
0.0
  3
*D14
  1

  0
LINE
  5
2BE0
330
2A8A
100
AcDbEntity
  8
0
  6
Continuous
 62
     3
370
     0
100
AcDbLine
 10
4074.305331847559
 20
1425.029466748137
 30
0.0
 11
4130.17507132651
 21
1387.209851180746
 31
0.0
  0
MTEXT
  5
2BE1
330
2A8A
100
AcDbEntity
  8
0
  6
Continuous
 62
     0
370
     0
100
AcDbMText
 10
4110.317469438605
 20
1418.765517735359
 30
0.0
 40
20.0
 41
0.0
 71
     5
 72
     1
  1
\A1;R5.0
 11
0.8281087867433408
 21
-0.5605674244178589
 31
0.0
 73
     1
 44
1.0
  0
INSERT
  5
2BE2
330
2A8A
100
AcDbEntity
  8
0
  6
Continuous
 62
     3
370
     0
100
AcDbBlockReference
  2
_ArchTick
 10
4130.17507132651
 20
1387.209851180746
 30
0.0
 41
0.4
 42
0.4
 43
0.4
 50
325.9049519909701
  0
LINE
  5
2BE3
330
2A8A
100
AcDbEntity
  8
0
  6
Continuous
 62
     0
370
     0
100
AcDbLine
 10
4132.315615260229
 20
1384.407014058655
 30
0.0
 11
4136.315615260229
 21
1384.407014058655
 31
0.0
  0
LINE
  5
2BE4
330
2A8A
100
AcDbEntity
  8
0
  6
Continuous
 62
     0
370
     0
100
AcDbLine
 10
4134.31561526023
 20
1382.407014058655
 30
0.0
 11
4134.31561526023
 21
1386.407014058655
 31
0.0
  0
POINT
  5
2BE5
330
2A8A
100
AcDbEntity
  8
DEFPOINTS
  6
Continuous
 62
     0
370
     0
100
AcDbPoint
 10
4130.17507132651
 20
1387.209851180746
 30
0.0
  0
POINT
  5
2BE6
330
2A8A
100
AcDbEntity
  8
DEFPOINTS
  6
Continuous
 62
     0
370
     0
100
AcDbPoint
 10
4134.31561526023
 20
1384.407014058655
 30
0.0
  0
ENDBLK
  5
2A8C
330
2A8A
100
AcDbEntity
  8
0
370
     0
100
AcDbBlockEnd
  0
BLOCK
  5
2A96
330
2A95
100
AcDbEntity
  8
0
370
     0
100
AcDbBlockBegin
  2
*D15
 70
     1
 10
0.0
 20
0.0
 30
0.0
  3
*D15
  1

  0
LINE
  5
2AE9
330
2A95
100
AcDbEntity
  8
0
  6
Continuous
 62
     0
370
     0
100
AcDbLine
 10
4129.315615260231
 20
1179.500104785838
 30
0.0
 11
4129.315615260231
 21
1129.879108182669
 31
0.0
  0
LINE
  5
2AEA
330
2A95
100
AcDbEntity
  8
0
  6
Continuous
 62
     0
370
     0
100
AcDbLine
 10
4318.315615260231
 20
1179.562604785838
 30
0.0
 11
4318.315615260231
 21
1129.879108182669
 31
0.0
  0
LINE
  5
2AEB
330
2A95
100
AcDbEntity
  8
0
  6
Continuous
 62
     3
370
     0
100
AcDbLine
 10
4126.315615260231
 20
1139.879108182669
 30
0.0
 11
4321.315615260231
 21
1139.879108182669
 31
0.0
  0
INSERT
  5
2AEC
330
2A95
100
AcDbEntity
  8
0
  6
Continuous
 62
     3
370
     0
100
AcDbBlockReference
  2
_ArchTick
 10
4129.315615260231
 20
1139.879108182669
 30
0.0
 41
0.4
 42
0.4
 43
0.4
 50
180.0
  0
INSERT
  5
2AED
330
2A95
100
AcDbEntity
  8
0
  6
Continuous
 62
     3
370
     0
100
AcDbBlockReference
  2
_ArchTick
 10
4318.315615260231
 20
1139.879108182669
 30
0.0
 41
0.4
 42
0.4
 43
0.4
  0
MTEXT
  5
2AEE
330
2A95
100
AcDbEntity
  8
0
  6
Continuous
 62
     0
370
     0
100
AcDbMText
 10
4223.815615260231
 20
1154.879108182669
 30
0.0
 40
20.0
 41
0.0
 71
     5
 72
     1
  1
\A1;189.0
 73
     1
 44
1.0
  0
POINT
  5
2AEF
330
2A95
100
AcDbEntity
  8
DEFPOINTS
  6
Continuous
 62
     0
370
     0
100
AcDbPoint
 10
4129.315615260231
 20
1182.500104785838
 30
0.0
  0
POINT
  5
2AF0
330
2A95
100
AcDbEntity
  8
DEFPOINTS
  6
Continuous
 62
     0
370
     0
100
AcDbPoint
 10
4318.315615260231
 20
1182.562604785839
 30
0.0
  0
POINT
  5
2AF1
330
2A95
100
AcDbEntity
  8
DEFPOINTS
  6
Continuous
 62
     0
370
     0
100
AcDbPoint
 10
4318.315615260231
 20
1139.879108182669
 30
0.0
  0
ENDBLK
  5
2A97
330
2A95
100
AcDbEntity
  8
0
370
     0
100
AcDbBlockEnd
  0
BLOCK
  5
2AAC
330
2AAB
100
AcDbEntity
  8
0
370
     0
100
AcDbBlockBegin
  2
*D16
 70
     1
 10
0.0
 20
0.0
 30
0.0
  3
*D16
  1

  0
LINE
  5
2C6C
330
2AAB
100
AcDbEntity
  8
0
  6
Continuous
 62
     0
370
     0
100
AcDbLine
 10
4352.936543285853
 20
1381.407014058662
 30
0.0
 11
4412.519585055324
 21
1381.407014058662
 31
0.0
  0
LINE
  5
2C6D
330
2AAB
100
AcDbEntity
  8
0
  6
Continuous
 62
     0
370
     0
100
AcDbLine
 10
4361.491387892221
 20
1235.407014058662
 30
0.0
 11
4412.519585055324
 21
1235.407014058662
 31
0.0
  0
LINE
  5
2C6E
330
2AAB
100
AcDbEntity
  8
0
  6
Continuous
 62
     3
370
     0
100
AcDbLine
 10
4402.519585055324
 20
1384.407014058662
 30
0.0
 11
4402.519585055324
 21
1232.407014058662
 31
0.0
  0
INSERT
  5
2C6F
330
2AAB
100
AcDbEntity
  8
0
  6
Continuous
 62
     3
370
     0
100
AcDbBlockReference
  2
_ArchTick
 10
4402.519585055324
 20
1381.407014058662
 30
0.0
 41
0.4
 42
0.4
 43
0.4
 50
90.0
  0
INSERT
  5
2C70
330
2AAB
100
AcDbEntity
  8
0
  6
Continuous
 62
     3
370
     0
100
AcDbBlockReference
  2
_ArchTick
 10
4402.519585055324
 20
1235.407014058662
 30
0.0
 41
0.4
 42
0.4
 43
0.4
 50
270.0
  0
MTEXT
  5
2C71
330
2AAB
100
AcDbEntity
  8
0
  6
Continuous
 62
     0
370
     0
100
AcDbMText
 10
4387.519585055325
 20
1308.407014058662
 30
0.0
 40
20.0
 41
0.0
 71
     5
 72
     1
  1
\A1;146.0
 11
0.0000000000000001
 21
1.0
 31
0.0
 73
     1
 44
1.0
  0
POINT
  5
2C72
330
2AAB
100
AcDbEntity
  8
DEFPOINTS
  6
Continuous
 62
     0
370
     0
100
AcDbPoint
 10
4349.936543285853
 20
1381.407014058662
 30
0.0
  0
POINT
  5
2C73
330
2AAB
100
AcDbEntity
  8
DEFPOINTS
  6
Continuous
 62
     0
370
     0
100
AcDbPoint
 10
4358.491387892221
 20
1235.407014058662
 30
0.0
  0
POINT
  5
2C74
330
2AAB
100
AcDbEntity
  8
DEFPOINTS
  6
Continuous
 62
     0
370
     0
100
AcDbPoint
 10
4402.519585055324
 20
1235.407014058662
 30
0.0
  0
ENDBLK
  5
2AAD
330
2AAB
100
AcDbEntity
  8
0
370
     0
100
AcDbBlockEnd
  0
BLOCK
  5
2AB9
330
2AB8
100
AcDbEntity
  8
0
370
     0
100
AcDbBlockBegin
  2
*D17
 70
     1
 10
0.0
 20
0.0
 30
0.0
  3
*D17
  1

  0
LINE
  5
2AE0
330
2AB8
100
AcDbEntity
  8
0
  6
Continuous
 62
     0
370
     0
100
AcDbLine
 10
4373.933348897128
 20
1389.407014058662
 30
0.0
 11
4446.799018464549
 21
1389.407014058662
 31
0.0
  0
LINE
  5
2AE1
330
2AB8
100
AcDbEntity
  8
0
  6
Continuous
 62
     0
370
     0
100
AcDbLine
 10
4373.933348897128
 20
1227.407014058662
 30
0.0
 11
4446.799018464549
 21
1227.407014058662
 31
0.0
  0
LINE
  5
2AE2
330
2AB8
100
AcDbEntity
  8
0
  6
Continuous
 62
     3
370
     0
100
AcDbLine
 10
4436.79901846455
 20
1392.407014058662
 30
0.0
 11
4436.79901846455
 21
1224.407014058662
 31
0.0
  0
INSERT
  5
2AE3
330
2AB8
100
AcDbEntity
  8
0
  6
Continuous
 62
     3
370
     0
100
AcDbBlockReference
  2
_ArchTick
 10
4436.79901846455
 20
1389.407014058662
 30
0.0
 41
0.4
 42
0.4
 43
0.4
 50
90.0
  0
INSERT
  5
2AE4
330
2AB8
100
AcDbEntity
  8
0
  6
Continuous
 62
     3
370
     0
100
AcDbBlockReference
  2
_ArchTick
 10
4436.79901846455
 20
1227.407014058662
 30
0.0
 41
0.4
 42
0.4
 43
0.4
 50
270.0
  0
MTEXT
  5
2AE5
330
2AB8
100
AcDbEntity
  8
0
  6
Continuous
 62
     0
370
     0
100
AcDbMText
 10
4421.799018464549
 20
1308.407014058662
 30
0.0
 40
20.0
 41
0.0
 71
     5
 72
     1
  1
\A1;162.0
 11
0.0000000000000001
 21
1.0
 31
0.0
 73
     1
 44
1.0
  0
POINT
  5
2AE6
330
2AB8
100
AcDbEntity
  8
DEFPOINTS
  6
Continuous
 62
     0
370
     0
100
AcDbPoint
 10
4370.933348897128
 20
1389.407014058662
 30
0.0
  0
POINT
  5
2AE7
330
2AB8
100
AcDbEntity
  8
DEFPOINTS
  6
Continuous
 62
     0
370
     0
100
AcDbPoint
 10
4370.933348897128
 20
1227.407014058662
 30
0.0
  0
POINT
  5
2AE8
330
2AB8
100
AcDbEntity
  8
DEFPOINTS
  6
Continuous
 62
     0
370
     0
100
AcDbPoint
 10
4436.79901846455
 20
1227.407014058662
 30
0.0
  0
ENDBLK
  5
2ABA
330
2AB8
100
AcDbEntity
  8
0
370
     0
100
AcDbBlockEnd
  0
BLOCK
  5
2AF4
330
2AF3
100
AcDbEntity
  8
0
370
     0
100
AcDbBlockBegin
  2
*D18
 70
     1
 10
0.0
 20
0.0
 30
0.0
  3
*D18
  1

  0
LINE
  5
2C2A
330
2AF3
100
AcDbEntity
  8
0
  6
Continuous
 62
     0
370
     0
100
AcDbLine
 10
4137.315615260231
 20
1204.433814160581
 30
0.0
 11
4137.315615260231
 21
1169.278548920781
 31
0.0
  0
LINE
  5
2C2B
330
2AF3
100
AcDbEntity
  8
0
  6
Continuous
 62
     0
370
     0
100
AcDbLine
 10
4310.315615260232
 20
1201.595514254501
 30
0.0
 11
4310.315615260232
 21
1169.278548920781
 31
0.0
  0
LINE
  5
2C2C
330
2AF3
100
AcDbEntity
  8
0
  6
Continuous
 62
     3
370
     0
100
AcDbLine
 10
4134.315615260231
 20
1179.278548920781
 30
0.0
 11
4313.315615260232
 21
1179.278548920781
 31
0.0
  0
INSERT
  5
2C2D
330
2AF3
100
AcDbEntity
  8
0
  6
Continuous
 62
     3
370
     0
100
AcDbBlockReference
  2
_ArchTick
 10
4137.315615260231
 20
1179.278548920781
 30
0.0
 41
0.4
 42
0.4
 43
0.4
 50
180.0
  0
INSERT
  5
2C2E
330
2AF3
100
AcDbEntity
  8
0
  6
Continuous
 62
     3
370
     0
100
AcDbBlockReference
  2
_ArchTick
 10
4310.315615260232
 20
1179.278548920781
 30
0.0
 41
0.4
 42
0.4
 43
0.4
  0
MTEXT
  5
2C2F
330
2AF3
100
AcDbEntity
  8
0
  6
Continuous
 62
     0
370
     0
100
AcDbMText
 10
4223.815615260231
 20
1194.278548920781
 30
0.0
 40
20.0
 41
0.0
 71
     5
 72
     1
  1
\A1;173.0
 73
     1
 44
1.0
  0
POINT
  5
2C30
330
2AF3
100
AcDbEntity
  8
DEFPOINTS
  6
Continuous
 62
     0
370
     0
100
AcDbPoint
 10
4137.315615260231
 20
1207.433814160581
 30
0.0
  0
POINT
  5
2C31
330
2AF3
100
AcDbEntity
  8
DEFPOINTS
  6
Continuous
 62
     0
370
     0
100
AcDbPoint
 10
4310.315615260232
 20
1204.595514254501
 30
0.0
  0
POINT
  5
2C32
330
2AF3
100
AcDbEntity
  8
DEFPOINTS
  6
Continuous
 62
     0
370
     0
100
AcDbPoint
 10
4310.315615260232
 20
1179.278548920781
 30
0.0
  0
ENDBLK
  5
2AF5
330
2AF3
100
AcDbEntity
  8
0
370
     0
100
AcDbBlockEnd
  0
BLOCK
  5
2B0A
330
2B09
100
AcDbEntity
  8
0
370
     0
100
AcDbBlockBegin
  2
*D19
 70
     1
 10
0.0
 20
0.0
 30
0.0
  3
*D19
  1

  0
LINE
  5
2C9B
330
2B09
100
AcDbEntity
  8
0
  6
Continuous
 62
     3
370
     0
100
AcDbLine
 10
4434.004276224142
 20
1417.044241125999
 30
0.0
 11
4500.357244734289
 21
1377.945379471497
 31
0.0
  0
MTEXT
  5
2C9C
330
2B09
100
AcDbEntity
  8
0
  6
Continuous
 62
     0
370
     0
100
AcDbMText
 10
4470.337698807353
 20
1413.045051895551
 30
0.0
 40
20.0
 41
0.0
 71
     5
 72
     1
  1
\A1;R5.0
 11
0.8615497903411931
 21
-0.5076730825669669
 31
0.0
 73
     1
 44
1.0
  0
INSERT
  5
2C9D
330
2B09
100
AcDbEntity
  8
0
  6
Continuous
 62
     3
370
     0
100
AcDbBlockReference
  2
_ArchTick
 10
4500.357244734289
 20
1377.945379471497
 30
0.0
 41
0.4
 42
0.4
 43
0.4
 50
329.4910411337867
  0
LINE
  5
2C9E
330
2B09
100
AcDbEntity
  8
0
  6
Continuous
 62
     0
370
     0
100
AcDbLine
 10
4502.664993685997
 20
1375.407014058661
 30
0.0
 11
4506.664993685999
 21
1375.407014058661
 31
0.0
  0
LINE
  5
2C9F
330
2B09
100
AcDbEntity
  8
0
  6
Continuous
 62
     0
370
     0
100
AcDbLine
 10
4504.664993685998
 20
1373.407014058661
 30
0.0
 11
4504.664993685998
 21
1377.407014058661
 31
0.0
  0
POINT
  5
2CA0
330
2B09
100
AcDbEntity
  8
DEFPOINTS
  6
Continuous
 62
     0
370
     0
100
AcDbPoint
 10
4500.357244734289
 20
1377.945379471497
 30
0.0
  0
POINT
  5
2CA1
330
2B09
100
AcDbEntity
  8
DEFPOINTS
  6
Continuous
 62
     0
370
     0
100
AcDbPoint
 10
4504.664993685998
 20
1375.407014058661
 30
0.0
  0
ENDBLK
  5
2B0B
330
2B09
100
AcDbEntity
  8
0
370
     0
100
AcDbBlockEnd
  0
BLOCK
  5
2B15
330
2B14
100
AcDbEntity
  8
0
370
     0
100
AcDbBlockBegin
  2
*D20
 70
     1
 10
0.0
 20
0.0
 30
0.0
  3
*D20
  1

  0
LINE
  5
2CC0
330
2B14
100
AcDbEntity
  8
0
  6
Continuous
 62
     0
370
     0
100
AcDbLine
 10
4498.664993685998
 20
1199.989075765153
 30
0.0
 11
4498.664993685998
 21
1157.287409268982
 31
0.0
  0
LINE
  5
2CC1
330
2B14
100
AcDbEntity
  8
0
  6
Continuous
 62
     0
370
     0
100
AcDbLine
 10
4671.664993685998
 20
1201.284784884656
 30
0.0
 11
4671.664993685998
 21
1157.287409268982
 31
0.0
  0
LINE
  5
2CC2
330
2B14
100
AcDbEntity
  8
0
  6
Continuous
 62
     3
370
     0
100
AcDbLine
 10
4495.664993685998
 20
1167.287409268982
 30
0.0
 11
4674.664993685997
 21
1167.287409268982
 31
0.0
  0
INSERT
  5
2CC3
330
2B14
100
AcDbEntity
  8
0
  6
Continuous
 62
     3
370
     0
100
AcDbBlockReference
  2
_ArchTick
 10
4498.664993685998
 20
1167.287409268982
 30
0.0
 41
0.4
 42
0.4
 43
0.4
 50
180.0
  0
INSERT
  5
2CC4
330
2B14
100
AcDbEntity
  8
0
  6
Continuous
 62
     3
370
     0
100
AcDbBlockReference
  2
_ArchTick
 10
4671.664993685998
 20
1167.287409268982
 30
0.0
 41
0.4
 42
0.4
 43
0.4
  0
MTEXT
  5
2CC5
330
2B14
100
AcDbEntity
  8
0
  6
Continuous
 62
     0
370
     0
100
AcDbMText
 10
4585.164993685998
 20
1182.287409268982
 30
0.0
 40
20.0
 41
0.0
 71
     5
 72
     1
  1
\A1;173.0
 73
     1
 44
1.0
  0
POINT
  5
2CC6
330
2B14
100
AcDbEntity
  8
DEFPOINTS
  6
Continuous
 62
     0
370
     0
100
AcDbPoint
 10
4498.664993685998
 20
1202.989075765153
 30
0.0
  0
POINT
  5
2CC7
330
2B14
100
AcDbEntity
  8
DEFPOINTS
  6
Continuous
 62
     0
370
     0
100
AcDbPoint
 10
4671.664993685998
 20
1204.284784884656
 30
0.0
  0
POINT
  5
2CC8
330
2B14
100
AcDbEntity
  8
DEFPOINTS
  6
Continuous
 62
     0
370
     0
100
AcDbPoint
 10
4671.664993685998
 20
1167.287409268982
 30
0.0
  0
ENDBLK
  5
2B16
330
2B14
100
AcDbEntity
  8
0
370
     0
100
AcDbBlockEnd
  0
BLOCK
  5
2B22
330
2B21
100
AcDbEntity
  8
0
370
     0
100
AcDbBlockBegin
  2
*D21
 70
     1
 10
0.0
 20
0.0
 30
0.0
  3
*D21
  1

  0
LINE
  5
2CE4
330
2B21
100
AcDbEntity
  8
0
  6
Continuous
 62
     0
370
     0
100
AcDbLine
 10
4690.268470203451
 20
1381.407014058662
 30
0.0
 11
4731.318325688209
 21
1381.407014058662
 31
0.0
  0
LINE
  5
2CE5
330
2B21
100
AcDbEntity
  8
0
  6
Continuous
 62
     0
370
     0
100
AcDbLine
 10
4691.564905707426
 20
1235.407014058661
 30
0.0
 11
4731.318325688209
 21
1235.407014058661
 31
0.0
  0
LINE
  5
2CE6
330
2B21
100
AcDbEntity
  8
0
  6
Continuous
 62
     3
370
     0
100
AcDbLine
 10
4721.318325688209
 20
1384.407014058662
 30
0.0
 11
4721.318325688209
 21
1232.407014058662
 31
0.0
  0
INSERT
  5
2CE7
330
2B21
100
AcDbEntity
  8
0
  6
Continuous
 62
     3
370
     0
100
AcDbBlockReference
  2
_ArchTick
 10
4721.318325688209
 20
1381.407014058662
 30
0.0
 41
0.4
 42
0.4
 43
0.4
 50
90.0
  0
INSERT
  5
2CE8
330
2B21
100
AcDbEntity
  8
0
  6
Continuous
 62
     3
370
     0
100
AcDbBlockReference
  2
_ArchTick
 10
4721.318325688209
 20
1235.407014058661
 30
0.0
 41
0.4
 42
0.4
 43
0.4
 50
270.0
  0
MTEXT
  5
2CE9
330
2B21
100
AcDbEntity
  8
0
  6
Continuous
 62
     0
370
     0
100
AcDbMText
 10
4706.318325688209
 20
1308.407014058662
 30
0.0
 40
20.0
 41
0.0
 71
     5
 72
     1
  1
\A1;146.0
 11
0.0000000000000001
 21
1.0
 31
0.0
 73
     1
 44
1.0
  0
POINT
  5
2CEA
330
2B21
100
AcDbEntity
  8
DEFPOINTS
  6
Continuous
 62
     0
370
     0
100
AcDbPoint
 10
4687.268470203451
 20
1381.407014058662
 30
0.0
  0
POINT
  5
2CEB
330
2B21
100
AcDbEntity
  8
DEFPOINTS
  6
Continuous
 62
     0
370
     0
100
AcDbPoint
 10
4688.564905707425
 20
1235.407014058661
 30
0.0
  0
POINT
  5
2CEC
330
2B21
100
AcDbEntity
  8
DEFPOINTS
  6
Continuous
 62
     0
370
     0
100
AcDbPoint
 10
4721.318325688209
 20
1235.407014058661
 30
0.0
  0
ENDBLK
  5
2B23
330
2B21
100
AcDbEntity
  8
0
370
     0
100
AcDbBlockEnd
  0
BLOCK
  5
2C7A
330
2C79
100
AcDbEntity
  8
0
370
     0
100
AcDbBlockBegin
  2
*D22
 70
     1
 10
0.0
 20
0.0
 30
0.0
  3
*D22
  1

  0
LINE
  5
2C7C
330
2C79
100
AcDbEntity
  8
0
  6
Continuous
 62
     0
370
     0
100
AcDbLine
 10
4310.315615260232
 20
1311.407014058662
 30
0.0
 11
4310.315615260232
 21
1325.420596646449
 31
0.0
  0
LINE
  5
2C7D
330
2C79
100
AcDbEntity
  8
0
  6
Continuous
 62
     0
370
     0
100
AcDbLine
 10
4318.315615260231
 20
1311.407014058662
 30
0.0
 11
4318.315615260231
 21
1325.420596646449
 31
0.0
  0
LINE
  5
2C7E
330
2C79
100
AcDbEntity
  8
0
  6
Continuous
 62
     3
370
     0
100
AcDbLine
 10
4310.315615260232
 20
1315.420596646449
 30
0.0
 11
4309.915615260232
 21
1315.420596646449
 31
0.0
  0
LINE
  5
2C7F
330
2C79
100
AcDbEntity
  8
0
  6
Continuous
 62
     3
370
     0
100
AcDbLine
 10
4318.315615260231
 20
1315.420596646449
 30
0.0
 11
4365.782281926898
 21
1315.420596646449
 31
0.0
  0
INSERT
  5
2C80
330
2C79
100
AcDbEntity
  8
0
  6
Continuous
 62
     3
370
     0
100
AcDbBlockReference
  2
_ArchTick
 10
4310.315615260232
 20
1315.420596646449
 30
0.0
 41
0.4
 42
0.4
 43
0.4
  0
INSERT
  5
2C81
330
2C79
100
AcDbEntity
  8
0
  6
Continuous
 62
     3
370
     0
100
AcDbBlockReference
  2
_ArchTick
 10
4318.315615260231
 20
1315.420596646449
 30
0.0
 41
0.4
 42
0.4
 43
0.4
 50
180.0
  0
MTEXT
  5
2C82
330
2C79
100
AcDbEntity
  8
0
  6
Continuous
 62
     0
370
     0
100
AcDbMText
 10
4342.448948593564
 20
1330.420596646449
 30
0.0
 40
20.0
 41
0.0
 71
     5
 72
     1
  1
\A1;8.0
 73
     1
 44
1.0
  0
POINT
  5
2C83
330
2C79
100
AcDbEntity
  8
DEFPOINTS
  6
Continuous
 62
     0
370
     0
100
AcDbPoint
 10
4310.315615260232
 20
1308.407014058662
 30
0.0
  0
POINT
  5
2C84
330
2C79
100
AcDbEntity
  8
DEFPOINTS
  6
Continuous
 62
     0
370
     0
100
AcDbPoint
 10
4318.315615260231
 20
1308.407014058662
 30
0.0
  0
POINT
  5
2C85
330
2C79
100
AcDbEntity
  8
DEFPOINTS
  6
Continuous
 62
     0
370
     0
100
AcDbPoint
 10
4318.315615260231
 20
1315.420596646449
 30
0.0
  0
ENDBLK
  5
2C7B
330
2C79
100
AcDbEntity
  8
0
370
     0
100
AcDbBlockEnd
  0
ENDSEC
  0
SECTION
  2
ENTITIES
  0
LINE
  5
1216
330
A
100
AcDbEntity
  8
0
  6
Continuous
 62
     3
370
     0
100
AcDbLine
 10
3860.594144813227
 20
1389.407014058662
 30
0.0
 11
4039.594144813227
 21
1389.407014058662
 31
0.0
  0
LINE
  5
121B
330
A
100
AcDbEntity
  8
0
  6
Continuous
 62
     3
370
     0
100
AcDbLine
 10
4044.594144813227
 20
1384.407014058662
 30
0.0
 11
4044.594144813227
 21
1232.407014058662
 31
0.0
  0
LINE
  5
1220
330
A
100
AcDbEntity
  8
0
  6
Continuous
 62
     3
370
     0
100
AcDbLine
 10
4039.594144813227
 20
1227.407014058662
 30
0.0
 11
3860.594144813228
 21
1227.407014058661
 31
0.0
  0
LINE
  5
1225
330
A
100
AcDbEntity
  8
0
  6
Continuous
 62
     3
370
     0
100
AcDbLine
 10
3855.594144813228
 20
1232.407014058662
 30
0.0
 11
3855.594144813227
 21
1384.407014058662
 31
0.0
  0
MTEXT
  5
122B
330
A
100
AcDbEntity
  8
0
  6
Continuous
370
     0
100
AcDbMText
 10
3875.982304359257
 20
1094.320029841179
 30
0.0
 40
15.0
 41
228.3165831294991
 71
     1
 72
     5
  1
{\fSimSun|b0|i0|c134|p2;A³ß´ç£º\fArial|b1|i0|c0|p34;189*162*5mm}
 73
     1
 44
1.0
  0
LINE
  5
122C
330
A
100
AcDbEntity
  8
0
  6
Continuous
 62
     3
370
     0
100
AcDbLine
 10
4134.315615260231
 20
1389.407014058662
 30
0.0
 11
4313.31561526023
 21
1389.407014058662
 31
0.0
  0
LINE
  5
122E
330
A
100
AcDbEntity
  8
0
  6
Continuous
 62
     3
370
     0
100
AcDbLine
 10
4318.315615260231
 20
1384.407014058662
 30
0.0
 11
4318.315615260231
 21
1232.407014058662
 31
0.0
  0
ARC
  5
122F
330
A
100
AcDbEntity
  8
0
  6
Continuous
 62
     3
370
     0
100
AcDbCircle
 10
4313.31561526023
 20
1384.407014058662
 30
0.0
 40
5.0
100
AcDbArc
 50
0.0
 51
90.0
  0
LINE
  5
1232
330
A
100
AcDbEntity
  8
0
  6
Continuous
 62
     3
370
     0
100
AcDbLine
 10
4313.31561526023
 20
1227.407014058662
 30
0.0
 11
4134.31561526023
 21
1227.407014058662
 31
0.0
  0
ARC
  5
1233
330
A
100
AcDbEntity
  8
0
  6
Continuous
 62
     3
370
     0
100
AcDbCircle
 10
4313.31561526023
 20
1232.407014058662
 30
0.0
 40
5.0
100
AcDbArc
 50
270.0
 51
0.0
  0
LINE
  5
1237
330
A
100
AcDbEntity
  8
0
  6
Continuous
 62
     3
370
     0
100
AcDbLine
 10
4129.31561526023
 20
1232.407014058662
 30
0.0
 11
4129.315615260231
 21
1384.407014058662
 31
0.0
  0
ARC
  5
1238
330
A
100
AcDbEntity
  8
0
  6
Continuous
 62
     3
370
     0
100
AcDbCircle
 10
4134.31561526023
 20
1232.407014058662
 30
0.0
 40
5.0
100
AcDbArc
 50
180.0
 51
270.0
  0
ARC
  5
1239
330
A
100
AcDbEntity
  8
0
  6
Continuous
 62
     3
370
     0
100
AcDbCircle
 10
4134.315615260231
 20
1384.407014058662
 30
0.0
 40
5.0
100
AcDbArc
 50
90.0
 51
180.0
  0
MTEXT
  5
123C
330
A
100
AcDbEntity
  8
0
  6
Continuous
370
     0
100
AcDbMText
 10
4125.765634382118
 20
1094.320029841179
 30
0.0
 40
15.0
 41
228.3165831294991
 71
     1
 72
     5
  1
{\fSimSun|b0|i0|c134|p2;B³ß´ç£º\fArial|b1|i0|c0|p34;189*162*48mm}
 73
     1
 44
1.0
  0
MTEXT
  5
123D
330
A
100
AcDbEntity
  8
0
  6
Continuous
370
     0
100
AcDbMText
 10
4000.149849941403
 20
1042.530952803676
 30
0.0
 40
15.0
 41
228.3165831294991
 71
     1
 72
     5
  1
{\fSimSun|b0|i0|c134|p2;ABÕ³ºÏ³ß´ç£º\fArial|b1|i0|c0|p34;189*162*53mm}
 73
     1
 44
1.0
  0
DIMENSION
  5
1240
330
A
100
AcDbEntity
  8
0
  6
Continuous
370
     0
100
AcDbDimension
  2
*D6
 10
3981.884387360017
 20
1365.407014058662
 30
0.0
 11
4005.641054026683
 21
1414.593586566142
 31
0.0
 70
   160
  1
20*20
 71
     5
 42
20.0
  3
Standard
100
AcDbAlignedDimension
 13
3990.567580277742
 23
1345.407014058662
 33
0.0
 14
3990.567580277742
 24
1365.407014058662
 34
0.0
 50
90.0
100
AcDbRotatedDimension
1001
ACAD
1000
DSTYLE
1002
{
1070
    41
1040
2.0
1070
   140
1040
10.0
1070
   278
1070
     0
1070
   371
1070
     0
1070
   372
1070
     0
1002
}
  0
LINE
  5
24C9
330
A
100
AcDbEntity
  8
0
  6
Continuous
 62
     3
370
     0
100
AcDbLine
 10
4213.815615260231
 20
1381.407014058662
 30
0.0
 11
4213.815615260231
 21
1389.407014058662
 31
0.0
  0
LINE
  5
24CA
330
A
100
AcDbEntity
  8
0
  6
Continuous
 62
     3
370
     0
100
AcDbLine
 10
4233.815615260231
 20
1381.407014058662
 30
0.0
 11
4233.815615260231
 21
1389.407014058662
 31
0.0
  0
LINE
  5
24CB
330
A
100
AcDbEntity
  8
0
  6
Continuous
 62
     3
370
     0
100
AcDbLine
 10
4233.815615260231
 20
1235.407014058662
 30
0.0
 11
4233.815615260231
 21
1227.407014058662
 31
0.0
  0
LINE
  5
24CC
330
A
100
AcDbEntity
  8
0
  6
Continuous
 62
     3
370
     0
100
AcDbLine
 10
4213.815615260231
 20
1235.407014058662
 30
0.0
 11
4213.815615260231
 21
1227.407014058662
 31
0.0
  0
MTEXT
  5
24CD
330
A
100
AcDbEntity
  8
0
  6
Continuous
370
     0
100
AcDbMText
 10
4228.732749766383
 20
1421.631912853362
 30
0.0
 40
10.0
 41
146.2818605574848
 71
     1
 72
     5
  1
{\fSimSun|b0|i0|c134|p2;´Ë2´¦20\fArial|b1|i0|c0|p34;mm\fSimSun|b0|i0|c134|p2;°ëÔ²Ö¸¿Û}
 73
     1
 44
1.0
  0
LINE
  5
24CE
330
A
100
AcDbEntity
  8
0
  6
Continuous
370
     0
100
AcDbLine
 10
4223.815615260231
 20
1389.407014058662
 30
0.0
 11
4223.815615260231
 21
1406.546278937759
 31
0.0
  0
LINE
  5
24CF
330
A
100
AcDbEntity
  8
0
  6
Continuous
370
     0
100
AcDbLine
 10
4223.815615260231
 20
1406.546278937759
 30
0.0
 11
4361.068158164306
 21
1406.546278937759
 31
0.0
  0
LINE
  5
24E1
330
A
100
AcDbEntity
  8
0
  6
Continuous
 62
     3
370
     0
100
AcDbLine
 10
3879.594144813228
 20
1251.407014058662
 30
0.0
 11
3879.594144813228
 21
1271.407014058662
 31
0.0
  0
LINE
  5
24E2
330
A
100
AcDbEntity
  8
0
  6
Continuous
 62
     3
370
     0
100
AcDbLine
 10
3879.594144813228
 20
1365.407014058662
 30
0.0
 11
3899.594144813229
 21
1365.407014058662
 31
0.0
  0
LINE
  5
24E3
330
A
100
AcDbEntity
  8
0
  6
Continuous
 62
     3
370
     0
100
AcDbLine
 10
4020.594144813227
 20
1365.407014058662
 30
0.0
 11
4020.594144813227
 21
1345.407014058662
 31
0.0
  0
LINE
  5
24E4
330
A
100
AcDbEntity
  8
0
  6
Continuous
 62
     3
370
     0
100
AcDbLine
 10
4020.594144813227
 20
1251.407014058662
 30
0.0
 11
4000.594144813228
 21
1251.407014058662
 31
0.0
  0
LINE
  5
24E5
330
A
100
AcDbEntity
  8
0
  6
Continuous
 62
     3
370
     0
100
AcDbLine
 10
3899.594144813227
 20
1251.407014058662
 30
0.0
 11
3899.594144813227
 21
1271.407014058662
 31
0.0
  0
LINE
  5
24E6
330
A
100
AcDbEntity
  8
0
  6
Continuous
 62
     3
370
     0
100
AcDbLine
 10
4000.594144813228
 20
1365.407014058662
 30
0.0
 11
4000.594144813228
 21
1345.407014058662
 31
0.0
  0
LINE
  5
24E7
330
A
100
AcDbEntity
  8
0
  6
Continuous
 62
     3
370
     0
100
AcDbLine
 10
3879.594144813228
 20
1345.407014058662
 30
0.0
 11
3899.594144813229
 21
1345.407014058662
 31
0.0
  0
LINE
  5
24E8
330
A
100
AcDbEntity
  8
0
  6
Continuous
 62
     3
370
     0
100
AcDbLine
 10
4020.594144813227
 20
1271.407014058662
 30
0.0
 11
4000.594144813228
 21
1271.407014058662
 31
0.0
  0
LINE
  5
24E9
330
A
100
AcDbEntity
  8
0
  6
Continuous
 62
     3
370
     0
100
AcDbLine
 10
4000.594144813229
 20
1345.407014058662
 30
0.0
 11
4020.594144813229
 21
1345.407014058662
 31
0.0
  0
LINE
  5
24EA
330
A
100
AcDbEntity
  8
0
  6
Continuous
 62
     3
370
     0
100
AcDbLine
 10
4000.594144813229
 20
1365.407014058662
 30
0.0
 11
4020.594144813229
 21
1365.407014058662
 31
0.0
  0
LINE
  5
24EB
330
A
100
AcDbEntity
  8
0
  6
Continuous
 62
     3
370
     0
100
AcDbLine
 10
3899.594144813227
 20
1345.407014058662
 30
0.0
 11
3899.594144813228
 21
1365.407014058662
 31
0.0
  0
LINE
  5
24EC
330
A
100
AcDbEntity
  8
0
  6
Continuous
 62
     3
370
     0
100
AcDbLine
 10
3879.594144813228
 20
1345.407014058662
 30
0.0
 11
3879.594144813228
 21
1365.407014058662
 31
0.0
  0
LINE
  5
24ED
330
A
100
AcDbEntity
  8
0
  6
Continuous
 62
     3
370
     0
100
AcDbLine
 10
4000.594144813228
 20
1271.407014058662
 30
0.0
 11
4000.594144813228
 21
1251.407014058662
 31
0.0
  0
LINE
  5
24EE
330
A
100
AcDbEntity
  8
0
  6
Continuous
 62
     3
370
     0
100
AcDbLine
 10
4020.594144813227
 20
1271.407014058662
 30
0.0
 11
4020.594144813227
 21
1251.407014058662
 31
0.0
  0
LINE
  5
251C
330
A
100
AcDbEntity
  8
0
  6
Continuous
 62
     3
370
     0
100
AcDbLine
 10
3899.594144813227
 20
1271.407014058662
 30
0.0
 11
3879.594144813228
 21
1271.407014058662
 31
0.0
  0
LINE
  5
251D
330
A
100
AcDbEntity
  8
0
  6
Continuous
 62
     3
370
     0
100
AcDbLine
 10
3899.594144813227
 20
1251.407014058662
 30
0.0
 11
3879.594144813228
 21
1251.407014058662
 31
0.0
  0
DIMENSION
  5
251E
330
A
100
AcDbEntity
  8
0
  6
Continuous
370
     0
100
AcDbDimension
  2
*D8
 10
3919.562708839818
 20
1389.407014058662
 30
0.0
 11
3929.98604217315
 21
1414.593586566142
 31
0.0
 70
   160
  1
24
 71
     5
 42
24.00000000000023
  3
Standard
100
AcDbAlignedDimension
 13
3904.406888047154
 23
1365.407014058662
 33
0.0
 14
3905.776718286827
 24
1389.407014058662
 34
0.0
 50
90.0
100
AcDbRotatedDimension
1001
ACAD
1000
DSTYLE
1002
{
1070
    41
1040
2.0
1070
   140
1040
10.0
1070
   278
1070
     0
1070
   371
1070
     0
1070
   372
1070
     0
1002
}
  0
DIMENSION
  5
25C0
330
A
100
AcDbEntity
  8
0
  6
Continuous
370
     0
100
AcDbDimension
  2
*D9
 10
3855.594144813228
 20
1407.776186319687
 30
0.0
 11
3867.594144813228
 21
1407.776186319687
 31
0.0
 70
    32
  1
24
 71
     5
 42
24.00000000000091
  3
Standard
100
AcDbAlignedDimension
 13
3879.594144813228
 23
1396.302036338425
 33
0.0
 14
3855.594144813228
 24
1396.302036338425
 34
0.0
100
AcDbRotatedDimension
1001
ACAD
1000
DSTYLE
1002
{
1070
    41
1040
2.0
1070
   140
1040
10.0
1070
   278
1070
     0
1070
   371
1070
     0
1070
   372
1070
     0
1002
}
  0
MTEXT
  5
2959
330
A
100
AcDbEntity
  8
0
  6
Continuous
370
     0
100
AcDbMText
 10
4386.01297256558
 20
1094.320029841179
 30
0.0
 40
15.0
 41
228.3165831294991
 71
     1
 72
     5
  1
{\fSimSun|b0|i0|c134|p2;C³ß´ç£º\fArial|b1|i0|c0|p34;171*144*3mm}
 73
     1
 44
1.0
  0
MTEXT
  5
295A
330
A
100
AcDbEntity
  8
0
  6
Continuous
370
     0
100
AcDbMText
 10
4284.28876336506
 20
1042.530952803676
 30
0.0
 40
15.0
 41
228.3165831294991
 71
     1
 72
     5
  1
{\fSimSun|b0|i0|c134|p2;C¸Ç°å}
 73
     1
 44
1.0
  0
ARC
  5
2A2D
330
A
100
AcDbEntity
  8
0
  6
Continuous
 62
     3
370
     0
100
AcDbCircle
 10
3860.594144813227
 20
1384.407014058662
 30
0.0
 40
5.0
100
AcDbArc
 50
90.0
 51
180.0
  0
ARC
  5
2A2E
330
A
100
AcDbEntity
  8
0
  6
Continuous
 62
     3
370
     0
100
AcDbCircle
 10
4039.594144813227
 20
1384.407014058662
 30
0.0
 40
5.0
100
AcDbArc
 50
0.0
 51
90.0
  0
ARC
  5
2A2F
330
A
100
AcDbEntity
  8
0
  6
Continuous
 62
     3
370
     0
100
AcDbCircle
 10
4039.594144813227
 20
1232.407014058662
 30
0.0
 40
5.0
100
AcDbArc
 50
270.0
 51
0.0
  0
ARC
  5
2A30
330
A
100
AcDbEntity
  8
0
  6
Continuous
 62
     3
370
     0
100
AcDbCircle
 10
3860.594144813228
 20
1232.407014058662
 30
0.0
 40
5.0
100
AcDbArc
 50
180.0000000000001
 51
270.0
  0
DIMENSION
  5
2A31
330
A
100
AcDbEntity
  8
0
  6
Continuous
370
     0
100
AcDbDimension
  2
*D10
 10
3860.594144813227
 20
1384.40701405866
 30
0.0
 11
3812.811319540219
 21
1417.984922255629
 31
0.0
 70
   164
 71
     5
 42
5.000000000000909
  3
Standard
100
AcDbRadialDimension
 15
3856.503218054908
 25
1387.281786790212
 35
0.0
 40
0.0
1001
ACAD
1000
DSTYLE
1002
{
1070
    41
1040
0.4
1070
    42
1040
3.0
1070
    43
1040
3.0
1070
    44
1040
10.0
1070
    46
1040
3.0
1070
    47
1040
0.0015
1070
    48
1040
0.0015
1070
    73
1070
     0
1070
    74
1070
     0
1070
    77
1070
     1
1070
   140
1040
20.0
1070
   141
1040
2.0
1070
   146
1040
1.000499999999999
1070
   147
1040
5.0
1070
   176
1070
     3
1070
   271
1070
     1
1070
   272
1070
     1
1070
   278
1070
     0
1070
   288
1070
     1
1070
   341
1005
12DF
1070
   342
1005
12DF
1070
   371
1070
     0
1070
   372
1070
     0
1002
}
1001
ACAD_DSTYLE_DIMRADIAL_EXTENSION
1000

  0
DIMENSION
  5
2A3F
330
A
100
AcDbEntity
  8
0
  6
Continuous
370
     0
100
AcDbDimension
  2
*D11
 10
3855.594144813227
 20
1178.798217805683
 30
0.0
 11
3950.094144813228
 21
1193.798217805682
 31
0.0
 70
    32
 71
     5
 42
189.0000000000004
  3
Standard
100
AcDbAlignedDimension
 13
4044.594144813227
 23
1189.656260966259
 33
0.0
 14
3855.594144813227
 24
1189.656260966258
 34
0.0
100
AcDbRotatedDimension
1001
ACAD
1000
DSTYLE
1002
{
1070
    41
1040
0.4
1070
    42
1040
3.0
1070
    43
1040
3.0
1070
    44
1040
10.0
1070
    46
1040
3.0
1070
    47
1040
0.0015
1070
    48
1040
0.0015
1070
    73
1070
     0
1070
    74
1070
     0
1070
    77
1070
     1
1070
   140
1040
20.0
1070
   141
1040
2.0
1070
   146
1040
1.000499999999999
1070
   147
1040
5.0
1070
   176
1070
     3
1070
   271
1070
     1
1070
   272
1070
     1
1070
   278
1070
     0
1070
   341
1005
12DF
1070
   342
1005
12DF
1070
   371
1070
     0
1070
   372
1070
     0
1002
}
  0
DIMENSION
  5
2A55
330
A
100
AcDbEntity
  8
0
  6
Continuous
370
     0
100
AcDbDimension
  2
*D12
 10
3805.636581034214
 20
1227.407014058662
 30
0.0
 11
3790.636581034214
 21
1308.407014058662
 31
0.0
 70
    32
 71
     5
 42
162.0000000000002
  3
Standard
100
AcDbAlignedDimension
 13
3834.583630483882
 23
1389.407014058662
 33
0.0
 14
3834.583630483882
 24
1227.407014058662
 34
0.0
 50
90.0
100
AcDbRotatedDimension
1001
ACAD
1000
DSTYLE
1002
{
1070
    41
1040
0.4
1070
    42
1040
3.0
1070
    43
1040
3.0
1070
    44
1040
10.0
1070
    46
1040
3.0
1070
    47
1040
0.0015
1070
    48
1040
0.0015
1070
    73
1070
     0
1070
    74
1070
     0
1070
    77
1070
     1
1070
   140
1040
20.0
1070
   141
1040
2.0
1070
   146
1040
1.000499999999999
1070
   147
1040
5.0
1070
   176
1070
     3
1070
   271
1070
     1
1070
   272
1070
     1
1070
   278
1070
     0
1070
   341
1005
12DF
1070
   342
1005
12DF
1070
   371
1070
     0
1070
   372
1070
     0
1002
}
  0
DIMENSION
  5
2A7D
330
A
100
AcDbEntity
  8
0
  6
Continuous
370
     0
100
AcDbDimension
  2
*D13
 10
4143.31561526023
 20
1375.407014058655
 30
0.0
 11
4188.609461348939
 21
1335.495188175774
 31
0.0
 70
   164
 71
     5
 42
4.999999999996362
  3
Standard
100
AcDbRadialDimension
 15
4147.066995107504
 25
1372.101390177837
 35
0.0
 40
0.0
1001
ACAD
1000
DSTYLE
1002
{
1070
    41
1040
0.4
1070
    42
1040
3.0
1070
    43
1040
3.0
1070
    44
1040
10.0
1070
    46
1040
3.0
1070
    47
1040
0.0015
1070
    48
1040
0.0015
1070
    73
1070
     0
1070
    74
1070
     0
1070
    77
1070
     1
1070
   140
1040
20.0
1070
   141
1040
2.0
1070
   146
1040
1.000499999999999
1070
   147
1040
5.0
1070
   176
1070
     3
1070
   271
1070
     1
1070
   272
1070
     1
1070
   278
1070
     0
1070
   288
1070
     1
1070
   341
1005
12DF
1070
   342
1005
12DF
1070
   371
1070
     0
1070
   372
1070
     0
1002
}
1001
ACAD_DSTYLE_DIMRADIAL_EXTENSION
1000

  0
DIMENSION
  5
2A89
330
A
100
AcDbEntity
  8
0
  6
Continuous
370
     0
100
AcDbDimension
  2
*D14
 10
4134.31561526023
 20
1384.407014058655
 30
0.0
 11
4110.317469438605
 21
1418.765517735359
 31
0.0
 70
    36
 71
     5
 42
5.000000000003183
  3
Standard
100
AcDbRadialDimension
 15
4130.17507132651
 25
1387.209851180746
 35
0.0
 40
0.0
1001
ACAD
1000
DSTYLE
1002
{
1070
    41
1040
0.4
1070
    42
1040
3.0
1070
    43
1040
3.0
1070
    44
1040
10.0
1070
    46
1040
3.0
1070
    47
1040
0.0015
1070
    48
1040
0.0015
1070
    73
1070
     0
1070
    74
1070
     0
1070
    77
1070
     1
1070
   140
1040
20.0
1070
   141
1040
2.0
1070
   146
1040
1.000499999999999
1070
   147
1040
5.0
1070
   176
1070
     3
1070
   271
1070
     1
1070
   272
1070
     1
1070
   278
1070
     0
1070
   288
1070
     1
1070
   341
1005
12DF
1070
   342
1005
12DF
1070
   371
1070
     0
1070
   372
1070
     0
1002
}
1001
ACAD_DSTYLE_DIMRADIAL_EXTENSION
1000

  0
DIMENSION
  5
2A94
330
A
100
AcDbEntity
  8
0
  6
Continuous
370
     0
100
AcDbDimension
  2
*D15
 10
4318.315615260231
 20
1139.879108182669
 30
0.0
 11
4223.815615260231
 21
1154.879108182669
 31
0.0
 70
    32
 71
     5
 42
189.0000000000009
  3
Standard
100
AcDbAlignedDimension
 13
4129.315615260231
 23
1182.500104785838
 33
0.0
 14
4318.315615260231
 24
1182.562604785839
 34
0.0
100
AcDbRotatedDimension
1001
ACAD
1000
DSTYLE
1002
{
1070
    41
1040
0.4
1070
    42
1040
3.0
1070
    43
1040
3.0
1070
    44
1040
10.0
1070
    46
1040
3.0
1070
    47
1040
0.0015
1070
    48
1040
0.0015
1070
    73
1070
     0
1070
    74
1070
     0
1070
    77
1070
     1
1070
   140
1040
20.0
1070
   141
1040
2.0
1070
   146
1040
1.000499999999999
1070
   147
1040
5.0
1070
   176
1070
     3
1070
   271
1070
     1
1070
   272
1070
     1
1070
   278
1070
     0
1070
   341
1005
12DF
1070
   342
1005
12DF
1070
   371
1070
     0
1070
   372
1070
     0
1002
}
  0
DIMENSION
  5
2AAA
330
A
100
AcDbEntity
  8
0
  6
Continuous
370
     0
100
AcDbDimension
  2
*D16
 10
4402.519585055324
 20
1235.407014058662
 30
0.0
 11
4387.519585055325
 21
1308.407014058662
 31
0.0
 70
    32
 71
     5
 42
146.0000000000004
  3
Standard
100
AcDbAlignedDimension
 13
4349.936543285853
 23
1381.407014058662
 33
0.0
 14
4358.491387892221
 24
1235.407014058662
 34
0.0
 50
90.0
100
AcDbRotatedDimension
1001
ACAD
1000
DSTYLE
1002
{
1070
    41
1040
0.4
1070
    42
1040
3.0
1070
    43
1040
3.0
1070
    44
1040
10.0
1070
    46
1040
3.0
1070
    47
1040
0.0015
1070
    48
1040
0.0015
1070
    73
1070
     0
1070
    74
1070
     0
1070
    77
1070
     1
1070
   140
1040
20.0
1070
   141
1040
2.0
1070
   146
1040
1.000499999999999
1070
   147
1040
5.0
1070
   176
1070
     3
1070
   271
1070
     1
1070
   272
1070
     1
1070
   278
1070
     0
1070
   341
1005
12DF
1070
   342
1005
12DF
1070
   371
1070
     0
1070
   372
1070
     0
1002
}
  0
DIMENSION
  5
2AB7
330
A
100
AcDbEntity
  8
0
  6
Continuous
370
     0
100
AcDbDimension
  2
*D17
 10
4436.79901846455
 20
1227.407014058662
 30
0.0
 11
4421.799018464549
 21
1308.407014058662
 31
0.0
 70
    32
 71
     5
 42
162.0000000000002
  3
Standard
100
AcDbAlignedDimension
 13
4370.933348897128
 23
1389.407014058662
 33
0.0
 14
4370.933348897128
 24
1227.407014058662
 34
0.0
 50
90.0
100
AcDbRotatedDimension
1001
ACAD
1000
DSTYLE
1002
{
1070
    41
1040
0.4
1070
    42
1040
3.0
1070
    43
1040
3.0
1070
    44
1040
10.0
1070
    46
1040
3.0
1070
    47
1040
0.0015
1070
    48
1040
0.0015
1070
    73
1070
     0
1070
    74
1070
     0
1070
    77
1070
     1
1070
   140
1040
20.0
1070
   141
1040
2.0
1070
   146
1040
1.000499999999999
1070
   147
1040
5.0
1070
   176
1070
     3
1070
   271
1070
     1
1070
   272
1070
     1
1070
   278
1070
     0
1070
   341
1005
12DF
1070
   342
1005
12DF
1070
   371
1070
     0
1070
   372
1070
     0
1002
}
  0
DIMENSION
  5
2AF2
330
A
100
AcDbEntity
  8
0
  6
Continuous
370
     0
100
AcDbDimension
  2
*D18
 10
4310.315615260232
 20
1179.278548920781
 30
0.0
 11
4223.815615260231
 21
1194.278548920781
 31
0.0
 70
    32
 71
     5
 42
173.0
  3
Standard
100
AcDbAlignedDimension
 13
4137.315615260231
 23
1207.433814160581
 33
0.0
 14
4310.315615260232
 24
1204.595514254501
 34
0.0
100
AcDbRotatedDimension
1001
ACAD
1000
DSTYLE
1002
{
1070
    41
1040
0.4
1070
    42
1040
3.0
1070
    43
1040
3.0
1070
    44
1040
10.0
1070
    46
1040
3.0
1070
    47
1040
0.0015
1070
    48
1040
0.0015
1070
    73
1070
     0
1070
    74
1070
     0
1070
    77
1070
     1
1070
   140
1040
20.0
1070
   141
1040
2.0
1070
   146
1040
1.000499999999999
1070
   147
1040
5.0
1070
   176
1070
     3
1070
   271
1070
     1
1070
   272
1070
     1
1070
   278
1070
     0
1070
   341
1005
12DF
1070
   342
1005
12DF
1070
   371
1070
     0
1070
   372
1070
     0
1002
}
  0
DIMENSION
  5
2B08
330
A
100
AcDbEntity
  8
0
  6
Continuous
370
     0
100
AcDbDimension
  2
*D19
 10
4504.664993685998
 20
1375.407014058661
 30
0.0
 11
4462.722602568848
 21
1400.121805040433
 31
0.0
 70
   164
 71
     5
 42
5.000000000002273
  3
Standard
100
AcDbRadialDimension
 15
4500.357244734289
 25
1377.945379471497
 35
0.0
 40
0.0
1001
ACAD
1000
DSTYLE
1002
{
1070
    41
1040
0.4
1070
    42
1040
3.0
1070
    43
1040
3.0
1070
    44
1040
10.0
1070
    46
1040
3.0
1070
    47
1040
0.0015
1070
    48
1040
0.0015
1070
    73
1070
     0
1070
    74
1070
     0
1070
    77
1070
     1
1070
   140
1040
20.0
1070
   141
1040
2.0
1070
   146
1040
1.000499999999999
1070
   147
1040
5.0
1070
   176
1070
     3
1070
   271
1070
     1
1070
   272
1070
     1
1070
   278
1070
     0
1070
   288
1070
     1
1070
   341
1005
12DF
1070
   342
1005
12DF
1070
   371
1070
     0
1070
   372
1070
     0
1002
}
1001
ACAD_DSTYLE_DIMRADIAL_EXTENSION
1000

  0
DIMENSION
  5
2B13
330
A
100
AcDbEntity
  8
0
  6
Continuous
370
     0
100
AcDbDimension
  2
*D20
 10
4671.664993685998
 20
1167.287409268982
 30
0.0
 11
4585.164993685998
 21
1182.287409268982
 31
0.0
 70
    32
 71
     5
 42
173.0
  3
Standard
100
AcDbAlignedDimension
 13
4498.664993685998
 23
1202.989075765153
 33
0.0
 14
4671.664993685998
 24
1204.284784884656
 34
0.0
100
AcDbRotatedDimension
1001
ACAD
1000
DSTYLE
1002
{
1070
    41
1040
0.4
1070
    42
1040
3.0
1070
    43
1040
3.0
1070
    44
1040
10.0
1070
    46
1040
3.0
1070
    47
1040
0.0015
1070
    48
1040
0.0015
1070
    73
1070
     0
1070
    74
1070
     0
1070
    77
1070
     1
1070
   140
1040
20.0
1070
   141
1040
2.0
1070
   146
1040
1.000499999999999
1070
   147
1040
5.0
1070
   176
1070
     3
1070
   271
1070
     1
1070
   272
1070
     1
1070
   278
1070
     0
1070
   341
1005
12DF
1070
   342
1005
12DF
1070
   371
1070
     0
1070
   372
1070
     0
1002
}
  0
DIMENSION
  5
2B20
330
A
100
AcDbEntity
  8
0
  6
Continuous
370
     0
100
AcDbDimension
  2
*D21
 10
4721.318325688209
 20
1235.407014058661
 30
0.0
 11
4706.318325688209
 21
1308.407014058662
 31
0.0
 70
    32
 71
     5
 42
146.0000000000002
  3
Standard
100
AcDbAlignedDimension
 13
4687.268470203451
 23
1381.407014058662
 33
0.0
 14
4688.564905707425
 24
1235.407014058661
 34
0.0
 50
90.0
100
AcDbRotatedDimension
1001
ACAD
1000
DSTYLE
1002
{
1070
    41
1040
0.4
1070
    42
1040
3.0
1070
    43
1040
3.0
1070
    44
1040
10.0
1070
    46
1040
3.0
1070
    47
1040
0.0015
1070
    48
1040
0.0015
1070
    73
1070
     0
1070
    74
1070
     0
1070
    77
1070
     1
1070
   140
1040
20.0
1070
   141
1040
2.0
1070
   146
1040
1.000499999999999
1070
   147
1040
5.0
1070
   176
1070
     3
1070
   271
1070
     1
1070
   272
1070
     1
1070
   278
1070
     0
1070
   341
1005
12DF
1070
   342
1005
12DF
1070
   371
1070
     0
1070
   372
1070
     0
1002
}
  0
LWPOLYLINE
  5
2BB2
330
A
100
AcDbEntity
  8
0
  6
Continuous
370
     0
100
AcDbPolyline
 90
        4
 70
     1
 43
0.0
 10
3762.647223700457
 20
1488.248305643601
 10
4788.359453700675
 20
1488.248305643601
 10
4788.359453700675
 20
959.932692147494
 10
3762.647223700457
 20
959.932692147494
  0
LINE
  5
2BF4
330
A
100
AcDbEntity
  8
0
  6
Continuous
 62
     3
370
     0
100
AcDbLine
 10
4142.315615260232
 20
1381.407014058662
 30
0.0
 11
4305.315615260231
 21
1381.407014058662
 31
0.0
  0
LINE
  5
2BF5
330
A
100
AcDbEntity
  8
0
  6
Continuous
 62
     3
370
     0
100
AcDbLine
 10
4305.315615260231
 20
1235.407014058662
 30
0.0
 11
4142.315615260232
 21
1235.407014058662
 31
0.0
  0
LINE
  5
2BF6
330
A
100
AcDbEntity
  8
0
  6
Continuous
 62
     3
370
     0
100
AcDbLine
 10
4310.315615260232
 20
1376.407014058662
 30
0.0
 11
4310.315615260232
 21
1240.407014058662
 31
0.0
  0
LINE
  5
2BF7
330
A
100
AcDbEntity
  8
0
  6
Continuous
 62
     3
370
     0
100
AcDbLine
 10
4137.315615260231
 20
1240.407014058662
 30
0.0
 11
4137.315615260231
 21
1376.407014058662
 31
0.0
  0
ARC
  5
2C07
330
A
100
AcDbEntity
  8
0
  6
Continuous
 62
     3
370
     0
100
AcDbCircle
 10
4142.315615260232
 20
1376.407014058662
 30
0.0
 40
5.0
100
AcDbArc
 50
90.0
 51
180.0
  0
ARC
  5
2C08
330
A
100
AcDbEntity
  8
0
  6
Continuous
 62
     3
370
     0
100
AcDbCircle
 10
4305.315615260231
 20
1376.407014058662
 30
0.0
 40
5.0
100
AcDbArc
 50
0.0
 51
90.0
  0
ARC
  5
2C09
330
A
100
AcDbEntity
  8
0
  6
Continuous
 62
     3
370
     0
100
AcDbCircle
 10
4305.315615260231
 20
1240.407014058662
 30
0.0
 40
5.0
100
AcDbArc
 50
270.0
 51
0.0
  0
ARC
  5
2C0A
330
A
100
AcDbEntity
  8
0
  6
Continuous
 62
     3
370
     0
100
AcDbCircle
 10
4142.315615260232
 20
1240.407014058662
 30
0.0
 40
5.0
100
AcDbArc
 50
180.0
 51
270.0
  0
DIMENSION
  5
2C78
330
A
100
AcDbEntity
  8
0
  6
Continuous
370
     0
100
AcDbDimension
  2
*D22
 10
4318.315615260231
 20
1315.420596646449
 30
0.0
 11
4342.448948593564
 21
1330.420596646449
 31
0.0
 70
    32
 71
     5
 42
8.0
  3
Standard
100
AcDbAlignedDimension
 13
4310.315615260232
 23
1308.407014058662
 33
0.0
 14
4318.315615260231
 24
1308.407014058662
 34
0.0
100
AcDbRotatedDimension
1001
ACAD
1000
DSTYLE
1002
{
1070
    41
1040
0.4
1070
    42
1040
3.0
1070
    43
1040
3.0
1070
    44
1040
10.0
1070
    46
1040
3.0
1070
    47
1040
0.0015
1070
    48
1040
0.0015
1070
    73
1070
     0
1070
    74
1070
     0
1070
    77
1070
     1
1070
   140
1040
20.0
1070
   141
1040
2.0
1070
   146
1040
1.000499999999999
1070
   147
1040
5.0
1070
   176
1070
     3
1070
   271
1070
     1
1070
   272
1070
     1
1070
   278
1070
     0
1070
   341
1005
12DF
1070
   342
1005
12DF
1070
   371
1070
     0
1070
   372
1070
     0
1002
}
  0
LINE
  5
2C89
330
A
100
AcDbEntity
  8
0
  6
Continuous
 62
     3
370
     0
100
AcDbLine
 10
4498.664993685997
 20
1240.407014058662
 30
0.0
 11
4498.664993685998
 21
1376.407014058662
 31
0.0
  0
LINE
  5
2C8A
330
A
100
AcDbEntity
  8
0
  6
Continuous
 62
     3
370
     0
100
AcDbLine
 10
4503.664993685998
 20
1381.407014058662
 30
0.0
 11
4666.664993685997
 21
1381.407014058662
 31
0.0
  0
LINE
  5
2C8B
330
A
100
AcDbEntity
  8
0
  6
Continuous
 62
     3
370
     0
100
AcDbLine
 10
4671.664993685998
 20
1376.407014058662
 30
0.0
 11
4671.664993685998
 21
1240.407014058662
 31
0.0
  0
LINE
  5
2C8C
330
A
100
AcDbEntity
  8
0
  6
Continuous
 62
     3
370
     0
100
AcDbLine
 10
4666.664993685997
 20
1235.407014058662
 30
0.0
 11
4503.664993685997
 21
1235.407014058662
 31
0.0
  0
ARC
  5
2C90
330
A
100
AcDbEntity
  8
0
  6
Continuous
 62
     3
370
     0
100
AcDbCircle
 10
4503.664993685998
 20
1376.407014058662
 30
0.0
 40
5.0
100
AcDbArc
 50
90.0
 51
180.0
  0
ARC
  5
2C91
330
A
100
AcDbEntity
  8
0
  6
Continuous
 62
     3
370
     0
100
AcDbCircle
 10
4666.664993685997
 20
1376.407014058662
 30
0.0
 40
5.0
100
AcDbArc
 50
0.0
 51
90.0
  0
ARC
  5
2C92
330
A
100
AcDbEntity
  8
0
  6
Continuous
 62
     3
370
     0
100
AcDbCircle
 10
4666.664993685997
 20
1240.407014058662
 30
0.0
 40
5.0
100
AcDbArc
 50
270.0
 51
0.0
  0
ARC
  5
2C93
330
A
100
AcDbEntity
  8
0
  6
Continuous
 62
     3
370
     0
100
AcDbCircle
 10
4503.664993685997
 20
1240.407014058662
 30
0.0
 40
5.0
100
AcDbArc
 50
180.0
 51
270.0
  0
ENDSEC
  0
SECTION
  2
OBJECTS
  0
DICTIONARY
  5
19
330
0
100
AcDbDictionary
281
     1
  3
ACAD_COLOR
350
A6
  3
ACAD_GROUP
350
1A
  3
ACAD_LAYOUT
350
1E
  3
ACAD_MATERIAL
350
7C
  3
ACAD_MLEADERSTYLE
350
CB
  3
ACAD_MLINESTYLE
350
1B
  3
ACAD_PLOTSETTINGS
350
22
  3
ACAD_PLOTSTYLENAME
350
1F
  3
ACAD_SCALELIST
350
A9
  3
ACAD_TABLESTYLE
350
A7
  3
ACAD_VISUALSTYLE
350
95
  3
ACAD_WIPEOUT_VARS
350
23
  3
ACDB_RECOMPOSE_DATA
350
12D
  3
AcDbVariableDictionary
350
124
  3
ASE_INDEX_DICTIONARY
350
292D
  0
DICTIONARY
  5
29D7
330
7
100
AcDbDictionary
280
     1
281
     1
  0
DICTIONARY
  5
10C
330
14
100
AcDbDictionary
280
     1
281
     1
  3
ADSK_XREC_LAYER_RECONCILED
360
10D
  0
DICTIONARY
  5
10E
330
2F
100
AcDbDictionary
280
     1
281
     1
  3
ADSK_XREC_LAYER_RECONCILED
360
10F
  0
DICTIONARY
  5
110
330
30
100
AcDbDictionary
280
     1
281
     1
  3
ADSK_XREC_LAYER_RECONCILED
360
111
  0
DICTIONARY
  5
112
330
31
100
AcDbDictionary
280
     1
281
     1
  3
ADSK_XREC_LAYER_RECONCILED
360
113
  0
DICTIONARY
  5
114
330
32
100
AcDbDictionary
280
     1
281
     1
  3
ADSK_XREC_LAYER_RECONCILED
360
115
  0
DICTIONARY
  5
116
330
33
100
AcDbDictionary
280
     1
281
     1
  3
ADSK_XREC_LAYER_RECONCILED
360
117
  0
DICTIONARY
  5
118
330
34
100
AcDbDictionary
280
     1
281
     1
  3
ADSK_XREC_LAYER_RECONCILED
360
119
  0
DICTIONARY
  5
11A
330
35
100
AcDbDictionary
280
     1
281
     1
  3
ADSK_XREC_LAYER_RECONCILED
360
11B
  0
DICTIONARY
  5
11C
330
36
100
AcDbDictionary
280
     1
281
     1
  3
ADSK_XREC_LAYER_RECONCILED
360
11D
  0
DICTIONARY
  5
11E
330
38
100
AcDbDictionary
280
     1
281
     1
  3
ADSK_XREC_LAYER_RECONCILED
360
11F
  0
DICTIONARY
  5
120
330
39
100
AcDbDictionary
280
     1
281
     1
  3
ADSK_XREC_LAYER_RECONCILED
360
121
  0
DICTIONARY
  5
122
330
3B
100
AcDbDictionary
280
     1
281
     1
  3
ADSK_XREC_LAYER_RECONCILED
360
123
  0
DICTIONARY
  5
DF
330
A
100
AcDbDictionary
280
     1
281
     1
  3
ACAD_SORTENTS
360
E0
  0
DICTIONARY
  5
11C3
330
1195
100
AcDbDictionary
280
     1
281
     1
  3
ACAD_SORTENTS
360
11C4
  0
DICTIONARY
  5
1212
330
1203
100
AcDbDictionary
280
     1
281
     1
  3
ACAD_SORTENTS
360
1213
  0
DICTIONARY
  5
A6
102
{ACAD_REACTORS
330
19
102
}
330
19
100
AcDbDictionary
281
     1
  0
DICTIONARY
  5
1A
102
{ACAD_REACTORS
330
19
102
}
330
19
100
AcDbDictionary
281
     1
  0
DICTIONARY
  5
1E
102
{ACAD_REACTORS
330
19
102
}
330
19
100
AcDbDictionary
281
     1
  3
Layout1
350
21
  3
Model
350
20
  0
DICTIONARY
  5
7C
102
{ACAD_REACTORS
330
19
102
}
330
19
100
AcDbDictionary
281
     1
  3
ByBlock
350
85
  3
ByLayer
350
7D
  3
Global
350
8D
  0
DICTIONARY
  5
CB
102
{ACAD_REACTORS
330
19
102
}
330
19
100
AcDbDictionary
281
     1
  3
Standard
350
CC
  0
DICTIONARY
  5
1B
102
{ACAD_REACTORS
330
19
102
}
330
19
100
AcDbDictionary
281
     1
  3
Standard
350
1C
  0
DICTIONARY
  5
22
102
{ACAD_REACTORS
330
19
102
}
330
19
100
AcDbDictionary
281
     1
  0
ACDBDICTIONARYWDFLT
  5
1F
102
{ACAD_REACTORS
330
19
102
}
330
19
100
AcDbDictionary
281
     1
  3
Normal
350
1D
100
AcDbDictionaryWithDefault
340
1D
  0
DICTIONARY
  5
A9
102
{ACAD_REACTORS
330
19
102
}
330
19
100
AcDbDictionary
281
     1
  3
A0
350
AA
  3
A1
350
AB
  3
A2
350
AC
  3
A3
350
AD
  3
A4
350
AE
  3
A5
350
AF
  3
A6
350
B0
  3
A7
350
B1
  3
A8
350
B2
  3
A9
350
B3
  3
B0
350
B4
  3
B1
350
B5
  3
B2
350
B6
  3
B3
350
B7
  3
B4
350
B8
  3
B5
350
B9
  3
B6
350
BA
  3
B7
350
BB
  3
B8
350
BC
  3
B9
350
BD
  3
C0
350
BE
  3
C1
350
BF
  3
C2
350
C0
  3
C3
350
C1
  3
C4
350
C2
  3
C5
350
C3
  3
C6
350
C4
  3
C7
350
C5
  3
C8
350
C6
  3
C9
350
C7
  3
D0
350
C8
  3
D1
350
C9
  3
D2
350
CA
  0
DICTIONARY
  5
A7
102
{ACAD_REACTORS
330
19
102
}
330
19
100
AcDbDictionary
281
     1
  3
Standard
350
A8
  0
DICTIONARY
  5
95
102
{ACAD_REACTORS
330
19
102
}
330
19
100
AcDbDictionary
281
     1
  3
2dWireframe
350
9B
  3
3D Hidden
350
9D
  3
3dWireframe
350
9C
  3
Basic
350
9A
  3
Brighten
350
A1
  3
ColorChange
350
A5
  3
Conceptual
350
9E
  3
Dim
350
A0
  3
Facepattern
350
A4
  3
Flat
350
96
  3
FlatWithEdges
350
97
  3
Gouraud
350
98
  3
GouraudWithEdges
350
99
  3
Linepattern
350
A3
  3
Realistic
350
9F
  3
Thicken
350
A2
  0
WIPEOUTVARIABLES
  5
23
330
19
100
AcDbWipeoutVariables
 70
     1
  0
XRECORD
  5
12D
102
{ACAD_REACTORS
330
19
102
}
330
19
100
AcDbXrecord
280
     1
 90
        1
330
A8
  0
DICTIONARY
  5
124
102
{ACAD_REACTORS
330
19
102
}
330
19
100
AcDbDictionary
281
     1
  3
CANNOSCALE
350
127
  3
CMLEADERSTYLE
350
126
  3
CTABLESTYLE
350
125
  3
DIMASSOC
350
12A
  3
INDEXCTL
350
129
  3
LIGHTINGUNITS
350
2926
  3
MSLTSCALE
350
2925
  3
SORTENTS
350
128
  0
DICTIONARY
  5
292D
102
{ACAD_REACTORS
330
19
102
}
330
19
100
AcDbDictionary
281
     1
  3
ASEBlockHierarchyIndexRecord
350
292E
1001
DCO15
1040
1722338038.937
  0
XRECORD
  5
10D
102
{ACAD_REACTORS
330
10C
102
}
330
10C
100
AcDbXrecord
280
     1
290
     1
  0
XRECORD
  5
10F
102
{ACAD_REACTORS
330
10E
102
}
330
10E
100
AcDbXrecord
280
     1
290
     1
  0
XRECORD
  5
111
102
{ACAD_REACTORS
330
110
102
}
330
110
100
AcDbXrecord
280
     1
290
     1
  0
XRECORD
  5
113
102
{ACAD_REACTORS
330
112
102
}
330
112
100
AcDbXrecord
280
     1
290
     1
  0
XRECORD
  5
115
102
{ACAD_REACTORS
330
114
102
}
330
114
100
AcDbXrecord
280
     1
290
     1
  0
XRECORD
  5
117
102
{ACAD_REACTORS
330
116
102
}
330
116
100
AcDbXrecord
280
     1
290
     1
  0
XRECORD
  5
119
102
{ACAD_REACTORS
330
118
102
}
330
118
100
AcDbXrecord
280
     1
290
     1
  0
XRECORD
  5
11B
102
{ACAD_REACTORS
330
11A
102
}
330
11A
100
AcDbXrecord
280
     1
290
     1
  0
XRECORD
  5
11D
102
{ACAD_REACTORS
330
11C
102
}
330
11C
100
AcDbXrecord
280
     1
290
     1
  0
XRECORD
  5
11F
102
{ACAD_REACTORS
330
11E
102
}
330
11E
100
AcDbXrecord
280
     1
290
     1
  0
XRECORD
  5
121
102
{ACAD_REACTORS
330
120
102
}
330
120
100
AcDbXrecord
280
     1
290
     1
  0
XRECORD
  5
123
102
{ACAD_REACTORS
330
122
102
}
330
122
100
AcDbXrecord
280
     1
290
     1
  0
SORTENTSTABLE
  5
E0
102
{ACAD_REACTORS
330
DF
102
}
330
DF
100
AcDbSortentsTable
330
A
331
2C89
  5
2BF4
331
2A89
  5
2C0A
331
2C8A
  5
2A30
331
24C9
  5
2954
331
1239
  5
251E
331
1238
  5
251C
331
2C8B
  5
2A89
331
24CA
  5
2953
331
2C8C
  5
2B13
331
24CB
  5
2955
331
24CC
  5
2956
331
123C
  5
2950
331
24CD
  5
2957
331
123D
  5
2951
331
2A55
  5
2C08
331
24CE
  5
2959
331
2BF5
  5
24EA
331
24CF
  5
295A
331
2BF6
  5
24DF
331
2A2E
  5
1233
331
2C90
  5
2A3F
331
2BF7
  5
25C0
331
25C0
  5
2A2E
331
1240
  5
2952
331
1220
  5
1238
331
2A2F
  5
123C
331
2A2D
  5
1220
331
2B08
  5
2C8C
331
2C91
  5
2AB7
331
2A31
  5
2BF7
331
2C92
  5
2BB2
331
24E1
  5
24C9
331
2C93
  5
2B20
331
24E3
  5
1234
331
2A94
  5
2C78
331
24E4
  5
123D
331
24E5
  5
24CB
331
24E6
  5
1236
331
2C78
  5
2C93
331
24E7
  5
1230
331
24E8
  5
1240
331
2959
  5
2BF5
331
24E9
  5
1231
331
2AF2
  5
2C8B
331
2AAA
  5
2C89
331
295A
  5
2BF6
331
2B13
  5
2C90
331
24EB
  5
24CC
331
2A7D
  5
2C09
331
122E
  5
24DB
331
1216
  5
1216
331
2A3F
  5
2C07
331
122F
  5
24DD
331
2B20
  5
2C91
331
2C08
  5
24E3
331
2BB2
  5
2C92
331
2C0A
  5
24EC
331
1232
  5
24E6
331
1233
  5
24E7
331
2C09
  5
24E1
331
2C07
  5
24DA
331
251E
  5
2A2D
331
2AB7
  5
2C8A
331
1237
  5
24EE
331
251D
  5
123E
331
251C
  5
1241
331
24EE
  5
1235
331
24ED
  5
1237
331
24EC
  5
24CA
331
122C
  5
24CE
331
122B
  5
24CD
331
24EA
  5
122E
331
1225
  5
1242
331
24E2
  5
122B
331
2A30
  5
123B
331
2BF4
  5
24D9
331
121B
  5
1232
  0
SORTENTSTABLE
  5
11C4
102
{ACAD_REACTORS
330
11C3
102
}
330
11C3
100
AcDbSortentsTable
330
1195
  0
SORTENTSTABLE
  5
1213
102
{ACAD_REACTORS
330
1212
102
}
330
1212
100
AcDbSortentsTable
330
1203
  0
LAYOUT
  5
21
102
{ACAD_REACTORS
330
1E
102
}
330
1E
100
AcDbPlotSettings
  1

  2

  4

  6

 40
0.0
 41
0.0
 42
0.0
 43
0.0
 44
0.0
 45
0.0
 46
0.0
 47
0.0
 48
0.0
 49
0.0
140
0.0
141
0.0
142
1.0
143
1.0
 70
     0
 72
     0
 73
     0
 74
     0
  7

 75
     0
147
1.0
 76
     0
 77
     2
 78
   300
148
0.0
149
0.0
100
AcDbLayout
  1
Layout1
 70
     0
 71
     1
 10
0.0
 20
0.0
 11
12.0
 21
9.0
 12
0.0
 22
0.0
 32
0.0
 14
1.000000000000000E+20
 24
1.000000000000000E+20
 34
1.000000000000000E+20
 15
-1.000000000000000E+20
 25
-1.000000000000000E+20
 35
-1.000000000000000E+20
146
0.0
 13
0.0
 23
0.0
 33
0.0
 16
1.0
 26
0.0
 36
0.0
 17
0.0
 27
1.0
 37
0.0
 76
     0
330
B
  0
LAYOUT
  5
20
102
{ACAD_REACTORS
330
1E
102
}
330
1E
100
AcDbPlotSettings
  1

  2

  4

  6

 40
0.0
 41
0.0
 42
0.0
 43
0.0
 44
0.0
 45
0.0
 46
0.0
 47
0.0
 48
0.0
 49
0.0
140
0.0
141
0.0
142
1.0
143
1.0
 70
  1024
 72
     0
 73
     0
 74
     0
  7

 75
     0
147
1.0
 76
     0
 77
     2
 78
   300
148
0.0
149
0.0
100
AcDbLayout
  1
Model
 70
     0
 71
     0
 10
0.0
 20
0.0
 11
0.0
 21
0.0
 12
0.0
 22
0.0
 32
0.0
 14
0.0
 24
0.0
 34
0.0
 15
0.0
 25
0.0
 35
0.0
146
0.0
 13
0.0
 23
0.0
 33
0.0
 16
0.0
 26
0.0
 36
0.0
 17
0.0
 27
0.0
 37
0.0
 76
     0
330
A
331
29F8
  0
MATERIAL
  5
85
102
{ACAD_XDICTIONARY
360
86
102
}
102
{ACAD_REACTORS
330
7C
102
}
330
7C
100
AcDbMaterial
  1
ByBlock
 72
     0
 43
0.0208333333333333
 43
0.0
 43
0.0
 43
0.0
 43
0.0
 43
0.0208333333333333
 43
0.0
 43
0.0
 43
0.0
 43
0.0
 43
1.0
 43
0.0
 43
0.0
 43
0.0
 43
0.0
 43
1.0
 77
     0
 47
0.0208333333333333
 47
0.0
 47
0.0
 47
0.0
 47
0.0
 47
0.0208333333333333
 47
0.0
 47
0.0
 47
0.0
 47
0.0
 47
1.0
 47
0.0
 47
0.0
 47
0.0
 47
0.0
 47
1.0
171
     0
 49
0.0208333333333333
 49
0.0
 49
0.0
 49
0.0
 49
0.0
 49
0.0208333333333333
 49
0.0
 49
0.0
 49
0.0
 49
0.0
 49
1.0
 49
0.0
 49
0.0
 49
0.0
 49
0.0
 49
1.0
175
     0
142
0.0208333333333333
142
0.0
142
0.0
142
0.0
142
0.0
142
0.0208333333333333
142
0.0
142
0.0
142
0.0
142
0.0
142
1.0
142
0.0
142
0.0
142
0.0
142
0.0
142
1.0
179
     0
144
0.0208333333333333
144
0.0
144
0.0
144
0.0
144
0.0
144
0.0208333333333333
144
0.0
144
0.0
144
0.0
144
0.0
144
1.0
144
0.0
144
0.0
144
0.0
144
0.0
144
1.0
147
0.0208333333333333
147
0.0
147
0.0
147
0.0
147
0.0
147
0.0208333333333333
147
0.0
147
0.0
147
0.0
147
0.0
147
1.0
147
0.0
147
0.0
147
0.0
147
0.0
147
1.0
  0
MATERIAL
  5
7D
102
{ACAD_XDICTIONARY
360
7E
102
}
102
{ACAD_REACTORS
330
7C
102
}
330
7C
100
AcDbMaterial
  1
ByLayer
 72
     0
 43
0.0208333333333333
 43
0.0
 43
0.0
 43
0.0
 43
0.0
 43
0.0208333333333333
 43
0.0
 43
0.0
 43
0.0
 43
0.0
 43
1.0
 43
0.0
 43
0.0
 43
0.0
 43
0.0
 43
1.0
 77
     0
 47
0.0208333333333333
 47
0.0
 47
0.0
 47
0.0
 47
0.0
 47
0.0208333333333333
 47
0.0
 47
0.0
 47
0.0
 47
0.0
 47
1.0
 47
0.0
 47
0.0
 47
0.0
 47
0.0
 47
1.0
171
     0
 49
0.0208333333333333
 49
0.0
 49
0.0
 49
0.0
 49
0.0
 49
0.0208333333333333
 49
0.0
 49
0.0
 49
0.0
 49
0.0
 49
1.0
 49
0.0
 49
0.0
 49
0.0
 49
0.0
 49
1.0
175
     0
142
0.0208333333333333
142
0.0
142
0.0
142
0.0
142
0.0
142
0.0208333333333333
142
0.0
142
0.0
142
0.0
142
0.0
142
1.0
142
0.0
142
0.0
142
0.0
142
0.0
142
1.0
179
     0
144
0.0208333333333333
144
0.0
144
0.0
144
0.0
144
0.0
144
0.0208333333333333
144
0.0
144
0.0
144
0.0
144
0.0
144
1.0
144
0.0
144
0.0
144
0.0
144
0.0
144
1.0
147
0.0208333333333333
147
0.0
147
0.0
147
0.0
147
0.0
147
0.0208333333333333
147
0.0
147
0.0
147
0.0
147
0.0
147
1.0
147
0.0
147
0.0
147
0.0
147
0.0
147
1.0
  0
MATERIAL
  5
8D
102
{ACAD_XDICTIONARY
360
8E
102
}
102
{ACAD_REACTORS
330
7C
102
}
330
7C
100
AcDbMaterial
  1
Global
 72
     0
 43
0.0208333333333333
 43
0.0
 43
0.0
 43
0.0
 43
0.0
 43
0.0208333333333333
 43
0.0
 43
0.0
 43
0.0
 43
0.0
 43
1.0
 43
0.0
 43
0.0
 43
0.0
 43
0.0
 43
1.0
 77
     0
 47
0.0208333333333333
 47
0.0
 47
0.0
 47
0.0
 47
0.0
 47
0.0208333333333333
 47
0.0
 47
0.0
 47
0.0
 47
0.0
 47
1.0
 47
0.0
 47
0.0
 47
0.0
 47
0.0
 47
1.0
171
     0
 49
0.0208333333333333
 49
0.0
 49
0.0
 49
0.0
 49
0.0
 49
0.0208333333333333
 49
0.0
 49
0.0
 49
0.0
 49
0.0
 49
1.0
 49
0.0
 49
0.0
 49
0.0
 49
0.0
 49
1.0
175
     0
142
0.0208333333333333
142
0.0
142
0.0
142
0.0
142
0.0
142
0.0208333333333333
142
0.0
142
0.0
142
0.0
142
0.0
142
1.0
142
0.0
142
0.0
142
0.0
142
0.0
142
1.0
179
     0
144
0.0208333333333333
144
0.0
144
0.0
144
0.0
144
0.0
144
0.0208333333333333
144
0.0
144
0.0
144
0.0
144
0.0
144
1.0
144
0.0
144
0.0
144
0.0
144
0.0
144
1.0
147
0.0208333333333333
147
0.0
147
0.0
147
0.0
147
0.0
147
0.0208333333333333
147
0.0
147
0.0
147
0.0
147
0.0
147
1.0
147
0.0
147
0.0
147
0.0
147
0.0
147
1.0
  0
MLEADERSTYLE
  5
CC
102
{ACAD_REACTORS
330
CB
102
}
330
CB
100
AcDbMLeaderStyle
170
     2
171
     1
172
     0
 90
        2
 40
0.0
 41
0.0
173
     1
 91
-1056964608
340
11
 92
       -2
290
     1
 42
0.09
291
     1
 43
0.36
  3
Standard
 44
0.18
300

342
17
174
     1
178
     6
175
     1
176
     0
 93
-1056964608
 45
0.18
292
     0
297
     0
 46
0.18
 94
-1056964608
 47
1.0
 49
1.0
140
1.0
293
     1
141
0.0
294
     1
177
     0
142
1.0
295
     0
296
     0
143
0.125
1001
ACAD_MLEADERVER
1070
     2
  0
MLINESTYLE
  5
1C
102
{ACAD_REACTORS
330
1B
102
}
330
1B
100
AcDbMlineStyle
  2
STANDARD
 70
     0
  3

 62
     0
 51
90.0
 52
90.0
 71
     2
 49
0.5
 62
   256
  6
BYLAYER
 49
-0.5
 62
   256
  6
BYLAYER
  0
ACDBPLACEHOLDER
  5
1D
102
{ACAD_REACTORS
330
1F
102
}
330
1F
  0
SCALE
  5
AA
102
{ACAD_REACTORS
330
A9
102
}
330
A9
100
AcDbScale
 70
     0
300
1:1
140
1.0
141
1.0
290
     1
  0
SCALE
  5
AB
102
{ACAD_REACTORS
330
A9
102
}
330
A9
100
AcDbScale
 70
     0
300
1:2
140
1.0
141
2.0
290
     0
  0
SCALE
  5
AC
102
{ACAD_REACTORS
330
A9
102
}
330
A9
100
AcDbScale
 70
     0
300
1:4
140
1.0
141
4.0
290
     0
  0
SCALE
  5
AD
102
{ACAD_REACTORS
330
A9
102
}
330
A9
100
AcDbScale
 70
     0
300
1:5
140
1.0
141
5.0
290
     0
  0
SCALE
  5
AE
102
{ACAD_REACTORS
330
A9
102
}
330
A9
100
AcDbScale
 70
     0
300
1:8
140
1.0
141
8.0
290
     0
  0
SCALE
  5
AF
102
{ACAD_REACTORS
330
A9
102
}
330
A9
100
AcDbScale
 70
     0
300
1:10
140
1.0
141
10.0
290
     0
  0
SCALE
  5
B0
102
{ACAD_REACTORS
330
A9
102
}
330
A9
100
AcDbScale
 70
     0
300
1:16
140
1.0
141
16.0
290
     0
  0
SCALE
  5
B1
102
{ACAD_REACTORS
330
A9
102
}
330
A9
100
AcDbScale
 70
     0
300
1:20
140
1.0
141
20.0
290
     0
  0
SCALE
  5
B2
102
{ACAD_REACTORS
330
A9
102
}
330
A9
100
AcDbScale
 70
     0
300
1:30
140
1.0
141
30.0
290
     0
  0
SCALE
  5
B3
102
{ACAD_REACTORS
330
A9
102
}
330
A9
100
AcDbScale
 70
     0
300
1:40
140
1.0
141
40.0
290
     0
  0
SCALE
  5
B4
102
{ACAD_REACTORS
330
A9
102
}
330
A9
100
AcDbScale
 70
     0
300
1:50
140
1.0
141
50.0
290
     0
  0
SCALE
  5
B5
102
{ACAD_REACTORS
330
A9
102
}
330
A9
100
AcDbScale
 70
     0
300
1:100
140
1.0
141
100.0
290
     0
  0
SCALE
  5
B6
102
{ACAD_REACTORS
330
A9
102
}
330
A9
100
AcDbScale
 70
     0
300
2:1
140
2.0
141
1.0
290
     0
  0
SCALE
  5
B7
102
{ACAD_REACTORS
330
A9
102
}
330
A9
100
AcDbScale
 70
     0
300
4:1
140
4.0
141
1.0
290
     0
  0
SCALE
  5
B8
102
{ACAD_REACTORS
330
A9
102
}
330
A9
100
AcDbScale
 70
     0
300
8:1
140
8.0
141
1.0
290
     0
  0
SCALE
  5
B9
102
{ACAD_REACTORS
330
A9
102
}
330
A9
100
AcDbScale
 70
     0
300
10:1
140
10.0
141
1.0
290
     0
  0
SCALE
  5
BA
102
{ACAD_REACTORS
330
A9
102
}
330
A9
100
AcDbScale
 70
     0
300
100:1
140
100.0
141
1.0
290
     0
  0
SCALE
  5
BB
102
{ACAD_REACTORS
330
A9
102
}
330
A9
100
AcDbScale
 70
     0
300
1/128" = 1'-0"
140
0.0078125
141
12.0
290
     0
  0
SCALE
  5
BC
102
{ACAD_REACTORS
330
A9
102
}
330
A9
100
AcDbScale
 70
     0
300
1/64" = 1'-0"
140
0.015625
141
12.0
290
     0
  0
SCALE
  5
BD
102
{ACAD_REACTORS
330
A9
102
}
330
A9
100
AcDbScale
 70
     0
300
1/32" = 1'-0"
140
0.03125
141
12.0
290
     0
  0
SCALE
  5
BE
102
{ACAD_REACTORS
330
A9
102
}
330
A9
100
AcDbScale
 70
     0
300
1/16" = 1'-0"
140
0.0625
141
12.0
290
     0
  0
SCALE
  5
BF
102
{ACAD_REACTORS
330
A9
102
}
330
A9
100
AcDbScale
 70
     0
300
3/32" = 1'-0"
140
0.09375
141
12.0
290
     0
  0
SCALE
  5
C0
102
{ACAD_REACTORS
330
A9
102
}
330
A9
100
AcDbScale
 70
     0
300
1/8" = 1'-0"
140
0.125
141
12.0
290
     0
  0
SCALE
  5
C1
102
{ACAD_REACTORS
330
A9
102
}
330
A9
100
AcDbScale
 70
     0
300
3/16" = 1'-0"
140
0.1875
141
12.0
290
     0
  0
SCALE
  5
C2
102
{ACAD_REACTORS
330
A9
102
}
330
A9
100
AcDbScale
 70
     0
300
1/4" = 1'-0"
140
0.25
141
12.0
290
     0
  0
SCALE
  5
C3
102
{ACAD_REACTORS
330
A9
102
}
330
A9
100
AcDbScale
 70
     0
300
3/8" = 1'-0"
140
0.375
141
12.0
290
     0
  0
SCALE
  5
C4
102
{ACAD_REACTORS
330
A9
102
}
330
A9
100
AcDbScale
 70
     0
300
1/2" = 1'-0"
140
0.5
141
12.0
290
     0
  0
SCALE
  5
C5
102
{ACAD_REACTORS
330
A9
102
}
330
A9
100
AcDbScale
 70
     0
300
3/4" = 1'-0"
140
0.75
141
12.0
290
     0
  0
SCALE
  5
C6
102
{ACAD_REACTORS
330
A9
102
}
330
A9
100
AcDbScale
 70
     0
300
1" = 1'-0"
140
1.0
141
12.0
290
     0
  0
SCALE
  5
C7
102
{ACAD_REACTORS
330
A9
102
}
330
A9
100
AcDbScale
 70
     0
300
1-1/2" = 1'-0"
140
1.5
141
12.0
290
     0
  0
SCALE
  5
C8
102
{ACAD_REACTORS
330
A9
102
}
330
A9
100
AcDbScale
 70
     0
300
3" = 1'-0"
140
3.0
141
12.0
290
     0
  0
SCALE
  5
C9
102
{ACAD_REACTORS
330
A9
102
}
330
A9
100
AcDbScale
 70
     0
300
6" = 1'-0"
140
6.0
141
12.0
290
     0
  0
SCALE
  5
CA
102
{ACAD_REACTORS
330
A9
102
}
330
A9
100
AcDbScale
 70
     0
300
1'-0" = 1'-0"
140
12.0
141
12.0
290
     0
  0
TABLESTYLE
  5
A8
102
{ACAD_XDICTIONARY
360
12B
102
}
102
{ACAD_REACTORS
330
A7
102
}
330
A7
100
AcDbTableStyle
  3
Standard
 70
     0
 71
     0
 40
0.06
 41
0.06
280
     0
281
     0
  7
Standard
140
0.18
170
     2
 62
     0
 63
     7
283
     0
274
    -2
284
     1
 64
     0
275
    -2
285
     1
 65
     0
276
    -2
286
     1
 66
     0
277
    -2
287
     1
 67
     0
278
    -2
288
     1
 68
     0
279
    -2
289
     1
 69
     0
  7
Standard
140
0.25
170
     5
 62
     0
 63
     7
283
     0
274
    -2
284
     1
 64
     0
275
    -2
285
     1
 65
     0
276
    -2
286
     1
 66
     0
277
    -2
287
     1
 67
     0
278
    -2
288
     1
 68
     0
279
    -2
289
     1
 69
     0
  7
Standard
140
0.18
170
     5
 62
     0
 63
     7
283
     0
274
    -2
284
     1
 64
     0
275
    -2
285
     1
 65
     0
276
    -2
286
     1
 66
     0
277
    -2
287
     1
 67
     0
278
    -2
288
     1
 68
     0
279
    -2
289
     1
 69
     0
  0
VISUALSTYLE
  5
9B
102
{ACAD_REACTORS
330
95
102
}
330
95
100
AcDbVisualStyle
  2
2dWireframe
 70
     4
 71
     0
 72
     2
 73
     0
 90
        0
 40
-0.6
 41
-30.0
 62
     5
 63
     7
 74
     1
 91
        4
 64
     7
 65
   257
 75
     1
175
     1
 42
1.0
 92
        0
 66
   257
 43
1.0
 76
     1
 77
     6
 78
     2
 67
     7
 79
     5
170
     0
171
     0
290
     0
174
     0
 93
        1
 44
0.0
173
     0
291
     0
 45
0.0
1001
ACAD
1000
AcDbSavedByObjectVersion
1070
     0
1000
AcDbSavedByObjectVersion
1070
     0
1000
AcDbSavedByObjectVersion
1070
     0
1000
AcDbSavedByObjectVersion
1070
     0
1000
AcDbSavedByObjectVersion
1070
     0
  0
VISUALSTYLE
  5
9D
102
{ACAD_REACTORS
330
95
102
}
330
95
100
AcDbVisualStyle
  2
3D Hidden
 70
     6
 71
     1
 72
     2
 73
     2
 90
        0
 40
-0.6
 41
-30.0
 62
     5
 63
     7
 74
     2
 91
        2
 64
     7
 65
   257
 75
     2
175
     1
 42
40.0
 92
        0
 66
   257
 43
1.0
 76
     1
 77
     6
 78
     2
 67
     7
 79
     3
170
     0
171
     0
290
     0
174
     0
 93
        1
 44
0.0
173
     0
291
     0
 45
0.0
1001
ACAD
1000
AcDbSavedByObjectVersion
1070
     0
1000
AcDbSavedByObjectVersion
1070
     0
1000
AcDbSavedByObjectVersion
1070
     0
1000
AcDbSavedByObjectVersion
1070
     0
1000
AcDbSavedByObjectVersion
1070
     0
  0
VISUALSTYLE
  5
9C
102
{ACAD_REACTORS
330
95
102
}
330
95
100
AcDbVisualStyle
  2
3dWireframe
 70
     5
 71
     0
 72
     2
 73
     0
 90
        0
 40
-0.6
 41
-30.0
 62
     5
 63
     7
 74
     1
 91
        4
 64
     7
 65
   257
 75
     1
175
     1
 42
1.0
 92
        0
 66
   257
 43
1.0
 76
     1
 77
     6
 78
     2
 67
     7
 79
     5
170
     0
171
     0
290
     0
174
     0
 93
        1
 44
0.0
173
     0
291
     0
 45
0.0
1001
ACAD
1000
AcDbSavedByObjectVersion
1070
     0
1000
AcDbSavedByObjectVersion
1070
     0
1000
AcDbSavedByObjectVersion
1070
     0
1000
AcDbSavedByObjectVersion
1070
     0
1000
AcDbSavedByObjectVersion
1070
     0
  0
VISUALSTYLE
  5
9A
102
{ACAD_REACTORS
330
95
102
}
330
95
100
AcDbVisualStyle
  2
Basic
 70
     7
 71
     1
 72
     0
 73
     1
 90
        0
 40
-0.6
 41
-30.0
 62
     5
 63
     7
 74
     0
 91
        4
 64
     7
 65
   257
 75
     1
175
     1
 42
1.0
 92
        8
 66
     7
 43
1.0
 76
     1
 77
     6
 78
     2
 67
     7
 79
     5
170
     0
171
     0
290
     0
174
     0
 93
        1
 44
0.0
173
     0
291
     1
 45
0.0
1001
ACAD
1000
AcDbSavedByObjectVersion
1070
     0
1000
AcDbSavedByObjectVersion
1070
     0
1000
AcDbSavedByObjectVersion
1070
     0
1000
AcDbSavedByObjectVersion
1070
     0
1000
AcDbSavedByObjectVersion
1070
     0
  0
VISUALSTYLE
  5
A1
102
{ACAD_REACTORS
330
95
102
}
330
95
100
AcDbVisualStyle
  2
Brighten
 70
    12
 71
     2
 72
     2
 73
     0
 90
        0
 40
-0.6
 41
-30.0
 62
     5
 63
     7
 74
     1
 91
        4
 64
     7
 65
   257
 75
     1
175
     1
 42
1.0
 92
        8
 66
     7
 43
1.0
 76
     1
 77
     6
 78
     2
 67
     7
 79
     5
170
     0
171
     0
290
     0
174
     0
 93
        1
 44
50.0
173
     0
291
     1
 45
0.0
1001
ACAD
1000
AcDbSavedByObjectVersion
1070
     0
1000
AcDbSavedByObjectVersion
1070
     0
1000
AcDbSavedByObjectVersion
1070
     0
1000
AcDbSavedByObjectVersion
1070
     0
1000
AcDbSavedByObjectVersion
1070
     0
  0
VISUALSTYLE
  5
A5
102
{ACAD_REACTORS
330
95
102
}
330
95
100
AcDbVisualStyle
  2
ColorChange
 70
    16
 71
     2
 72
     2
 73
     3
 90
        0
 40
-0.6
 41
-30.0
 62
     5
 63
     8
 74
     1
 91
        4
 64
     7
 65
   257
 75
     1
175
     1
 42
1.0
 92
        8
 66
     8
 43
1.0
 76
     1
 77
     6
 78
     2
 67
     7
 79
     5
170
     0
171
     0
290
     0
174
     0
 93
        1
 44
0.0
173
     0
291
     1
 45
0.0
1001
ACAD
1000
AcDbSavedByObjectVersion
1070
     0
1000
AcDbSavedByObjectVersion
1070
     0
1000
AcDbSavedByObjectVersion
1070
     0
1000
AcDbSavedByObjectVersion
1070
     0
1000
AcDbSavedByObjectVersion
1070
     0
  0
VISUALSTYLE
  5
9E
102
{ACAD_REACTORS
330
95
102
}
330
95
100
AcDbVisualStyle
  2
Conceptual
 70
     9
 71
     3
 72
     2
 73
     0
 90
        0
 40
-0.6
 41
-30.0
 62
     5
 63
     7
 74
     2
 91
        2
 64
     7
 65
   257
 75
     1
175
     1
 42
40.0
 92
        8
 66
     7
 43
1.0
 76
     1
 77
     6
 78
     2
 67
     7
 79
     3
170
     0
171
     0
290
     0
174
     0
 93
        1
 44
0.0
173
     0
291
     0
 45
0.0
1001
ACAD
1000
AcDbSavedByObjectVersion
1070
     0
1000
AcDbSavedByObjectVersion
1070
     0
1000
AcDbSavedByObjectVersion
1070
     0
1000
AcDbSavedByObjectVersion
1070
     0
1000
AcDbSavedByObjectVersion
1070
     0
  0
VISUALSTYLE
  5
A0
102
{ACAD_REACTORS
330
95
102
}
330
95
100
AcDbVisualStyle
  2
Dim
 70
    11
 71
     2
 72
     2
 73
     0
 90
        0
 40
-0.6
 41
-30.0
 62
     5
 63
     7
 74
     1
 91
        4
 64
     7
 65
   257
 75
     1
175
     1
 42
1.0
 92
        8
 66
     7
 43
1.0
 76
     1
 77
     6
 78
     2
 67
     7
 79
     5
170
     0
171
     0
290
     0
174
     0
 93
        1
 44
-50.0
173
     0
291
     1
 45
0.0
1001
ACAD
1000
AcDbSavedByObjectVersion
1070
     0
1000
AcDbSavedByObjectVersion
1070
     0
1000
AcDbSavedByObjectVersion
1070
     0
1000
AcDbSavedByObjectVersion
1070
     0
1000
AcDbSavedByObjectVersion
1070
     0
  0
VISUALSTYLE
  5
A4
102
{ACAD_REACTORS
330
95
102
}
330
95
100
AcDbVisualStyle
  2
Facepattern
 70
    15
 71
     2
 72
     2
 73
     0
 90
        0
 40
-0.6
 41
-30.0
 62
     5
 63
     7
 74
     1
 91
        4
 64
     7
 65
   257
 75
     1
175
     1
 42
1.0
 92
        8
 66
     7
 43
1.0
 76
     1
 77
     6
 78
     2
 67
     7
 79
     5
170
     0
171
     0
290
     0
174
     0
 93
        1
 44
0.0
173
     0
291
     1
 45
0.0
1001
ACAD
1000
AcDbSavedByObjectVersion
1070
     0
1000
AcDbSavedByObjectVersion
1070
     0
1000
AcDbSavedByObjectVersion
1070
     0
1000
AcDbSavedByObjectVersion
1070
     0
1000
AcDbSavedByObjectVersion
1070
     0
  0
VISUALSTYLE
  5
96
102
{ACAD_REACTORS
330
95
102
}
330
95
100
AcDbVisualStyle
  2
Flat
 70
     0
 71
     2
 72
     1
 73
     1
 90
        2
 40
-0.6
 41
30.0
 62
     5
 63
     7
 74
     0
 91
        4
 64
     7
 65
   257
 75
     1
175
     1
 42
1.0
 92
        8
 66
     7
 43
1.0
 76
     1
 77
     6
 78
     2
 67
     7
 79
     5
170
     0
171
     0
290
     0
174
     0
 93
       13
 44
0.0
173
     0
291
     1
 45
0.0
1001
ACAD
1000
AcDbSavedByObjectVersion
1070
     0
1000
AcDbSavedByObjectVersion
1070
     0
1000
AcDbSavedByObjectVersion
1070
     0
1000
AcDbSavedByObjectVersion
1070
     0
1000
AcDbSavedByObjectVersion
1070
     0
  0
VISUALSTYLE
  5
97
102
{ACAD_REACTORS
330
95
102
}
330
95
100
AcDbVisualStyle
  2
FlatWithEdges
 70
     1
 71
     2
 72
     1
 73
     1
 90
        2
 40
-0.6
 41
30.0
 62
     5
 63
     7
 74
     1
 91
        4
 64
     7
 65
   257
 75
     1
175
     1
 42
1.0
 92
        0
 66
   257
 43
1.0
 76
     1
 77
     6
 78
     2
 67
     7
 79
     5
170
     0
171
     0
290
     0
174
     0
 93
       13
 44
0.0
173
     0
291
     1
 45
0.0
1001
ACAD
1000
AcDbSavedByObjectVersion
1070
     0
1000
AcDbSavedByObjectVersion
1070
     0
1000
AcDbSavedByObjectVersion
1070
     0
1000
AcDbSavedByObjectVersion
1070
     0
1000
AcDbSavedByObjectVersion
1070
     0
  0
VISUALSTYLE
  5
98
102
{ACAD_REACTORS
330
95
102
}
330
95
100
AcDbVisualStyle
  2
Gouraud
 70
     2
 71
     2
 72
     2
 73
     1
 90
        2
 40
-0.6
 41
30.0
 62
     5
 63
     7
 74
     0
 91
        4
 64
     7
 65
   257
 75
     1
175
     1
 42
1.0
 92
        0
 66
     7
 43
1.0
 76
     1
 77
     6
 78
     2
 67
     7
 79
     5
170
     0
171
     0
290
     0
174
     0
 93
       13
 44
0.0
173
     0
291
     1
 45
0.0
1001
ACAD
1000
AcDbSavedByObjectVersion
1070
     0
1000
AcDbSavedByObjectVersion
1070
     0
1000
AcDbSavedByObjectVersion
1070
     0
1000
AcDbSavedByObjectVersion
1070
     0
1000
AcDbSavedByObjectVersion
1070
     0
  0
VISUALSTYLE
  5
99
102
{ACAD_REACTORS
330
95
102
}
330
95
100
AcDbVisualStyle
  2
GouraudWithEdges
 70
     3
 71
     2
 72
     2
 73
     1
 90
        2
 40
-0.6
 41
30.0
 62
     5
 63
     7
 74
     1
 91
        4
 64
     7
 65
   257
 75
     1
175
     1
 42
1.0
 92
        0
 66
   257
 43
1.0
 76
     1
 77
     6
 78
     2
 67
     7
 79
     5
170
     0
171
     0
290
     0
174
     0
 93
       13
 44
0.0
173
     0
291
     1
 45
0.0
1001
ACAD
1000
AcDbSavedByObjectVersion
1070
     0
1000
AcDbSavedByObjectVersion
1070
     0
1000
AcDbSavedByObjectVersion
1070
     0
1000
AcDbSavedByObjectVersion
1070
     0
1000
AcDbSavedByObjectVersion
1070
     0
  0
VISUALSTYLE
  5
A3
102
{ACAD_REACTORS
330
95
102
}
330
95
100
AcDbVisualStyle
  2
Linepattern
 70
    14
 71
     2
 72
     2
 73
     0
 90
        0
 40
-0.6
 41
-30.0
 62
     5
 63
     7
 74
     1
 91
        4
 64
     7
 65
   257
 75
     7
175
     7
 42
1.0
 92
        8
 66
     7
 43
1.0
 76
     1
 77
     6
 78
     2
 67
     7
 79
     5
170
     0
171
     0
290
     0
174
     0
 93
        1
 44
0.0
173
     0
291
     1
 45
0.0
1001
ACAD
1000
AcDbSavedByObjectVersion
1070
     0
1000
AcDbSavedByObjectVersion
1070
     0
1000
AcDbSavedByObjectVersion
1070
     0
1000
AcDbSavedByObjectVersion
1070
     0
1000
AcDbSavedByObjectVersion
1070
     0
  0
VISUALSTYLE
  5
9F
102
{ACAD_REACTORS
330
95
102
}
330
95
100
AcDbVisualStyle
  2
Realistic
 70
     8
 71
     2
 72
     2
 73
     0
 90
        0
 40
-0.6
 41
-30.0
 62
     5
 63
     7
 74
     1
 91
        0
 64
     7
 65
   257
 75
     1
175
     1
 42
1.0
 92
        8
 66
     8
 43
1.0
 76
     1
 77
     6
 78
     2
 67
     7
 79
     5
170
     0
171
     0
290
     0
174
     0
 93
       13
 44
0.0
173
     0
291
     0
 45
0.0
1001
ACAD
1000
AcDbSavedByObjectVersion
1070
     0
1000
AcDbSavedByObjectVersion
1070
     0
1000
AcDbSavedByObjectVersion
1070
     0
1000
AcDbSavedByObjectVersion
1070
     0
1000
AcDbSavedByObjectVersion
1070
     0
  0
VISUALSTYLE
  5
A2
102
{ACAD_REACTORS
330
95
102
}
330
95
100
AcDbVisualStyle
  2
Thicken
 70
    13
 71
     2
 72
     2
 73
     0
 90
        0
 40
-0.6
 41
-30.0
 62
     5
 63
     7
 74
     1
 91
        4
 64
     7
 65
   257
 75
     1
175
     1
 42
1.0
 92
       12
 66
     7
 43
1.0
 76
     1
 77
     6
 78
     2
 67
     7
 79
     5
170
     0
171
     0
290
     0
174
     0
 93
        1
 44
0.0
173
     0
291
     1
 45
0.0
1001
ACAD
1000
AcDbSavedByObjectVersion
1070
     0
1000
AcDbSavedByObjectVersion
1070
     0
1000
AcDbSavedByObjectVersion
1070
     0
1000
AcDbSavedByObjectVersion
1070
     0
1000
AcDbSavedByObjectVersion
1070
     0
  0
DICTIONARYVAR
  5
127
102
{ACAD_REACTORS
330
124
102
}
330
124
100
DictionaryVariables
280
     0
  1
1:1
  0
DICTIONARYVAR
  5
126
102
{ACAD_REACTORS
330
124
102
}
330
124
100
DictionaryVariables
280
     0
  1
STANDARD
  0
DICTIONARYVAR
  5
125
102
{ACAD_REACTORS
330
124
102
}
330
124
100
DictionaryVariables
280
     0
  1
STANDARD
  0
DICTIONARYVAR
  5
12A
102
{ACAD_REACTORS
330
124
102
}
330
124
100
DictionaryVariables
280
     0
  1
1
  0
DICTIONARYVAR
  5
129
102
{ACAD_REACTORS
330
124
102
}
330
124
100
DictionaryVariables
280
     0
  1
0
  0
DICTIONARYVAR
  5
2926
102
{ACAD_REACTORS
330
124
102
}
330
124
100
DictionaryVariables
280
     0
  1
0
  0
DICTIONARYVAR
  5
2925
102
{ACAD_REACTORS
330
124
102
}
330
124
100
DictionaryVariables
280
     0
  1
0
  0
DICTIONARYVAR
  5
128
102
{ACAD_REACTORS
330
124
102
}
330
124
100
DictionaryVariables
280
     0
  1
127
  0
XRECORD
  5
292E
102
{ACAD_REACTORS
330
292D
102
}
330
292D
100
AcDbXrecord
280
     1
  0
DICTIONARY
  5
86
330
85
100
AcDbDictionary
280
     1
281
     1
  3
ACAD_XREC_ROUNDTRIP
360
2D0A
  3
BUMPTILE
360
88
  3
DIFFUSETILE
360
87
  3
OPACITYTILE
360
8B
  3
REFLECTIONTILE
360
8A
  3
REFRACTIONTILE
360
8C
  3
SPECULARTILE
360
89
  0
DICTIONARY
  5
7E
330
7D
100
AcDbDictionary
280
     1
281
     1
  3
ACAD_XREC_ROUNDTRIP
360
2D09
  3
BUMPTILE
360
80
  3
DIFFUSETILE
360
7F
  3
OPACITYTILE
360
83
  3
REFLECTIONTILE
360
82
  3
REFRACTIONTILE
360
84
  3
SPECULARTILE
360
81
  0
DICTIONARY
  5
8E
330
8D
100
AcDbDictionary
280
     1
281
     1
  3
ACAD_XREC_ROUNDTRIP
360
2D0B
  3
BUMPTILE
360
90
  3
DIFFUSETILE
360
8F
  3
OPACITYTILE
360
93
  3
REFLECTIONTILE
360
92
  3
REFRACTIONTILE
360
94
  3
SPECULARTILE
360
91
  0
DICTIONARY
  5
12B
330
A8
100
AcDbDictionary
280
     1
281
     1
  3
ACAD_ROUNDTRIP_2008_TABLESTYLE_CELLSTYLEMAP
360
2D08
  3
ACAD_XREC_ROUNDTRIP
360
2D0C
  0
XRECORD
  5
2D0A
102
{ACAD_REACTORS
330
86
102
}
330
86
100
AcDbXrecord
280
     1
102
MATERIAL
148
0.0
149
0.0
149
0.0
 93
        0
 94
      127
282
     0
 72
     0
 77
     0
171
     0
175
     0
179
     0
273
     0
  0
XRECORD
  5
88
102
{ACAD_REACTORS
330
86
102
}
330
86
100
AcDbXrecord
280
     1
270
     1
271
     1
  0
XRECORD
  5
87
102
{ACAD_REACTORS
330
86
102
}
330
86
100
AcDbXrecord
280
     1
270
     1
271
     1
  0
XRECORD
  5
8B
102
{ACAD_REACTORS
330
86
102
}
330
86
100
AcDbXrecord
280
     1
270
     1
271
     1
  0
XRECORD
  5
8A
102
{ACAD_REACTORS
330
86
102
}
330
86
100
AcDbXrecord
280
     1
270
     1
271
     1
  0
XRECORD
  5
8C
102
{ACAD_REACTORS
330
86
102
}
330
86
100
AcDbXrecord
280
     1
270
     1
271
     1
  0
XRECORD
  5
89
102
{ACAD_REACTORS
330
86
102
}
330
86
100
AcDbXrecord
280
     1
270
     1
271
     1
  0
XRECORD
  5
2D09
102
{ACAD_REACTORS
330
7E
102
}
330
7E
100
AcDbXrecord
280
     1
102
MATERIAL
148
0.0
149
0.0
149
0.0
 93
        0
 94
      127
282
     0
 72
     0
 77
     0
171
     0
175
     0
179
     0
273
     0
  0
XRECORD
  5
80
102
{ACAD_REACTORS
330
7E
102
}
330
7E
100
AcDbXrecord
280
     1
270
     1
271
     1
  0
XRECORD
  5
7F
102
{ACAD_REACTORS
330
7E
102
}
330
7E
100
AcDbXrecord
280
     1
270
     1
271
     1
  0
XRECORD
  5
83
102
{ACAD_REACTORS
330
7E
102
}
330
7E
100
AcDbXrecord
280
     1
270
     1
271
     1
  0
XRECORD
  5
82
102
{ACAD_REACTORS
330
7E
102
}
330
7E
100
AcDbXrecord
280
     1
270
     1
271
     1
  0
XRECORD
  5
84
102
{ACAD_REACTORS
330
7E
102
}
330
7E
100
AcDbXrecord
280
     1
270
     1
271
     1
  0
XRECORD
  5
81
102
{ACAD_REACTORS
330
7E
102
}
330
7E
100
AcDbXrecord
280
     1
270
     1
271
     1
  0
XRECORD
  5
2D0B
102
{ACAD_REACTORS
330
8E
102
}
330
8E
100
AcDbXrecord
280
     1
102
MATERIAL
148
0.0
149
0.0
149
0.0
 93
        0
 94
      127
282
     0
 72
     0
 77
     0
171
     0
175
     0
179
     0
273
     0
  0
XRECORD
  5
90
102
{ACAD_REACTORS
330
8E
102
}
330
8E
100
AcDbXrecord
280
     1
270
     1
271
     1
  0
XRECORD
  5
8F
102
{ACAD_REACTORS
330
8E
102
}
330
8E
100
AcDbXrecord
280
     1
270
     1
271
     1
  0
XRECORD
  5
93
102
{ACAD_REACTORS
330
8E
102
}
330
8E
100
AcDbXrecord
280
     1
270
     1
271
     1
  0
XRECORD
  5
92
102
{ACAD_REACTORS
330
8E
102
}
330
8E
100
AcDbXrecord
280
     1
270
     1
271
     1
  0
XRECORD
  5
94
102
{ACAD_REACTORS
330
8E
102
}
330
8E
100
AcDbXrecord
280
     1
270
     1
271
     1
  0
XRECORD
  5
91
102
{ACAD_REACTORS
330
8E
102
}
330
8E
100
AcDbXrecord
280
     1
270
     1
271
     1
  0
CELLSTYLEMAP
  5
2D08
102
{ACAD_REACTORS
330
12B
102
}
330
12B
100
AcDbCellStyleMap
 90
        3
300
CELLSTYLE
  1
TABLEFORMAT_BEGIN
 90
        5
170
     1
 91
        0
 92
    32768
 62
   257
 93
        1
300
CONTENTFORMAT
  1
CONTENTFORMAT_BEGIN
 90
        0
 91
        0
 92
      512
 93
        0
300

 40
0.0
140
1.0
 94
        5
 62
     0
340
17
144
0.25
309
CONTENTFORMAT_END
171
     1
301
MARGIN
  1
CELLMARGIN_BEGIN
 40
0.06
 40
0.06
 40
0.06
 40
0.06
 40
0.18
 40
0.18
309
CELLMARGIN_END
 94
        6
 95
        1
302
GRIDFORMAT
  1
GRIDFORMAT_BEGIN
 90
        0
 91
        1
 62
     0
 92
       -2
340
0
 93
        0
 40
0.045
309
GRIDFORMAT_END
 95
        2
302
GRIDFORMAT
  1
GRIDFORMAT_BEGIN
 90
        0
 91
        1
 62
     0
 92
       -2
340
0
 93
        0
 40
0.045
309
GRIDFORMAT_END
 95
        4
302
GRIDFORMAT
  1
GRIDFORMAT_BEGIN
 90
        0
 91
        1
 62
     0
 92
       -2
340
0
 93
        0
 40
0.045
309
GRIDFORMAT_END
 95
        8
302
GRIDFORMAT
  1
GRIDFORMAT_BEGIN
 90
        0
 91
        1
 62
     0
 92
       -2
340
0
 93
        0
 40
0.045
309
GRIDFORMAT_END
 95
       16
302
GRIDFORMAT
  1
GRIDFORMAT_BEGIN
 90
        0
 91
        1
 62
     0
 92
       -2
340
0
 93
        0
 40
0.045
309
GRIDFORMAT_END
 95
       32
302
GRIDFORMAT
  1
GRIDFORMAT_BEGIN
 90
        0
 91
        1
 62
     0
 92
       -2
340
0
 93
        0
 40
0.045
309
GRIDFORMAT_END
309
TABLEFORMAT_END
  1
CELLSTYLE_BEGIN
 90
        1
 91
        1
300
_TITLE
309
CELLSTYLE_END
300
CELLSTYLE
  1
TABLEFORMAT_BEGIN
 90
        5
170
     1
 91
        0
 92
        0
 62
   257
 93
        1
300
CONTENTFORMAT
  1
CONTENTFORMAT_BEGIN
 90
        0
 91
        0
 92
      512
 93
        0
300

 40
0.0
140
1.0
 94
        5
 62
     0
340
17
144
0.18
309
CONTENTFORMAT_END
171
     1
301
MARGIN
  1
CELLMARGIN_BEGIN
 40
0.06
 40
0.06
 40
0.06
 40
0.06
 40
0.18
 40
0.18
309
CELLMARGIN_END
 94
        6
 95
        1
302
GRIDFORMAT
  1
GRIDFORMAT_BEGIN
 90
        0
 91
        1
 62
     0
 92
       -2
340
0
 93
        0
 40
0.045
309
GRIDFORMAT_END
 95
        2
302
GRIDFORMAT
  1
GRIDFORMAT_BEGIN
 90
        0
 91
        1
 62
     0
 92
       -2
340
0
 93
        0
 40
0.045
309
GRIDFORMAT_END
 95
        4
302
GRIDFORMAT
  1
GRIDFORMAT_BEGIN
 90
        0
 91
        1
 62
     0
 92
       -2
340
0
 93
        0
 40
0.045
309
GRIDFORMAT_END
 95
        8
302
GRIDFORMAT
  1
GRIDFORMAT_BEGIN
 90
        0
 91
        1
 62
     0
 92
       -2
340
0
 93
        0
 40
0.045
309
GRIDFORMAT_END
 95
       16
302
GRIDFORMAT
  1
GRIDFORMAT_BEGIN
 90
        0
 91
        1
 62
     0
 92
       -2
340
0
 93
        0
 40
0.045
309
GRIDFORMAT_END
 95
       32
302
GRIDFORMAT
  1
GRIDFORMAT_BEGIN
 90
        0
 91
        1
 62
     0
 92
       -2
340
0
 93
        0
 40
0.045
309
GRIDFORMAT_END
309
TABLEFORMAT_END
  1
CELLSTYLE_BEGIN
 90
        2
 91
        1
300
_HEADER
309
CELLSTYLE_END
300
CELLSTYLE
  1
TABLEFORMAT_BEGIN
 90
        5
170
     1
 91
        0
 92
        0
 62
   257
 93
        1
300
CONTENTFORMAT
  1
CONTENTFORMAT_BEGIN
 90
        0
 91
        0
 92
      512
 93
        0
300

 40
0.0
140
1.0
 94
        2
 62
     0
340
17
144
0.18
309
CONTENTFORMAT_END
171
     1
301
MARGIN
  1
CELLMARGIN_BEGIN
 40
0.06
 40
0.06
 40
0.06
 40
0.06
 40
0.18
 40
0.18
309
CELLMARGIN_END
 94
        6
 95
        1
302
GRIDFORMAT
  1
GRIDFORMAT_BEGIN
 90
        0
 91
        1
 62
     0
 92
       -2
340
0
 93
        0
 40
0.045
309
GRIDFORMAT_END
 95
        2
302
GRIDFORMAT
  1
GRIDFORMAT_BEGIN
 90
        0
 91
        1
 62
     0
 92
       -2
340
0
 93
        0
 40
0.045
309
GRIDFORMAT_END
 95
        4
302
GRIDFORMAT
  1
GRIDFORMAT_BEGIN
 90
        0
 91
        1
 62
     0
 92
       -2
340
0
 93
        0
 40
0.045
309
GRIDFORMAT_END
 95
        8
302
GRIDFORMAT
  1
GRIDFORMAT_BEGIN
 90
        0
 91
        1
 62
     0
 92
       -2
340
0
 93
        0
 40
0.045
309
GRIDFORMAT_END
 95
       16
302
GRIDFORMAT
  1
GRIDFORMAT_BEGIN
 90
        0
 91
        1
 62
     0
 92
       -2
340
0
 93
        0
 40
0.045
309
GRIDFORMAT_END
 95
       32
302
GRIDFORMAT
  1
GRIDFORMAT_BEGIN
 90
        0
 91
        1
 62
     0
 92
       -2
340
0
 93
        0
 40
0.045
309
GRIDFORMAT_END
309
TABLEFORMAT_END
  1
CELLSTYLE_BEGIN
 90
        3
 91
        2
300
_DATA
309
CELLSTYLE_END
  0
XRECORD
  5
2D0C
102
{ACAD_REACTORS
330
12B
102
}
330
12B
100
AcDbXrecord
280
     1
102
ACAD_ROUNDTRIP_PRE2007_TABLESTYLE
 90
      512
 91
        0
  1

 92
      512
 93
        0
  2

 94
      512
 95
        0
  3

  0
ENDSEC
  0
EOF
