  0
SECTION
  2
HEADER
  9
$ACADVER
  1
AC1018
  9
$ACADMAINTVER
 70
    77
  9
$DWGCODEPAGE
  3
ANSI_936
  9
$LASTSAVEDBY
  1
daicl
  9
$INSBASE
 10
0.0
 20
0.0
 30
0.0
  9
$EXTMIN
 10
3045.875713902288
 20
953.7803271993984
 30
0.0
  9
$EXTMAX
 10
5779.854644114959
 20
1521.819303378223
 30
0.0
  9
$LIMMIN
 10
0.0
 20
0.0
  9
$LIMMAX
 10
0.0
 20
0.0
  9
$ORTHOMODE
 70
     1
  9
$REGENMODE
 70
     1
  9
$FILLMODE
 70
     1
  9
$QTEXTMODE
 70
     0
  9
$MIRRTEXT
 70
     1
  9
$LTSCALE
 40
1.0
  9
$ATTMODE
 70
     1
  9
$TEXTSIZE
 40
0.0
  9
$TRACEWID
 40
0.05
  9
$TEXTSTYLE
  7
Standard
  9
$CLAYER
  8
0
  9
$CELTYPE
  6
Continuous
  9
$CECOLOR
 62
   256
  9
$CELTSCALE
 40
1.0
  9
$DISPSILH
 70
     0
  9
$DIMSCALE
 40
1.0
  9
$DIMASZ
 40
0.4
  9
$DIMEXO
 40
0.0625
  9
$DIMDLI
 40
1.0
  9
$DIMRND
 40
0.0
  9
$DIMDLE
 40
0.0
  9
$DIMEXE
 40
0.18
  9
$DIMTP
 40
0.0015
  9
$DIMTM
 40
0.0015
  9
$DIMTXT
 40
1.0
  9
$DIMCEN
 40
2.0
  9
$DIMTSZ
 40
0.0
  9
$DIMTOL
 70
     0
  9
$DIMLIM
 70
     0
  9
$DIMTIH
 70
     0
  9
$DIMTOH
 70
     0
  9
$DIMSE1
 70
     0
  9
$DIMSE2
 70
     0
  9
$DIMTAD
 70
     0
  9
$DIMZIN
 70
     0
  9
$DIMBLK
  1

  9
$DIMASO
 70
     1
  9
$DIMSHO
 70
     1
  9
$DIMPOST
  1

  9
$DIMAPOST
  1

  9
$DIMALT
 70
     0
  9
$DIMALTD
 70
     2
  9
$DIMALTF
 40
25.4
  9
$DIMLFAC
 40
1.0
  9
$DIMTOFL
 70
     0
  9
$DIMTVP
 40
0.0
  9
$DIMTIX
 70
     0
  9
$DIMSOXD
 70
     0
  9
$DIMSAH
 70
     0
  9
$DIMBLK1
  1

  9
$DIMBLK2
  1

  9
$DIMSTYLE
  2
Standard
  9
$DIMCLRD
 70
     3
  9
$DIMCLRE
 70
     0
  9
$DIMCLRT
 70
     0
  9
$DIMTFAC
 40
1.000499999999999
  9
$DIMGAP
 40
0.3
  9
$DIMJUST
 70
     0
  9
$DIMSD1
 70
     0
  9
$DIMSD2
 70
     0
  9
$DIMTOLJ
 70
     1
  9
$DIMTZIN
 70
     0
  9
$DIMALTZ
 70
     0
  9
$DIMALTTZ
 70
     0
  9
$DIMUPT
 70
     0
  9
$DIMDEC
 70
     1
  9
$DIMTDEC
 70
     1
  9
$DIMALTU
 70
     2
  9
$DIMALTTD
 70
     2
  9
$DIMTXSTY
  7
Standard
  9
$DIMAUNIT
 70
     0
  9
$DIMADEC
 70
     0
  9
$DIMALTRND
 40
0.0
  9
$DIMAZIN
 70
     0
  9
$DIMDSEP
 70
     0
  9
$DIMATFIT
 70
     3
  9
$DIMFRAC
 70
     0
  9
$DIMLDRBLK
  1

  9
$DIMLUNIT
 70
     2
  9
$DIMLWD
 70
     0
  9
$DIMLWE
 70
     0
  9
$DIMTMOVE
 70
     0
  9
$LUNITS
 70
     2
  9
$LUPREC
 70
     4
  9
$SKETCHINC
 40
0.1
  9
$FILLETRAD
 40
15.0
  9
$AUNITS
 70
     0
  9
$AUPREC
 70
     0
  9
$MENU
  1
acad
  9
$ELEVATION
 40
0.0
  9
$PELEVATION
 40
0.0
  9
$THICKNESS
 40
0.0
  9
$LIMCHECK
 70
     0
  9
$CHAMFERA
 40
0.0
  9
$CHAMFERB
 40
0.0
  9
$CHAMFERC
 40
0.0
  9
$CHAMFERD
 40
0.0
  9
$SKPOLY
 70
     0
  9
$TDCREATE
 40
2455639.606456157
  9
$TDUCREATE
 40
2455639.273122824
  9
$TDUPDATE
 40
2455735.843764097
  9
$TDUUPDATE
 40
2455735.510430764
  9
$TDINDWG
 40
0.6250598958
  9
$TDUSRTIMER
 40
0.6250482986
  9
$USRTIMER
 70
     1
  9
$ANGBASE
 50
0.0
  9
$ANGDIR
 70
     0
  9
$PDMODE
 70
     0
  9
$PDSIZE
 40
0.0
  9
$PLINEWID
 40
0.0
  9
$SPLFRAME
 70
     0
  9
$SPLINETYPE
 70
     6
  9
$SPLINESEGS
 70
     8
  9
$HANDSEED
  5
27DC
  9
$SURFTAB1
 70
     6
  9
$SURFTAB2
 70
     6
  9
$SURFTYPE
 70
     6
  9
$SURFU
 70
     6
  9
$SURFV
 70
     6
  9
$UCSBASE
  2

  9
$UCSNAME
  2

  9
$UCSORG
 10
0.0
 20
0.0
 30
0.0
  9
$UCSXDIR
 10
1.0
 20
0.0
 30
0.0
  9
$UCSYDIR
 10
0.0
 20
1.0
 30
0.0
  9
$UCSORTHOREF
  2

  9
$UCSORTHOVIEW
 70
     0
  9
$UCSORGTOP
 10
0.0
 20
0.0
 30
0.0
  9
$UCSORGBOTTOM
 10
0.0
 20
0.0
 30
0.0
  9
$UCSORGLEFT
 10
0.0
 20
0.0
 30
0.0
  9
$UCSORGRIGHT
 10
0.0
 20
0.0
 30
0.0
  9
$UCSORGFRONT
 10
0.0
 20
0.0
 30
0.0
  9
$UCSORGBACK
 10
0.0
 20
0.0
 30
0.0
  9
$PUCSBASE
  2

  9
$PUCSNAME
  2

  9
$PUCSORG
 10
0.0
 20
0.0
 30
0.0
  9
$PUCSXDIR
 10
1.0
 20
0.0
 30
0.0
  9
$PUCSYDIR
 10
0.0
 20
1.0
 30
0.0
  9
$PUCSORTHOREF
  2

  9
$PUCSORTHOVIEW
 70
     0
  9
$PUCSORGTOP
 10
0.0
 20
0.0
 30
0.0
  9
$PUCSORGBOTTOM
 10
0.0
 20
0.0
 30
0.0
  9
$PUCSORGLEFT
 10
0.0
 20
0.0
 30
0.0
  9
$PUCSORGRIGHT
 10
0.0
 20
0.0
 30
0.0
  9
$PUCSORGFRONT
 10
0.0
 20
0.0
 30
0.0
  9
$PUCSORGBACK
 10
0.0
 20
0.0
 30
0.0
  9
$USERI1
 70
     0
  9
$USERI2
 70
     0
  9
$USERI3
 70
     0
  9
$USERI4
 70
     0
  9
$USERI5
 70
     0
  9
$USERR1
 40
0.0
  9
$USERR2
 40
0.0
  9
$USERR3
 40
0.0
  9
$USERR4
 40
0.0
  9
$USERR5
 40
0.0
  9
$WORLDVIEW
 70
     1
  9
$SHADEDGE
 70
     3
  9
$SHADEDIF
 70
    70
  9
$TILEMODE
 70
     1
  9
$MAXACTVP
 70
    16
  9
$PINSBASE
 10
0.0
 20
0.0
 30
0.0
  9
$PLIMCHECK
 70
     0
  9
$PEXTMIN
 10
1.000000000000000E+20
 20
1.000000000000000E+20
 30
1.000000000000000E+20
  9
$PEXTMAX
 10
-1.000000000000000E+20
 20
-1.000000000000000E+20
 30
-1.000000000000000E+20
  9
$PLIMMIN
 10
0.0
 20
0.0
  9
$PLIMMAX
 10
12.0
 20
9.0
  9
$UNITMODE
 70
     0
  9
$VISRETAIN
 70
     0
  9
$PLINEGEN
 70
     1
  9
$PSLTSCALE
 70
     0
  9
$TREEDEPTH
 70
  3020
  9
$CMLSTYLE
  2
Standard
  9
$CMLJUST
 70
     0
  9
$CMLSCALE
 40
1.0
  9
$PROXYGRAPHICS
 70
     0
  9
$MEASUREMENT
 70
     0
  9
$CELWEIGHT
370
     0
  9
$ENDCAPS
280
     0
  9
$JOINSTYLE
280
     0
  9
$LWDISPLAY
290
     0
  9
$INSUNITS
 70
     0
  9
$HYPERLINKBASE
  1

  9
$STYLESHEET
  1

  9
$XEDIT
290
     1
  9
$CEPSNTYPE
380
     0
  9
$PSTYLEMODE
290
     1
  9
$FINGERPRINTGUID
  2

  9
$VERSIONGUID
  2
{A3E9E470-073D-4159-8D8D-A203DECD1437}
  9
$EXTNAMES
290
     1
  9
$PSVPSCALE
 40
0.0
  9
$OLESTARTUP
290
     0
  9
$SORTENTS
280
   127
  9
$INDEXCTL
280
     0
  9
$HIDETEXT
280
     0
  9
$XCLIPFRAME
290
     0
  9
$HALOGAP
280
     0
  9
$OBSCOLOR
 70
   257
  9
$OBSLTYPE
280
     0
  9
$INTERSECTIONDISPLAY
280
     0
  9
$INTERSECTIONCOLOR
 70
   257
  9
$DIMASSOC
280
     1
  9
$PROJECTNAME
  1

  0
ENDSEC
  0
SECTION
  2
CLASSES
  0
CLASS
  1
IMAGE
  2
AcDbRasterImage
  3
ISM
 90
      127
 91
        0
280
     0
281
     1
  0
CLASS
  1
DICTIONARYVAR
  2
AcDbDictionaryVar
  3
ObjectDBX Classes
 90
        0
 91
        6
280
     0
281
     0
  0
CLASS
  1
RASTERVARIABLES
  2
AcDbRasterVariables
  3
ISM
 90
        0
 91
        0
280
     0
281
     0
  0
CLASS
  1
IMAGEDEF
  2
AcDbRasterImageDef
  3
ISM
 90
        0
 91
        0
280
     0
281
     0
  0
CLASS
  1
IMAGEDEF_REACTOR
  2
AcDbRasterImageDefReactor
  3
ISM
 90
        1
 91
        0
280
     0
281
     0
  0
CLASS
  1
IDBUFFER
  2
AcDbIdBuffer
  3
ObjectDBX Classes
 90
        0
 91
        0
280
     0
281
     0
  0
CLASS
  1
SPATIAL_FILTER
  2
AcDbSpatialFilter
  3
ObjectDBX Classes
 90
        0
 91
        0
280
     0
281
     0
  0
CLASS
  1
SORTENTSTABLE
  2
AcDbSortentsTable
  3
ObjectDBX Classes
 90
        0
 91
        3
280
     0
281
     0
  0
CLASS
  1
LAYER_INDEX
  2
AcDbLayerIndex
  3
ObjectDBX Classes
 90
        0
 91
        0
280
     0
281
     0
  0
CLASS
  1
SPATIAL_INDEX
  2
AcDbSpatialIndex
  3
ObjectDBX Classes
 90
        0
 91
        0
280
     0
281
     0
  0
CLASS
  1
OBJECT_PTR
  2
CAseDLPNTableRecord
  3
ASE-LPNTableRecord
 90
        1
 91
        0
280
     0
281
     0
  0
CLASS
  1
LAYOUT
  2
AcDbLayout
  3
ObjectDBX Classes
 90
        0
 91
        2
280
     0
281
     0
  0
CLASS
  1
PLOTSETTINGS
  2
AcDbPlotSettings
  3
ObjectDBX Classes
 90
        0
 91
        0
280
     0
281
     0
  0
CLASS
  1
ACDBDICTIONARYWDFLT
  2
AcDbDictionaryWithDefault
  3
ObjectDBX Classes
 90
        0
 91
        1
280
     0
281
     0
  0
CLASS
  1
ACDBPLACEHOLDER
  2
AcDbPlaceHolder
  3
ObjectDBX Classes
 90
        0
 91
        1
280
     0
281
     0
  0
CLASS
  1
VBA_PROJECT
  2
AcDbVbaProject
  3
acad
 90
        0
 91
        0
280
     0
281
     0
  0
CLASS
  1
WIPEOUT
  2
AcDbWipeout
  3
"WipeOut|Product Desc: Object Enabler for WipeOut entity^I^I^I^I^I^I|Company: Autodesk, Inc.^I^I^I^I^I^I|WEB Address: www.autodesk.com"
 90
      127
 91
        0
280
     0
281
     1
  0
CLASS
  1
WIPEOUTVARIABLES
  2
AcDbWipeoutVariables
  3
"WipeOut|Product Desc:     WipeOut Dbx Application|Company:          Autodesk, Inc.|WEB Address:      www.autodesk.com"
 90
        0
 91
        1
280
     0
281
     0
  0
CLASS
  1
RTEXT
  2
RText
  3
RText|AutoCAD Express Tool|expresstools@autodesk.com
 90
        0
 91
        0
280
     0
281
     1
  0
CLASS
  1
ARCALIGNEDTEXT
  2
AcDbArcAlignedText
  3
ATEXT|AutoCAD Express Tool|expresstools@autodesk.com
 90
        0
 91
        0
280
     0
281
     1
  0
CLASS
  1
MATERIAL
  2
AcDbMaterial
  3
ObjectDBX Classes
 90
        0
 91
        3
280
     0
281
     0
  0
CLASS
  1
VISUALSTYLE
  2
AcDbVisualStyle
  3
ObjectDBX Classes
 90
     4095
 91
       16
280
     0
281
     0
  0
CLASS
  1
TABLESTYLE
  2
AcDbTableStyle
  3
ObjectDBX Classes
 90
     2047
 91
        1
280
     0
281
     0
  0
CLASS
  1
SCALE
  2
AcDbScale
  3
ObjectDBX Classes
 90
     1153
 91
       33
280
     0
281
     0
  0
CLASS
  1
MLEADERSTYLE
  2
AcDbMLeaderStyle
  3
ACDB_MLEADERSTYLE_CLASS
 90
     4095
 91
        1
280
     0
281
     0
  0
CLASS
  1
CELLSTYLEMAP
  2
AcDbCellStyleMap
  3
ObjectDBX Classes
 90
     1152
 91
        1
280
     0
281
     0
  0
ENDSEC
  0
SECTION
  2
TABLES
  0
TABLE
  2
VPORT
  5
7
330
0
100
AcDbSymbolTable
 70
     4
  0
VPORT
  5
27DB
330
7
100
AcDbSymbolTableRecord
100
AcDbViewportTableRecord
  2
*Active
 70
     0
 10
0.0
 20
0.0
 11
1.0
 21
1.0
 12
4750.519672686463
 22
984.9032418420334
 13
0.0
 23
0.0
 14
1.0
 24
1.0
 15
0.0
 25
0.0
 16
0.0
 26
0.0
 36
1.0
 17
0.0
 27
0.0
 37
0.0
 40
2523.588221683614
 41
1.695035460992907
 42
50.0
 43
0.0
 44
0.0
 50
0.0
 51
0.0
 71
     0
 72
   100
 73
     1
 74
     1
 75
     0
 76
     0
 77
     0
 78
     0
281
     0
 65
     0
110
0.0
120
0.0
130
0.0
111
1.0
121
0.0
131
0.0
112
0.0
122
1.0
132
0.0
 79
     0
146
0.0
  0
ENDTAB
  0
TABLE
  2
LTYPE
  5
4
330
0
100
AcDbSymbolTable
 70
    11
  0
LTYPE
  5
11
330
4
100
AcDbSymbolTableRecord
100
AcDbLinetypeTableRecord
  2
ByBlock
 70
     0
  3

 72
    65
 73
     0
 40
0.0
  0
LTYPE
  5
12
330
4
100
AcDbSymbolTableRecord
100
AcDbLinetypeTableRecord
  2
ByLayer
 70
     0
  3

 72
    65
 73
     0
 40
0.0
  0
LTYPE
  5
13
330
4
100
AcDbSymbolTableRecord
100
AcDbLinetypeTableRecord
  2
Continuous
 70
     0
  3
Solid line
 72
    65
 73
     0
 40
0.0
  0
LTYPE
  5
25
330
4
100
AcDbSymbolTableRecord
100
AcDbLinetypeTableRecord
  2
\U+00D0¨¦\U+00CF\U+00DF
 70
     0
  3
\U+00D0¨¦\U+00CF\U+00DF
 72
    65
 73
     2
 40
0.125
 49
0.0
 74
     0
 49
-0.125
 74
     0
  0
LTYPE
  5
26
330
4
100
AcDbSymbolTableRecord
100
AcDbLinetypeTableRecord
  2
\U+00D6\U+00D0\U+00D0\U+00C4\U+00CF\U+00DF
 70
     0
  3
\U+00D6\U+00D0\U+00D0\U+00C4\U+00CF\U+00DF
 72
    65
 73
     4
 40
43.0
 49
40.0
 74
     0
 49
-1.0
 74
     0
 49
1.0
 74
     0
 49
-1.0
 74
     0
  0
LTYPE
  5
27
330
4
100
AcDbSymbolTableRecord
100
AcDbLinetypeTableRecord
  2
\U+00C6\U+00C6\U+00D5\U+00DB\U+00CF\U+00DF
 70
     0
  3
\U+00C6\U+00C6\U+00D5\U+00DB\U+00CF\U+00DF
 72
    65
 73
     2
 40
4.0
 49
3.0
 74
     0
 49
-1.0
 74
     0
  0
LTYPE
  5
28
330
4
100
AcDbSymbolTableRecord
100
AcDbLinetypeTableRecord
  2
\U+00D2\U+00FE\U+00B2\U+00D8\U+00CF\U+00DF
 70
     0
  3
\U+00D2\U+00FE\U+00B2\U+00D8\U+00CF\U+00DF
 72
    65
 73
     2
 40
3.0
 49
2.0
 74
     0
 49
-1.0
 74
     0
  0
LTYPE
  5
29
330
4
100
AcDbSymbolTableRecord
100
AcDbLinetypeTableRecord
  2
\U+00BC\U+00D9\U+00CF\U+00EB\U+00CF\U+00DF
 70
     0
  3
\U+00BC\U+00D9\U+00CF\U+00EB\U+00CF\U+00DF
 72
    65
 73
     6
 40
35.0
 49
30.0
 74
     0
 49
-1.0
 74
     0
 49
1.0
 74
     0
 49
-1.0
 74
     0
 49
1.0
 74
     0
 49
-1.0
 74
     0
  0
LTYPE
  5
2A
330
4
100
AcDbSymbolTableRecord
100
AcDbLinetypeTableRecord
  2
\U+00B5\U+00E3\U+00BB\U+00AD\U+00CF\U+00DF
 70
     0
  3
\U+00B5\U+00E3\U+00BB\U+00AD\U+00CF\U+00DF
 72
    65
 73
     4
 40
33.0
 49
30.0
 74
     0
 49
-1.0
 74
     0
 49
1.0
 74
     0
 49
-1.0
 74
     0
  0
LTYPE
  5
2B
330
4
100
AcDbSymbolTableRecord
100
AcDbLinetypeTableRecord
  2
¡À\U+00DF\U+00BD\U+00E7\U+00CF\U+00DF
 70
     0
  3
¡À\U+00DF\U+00BD\U+00E7\U+00CF\U+00DF
 72
    65
 73
     4
 40
23.0
 49
20.0
 74
     0
 49
-1.0
 74
     0
 49
1.0
 74
     0
 49
-1.0
 74
     0
  0
LTYPE
  5
2C
330
4
100
AcDbSymbolTableRecord
100
AcDbLinetypeTableRecord
  2
¡¤\U+00D6\U+00B8\U+00EE\U+00CF\U+00DF
 70
     0
  3
¡¤\U+00D6\U+00B8\U+00EE\U+00CF\U+00DF
 72
    65
 73
     6
 40
25.0
 49
20.0
 74
     0
 49
-1.0
 74
     0
 49
1.0
 74
     0
 49
-1.0
 74
     0
 49
1.0
 74
     0
 49
-1.0
 74
     0
  0
LTYPE
  5
2D
330
4
100
AcDbSymbolTableRecord
100
AcDbLinetypeTableRecord
  2
\U+00C7\U+00D0\U+00B8\U+00EE\U+00CF\U+00DF
 70
     0
  3
\U+00C7\U+00D0\U+00B8\U+00EE\U+00CF\U+00DF
 72
    65
 73
     6
 40
45.0
 49
40.0
 74
     0
 49
-1.0
 74
     0
 49
1.0
 74
     0
 49
-1.0
 74
     0
 49
1.0
 74
     0
 49
-1.0
 74
     0
  0
LTYPE
  5
2E
330
4
100
AcDbSymbolTableRecord
100
AcDbLinetypeTableRecord
  2
¡¤¨¬\U+00BA\U+00CF\U+00CF\U+00DF
 70
     0
  3
¡¤¨¬\U+00BA\U+00CF\U+00CF\U+00DF
 72
    65
 73
     2
 40
2.0
 49
1.0
 74
     0
 49
-1.0
 74
     0
  0
ENDTAB
  0
TABLE
  2
LAYER
  5
2
330
0
100
AcDbSymbolTable
 70
    15
  0
LAYER
  5
14
102
{ACAD_XDICTIONARY
360
10C
102
}
330
2
100
AcDbSymbolTableRecord
100
AcDbLayerTableRecord
  2
0
 70
     0
 62
     7
  6
Continuous
370
    -3
390
1D
  0
LAYER
  5
2F
102
{ACAD_XDICTIONARY
360
10E
102
}
330
2
100
AcDbSymbolTableRecord
100
AcDbLayerTableRecord
  2
$FF
 70
     0
 62
     7
  6
Continuous
370
    -3
390
1D
  0
LAYER
  5
30
102
{ACAD_XDICTIONARY
360
110
102
}
330
2
100
AcDbSymbolTableRecord
100
AcDbLayerTableRecord
  2
CREASE
 70
     0
 62
     3
  6
Continuous
370
    -3
390
1D
  0
LAYER
  5
31
102
{ACAD_XDICTIONARY
360
112
102
}
330
2
100
AcDbSymbolTableRecord
100
AcDbLayerTableRecord
  2
CUT
 70
     0
 62
     7
  6
Continuous
370
    -3
390
1D
  0
LAYER
  5
32
102
{ACAD_XDICTIONARY
360
114
102
}
330
2
100
AcDbSymbolTableRecord
100
AcDbLayerTableRecord
  2
CUT2
 70
     0
 62
     6
  6
Continuous
370
    -3
390
1D
  0
LAYER
  5
33
102
{ACAD_XDICTIONARY
360
116
102
}
330
2
100
AcDbSymbolTableRecord
100
AcDbLayerTableRecord
  2
DIMENSION
 70
     0
 62
     7
  6
Continuous
370
    -3
390
1D
  0
LAYER
  5
34
102
{ACAD_XDICTIONARY
360
118
102
}
330
2
100
AcDbSymbolTableRecord
100
AcDbLayerTableRecord
  2
$FF$FF
 70
     0
 62
     7
  6
Continuous
370
     0
390
1D
  0
LAYER
  5
35
102
{ACAD_XDICTIONARY
360
11A
102
}
330
2
100
AcDbSymbolTableRecord
100
AcDbLayerTableRecord
  2
CONSTRUCTION
 70
     0
 62
     7
  6
Continuous
370
     0
390
1D
  0
LAYER
  5
36
102
{ACAD_XDICTIONARY
360
11C
102
}
330
2
100
AcDbSymbolTableRecord
100
AcDbLayerTableRecord
  2
CREASE1
 70
     0
 62
     7
  6
Continuous
370
     0
390
1D
  0
LAYER
  5
38
102
{ACAD_XDICTIONARY
360
11E
102
}
330
2
100
AcDbSymbolTableRecord
100
AcDbLayerTableRecord
  2
DESIGN
 70
     0
 62
     7
  6
Continuous
370
    -3
390
1D
  0
LAYER
  5
39
102
{ACAD_XDICTIONARY
360
120
102
}
330
2
100
AcDbSymbolTableRecord
100
AcDbLayerTableRecord
  2
LAYER1
 70
     0
 62
     7
  6
Continuous
370
    -3
390
1D
  0
LAYER
  5
3A
330
2
100
AcDbSymbolTableRecord
100
AcDbLayerTableRecord
  2
DEFPOINTS
 70
     0
 62
     7
  6
Continuous
290
     0
370
    -3
390
1D
  0
LAYER
  5
3B
102
{ACAD_XDICTIONARY
360
122
102
}
330
2
100
AcDbSymbolTableRecord
100
AcDbLayerTableRecord
  2
$FF$
 70
     0
 62
     7
  6
Continuous
370
    -3
390
1D
  0
LAYER
  5
383
102
{ACAD_XDICTIONARY
360
384
102
}
330
2
100
AcDbSymbolTableRecord
100
AcDbLayerTableRecord
  2
Í¼²ã 2
 70
     0
 62
     7
  6
Continuous
370
    -3
390
1D
  0
LAYER
  5
FB6
102
{ACAD_XDICTIONARY
360
FB7
102
}
330
2
100
AcDbSymbolTableRecord
100
AcDbLayerTableRecord
  2
GREEN
 70
     0
 62
     3
  6
Continuous
370
    -3
390
1D
  0
ENDTAB
  0
TABLE
  2
STYLE
  5
3
330
0
100
AcDbSymbolTable
 70
     2
  0
STYLE
  5
17
330
3
100
AcDbSymbolTableRecord
100
AcDbTextStyleTableRecord
  2
Standard
 70
     0
 40
0.0
 41
1.0
 50
0.0
 71
     0
 42
0.0
  3
txt
  4

  0
STYLE
  5
24
330
3
100
AcDbSymbolTableRecord
100
AcDbTextStyleTableRecord
  2
Plotter
 70
     0
 40
0.0
 41
0.98
 50
0.0
 71
     0
 42
0.0
  3
SIMPLEX
  4

  0
ENDTAB
  0
TABLE
  2
VIEW
  5
5
330
0
100
AcDbSymbolTable
 70
     0
  0
ENDTAB
  0
TABLE
  2
UCS
  5
6
330
0
100
AcDbSymbolTable
 70
     0
  0
ENDTAB
  0
TABLE
  2
APPID
  5
8
330
0
100
AcDbSymbolTable
 70
    17
  0
APPID
  5
16
330
8
100
AcDbSymbolTableRecord
100
AcDbRegAppTableRecord
  2
ACAD
 70
     0
  0
APPID
  5
CD
330
8
100
AcDbSymbolTableRecord
100
AcDbRegAppTableRecord
  2
ACAD_MLEADERVER
 70
     0
  0
APPID
  5
E3
330
8
100
AcDbSymbolTableRecord
100
AcDbRegAppTableRecord
  2
ACAD_EXEMPT_FROM_CAD_STANDARDS
 70
     0
  0
APPID
  5
101
330
8
100
AcDbSymbolTableRecord
100
AcDbRegAppTableRecord
  2
DCO15
 70
     0
  0
APPID
  5
387
330
8
100
AcDbSymbolTableRecord
100
AcDbRegAppTableRecord
  2
ACAD_PSEXT
 70
     0
  0
APPID
  5
388
330
8
100
AcDbSymbolTableRecord
100
AcDbRegAppTableRecord
  2
AcadAnnotative
 70
     0
  0
APPID
  5
389
330
8
100
AcDbSymbolTableRecord
100
AcDbRegAppTableRecord
  2
ACAD_DSTYLE_DIMJAG
 70
     0
  0
APPID
  5
38A
330
8
100
AcDbSymbolTableRecord
100
AcDbRegAppTableRecord
  2
ACAD_DSTYLE_DIMTALN
 70
     0
  0
APPID
  5
10D2
330
8
100
AcDbSymbolTableRecord
100
AcDbRegAppTableRecord
  2
ACAD_DSTYLE_DIMRADIAL_EXTENSION
 70
     0
  0
APPID
  5
12ED
330
8
100
AcDbSymbolTableRecord
100
AcDbRegAppTableRecord
  2
ACAD_DSTYLE_DIMTEXT_FILL
 70
     0
  0
APPID
  5
12EE
330
8
100
AcDbSymbolTableRecord
100
AcDbRegAppTableRecord
  2
ACAD_DSTYLE_DIMEXT_LENGTH
 70
     0
  0
APPID
  5
12EF
330
8
100
AcDbSymbolTableRecord
100
AcDbRegAppTableRecord
  2
ACAD_DSTYLE_DIMEXT_ENABLED
 70
     0
  0
APPID
  5
12F0
330
8
100
AcDbSymbolTableRecord
100
AcDbRegAppTableRecord
  2
ACAD_DSTYLE_DIM_LINETYPE
 70
     0
  0
APPID
  5
12F1
330
8
100
AcDbSymbolTableRecord
100
AcDbRegAppTableRecord
  2
ACAD_DSTYLE_DIM_EXT1_LINETYPE
 70
     0
  0
APPID
  5
12F2
330
8
100
AcDbSymbolTableRecord
100
AcDbRegAppTableRecord
  2
ACAD_DSTYLE_DIM_EXT2_LINETYPE
 70
     0
  0
APPID
  5
13AE
330
8
100
AcDbSymbolTableRecord
100
AcDbRegAppTableRecord
  2
ACAD_DSTYLE_DIMJOGGED_JOGANGLE_SYMBOL
 70
     0
  0
APPID
  5
1832
330
8
100
AcDbSymbolTableRecord
100
AcDbRegAppTableRecord
  2
ACAD_DSTYLE_DIMARC_LENGTH_SYMBOL
 70
     0
  0
ENDTAB
  0
TABLE
  2
DIMSTYLE
  5
9
330
0
100
AcDbSymbolTable
 70
     3
100
AcDbDimStyleTable
 71
     1
340
18
  0
DIMSTYLE
105
18
102
{ACAD_REACTORS
330
123E
330
1240
330
251E
330
25C0
102
}
330
9
100
AcDbSymbolTableRecord
100
AcDbDimStyleTableRecord
  2
Standard
 70
     0
340
17
  0
DIMSTYLE
105
385
330
9
100
AcDbSymbolTableRecord
100
AcDbDimStyleTableRecord
  2
ISO-25
 70
     0
 41
2.5
 42
0.625
 43
3.75
 44
1.25
 73
     0
 74
     0
 77
     1
 78
     8
140
2.5
141
2.5
143
0.03937007874016
147
0.625
171
     3
172
     1
271
     2
272
     2
274
     3
278
    44
283
     0
284
     8
340
17
  0
DIMSTYLE
105
386
330
9
100
AcDbSymbolTableRecord
100
AcDbDimStyleTableRecord
  2
Annotative
 70
     0
 40
0.0
 41
2.5
 42
0.625
 43
3.75
 44
1.25
 73
     0
 74
     0
 77
     1
 78
     8
140
2.5
141
2.5
143
0.03937007874016
147
0.625
171
     3
172
     1
271
     2
272
     2
274
     3
278
    44
283
     0
284
     8
340
17
1001
AcadAnnotative
1000
AnnotativeData
1002
{
1070
     1
1070
     1
1002
}
1001
ACAD_DSTYLE_DIMJAG
1070
   388
1040
1.5
1001
ACAD_DSTYLE_DIMTALN
1070
   392
1070
     0
  0
ENDTAB
  0
TABLE
  2
BLOCK_RECORD
  5
1
330
0
100
AcDbSymbolTable
 70
    10
  0
BLOCK_RECORD
  5
A
102
{ACAD_XDICTIONARY
360
DF
102
}
330
1
100
AcDbSymbolTableRecord
100
AcDbBlockTableRecord
  2
*MODEL_SPACE
340
20
  0
BLOCK_RECORD
  5
B
330
1
100
AcDbSymbolTableRecord
100
AcDbBlockTableRecord
  2
*PAPER_SPACE
340
21
  0
BLOCK_RECORD
  5
1172
330
1
100
AcDbSymbolTableRecord
100
AcDbBlockTableRecord
  2
*D0
340
0
  0
BLOCK_RECORD
  5
117F
330
1
100
AcDbSymbolTableRecord
100
AcDbBlockTableRecord
  2
*D1
340
0
  0
BLOCK_RECORD
  5
1187
330
1
100
AcDbSymbolTableRecord
100
AcDbBlockTableRecord
  2
*D2
340
0
  0
BLOCK_RECORD
  5
1195
102
{ACAD_XDICTIONARY
360
11C3
102
}
330
1
100
AcDbSymbolTableRecord
100
AcDbBlockTableRecord
  2
A$C4E510C91
340
0
1001
ACAD
1000
DesignCenter Data
1002
{
1070
     1
1070
     0
1002
}
  0
BLOCK_RECORD
  5
1203
102
{ACAD_XDICTIONARY
360
1212
102
}
330
1
100
AcDbSymbolTableRecord
100
AcDbBlockTableRecord
  2
A$C2F79653B
340
0
1001
ACAD
1000
DesignCenter Data
1002
{
1070
     1
1070
     0
1002
}
  0
BLOCK_RECORD
  5
1243
330
1
100
AcDbSymbolTableRecord
100
AcDbBlockTableRecord
  2
*D5
340
0
  0
BLOCK_RECORD
  5
1258
330
1
100
AcDbSymbolTableRecord
100
AcDbBlockTableRecord
  2
*D6
340
0
  0
BLOCK_RECORD
  5
12DF
330
1
100
AcDbSymbolTableRecord
100
AcDbBlockTableRecord
  2
_ArchTick
340
0
  0
BLOCK_RECORD
  5
251F
330
1
100
AcDbSymbolTableRecord
100
AcDbBlockTableRecord
  2
*D8
340
0
  0
BLOCK_RECORD
  5
25C1
330
1
100
AcDbSymbolTableRecord
100
AcDbBlockTableRecord
  2
*D9
340
0
  0
ENDTAB
  0
ENDSEC
  0
SECTION
  2
BLOCKS
  0
BLOCK
  5
D
330
A
100
AcDbEntity
  8
0
100
AcDbBlockBegin
  2
*MODEL_SPACE
 70
     0
 10
0.0
 20
0.0
 30
0.0
  3
*MODEL_SPACE
  1

  0
ENDBLK
  5
E
330
A
100
AcDbEntity
  8
0
100
AcDbBlockEnd
  0
BLOCK
  5
F
330
B
100
AcDbEntity
 67
     1
  8
0
100
AcDbBlockBegin
  2
*PAPER_SPACE
 70
     0
 10
0.0
 20
0.0
 30
0.0
  3
*PAPER_SPACE
  1

  0
ENDBLK
  5
10
330
B
100
AcDbEntity
 67
     1
  8
0
100
AcDbBlockEnd
  0
BLOCK
  5
1173
330
1172
100
AcDbEntity
  8
0
370
     0
100
AcDbBlockBegin
  2
*D0
 70
     1
 10
0.0
 20
0.0
 30
0.0
  3
*D0
  1

  0
LINE
  5
1174
330
1172
100
AcDbEntity
  8
0
  6
Continuous
 62
     0
370
     0
100
AcDbLine
 10
3810.40343133509
 20
358.0689181074331
 30
0.0
 11
3810.40343133509
 21
367.0812873696843
 31
0.0
  0
LINE
  5
1175
330
1172
100
AcDbEntity
  8
0
  6
Continuous
 62
     0
370
     0
100
AcDbLine
 10
3819.40343133509
 20
358.068918107433
 30
0.0
 11
3819.40343133509
 21
367.0812873696843
 31
0.0
  0
LINE
  5
1176
330
1172
100
AcDbEntity
  8
0
  6
Continuous
 62
     0
370
     0
100
AcDbLine
 10
3805.40343133509
 20
366.9012873696843
 30
0.0
 11
3800.403431335091
 21
366.9012873696843
 31
0.0
  0
LINE
  5
1177
330
1172
100
AcDbEntity
  8
0
  6
Continuous
 62
     0
370
     0
100
AcDbLine
 10
3824.40343133509
 20
366.9012873696843
 30
0.0
 11
3829.40343133509
 21
366.9012873696843
 31
0.0
  0
SOLID
  5
1178
330
1172
100
AcDbEntity
  8
0
  6
Continuous
 62
     0
370
     0
100
AcDbTrace
 10
3805.40343133509
 20
367.7346207030177
 30
0.0
 11
3805.40343133509
 21
366.0679540363509
 31
0.0
 12
3810.40343133509
 22
366.9012873696843
 32
0.0
 13
3810.40343133509
 23
366.9012873696843
 33
0.0
  0
SOLID
  5
1179
330
1172
100
AcDbEntity
  8
0
  6
Continuous
 62
     0
370
     0
100
AcDbTrace
 10
3824.40343133509
 20
367.7346207030177
 30
0.0
 11
3824.40343133509
 21
366.0679540363509
 31
0.0
 12
3819.40343133509
 22
366.9012873696843
 32
0.0
 13
3819.40343133509
 23
366.9012873696843
 33
0.0
  0
MTEXT
  5
117A
330
1172
100
AcDbEntity
  8
0
  6
Continuous
 62
     0
370
     0
100
AcDbMText
 10
3851.160098001757
 20
366.9012873696843
 30
0.0
 40
10.0
 41
0.0
 71
     5
 72
     1
  1
\A1;9.0000
 73
     1
 44
1.0
  0
POINT
  5
117B
330
1172
100
AcDbEntity
  8
DEFPOINTS
  6
Continuous
 62
     0
370
     0
100
AcDbPoint
 10
3810.40343133509
 20
358.0064181074331
 30
0.0
  0
POINT
  5
117C
330
1172
100
AcDbEntity
  8
DEFPOINTS
  6
Continuous
 62
     0
370
     0
100
AcDbPoint
 10
3819.40343133509
 20
358.006418107433
 30
0.0
  0
POINT
  5
117D
330
1172
100
AcDbEntity
  8
DEFPOINTS
  6
Continuous
 62
     0
370
     0
100
AcDbPoint
 10
3819.40343133509
 20
366.9012873696843
 30
0.0
  0
ENDBLK
  5
117E
330
1172
100
AcDbEntity
  8
0
370
     0
100
AcDbBlockEnd
  0
BLOCK
  5
1180
330
117F
100
AcDbEntity
  8
0
370
     0
100
AcDbBlockBegin
  2
*D1
 70
     1
 10
0.0
 20
0.0
 30
0.0
  3
*D1
  1

  0
LINE
  5
1181
330
117F
100
AcDbEntity
  8
0
  6
Continuous
 62
     0
370
     0
100
AcDbLine
 10
3482.688000892859
 20
358.0064181074343
 30
0.0
 11
3542.688000892859
 21
358.0064181074332
 31
0.0
  0
MTEXT
  5
1182
330
117F
100
AcDbEntity
  8
0
  6
Continuous
 62
     0
370
     0
100
AcDbMText
 10
3469.264667559526
 20
358.0064181074343
 30
0.0
 40
10.0
 41
0.0
 71
     5
 72
     1
  1
\A1;R65
 73
     1
 44
1.0
  0
SOLID
  5
1183
330
117F
100
AcDbEntity
  8
0
  6
Continuous
 62
     0
370
     0
100
AcDbTrace
 10
3542.688000892859
 20
358.8397514407665
 30
0.0
 11
3542.688000892859
 21
357.1730847740999
 31
0.0
 12
3547.688000892859
 22
358.0064181074331
 32
0.0
 13
3547.688000892859
 23
358.0064181074331
 33
0.0
  0
POINT
  5
1184
330
117F
100
AcDbEntity
  8
DEFPOINTS
  6
Continuous
 62
     0
370
     0
100
AcDbPoint
 10
3547.688000892859
 20
358.0064181074331
 30
0.0
  0
POINT
  5
1185
330
117F
100
AcDbEntity
  8
DEFPOINTS
  6
Continuous
 62
     0
370
     0
100
AcDbPoint
 10
3482.68800089286
 20
358.0064181074342
 30
0.0
  0
ENDBLK
  5
1186
330
117F
100
AcDbEntity
  8
0
370
     0
100
AcDbBlockEnd
  0
BLOCK
  5
1188
330
1187
100
AcDbEntity
  8
0
370
     0
100
AcDbBlockBegin
  2
*D2
 70
     1
 10
0.0
 20
0.0
 30
0.0
  3
*D2
  1

  0
LINE
  5
1189
330
1187
100
AcDbEntity
  8
0
  6
Continuous
 62
     0
370
     0
100
AcDbLine
 10
3558.12550089286
 20
420.006418107433
 30
0.0
 11
3527.658141308469
 21
420.006418107433
 31
0.0
  0
LINE
  5
118A
330
1187
100
AcDbEntity
  8
0
  6
Continuous
 62
     0
370
     0
100
AcDbLine
 10
3558.125500892859
 20
430.0064181074331
 30
0.0
 11
3527.658141308469
 21
430.0064181074331
 31
0.0
  0
LINE
  5
118B
330
1187
100
AcDbEntity
  8
0
  6
Continuous
 62
     0
370
     0
100
AcDbLine
 10
3527.838141308468
 20
422.0064181074331
 30
0.0
 11
3527.838141308468
 21
428.006418107433
 31
0.0
  0
LINE
  5
118C
330
1187
100
AcDbEntity
  8
0
  6
Continuous
 62
     0
370
     0
100
AcDbLine
 10
3527.838141308468
 20
430.0064181074331
 30
0.0
 11
3527.838141308468
 21
464.1929906149126
 31
0.0
  0
LINE
  5
118D
330
1187
100
AcDbEntity
  8
0
  6
Continuous
 62
     0
370
     0
100
AcDbLine
 10
3527.838141308468
 20
464.1929906149126
 30
0.0
 11
3529.83814130847
 21
464.1929906149126
 31
0.0
  0
SOLID
  5
118E
330
1187
100
AcDbEntity
  8
0
  6
Continuous
 62
     0
370
     0
100
AcDbTrace
 10
3527.504807975134
 20
422.0064181074331
 30
0.0
 11
3528.171474641802
 21
422.0064181074331
 31
0.0
 12
3527.838141308468
 22
420.006418107433
 32
0.0
 13
3527.838141308468
 23
420.006418107433
 33
0.0
  0
SOLID
  5
118F
330
1187
100
AcDbEntity
  8
0
  6
Continuous
 62
     0
370
     0
100
AcDbTrace
 10
3527.504807975134
 20
428.006418107433
 30
0.0
 11
3528.171474641802
 21
428.006418107433
 31
0.0
 12
3527.838141308468
 22
430.0064181074331
 32
0.0
 13
3527.838141308468
 23
430.0064181074331
 33
0.0
  0
MTEXT
  5
1190
330
1187
100
AcDbEntity
  8
0
  6
Continuous
 62
     0
370
     0
100
AcDbMText
 10
3548.261474641801
 20
464.1929906149131
 30
0.0
 40
10.0
 41
0.0
 71
     5
 72
     1
  1
\A1;10*10
 73
     1
 44
1.0
  0
POINT
  5
1191
330
1187
100
AcDbEntity
  8
DEFPOINTS
  6
Continuous
 62
     0
370
     0
100
AcDbPoint
 10
3558.188000892859
 20
420.006418107433
 30
0.0
  0
POINT
  5
1192
330
1187
100
AcDbEntity
  8
DEFPOINTS
  6
Continuous
 62
     0
370
     0
100
AcDbPoint
 10
3558.188000892859
 20
430.0064181074331
 30
0.0
  0
POINT
  5
1193
330
1187
100
AcDbEntity
  8
DEFPOINTS
  6
Continuous
 62
     0
370
     0
100
AcDbPoint
 10
3527.838141308468
 20
430.0064181074331
 30
0.0
  0
ENDBLK
  5
1194
330
1187
100
AcDbEntity
  8
0
370
     0
100
AcDbBlockEnd
  0
BLOCK
  5
11C5
330
1195
100
AcDbEntity
  8
0
370
     0
100
AcDbBlockBegin
  2
A$C4E510C91
 70
     0
 10
0.0
 20
0.0
 30
0.0
  3
A$C4E510C91
  1

  0
LINE
  5
1196
330
1195
100
AcDbEntity
  8
0
  6
Continuous
 62
     3
370
     0
100
AcDbLine
 10
32.72309472217376
 20
293.0157171111193
 30
0.0
 11
221.7230947221738
 21
293.0157171111194
 31
0.0
  0
LINE
  5
1197
330
1195
100
AcDbEntity
  8
0
  6
Continuous
 62
     3
370
     0
100
AcDbLine
 10
41.72309472217375
 20
284.0157171111193
 30
0.0
 11
51.72309472217375
 21
284.0157171111193
 31
0.0
  0
LINE
  5
1198
330
1195
100
AcDbEntity
  8
0
  6
Continuous
 62
     3
370
     0
100
AcDbLine
 10
202.7230947221738
 20
284.0157171111193
 30
0.0
 11
212.7230947221737
 21
284.0157171111193
 31
0.0
  0
LINE
  5
1199
330
1195
100
AcDbEntity
  8
0
  6
Continuous
 62
     3
370
     0
100
AcDbLine
 10
41.72309472217375
 20
274.0157171111191
 30
0.0
 11
51.72309472217375
 21
274.0157171111193
 31
0.0
  0
LINE
  5
119A
330
1195
100
AcDbEntity
  8
0
  6
Continuous
 62
     3
370
     0
100
AcDbLine
 10
202.7230947221738
 20
274.0157171111193
 30
0.0
 11
212.7230947221737
 21
274.0157171111191
 31
0.0
  0
LINE
  5
119B
330
1195
100
AcDbEntity
  8
0
  6
Continuous
 62
     3
370
     0
100
AcDbLine
 10
221.7230947221738
 20
293.0157171111193
 30
0.0
 11
221.7230947221738
 21
131.0157171111193
 31
0.0
  0
LINE
  5
119C
330
1195
100
AcDbEntity
  8
0
  6
Continuous
 62
     3
370
     0
100
AcDbLine
 10
212.7230947221737
 20
284.0157171111193
 30
0.0
 11
212.7230947221751
 21
274.0157171111193
 31
0.0
  0
LINE
  5
119D
330
1195
100
AcDbEntity
  8
0
  6
Continuous
 62
     3
370
     0
100
AcDbLine
 10
212.7230947221751
 20
150.0157171111194
 30
0.0
 11
212.7230947221751
 21
140.0157171111194
 31
0.0
  0
LINE
  5
119E
330
1195
100
AcDbEntity
  8
0
  6
Continuous
 62
     3
370
     0
100
AcDbLine
 10
202.7230947221738
 20
284.0157171111193
 30
0.0
 11
202.7230947221738
 21
274.0157171111193
 31
0.0
  0
LINE
  5
119F
330
1195
100
AcDbEntity
  8
0
  6
Continuous
 62
     3
370
     0
100
AcDbLine
 10
202.7230947221738
 20
150.0157171111194
 30
0.0
 11
202.7230947221738
 21
140.0157171111194
 31
0.0
  0
LINE
  5
11A0
330
1195
100
AcDbEntity
  8
0
  6
Continuous
 62
     3
370
     0
100
AcDbLine
 10
221.7230947221738
 20
131.0157171111193
 30
0.0
 11
32.72309472217376
 21
131.0157171111193
 31
0.0
  0
LINE
  5
11A1
330
1195
100
AcDbEntity
  8
0
  6
Continuous
 62
     3
370
     0
100
AcDbLine
 10
212.7230947221751
 20
140.0157171111194
 30
0.0
 11
202.7230947221738
 21
140.0157171111194
 31
0.0
  0
LINE
  5
11A2
330
1195
100
AcDbEntity
  8
0
  6
Continuous
 62
     3
370
     0
100
AcDbLine
 10
51.72309472217375
 20
140.0157171111194
 30
0.0
 11
41.72309472217375
 21
140.0157171111194
 31
0.0
  0
LINE
  5
11A3
330
1195
100
AcDbEntity
  8
0
  6
Continuous
 62
     3
370
     0
100
AcDbLine
 10
212.7230947221751
 20
150.0157171111194
 30
0.0
 11
202.7230947221738
 21
150.0157171111194
 31
0.0
  0
LINE
  5
11A4
330
1195
100
AcDbEntity
  8
0
  6
Continuous
 62
     3
370
     0
100
AcDbLine
 10
51.72309472217375
 20
150.0157171111194
 30
0.0
 11
41.72309472217375
 21
150.0157171111194
 31
0.0
  0
LINE
  5
11A5
330
1195
100
AcDbEntity
  8
0
  6
Continuous
 62
     3
370
     0
100
AcDbLine
 10
32.72309472217376
 20
131.0157171111193
 30
0.0
 11
32.72309472217376
 21
293.0157171111193
 31
0.0
  0
LINE
  5
11A6
330
1195
100
AcDbEntity
  8
0
  6
Continuous
 62
     3
370
     0
100
AcDbLine
 10
41.72309472217375
 20
140.0157171111194
 30
0.0
 11
41.72309472217375
 21
150.0157171111194
 31
0.0
  0
LINE
  5
11A7
330
1195
100
AcDbEntity
  8
0
  6
Continuous
 62
     3
370
     0
100
AcDbLine
 10
41.72309472217375
 20
274.0157171111191
 30
0.0
 11
41.72309472217375
 21
284.0157171111193
 31
0.0
  0
LINE
  5
11A8
330
1195
100
AcDbEntity
  8
0
  6
Continuous
 62
     3
370
     0
100
AcDbLine
 10
51.7230947221733
 20
140.0157171111194
 30
0.0
 11
51.72309472217375
 21
150.0157171111194
 31
0.0
  0
LINE
  5
11A9
330
1195
100
AcDbEntity
  8
0
  6
Continuous
 62
     3
370
     0
100
AcDbLine
 10
51.7230947221733
 20
274.0157171111191
 30
0.0
 11
51.7230947221733
 21
284.0157171111193
 31
0.0
  0
CIRCLE
  5
11AA
330
1195
100
AcDbEntity
  8
0
  6
Continuous
 62
     3
370
     0
100
AcDbCircle
 10
127.2230947221737
 20
212.0157171111193
 30
0.0
 40
65.0
  0
MTEXT
  5
11AB
330
1195
100
AcDbEntity
  8
0
  6
Continuous
370
     0
100
AcDbMText
 10
21.60521426342985
 20
114.3736463664288
 30
0.0
 40
15.0
 41
228.3165831294991
 71
     1
 72
     5
  1
{\fSimSun|b0|i0|c134|p2;A³ß´ç£º\fArial|b1|i0|c0|p34;189*162*10mm}
 73
     1
 44
1.0
  0
LINE
  5
11AC
330
1195
100
AcDbEntity
  8
0
  6
Continuous
 62
     3
370
     0
100
AcDbLine
 10
279.9385251644048
 20
293.0157171111193
 30
0.0
 11
458.9385251644048
 21
293.0157171111193
 31
0.0
  0
LINE
  5
11AD
330
1195
100
AcDbEntity
  8
0
  6
Continuous
 62
     3
370
     0
100
AcDbLine
 10
288.9385251644048
 20
284.0157171111193
 30
0.0
 11
449.9385251644048
 21
284.0157171111193
 31
0.0
  0
LINE
  5
11AE
330
1195
100
AcDbEntity
  8
0
  6
Continuous
 62
     3
370
     0
100
AcDbLine
 10
463.9385251644048
 20
288.0157171111193
 30
0.0
 11
463.9385251644048
 21
136.0157171111194
 31
0.0
  0
ARC
  5
11AF
330
1195
100
AcDbEntity
  8
0
  6
Continuous
 62
     3
370
     0
100
AcDbCircle
 10
458.9385251644048
 20
288.0157171111193
 30
0.0
 40
5.0
100
AcDbArc
 50
0.0
 51
90.0
  0
LINE
  5
11B0
330
1195
100
AcDbEntity
  8
0
  6
Continuous
 62
     3
370
     0
100
AcDbLine
 10
454.9385251644048
 20
279.0157171111193
 30
0.0
 11
454.9385251644057
 21
145.0157171111194
 31
0.0
  0
ARC
  5
11B1
330
1195
100
AcDbEntity
  8
0
  6
Continuous
 62
     3
370
     0
100
AcDbCircle
 10
449.9385251644048
 20
279.0157171111193
 30
0.0
 40
5.0
100
AcDbArc
 50
0.0
 51
90.0
  0
LINE
  5
11B2
330
1195
100
AcDbEntity
  8
0
  6
Continuous
 62
     3
370
     0
100
AcDbLine
 10
458.9385251644038
 20
131.0157171111193
 30
0.0
 11
279.9385251644039
 21
131.0157171111193
 31
0.0
  0
ARC
  5
11B3
330
1195
100
AcDbEntity
  8
0
  6
Continuous
 62
     3
370
     0
100
AcDbCircle
 10
458.9385251644038
 20
136.0157171111194
 30
0.0
 40
5.0
100
AcDbArc
 50
270.0
 51
0.0
  0
LINE
  5
11B4
330
1195
100
AcDbEntity
  8
0
  6
Continuous
 62
     3
370
     0
100
AcDbLine
 10
449.9385251644057
 20
140.0157171111194
 30
0.0
 11
288.9385251644048
 21
140.0157171111194
 31
0.0
  0
ARC
  5
11B5
330
1195
100
AcDbEntity
  8
0
  6
Continuous
 62
     3
370
     0
100
AcDbCircle
 10
449.9385251644057
 20
145.0157171111194
 30
0.0
 40
5.0
100
AcDbArc
 50
270.0
 51
0.0
  0
ARC
  5
11B6
330
1195
100
AcDbEntity
  8
0
  6
Continuous
 62
     3
370
     0
100
AcDbCircle
 10
288.9385251644048
 20
145.0157171111194
 30
0.0
 40
5.0
100
AcDbArc
 50
180.0
 51
270.0
  0
LINE
  5
11B7
330
1195
100
AcDbEntity
  8
0
  6
Continuous
 62
     3
370
     0
100
AcDbLine
 10
274.9385251644039
 20
136.0157171111194
 30
0.0
 11
274.9385251644048
 21
288.0157171111193
 31
0.0
  0
ARC
  5
11B8
330
1195
100
AcDbEntity
  8
0
  6
Continuous
 62
     3
370
     0
100
AcDbCircle
 10
279.9385251644039
 20
136.0157171111194
 30
0.0
 40
5.0
100
AcDbArc
 50
180.0
 51
270.0
  0
ARC
  5
11B9
330
1195
100
AcDbEntity
  8
0
  6
Continuous
 62
     3
370
     0
100
AcDbCircle
 10
279.9385251644048
 20
288.0157171111193
 30
0.0
 40
5.0
100
AcDbArc
 50
90.0
 51
180.0
  0
LINE
  5
11BA
330
1195
100
AcDbEntity
  8
0
  6
Continuous
 62
     3
370
     0
100
AcDbLine
 10
283.9385251644048
 20
145.0157171111194
 30
0.0
 11
283.9385251644048
 21
279.0157171111193
 31
0.0
  0
ARC
  5
11BB
330
1195
100
AcDbEntity
  8
0
  6
Continuous
 62
     3
370
     0
100
AcDbCircle
 10
288.9385251644048
 20
279.0157171111193
 30
0.0
 40
5.0
100
AcDbArc
 50
90.0
 51
180.0
  0
MTEXT
  5
11BC
330
1195
100
AcDbEntity
  8
0
  6
Continuous
370
     0
100
AcDbMText
 10
271.3885442862929
 20
114.3736463664288
 30
0.0
 40
15.0
 41
228.3165831294991
 71
     1
 72
     5
  1
{\fSimSun|b0|i0|c134|p2;B³ß´ç£º\fArial|b1|i0|c0|p34;189*162*45mm}
 73
     1
 44
1.0
  0
MTEXT
  5
11BD
330
1195
100
AcDbEntity
  8
0
  6
Continuous
370
     0
100
AcDbMText
 10
145.7727598455776
 20
62.58456932892542
 30
0.0
 40
15.0
 41
228.3165831294991
 71
     1
 72
     5
  1
{\fSimSun|b0|i0|c134|p2;ABÕ³ºÏ³ß´ç£º\fArial|b1|i0|c0|p34;189*162*55mm}
 73
     1
 44
1.0
  0
DIMENSION
  5
11BE
330
1195
100
AcDbEntity
  8
0
  6
Continuous
370
     0
100
AcDbDimension
  2
*D0
 10
463.9385251644048
 20
220.9105863733705
 30
0.0
 11
495.695191831072
 21
220.9105863733705
 31
0.0
 12
-3355.464906170686
 22
-145.9907009963137
 32
0.0
 71
     5
 42
8.999999999999545
  3
Standard
100
AcDbAlignedDimension
 13
454.9385251644048
 23
212.0157171111193
 33
0.0
 14
463.9385251644048
 24
212.0157171111193
 34
0.0
100
AcDbRotatedDimension
1001
ACAD
1000
DSTYLE
1002
{
1070
    41
1040
5.0
1070
   140
1040
10.0
1070
   278
1070
     0
1070
   371
1070
     0
1070
   372
1070
     0
1002
}
  0
DIMENSION
  5
11BF
330
1195
100
AcDbEntity
  8
0
  6
Continuous
370
     0
100
AcDbDimension
  2
*D1
 10
127.2230947221751
 20
212.0157171111204
 30
0.0
 11
127.2230947221737
 21
212.0157171111205
 31
0.0
 12
-3355.464906170686
 22
-145.9907009963137
 32
0.0
 70
   132
  1
R65
 71
     5
 42
64.99999999999864
  3
Standard
100
AcDbRadialDimension
 15
192.2230947221737
 25
212.0157171111193
 35
0.0
 40
0.0
1001
ACAD_DSTYLE_DIMRADIAL_EXTENSION
1070
   387
1070
     1
1070
   388
1040
0.0
1070
   390
1040
0.0
1001
ACAD
1000
DSTYLE
1002
{
1070
    41
1040
5.0
1070
   140
1040
10.0
1070
   278
1070
     0
1070
   371
1070
     0
1070
   372
1070
     0
1002
}
  0
DIMENSION
  5
11C0
330
1195
100
AcDbEntity
  8
0
  6
Continuous
370
     0
100
AcDbDimension
  2
*D2
 10
172.373235137783
 20
284.0157171111193
 30
0.0
 11
192.7965684711162
 21
318.2022896185994
 31
0.0
 12
-3355.464906170686
 22
-145.9907009963137
 32
0.0
 70
   128
  1
10*10
 71
     5
 42
10.0
  3
Standard
100
AcDbAlignedDimension
 13
202.7230947221738
 23
274.0157171111193
 33
0.0
 14
202.7230947221738
 24
284.0157171111193
 34
0.0
 50
90.0
100
AcDbRotatedDimension
1001
ACAD
1000
DSTYLE
1002
{
1070
    41
1040
2.0
1070
   140
1040
10.0
1070
   278
1070
     0
1070
   371
1070
     0
1070
   372
1070
     0
1002
}
  0
MTEXT
  5
11C1
330
1195
100
AcDbEntity
  8
0
  6
Continuous
370
     0
100
AcDbMText
 10
220.350243788886
 20
325.240615905819
 30
0.0
 40
10.0
 41
228.3165831294991
 71
     1
 72
     5
  1
{\fSimSun|b0|i0|c134|p2;´Ë4´¦È·ÇÐÎ»ÖÃ´ýÈ·¶¨}
 73
     1
 44
1.0
  0
LWPOLYLINE
  5
11C2
330
1195
100
AcDbEntity
  8
0
  6
Continuous
370
     0
100
AcDbPolyline
 90
        4
 70
     1
 43
0.0
 10
-0.000000650498805
 20
335.1289989668691
 10
526.4263717041399
 20
335.1289989668691
 10
526.4263717041399
 20
0.0000002340600531
 10
-0.000000650498805
 20
0.0000002340600531
  0
ENDBLK
  5
11C6
330
1195
100
AcDbEntity
  8
0
370
     0
100
AcDbBlockEnd
  0
BLOCK
  5
1214
330
1203
100
AcDbEntity
  8
0
370
     0
100
AcDbBlockBegin
  2
A$C2F79653B
 70
     0
 10
0.0
 20
0.0
 30
0.0
  3
A$C2F79653B
  1

  0
LINE
  5
1204
330
1203
100
AcDbEntity
  8
CREASE
  6
Continuous
 62
     0
370
    35
100
AcDbLine
 10
20.90917733189508
 20
239.4701208812388
 30
0.0
 11
181.409177331896
 21
239.4701208812388
 31
0.0
  0
LINE
  5
1205
330
1203
100
AcDbEntity
  8
CREASE
  6
\U+00D2\U+00FE\U+00B2\U+00D8\U+00CF\U+00DF
 62
     3
370
    35
100
AcDbLine
 10
20.90917733189508
 20
185.9701208812388
 30
0.0
 11
181.409177331896
 21
185.9701208812388
 31
0.0
  0
LINE
  5
1206
330
1203
100
AcDbEntity
  8
CREASE
  6
\U+00D2\U+00FE\U+00B2\U+00D8\U+00CF\U+00DF
 62
     3
370
    35
100
AcDbLine
 10
20.90917733189508
 20
132.4701208812388
 30
0.0
 11
181.409177331896
 21
132.4701208812388
 31
0.0
  0
LINE
  5
1207
330
1203
100
AcDbEntity
  8
CREASE
  6
Continuous
 62
     0
370
    35
100
AcDbLine
 10
181.409177331896
 20
239.4701208812388
 30
0.0
 11
181.409177331896
 21
185.9701208812388
 31
0.0
  0
LINE
  5
1208
330
1203
100
AcDbEntity
  8
CREASE
  6
Continuous
 62
     0
370
    35
100
AcDbLine
 10
181.409177331896
 20
185.9701208812388
 30
0.0
 11
181.409177331896
 21
132.4701208812388
 31
0.0
  0
LINE
  5
1209
330
1203
100
AcDbEntity
  8
CREASE
  6
Continuous
 62
     0
370
    35
100
AcDbLine
 10
181.409177331896
 20
132.4701208812388
 30
0.0
 11
181.409177331896
 21
79.47012088123878
 31
0.0
  0
LINE
  5
120A
330
1203
100
AcDbEntity
  8
CREASE
  6
Continuous
 62
     0
370
    35
100
AcDbLine
 10
20.90917733189508
 20
239.4701208812388
 30
0.0
 11
20.90917733189508
 21
185.9701208812388
 31
0.0
  0
LINE
  5
120B
330
1203
100
AcDbEntity
  8
CREASE
  6
Continuous
 62
     0
370
    35
100
AcDbLine
 10
20.90917733189508
 20
185.9701208812388
 30
0.0
 11
20.90917733189508
 21
132.4701208812388
 31
0.0
  0
LINE
  5
120C
330
1203
100
AcDbEntity
  8
CREASE
  6
Continuous
 62
     0
370
    35
100
AcDbLine
 10
20.90917733189508
 20
132.4701208812388
 30
0.0
 11
20.90917733189508
 21
79.47012088123878
 31
0.0
  0
LINE
  5
120D
330
1203
100
AcDbEntity
  8
CUT
  6
Continuous
 62
     7
370
    35
100
AcDbLine
 10
20.90917733189508
 20
78.97012088123879
 30
0.0
 11
181.409177331896
 21
78.97012088123879
 31
0.0
  0
LINE
  5
120E
330
1203
100
AcDbEntity
  8
CUT
  6
Continuous
 62
     7
370
    35
100
AcDbLine
 10
20.90917733189508
 20
78.97012088123879
 30
0.0
 11
20.90917733189508
 21
79.47012088123878
 31
0.0
  0
LINE
  5
120F
330
1203
100
AcDbEntity
  8
CUT
  6
Continuous
 62
     7
370
    35
100
AcDbLine
 10
181.409177331896
 20
78.97012088123879
 30
0.0
 11
181.409177331896
 21
79.47012088123878
 31
0.0
  0
MTEXT
  5
1210
330
1203
100
AcDbEntity
  8
0
  6
Continuous
370
     0
100
AcDbMText
 10
18.91996219030079
 20
42.4891148375705
 30
0.0
 40
15.0
 41
340.0094037259342
 71
     1
 72
     5
  1
\A1;E flute(175GA/110G/145GB)
 73
     1
 44
1.0
  0
LWPOLYLINE
  5
1211
330
1203
100
AcDbEntity
  8
0
  6
Continuous
370
     0
100
AcDbPolyline
 90
        4
 70
     1
 43
0.0
 10
-0.0000004401617844
 20
257.4977275336883
 10
367.5210282193257
 20
257.4977275336883
 10
367.5210282193257
 20
0.0000004461834919
 10
-0.0000004401617844
 20
0.0000004461834919
  0
ENDBLK
  5
1215
330
1203
100
AcDbEntity
  8
0
370
     0
100
AcDbBlockEnd
  0
BLOCK
  5
124E
330
1243
100
AcDbEntity
  8
0
370
     0
100
AcDbBlockBegin
  2
*D5
 70
     1
 10
0.0
 20
0.0
 30
0.0
  3
*D5
  1

  0
LINE
  5
2679
330
1243
100
AcDbEntity
  8
0
  6
Continuous
 62
     0
370
     0
100
AcDbLine
 10
4543.187209893238
 20
1308.469514058662
 30
0.0
 11
4543.187209893238
 21
1317.481883320913
 31
0.0
  0
LINE
  5
267A
330
1243
100
AcDbEntity
  8
0
  6
Continuous
 62
     0
370
     0
100
AcDbLine
 10
4552.187209893238
 20
1308.469514058662
 30
0.0
 11
4552.187209893238
 21
1317.481883320913
 31
0.0
  0
LINE
  5
267B
330
1243
100
AcDbEntity
  8
0
  6
Continuous
 62
     0
370
     0
100
AcDbLine
 10
4538.187209893238
 20
1317.301883320913
 30
0.0
 11
4533.187209893237
 21
1317.301883320913
 31
0.0
  0
LINE
  5
267C
330
1243
100
AcDbEntity
  8
0
  6
Continuous
 62
     0
370
     0
100
AcDbLine
 10
4557.187209893238
 20
1317.301883320913
 30
0.0
 11
4562.187209893237
 21
1317.301883320913
 31
0.0
  0
SOLID
  5
267D
330
1243
100
AcDbEntity
  8
0
  6
Continuous
 62
     0
370
     0
100
AcDbTrace
 10
4538.187209893238
 20
1318.135216654246
 30
0.0
 11
4538.187209893238
 21
1316.46854998758
 31
0.0
 12
4543.187209893238
 22
1317.301883320913
 32
0.0
 13
4543.187209893238
 23
1317.301883320913
 33
0.0
  0
SOLID
  5
267E
330
1243
100
AcDbEntity
  8
0
  6
Continuous
 62
     0
370
     0
100
AcDbTrace
 10
4557.187209893238
 20
1318.135216654246
 30
0.0
 11
4557.187209893238
 21
1316.46854998758
 31
0.0
 12
4552.187209893238
 22
1317.301883320913
 32
0.0
 13
4552.187209893238
 23
1317.301883320913
 33
0.0
  0
MTEXT
  5
267F
330
1243
100
AcDbEntity
  8
0
  6
Continuous
 62
     0
370
     0
100
AcDbMText
 10
4584.063650571205
 20
1317.301883320913
 30
0.0
 40
10.0
 41
0.0
 71
     5
 72
     1
  1
\A1;9.0000
 73
     1
 44
1.0
  0
POINT
  5
2680
330
1243
100
AcDbEntity
  8
DEFPOINTS
  6
Continuous
 62
     0
370
     0
100
AcDbPoint
 10
4543.187209893238
 20
1308.407014058662
 30
0.0
  0
POINT
  5
2681
330
1243
100
AcDbEntity
  8
DEFPOINTS
  6
Continuous
 62
     0
370
     0
100
AcDbPoint
 10
4552.187209893238
 20
1308.407014058662
 30
0.0
  0
POINT
  5
2682
330
1243
100
AcDbEntity
  8
DEFPOINTS
  6
Continuous
 62
     0
370
     0
100
AcDbPoint
 10
4552.187209893238
 20
1317.301883320913
 30
0.0
  0
ENDBLK
  5
124F
330
1243
100
AcDbEntity
  8
0
370
     0
100
AcDbBlockEnd
  0
BLOCK
  5
1264
330
1258
100
AcDbEntity
  8
0
370
     0
100
AcDbBlockBegin
  2
*D6
 70
     1
 10
0.0
 20
0.0
 30
0.0
  3
*D6
  1

  0
LINE
  5
2683
330
1258
100
AcDbEntity
  8
0
  6
Continuous
 62
     0
370
     0
100
AcDbLine
 10
4255.882714915521
 20
1345.407014058662
 30
0.0
 11
4246.969027647513
 21
1345.407014058662
 31
0.0
  0
LINE
  5
2684
330
1258
100
AcDbEntity
  8
0
  6
Continuous
 62
     0
370
     0
100
AcDbLine
 10
4255.882714915521
 20
1365.407014058662
 30
0.0
 11
4246.969027647513
 21
1365.407014058662
 31
0.0
  0
LINE
  5
2685
330
1258
100
AcDbEntity
  8
0
  6
Continuous
 62
     0
370
     0
100
AcDbLine
 10
4247.149027647513
 20
1347.407014058662
 30
0.0
 11
4247.149027647513
 21
1363.407014058662
 31
0.0
  0
LINE
  5
2686
330
1258
100
AcDbEntity
  8
0
  6
Continuous
 62
     0
370
     0
100
AcDbLine
 10
4247.149027647513
 20
1365.407014058662
 30
0.0
 11
4247.149027647513
 21
1414.593586566141
 31
0.0
  0
LINE
  5
2687
330
1258
100
AcDbEntity
  8
0
  6
Continuous
 62
     0
370
     0
100
AcDbLine
 10
4247.149027647513
 20
1414.593586566141
 30
0.0
 11
4249.149027647513
 21
1414.593586566141
 31
0.0
  0
SOLID
  5
2688
330
1258
100
AcDbEntity
  8
0
  6
Continuous
 62
     0
370
     0
100
AcDbTrace
 10
4246.815694314181
 20
1347.407014058662
 30
0.0
 11
4247.482360980846
 21
1347.407014058662
 31
0.0
 12
4247.149027647513
 22
1345.407014058662
 32
0.0
 13
4247.149027647513
 23
1345.407014058662
 33
0.0
  0
SOLID
  5
2689
330
1258
100
AcDbEntity
  8
0
  6
Continuous
 62
     0
370
     0
100
AcDbTrace
 10
4246.815694314181
 20
1363.407014058662
 30
0.0
 11
4247.482360980846
 21
1363.407014058662
 31
0.0
 12
4247.149027647513
 22
1365.407014058662
 32
0.0
 13
4247.149027647513
 23
1365.407014058662
 33
0.0
  0
MTEXT
  5
268A
330
1258
100
AcDbEntity
  8
0
  6
Continuous
 62
     0
370
     0
100
AcDbMText
 10
4271.018688664462
 20
1414.593586566142
 30
0.0
 40
10.0
 41
0.0
 71
     5
 72
     1
  1
\A1;20*20
 73
     1
 44
1.0
  0
POINT
  5
268B
330
1258
100
AcDbEntity
  8
DEFPOINTS
  6
Continuous
 62
     0
370
     0
100
AcDbPoint
 10
4255.94521491552
 20
1345.407014058662
 30
0.0
  0
POINT
  5
268C
330
1258
100
AcDbEntity
  8
DEFPOINTS
  6
Continuous
 62
     0
370
     0
100
AcDbPoint
 10
4255.94521491552
 20
1365.407014058662
 30
0.0
  0
POINT
  5
268D
330
1258
100
AcDbEntity
  8
DEFPOINTS
  6
Continuous
 62
     0
370
     0
100
AcDbPoint
 10
4247.149027647513
 20
1365.407014058662
 30
0.0
  0
ENDBLK
  5
1265
330
1258
100
AcDbEntity
  8
0
370
     0
100
AcDbBlockEnd
  0
BLOCK
  5
12E1
330
12DF
100
AcDbEntity
  8
0
370
     0
100
AcDbBlockBegin
  2
_ArchTick
 70
     0
 10
0.0
 20
0.0
 30
0.0
  3
_ArchTick
  1

  0
LWPOLYLINE
  5
12E0
330
12DF
100
AcDbEntity
  8
0
  6
ByBlock
 62
     0
370
     0
100
AcDbPolyline
 90
        2
 70
     0
 43
0.15
 10
-0.5
 20
-0.5
 10
0.5
 20
0.5
  0
ENDBLK
  5
12E2
330
12DF
100
AcDbEntity
  8
0
370
     0
100
AcDbBlockEnd
  0
BLOCK
  5
252B
330
251F
100
AcDbEntity
  8
0
370
     0
100
AcDbBlockBegin
  2
*D8
 70
     1
 10
0.0
 20
0.0
 30
0.0
  3
*D8
  1

  0
LINE
  5
268E
330
251F
100
AcDbEntity
  8
0
  6
Continuous
 62
     0
370
     0
100
AcDbLine
 10
4169.847022684932
 20
1365.407014058662
 30
0.0
 11
4185.067236132963
 21
1365.407014058662
 31
0.0
  0
LINE
  5
268F
330
251F
100
AcDbEntity
  8
0
  6
Continuous
 62
     0
370
     0
100
AcDbLine
 10
4171.216852924606
 20
1389.407014058662
 30
0.0
 11
4185.067236132963
 21
1389.407014058662
 31
0.0
  0
LINE
  5
2690
330
251F
100
AcDbEntity
  8
0
  6
Continuous
 62
     0
370
     0
100
AcDbLine
 10
4184.887236132963
 20
1367.407014058662
 30
0.0
 11
4184.887236132963
 21
1387.407014058662
 31
0.0
  0
LINE
  5
2691
330
251F
100
AcDbEntity
  8
0
  6
Continuous
 62
     0
370
     0
100
AcDbLine
 10
4184.887236132963
 20
1389.407014058662
 30
0.0
 11
4184.887236132963
 21
1414.593586566141
 31
0.0
  0
LINE
  5
2692
330
251F
100
AcDbEntity
  8
0
  6
Continuous
 62
     0
370
     0
100
AcDbLine
 10
4184.887236132963
 20
1414.593586566141
 30
0.0
 11
4186.887236132963
 21
1414.593586566141
 31
0.0
  0
SOLID
  5
2693
330
251F
100
AcDbEntity
  8
0
  6
Continuous
 62
     0
370
     0
100
AcDbTrace
 10
4184.55390279963
 20
1367.407014058662
 30
0.0
 11
4185.220569466296
 21
1367.407014058662
 31
0.0
 12
4184.887236132963
 22
1365.407014058662
 32
0.0
 13
4184.887236132963
 23
1365.407014058662
 33
0.0
  0
SOLID
  5
2694
330
251F
100
AcDbEntity
  8
0
  6
Continuous
 62
     0
370
     0
100
AcDbTrace
 10
4184.55390279963
 20
1387.407014058662
 30
0.0
 11
4185.220569466296
 21
1387.407014058662
 31
0.0
 12
4184.887236132963
 22
1389.407014058662
 32
0.0
 13
4184.887236132963
 23
1389.407014058662
 33
0.0
  0
MTEXT
  5
2695
330
251F
100
AcDbEntity
  8
0
  6
Continuous
 62
     0
370
     0
100
AcDbMText
 10
4195.363676810929
 20
1414.593586566142
 30
0.0
 40
10.0
 41
0.0
 71
     5
 72
     1
  1
\A1;24
 73
     1
 44
1.0
  0
POINT
  5
2696
330
251F
100
AcDbEntity
  8
DEFPOINTS
  6
Continuous
 62
     0
370
     0
100
AcDbPoint
 10
4169.784522684933
 20
1365.407014058662
 30
0.0
  0
POINT
  5
2697
330
251F
100
AcDbEntity
  8
DEFPOINTS
  6
Continuous
 62
     0
370
     0
100
AcDbPoint
 10
4171.154352924606
 20
1389.407014058662
 30
0.0
  0
POINT
  5
2698
330
251F
100
AcDbEntity
  8
DEFPOINTS
  6
Continuous
 62
     0
370
     0
100
AcDbPoint
 10
4184.887236132963
 20
1389.407014058662
 30
0.0
  0
ENDBLK
  5
252C
330
251F
100
AcDbEntity
  8
0
370
     0
100
AcDbBlockEnd
  0
BLOCK
  5
25CC
330
25C1
100
AcDbEntity
  8
0
370
     0
100
AcDbBlockBegin
  2
*D9
 70
     1
 10
0.0
 20
0.0
 30
0.0
  3
*D9
  1

  0
LINE
  5
2699
330
25C1
100
AcDbEntity
  8
0
  6
Continuous
 62
     0
370
     0
100
AcDbLine
 10
4144.971779451007
 20
1396.364536338425
 30
0.0
 11
4144.971779451007
 21
1407.956186319687
 31
0.0
  0
LINE
  5
269A
330
25C1
100
AcDbEntity
  8
0
  6
Continuous
 62
     0
370
     0
100
AcDbLine
 10
4120.971779451006
 20
1396.364536338425
 30
0.0
 11
4120.971779451006
 21
1407.956186319687
 31
0.0
  0
LINE
  5
269B
330
25C1
100
AcDbEntity
  8
0
  6
Continuous
 62
     0
370
     0
100
AcDbLine
 10
4142.971779451007
 20
1407.776186319687
 30
0.0
 11
4141.448220128973
 21
1407.776186319687
 31
0.0
  0
LINE
  5
269C
330
25C1
100
AcDbEntity
  8
0
  6
Continuous
 62
     0
370
     0
100
AcDbLine
 10
4122.971779451007
 20
1407.776186319687
 30
0.0
 11
4124.495338773041
 21
1407.776186319687
 31
0.0
  0
SOLID
  5
269D
330
25C1
100
AcDbEntity
  8
0
  6
Continuous
 62
     0
370
     0
100
AcDbTrace
 10
4142.971779451007
 20
1408.10951965302
 30
0.0
 11
4142.971779451007
 21
1407.442852986354
 31
0.0
 12
4144.971779451007
 22
1407.776186319687
 32
0.0
 13
4144.971779451007
 23
1407.776186319687
 33
0.0
  0
SOLID
  5
269E
330
25C1
100
AcDbEntity
  8
0
  6
Continuous
 62
     0
370
     0
100
AcDbTrace
 10
4122.971779451007
 20
1408.10951965302
 30
0.0
 11
4122.971779451007
 21
1407.442852986354
 31
0.0
 12
4120.971779451006
 22
1407.776186319687
 32
0.0
 13
4120.971779451006
 23
1407.776186319687
 33
0.0
  0
MTEXT
  5
269F
330
25C1
100
AcDbEntity
  8
0
  6
Continuous
 62
     0
370
     0
100
AcDbMText
 10
4132.971779451007
 20
1407.776186319687
 30
0.0
 40
10.0
 41
0.0
 71
     5
 72
     1
  1
\A1;24
 73
     1
 44
1.0
  0
POINT
  5
26A0
330
25C1
100
AcDbEntity
  8
DEFPOINTS
  6
Continuous
 62
     0
370
     0
100
AcDbPoint
 10
4144.971779451007
 20
1396.302036338425
 30
0.0
  0
POINT
  5
26A1
330
25C1
100
AcDbEntity
  8
DEFPOINTS
  6
Continuous
 62
     0
370
     0
100
AcDbPoint
 10
4120.971779451006
 20
1396.302036338425
 30
0.0
  0
POINT
  5
26A2
330
25C1
100
AcDbEntity
  8
DEFPOINTS
  6
Continuous
 62
     0
370
     0
100
AcDbPoint
 10
4120.971779451006
 20
1407.776186319687
 30
0.0
  0
ENDBLK
  5
25CD
330
25C1
100
AcDbEntity
  8
0
370
     0
100
AcDbBlockEnd
  0
ENDSEC
  0
SECTION
  2
ENTITIES
  0
LINE
  5
1216
330
A
100
AcDbEntity
  8
0
  6
Continuous
 62
     3
370
     0
100
AcDbLine
 10
4120.971779451006
 20
1389.407014058662
 30
0.0
 11
4309.971779451006
 21
1389.407014058662
 31
0.0
  0
LINE
  5
121B
330
A
100
AcDbEntity
  8
0
  6
Continuous
 62
     3
370
     0
100
AcDbLine
 10
4309.971779451006
 20
1389.407014058662
 30
0.0
 11
4309.971779451006
 21
1227.407014058662
 31
0.0
  0
LINE
  5
1220
330
A
100
AcDbEntity
  8
0
  6
Continuous
 62
     3
370
     0
100
AcDbLine
 10
4309.971779451006
 20
1227.407014058662
 30
0.0
 11
4120.971779451006
 21
1227.407014058662
 31
0.0
  0
LINE
  5
1225
330
A
100
AcDbEntity
  8
0
  6
Continuous
 62
     3
370
     0
100
AcDbLine
 10
4120.971779451006
 20
1227.407014058662
 30
0.0
 11
4120.971779451006
 21
1389.407014058662
 31
0.0
  0
MTEXT
  5
122B
330
A
100
AcDbEntity
  8
0
  6
Continuous
370
     0
100
AcDbMText
 10
4109.853898992263
 20
1210.764943313971
 30
0.0
 40
15.0
 41
228.3165831294991
 71
     1
 72
     5
  1
{\fSimSun|b0|i0|c134|p2;A³ß´ç£º\fArial|b1|i0|c0|p34;189*162*5mm}
 73
     1
 44
1.0
1001
ACAD
1000
ACAD_MTEXT_DEFINED_HEIGHT_BEGIN
1070
    46
1040
0.0
1000
ACAD_MTEXT_DEFINED_HEIGHT_END
  0
LINE
  5
122C
330
A
100
AcDbEntity
  8
0
  6
Continuous
 62
     3
370
     0
100
AcDbLine
 10
4368.187209893238
 20
1389.407014058662
 30
0.0
 11
4547.187209893237
 21
1389.407014058662
 31
0.0
  0
LINE
  5
122D
330
A
100
AcDbEntity
  8
0
  6
Continuous
 62
     3
370
     0
100
AcDbLine
 10
4377.187209893238
 20
1380.407014058662
 30
0.0
 11
4538.187209893238
 21
1380.407014058662
 31
0.0
  0
LINE
  5
122E
330
A
100
AcDbEntity
  8
0
  6
Continuous
 62
     3
370
     0
100
AcDbLine
 10
4552.187209893238
 20
1384.407014058662
 30
0.0
 11
4552.187209893238
 21
1232.407014058662
 31
0.0
  0
ARC
  5
122F
330
A
100
AcDbEntity
  8
0
  6
Continuous
 62
     3
370
     0
100
AcDbCircle
 10
4547.187209893237
 20
1384.407014058662
 30
0.0
 40
5.0
100
AcDbArc
 50
0.0
 51
90.0
  0
LINE
  5
1230
330
A
100
AcDbEntity
  8
0
  6
Continuous
 62
     3
370
     0
100
AcDbLine
 10
4543.187209893238
 20
1375.407014058662
 30
0.0
 11
4543.187209893238
 21
1241.407014058662
 31
0.0
  0
ARC
  5
1231
330
A
100
AcDbEntity
  8
0
  6
Continuous
 62
     3
370
     0
100
AcDbCircle
 10
4538.187209893238
 20
1375.407014058662
 30
0.0
 40
5.0
100
AcDbArc
 50
0.0
 51
90.0
  0
LINE
  5
1232
330
A
100
AcDbEntity
  8
0
  6
Continuous
 62
     3
370
     0
100
AcDbLine
 10
4547.187209893237
 20
1227.407014058662
 30
0.0
 11
4368.187209893236
 21
1227.407014058662
 31
0.0
  0
ARC
  5
1233
330
A
100
AcDbEntity
  8
0
  6
Continuous
 62
     3
370
     0
100
AcDbCircle
 10
4547.187209893237
 20
1232.407014058662
 30
0.0
 40
5.0
100
AcDbArc
 50
270.0
 51
0.0
  0
LINE
  5
1234
330
A
100
AcDbEntity
  8
0
  6
Continuous
 62
     3
370
     0
100
AcDbLine
 10
4538.187209893238
 20
1236.407014058662
 30
0.0
 11
4377.187209893238
 21
1236.407014058662
 31
0.0
  0
ARC
  5
1235
330
A
100
AcDbEntity
  8
0
  6
Continuous
 62
     3
370
     0
100
AcDbCircle
 10
4538.187209893238
 20
1241.407014058662
 30
0.0
 40
5.0
100
AcDbArc
 50
270.0
 51
0.0
  0
ARC
  5
1236
330
A
100
AcDbEntity
  8
0
  6
Continuous
 62
     3
370
     0
100
AcDbCircle
 10
4377.187209893238
 20
1241.407014058662
 30
0.0
 40
5.0
100
AcDbArc
 50
180.0
 51
270.0
  0
LINE
  5
1237
330
A
100
AcDbEntity
  8
0
  6
Continuous
 62
     3
370
     0
100
AcDbLine
 10
4363.187209893236
 20
1232.407014058662
 30
0.0
 11
4363.187209893238
 21
1384.407014058662
 31
0.0
  0
ARC
  5
1238
330
A
100
AcDbEntity
  8
0
  6
Continuous
 62
     3
370
     0
100
AcDbCircle
 10
4368.187209893236
 20
1232.407014058662
 30
0.0
 40
5.0
100
AcDbArc
 50
180.0
 51
270.0
  0
ARC
  5
1239
330
A
100
AcDbEntity
  8
0
  6
Continuous
 62
     3
370
     0
100
AcDbCircle
 10
4368.187209893238
 20
1384.407014058662
 30
0.0
 40
5.0
100
AcDbArc
 50
90.0
 51
180.0
  0
LINE
  5
123A
330
A
100
AcDbEntity
  8
0
  6
Continuous
 62
     3
370
     0
100
AcDbLine
 10
4372.187209893238
 20
1241.407014058662
 30
0.0
 11
4372.187209893238
 21
1375.407014058662
 31
0.0
  0
ARC
  5
123B
330
A
100
AcDbEntity
  8
0
  6
Continuous
 62
     3
370
     0
100
AcDbCircle
 10
4377.187209893238
 20
1375.407014058662
 30
0.0
 40
5.0
100
AcDbArc
 50
90.0
 51
180.0
  0
MTEXT
  5
123C
330
A
100
AcDbEntity
  8
0
  6
Continuous
370
     0
100
AcDbMText
 10
4359.637229015126
 20
1210.764943313971
 30
0.0
 40
15.0
 41
228.3165831294991
 71
     1
 72
     5
  1
{\fSimSun|b0|i0|c134|p2;B³ß´ç£º\fArial|b1|i0|c0|p34;189*162*45mm}
 73
     1
 44
1.0
  0
MTEXT
  5
123D
330
A
100
AcDbEntity
  8
0
  6
Continuous
370
     0
100
AcDbMText
 10
4234.02144457441
 20
1158.975866276468
 30
0.0
 40
15.0
 41
228.3165831294991
 71
     1
 72
     5
  1
{\fSimSun|b0|i0|c134|p2;ABÕ³ºÏ³ß´ç£º\fArial|b1|i0|c0|p34;189*162*55mm}
 73
     1
 44
1.0
  0
DIMENSION
  5
123E
330
A
100
AcDbEntity
  8
0
  6
Continuous
370
     0
100
AcDbDimension
  2
*D5
 10
4552.187209893238
 20
1317.301883320913
 30
0.0
 11
4584.063650571205
 21
1317.301883320913
 31
0.0
 70
    32
 71
     5
 42
9.0
  3
Standard
100
AcDbAlignedDimension
 13
4543.187209893238
 23
1308.407014058662
 33
0.0
 14
4552.187209893238
 24
1308.407014058662
 34
0.0
100
AcDbRotatedDimension
1001
ACAD
1000
DSTYLE
1002
{
1070
    41
1040
5.0
1070
   140
1040
10.0
1070
   278
1070
     0
1070
   371
1070
     0
1070
   372
1070
     0
1002
}
  0
DIMENSION
  5
1240
330
A
100
AcDbEntity
  8
0
  6
Continuous
370
     0
100
AcDbDimension
  2
*D6
 10
4247.149027647513
 20
1365.407014058662
 30
0.0
 11
4271.018688664462
 21
1414.593586566142
 31
0.0
 70
   160
  1
20*20
 71
     5
 42
20.0
  3
Standard
100
AcDbAlignedDimension
 13
4255.94521491552
 23
1345.407014058662
 33
0.0
 14
4255.94521491552
 24
1365.407014058662
 34
0.0
 50
90.0
100
AcDbRotatedDimension
1001
ACAD
1000
DSTYLE
1002
{
1070
    41
1040
2.0
1070
   140
1040
10.0
1070
   278
1070
     0
1070
   371
1070
     0
1070
   372
1070
     0
1002
}
  0
MTEXT
  5
1241
330
A
100
AcDbEntity
  8
0
  6
Continuous
370
     0
100
AcDbMText
 10
4295.038484262719
 20
1421.631912853362
 30
0.0
 40
10.0
 41
228.3165831294991
 71
     1
 72
     5
  1
{\fSimSun|b0|i0|c134|p2;´Ë4´¦È·ÇÐÎ»ÖÃ´ýÈ·¶¨}
 73
     1
 44
1.0
  0
LWPOLYLINE
  5
1242
330
A
100
AcDbEntity
  8
0
  6
Continuous
370
     0
100
AcDbPolyline
 90
        4
 70
     1
 43
0.0
 10
4088.248684078334
 20
1431.520295914412
 10
4614.675056432972
 20
1431.520295914412
 10
4614.675056432972
 20
1096.391297181602
 10
4088.248684078334
 20
1096.391297181602
  0
LINE
  5
24C9
330
A
100
AcDbEntity
  8
0
  6
Continuous
 62
     3
370
     0
100
AcDbLine
 10
4447.687209893238
 20
1380.407014058662
 30
0.0
 11
4447.687209893238
 21
1389.407014058662
 31
0.0
  0
LINE
  5
24CA
330
A
100
AcDbEntity
  8
0
  6
Continuous
 62
     3
370
     0
100
AcDbLine
 10
4467.687209893238
 20
1380.407014058662
 30
0.0
 11
4467.687209893238
 21
1389.407014058662
 31
0.0
  0
LINE
  5
24CB
330
A
100
AcDbEntity
  8
0
  6
Continuous
 62
     3
370
     0
100
AcDbLine
 10
4467.687209893238
 20
1236.407014058662
 30
0.0
 11
4467.687209893238
 21
1227.407014058662
 31
0.0
  0
LINE
  5
24CC
330
A
100
AcDbEntity
  8
0
  6
Continuous
 62
     3
370
     0
100
AcDbLine
 10
4447.687209893238
 20
1236.407014058662
 30
0.0
 11
4447.687209893238
 21
1227.407014058662
 31
0.0
  0
MTEXT
  5
24CD
330
A
100
AcDbEntity
  8
0
  6
Continuous
370
     0
100
AcDbMText
 10
4462.604344399389
 20
1421.631912853362
 30
0.0
 40
10.0
 41
146.2818605574848
 71
     1
 72
     5
  1
{\fSimSun|b0|i0|c134|p2;´Ë2´¦20\fArial|b1|i0|c0|p34;mm\fSimSun|b0|i0|c134|p2;°ëÔ²Ö¸¿Û}
 73
     1
 44
1.0
1001
ACAD
1000
ACAD_MTEXT_DEFINED_HEIGHT_BEGIN
1070
    46
1040
0.0
1000
ACAD_MTEXT_DEFINED_HEIGHT_END
  0
LINE
  5
24CE
330
A
100
AcDbEntity
  8
0
  6
Continuous
370
     0
100
AcDbLine
 10
4457.687209893238
 20
1389.407014058662
 30
0.0
 11
4457.687209893238
 21
1406.546278937759
 31
0.0
  0
LINE
  5
24CF
330
A
100
AcDbEntity
  8
0
  6
Continuous
370
     0
100
AcDbLine
 10
4457.687209893238
 20
1406.546278937759
 30
0.0
 11
4594.939752797312
 21
1406.546278937759
 31
0.0
  0
LINE
  5
24E1
330
A
100
AcDbEntity
  8
0
  6
Continuous
 62
     3
370
     0
100
AcDbLine
 10
4144.971779451006
 20
1251.407014058662
 30
0.0
 11
4144.971779451006
 21
1271.407014058662
 31
0.0
  0
LINE
  5
24E2
330
A
100
AcDbEntity
  8
0
  6
Continuous
 62
     3
370
     0
100
AcDbLine
 10
4144.971779451007
 20
1365.407014058662
 30
0.0
 11
4164.971779451008
 21
1365.407014058662
 31
0.0
  0
LINE
  5
24E3
330
A
100
AcDbEntity
  8
0
  6
Continuous
 62
     3
370
     0
100
AcDbLine
 10
4285.971779451006
 20
1365.407014058662
 30
0.0
 11
4285.971779451006
 21
1345.407014058662
 31
0.0
  0
LINE
  5
24E4
330
A
100
AcDbEntity
  8
0
  6
Continuous
 62
     3
370
     0
100
AcDbLine
 10
4285.971779451006
 20
1251.407014058662
 30
0.0
 11
4265.971779451007
 21
1251.407014058662
 31
0.0
  0
LINE
  5
24E5
330
A
100
AcDbEntity
  8
0
  6
Continuous
 62
     3
370
     0
100
AcDbLine
 10
4164.971779451006
 20
1251.407014058662
 30
0.0
 11
4164.971779451006
 21
1271.407014058662
 31
0.0
  0
LINE
  5
24E6
330
A
100
AcDbEntity
  8
0
  6
Continuous
 62
     3
370
     0
100
AcDbLine
 10
4265.971779451007
 20
1365.407014058662
 30
0.0
 11
4265.971779451007
 21
1345.407014058662
 31
0.0
  0
LINE
  5
24E7
330
A
100
AcDbEntity
  8
0
  6
Continuous
 62
     3
370
     0
100
AcDbLine
 10
4144.971779451007
 20
1345.407014058662
 30
0.0
 11
4164.971779451008
 21
1345.407014058662
 31
0.0
  0
LINE
  5
24E8
330
A
100
AcDbEntity
  8
0
  6
Continuous
 62
     3
370
     0
100
AcDbLine
 10
4285.971779451006
 20
1271.407014058662
 30
0.0
 11
4265.971779451007
 21
1271.407014058662
 31
0.0
  0
LINE
  5
24E9
330
A
100
AcDbEntity
  8
0
  6
Continuous
 62
     3
370
     0
100
AcDbLine
 10
4265.971779451008
 20
1345.407014058662
 30
0.0
 11
4285.971779451008
 21
1345.407014058662
 31
0.0
  0
LINE
  5
24EA
330
A
100
AcDbEntity
  8
0
  6
Continuous
 62
     3
370
     0
100
AcDbLine
 10
4265.971779451008
 20
1365.407014058662
 30
0.0
 11
4285.971779451008
 21
1365.407014058662
 31
0.0
  0
LINE
  5
24EB
330
A
100
AcDbEntity
  8
0
  6
Continuous
 62
     3
370
     0
100
AcDbLine
 10
4164.971779451006
 20
1345.407014058662
 30
0.0
 11
4164.971779451007
 21
1365.407014058662
 31
0.0
  0
LINE
  5
24EC
330
A
100
AcDbEntity
  8
0
  6
Continuous
 62
     3
370
     0
100
AcDbLine
 10
4144.971779451006
 20
1345.407014058662
 30
0.0
 11
4144.971779451007
 21
1365.407014058662
 31
0.0
  0
LINE
  5
24ED
330
A
100
AcDbEntity
  8
0
  6
Continuous
 62
     3
370
     0
100
AcDbLine
 10
4265.971779451007
 20
1271.407014058662
 30
0.0
 11
4265.971779451007
 21
1251.407014058662
 31
0.0
  0
LINE
  5
24EE
330
A
100
AcDbEntity
  8
0
  6
Continuous
 62
     3
370
     0
100
AcDbLine
 10
4285.971779451006
 20
1271.407014058662
 30
0.0
 11
4285.971779451006
 21
1251.407014058662
 31
0.0
  0
LINE
  5
251C
330
A
100
AcDbEntity
  8
0
  6
Continuous
 62
     3
370
     0
100
AcDbLine
 10
4164.971779451005
 20
1271.407014058662
 30
0.0
 11
4144.971779451006
 21
1271.407014058662
 31
0.0
  0
LINE
  5
251D
330
A
100
AcDbEntity
  8
0
  6
Continuous
 62
     3
370
     0
100
AcDbLine
 10
4164.971779451006
 20
1251.407014058662
 30
0.0
 11
4144.971779451006
 21
1251.407014058662
 31
0.0
  0
DIMENSION
  5
251E
330
A
100
AcDbEntity
  8
0
  6
Continuous
370
     0
100
AcDbDimension
  2
*D8
 10
4184.887236132963
 20
1389.407014058662
 30
0.0
 11
4195.363676810929
 21
1414.593586566142
 31
0.0
 70
   160
  1
24
 71
     5
 42
24.0
  3
Standard
100
AcDbAlignedDimension
 13
4169.784522684933
 23
1365.407014058662
 33
0.0
 14
4171.154352924606
 24
1389.407014058662
 34
0.0
 50
90.0
100
AcDbRotatedDimension
1001
ACAD
1000
DSTYLE
1002
{
1070
    41
1040
2.0
1070
   140
1040
10.0
1070
   278
1070
     0
1070
   371
1070
     0
1070
   372
1070
     0
1002
}
  0
DIMENSION
  5
25C0
330
A
100
AcDbEntity
  8
0
  6
Continuous
370
     0
100
AcDbDimension
  2
*D9
 10
4120.971779451006
 20
1407.776186319687
 30
0.0
 11
4132.971779451007
 21
1407.776186319687
 31
0.0
 70
    32
  1
24
 71
     5
 42
24.0
  3
Standard
100
AcDbAlignedDimension
 13
4144.971779451007
 23
1396.302036338425
 33
0.0
 14
4120.971779451006
 24
1396.302036338425
 34
0.0
100
AcDbRotatedDimension
1001
ACAD
1000
DSTYLE
1002
{
1070
    41
1040
2.0
1070
   140
1040
10.0
1070
   278
1070
     0
1070
   371
1070
     0
1070
   372
1070
     0
1002
}
  0
ENDSEC
  0
SECTION
  2
OBJECTS
  0
DICTIONARY
  5
19
330
0
100
AcDbDictionary
281
     1
  3
ACAD_COLOR
350
A6
  3
ACAD_GROUP
350
1A
  3
ACAD_LAYOUT
350
1E
  3
ACAD_MATERIAL
350
7C
  3
ACAD_MLEADERSTYLE
350
CB
  3
ACAD_MLINESTYLE
350
1B
  3
ACAD_PLOTSETTINGS
350
22
  3
ACAD_PLOTSTYLENAME
350
1F
  3
ACAD_SCALELIST
350
A9
  3
ACAD_TABLESTYLE
350
A7
  3
ACAD_VISUALSTYLE
350
95
  3
ACAD_WIPEOUT_VARS
350
23
  3
ACDB_RECOMPOSE_DATA
350
12D
  3
AcDbVariableDictionary
350
124
  3
ASE_INDEX_DICTIONARY
350
27D0
  0
DICTIONARY
  5
10C
330
14
100
AcDbDictionary
280
     1
281
     1
  3
ADSK_XREC_LAYER_RECONCILED
360
10D
  0
DICTIONARY
  5
10E
330
2F
100
AcDbDictionary
280
     1
281
     1
  3
ADSK_XREC_LAYER_RECONCILED
360
10F
  0
DICTIONARY
  5
110
330
30
100
AcDbDictionary
280
     1
281
     1
  3
ADSK_XREC_LAYER_RECONCILED
360
111
  0
DICTIONARY
  5
112
330
31
100
AcDbDictionary
280
     1
281
     1
  3
ADSK_XREC_LAYER_RECONCILED
360
113
  0
DICTIONARY
  5
114
330
32
100
AcDbDictionary
280
     1
281
     1
  3
ADSK_XREC_LAYER_RECONCILED
360
115
  0
DICTIONARY
  5
116
330
33
100
AcDbDictionary
280
     1
281
     1
  3
ADSK_XREC_LAYER_RECONCILED
360
117
  0
DICTIONARY
  5
118
330
34
100
AcDbDictionary
280
     1
281
     1
  3
ADSK_XREC_LAYER_RECONCILED
360
119
  0
DICTIONARY
  5
11A
330
35
100
AcDbDictionary
280
     1
281
     1
  3
ADSK_XREC_LAYER_RECONCILED
360
11B
  0
DICTIONARY
  5
11C
330
36
100
AcDbDictionary
280
     1
281
     1
  3
ADSK_XREC_LAYER_RECONCILED
360
11D
  0
DICTIONARY
  5
11E
330
38
100
AcDbDictionary
280
     1
281
     1
  3
ADSK_XREC_LAYER_RECONCILED
360
11F
  0
DICTIONARY
  5
120
330
39
100
AcDbDictionary
280
     1
281
     1
  3
ADSK_XREC_LAYER_RECONCILED
360
121
  0
DICTIONARY
  5
122
330
3B
100
AcDbDictionary
280
     1
281
     1
  3
ADSK_XREC_LAYER_RECONCILED
360
123
  0
DICTIONARY
  5
384
330
383
100
AcDbDictionary
280
     1
281
     1
  0
DICTIONARY
  5
FB7
330
FB6
100
AcDbDictionary
280
     1
281
     1
  0
DICTIONARY
  5
DF
330
A
100
AcDbDictionary
280
     1
281
     1
  3
ACAD_SORTENTS
360
E0
  0
DICTIONARY
  5
11C3
330
1195
100
AcDbDictionary
280
     1
281
     1
  3
ACAD_SORTENTS
360
11C4
  0
DICTIONARY
  5
1212
330
1203
100
AcDbDictionary
280
     1
281
     1
  3
ACAD_SORTENTS
360
1213
  0
DICTIONARY
  5
A6
102
{ACAD_REACTORS
330
19
102
}
330
19
100
AcDbDictionary
281
     1
  0
DICTIONARY
  5
1A
102
{ACAD_REACTORS
330
19
102
}
330
19
100
AcDbDictionary
281
     1
  0
DICTIONARY
  5
1E
102
{ACAD_REACTORS
330
19
102
}
330
19
100
AcDbDictionary
281
     1
  3
Layout1
350
21
  3
Model
350
20
  0
DICTIONARY
  5
7C
102
{ACAD_REACTORS
330
19
102
}
330
19
100
AcDbDictionary
281
     1
  3
ByBlock
350
85
  3
ByLayer
350
7D
  3
Global
350
8D
  0
DICTIONARY
  5
CB
102
{ACAD_REACTORS
330
19
102
}
330
19
100
AcDbDictionary
281
     1
  3
Standard
350
CC
  0
DICTIONARY
  5
1B
102
{ACAD_REACTORS
330
19
102
}
330
19
100
AcDbDictionary
281
     1
  3
Standard
350
1C
  0
DICTIONARY
  5
22
102
{ACAD_REACTORS
330
19
102
}
330
19
100
AcDbDictionary
281
     1
  0
ACDBDICTIONARYWDFLT
  5
1F
102
{ACAD_REACTORS
330
19
102
}
330
19
100
AcDbDictionary
281
     1
  3
Normal
350
1D
100
AcDbDictionaryWithDefault
340
1D
  0
DICTIONARY
  5
A9
102
{ACAD_REACTORS
330
19
102
}
330
19
100
AcDbDictionary
281
     1
  3
A0
350
AA
  3
A1
350
AB
  3
A2
350
AC
  3
A3
350
AD
  3
A4
350
AE
  3
A5
350
AF
  3
A6
350
B0
  3
A7
350
B1
  3
A8
350
B2
  3
A9
350
B3
  3
B0
350
B4
  3
B1
350
B5
  3
B2
350
B6
  3
B3
350
B7
  3
B4
350
B8
  3
B5
350
B9
  3
B6
350
BA
  3
B7
350
BB
  3
B8
350
BC
  3
B9
350
BD
  3
C0
350
BE
  3
C1
350
BF
  3
C2
350
C0
  3
C3
350
C1
  3
C4
350
C2
  3
C5
350
C3
  3
C6
350
C4
  3
C7
350
C5
  3
C8
350
C6
  3
C9
350
C7
  3
D0
350
C8
  3
D1
350
C9
  3
D2
350
CA
  0
DICTIONARY
  5
A7
102
{ACAD_REACTORS
330
19
102
}
330
19
100
AcDbDictionary
281
     1
  3
Standard
350
A8
  0
DICTIONARY
  5
95
102
{ACAD_REACTORS
330
19
102
}
330
19
100
AcDbDictionary
281
     1
  3
2dWireframe
350
9B
  3
3D Hidden
350
9D
  3
3dWireframe
350
9C
  3
Basic
350
9A
  3
Brighten
350
A1
  3
ColorChange
350
A5
  3
Conceptual
350
9E
  3
Dim
350
A0
  3
Facepattern
350
A4
  3
Flat
350
96
  3
FlatWithEdges
350
97
  3
Gouraud
350
98
  3
GouraudWithEdges
350
99
  3
Linepattern
350
A3
  3
Realistic
350
9F
  3
Thicken
350
A2
  0
WIPEOUTVARIABLES
  5
23
330
19
100
AcDbWipeoutVariables
 70
     1
  0
XRECORD
  5
12D
102
{ACAD_REACTORS
330
19
102
}
330
19
100
AcDbXrecord
280
     1
 90
        1
330
A8
  0
DICTIONARY
  5
124
102
{ACAD_REACTORS
330
19
102
}
330
19
100
AcDbDictionary
281
     1
  3
CANNOSCALE
350
127
  3
CMLEADERSTYLE
350
126
  3
CTABLESTYLE
350
125
  3
DIMASSOC
350
12A
  3
INDEXCTL
350
129
  3
SORTENTS
350
128
  0
DICTIONARY
  5
27D0
102
{ACAD_REACTORS
330
19
102
}
330
19
100
AcDbDictionary
281
     1
  3
ASEBlockHierarchyIndexRecord
350
27D1
1001
DCO15
1040
1722179397.218
  0
XRECORD
  5
10D
102
{ACAD_REACTORS
330
10C
102
}
330
10C
100
AcDbXrecord
280
     1
290
     1
  0
XRECORD
  5
10F
102
{ACAD_REACTORS
330
10E
102
}
330
10E
100
AcDbXrecord
280
     1
290
     1
  0
XRECORD
  5
111
102
{ACAD_REACTORS
330
110
102
}
330
110
100
AcDbXrecord
280
     1
290
     1
  0
XRECORD
  5
113
102
{ACAD_REACTORS
330
112
102
}
330
112
100
AcDbXrecord
280
     1
290
     1
  0
XRECORD
  5
115
102
{ACAD_REACTORS
330
114
102
}
330
114
100
AcDbXrecord
280
     1
290
     1
  0
XRECORD
  5
117
102
{ACAD_REACTORS
330
116
102
}
330
116
100
AcDbXrecord
280
     1
290
     1
  0
XRECORD
  5
119
102
{ACAD_REACTORS
330
118
102
}
330
118
100
AcDbXrecord
280
     1
290
     1
  0
XRECORD
  5
11B
102
{ACAD_REACTORS
330
11A
102
}
330
11A
100
AcDbXrecord
280
     1
290
     1
  0
XRECORD
  5
11D
102
{ACAD_REACTORS
330
11C
102
}
330
11C
100
AcDbXrecord
280
     1
290
     1
  0
XRECORD
  5
11F
102
{ACAD_REACTORS
330
11E
102
}
330
11E
100
AcDbXrecord
280
     1
290
     1
  0
XRECORD
  5
121
102
{ACAD_REACTORS
330
120
102
}
330
120
100
AcDbXrecord
280
     1
290
     1
  0
XRECORD
  5
123
102
{ACAD_REACTORS
330
122
102
}
330
122
100
AcDbXrecord
280
     1
290
     1
  0
SORTENTSTABLE
  5
E0
102
{ACAD_REACTORS
330
DF
102
}
330
DF
100
AcDbSortentsTable
330
A
331
24E8
  5
123B
331
1232
  5
24D9
331
123A
  5
24E2
331
1242
  5
24E9
331
25C0
  5
25C0
331
121B
  5
1231
331
24C9
  5
24EB
331
24E1
  5
123E
331
122B
  5
24C9
331
24E9
  5
1230
331
1233
  5
24DA
331
123B
  5
24E3
331
24CA
  5
24EA
331
24E2
  5
1220
331
122C
  5
24CA
331
24EA
  5
122B
331
1234
  5
24DB
331
123C
  5
24E4
331
24CB
  5
24EC
331
1225
  5
123D
331
24E3
  5
1232
331
122D
  5
24CB
331
24EB
  5
1242
331
1235
  5
24DC
331
123D
  5
24E5
331
1216
  5
1216
331
24CC
  5
24ED
331
24E4
  5
1237
331
122E
  5
24CC
331
24EC
  5
1240
331
1236
  5
24DD
331
251C
  5
123C
331
123E
  5
24E6
331
24CD
  5
24EE
331
24E5
  5
1241
331
122F
  5
24CD
331
24ED
  5
1235
331
1237
  5
24DE
331
251D
  5
1238
331
1220
  5
1236
331
24CE
  5
251C
331
24E6
  5
1234
331
1230
  5
24CE
331
24EE
  5
1233
331
1238
  5
24DF
331
251E
  5
251E
331
1240
  5
24E7
331
24CF
  5
251D
331
24E7
  5
122E
331
1231
  5
24CF
331
1239
  5
24E1
331
1241
  5
24E8
  0
SORTENTSTABLE
  5
11C4
102
{ACAD_REACTORS
330
11C3
102
}
330
11C3
100
AcDbSortentsTable
330
1195
  0
SORTENTSTABLE
  5
1213
102
{ACAD_REACTORS
330
1212
102
}
330
1212
100
AcDbSortentsTable
330
1203
  0
LAYOUT
  5
21
102
{ACAD_REACTORS
330
1E
102
}
330
1E
100
AcDbPlotSettings
  1

  2

  4

  6

 40
0.0
 41
0.0
 42
0.0
 43
0.0
 44
0.0
 45
0.0
 46
0.0
 47
0.0
 48
0.0
 49
0.0
140
0.0
141
0.0
142
1.0
143
1.0
 70
     0
 72
     0
 73
     0
 74
     0
  7

 75
     0
147
1.0
 76
     0
 77
     2
 78
   300
148
0.0
149
0.0
100
AcDbLayout
  1
Layout1
 70
     0
 71
     1
 10
0.0
 20
0.0
 11
12.0
 21
9.0
 12
0.0
 22
0.0
 32
0.0
 14
1.000000000000000E+20
 24
1.000000000000000E+20
 34
1.000000000000000E+20
 15
-1.000000000000000E+20
 25
-1.000000000000000E+20
 35
-1.000000000000000E+20
146
0.0
 13
0.0
 23
0.0
 33
0.0
 16
1.0
 26
0.0
 36
0.0
 17
0.0
 27
1.0
 37
0.0
 76
     0
330
B
  0
LAYOUT
  5
20
102
{ACAD_REACTORS
330
1E
102
}
330
1E
100
AcDbPlotSettings
  1

  2

  4

  6

 40
0.0
 41
0.0
 42
0.0
 43
0.0
 44
0.0
 45
0.0
 46
0.0
 47
0.0
 48
0.0
 49
0.0
140
0.0
141
0.0
142
1.0
143
1.0
 70
  1024
 72
     0
 73
     0
 74
     0
  7

 75
     0
147
1.0
 76
     0
 77
     2
 78
   300
148
0.0
149
0.0
100
AcDbLayout
  1
Model
 70
     0
 71
     0
 10
0.0
 20
0.0
 11
0.0
 21
0.0
 12
0.0
 22
0.0
 32
0.0
 14
0.0
 24
0.0
 34
0.0
 15
0.0
 25
0.0
 35
0.0
146
0.0
 13
0.0
 23
0.0
 33
0.0
 16
0.0
 26
0.0
 36
0.0
 17
0.0
 27
0.0
 37
0.0
 76
     0
330
A
  0
MATERIAL
  5
85
102
{ACAD_XDICTIONARY
360
86
102
}
102
{ACAD_REACTORS
330
7C
102
}
330
7C
100
AcDbMaterial
  1
ByBlock
 72
     0
 43
0.0208333333333333
 43
0.0
 43
0.0
 43
0.0
 43
0.0
 43
0.0208333333333333
 43
0.0
 43
0.0
 43
0.0
 43
0.0
 43
1.0
 43
0.0
 43
0.0
 43
0.0
 43
0.0
 43
1.0
 77
     0
 47
0.0208333333333333
 47
0.0
 47
0.0
 47
0.0
 47
0.0
 47
0.0208333333333333
 47
0.0
 47
0.0
 47
0.0
 47
0.0
 47
1.0
 47
0.0
 47
0.0
 47
0.0
 47
0.0
 47
1.0
171
     0
 49
0.0208333333333333
 49
0.0
 49
0.0
 49
0.0
 49
0.0
 49
0.0208333333333333
 49
0.0
 49
0.0
 49
0.0
 49
0.0
 49
1.0
 49
0.0
 49
0.0
 49
0.0
 49
0.0
 49
1.0
175
     0
142
0.0208333333333333
142
0.0
142
0.0
142
0.0
142
0.0
142
0.0208333333333333
142
0.0
142
0.0
142
0.0
142
0.0
142
1.0
142
0.0
142
0.0
142
0.0
142
0.0
142
1.0
179
     0
144
0.0208333333333333
144
0.0
144
0.0
144
0.0
144
0.0
144
0.0208333333333333
144
0.0
144
0.0
144
0.0
144
0.0
144
1.0
144
0.0
144
0.0
144
0.0
144
0.0
144
1.0
147
0.0208333333333333
147
0.0
147
0.0
147
0.0
147
0.0
147
0.0208333333333333
147
0.0
147
0.0
147
0.0
147
0.0
147
1.0
147
0.0
147
0.0
147
0.0
147
0.0
147
1.0
  0
MATERIAL
  5
7D
102
{ACAD_XDICTIONARY
360
7E
102
}
102
{ACAD_REACTORS
330
7C
102
}
330
7C
100
AcDbMaterial
  1
ByLayer
 72
     0
 43
0.0208333333333333
 43
0.0
 43
0.0
 43
0.0
 43
0.0
 43
0.0208333333333333
 43
0.0
 43
0.0
 43
0.0
 43
0.0
 43
1.0
 43
0.0
 43
0.0
 43
0.0
 43
0.0
 43
1.0
 77
     0
 47
0.0208333333333333
 47
0.0
 47
0.0
 47
0.0
 47
0.0
 47
0.0208333333333333
 47
0.0
 47
0.0
 47
0.0
 47
0.0
 47
1.0
 47
0.0
 47
0.0
 47
0.0
 47
0.0
 47
1.0
171
     0
 49
0.0208333333333333
 49
0.0
 49
0.0
 49
0.0
 49
0.0
 49
0.0208333333333333
 49
0.0
 49
0.0
 49
0.0
 49
0.0
 49
1.0
 49
0.0
 49
0.0
 49
0.0
 49
0.0
 49
1.0
175
     0
142
0.0208333333333333
142
0.0
142
0.0
142
0.0
142
0.0
142
0.0208333333333333
142
0.0
142
0.0
142
0.0
142
0.0
142
1.0
142
0.0
142
0.0
142
0.0
142
0.0
142
1.0
179
     0
144
0.0208333333333333
144
0.0
144
0.0
144
0.0
144
0.0
144
0.0208333333333333
144
0.0
144
0.0
144
0.0
144
0.0
144
1.0
144
0.0
144
0.0
144
0.0
144
0.0
144
1.0
147
0.0208333333333333
147
0.0
147
0.0
147
0.0
147
0.0
147
0.0208333333333333
147
0.0
147
0.0
147
0.0
147
0.0
147
1.0
147
0.0
147
0.0
147
0.0
147
0.0
147
1.0
  0
MATERIAL
  5
8D
102
{ACAD_XDICTIONARY
360
8E
102
}
102
{ACAD_REACTORS
330
7C
102
}
330
7C
100
AcDbMaterial
  1
Global
 72
     0
 43
0.0208333333333333
 43
0.0
 43
0.0
 43
0.0
 43
0.0
 43
0.0208333333333333
 43
0.0
 43
0.0
 43
0.0
 43
0.0
 43
1.0
 43
0.0
 43
0.0
 43
0.0
 43
0.0
 43
1.0
 77
     0
 47
0.0208333333333333
 47
0.0
 47
0.0
 47
0.0
 47
0.0
 47
0.0208333333333333
 47
0.0
 47
0.0
 47
0.0
 47
0.0
 47
1.0
 47
0.0
 47
0.0
 47
0.0
 47
0.0
 47
1.0
171
     0
 49
0.0208333333333333
 49
0.0
 49
0.0
 49
0.0
 49
0.0
 49
0.0208333333333333
 49
0.0
 49
0.0
 49
0.0
 49
0.0
 49
1.0
 49
0.0
 49
0.0
 49
0.0
 49
0.0
 49
1.0
175
     0
142
0.0208333333333333
142
0.0
142
0.0
142
0.0
142
0.0
142
0.0208333333333333
142
0.0
142
0.0
142
0.0
142
0.0
142
1.0
142
0.0
142
0.0
142
0.0
142
0.0
142
1.0
179
     0
144
0.0208333333333333
144
0.0
144
0.0
144
0.0
144
0.0
144
0.0208333333333333
144
0.0
144
0.0
144
0.0
144
0.0
144
1.0
144
0.0
144
0.0
144
0.0
144
0.0
144
1.0
147
0.0208333333333333
147
0.0
147
0.0
147
0.0
147
0.0
147
0.0208333333333333
147
0.0
147
0.0
147
0.0
147
0.0
147
1.0
147
0.0
147
0.0
147
0.0
147
0.0
147
1.0
  0
ACAD_PROXY_OBJECT
  5
CC
102
{ACAD_REACTORS
330
CB
102
}
330
CB
100
AcDbProxyObject
 90
      499
 91
      524
 95
  1310743
 70
     1
100
AcDbMLeaderStyle
170
     2
171
     1
172
     0
 90
        2
 40
0.0
 41
0.0
173
     1
 91
-1056964608
340
11
 92
       -2
290
     1
 42
0.09
291
     1
 43
0.36
  3
Standard
 44
0.18
300

342
17
174
     1
178
     6
175
     1
176
     0
 93
-1056964608
 45
0.18
292
     0
297
     0
 46
0.18
 94
-1056964608
 47
1.0
 49
1.0
140
1.0
293
     1
141
0.0
294
     1
177
     0
142
1.0
295
     0
296
     0
143
0.125
1001
ACAD_MLEADERVER
1070
     2
  0
MLINESTYLE
  5
1C
102
{ACAD_REACTORS
330
1B
102
}
330
1B
100
AcDbMlineStyle
  2
STANDARD
 70
     0
  3

 62
     0
 51
90.0
 52
90.0
 71
     2
 49
0.5
 62
   256
  6
BYLAYER
 49
-0.5
 62
   256
  6
BYLAYER
  0
ACDBPLACEHOLDER
  5
1D
102
{ACAD_REACTORS
330
1F
102
}
330
1F
  0
ACAD_PROXY_OBJECT
  5
AA
102
{ACAD_REACTORS
330
A9
102
}
330
A9
100
AcDbProxyObject
 90
      499
 91
      523
 95
  1310743
 70
     1
100
AcDbScale
 70
     0
300
1:1
140
1.0
141
1.0
290
     1
  0
ACAD_PROXY_OBJECT
  5
AB
102
{ACAD_REACTORS
330
A9
102
}
330
A9
100
AcDbProxyObject
 90
      499
 91
      523
 95
  1310743
 70
     1
100
AcDbScale
 70
     0
300
1:2
140
1.0
141
2.0
290
     0
  0
ACAD_PROXY_OBJECT
  5
AC
102
{ACAD_REACTORS
330
A9
102
}
330
A9
100
AcDbProxyObject
 90
      499
 91
      523
 95
  1310743
 70
     1
100
AcDbScale
 70
     0
300
1:4
140
1.0
141
4.0
290
     0
  0
ACAD_PROXY_OBJECT
  5
AD
102
{ACAD_REACTORS
330
A9
102
}
330
A9
100
AcDbProxyObject
 90
      499
 91
      523
 95
  1310743
 70
     1
100
AcDbScale
 70
     0
300
1:5
140
1.0
141
5.0
290
     0
  0
ACAD_PROXY_OBJECT
  5
AE
102
{ACAD_REACTORS
330
A9
102
}
330
A9
100
AcDbProxyObject
 90
      499
 91
      523
 95
  1310743
 70
     1
100
AcDbScale
 70
     0
300
1:8
140
1.0
141
8.0
290
     0
  0
ACAD_PROXY_OBJECT
  5
AF
102
{ACAD_REACTORS
330
A9
102
}
330
A9
100
AcDbProxyObject
 90
      499
 91
      523
 95
  1310743
 70
     1
100
AcDbScale
 70
     0
300
1:10
140
1.0
141
10.0
290
     0
  0
ACAD_PROXY_OBJECT
  5
B0
102
{ACAD_REACTORS
330
A9
102
}
330
A9
100
AcDbProxyObject
 90
      499
 91
      523
 95
  1310743
 70
     1
100
AcDbScale
 70
     0
300
1:16
140
1.0
141
16.0
290
     0
  0
ACAD_PROXY_OBJECT
  5
B1
102
{ACAD_REACTORS
330
A9
102
}
330
A9
100
AcDbProxyObject
 90
      499
 91
      523
 95
  1310743
 70
     1
100
AcDbScale
 70
     0
300
1:20
140
1.0
141
20.0
290
     0
  0
ACAD_PROXY_OBJECT
  5
B2
102
{ACAD_REACTORS
330
A9
102
}
330
A9
100
AcDbProxyObject
 90
      499
 91
      523
 95
  1310743
 70
     1
100
AcDbScale
 70
     0
300
1:30
140
1.0
141
30.0
290
     0
  0
ACAD_PROXY_OBJECT
  5
B3
102
{ACAD_REACTORS
330
A9
102
}
330
A9
100
AcDbProxyObject
 90
      499
 91
      523
 95
  1310743
 70
     1
100
AcDbScale
 70
     0
300
1:40
140
1.0
141
40.0
290
     0
  0
ACAD_PROXY_OBJECT
  5
B4
102
{ACAD_REACTORS
330
A9
102
}
330
A9
100
AcDbProxyObject
 90
      499
 91
      523
 95
  1310743
 70
     1
100
AcDbScale
 70
     0
300
1:50
140
1.0
141
50.0
290
     0
  0
ACAD_PROXY_OBJECT
  5
B5
102
{ACAD_REACTORS
330
A9
102
}
330
A9
100
AcDbProxyObject
 90
      499
 91
      523
 95
  1310743
 70
     1
100
AcDbScale
 70
     0
300
1:100
140
1.0
141
100.0
290
     0
  0
ACAD_PROXY_OBJECT
  5
B6
102
{ACAD_REACTORS
330
A9
102
}
330
A9
100
AcDbProxyObject
 90
      499
 91
      523
 95
  1310743
 70
     1
100
AcDbScale
 70
     0
300
2:1
140
2.0
141
1.0
290
     0
  0
ACAD_PROXY_OBJECT
  5
B7
102
{ACAD_REACTORS
330
A9
102
}
330
A9
100
AcDbProxyObject
 90
      499
 91
      523
 95
  1310743
 70
     1
100
AcDbScale
 70
     0
300
4:1
140
4.0
141
1.0
290
     0
  0
ACAD_PROXY_OBJECT
  5
B8
102
{ACAD_REACTORS
330
A9
102
}
330
A9
100
AcDbProxyObject
 90
      499
 91
      523
 95
  1310743
 70
     1
100
AcDbScale
 70
     0
300
8:1
140
8.0
141
1.0
290
     0
  0
ACAD_PROXY_OBJECT
  5
B9
102
{ACAD_REACTORS
330
A9
102
}
330
A9
100
AcDbProxyObject
 90
      499
 91
      523
 95
  1310743
 70
     1
100
AcDbScale
 70
     0
300
10:1
140
10.0
141
1.0
290
     0
  0
ACAD_PROXY_OBJECT
  5
BA
102
{ACAD_REACTORS
330
A9
102
}
330
A9
100
AcDbProxyObject
 90
      499
 91
      523
 95
  1310743
 70
     1
100
AcDbScale
 70
     0
300
100:1
140
100.0
141
1.0
290
     0
  0
ACAD_PROXY_OBJECT
  5
BB
102
{ACAD_REACTORS
330
A9
102
}
330
A9
100
AcDbProxyObject
 90
      499
 91
      523
 95
  1310743
 70
     1
100
AcDbScale
 70
     0
300
1/128" = 1'-0"
140
0.0078125
141
12.0
290
     0
  0
ACAD_PROXY_OBJECT
  5
BC
102
{ACAD_REACTORS
330
A9
102
}
330
A9
100
AcDbProxyObject
 90
      499
 91
      523
 95
  1310743
 70
     1
100
AcDbScale
 70
     0
300
1/64" = 1'-0"
140
0.015625
141
12.0
290
     0
  0
ACAD_PROXY_OBJECT
  5
BD
102
{ACAD_REACTORS
330
A9
102
}
330
A9
100
AcDbProxyObject
 90
      499
 91
      523
 95
  1310743
 70
     1
100
AcDbScale
 70
     0
300
1/32" = 1'-0"
140
0.03125
141
12.0
290
     0
  0
ACAD_PROXY_OBJECT
  5
BE
102
{ACAD_REACTORS
330
A9
102
}
330
A9
100
AcDbProxyObject
 90
      499
 91
      523
 95
  1310743
 70
     1
100
AcDbScale
 70
     0
300
1/16" = 1'-0"
140
0.0625
141
12.0
290
     0
  0
ACAD_PROXY_OBJECT
  5
BF
102
{ACAD_REACTORS
330
A9
102
}
330
A9
100
AcDbProxyObject
 90
      499
 91
      523
 95
  1310743
 70
     1
100
AcDbScale
 70
     0
300
3/32" = 1'-0"
140
0.09375
141
12.0
290
     0
  0
ACAD_PROXY_OBJECT
  5
C0
102
{ACAD_REACTORS
330
A9
102
}
330
A9
100
AcDbProxyObject
 90
      499
 91
      523
 95
  1310743
 70
     1
100
AcDbScale
 70
     0
300
1/8" = 1'-0"
140
0.125
141
12.0
290
     0
  0
ACAD_PROXY_OBJECT
  5
C1
102
{ACAD_REACTORS
330
A9
102
}
330
A9
100
AcDbProxyObject
 90
      499
 91
      523
 95
  1310743
 70
     1
100
AcDbScale
 70
     0
300
3/16" = 1'-0"
140
0.1875
141
12.0
290
     0
  0
ACAD_PROXY_OBJECT
  5
C2
102
{ACAD_REACTORS
330
A9
102
}
330
A9
100
AcDbProxyObject
 90
      499
 91
      523
 95
  1310743
 70
     1
100
AcDbScale
 70
     0
300
1/4" = 1'-0"
140
0.25
141
12.0
290
     0
  0
ACAD_PROXY_OBJECT
  5
C3
102
{ACAD_REACTORS
330
A9
102
}
330
A9
100
AcDbProxyObject
 90
      499
 91
      523
 95
  1310743
 70
     1
100
AcDbScale
 70
     0
300
3/8" = 1'-0"
140
0.375
141
12.0
290
     0
  0
ACAD_PROXY_OBJECT
  5
C4
102
{ACAD_REACTORS
330
A9
102
}
330
A9
100
AcDbProxyObject
 90
      499
 91
      523
 95
  1310743
 70
     1
100
AcDbScale
 70
     0
300
1/2" = 1'-0"
140
0.5
141
12.0
290
     0
  0
ACAD_PROXY_OBJECT
  5
C5
102
{ACAD_REACTORS
330
A9
102
}
330
A9
100
AcDbProxyObject
 90
      499
 91
      523
 95
  1310743
 70
     1
100
AcDbScale
 70
     0
300
3/4" = 1'-0"
140
0.75
141
12.0
290
     0
  0
ACAD_PROXY_OBJECT
  5
C6
102
{ACAD_REACTORS
330
A9
102
}
330
A9
100
AcDbProxyObject
 90
      499
 91
      523
 95
  1310743
 70
     1
100
AcDbScale
 70
     0
300
1" = 1'-0"
140
1.0
141
12.0
290
     0
  0
ACAD_PROXY_OBJECT
  5
C7
102
{ACAD_REACTORS
330
A9
102
}
330
A9
100
AcDbProxyObject
 90
      499
 91
      523
 95
  1310743
 70
     1
100
AcDbScale
 70
     0
300
1-1/2" = 1'-0"
140
1.5
141
12.0
290
     0
  0
ACAD_PROXY_OBJECT
  5
C8
102
{ACAD_REACTORS
330
A9
102
}
330
A9
100
AcDbProxyObject
 90
      499
 91
      523
 95
  1310743
 70
     1
100
AcDbScale
 70
     0
300
3" = 1'-0"
140
3.0
141
12.0
290
     0
  0
ACAD_PROXY_OBJECT
  5
C9
102
{ACAD_REACTORS
330
A9
102
}
330
A9
100
AcDbProxyObject
 90
      499
 91
      523
 95
  1310743
 70
     1
100
AcDbScale
 70
     0
300
6" = 1'-0"
140
6.0
141
12.0
290
     0
  0
ACAD_PROXY_OBJECT
  5
CA
102
{ACAD_REACTORS
330
A9
102
}
330
A9
100
AcDbProxyObject
 90
      499
 91
      523
 95
  1310743
 70
     1
100
AcDbScale
 70
     0
300
1'-0" = 1'-0"
140
12.0
141
12.0
290
     0
  0
TABLESTYLE
  5
A8
102
{ACAD_XDICTIONARY
360
12B
102
}
102
{ACAD_REACTORS
330
A7
102
}
330
A7
100
AcDbTableStyle
  3
Standard
 70
     0
 71
     0
 40
0.06
 41
0.06
280
     0
281
     0
  7
Standard
140
0.18
170
     2
 62
     0
 63
     7
283
     0
274
    -2
284
     1
 64
     0
275
    -2
285
     1
 65
     0
276
    -2
286
     1
 66
     0
277
    -2
287
     1
 67
     0
278
    -2
288
     1
 68
     0
279
    -2
289
     1
 69
     0
  7
Standard
140
0.25
170
     5
 62
     0
 63
     7
283
     0
274
    -2
284
     1
 64
     0
275
    -2
285
     1
 65
     0
276
    -2
286
     1
 66
     0
277
    -2
287
     1
 67
     0
278
    -2
288
     1
 68
     0
279
    -2
289
     1
 69
     0
  7
Standard
140
0.18
170
     5
 62
     0
 63
     7
283
     0
274
    -2
284
     1
 64
     0
275
    -2
285
     1
 65
     0
276
    -2
286
     1
 66
     0
277
    -2
287
     1
 67
     0
278
    -2
288
     1
 68
     0
279
    -2
289
     1
 69
     0
  0
ACAD_PROXY_OBJECT
  5
9B
102
{ACAD_REACTORS
330
95
102
}
330
95
100
AcDbProxyObject
 90
      499
 91
      521
 95
  1310743
 70
     1
100
AcDbVisualStyle
  2
2dWireframe
 70
     4
 71
     0
 72
     2
 73
     0
 90
        0
 40
-0.6
 41
-30.0
 62
     5
 63
     7
 74
     1
 91
        4
 64
     7
 65
   257
 75
     1
175
     1
 42
1.0
 92
        0
 66
   257
 43
1.0
 76
     1
 77
     6
 78
     2
 67
     7
 79
     5
170
     0
171
     0
290
     0
174
     0
 93
        1
 44
0.0
173
     0
291
     0
 45
0.0
1001
ACAD
1000
AcDbSavedByObjectVersion
1070
     0
1000
AcDbSavedByObjectVersion
1070
     0
1000
AcDbSavedByObjectVersion
1070
     0
1000
AcDbSavedByObjectVersion
1070
     0
1000
AcDbSavedByObjectVersion
1070
     0
1000
AcDbSavedByObjectVersion
1070
     0
1000
AcDbSavedByObjectVersion
1070
     0
  0
ACAD_PROXY_OBJECT
  5
9D
102
{ACAD_REACTORS
330
95
102
}
330
95
100
AcDbProxyObject
 90
      499
 91
      521
 95
  1310743
 70
     1
100
AcDbVisualStyle
  2
3D Hidden
 70
     6
 71
     1
 72
     2
 73
     2
 90
        0
 40
-0.6
 41
-30.0
 62
     5
 63
     7
 74
     2
 91
        2
 64
     7
 65
   257
 75
     2
175
     1
 42
40.0
 92
        0
 66
   257
 43
1.0
 76
     1
 77
     6
 78
     2
 67
     7
 79
     3
170
     0
171
     0
290
     0
174
     0
 93
        1
 44
0.0
173
     0
291
     0
 45
0.0
1001
ACAD
1000
AcDbSavedByObjectVersion
1070
     0
1000
AcDbSavedByObjectVersion
1070
     0
1000
AcDbSavedByObjectVersion
1070
     0
1000
AcDbSavedByObjectVersion
1070
     0
1000
AcDbSavedByObjectVersion
1070
     0
1000
AcDbSavedByObjectVersion
1070
     0
1000
AcDbSavedByObjectVersion
1070
     0
  0
ACAD_PROXY_OBJECT
  5
9C
102
{ACAD_REACTORS
330
95
102
}
330
95
100
AcDbProxyObject
 90
      499
 91
      521
 95
  1310743
 70
     1
100
AcDbVisualStyle
  2
3dWireframe
 70
     5
 71
     0
 72
     2
 73
     0
 90
        0
 40
-0.6
 41
-30.0
 62
     5
 63
     7
 74
     1
 91
        4
 64
     7
 65
   257
 75
     1
175
     1
 42
1.0
 92
        0
 66
   257
 43
1.0
 76
     1
 77
     6
 78
     2
 67
     7
 79
     5
170
     0
171
     0
290
     0
174
     0
 93
        1
 44
0.0
173
     0
291
     0
 45
0.0
1001
ACAD
1000
AcDbSavedByObjectVersion
1070
     0
1000
AcDbSavedByObjectVersion
1070
     0
1000
AcDbSavedByObjectVersion
1070
     0
1000
AcDbSavedByObjectVersion
1070
     0
1000
AcDbSavedByObjectVersion
1070
     0
1000
AcDbSavedByObjectVersion
1070
     0
1000
AcDbSavedByObjectVersion
1070
     0
  0
ACAD_PROXY_OBJECT
  5
9A
102
{ACAD_REACTORS
330
95
102
}
330
95
100
AcDbProxyObject
 90
      499
 91
      521
 95
  1310743
 70
     1
100
AcDbVisualStyle
  2
Basic
 70
     7
 71
     1
 72
     0
 73
     1
 90
        0
 40
-0.6
 41
-30.0
 62
     5
 63
     7
 74
     0
 91
        4
 64
     7
 65
   257
 75
     1
175
     1
 42
1.0
 92
        8
 66
     7
 43
1.0
 76
     1
 77
     6
 78
     2
 67
     7
 79
     5
170
     0
171
     0
290
     0
174
     0
 93
        1
 44
0.0
173
     0
291
     1
 45
0.0
1001
ACAD
1000
AcDbSavedByObjectVersion
1070
     0
1000
AcDbSavedByObjectVersion
1070
     0
1000
AcDbSavedByObjectVersion
1070
     0
1000
AcDbSavedByObjectVersion
1070
     0
1000
AcDbSavedByObjectVersion
1070
     0
1000
AcDbSavedByObjectVersion
1070
     0
1000
AcDbSavedByObjectVersion
1070
     0
  0
ACAD_PROXY_OBJECT
  5
A1
102
{ACAD_REACTORS
330
95
102
}
330
95
100
AcDbProxyObject
 90
      499
 91
      521
 95
  1310743
 70
     1
100
AcDbVisualStyle
  2
Brighten
 70
    12
 71
     2
 72
     2
 73
     0
 90
        0
 40
-0.6
 41
-30.0
 62
     5
 63
     7
 74
     1
 91
        4
 64
     7
 65
   257
 75
     1
175
     1
 42
1.0
 92
        8
 66
     7
 43
1.0
 76
     1
 77
     6
 78
     2
 67
     7
 79
     5
170
     0
171
     0
290
     0
174
     0
 93
        1
 44
50.0
173
     0
291
     1
 45
0.0
1001
ACAD
1000
AcDbSavedByObjectVersion
1070
     0
1000
AcDbSavedByObjectVersion
1070
     0
1000
AcDbSavedByObjectVersion
1070
     0
1000
AcDbSavedByObjectVersion
1070
     0
1000
AcDbSavedByObjectVersion
1070
     0
1000
AcDbSavedByObjectVersion
1070
     0
1000
AcDbSavedByObjectVersion
1070
     0
  0
ACAD_PROXY_OBJECT
  5
A5
102
{ACAD_REACTORS
330
95
102
}
330
95
100
AcDbProxyObject
 90
      499
 91
      521
 95
  1310743
 70
     1
100
AcDbVisualStyle
  2
ColorChange
 70
    16
 71
     2
 72
     2
 73
     3
 90
        0
 40
-0.6
 41
-30.0
 62
     5
 63
     8
 74
     1
 91
        4
 64
     7
 65
   257
 75
     1
175
     1
 42
1.0
 92
        8
 66
     8
 43
1.0
 76
     1
 77
     6
 78
     2
 67
     7
 79
     5
170
     0
171
     0
290
     0
174
     0
 93
        1
 44
0.0
173
     0
291
     1
 45
0.0
1001
ACAD
1000
AcDbSavedByObjectVersion
1070
     0
1000
AcDbSavedByObjectVersion
1070
     0
1000
AcDbSavedByObjectVersion
1070
     0
1000
AcDbSavedByObjectVersion
1070
     0
1000
AcDbSavedByObjectVersion
1070
     0
1000
AcDbSavedByObjectVersion
1070
     0
1000
AcDbSavedByObjectVersion
1070
     0
  0
ACAD_PROXY_OBJECT
  5
9E
102
{ACAD_REACTORS
330
95
102
}
330
95
100
AcDbProxyObject
 90
      499
 91
      521
 95
  1310743
 70
     1
100
AcDbVisualStyle
  2
Conceptual
 70
     9
 71
     3
 72
     2
 73
     0
 90
        0
 40
-0.6
 41
-30.0
 62
     5
 63
     7
 74
     2
 91
        2
 64
     7
 65
   257
 75
     1
175
     1
 42
40.0
 92
        8
 66
     7
 43
1.0
 76
     1
 77
     6
 78
     2
 67
     7
 79
     3
170
     0
171
     0
290
     0
174
     0
 93
        1
 44
0.0
173
     0
291
     0
 45
0.0
1001
ACAD
1000
AcDbSavedByObjectVersion
1070
     0
1000
AcDbSavedByObjectVersion
1070
     0
1000
AcDbSavedByObjectVersion
1070
     0
1000
AcDbSavedByObjectVersion
1070
     0
1000
AcDbSavedByObjectVersion
1070
     0
1000
AcDbSavedByObjectVersion
1070
     0
1000
AcDbSavedByObjectVersion
1070
     0
  0
ACAD_PROXY_OBJECT
  5
A0
102
{ACAD_REACTORS
330
95
102
}
330
95
100
AcDbProxyObject
 90
      499
 91
      521
 95
  1310743
 70
     1
100
AcDbVisualStyle
  2
Dim
 70
    11
 71
     2
 72
     2
 73
     0
 90
        0
 40
-0.6
 41
-30.0
 62
     5
 63
     7
 74
     1
 91
        4
 64
     7
 65
   257
 75
     1
175
     1
 42
1.0
 92
        8
 66
     7
 43
1.0
 76
     1
 77
     6
 78
     2
 67
     7
 79
     5
170
     0
171
     0
290
     0
174
     0
 93
        1
 44
-50.0
173
     0
291
     1
 45
0.0
1001
ACAD
1000
AcDbSavedByObjectVersion
1070
     0
1000
AcDbSavedByObjectVersion
1070
     0
1000
AcDbSavedByObjectVersion
1070
     0
1000
AcDbSavedByObjectVersion
1070
     0
1000
AcDbSavedByObjectVersion
1070
     0
1000
AcDbSavedByObjectVersion
1070
     0
1000
AcDbSavedByObjectVersion
1070
     0
  0
ACAD_PROXY_OBJECT
  5
A4
102
{ACAD_REACTORS
330
95
102
}
330
95
100
AcDbProxyObject
 90
      499
 91
      521
 95
  1310743
 70
     1
100
AcDbVisualStyle
  2
Facepattern
 70
    15
 71
     2
 72
     2
 73
     0
 90
        0
 40
-0.6
 41
-30.0
 62
     5
 63
     7
 74
     1
 91
        4
 64
     7
 65
   257
 75
     1
175
     1
 42
1.0
 92
        8
 66
     7
 43
1.0
 76
     1
 77
     6
 78
     2
 67
     7
 79
     5
170
     0
171
     0
290
     0
174
     0
 93
        1
 44
0.0
173
     0
291
     1
 45
0.0
1001
ACAD
1000
AcDbSavedByObjectVersion
1070
     0
1000
AcDbSavedByObjectVersion
1070
     0
1000
AcDbSavedByObjectVersion
1070
     0
1000
AcDbSavedByObjectVersion
1070
     0
1000
AcDbSavedByObjectVersion
1070
     0
1000
AcDbSavedByObjectVersion
1070
     0
1000
AcDbSavedByObjectVersion
1070
     0
  0
ACAD_PROXY_OBJECT
  5
96
102
{ACAD_REACTORS
330
95
102
}
330
95
100
AcDbProxyObject
 90
      499
 91
      521
 95
  1310743
 70
     1
100
AcDbVisualStyle
  2
Flat
 70
     0
 71
     2
 72
     1
 73
     1
 90
        2
 40
-0.6
 41
30.0
 62
     5
 63
     7
 74
     0
 91
        4
 64
     7
 65
   257
 75
     1
175
     1
 42
1.0
 92
        8
 66
     7
 43
1.0
 76
     1
 77
     6
 78
     2
 67
     7
 79
     5
170
     0
171
     0
290
     0
174
     0
 93
       13
 44
0.0
173
     0
291
     1
 45
0.0
1001
ACAD
1000
AcDbSavedByObjectVersion
1070
     0
1000
AcDbSavedByObjectVersion
1070
     0
1000
AcDbSavedByObjectVersion
1070
     0
1000
AcDbSavedByObjectVersion
1070
     0
1000
AcDbSavedByObjectVersion
1070
     0
1000
AcDbSavedByObjectVersion
1070
     0
1000
AcDbSavedByObjectVersion
1070
     0
  0
ACAD_PROXY_OBJECT
  5
97
102
{ACAD_REACTORS
330
95
102
}
330
95
100
AcDbProxyObject
 90
      499
 91
      521
 95
  1310743
 70
     1
100
AcDbVisualStyle
  2
FlatWithEdges
 70
     1
 71
     2
 72
     1
 73
     1
 90
        2
 40
-0.6
 41
30.0
 62
     5
 63
     7
 74
     1
 91
        4
 64
     7
 65
   257
 75
     1
175
     1
 42
1.0
 92
        0
 66
   257
 43
1.0
 76
     1
 77
     6
 78
     2
 67
     7
 79
     5
170
     0
171
     0
290
     0
174
     0
 93
       13
 44
0.0
173
     0
291
     1
 45
0.0
1001
ACAD
1000
AcDbSavedByObjectVersion
1070
     0
1000
AcDbSavedByObjectVersion
1070
     0
1000
AcDbSavedByObjectVersion
1070
     0
1000
AcDbSavedByObjectVersion
1070
     0
1000
AcDbSavedByObjectVersion
1070
     0
1000
AcDbSavedByObjectVersion
1070
     0
1000
AcDbSavedByObjectVersion
1070
     0
  0
ACAD_PROXY_OBJECT
  5
98
102
{ACAD_REACTORS
330
95
102
}
330
95
100
AcDbProxyObject
 90
      499
 91
      521
 95
  1310743
 70
     1
100
AcDbVisualStyle
  2
Gouraud
 70
     2
 71
     2
 72
     2
 73
     1
 90
        2
 40
-0.6
 41
30.0
 62
     5
 63
     7
 74
     0
 91
        4
 64
     7
 65
   257
 75
     1
175
     1
 42
1.0
 92
        0
 66
     7
 43
1.0
 76
     1
 77
     6
 78
     2
 67
     7
 79
     5
170
     0
171
     0
290
     0
174
     0
 93
       13
 44
0.0
173
     0
291
     1
 45
0.0
1001
ACAD
1000
AcDbSavedByObjectVersion
1070
     0
1000
AcDbSavedByObjectVersion
1070
     0
1000
AcDbSavedByObjectVersion
1070
     0
1000
AcDbSavedByObjectVersion
1070
     0
1000
AcDbSavedByObjectVersion
1070
     0
1000
AcDbSavedByObjectVersion
1070
     0
1000
AcDbSavedByObjectVersion
1070
     0
  0
ACAD_PROXY_OBJECT
  5
99
102
{ACAD_REACTORS
330
95
102
}
330
95
100
AcDbProxyObject
 90
      499
 91
      521
 95
  1310743
 70
     1
100
AcDbVisualStyle
  2
GouraudWithEdges
 70
     3
 71
     2
 72
     2
 73
     1
 90
        2
 40
-0.6
 41
30.0
 62
     5
 63
     7
 74
     1
 91
        4
 64
     7
 65
   257
 75
     1
175
     1
 42
1.0
 92
        0
 66
   257
 43
1.0
 76
     1
 77
     6
 78
     2
 67
     7
 79
     5
170
     0
171
     0
290
     0
174
     0
 93
       13
 44
0.0
173
     0
291
     1
 45
0.0
1001
ACAD
1000
AcDbSavedByObjectVersion
1070
     0
1000
AcDbSavedByObjectVersion
1070
     0
1000
AcDbSavedByObjectVersion
1070
     0
1000
AcDbSavedByObjectVersion
1070
     0
1000
AcDbSavedByObjectVersion
1070
     0
1000
AcDbSavedByObjectVersion
1070
     0
1000
AcDbSavedByObjectVersion
1070
     0
  0
ACAD_PROXY_OBJECT
  5
A3
102
{ACAD_REACTORS
330
95
102
}
330
95
100
AcDbProxyObject
 90
      499
 91
      521
 95
  1310743
 70
     1
100
AcDbVisualStyle
  2
Linepattern
 70
    14
 71
     2
 72
     2
 73
     0
 90
        0
 40
-0.6
 41
-30.0
 62
     5
 63
     7
 74
     1
 91
        4
 64
     7
 65
   257
 75
     7
175
     7
 42
1.0
 92
        8
 66
     7
 43
1.0
 76
     1
 77
     6
 78
     2
 67
     7
 79
     5
170
     0
171
     0
290
     0
174
     0
 93
        1
 44
0.0
173
     0
291
     1
 45
0.0
1001
ACAD
1000
AcDbSavedByObjectVersion
1070
     0
1000
AcDbSavedByObjectVersion
1070
     0
1000
AcDbSavedByObjectVersion
1070
     0
1000
AcDbSavedByObjectVersion
1070
     0
1000
AcDbSavedByObjectVersion
1070
     0
1000
AcDbSavedByObjectVersion
1070
     0
1000
AcDbSavedByObjectVersion
1070
     0
  0
ACAD_PROXY_OBJECT
  5
9F
102
{ACAD_REACTORS
330
95
102
}
330
95
100
AcDbProxyObject
 90
      499
 91
      521
 95
  1310743
 70
     1
100
AcDbVisualStyle
  2
Realistic
 70
     8
 71
     2
 72
     2
 73
     0
 90
        0
 40
-0.6
 41
-30.0
 62
     5
 63
     7
 74
     1
 91
        0
 64
     7
 65
   257
 75
     1
175
     1
 42
1.0
 92
        8
 66
     8
 43
1.0
 76
     1
 77
     6
 78
     2
 67
     7
 79
     5
170
     0
171
     0
290
     0
174
     0
 93
       13
 44
0.0
173
     0
291
     0
 45
0.0
1001
ACAD
1000
AcDbSavedByObjectVersion
1070
     0
1000
AcDbSavedByObjectVersion
1070
     0
1000
AcDbSavedByObjectVersion
1070
     0
1000
AcDbSavedByObjectVersion
1070
     0
1000
AcDbSavedByObjectVersion
1070
     0
1000
AcDbSavedByObjectVersion
1070
     0
1000
AcDbSavedByObjectVersion
1070
     0
  0
ACAD_PROXY_OBJECT
  5
A2
102
{ACAD_REACTORS
330
95
102
}
330
95
100
AcDbProxyObject
 90
      499
 91
      521
 95
  1310743
 70
     1
100
AcDbVisualStyle
  2
Thicken
 70
    13
 71
     2
 72
     2
 73
     0
 90
        0
 40
-0.6
 41
-30.0
 62
     5
 63
     7
 74
     1
 91
        4
 64
     7
 65
   257
 75
     1
175
     1
 42
1.0
 92
       12
 66
     7
 43
1.0
 76
     1
 77
     6
 78
     2
 67
     7
 79
     5
170
     0
171
     0
290
     0
174
     0
 93
        1
 44
0.0
173
     0
291
     1
 45
0.0
1001
ACAD
1000
AcDbSavedByObjectVersion
1070
     0
1000
AcDbSavedByObjectVersion
1070
     0
1000
AcDbSavedByObjectVersion
1070
     0
1000
AcDbSavedByObjectVersion
1070
     0
1000
AcDbSavedByObjectVersion
1070
     0
1000
AcDbSavedByObjectVersion
1070
     0
1000
AcDbSavedByObjectVersion
1070
     0
  0
DICTIONARYVAR
  5
127
102
{ACAD_REACTORS
330
124
102
}
330
124
100
DictionaryVariables
280
     0
  1
1:1
  0
DICTIONARYVAR
  5
126
102
{ACAD_REACTORS
330
124
102
}
330
124
100
DictionaryVariables
280
     0
  1
STANDARD
  0
DICTIONARYVAR
  5
125
102
{ACAD_REACTORS
330
124
102
}
330
124
100
DictionaryVariables
280
     0
  1
STANDARD
  0
DICTIONARYVAR
  5
12A
102
{ACAD_REACTORS
330
124
102
}
330
124
100
DictionaryVariables
280
     0
  1
1
  0
DICTIONARYVAR
  5
129
102
{ACAD_REACTORS
330
124
102
}
330
124
100
DictionaryVariables
280
     0
  1
0
  0
DICTIONARYVAR
  5
128
102
{ACAD_REACTORS
330
124
102
}
330
124
100
DictionaryVariables
280
     0
  1
127
  0
XRECORD
  5
27D1
102
{ACAD_REACTORS
330
27D0
102
}
330
27D0
100
AcDbXrecord
280
     1
  0
DICTIONARY
  5
86
330
85
100
AcDbDictionary
280
     1
281
     1
  3
ACAD_XREC_ROUNDTRIP
360
134
  3
BUMPTILE
360
88
  3
DIFFUSETILE
360
87
  3
OPACITYTILE
360
8B
  3
REFLECTIONTILE
360
8A
  3
REFRACTIONTILE
360
8C
  3
SPECULARTILE
360
89
  0
DICTIONARY
  5
7E
330
7D
100
AcDbDictionary
280
     1
281
     1
  3
ACAD_XREC_ROUNDTRIP
360
133
  3
BUMPTILE
360
80
  3
DIFFUSETILE
360
7F
  3
OPACITYTILE
360
83
  3
REFLECTIONTILE
360
82
  3
REFRACTIONTILE
360
84
  3
SPECULARTILE
360
81
  0
DICTIONARY
  5
8E
330
8D
100
AcDbDictionary
280
     1
281
     1
  3
ACAD_XREC_ROUNDTRIP
360
135
  3
BUMPTILE
360
90
  3
DIFFUSETILE
360
8F
  3
OPACITYTILE
360
93
  3
REFLECTIONTILE
360
92
  3
REFRACTIONTILE
360
94
  3
SPECULARTILE
360
91
  0
DICTIONARY
  5
12B
330
A8
100
AcDbDictionary
280
     1
281
     1
  3
ACAD_ROUNDTRIP_2008_TABLESTYLE_CELLSTYLEMAP
360
102A
  3
ACAD_XREC_ROUNDTRIP
360
1030
  0
XRECORD
  5
134
102
{ACAD_REACTORS
330
86
102
}
330
86
100
AcDbXrecord
280
     1
102
MATERIAL
148
0.0
149
0.0
149
0.0
 93
        0
 94
      127
282
     0
 72
     0
 77
     0
171
     0
175
     0
179
     0
273
     0
  0
XRECORD
  5
88
102
{ACAD_REACTORS
330
86
102
}
330
86
100
AcDbXrecord
280
     1
270
     1
271
     1
  0
XRECORD
  5
87
102
{ACAD_REACTORS
330
86
102
}
330
86
100
AcDbXrecord
280
     1
270
     1
271
     1
  0
XRECORD
  5
8B
102
{ACAD_REACTORS
330
86
102
}
330
86
100
AcDbXrecord
280
     1
270
     1
271
     1
  0
XRECORD
  5
8A
102
{ACAD_REACTORS
330
86
102
}
330
86
100
AcDbXrecord
280
     1
270
     1
271
     1
  0
XRECORD
  5
8C
102
{ACAD_REACTORS
330
86
102
}
330
86
100
AcDbXrecord
280
     1
270
     1
271
     1
  0
XRECORD
  5
89
102
{ACAD_REACTORS
330
86
102
}
330
86
100
AcDbXrecord
280
     1
270
     1
271
     1
  0
XRECORD
  5
133
102
{ACAD_REACTORS
330
7E
102
}
330
7E
100
AcDbXrecord
280
     1
102
MATERIAL
148
0.0
149
0.0
149
0.0
 93
        0
 94
      127
282
     0
 72
     0
 77
     0
171
     0
175
     0
179
     0
273
     0
  0
XRECORD
  5
80
102
{ACAD_REACTORS
330
7E
102
}
330
7E
100
AcDbXrecord
280
     1
270
     1
271
     1
  0
XRECORD
  5
7F
102
{ACAD_REACTORS
330
7E
102
}
330
7E
100
AcDbXrecord
280
     1
270
     1
271
     1
  0
XRECORD
  5
83
102
{ACAD_REACTORS
330
7E
102
}
330
7E
100
AcDbXrecord
280
     1
270
     1
271
     1
  0
XRECORD
  5
82
102
{ACAD_REACTORS
330
7E
102
}
330
7E
100
AcDbXrecord
280
     1
270
     1
271
     1
  0
XRECORD
  5
84
102
{ACAD_REACTORS
330
7E
102
}
330
7E
100
AcDbXrecord
280
     1
270
     1
271
     1
  0
XRECORD
  5
81
102
{ACAD_REACTORS
330
7E
102
}
330
7E
100
AcDbXrecord
280
     1
270
     1
271
     1
  0
XRECORD
  5
135
102
{ACAD_REACTORS
330
8E
102
}
330
8E
100
AcDbXrecord
280
     1
102
MATERIAL
148
0.0
149
0.0
149
0.0
 93
        0
 94
      127
282
     0
 72
     0
 77
     0
171
     0
175
     0
179
     0
273
     0
  0
XRECORD
  5
90
102
{ACAD_REACTORS
330
8E
102
}
330
8E
100
AcDbXrecord
280
     1
270
     1
271
     1
  0
XRECORD
  5
8F
102
{ACAD_REACTORS
330
8E
102
}
330
8E
100
AcDbXrecord
280
     1
270
     1
271
     1
  0
XRECORD
  5
93
102
{ACAD_REACTORS
330
8E
102
}
330
8E
100
AcDbXrecord
280
     1
270
     1
271
     1
  0
XRECORD
  5
92
102
{ACAD_REACTORS
330
8E
102
}
330
8E
100
AcDbXrecord
280
     1
270
     1
271
     1
  0
XRECORD
  5
94
102
{ACAD_REACTORS
330
8E
102
}
330
8E
100
AcDbXrecord
280
     1
270
     1
271
     1
  0
XRECORD
  5
91
102
{ACAD_REACTORS
330
8E
102
}
330
8E
100
AcDbXrecord
280
     1
270
     1
271
     1
  0
ACAD_PROXY_OBJECT
  5
102A
102
{ACAD_REACTORS
330
12B
102
}
330
12B
100
AcDbProxyObject
 90
      499
 91
      525
 95
  1310743
 70
     1
100
AcDbCellStyleMap
 90
        3
300
CELLSTYLE
  1
TABLEFORMAT_BEGIN
 90
        5
170
     1
 91
        0
 92
    32768
 62
   257
 93
        1
300
CONTENTFORMAT
  1
CONTENTFORMAT_BEGIN
 90
        0
 91
        0
 92
      512
 93
        0
300

 40
0.0
140
1.0
 94
        5
 62
     0
340
17
144
0.25
309
CONTENTFORMAT_END
171
     1
301
MARGIN
  1
CELLMARGIN_BEGIN
 40
0.06
 40
0.06
 40
0.06
 40
0.06
 40
0.18
 40
0.18
309
CELLMARGIN_END
 94
        6
 95
        1
302
GRIDFORMAT
  1
GRIDFORMAT_BEGIN
 90
        0
 91
        1
 62
     0
 92
       -2
340
0
 93
        0
 40
0.045
309
GRIDFORMAT_END
 95
        2
302
GRIDFORMAT
  1
GRIDFORMAT_BEGIN
 90
        0
 91
        1
 62
     0
 92
       -2
340
0
 93
        0
 40
0.045
309
GRIDFORMAT_END
 95
        4
302
GRIDFORMAT
  1
GRIDFORMAT_BEGIN
 90
        0
 91
        1
 62
     0
 92
       -2
340
0
 93
        0
 40
0.045
309
GRIDFORMAT_END
 95
        8
302
GRIDFORMAT
  1
GRIDFORMAT_BEGIN
 90
        0
 91
        1
 62
     0
 92
       -2
340
0
 93
        0
 40
0.045
309
GRIDFORMAT_END
 95
       16
302
GRIDFORMAT
  1
GRIDFORMAT_BEGIN
 90
        0
 91
        1
 62
     0
 92
       -2
340
0
 93
        0
 40
0.045
309
GRIDFORMAT_END
 95
       32
302
GRIDFORMAT
  1
GRIDFORMAT_BEGIN
 90
        0
 91
        1
 62
     0
 92
       -2
340
0
 93
        0
 40
0.045
309
GRIDFORMAT_END
309
TABLEFORMAT_END
  1
CELLSTYLE_BEGIN
 90
        1
 91
        1
300
_TITLE
309
CELLSTYLE_END
300
CELLSTYLE
  1
TABLEFORMAT_BEGIN
 90
        5
170
     1
 91
        0
 92
        0
 62
   257
 93
        1
300
CONTENTFORMAT
  1
CONTENTFORMAT_BEGIN
 90
        0
 91
        0
 92
      512
 93
        0
300

 40
0.0
140
1.0
 94
        5
 62
     0
340
17
144
0.18
309
CONTENTFORMAT_END
171
     1
301
MARGIN
  1
CELLMARGIN_BEGIN
 40
0.06
 40
0.06
 40
0.06
 40
0.06
 40
0.18
 40
0.18
309
CELLMARGIN_END
 94
        6
 95
        1
302
GRIDFORMAT
  1
GRIDFORMAT_BEGIN
 90
        0
 91
        1
 62
     0
 92
       -2
340
0
 93
        0
 40
0.045
309
GRIDFORMAT_END
 95
        2
302
GRIDFORMAT
  1
GRIDFORMAT_BEGIN
 90
        0
 91
        1
 62
     0
 92
       -2
340
0
 93
        0
 40
0.045
309
GRIDFORMAT_END
 95
        4
302
GRIDFORMAT
  1
GRIDFORMAT_BEGIN
 90
        0
 91
        1
 62
     0
 92
       -2
340
0
 93
        0
 40
0.045
309
GRIDFORMAT_END
 95
        8
302
GRIDFORMAT
  1
GRIDFORMAT_BEGIN
 90
        0
 91
        1
 62
     0
 92
       -2
340
0
 93
        0
 40
0.045
309
GRIDFORMAT_END
 95
       16
302
GRIDFORMAT
  1
GRIDFORMAT_BEGIN
 90
        0
 91
        1
 62
     0
 92
       -2
340
0
 93
        0
 40
0.045
309
GRIDFORMAT_END
 95
       32
302
GRIDFORMAT
  1
GRIDFORMAT_BEGIN
 90
        0
 91
        1
 62
     0
 92
       -2
340
0
 93
        0
 40
0.045
309
GRIDFORMAT_END
309
TABLEFORMAT_END
  1
CELLSTYLE_BEGIN
 90
        2
 91
        1
300
_HEADER
309
CELLSTYLE_END
300
CELLSTYLE
  1
TABLEFORMAT_BEGIN
 90
        5
170
     1
 91
        0
 92
        0
 62
   257
 93
        1
300
CONTENTFORMAT
  1
CONTENTFORMAT_BEGIN
 90
        0
 91
        0
 92
      512
 93
        0
300

 40
0.0
140
1.0
 94
        2
 62
     0
340
17
144
0.18
309
CONTENTFORMAT_END
171
     1
301
MARGIN
  1
CELLMARGIN_BEGIN
 40
0.06
 40
0.06
 40
0.06
 40
0.06
 40
0.18
 40
0.18
309
CELLMARGIN_END
 94
        6
 95
        1
302
GRIDFORMAT
  1
GRIDFORMAT_BEGIN
 90
        0
 91
        1
 62
     0
 92
       -2
340
0
 93
        0
 40
0.045
309
GRIDFORMAT_END
 95
        2
302
GRIDFORMAT
  1
GRIDFORMAT_BEGIN
 90
        0
 91
        1
 62
     0
 92
       -2
340
0
 93
        0
 40
0.045
309
GRIDFORMAT_END
 95
        4
302
GRIDFORMAT
  1
GRIDFORMAT_BEGIN
 90
        0
 91
        1
 62
     0
 92
       -2
340
0
 93
        0
 40
0.045
309
GRIDFORMAT_END
 95
        8
302
GRIDFORMAT
  1
GRIDFORMAT_BEGIN
 90
        0
 91
        1
 62
     0
 92
       -2
340
0
 93
        0
 40
0.045
309
GRIDFORMAT_END
 95
       16
302
GRIDFORMAT
  1
GRIDFORMAT_BEGIN
 90
        0
 91
        1
 62
     0
 92
       -2
340
0
 93
        0
 40
0.045
309
GRIDFORMAT_END
 95
       32
302
GRIDFORMAT
  1
GRIDFORMAT_BEGIN
 90
        0
 91
        1
 62
     0
 92
       -2
340
0
 93
        0
 40
0.045
309
GRIDFORMAT_END
309
TABLEFORMAT_END
  1
CELLSTYLE_BEGIN
 90
        3
 91
        2
300
_DATA
309
CELLSTYLE_END
  0
XRECORD
  5
1030
102
{ACAD_REACTORS
330
12B
102
}
330
12B
100
AcDbXrecord
280
     1
102
ACAD_ROUNDTRIP_PRE2007_TABLESTYLE
 90
      512
 91
        0
  1

 92
      512
 93
        0
  2

 94
      512
 95
        0
  3

  0
ENDSEC
  0
EOF
