  0
SECTION
  2
HEADER
  9
$ACADVER
  1
AC1009
  9
$INSBASE
 10
0.0
 20
0.0
 30
0.0
  9
$EXTMIN
 10
1237.9825495134139
 20
533.95941362780741
 30
-0.0000000000112498
  9
$EXTMAX
 10
1842.3272260319391
 20
919.91441952229354
 30
0.0000000000002956
  9
$LIMMIN
 10
0.0
 20
0.0
  9
$LIMMAX
 10
420.0
 20
297.0
  9
$ORTHOMODE
 70
     1
  9
$REGENMODE
 70
     1
  9
$FILLMODE
 70
     1
  9
$QTEXTMODE
 70
     0
  9
$MIRRTEXT
 70
     0
  9
$DRAGMODE
 70
     2
  9
$LTSCALE
 40
1.0
  9
$OSMODE
 70
    63
  9
$ATTMODE
 70
     1
  9
$TEXTSIZE
 40
2.5
  9
$TRACEWID
 40
1.0
  9
$TEXTSTYLE
  7
STANDARD
  9
$CLAYER
  8
0
  9
$CELTYPE
  6
BYLAYER
  9
$CECOLOR
 62
     1
  9
$DIMSCALE
 40
1.0
  9
$DIMASZ
 40
5.0
  9
$DIMEXO
 40
0.625
  9
$DIMDLI
 40
3.75
  9
$DIMRND
 40
0.0
  9
$DIMDLE
 40
0.0
  9
$DIMEXE
 40
1.25
  9
$DIMTP
 40
0.0
  9
$DIMTM
 40
0.0
  9
$DIMTXT
 40
7.0
  9
$DIMCEN
 40
2.5
  9
$DIMTSZ
 40
0.0
  9
$DIMTOL
 70
     0
  9
$DIMLIM
 70
     0
  9
$DIMTIH
 70
     0
  9
$DIMTOH
 70
     0
  9
$DIMSE1
 70
     0
  9
$DIMSE2
 70
     0
  9
$DIMTAD
 70
     1
  9
$DIMZIN
 70
     8
  9
$DIMBLK
  1

  9
$DIMASO
 70
     1
  9
$DIMSHO
 70
     1
  9
$DIMPOST
  1

  9
$DIMAPOST
  1

  9
$DIMALT
 70
     0
  9
$DIMALTD
 70
     3
  9
$DIMALTF
 40
0.03937007874016
  9
$DIMLFAC
 40
1.0
  9
$DIMTOFL
 70
     1
  9
$DIMTVP
 40
0.0
  9
$DIMTIX
 70
     0
  9
$DIMSOXD
 70
     0
  9
$DIMSAH
 70
     0
  9
$DIMBLK1
  1

  9
$DIMBLK2
  1

  9
$DIMSTYLE
  2
ISO-25
  9
$DIMCLRD
 70
     0
  9
$DIMCLRE
 70
     0
  9
$DIMCLRT
 70
     0
  9
$DIMTFAC
 40
1.0
  9
$DIMGAP
 40
0.625
  9
$LUNITS
 70
     2
  9
$LUPREC
 70
     4
  9
$SKETCHINC
 40
1.0
  9
$FILLETRAD
 40
0.0
  9
$AUNITS
 70
     0
  9
$AUPREC
 70
     0
  9
$MENU
  1
.
  9
$ELEVATION
 40
0.0
  9
$PELEVATION
 40
0.0
  9
$THICKNESS
 40
0.0
  9
$LIMCHECK
 70
     0
  9
$BLIPMODE
 70
     0
  9
$CHAMFERA
 40
0.0
  9
$CHAMFERB
 40
0.0
  9
$SKPOLY
 70
     0
  9
$TDCREATE
 40
2455759.6647128118
  9
$TDUPDATE
 40
2455761.7368473262
  9
$TDINDWG
 40
0.4066496759
  9
$TDUSRTIMER
 40
0.4066496759
  9
$USRTIMER
 70
     1
  9
$ANGBASE
 50
0.0
  9
$ANGDIR
 70
     0
  9
$PDMODE
 70
     0
  9
$PDSIZE
 40
0.0
  9
$PLINEWID
 40
0.0
  9
$COORDS
 70
     0
  9
$SPLFRAME
 70
     0
  9
$SPLINETYPE
 70
     6
  9
$SPLINESEGS
 70
     8
  9
$ATTDIA
 70
     0
  9
$ATTREQ
 70
     1
  9
$HANDLING
 70
     1
  9
$HANDSEED
  5
CB6
  9
$SURFTAB1
 70
     6
  9
$SURFTAB2
 70
     6
  9
$SURFTYPE
 70
     6
  9
$SURFU
 70
     6
  9
$SURFV
 70
     6
  9
$UCSNAME
  2

  9
$UCSORG
 10
0.0
 20
0.0
 30
0.0
  9
$UCSXDIR
 10
1.0
 20
0.0
 30
0.0
  9
$UCSYDIR
 10
0.0
 20
1.0
 30
0.0
  9
$PUCSNAME
  2

  9
$PUCSORG
 10
0.0
 20
0.0
 30
0.0
  9
$PUCSXDIR
 10
1.0
 20
0.0
 30
0.0
  9
$PUCSYDIR
 10
0.0
 20
1.0
 30
0.0
  9
$USERI1
 70
     0
  9
$USERI2
 70
     0
  9
$USERI3
 70
     0
  9
$USERI4
 70
     0
  9
$USERI5
 70
     0
  9
$USERR1
 40
0.0
  9
$USERR2
 40
0.0
  9
$USERR3
 40
0.0
  9
$USERR4
 40
0.0
  9
$USERR5
 40
0.0
  9
$WORLDVIEW
 70
     1
  9
$SHADEDGE
 70
     3
  9
$SHADEDIF
 70
    70
  9
$TILEMODE
 70
     1
  9
$MAXACTVP
 70
    64
  9
$PLIMCHECK
 70
     0
  9
$PEXTMIN
 10
0.0
 20
0.0
 30
0.0
  9
$PEXTMAX
 10
0.0
 20
0.0
 30
0.0
  9
$PLIMMIN
 10
0.0
 20
0.0
  9
$PLIMMAX
 10
12.0
 20
9.0
  9
$UNITMODE
 70
     0
  9
$VISRETAIN
 70
     1
  9
$PLINEGEN
 70
     0
  9
$PSLTSCALE
 70
     1
  0
ENDSEC
  0
SECTION
  2
TABLES
  0
TABLE
  2
VPORT
 70
     1
  0
VPORT
  2
*ACTIVE
 70
     0
 10
0.0
 20
0.0
 11
1.0
 21
1.0
 12
1540.1548877726759
 22
726.93691657505042
 13
0.0
 23
0.0
 14
10.0
 24
10.0
 15
10.0
 25
10.0
 16
0.0
 26
0.0
 36
1.0
 17
0.0
 27
0.0
 37
0.0
 40
390.945803384501
 41
2.088552915766738
 42
50.0
 43
0.0
 44
0.0
 50
0.0
 51
0.0
 71
     0
 72
  1000
 73
     1
 74
     3
 75
     0
 76
     0
 77
     0
 78
     0
  0
ENDTAB
  0
TABLE
  2
LTYPE
 70
     2
  0
LTYPE
  2
CONTINUOUS
 70
     0
  3
Solid line
 72
    65
 73
     0
 40
0.0
  0
ENDTAB
  0
TABLE
  2
LAYER
 70
     2
  0
LAYER
  2
0
 70
     0
 62
     7
  6
CONTINUOUS
  0
LAYER
  2
DEFPOINTS
 70
     0
 62
     7
  6
CONTINUOUS
  0
ENDTAB
  0
TABLE
  2
STYLE
 70
     7
  0
STYLE
  2
STANDARD
 70
     0
 40
0.0
 41
1.0
 50
0.0
 71
     0
 42
2.5
  3
txt
  4
gbcbig.shx
  0
ENDTAB
  0
TABLE
  2
VIEW
 70
    54
  0
ENDTAB
  0
TABLE
  2
UCS
 70
     0
  0
ENDTAB
  0
TABLE
  2
APPID
 70
     4
  0
APPID
  2
ACAD
 70
     0
  0
APPID
  2
ACAD_PSEXT
 70
     0
  0
APPID
  2
ACAD_DSTYLE_DIMRADIAL_EXTENSION
 70
     0
  0
APPID
  2
ACAD_EXEMPT_FROM_CAD_STANDARDS
 70
     0
  0
ENDTAB
  0
TABLE
  2
DIMSTYLE
 70
     9
  0
DIMSTYLE
  2
ISO-25
 70
     0
  3

  4

  5

  6

  7

 40
1.0
 41
5.0
 42
0.625
 43
3.75
 44
1.25
 45
0.0
 46
0.0
 47
0.0
 48
0.0
140
7.0
141
2.5
142
0.0
143
0.03937007874016
144
1.0
145
0.0
146
1.0
147
0.625
 71
     0
 72
     0
 73
     0
 74
     0
 75
     0
 76
     0
 77
     1
 78
     8
170
     0
171
     3
172
     1
173
     0
174
     0
175
     0
176
     0
177
     0
178
     0
  0
DIMSTYLE
  2
STANDARD
 70
     0
  3

  4

  5

  6

  7

 40
1.0
 41
0.18
 42
0.0625
 43
0.38
 44
0.18
 45
0.0
 46
0.0
 47
0.0
 48
0.0
140
0.18
141
0.09
142
0.0
143
25.399999999999999
144
1.0
145
0.0
146
1.0
147
0.09
 71
     0
 72
     0
 73
     1
 74
     1
 75
     0
 76
     0
 77
     0
 78
     0
170
     0
171
     2
172
     0
173
     0
174
     0
175
     0
176
     0
177
     0
178
     0
  0
ENDTAB
  0
ENDSEC
  0
SECTION
  2
BLOCKS
  0
BLOCK
  8
0
  2
$MODEL_SPACE
 70
     0
 10
0.0
 20
0.0
 30
0.0
  3
$MODEL_SPACE
  1

  0
ENDBLK
  5
21
  8
0
  0
BLOCK
 67
     1
  8
0
  2
$PAPER_SPACE
 70
     0
 10
0.0
 20
0.0
 30
0.0
  3
$PAPER_SPACE
  1

  0
ENDBLK
  5
D5
 67
     1
  8
0
  0
BLOCK
  8
0
  2
_ARCHTICK
 70
     0
 10
0.0
 20
0.0
 30
0.0
  3
_ARCHTICK
  1

  0
POLYLINE
  5
133
  8
0
  6
BYBLOCK
 62
     0
 66
     1
 10
0.0
 20
0.0
 30
0.0
 40
0.15
 41
0.15
  0
VERTEX
  5
B86
  8
0
  6
BYBLOCK
 62
     0
 10
-0.5
 20
-0.5
 30
0.0
  0
VERTEX
  5
B87
  8
0
  6
BYBLOCK
 62
     0
 10
0.5
 20
0.5
 30
0.0
  0
SEQEND
  5
B88
  8
0
  6
BYBLOCK
 62
     0
  0
ENDBLK
  5
134
  8
0
  0
BLOCK
  8
0
  2
*D16
 70
     1
 10
0.0
 20
0.0
 30
0.0
  3
*D16
  1

  0
LINE
  5
30A
  8
0
  6
CONTINUOUS
 62
     0
 10
1465.853781812448
 20
817.36334392065646
 30
0.0
 11
1457.053088894723
 21
817.36334392065646
 31
0.0
  0
LINE
  5
30B
  8
0
  6
CONTINUOUS
 62
     0
 10
1465.853781812448
 20
837.36334392065635
 30
0.0
 11
1457.053088894723
 21
837.36334392065635
 31
0.0
  0
LINE
  5
30C
  8
0
  6
CONTINUOUS
 62
     0
 10
1457.2330888947231
 20
819.36334392065635
 30
0.0
 11
1457.2330888947231
 21
835.36334392065635
 31
0.0
  0
LINE
  5
30D
  8
0
  6
CONTINUOUS
 62
     0
 10
1457.2330888947231
 20
837.36334392065635
 30
0.0
 11
1457.2330888947231
 21
886.54991642813627
 31
0.0
  0
LINE
  5
30E
  8
0
  6
CONTINUOUS
 62
     0
 10
1457.2330888947231
 20
886.54991642813627
 30
0.0
 11
1459.2330888947231
 21
886.54991642813627
 31
0.0
  0
SOLID
  5
30F
  8
0
  6
CONTINUOUS
 62
     0
 10
1456.8997555613901
 20
819.36334392065635
 30
0.0
 11
1457.5664222280559
 21
819.36334392065635
 31
0.0
 12
1457.2330888947231
 22
817.36334392065646
 32
0.0
 13
1457.2330888947231
 23
817.36334392065646
 33
0.0
  0
SOLID
  5
310
  8
0
  6
CONTINUOUS
 62
     0
 10
1456.8997555613901
 20
835.36334392065635
 30
0.0
 11
1457.5664222280559
 21
835.36334392065635
 31
0.0
 12
1457.2330888947231
 22
837.36334392065635
 32
0.0
 13
1457.2330888947231
 23
837.36334392065635
 33
0.0
  0
INSERT
  5
311
  8
0
 62
     1
  2
*U96
 10
0.0
 20
0.0
 30
0.0
  0
POINT
  5
312
  8
DEFPOINTS
  6
CONTINUOUS
 62
     0
 10
1465.9162818124489
 20
817.36334392065646
 30
0.0
  0
POINT
  5
313
  8
DEFPOINTS
  6
CONTINUOUS
 62
     0
 10
1465.9162818124489
 20
837.36334392065635
 30
0.0
  0
POINT
  5
314
  8
DEFPOINTS
  6
CONTINUOUS
 62
     0
 10
1457.2330888947231
 20
837.36334392065635
 30
0.0
  0
ENDBLK
  5
26E
  8
0
  0
BLOCK
  8
0
  2
*D17
 70
     1
 10
0.0
 20
0.0
 30
0.0
  3
*D17
  1

  0
LINE
  5
5B4
  8
0
  6
CONTINUOUS
 62
     0
 10
1522.942846347936
 20
664.30894579416645
 30
0.0
 11
1522.942846347936
 21
640.75454766767757
 31
0.0
  0
LINE
  5
5B5
  8
0
  6
CONTINUOUS
 62
     0
 10
1327.9428463479351
 20
664.30894579416645
 30
0.0
 11
1327.9428463479351
 21
640.75454766767757
 31
0.0
  0
LINE
  5
5B6
  8
0
  6
CONTINUOUS
 62
     3
 10
1525.942846347936
 20
650.75454766767746
 30
0.0
 11
1324.9428463479351
 21
650.75454766767746
 31
0.0
  0
INSERT
  5
5B7
  8
0
  6
CONTINUOUS
 62
     3
  2
_ARCHTICK
 10
1522.942846347936
 20
650.75454766767746
 30
0.0
 41
0.4
 42
0.4
 43
0.4
  0
INSERT
  5
5B8
  8
0
  6
CONTINUOUS
 62
     3
  2
_ARCHTICK
 10
1327.9428463479351
 20
650.75454766767746
 30
0.0
 41
0.4
 42
0.4
 43
0.4
 50
180.0
  0
INSERT
  5
5B9
  8
0
 62
     1
  2
*U119
 10
0.0
 20
0.0
 30
0.0
  0
POINT
  5
5BA
  8
DEFPOINTS
  6
CONTINUOUS
 62
     0
 10
1522.942846347936
 20
667.30894579416645
 30
0.0
  0
POINT
  5
5BB
  8
DEFPOINTS
  6
CONTINUOUS
 62
     0
 10
1327.9428463479351
 20
667.30894579416645
 30
0.0
  0
POINT
  5
5BC
  8
DEFPOINTS
  6
CONTINUOUS
 62
     0
 10
1327.9428463479351
 20
650.75454766767746
 30
0.0
  0
ENDBLK
  5
27A
  8
0
  0
BLOCK
  8
0
  2
*D18
 70
     1
 10
0.0
 20
0.0
 30
0.0
  3
*D18
  1

  0
LINE
  5
5AB
  8
0
  6
CONTINUOUS
 62
     0
 10
1293.464064458429
 20
863.86334392065658
 30
0.0
 11
1270.9852825689211
 21
863.8633439206568
 31
0.0
  0
LINE
  5
5AC
  8
0
  6
CONTINUOUS
 62
     0
 10
1294.9640644584269
 20
696.86334392065635
 30
0.0
 11
1270.9852825689211
 21
696.86334392065646
 31
0.0
  0
LINE
  5
5AD
  8
0
  6
CONTINUOUS
 62
     3
 10
1280.9852825689211
 20
866.86334392065669
 30
0.0
 11
1280.9852825689211
 21
693.86334392065635
 31
0.0
  0
INSERT
  5
5AE
  8
0
  6
CONTINUOUS
 62
     3
  2
_ARCHTICK
 10
1280.9852825689211
 20
863.86334392065658
 30
0.0
 41
0.4
 42
0.4
 43
0.4
 50
90.0
  0
INSERT
  5
5AF
  8
0
  6
CONTINUOUS
 62
     3
  2
_ARCHTICK
 10
1280.9852825689211
 20
696.86334392065635
 30
0.0
 41
0.4
 42
0.4
 43
0.4
 50
270.0
  0
INSERT
  5
5B0
  8
0
 62
     1
  2
*U118
 10
0.0
 20
0.0
 30
0.0
  0
POINT
  5
5B1
  8
DEFPOINTS
  6
CONTINUOUS
 62
     0
 10
1296.464064458429
 20
863.86334392065658
 30
0.0
  0
POINT
  5
5B2
  8
DEFPOINTS
  6
CONTINUOUS
 62
     0
 10
1297.9640644584269
 20
696.86334392065635
 30
0.0
  0
POINT
  5
5B3
  8
DEFPOINTS
  6
CONTINUOUS
 62
     0
 10
1280.9852825689211
 20
696.86334392065635
 30
0.0
  0
ENDBLK
  5
286
  8
0
  0
BLOCK
  8
0
  2
*D19
 70
     1
 10
0.0
 20
0.0
 30
0.0
  3
*D19
  1

  0
LINE
  5
5FB
  8
0
  6
CONTINUOUS
 62
     3
 10
1688.9673618654961
 20
785.41402549897589
 30
0.0
 11
1622.4156966422111
 21
844.05772003983145
 31
0.0
  0
INSERT
  5
5FC
  8
0
 62
     1
  2
*U127
 10
0.0
 20
0.0
 30
0.0
  0
INSERT
  5
5FD
  8
0
  6
CONTINUOUS
 62
     3
  2
_ARCHTICK
 10
1622.4156966422111
 20
844.05772003983145
 30
0.0
 41
0.4
 42
0.4
 43
0.4
 50
138.61428887201521
  0
LINE
  5
5FE
  8
0
  6
CONTINUOUS
 62
     0
 10
1616.664316794936
 20
847.36334392064941
 30
0.0
 11
1620.664316794936
 21
847.36334392064907
 31
0.0
  0
LINE
  5
5FF
  8
0
  6
CONTINUOUS
 62
     0
 10
1618.664316794936
 20
845.36334392064953
 30
0.0
 11
1618.664316794936
 21
849.36334392064964
 31
0.0
  0
POINT
  5
600
  8
DEFPOINTS
  6
CONTINUOUS
 62
     0
 10
1622.4156966422111
 20
844.05772003983145
 30
0.0
  0
POINT
  5
601
  8
DEFPOINTS
  6
CONTINUOUS
 62
     0
 10
1618.664316794936
 20
847.36334392064941
 30
0.0
  0
ENDBLK
  5
290
  8
0
  0
BLOCK
  8
0
  2
*D20
 70
     1
 10
0.0
 20
0.0
 30
0.0
  3
*D20
  1

  0
LINE
  5
5C6
  8
0
  6
CONTINUOUS
 62
     0
 10
1601.664316794936
 20
645.09939098265954
 30
0.0
 11
1601.664316794936
 21
601.83543804466376
 31
0.0
  0
LINE
  5
5C7
  8
0
  6
CONTINUOUS
 62
     0
 10
1796.6643167949369
 20
645.09939098265954
 30
0.0
 11
1796.6643167949369
 21
601.83543804466376
 31
0.0
  0
LINE
  5
5C8
  8
0
  6
CONTINUOUS
 62
     3
 10
1598.664316794936
 20
611.83543804466365
 30
0.0
 11
1799.6643167949369
 21
611.83543804466365
 31
0.0
  0
INSERT
  5
5C9
  8
0
  6
CONTINUOUS
 62
     3
  2
_ARCHTICK
 10
1601.664316794936
 20
611.83543804466365
 30
0.0
 41
0.4
 42
0.4
 43
0.4
 50
180.0
  0
INSERT
  5
5CA
  8
0
  6
CONTINUOUS
 62
     3
  2
_ARCHTICK
 10
1796.6643167949369
 20
611.83543804466365
 30
0.0
 41
0.4
 42
0.4
 43
0.4
  0
INSERT
  5
5CB
  8
0
 62
     1
  2
*U121
 10
0.0
 20
0.0
 30
0.0
  0
POINT
  5
5CC
  8
DEFPOINTS
  6
CONTINUOUS
 62
     0
 10
1601.664316794936
 20
648.09939098265954
 30
0.0
  0
POINT
  5
5CD
  8
DEFPOINTS
  6
CONTINUOUS
 62
     0
 10
1796.6643167949369
 20
648.09939098265954
 30
0.0
  0
POINT
  5
5CE
  8
DEFPOINTS
  6
CONTINUOUS
 62
     0
 10
1796.6643167949369
 20
611.83543804466365
 30
0.0
  0
ENDBLK
  5
29C
  8
0
  0
BLOCK
  8
0
  2
*D21
 70
     1
 10
0.0
 20
0.0
 30
0.0
  3
*D21
  1

  0
LINE
  5
5E2
  8
0
  6
CONTINUOUS
 62
     0
 10
1838.7663016924851
 20
854.36334392065669
 30
0.0
 11
1887.86828659003
 21
854.36334392065669
 31
0.0
  0
LINE
  5
5E3
  8
0
  6
CONTINUOUS
 62
     0
 10
1838.7663016924851
 20
707.36334392065635
 30
0.0
 11
1887.86828659003
 21
707.36334392065635
 31
0.0
  0
LINE
  5
5E4
  8
0
  6
CONTINUOUS
 62
     3
 10
1877.86828659003
 20
857.36334392065669
 30
0.0
 11
1877.86828659003
 21
704.36334392065646
 31
0.0
  0
INSERT
  5
5E5
  8
0
  6
CONTINUOUS
 62
     3
  2
_ARCHTICK
 10
1877.86828659003
 20
854.36334392065669
 30
0.0
 41
0.4
 42
0.4
 43
0.4
 50
90.0
  0
INSERT
  5
5E6
  8
0
  6
CONTINUOUS
 62
     3
  2
_ARCHTICK
 10
1877.86828659003
 20
707.36334392065635
 30
0.0
 41
0.4
 42
0.4
 43
0.4
 50
270.0
  0
INSERT
  5
5E7
  8
0
 62
     1
  2
*U124
 10
0.0
 20
0.0
 30
0.0
  0
POINT
  5
5E8
  8
DEFPOINTS
  6
CONTINUOUS
 62
     0
 10
1835.7663016924851
 20
854.36334392065669
 30
0.0
  0
POINT
  5
5E9
  8
DEFPOINTS
  6
CONTINUOUS
 62
     0
 10
1835.7663016924851
 20
707.36334392065635
 30
0.0
  0
POINT
  5
5EA
  8
DEFPOINTS
  6
CONTINUOUS
 62
     0
 10
1877.86828659003
 20
707.36334392065635
 30
0.0
  0
ENDBLK
  5
2A8
  8
0
  0
BLOCK
  8
0
  2
*D22
 70
     1
 10
0.0
 20
0.0
 30
0.0
  3
*D22
  1

  0
LINE
  5
5D9
  8
0
  6
CONTINUOUS
 62
     0
 10
1863.9060183970969
 20
864.36334392065669
 30
0.0
 11
1922.1477199992571
 21
864.36334392065669
 31
0.0
  0
LINE
  5
5DA
  8
0
  6
CONTINUOUS
 62
     0
 10
1863.9060183970969
 20
697.36334392065635
 30
0.0
 11
1922.1477199992571
 21
697.36334392065635
 31
0.0
  0
LINE
  5
5DB
  8
0
  6
CONTINUOUS
 62
     3
 10
1912.1477199992571
 20
867.36334392065658
 30
0.0
 11
1912.1477199992571
 21
694.36334392065635
 31
0.0
  0
INSERT
  5
5DC
  8
0
  6
CONTINUOUS
 62
     3
  2
_ARCHTICK
 10
1912.1477199992571
 20
864.36334392065669
 30
0.0
 41
0.4
 42
0.4
 43
0.4
 50
90.0
  0
INSERT
  5
5DD
  8
0
  6
CONTINUOUS
 62
     3
  2
_ARCHTICK
 10
1912.1477199992571
 20
697.36334392065635
 30
0.0
 41
0.4
 42
0.4
 43
0.4
 50
270.0
  0
INSERT
  5
5DE
  8
0
 62
     1
  2
*U123
 10
0.0
 20
0.0
 30
0.0
  0
POINT
  5
5DF
  8
DEFPOINTS
  6
CONTINUOUS
 62
     0
 10
1860.9060183970969
 20
864.36334392065669
 30
0.0
  0
POINT
  5
5E0
  8
DEFPOINTS
  6
CONTINUOUS
 62
     0
 10
1860.9060183970969
 20
697.36334392065635
 30
0.0
  0
POINT
  5
5E1
  8
DEFPOINTS
  6
CONTINUOUS
 62
     0
 10
1912.1477199992571
 20
697.36334392065635
 30
0.0
  0
ENDBLK
  5
2B4
  8
0
  0
BLOCK
  8
0
  2
*D23
 70
     1
 10
0.0
 20
0.0
 30
0.0
  3
*D23
  1

  0
LINE
  5
5BD
  8
0
  6
CONTINUOUS
 62
     0
 10
1611.6643167949369
 20
680.77635364932667
 30
0.0
 11
1611.6643167949369
 21
641.23487878277535
 31
0.0
  0
LINE
  5
5BE
  8
0
  6
CONTINUOUS
 62
     0
 10
1786.6643167949369
 20
672.29911135171574
 30
0.0
 11
1786.6643167949369
 21
641.23487878277535
 31
0.0
  0
LINE
  5
5BF
  8
0
  6
CONTINUOUS
 62
     3
 10
1608.6643167949369
 20
651.23487878277535
 30
0.0
 11
1789.6643167949369
 21
651.23487878277535
 31
0.0
  0
INSERT
  5
5C0
  8
0
  6
CONTINUOUS
 62
     3
  2
_ARCHTICK
 10
1611.6643167949369
 20
651.23487878277535
 30
0.0
 41
0.4
 42
0.4
 43
0.4
 50
180.0
  0
INSERT
  5
5C1
  8
0
  6
CONTINUOUS
 62
     3
  2
_ARCHTICK
 10
1786.6643167949369
 20
651.23487878277535
 30
0.0
 41
0.4
 42
0.4
 43
0.4
  0
INSERT
  5
5C2
  8
0
 62
     1
  2
*U120
 10
0.0
 20
0.0
 30
0.0
  0
POINT
  5
5C3
  8
DEFPOINTS
  6
CONTINUOUS
 62
     0
 10
1611.6643167949369
 20
683.77635364932655
 30
0.0
  0
POINT
  5
5C4
  8
DEFPOINTS
  6
CONTINUOUS
 62
     0
 10
1786.6643167949369
 20
675.29911135171574
 30
0.0
  0
POINT
  5
5C5
  8
DEFPOINTS
  6
CONTINUOUS
 62
     0
 10
1786.6643167949369
 20
651.23487878277535
 30
0.0
  0
ENDBLK
  5
2C0
  8
0
  0
BLOCK
  8
0
  2
*D24
 70
     1
 10
0.0
 20
0.0
 30
0.0
  3
*D24
  1

  0
LINE
  5
5CF
  8
0
  6
CONTINUOUS
 62
     0
 10
1786.6643167949369
 20
783.36334392065646
 30
0.0
 11
1786.6643167949369
 21
797.3769265084436
 31
0.0
  0
LINE
  5
5D0
  8
0
  6
CONTINUOUS
 62
     0
 10
1796.6643167949369
 20
783.36334392065646
 30
0.0
 11
1796.6643167949369
 21
797.3769265084436
 31
0.0
  0
LINE
  5
5D1
  8
0
  6
CONTINUOUS
 62
     3
 10
1783.6643167949369
 20
787.3769265084436
 30
0.0
 11
1796.6643167949369
 21
787.3769265084436
 31
0.0
  0
LINE
  5
5D2
  8
0
  6
CONTINUOUS
 62
     3
 10
1796.6643167949369
 20
787.3769265084436
 30
0.0
 11
1853.730983461604
 21
787.3769265084436
 31
0.0
  0
INSERT
  5
5D3
  8
0
  6
CONTINUOUS
 62
     3
  2
_ARCHTICK
 10
1786.6643167949369
 20
787.3769265084436
 30
0.0
 41
0.4
 42
0.4
 43
0.4
 50
180.0
  0
INSERT
  5
5D4
  8
0
  6
CONTINUOUS
 62
     3
  2
_ARCHTICK
 10
1796.6643167949369
 20
787.3769265084436
 30
0.0
 41
0.4
 42
0.4
 43
0.4
  0
INSERT
  5
5D5
  8
0
 62
     1
  2
*U122
 10
0.0
 20
0.0
 30
0.0
  0
POINT
  5
5D6
  8
DEFPOINTS
  6
CONTINUOUS
 62
     0
 10
1786.6643167949369
 20
780.36334392065635
 30
0.0
  0
POINT
  5
5D7
  8
DEFPOINTS
  6
CONTINUOUS
 62
     0
 10
1796.6643167949369
 20
780.36334392065635
 30
0.0
  0
POINT
  5
5D8
  8
DEFPOINTS
  6
CONTINUOUS
 62
     0
 10
1796.6643167949369
 20
787.3769265084436
 30
0.0
  0
ENDBLK
  5
2CD
  8
0
  0
BLOCK
  8
0
  2
*D25
 70
     1
 10
0.0
 20
0.0
 30
0.0
  3
*D25
  1

  0
LINE
  5
5A1
  8
0
  6
CONTINUOUS
 62
     0
 10
1354.9428463479351
 20
870.28766871910375
 30
0.0
 11
1354.9428463479351
 21
891.48661997258262
 31
0.0
  0
LINE
  5
5A2
  8
0
  6
CONTINUOUS
 62
     0
 10
1327.9428463479369
 20
870.28766871910375
 30
0.0
 11
1327.9428463479369
 21
891.48661997258262
 31
0.0
  0
LINE
  5
5A3
  8
0
  6
CONTINUOUS
 62
     3
 10
1357.9428463479351
 20
881.48661997258273
 30
0.0
 11
1327.9428463479369
 21
881.48661997258273
 31
0.0
  0
LINE
  5
5A4
  8
0
  6
CONTINUOUS
 62
     3
 10
1327.9428463479369
 20
881.48661997258273
 30
0.0
 11
1260.8761796812701
 21
881.48661997258273
 31
0.0
  0
INSERT
  5
5A5
  8
0
  6
CONTINUOUS
 62
     3
  2
_ARCHTICK
 10
1354.9428463479351
 20
881.48661997258273
 30
0.0
 41
0.4
 42
0.4
 43
0.4
  0
INSERT
  5
5A6
  8
0
  6
CONTINUOUS
 62
     3
  2
_ARCHTICK
 10
1327.9428463479369
 20
881.48661997258273
 30
0.0
 41
0.4
 42
0.4
 43
0.4
 50
180.0
  0
INSERT
  5
5A7
  8
0
 62
     1
  2
*U117
 10
0.0
 20
0.0
 30
0.0
  0
POINT
  5
5A8
  8
DEFPOINTS
  6
CONTINUOUS
 62
     0
 10
1354.9428463479351
 20
867.28766871910364
 30
0.0
  0
POINT
  5
5A9
  8
DEFPOINTS
  6
CONTINUOUS
 62
     0
 10
1327.9428463479369
 20
867.28766871910364
 30
0.0
  0
POINT
  5
5AA
  8
DEFPOINTS
  6
CONTINUOUS
 62
     0
 10
1327.9428463479369
 20
881.48661997258273
 30
0.0
  0
ENDBLK
  5
2DA
  8
0
  0
BLOCK
  8
0
  2
*D26
 70
     1
 10
0.0
 20
0.0
 30
0.0
  3
*D26
  1

  0
LINE
  5
597
  8
0
  6
CONTINUOUS
 62
     0
 10
1397.610896109841
 20
837.36334392065635
 30
0.0
 11
1390.6108961098421
 21
837.36334392065635
 31
0.0
  0
LINE
  5
598
  8
0
  6
CONTINUOUS
 62
     0
 10
1397.610896109841
 20
863.86334392065658
 30
0.0
 11
1390.6108961098421
 21
863.86334392065658
 31
0.0
  0
LINE
  5
599
  8
0
  6
CONTINUOUS
 62
     3
 10
1400.610896109841
 20
834.36334392065635
 30
0.0
 11
1400.610896109841
 21
863.86334392065658
 31
0.0
  0
LINE
  5
59A
  8
0
  6
CONTINUOUS
 62
     3
 10
1400.610896109841
 20
863.86334392065658
 30
0.0
 11
1400.610896109841
 21
934.26334392065667
 31
0.0
  0
INSERT
  5
59B
  8
0
  6
CONTINUOUS
 62
     3
  2
_ARCHTICK
 10
1400.610896109841
 20
837.36334392065635
 30
0.0
 41
0.4
 42
0.4
 43
0.4
 50
270.0
  0
INSERT
  5
59C
  8
0
  6
CONTINUOUS
 62
     3
  2
_ARCHTICK
 10
1400.610896109841
 20
863.86334392065658
 30
0.0
 41
0.4
 42
0.4
 43
0.4
 50
90.0
  0
INSERT
  5
59D
  8
0
 62
     1
  2
*U116
 10
0.0
 20
0.0
 30
0.0
  0
POINT
  5
59E
  8
DEFPOINTS
  6
CONTINUOUS
 62
     0
 10
1400.610896109841
 20
837.36334392065635
 30
0.0
  0
POINT
  5
59F
  8
DEFPOINTS
  6
CONTINUOUS
 62
     0
 10
1400.610896109841
 20
863.86334392065658
 30
0.0
  0
POINT
  5
5A0
  8
DEFPOINTS
  6
CONTINUOUS
 62
     0
 10
1400.610896109841
 20
863.86334392065658
 30
0.0
  0
ENDBLK
  5
2E7
  8
0
  0
BLOCK
  8
0
  2
*D27
 70
     1
 10
0.0
 20
0.0
 30
0.0
  3
*D27
  1

  0
LINE
  5
5F4
  8
0
  6
CONTINUOUS
 62
     3
 10
2052.595046552231
 20
785.41402549898157
 30
0.0
 11
1986.0433813289419
 21
844.05772003983191
 31
0.0
  0
INSERT
  5
5F5
  8
0
 62
     1
  2
*U126
 10
0.0
 20
0.0
 30
0.0
  0
INSERT
  5
5F6
  8
0
  6
CONTINUOUS
 62
     3
  2
_ARCHTICK
 10
1986.0433813289419
 20
844.05772003983191
 30
0.0
 41
0.4
 42
0.4
 43
0.4
 50
138.61428887201919
  0
LINE
  5
5F7
  8
0
  6
CONTINUOUS
 62
     0
 10
1980.292001481668
 20
847.36334392064941
 30
0.0
 11
1984.292001481668
 21
847.36334392064941
 31
0.0
  0
LINE
  5
5F8
  8
0
  6
CONTINUOUS
 62
     0
 10
1982.292001481668
 20
845.36334392064953
 30
0.0
 11
1982.292001481668
 21
849.36334392064964
 31
0.0
  0
POINT
  5
5F9
  8
DEFPOINTS
  6
CONTINUOUS
 62
     0
 10
1986.0433813289419
 20
844.05772003983191
 30
0.0
  0
POINT
  5
5FA
  8
DEFPOINTS
  6
CONTINUOUS
 62
     0
 10
1982.292001481668
 20
847.36334392064941
 30
0.0
  0
ENDBLK
  5
2F1
  8
0
  0
BLOCK
  8
0
  2
*D28
 70
     1
 10
0.0
 20
0.0
 30
0.0
  3
*D28
  1

  0
LINE
  5
5EB
  8
0
  6
CONTINUOUS
 62
     0
 10
2179.9361458420099
 20
854.36334392065669
 30
0.0
 11
2229.038130739556
 21
854.36334392065669
 31
0.0
  0
LINE
  5
5EC
  8
0
  6
CONTINUOUS
 62
     0
 10
2179.9361458420099
 20
707.36334392065635
 30
0.0
 11
2229.038130739556
 21
707.36334392065635
 31
0.0
  0
LINE
  5
5ED
  8
0
  6
CONTINUOUS
 62
     3
 10
2219.038130739556
 20
857.36334392065669
 30
0.0
 11
2219.038130739556
 21
704.36334392065646
 31
0.0
  0
INSERT
  5
5EE
  8
0
  6
CONTINUOUS
 62
     3
  2
_ARCHTICK
 10
2219.038130739556
 20
854.36334392065669
 30
0.0
 41
0.4
 42
0.4
 43
0.4
 50
90.0
  0
INSERT
  5
5EF
  8
0
  6
CONTINUOUS
 62
     3
  2
_ARCHTICK
 10
2219.038130739556
 20
707.36334392065635
 30
0.0
 41
0.4
 42
0.4
 43
0.4
 50
270.0
  0
INSERT
  5
5F0
  8
0
 62
     1
  2
*U125
 10
0.0
 20
0.0
 30
0.0
  0
POINT
  5
5F1
  8
DEFPOINTS
  6
CONTINUOUS
 62
     0
 10
2176.9361458420099
 20
854.36334392065669
 30
0.0
  0
POINT
  5
5F2
  8
DEFPOINTS
  6
CONTINUOUS
 62
     0
 10
2176.9361458420099
 20
707.36334392065635
 30
0.0
  0
POINT
  5
5F3
  8
DEFPOINTS
  6
CONTINUOUS
 62
     0
 10
2219.038130739556
 20
707.36334392065635
 30
0.0
  0
ENDBLK
  5
2FD
  8
0
  0
BLOCK
  8
0
  2
*D29
 70
     1
 10
0.0
 20
0.0
 30
0.0
  3
*D29
  1

  0
LINE
  5
602
  8
0
  6
CONTINUOUS
 62
     0
 10
1975.2920014816691
 20
680.77635364932667
 30
0.0
 11
1975.2920014816691
 21
641.23487878277535
 31
0.0
  0
LINE
  5
603
  8
0
  6
CONTINUOUS
 62
     0
 10
2150.29200148167
 20
672.29911135171574
 30
0.0
 11
2150.29200148167
 21
641.23487878277535
 31
0.0
  0
LINE
  5
604
  8
0
  6
CONTINUOUS
 62
     3
 10
1972.29200148167
 20
651.23487878277535
 30
0.0
 11
2153.29200148167
 21
651.23487878277535
 31
0.0
  0
INSERT
  5
605
  8
0
  6
CONTINUOUS
 62
     3
  2
_ARCHTICK
 10
1975.2920014816691
 20
651.23487878277535
 30
0.0
 41
0.4
 42
0.4
 43
0.4
 50
180.0
  0
INSERT
  5
606
  8
0
  6
CONTINUOUS
 62
     3
  2
_ARCHTICK
 10
2150.29200148167
 20
651.23487878277535
 30
0.0
 41
0.4
 42
0.4
 43
0.4
  0
INSERT
  5
607
  8
0
 62
     1
  2
*U128
 10
0.0
 20
0.0
 30
0.0
  0
POINT
  5
608
  8
DEFPOINTS
  6
CONTINUOUS
 62
     0
 10
1975.2920014816691
 20
683.77635364932655
 30
0.0
  0
POINT
  5
609
  8
DEFPOINTS
  6
CONTINUOUS
 62
     0
 10
2150.29200148167
 20
675.29911135171574
 30
0.0
  0
POINT
  5
60A
  8
DEFPOINTS
  6
CONTINUOUS
 62
     0
 10
2150.29200148167
 20
651.23487878277535
 30
0.0
  0
ENDBLK
  5
309
  8
0
  0
BLOCK
  8
0
 62
     1
  2
*D39
 70
     1
 10
0.0
 20
0.0
 30
0.0
  3
*D39
  1

  0
LINE
  5
4BA
  8
0
 62
     0
 10
2466.5767728086698
 20
687.21467966433795
 30
0.0
 11
2466.5767728086698
 21
699.90934240220247
 31
0.0
  0
LINE
  5
4BB
  8
0
 62
     0
 10
2661.5767728086698
 20
687.21467966433795
 30
0.0
 11
2661.5767728086698
 21
699.90934240220247
 31
0.0
  0
LINE
  5
4BC
  8
0
 62
     0
 10
2471.5767728086712
 20
698.65934240220247
 30
0.0
 11
2656.5767728086698
 21
698.65934240220247
 31
0.0
  0
SOLID
  5
4BD
  8
0
 62
     0
 10
2471.5767728086712
 20
699.49267573553595
 30
0.0
 11
2471.5767728086712
 21
697.82600906886921
 31
0.0
 12
2466.5767728086698
 22
698.65934240220247
 32
0.0
 13
2466.5767728086698
 23
698.65934240220247
 33
0.0
  0
SOLID
  5
4BE
  8
0
 62
     0
 10
2656.5767728086698
 20
699.49267573553595
 30
0.0
 11
2656.5767728086698
 21
697.82600906886921
 31
0.0
 12
2661.5767728086698
 22
698.65934240220247
 32
0.0
 13
2661.5767728086698
 23
698.65934240220247
 33
0.0
  0
INSERT
  5
4BF
  8
0
 62
     1
  2
*U106
 10
0.0
 20
0.0
 30
0.0
  0
POINT
  5
4C0
  8
DEFPOINTS
 62
     0
 10
2466.5767728086698
 20
686.58967966433795
 30
0.0
  0
POINT
  5
4C1
  8
DEFPOINTS
 62
     0
 10
2661.5767728086698
 20
686.58967966433795
 30
0.0
  0
POINT
  5
4C2
  8
DEFPOINTS
 62
     0
 10
2661.5767728086698
 20
698.65934240220247
 30
0.0
  0
ENDBLK
  5
496
  8
0
 62
     1
  0
BLOCK
  8
0
 62
     1
  2
*D40
 70
     1
 10
0.0
 20
0.0
 30
0.0
  3
*D40
  1

  0
LINE
  5
4C3
  8
0
 62
     0
 10
2465.9517728086712
 20
686.58967966433795
 30
0.0
 11
2440.2872916409351
 21
686.58967966433795
 31
0.0
  0
LINE
  5
4C4
  8
0
 62
     0
 10
2465.9517728086712
 20
519.58967966433784
 30
0.0
 11
2440.2872916409351
 21
519.58967966433784
 31
0.0
  0
LINE
  5
4C5
  8
0
 62
     0
 10
2441.5372916409342
 20
681.58967966433795
 30
0.0
 11
2441.5372916409342
 21
524.58967966433784
 31
0.0
  0
SOLID
  5
4C6
  8
0
 62
     0
 10
2440.7039583076012
 20
681.58967966433795
 30
0.0
 11
2442.3706249742681
 21
681.58967966433795
 31
0.0
 12
2441.5372916409342
 22
686.58967966433795
 32
0.0
 13
2441.5372916409342
 23
686.58967966433795
 33
0.0
  0
SOLID
  5
4C7
  8
0
 62
     0
 10
2440.7039583076012
 20
524.58967966433784
 30
0.0
 11
2442.3706249742681
 21
524.58967966433784
 31
0.0
 12
2441.5372916409342
 22
519.58967966433784
 32
0.0
 13
2441.5372916409342
 23
519.58967966433784
 33
0.0
  0
INSERT
  5
4C8
  8
0
 62
     1
  2
*U107
 10
0.0
 20
0.0
 30
0.0
  0
POINT
  5
4C9
  8
DEFPOINTS
 62
     0
 10
2466.5767728086698
 20
686.58967966433795
 30
0.0
  0
POINT
  5
4CA
  8
DEFPOINTS
 62
     0
 10
2466.5767728086698
 20
519.58967966433784
 30
0.0
  0
POINT
  5
4CB
  8
DEFPOINTS
 62
     0
 10
2441.5372916409342
 20
519.58967966433784
 30
0.0
  0
ENDBLK
  5
4AE
  8
0
 62
     1
  0
BLOCK
  8
0
 62
     6
  2
*D41
 70
     1
 10
0.0
 20
0.0
 30
0.0
  3
*D41
  1

  0
LINE
  5
544
  8
0
 62
     0
 10
2701.5232151720138
 20
687.71467966433795
 30
0.0
 11
2701.5232151720138
 21
729.67709609589747
 31
0.0
  0
LINE
  5
545
  8
0
 62
     0
 10
2896.5232151720138
 20
687.71467966433795
 30
0.0
 11
2896.5232151720138
 21
729.67709609589747
 31
0.0
  0
LINE
  5
546
  8
0
 62
     0
 10
2706.5232151720138
 20
728.42709609589735
 30
0.0
 11
2891.5232151720138
 21
728.42709609589735
 31
0.0
  0
SOLID
  5
547
  8
0
 62
     0
 10
2706.5232151720138
 20
729.26042942923084
 30
0.0
 11
2706.5232151720138
 21
727.5937627625641
 31
0.0
 12
2701.5232151720138
 22
728.42709609589735
 32
0.0
 13
2701.5232151720138
 23
728.42709609589735
 33
0.0
  0
SOLID
  5
548
  8
0
 62
     0
 10
2891.5232151720138
 20
729.26042942923084
 30
0.0
 11
2891.5232151720138
 21
727.5937627625641
 31
0.0
 12
2896.5232151720138
 22
728.42709609589735
 32
0.0
 13
2896.5232151720138
 23
728.42709609589735
 33
0.0
  0
INSERT
  5
549
  8
0
 62
     1
  2
*U112
 10
0.0
 20
0.0
 30
0.0
  0
POINT
  5
54A
  8
DEFPOINTS
 62
     0
 10
2701.5232151720138
 20
687.08967966433795
 30
0.0
  0
POINT
  5
54B
  8
DEFPOINTS
 62
     0
 10
2896.5232151720138
 20
687.08967966433795
 30
0.0
  0
POINT
  5
54C
  8
DEFPOINTS
 62
     0
 10
2896.5232151720138
 20
728.42709609589735
 30
0.0
  0
ENDBLK
  5
4D8
  8
0
 62
     6
  0
BLOCK
  8
0
 62
     6
  2
*D42
 70
     1
 10
0.0
 20
0.0
 30
0.0
  3
*D42
  1

  0
LINE
  5
4F2
  8
0
 62
     0
 10
2897.1482151720138
 20
687.08967966433795
 30
0.0
 11
2921.8305408874762
 21
687.08967966433795
 31
0.0
  0
LINE
  5
4F3
  8
0
 62
     0
 10
2897.1482151720138
 20
520.08967966433784
 30
0.0
 11
2921.8305408874762
 21
520.08967966433784
 31
0.0
  0
LINE
  5
4F4
  8
0
 62
     0
 10
2920.5805408874762
 20
682.08967966433795
 30
0.0
 11
2920.5805408874762
 21
525.08967966433784
 31
0.0
  0
SOLID
  5
4F5
  8
0
 62
     0
 10
2919.7472075541418
 20
682.08967966433795
 30
0.0
 11
2921.4138742208088
 21
682.08967966433795
 31
0.0
 12
2920.5805408874762
 22
687.08967966433795
 32
0.0
 13
2920.5805408874762
 23
687.08967966433795
 33
0.0
  0
SOLID
  5
4F6
  8
0
 62
     0
 10
2919.7472075541418
 20
525.08967966433784
 30
0.0
 11
2921.4138742208088
 21
525.08967966433784
 31
0.0
 12
2920.5805408874762
 22
520.08967966433784
 32
0.0
 13
2920.5805408874762
 23
520.08967966433784
 33
0.0
  0
INSERT
  5
4F7
  8
0
 62
     1
  2
*U108
 10
0.0
 20
0.0
 30
0.0
  0
POINT
  5
4F8
  8
DEFPOINTS
 62
     0
 10
2896.5232151720138
 20
687.08967966433795
 30
0.0
  0
POINT
  5
4F9
  8
DEFPOINTS
 62
     0
 10
2896.5232151720138
 20
520.08967966433784
 30
0.0
  0
POINT
  5
4FA
  8
DEFPOINTS
 62
     0
 10
2920.5805408874762
 20
520.08967966433784
 30
0.0
  0
ENDBLK
  5
4F0
  8
0
 62
     6
  0
BLOCK
  8
0
 62
     6
  2
*D43
 70
     1
 10
0.0
 20
0.0
 30
0.0
  3
*D43
  1

  0
LINE
  5
50A
  8
0
 62
     0
 10
2493.5767728086689
 20
660.71467966433784
 30
0.0
 11
2493.5767728086689
 21
670.61414923254597
 31
0.0
  0
LINE
  5
50B
  8
0
 62
     0
 10
2513.576772808668
 20
660.71467966433784
 30
0.0
 11
2513.576772808668
 21
670.61414923254597
 31
0.0
  0
LINE
  5
50C
  8
0
 62
     0
 10
2498.576772808668
 20
669.36414923254586
 30
0.0
 11
2508.576772808668
 21
669.36414923254586
 31
0.0
  0
SOLID
  5
50D
  8
0
 62
     0
 10
2498.576772808668
 20
670.19748256587934
 30
0.0
 11
2498.576772808668
 21
668.5308158992126
 31
0.0
 12
2493.5767728086689
 22
669.36414923254586
 32
0.0
 13
2493.5767728086689
 23
669.36414923254586
 33
0.0
  0
SOLID
  5
50E
  8
0
 62
     0
 10
2508.576772808668
 20
670.19748256587934
 30
0.0
 11
2508.576772808668
 21
668.5308158992126
 31
0.0
 12
2513.576772808668
 22
669.36414923254586
 32
0.0
 13
2513.576772808668
 23
669.36414923254586
 33
0.0
  0
INSERT
  5
50F
  8
0
 62
     1
  2
*U109
 10
0.0
 20
0.0
 30
0.0
  0
POINT
  5
510
  8
DEFPOINTS
 62
     0
 10
2493.5767728086689
 20
660.08967966433784
 30
0.0
  0
POINT
  5
511
  8
DEFPOINTS
 62
     0
 10
2513.576772808668
 20
660.08967966433784
 30
0.0
  0
POINT
  5
512
  8
DEFPOINTS
 62
     0
 10
2513.576772808668
 20
669.36414923254586
 30
0.0
  0
ENDBLK
  5
508
  8
0
 62
     6
  0
BLOCK
  8
0
 62
     6
  2
*D44
 70
     1
 10
0.0
 20
0.0
 30
0.0
  3
*D44
  1

  0
LINE
  5
522
  8
0
 62
     0
 10
2514.201772808668
 20
660.08967966433784
 30
0.0
 11
2528.587830578856
 21
660.08967966433784
 31
0.0
  0
LINE
  5
523
  8
0
 62
     0
 10
2514.201772808668
 20
640.08967966433784
 30
0.0
 11
2528.587830578856
 21
640.08967966433784
 31
0.0
  0
LINE
  5
524
  8
0
 62
     0
 10
2527.337830578856
 20
655.08967966433784
 30
0.0
 11
2527.337830578856
 21
645.08967966433784
 31
0.0
  0
SOLID
  5
525
  8
0
 62
     0
 10
2526.5044972455221
 20
655.08967966433784
 30
0.0
 11
2528.1711639121891
 21
655.08967966433784
 31
0.0
 12
2527.337830578856
 22
660.08967966433784
 32
0.0
 13
2527.337830578856
 23
660.08967966433784
 33
0.0
  0
SOLID
  5
526
  8
0
 62
     0
 10
2526.5044972455221
 20
645.08967966433784
 30
0.0
 11
2528.1711639121891
 21
645.08967966433784
 31
0.0
 12
2527.337830578856
 22
640.08967966433784
 32
0.0
 13
2527.337830578856
 23
640.08967966433784
 33
0.0
  0
INSERT
  5
527
  8
0
 62
     1
  2
*U110
 10
0.0
 20
0.0
 30
0.0
  0
POINT
  5
528
  8
DEFPOINTS
 62
     0
 10
2513.576772808668
 20
660.08967966433784
 30
0.0
  0
POINT
  5
529
  8
DEFPOINTS
 62
     0
 10
2513.576772808668
 20
640.08967966433784
 30
0.0
  0
POINT
  5
52A
  8
DEFPOINTS
 62
     0
 10
2527.337830578856
 20
640.08967966433784
 30
0.0
  0
ENDBLK
  5
520
  8
0
 62
     6
  0
BLOCK
  8
0
 62
     6
  2
*D45
 70
     1
 10
0.0
 20
0.0
 30
0.0
  3
*D45
  1

  0
LINE
  5
53A
  8
0
 62
     0
 10
2623.951772808668
 20
660.08967966433784
 30
0.0
 11
2622.143342913711
 21
660.08967966433784
 31
0.0
  0
LINE
  5
53B
  8
0
 62
     0
 10
2623.951772808668
 20
686.58967966433795
 30
0.0
 11
2622.143342913711
 21
686.58967966433795
 31
0.0
  0
LINE
  5
53C
  8
0
 62
     0
 10
2623.3933429137119
 20
665.08967966433784
 30
0.0
 11
2623.3933429137119
 21
681.58967966433795
 31
0.0
  0
SOLID
  5
53D
  8
0
 62
     0
 10
2622.5600095803779
 20
665.08967966433784
 30
0.0
 11
2624.2266762470449
 21
665.08967966433784
 31
0.0
 12
2623.3933429137119
 22
660.08967966433784
 32
0.0
 13
2623.3933429137119
 23
660.08967966433784
 33
0.0
  0
SOLID
  5
53E
  8
0
 62
     0
 10
2622.5600095803779
 20
681.58967966433795
 30
0.0
 11
2624.2266762470449
 21
681.58967966433795
 31
0.0
 12
2623.3933429137119
 22
686.58967966433795
 32
0.0
 13
2623.3933429137119
 23
686.58967966433795
 33
0.0
  0
INSERT
  5
53F
  8
0
 62
     1
  2
*U111
 10
0.0
 20
0.0
 30
0.0
  0
POINT
  5
540
  8
DEFPOINTS
 62
     0
 10
2624.576772808668
 20
660.08967966433784
 30
0.0
  0
POINT
  5
541
  8
DEFPOINTS
 62
     0
 10
2624.576772808668
 20
686.58967966433795
 30
0.0
  0
POINT
  5
542
  8
DEFPOINTS
 62
     0
 10
2623.3933429137119
 20
686.58967966433795
 30
0.0
  0
ENDBLK
  5
538
  8
0
 62
     6
  0
BLOCK
  8
0
 62
     6
  2
*D46
 70
     1
 10
0.0
 20
0.0
 30
0.0
  3
*D46
  1

  0
LINE
  5
55B
  8
0
 62
     0
 10
2711.5232151720138
 20
672.71467966433795
 30
0.0
 11
2711.5232151720138
 21
704.30043348677873
 31
0.0
  0
LINE
  5
55C
  8
0
 62
     0
 10
2886.5232151720138
 20
672.71467966433795
 30
0.0
 11
2886.5232151720138
 21
704.30043348677873
 31
0.0
  0
LINE
  5
55D
  8
0
 62
     0
 10
2716.5232151720138
 20
703.05043348677873
 30
0.0
 11
2881.5232151720138
 21
703.05043348677873
 31
0.0
  0
SOLID
  5
55E
  8
0
 62
     0
 10
2716.5232151720138
 20
703.8837668201121
 30
0.0
 11
2716.5232151720138
 21
702.21710015344524
 31
0.0
 12
2711.5232151720138
 22
703.05043348677873
 32
0.0
 13
2711.5232151720138
 23
703.05043348677873
 33
0.0
  0
SOLID
  5
55F
  8
0
 62
     0
 10
2881.5232151720138
 20
703.8837668201121
 30
0.0
 11
2881.5232151720138
 21
702.21710015344524
 31
0.0
 12
2886.5232151720138
 22
703.05043348677873
 32
0.0
 13
2886.5232151720138
 23
703.05043348677873
 33
0.0
  0
INSERT
  5
560
  8
0
 62
     1
  2
*U113
 10
0.0
 20
0.0
 30
0.0
  0
POINT
  5
561
  8
DEFPOINTS
 62
     0
 10
2711.5232151720138
 20
672.08967966433795
 30
0.0
  0
POINT
  5
562
  8
DEFPOINTS
 62
     0
 10
2886.5232151720138
 20
672.08967966433795
 30
0.0
  0
POINT
  5
563
  8
DEFPOINTS
 62
     0
 10
2886.5232151720138
 20
703.05043348677873
 30
0.0
  0
ENDBLK
  5
559
  8
0
 62
     6
  0
BLOCK
  8
0
 62
     6
  2
*D47
 70
     1
 10
0.0
 20
0.0
 30
0.0
  3
*D47
  1

  0
LINE
  5
573
  8
0
 62
     0
 10
2882.1482151720138
 20
677.08967966433806
 30
0.0
 11
2910.7272100036462
 21
677.08967966433806
 31
0.0
  0
LINE
  5
574
  8
0
 62
     0
 10
2882.1482151720138
 20
530.08967966433784
 30
0.0
 11
2910.7272100036462
 21
530.08967966433784
 31
0.0
  0
LINE
  5
575
  8
0
 62
     0
 10
2909.4772100036448
 20
672.08967966433818
 30
0.0
 11
2909.4772100036448
 21
535.08967966433784
 31
0.0
  0
SOLID
  5
576
  8
0
 62
     0
 10
2908.6438766703118
 20
672.08967966433818
 30
0.0
 11
2910.3105433369792
 21
672.08967966433818
 31
0.0
 12
2909.4772100036448
 22
677.08967966433806
 32
0.0
 13
2909.4772100036448
 23
677.08967966433806
 33
0.0
  0
SOLID
  5
577
  8
0
 62
     0
 10
2908.6438766703118
 20
535.08967966433784
 30
0.0
 11
2910.3105433369792
 21
535.08967966433784
 31
0.0
 12
2909.4772100036448
 22
530.08967966433784
 32
0.0
 13
2909.4772100036448
 23
530.08967966433784
 33
0.0
  0
INSERT
  5
578
  8
0
 62
     1
  2
*U114
 10
0.0
 20
0.0
 30
0.0
  0
POINT
  5
579
  8
DEFPOINTS
 62
     0
 10
2881.5232151720138
 20
677.08967966433806
 30
0.0
  0
POINT
  5
57A
  8
DEFPOINTS
 62
     0
 10
2881.5232151720138
 20
530.08967966433784
 30
0.0
  0
POINT
  5
57B
  8
DEFPOINTS
 62
     0
 10
2909.4772100036448
 20
530.08967966433784
 30
0.0
  0
ENDBLK
  5
571
  8
0
 62
     6
  0
BLOCK
  8
0
 62
     6
  2
*D48
 70
     1
 10
0.0
 20
0.0
 30
0.0
  3
*D48
  1

  0
LINE
  5
587
  8
0
 62
     0
 10
2737.1036642026738
 20
550.13400505458685
 30
0.0
 11
2716.5232151720138
 21
535.08967966433818
 31
0.0
  0
INSERT
  5
588
  8
0
 62
     1
  2
*U115
 10
0.0
 20
0.0
 30
0.0
  0
SOLID
  5
589
  8
0
 62
     0
 10
2716.0314331163768
 20
535.76243136756761
 30
0.0
 11
2717.0149972276499
 21
534.41692796110885
 31
0.0
 12
2712.486704952637
 22
532.13898733051735
 32
0.0
 13
2712.486704952637
 23
532.13898733051735
 33
0.0
  0
POINT
  5
58A
  8
DEFPOINTS
 62
     0
 10
2712.486704952637
 20
532.13898733051735
 30
0.0
  0
POINT
  5
58B
  8
DEFPOINTS
 62
     0
 10
2716.5232151720138
 20
535.08967966433818
 30
0.0
  0
ENDBLK
  5
585
  8
0
 62
     6
  0
BLOCK
  8
0
 62
     6
  2
*D52
 70
     1
 10
0.0
 20
0.0
 30
0.0
  3
*D52
  1

  0
LINE
  5
6CF
  8
0
 62
     0
 10
1327.9428463479369
 20
864.48834392065658
 30
0.0
 11
1327.9428463479369
 21
880.27725186525197
 31
0.0
  0
LINE
  5
6D0
  8
0
 62
     0
 10
1522.942846347936
 20
864.48834392065658
 30
0.0
 11
1522.942846347936
 21
880.27725186525197
 31
0.0
  0
LINE
  5
6D1
  8
0
 62
     0
 10
1332.942846347936
 20
879.02725186525208
 30
0.0
 11
1517.942846347936
 21
879.02725186525208
 31
0.0
  0
SOLID
  5
6D2
  8
0
 62
     0
 10
1332.942846347936
 20
879.86058519858545
 30
0.0
 11
1332.942846347936
 21
878.19391853191871
 31
0.0
 12
1327.9428463479369
 22
879.02725186525208
 32
0.0
 13
1327.9428463479369
 23
879.02725186525208
 33
0.0
  0
SOLID
  5
6D3
  8
0
 62
     0
 10
1517.942846347936
 20
879.86058519858545
 30
0.0
 11
1517.942846347936
 21
878.19391853191871
 31
0.0
 12
1522.942846347936
 22
879.02725186525208
 32
0.0
 13
1522.942846347936
 23
879.02725186525208
 33
0.0
  0
INSERT
  5
6D4
  8
0
 62
     1
  2
*U129
 10
0.0
 20
0.0
 30
0.0
  0
POINT
  5
6D5
  8
DEFPOINTS
 62
     0
 10
1327.9428463479369
 20
863.86334392065658
 30
0.0
  0
POINT
  5
6D6
  8
DEFPOINTS
 62
     0
 10
1522.942846347936
 20
863.86334392065658
 30
0.0
  0
POINT
  5
6D7
  8
DEFPOINTS
 62
     0
 10
1522.942846347936
 20
879.02725186525208
 30
0.0
  0
ENDBLK
  5
6CD
  8
0
 62
     6
  0
BLOCK
  8
0
 62
     6
  2
*D53
 70
     1
 10
0.0
 20
0.0
 30
0.0
  3
*D53
  1

  0
LINE
  5
6F1
  8
0
 62
     0
 10
1327.317846347936
 20
863.86334392065658
 30
0.0
 11
1299.681316130775
 21
863.86334392065658
 31
0.0
  0
LINE
  5
6F2
  8
0
 62
     0
 10
1327.317846347936
 20
696.86334392065635
 30
0.0
 11
1299.681316130775
 21
696.86334392065635
 31
0.0
  0
LINE
  5
6F3
  8
0
 62
     0
 10
1300.931316130775
 20
858.86334392065669
 30
0.0
 11
1300.931316130775
 21
701.86334392065635
 31
0.0
  0
SOLID
  5
6F4
  8
0
 62
     0
 10
1300.097982797442
 20
858.86334392065669
 30
0.0
 11
1301.7646494641081
 21
858.86334392065669
 31
0.0
 12
1300.931316130775
 22
863.86334392065658
 32
0.0
 13
1300.931316130775
 23
863.86334392065658
 33
0.0
  0
SOLID
  5
6F5
  8
0
 62
     0
 10
1300.097982797442
 20
701.86334392065635
 30
0.0
 11
1301.7646494641081
 21
701.86334392065635
 31
0.0
 12
1300.931316130775
 22
696.86334392065635
 32
0.0
 13
1300.931316130775
 23
696.86334392065635
 33
0.0
  0
INSERT
  5
6F6
  8
0
 62
     1
  2
*U130
 10
0.0
 20
0.0
 30
0.0
  0
POINT
  5
6F7
  8
DEFPOINTS
 62
     0
 10
1327.9428463479369
 20
863.86334392065658
 30
0.0
  0
POINT
  5
6F8
  8
DEFPOINTS
 62
     0
 10
1327.9428463479369
 20
696.86334392065635
 30
0.0
  0
POINT
  5
6F9
  8
DEFPOINTS
 62
     0
 10
1300.931316130775
 20
696.86334392065635
 30
0.0
  0
ENDBLK
  5
6E5
  8
0
 62
     6
  0
BLOCK
  8
0
 62
     6
  2
*D54
 70
     1
 10
0.0
 20
0.0
 30
0.0
  3
*D54
  1

  0
LINE
  5
746
  8
0
 62
     0
 10
1348.942846347936
 20
830.98834392065669
 30
0.0
 11
1348.942846347936
 21
832.21918338347791
 31
0.0
  0
LINE
  5
747
  8
0
 62
     0
 10
1327.9428463479369
 20
830.98834392065669
 30
0.0
 11
1327.9428463479369
 21
832.21918338347791
 31
0.0
  0
LINE
  5
748
  8
0
 62
     0
 10
1343.9428463479369
 20
830.96918338347791
 30
0.0
 11
1332.942846347936
 21
830.96918338347791
 31
0.0
  0
SOLID
  5
749
  8
0
 62
     0
 10
1343.9428463479369
 20
831.80251671681117
 30
0.0
 11
1343.9428463479369
 21
830.13585005014454
 31
0.0
 12
1348.942846347936
 22
830.96918338347791
 32
0.0
 13
1348.942846347936
 23
830.96918338347791
 33
0.0
  0
SOLID
  5
74A
  8
0
 62
     0
 10
1332.942846347936
 20
831.80251671681117
 30
0.0
 11
1332.942846347936
 21
830.13585005014454
 31
0.0
 12
1327.9428463479369
 22
830.96918338347791
 32
0.0
 13
1327.9428463479369
 23
830.96918338347791
 33
0.0
  0
INSERT
  5
74B
  8
0
 62
     1
  2
*U131
 10
0.0
 20
0.0
 30
0.0
  0
POINT
  5
74C
  8
DEFPOINTS
 62
     0
 10
1348.942846347936
 20
830.36334392065669
 30
0.0
  0
POINT
  5
74D
  8
DEFPOINTS
 62
     0
 10
1327.9428463479369
 20
830.36334392065669
 30
0.0
  0
POINT
  5
74E
  8
DEFPOINTS
 62
     0
 10
1327.9428463479369
 20
830.96918338347791
 30
0.0
  0
ENDBLK
  5
710
  8
0
 62
     6
  0
BLOCK
  8
0
 62
     6
  2
*D55
 70
     1
 10
0.0
 20
0.0
 30
0.0
  3
*D55
  1

  0
LINE
  5
74F
  8
0
 62
     0
 10
1360.8178463479369
 20
842.86334392065669
 30
0.0
 11
1359.8379664496531
 21
842.86334392065669
 31
0.0
  0
LINE
  5
750
  8
0
 62
     0
 10
1360.8178463479369
 20
863.86334392065658
 30
0.0
 11
1359.8379664496531
 21
863.86334392065658
 31
0.0
  0
LINE
  5
751
  8
0
 62
     0
 10
1361.0879664496531
 20
847.86334392065658
 30
0.0
 11
1361.0879664496531
 21
858.86334392065669
 31
0.0
  0
SOLID
  5
752
  8
0
 62
     0
 10
1360.2546331163201
 20
847.86334392065658
 30
0.0
 11
1361.9212997829859
 21
847.86334392065658
 31
0.0
 12
1361.0879664496531
 22
842.86334392065669
 32
0.0
 13
1361.0879664496531
 23
842.86334392065669
 33
0.0
  0
SOLID
  5
753
  8
0
 62
     0
 10
1360.2546331163201
 20
858.86334392065669
 30
0.0
 11
1361.9212997829859
 21
858.86334392065669
 31
0.0
 12
1361.0879664496531
 22
863.86334392065658
 32
0.0
 13
1361.0879664496531
 23
863.86334392065658
 33
0.0
  0
INSERT
  5
754
  8
0
 62
     1
  2
*U132
 10
0.0
 20
0.0
 30
0.0
  0
POINT
  5
755
  8
DEFPOINTS
 62
     0
 10
1361.4428463479369
 20
842.86334392065669
 30
0.0
  0
POINT
  5
756
  8
DEFPOINTS
 62
     0
 10
1361.4428463479369
 20
863.86334392065658
 30
0.0
  0
POINT
  5
757
  8
DEFPOINTS
 62
     0
 10
1361.0879664496531
 20
863.86334392065658
 30
0.0
  0
ENDBLK
  5
728
  8
0
 62
     6
  0
BLOCK
  8
0
 62
     6
  2
*D56
 70
     1
 10
0.0
 20
0.0
 30
0.0
  3
*D56
  1

  0
LINE
  5
768
  8
0
 62
     0
 10
1402.403754736371
 20
819.34619387605289
 30
0.0
 11
1378.3422388068191
 21
825.81795785117379
 31
0.0
  0
LINE
  5
769
  8
0
 62
     0
 10
1344.543453889054
 20
834.90872999013948
 30
0.0
 11
1339.7150560436589
 21
836.20741172427745
 31
0.0
  0
INSERT
  5
76A
  8
0
 62
     1
  2
*U133
 10
0.0
 20
0.0
 30
0.0
  0
LINE
  5
76B
  8
0
 62
     0
 10
1349.3718517344489
 20
833.61004825600162
 30
0.0
 11
1373.513840961424
 21
827.11663958531176
 31
0.0
  0
SOLID
  5
76C
  8
0
 62
     0
 10
1344.759900844743
 20
835.71346296437196
 30
0.0
 11
1344.3270069333639
 21
834.10399701590688
 31
0.0
 12
1349.3718517344489
 22
833.61004825600162
 32
0.0
 13
1349.3718517344489
 23
833.61004825600162
 33
0.0
  0
SOLID
  5
76D
  8
0
 62
     0
 10
1378.558685762509
 20
826.62269082540615
 30
0.0
 11
1378.1257918511301
 21
825.01322487694119
 31
0.0
 12
1373.513840961424
 22
827.11663958531176
 32
0.0
 13
1373.513840961424
 23
827.11663958531176
 33
0.0
  0
POINT
  5
76E
  8
DEFPOINTS
 62
     0
 10
1373.513840961424
 20
827.11663958531176
 30
0.0
  0
POINT
  5
76F
  8
DEFPOINTS
 62
     0
 10
1349.3718517344489
 20
833.61004825600162
 30
0.0
  0
ENDBLK
  5
766
  8
0
 62
     6
  0
BLOCK
  8
0
 62
     6
  2
*D57
 70
     1
 10
0.0
 20
0.0
 30
0.0
  3
*D57
  1

  0
LINE
  5
7A1
  8
0
 62
     0
 10
1373.9428463479369
 20
829.73834392065658
 30
0.0
 11
1373.9428463479369
 21
803.61572775328557
 31
0.0
  0
LINE
  5
7A2
  8
0
 62
     0
 10
1327.9428463479369
 20
829.73834392065658
 30
0.0
 11
1327.9428463479369
 21
803.61572775328557
 31
0.0
  0
LINE
  5
7A3
  8
0
 62
     0
 10
1368.942846347936
 20
804.86572775328568
 30
0.0
 11
1332.942846347936
 21
804.86572775328568
 31
0.0
  0
SOLID
  5
7A4
  8
0
 62
     0
 10
1368.942846347936
 20
805.69906108661905
 30
0.0
 11
1368.942846347936
 21
804.0323944199522
 31
0.0
 12
1373.9428463479369
 22
804.86572775328568
 32
0.0
 13
1373.9428463479369
 23
804.86572775328568
 33
0.0
  0
SOLID
  5
7A5
  8
0
 62
     0
 10
1332.942846347936
 20
805.69906108661905
 30
0.0
 11
1332.942846347936
 21
804.0323944199522
 31
0.0
 12
1327.9428463479369
 22
804.86572775328568
 32
0.0
 13
1327.9428463479369
 23
804.86572775328568
 33
0.0
  0
INSERT
  5
7A6
  8
0
 62
     1
  2
*U134
 10
0.0
 20
0.0
 30
0.0
  0
POINT
  5
7A7
  8
DEFPOINTS
 62
     0
 10
1373.9428463479369
 20
830.36334392065669
 30
0.0
  0
POINT
  5
7A8
  8
DEFPOINTS
 62
     0
 10
1327.9428463479369
 20
830.36334392065669
 30
0.0
  0
POINT
  5
7A9
  8
DEFPOINTS
 62
     0
 10
1327.9428463479369
 20
804.86572775328568
 30
0.0
  0
ENDBLK
  5
79F
  8
0
 62
     6
  0
BLOCK
  8
0
 62
     6
  2
*D58
 70
     1
 10
0.0
 20
0.0
 30
0.0
  3
*D58
  1

  0
LINE
  5
7EF
  8
0
 62
     0
 10
763.63849280593104
 20
864.48834392065658
 30
0.0
 11
763.63849280593104
 21
880.27725186525197
 31
0.0
  0
LINE
  5
7F0
  8
0
 62
     0
 10
958.63849280593013
 20
864.48834392065658
 30
0.0
 11
958.63849280593013
 21
880.27725186525197
 31
0.0
  0
LINE
  5
7F1
  8
0
 62
     0
 10
768.63849280593104
 20
879.02725186525208
 30
0.0
 11
953.63849280593024
 21
879.02725186525208
 31
0.0
  0
SOLID
  5
7F2
  8
0
 62
     0
 10
768.63849280593104
 20
879.86058519858545
 30
0.0
 11
768.63849280593104
 21
878.19391853191871
 31
0.0
 12
763.63849280593104
 22
879.02725186525208
 32
0.0
 13
763.63849280593104
 23
879.02725186525208
 33
0.0
  0
SOLID
  5
7F3
  8
0
 62
     0
 10
953.63849280593024
 20
879.86058519858545
 30
0.0
 11
953.63849280593024
 21
878.19391853191871
 31
0.0
 12
958.63849280593013
 22
879.02725186525208
 32
0.0
 13
958.63849280593013
 23
879.02725186525208
 33
0.0
  0
INSERT
  5
7F4
  8
0
 62
     1
  2
*U135
 10
0.0
 20
0.0
 30
0.0
  0
POINT
  5
7F5
  8
DEFPOINTS
 62
     0
 10
763.63849280593104
 20
863.86334392065658
 30
0.0
  0
POINT
  5
7F6
  8
DEFPOINTS
 62
     0
 10
958.63849280593013
 20
863.86334392065658
 30
0.0
  0
POINT
  5
7F7
  8
DEFPOINTS
 62
     0
 10
958.63849280593013
 20
879.02725186525208
 30
0.0
  0
ENDBLK
  5
7F9
  8
0
 62
     6
  0
BLOCK
  8
0
 62
     6
  2
*D59
 70
     1
 10
0.0
 20
0.0
 30
0.0
  3
*D59
  1

  0
LINE
  5
925
  8
0
 62
     0
 10
763.01349280593104
 20
863.86334392065658
 30
0.0
 11
744.740474921957
 21
863.86334392065658
 31
0.0
  0
LINE
  5
926
  8
0
 62
     0
 10
763.01349280593104
 20
696.86334392065635
 30
0.0
 11
744.74047492195677
 21
696.86334392065635
 31
0.0
  0
LINE
  5
927
  8
0
 62
     0
 10
745.99047492195689
 20
858.86334392065669
 30
0.0
 11
745.99047492195677
 21
701.86334392065635
 31
0.0
  0
SOLID
  5
928
  8
0
 62
     0
 10
745.15714158862363
 20
858.86334392065669
 30
0.0
 11
746.82380825529026
 21
858.86334392065669
 31
0.0
 12
745.99047492195689
 22
863.86334392065658
 32
0.0
 13
745.99047492195689
 23
863.86334392065658
 33
0.0
  0
SOLID
  5
929
  8
0
 62
     0
 10
745.15714158862352
 20
701.86334392065635
 30
0.0
 11
746.82380825529015
 21
701.86334392065635
 31
0.0
 12
745.99047492195677
 22
696.86334392065635
 32
0.0
 13
745.99047492195677
 23
696.86334392065635
 33
0.0
  0
INSERT
  5
92A
  8
0
 62
     1
  2
*U139
 10
0.0
 20
0.0
 30
0.0
  0
POINT
  5
92B
  8
DEFPOINTS
 62
     0
 10
763.63849280593104
 20
863.86334392065658
 30
0.0
  0
POINT
  5
92C
  8
DEFPOINTS
 62
     0
 10
763.63849280593104
 20
696.86334392065635
 30
0.0
  0
POINT
  5
92D
  8
DEFPOINTS
 62
     0
 10
745.99047492195677
 20
696.86334392065635
 30
0.0
  0
ENDBLK
  5
805
  8
0
 62
     6
  0
BLOCK
  8
0
 62
     6
  2
*D60
 70
     1
 10
0.0
 20
0.0
 30
0.0
  3
*D60
  1

  0
LINE
  5
807
  8
0
 62
     0
 10
784.63849280593104
 20
830.98834392065669
 30
0.0
 11
784.63849280593104
 21
832.21918338347791
 31
0.0
  0
LINE
  5
808
  8
0
 62
     0
 10
763.63849280593104
 20
830.98834392065669
 30
0.0
 11
763.63849280593104
 21
832.21918338347791
 31
0.0
  0
LINE
  5
809
  8
0
 62
     0
 10
779.63849280593104
 20
830.96918338347791
 30
0.0
 11
768.63849280593104
 21
830.96918338347791
 31
0.0
  0
SOLID
  5
80A
  8
0
 62
     0
 10
779.63849280593104
 20
831.80251671681117
 30
0.0
 11
779.63849280593104
 21
830.13585005014454
 31
0.0
 12
784.63849280593104
 22
830.96918338347791
 32
0.0
 13
784.63849280593104
 23
830.96918338347791
 33
0.0
  0
SOLID
  5
80B
  8
0
 62
     0
 10
768.63849280593104
 20
831.80251671681117
 30
0.0
 11
768.63849280593104
 21
830.13585005014454
 31
0.0
 12
763.63849280593104
 22
830.96918338347791
 32
0.0
 13
763.63849280593104
 23
830.96918338347791
 33
0.0
  0
INSERT
  5
80C
  8
0
 62
     1
  2
*U136
 10
0.0
 20
0.0
 30
0.0
  0
POINT
  5
80D
  8
DEFPOINTS
 62
     0
 10
784.63849280593104
 20
830.36334392065669
 30
0.0
  0
POINT
  5
80E
  8
DEFPOINTS
 62
     0
 10
763.63849280593104
 20
830.36334392065669
 30
0.0
  0
POINT
  5
80F
  8
DEFPOINTS
 62
     0
 10
763.63849280593104
 20
830.96918338347791
 30
0.0
  0
ENDBLK
  5
811
  8
0
 62
     6
  0
BLOCK
  8
0
 62
     6
  2
*D61
 70
     1
 10
0.0
 20
0.0
 30
0.0
  3
*D61
  1

  0
LINE
  5
813
  8
0
 62
     0
 10
796.51349280593104
 20
842.86334392065669
 30
0.0
 11
795.53361290764769
 21
842.86334392065669
 31
0.0
  0
LINE
  5
814
  8
0
 62
     0
 10
796.51349280593104
 20
863.86334392065658
 30
0.0
 11
795.53361290764769
 21
863.86334392065658
 31
0.0
  0
LINE
  5
815
  8
0
 62
     0
 10
796.78361290764758
 20
847.86334392065658
 30
0.0
 11
796.78361290764758
 21
858.86334392065669
 31
0.0
  0
SOLID
  5
816
  8
0
 62
     0
 10
795.95027957431432
 20
847.86334392065658
 30
0.0
 11
797.61694624098095
 21
847.86334392065658
 31
0.0
 12
796.78361290764758
 22
842.86334392065669
 32
0.0
 13
796.78361290764758
 23
842.86334392065669
 33
0.0
  0
SOLID
  5
817
  8
0
 62
     0
 10
795.95027957431432
 20
858.86334392065669
 30
0.0
 11
797.61694624098095
 21
858.86334392065669
 31
0.0
 12
796.78361290764758
 22
863.86334392065658
 32
0.0
 13
796.78361290764758
 23
863.86334392065658
 33
0.0
  0
INSERT
  5
818
  8
0
 62
     1
  2
*U137
 10
0.0
 20
0.0
 30
0.0
  0
POINT
  5
819
  8
DEFPOINTS
 62
     0
 10
797.13849280593104
 20
842.86334392065669
 30
0.0
  0
POINT
  5
81A
  8
DEFPOINTS
 62
     0
 10
797.13849280593104
 20
863.86334392065658
 30
0.0
  0
POINT
  5
81B
  8
DEFPOINTS
 62
     0
 10
796.78361290764758
 20
863.86334392065658
 30
0.0
  0
ENDBLK
  5
81D
  8
0
 62
     6
  0
BLOCK
  8
0
 62
     6
  2
*D62
 70
     1
 10
0.0
 20
0.0
 30
0.0
  3
*D62
  1

  0
LINE
  5
91D
  8
0
 62
     0
 10
829.94227119804975
 20
817.71660092275692
 30
0.0
 11
805.8807552684973
 21
824.1883648978777
 31
0.0
  0
LINE
  5
91E
  8
0
 62
     0
 10
772.08197035073169
 20
833.27913703684339
 30
0.0
 11
767.25357250533671
 21
834.57781877098137
 31
0.0
  0
INSERT
  5
91F
  8
0
 62
     1
  2
*U138
 10
0.0
 20
0.0
 30
0.0
  0
LINE
  5
920
  8
0
 62
     0
 10
776.91036819612691
 20
831.98045530270542
 30
0.0
 11
801.05235742310219
 21
825.48704663201568
 31
0.0
  0
SOLID
  5
921
  8
0
 62
     0
 10
772.29841730642136
 20
834.08387001107599
 30
0.0
 11
771.86552339504215
 21
832.47440406261092
 31
0.0
 12
776.91036819612691
 22
831.98045530270542
 32
0.0
 13
776.91036819612691
 23
831.98045530270542
 33
0.0
  0
SOLID
  5
922
  8
0
 62
     0
 10
806.09720222418696
 20
824.9930978721103
 30
0.0
 11
805.66430831280763
 21
823.38363192364523
 31
0.0
 12
801.05235742310219
 22
825.48704663201568
 32
0.0
 13
801.05235742310219
 23
825.48704663201568
 33
0.0
  0
POINT
  5
923
  8
DEFPOINTS
 62
     0
 10
801.05235742310219
 20
825.48704663201568
 30
0.0
  0
POINT
  5
924
  8
DEFPOINTS
 62
     0
 10
776.91036819612691
 20
831.98045530270542
 30
0.0
  0
ENDBLK
  5
828
  8
0
 62
     6
  0
BLOCK
  8
0
 62
     1
  2
*D66
 70
     1
 10
0.0
 20
0.0
 30
0.0
  3
*D66
  1

  0
LINE
  5
9D2
  8
0
 62
     0
 10
340.5927073102863
 20
817.71660092275692
 30
0.0
 11
316.5311913807339
 21
824.1883648978777
 31
0.0
  0
LINE
  5
9D3
  8
0
 62
     0
 10
282.73240646296841
 20
833.27913703684339
 30
0.0
 11
277.9040086175732
 21
834.57781877098137
 31
0.0
  0
INSERT
  5
9D4
  8
0
 62
     1
  2
*U143
 10
0.0
 20
0.0
 30
0.0
  0
LINE
  5
9D5
  8
0
 62
     0
 10
287.56080430836352
 20
831.98045530270542
 30
0.0
 11
311.70279353533869
 21
825.48704663201568
 31
0.0
  0
SOLID
  5
9D6
  8
0
 62
     0
 10
282.94885341865802
 20
834.08387001107599
 30
0.0
 11
282.51595950727869
 21
832.47440406261092
 31
0.0
 12
287.56080430836352
 22
831.98045530270542
 32
0.0
 13
287.56080430836352
 23
831.98045530270542
 33
0.0
  0
SOLID
  5
9D7
  8
0
 62
     0
 10
316.74763833642362
 20
824.9930978721103
 30
0.0
 11
316.31474442504418
 21
823.38363192364523
 31
0.0
 12
311.70279353533869
 22
825.48704663201568
 32
0.0
 13
311.70279353533869
 23
825.48704663201568
 33
0.0
  0
POINT
  5
9D8
  8
DEFPOINTS
 62
     0
 10
311.70279353533869
 20
825.48704663201568
 30
0.0
  0
POINT
  5
9D9
  8
DEFPOINTS
 62
     0
 10
287.56080430836352
 20
831.98045530270542
 30
0.0
  0
ENDBLK
  5
9A1
  8
0
 62
     1
  0
BLOCK
  8
0
 62
     1
  2
*D67
 70
     1
 10
0.0
 20
0.0
 30
0.0
  3
*D67
  1

  0
LINE
  5
9A3
  8
0
 62
     0
 10
274.28892891816758
 20
864.48834392065658
 30
0.0
 11
274.28892891816758
 21
880.27725186525197
 31
0.0
  0
LINE
  5
9A4
  8
0
 62
     0
 10
469.28892891816668
 20
864.48834392065658
 30
0.0
 11
469.28892891816668
 21
880.27725186525197
 31
0.0
  0
LINE
  5
9A5
  8
0
 62
     0
 10
279.28892891816758
 20
879.02725186525208
 30
0.0
 11
464.28892891816662
 21
879.02725186525208
 31
0.0
  0
SOLID
  5
9A6
  8
0
 62
     0
 10
279.28892891816758
 20
879.86058519858545
 30
0.0
 11
279.28892891816758
 21
878.19391853191871
 31
0.0
 12
274.28892891816758
 22
879.02725186525208
 32
0.0
 13
274.28892891816758
 23
879.02725186525208
 33
0.0
  0
SOLID
  5
9A7
  8
0
 62
     0
 10
464.28892891816662
 20
879.86058519858545
 30
0.0
 11
464.28892891816662
 21
878.19391853191871
 31
0.0
 12
469.28892891816668
 22
879.02725186525208
 32
0.0
 13
469.28892891816668
 23
879.02725186525208
 33
0.0
  0
INSERT
  5
9A8
  8
0
 62
     1
  2
*U140
 10
0.0
 20
0.0
 30
0.0
  0
POINT
  5
9A9
  8
DEFPOINTS
 62
     0
 10
274.28892891816758
 20
863.86334392065658
 30
0.0
  0
POINT
  5
9AA
  8
DEFPOINTS
 62
     0
 10
469.28892891816668
 20
863.86334392065658
 30
0.0
  0
POINT
  5
9AB
  8
DEFPOINTS
 62
     0
 10
469.28892891816668
 20
879.02725186525208
 30
0.0
  0
ENDBLK
  5
9AD
  8
0
 62
     1
  0
BLOCK
  8
0
 62
     1
  2
*D68
 70
     1
 10
0.0
 20
0.0
 30
0.0
  3
*D68
  1

  0
LINE
  5
9E5
  8
0
 62
     0
 10
273.66392891816758
 20
863.86334392065658
 30
0.0
 11
255.39091103419349
 21
863.8633439206568
 31
0.0
  0
LINE
  5
9E6
  8
0
 62
     0
 10
273.66392891816758
 20
696.86334392065635
 30
0.0
 11
255.39091103419341
 21
696.86334392065646
 31
0.0
  0
LINE
  5
9E7
  8
0
 62
     0
 10
256.64091103419338
 20
858.86334392065669
 30
0.0
 11
256.64091103419338
 21
701.86334392065635
 31
0.0
  0
SOLID
  5
9E8
  8
0
 62
     0
 10
255.80757770086009
 20
858.86334392065669
 30
0.0
 11
257.47424436752681
 21
858.86334392065669
 31
0.0
 12
256.64091103419338
 22
863.86334392065658
 32
0.0
 13
256.64091103419338
 23
863.86334392065658
 33
0.0
  0
SOLID
  5
9E9
  8
0
 62
     0
 10
255.80757770086009
 20
701.86334392065646
 30
0.0
 11
257.47424436752681
 21
701.86334392065635
 31
0.0
 12
256.64091103419338
 22
696.86334392065635
 32
0.0
 13
256.64091103419338
 23
696.86334392065635
 33
0.0
  0
INSERT
  5
9EA
  8
0
 62
     1
  2
*U144
 10
0.0
 20
0.0
 30
0.0
  0
POINT
  5
9EB
  8
DEFPOINTS
 62
     0
 10
274.28892891816758
 20
863.86334392065658
 30
0.0
  0
POINT
  5
9EC
  8
DEFPOINTS
 62
     0
 10
274.28892891816758
 20
696.86334392065635
 30
0.0
  0
POINT
  5
9ED
  8
DEFPOINTS
 62
     0
 10
256.64091103419338
 20
696.86334392065635
 30
0.0
  0
ENDBLK
  5
9B9
  8
0
 62
     1
  0
BLOCK
  8
0
 62
     1
  2
*D69
 70
     1
 10
0.0
 20
0.0
 30
0.0
  3
*D69
  1

  0
LINE
  5
9BB
  8
0
 62
     0
 10
295.28892891816758
 20
830.98834392065669
 30
0.0
 11
295.28892891816758
 21
832.21918338347791
 31
0.0
  0
LINE
  5
9BC
  8
0
 62
     0
 10
274.28892891816758
 20
830.98834392065669
 30
0.0
 11
274.28892891816758
 21
832.21918338347791
 31
0.0
  0
LINE
  5
9BD
  8
0
 62
     0
 10
290.28892891816758
 20
830.96918338347791
 30
0.0
 11
279.28892891816758
 21
830.96918338347791
 31
0.0
  0
SOLID
  5
9BE
  8
0
 62
     0
 10
290.28892891816758
 20
831.80251671681117
 30
0.0
 11
290.28892891816758
 21
830.13585005014454
 31
0.0
 12
295.28892891816758
 22
830.96918338347791
 32
0.0
 13
295.28892891816758
 23
830.96918338347791
 33
0.0
  0
SOLID
  5
9BF
  8
0
 62
     0
 10
279.28892891816758
 20
831.80251671681117
 30
0.0
 11
279.28892891816758
 21
830.13585005014454
 31
0.0
 12
274.28892891816758
 22
830.96918338347791
 32
0.0
 13
274.28892891816758
 23
830.96918338347791
 33
0.0
  0
INSERT
  5
9C0
  8
0
 62
     1
  2
*U141
 10
0.0
 20
0.0
 30
0.0
  0
POINT
  5
9C1
  8
DEFPOINTS
 62
     0
 10
295.28892891816758
 20
830.36334392065669
 30
0.0
  0
POINT
  5
9C2
  8
DEFPOINTS
 62
     0
 10
274.28892891816758
 20
830.36334392065669
 30
0.0
  0
POINT
  5
9C3
  8
DEFPOINTS
 62
     0
 10
274.28892891816758
 20
830.96918338347791
 30
0.0
  0
ENDBLK
  5
9C5
  8
0
 62
     1
  0
BLOCK
  8
0
 62
     1
  2
*D70
 70
     1
 10
0.0
 20
0.0
 30
0.0
  3
*D70
  1

  0
LINE
  5
9C7
  8
0
 62
     0
 10
307.16392891816758
 20
842.86334392065669
 30
0.0
 11
306.18404901988418
 21
842.86334392065669
 31
0.0
  0
LINE
  5
9C8
  8
0
 62
     0
 10
307.16392891816758
 20
863.86334392065658
 30
0.0
 11
306.18404901988418
 21
863.86334392065658
 31
0.0
  0
LINE
  5
9C9
  8
0
 62
     0
 10
307.4340490198843
 20
847.86334392065658
 30
0.0
 11
307.4340490198843
 21
858.86334392065669
 31
0.0
  0
SOLID
  5
9CA
  8
0
 62
     0
 10
306.60071568655093
 20
847.86334392065658
 30
0.0
 11
308.26738235321761
 21
847.86334392065658
 31
0.0
 12
307.4340490198843
 22
842.86334392065669
 32
0.0
 13
307.4340490198843
 23
842.86334392065669
 33
0.0
  0
SOLID
  5
9CB
  8
0
 62
     0
 10
306.60071568655093
 20
858.86334392065669
 30
0.0
 11
308.26738235321761
 21
858.86334392065669
 31
0.0
 12
307.4340490198843
 22
863.86334392065658
 32
0.0
 13
307.4340490198843
 23
863.86334392065658
 33
0.0
  0
INSERT
  5
9CC
  8
0
 62
     1
  2
*U142
 10
0.0
 20
0.0
 30
0.0
  0
POINT
  5
9CD
  8
DEFPOINTS
 62
     0
 10
307.78892891816758
 20
842.86334392065669
 30
0.0
  0
POINT
  5
9CE
  8
DEFPOINTS
 62
     0
 10
307.78892891816758
 20
863.86334392065658
 30
0.0
  0
POINT
  5
9CF
  8
DEFPOINTS
 62
     0
 10
307.4340490198843
 20
863.86334392065658
 30
0.0
  0
ENDBLK
  5
9D1
  8
0
 62
     1
  0
BLOCK
  8
0
 62
     1
  2
*D72
 70
     1
 10
0.0
 20
0.0
 30
0.0
  3
*D72
  1

  0
LINE
  5
A6E
  8
0
 62
     0
 10
1327.9428463479369
 20
163.52627851415861
 30
0.0
 11
1327.9428463479369
 21
179.315186458754
 31
0.0
  0
LINE
  5
A6F
  8
0
 62
     0
 10
1522.942846347936
 20
163.52627851415861
 30
0.0
 11
1522.942846347936
 21
179.315186458754
 31
0.0
  0
LINE
  5
A70
  8
0
 62
     0
 10
1332.942846347936
 20
178.065186458754
 30
0.0
 11
1517.942846347936
 21
178.065186458754
 31
0.0
  0
SOLID
  5
A71
  8
0
 62
     0
 10
1332.942846347936
 20
178.8985197920874
 30
0.0
 11
1332.942846347936
 21
177.23185312542071
 31
0.0
 12
1327.9428463479369
 22
178.065186458754
 32
0.0
 13
1327.9428463479369
 23
178.065186458754
 33
0.0
  0
SOLID
  5
A72
  8
0
 62
     0
 10
1517.942846347936
 20
178.8985197920874
 30
0.0
 11
1517.942846347936
 21
177.23185312542071
 31
0.0
 12
1522.942846347936
 22
178.065186458754
 32
0.0
 13
1522.942846347936
 23
178.065186458754
 33
0.0
  0
INSERT
  5
A73
  8
0
 62
     1
  2
*U145
 10
0.0
 20
0.0
 30
0.0
  0
POINT
  5
A74
  8
DEFPOINTS
 62
     0
 10
1327.9428463479369
 20
162.90127851415861
 30
0.0
  0
POINT
  5
A75
  8
DEFPOINTS
 62
     0
 10
1522.942846347936
 20
162.90127851415861
 30
0.0
  0
POINT
  5
A76
  8
DEFPOINTS
 62
     0
 10
1522.942846347936
 20
178.065186458754
 30
0.0
  0
ENDBLK
  5
A78
  8
0
 62
     1
  0
BLOCK
  8
0
 62
     1
  2
*D73
 70
     1
 10
0.0
 20
0.0
 30
0.0
  3
*D73
  1

  0
LINE
  5
A7A
  8
0
 62
     0
 10
1327.317846347936
 20
162.90127851415861
 30
0.0
 11
1299.681316130775
 21
162.90127851415861
 31
0.0
  0
LINE
  5
A7B
  8
0
 62
     0
 10
1327.317846347936
 20
-4.0987214858415646
 30
0.0
 11
1299.681316130775
 21
-4.0987214858415566
 31
0.0
  0
LINE
  5
A7C
  8
0
 62
     0
 10
1300.931316130775
 20
157.90127851415861
 30
0.0
 11
1300.931316130775
 21
0.9012785141584423
 31
0.0
  0
SOLID
  5
A7D
  8
0
 62
     0
 10
1300.0979827974411
 20
157.90127851415861
 30
0.0
 11
1301.7646494641081
 21
157.90127851415861
 31
0.0
 12
1300.931316130775
 22
162.90127851415861
 32
0.0
 13
1300.931316130775
 23
162.90127851415861
 33
0.0
  0
SOLID
  5
A7E
  8
0
 62
     0
 10
1300.0979827974411
 20
0.9012785141584425
 30
0.0
 11
1301.7646494641081
 21
0.9012785141584419
 31
0.0
 12
1300.931316130775
 22
-4.0987214858415566
 32
0.0
 13
1300.931316130775
 23
-4.0987214858415566
 33
0.0
  0
INSERT
  5
A7F
  8
0
 62
     1
  2
*U146
 10
0.0
 20
0.0
 30
0.0
  0
POINT
  5
A80
  8
DEFPOINTS
 62
     0
 10
1327.9428463479369
 20
162.90127851415861
 30
0.0
  0
POINT
  5
A81
  8
DEFPOINTS
 62
     0
 10
1327.9428463479369
 20
-4.0987214858415646
 30
0.0
  0
POINT
  5
A82
  8
DEFPOINTS
 62
     0
 10
1300.931316130775
 20
-4.0987214858415566
 30
0.0
  0
ENDBLK
  5
A84
  8
0
 62
     1
  0
BLOCK
  8
0
 62
     1
  2
*D74
 70
     1
 10
0.0
 20
0.0
 30
0.0
  3
*D74
  1

  0
LINE
  5
A86
  8
0
 62
     0
 10
1348.942846347936
 20
130.02627851415861
 30
0.0
 11
1348.942846347936
 21
131.25711797697991
 31
0.0
  0
LINE
  5
A87
  8
0
 62
     0
 10
1327.9428463479369
 20
130.02627851415861
 30
0.0
 11
1327.9428463479369
 21
131.25711797697991
 31
0.0
  0
LINE
  5
A88
  8
0
 62
     0
 10
1343.9428463479369
 20
130.00711797697991
 30
0.0
 11
1332.942846347936
 21
130.00711797697991
 31
0.0
  0
SOLID
  5
A89
  8
0
 62
     0
 10
1343.9428463479369
 20
130.8404513103132
 30
0.0
 11
1343.9428463479369
 21
129.17378464364651
 31
0.0
 12
1348.942846347936
 22
130.00711797697991
 32
0.0
 13
1348.942846347936
 23
130.00711797697991
 33
0.0
  0
SOLID
  5
A8A
  8
0
 62
     0
 10
1332.942846347936
 20
130.8404513103132
 30
0.0
 11
1332.942846347936
 21
129.17378464364651
 31
0.0
 12
1327.9428463479369
 22
130.00711797697991
 32
0.0
 13
1327.9428463479369
 23
130.00711797697991
 33
0.0
  0
INSERT
  5
A8B
  8
0
 62
     1
  2
*U147
 10
0.0
 20
0.0
 30
0.0
  0
POINT
  5
A8C
  8
DEFPOINTS
 62
     0
 10
1348.942846347936
 20
129.40127851415861
 30
0.0
  0
POINT
  5
A8D
  8
DEFPOINTS
 62
     0
 10
1327.9428463479369
 20
129.40127851415861
 30
0.0
  0
POINT
  5
A8E
  8
DEFPOINTS
 62
     0
 10
1327.9428463479369
 20
130.00711797697991
 30
0.0
  0
ENDBLK
  5
A90
  8
0
 62
     1
  0
BLOCK
  8
0
 62
     1
  2
*D75
 70
     1
 10
0.0
 20
0.0
 30
0.0
  3
*D75
  1

  0
LINE
  5
A92
  8
0
 62
     0
 10
1360.8178463479369
 20
141.90127851415861
 30
0.0
 11
1359.8379664496531
 21
141.90127851415861
 31
0.0
  0
LINE
  5
A93
  8
0
 62
     0
 10
1360.8178463479369
 20
162.90127851415861
 30
0.0
 11
1359.8379664496531
 21
162.90127851415861
 31
0.0
  0
LINE
  5
A94
  8
0
 62
     0
 10
1361.0879664496531
 20
146.90127851415861
 30
0.0
 11
1361.0879664496531
 21
157.90127851415861
 31
0.0
  0
SOLID
  5
A95
  8
0
 62
     0
 10
1360.2546331163201
 20
146.90127851415861
 30
0.0
 11
1361.9212997829859
 21
146.90127851415861
 31
0.0
 12
1361.0879664496531
 22
141.90127851415861
 32
0.0
 13
1361.0879664496531
 23
141.90127851415861
 33
0.0
  0
SOLID
  5
A96
  8
0
 62
     0
 10
1360.2546331163201
 20
157.90127851415861
 30
0.0
 11
1361.9212997829859
 21
157.90127851415861
 31
0.0
 12
1361.0879664496531
 22
162.90127851415861
 32
0.0
 13
1361.0879664496531
 23
162.90127851415861
 33
0.0
  0
INSERT
  5
A97
  8
0
 62
     1
  2
*U148
 10
0.0
 20
0.0
 30
0.0
  0
POINT
  5
A98
  8
DEFPOINTS
 62
     0
 10
1361.4428463479369
 20
141.90127851415861
 30
0.0
  0
POINT
  5
A99
  8
DEFPOINTS
 62
     0
 10
1361.4428463479369
 20
162.90127851415861
 30
0.0
  0
POINT
  5
A9A
  8
DEFPOINTS
 62
     0
 10
1361.0879664496531
 20
162.90127851415861
 30
0.0
  0
ENDBLK
  5
A9C
  8
0
 62
     1
  0
BLOCK
  8
0
 62
     1
  2
*D76
 70
     1
 10
0.0
 20
0.0
 30
0.0
  3
*D76
  1

  0
LINE
  5
A9E
  8
0
 62
     0
 10
1402.4037547363721
 20
118.3841284695548
 30
0.0
 11
1378.3422388068191
 21
124.8558924446757
 31
0.0
  0
LINE
  5
A9F
  8
0
 62
     0
 10
1344.543453889054
 20
133.94666458364151
 30
0.0
 11
1339.7150560436589
 21
135.24534631777951
 31
0.0
  0
INSERT
  5
AA0
  8
0
 62
     1
  2
*U149
 10
0.0
 20
0.0
 30
0.0
  0
LINE
  5
AA1
  8
0
 62
     0
 10
1349.3718517344489
 20
132.64798284950359
 30
0.0
 11
1373.513840961424
 21
126.1545741788137
 31
0.0
  0
SOLID
  5
AA2
  8
0
 62
     0
 10
1344.759900844743
 20
134.75139755787399
 30
0.0
 11
1344.3270069333639
 21
133.141931609409
 31
0.0
 12
1349.3718517344489
 22
132.64798284950359
 32
0.0
 13
1349.3718517344489
 23
132.64798284950359
 33
0.0
  0
SOLID
  5
AA3
  8
0
 62
     0
 10
1378.558685762509
 20
125.6606254189082
 30
0.0
 11
1378.1257918511301
 21
124.0511594704432
 31
0.0
 12
1373.513840961424
 22
126.1545741788137
 32
0.0
 13
1373.513840961424
 23
126.1545741788137
 33
0.0
  0
POINT
  5
AA4
  8
DEFPOINTS
 62
     0
 10
1373.513840961424
 20
126.1545741788137
 30
0.0
  0
POINT
  5
AA5
  8
DEFPOINTS
 62
     0
 10
1349.3718517344489
 20
132.64798284950359
 30
0.0
  0
ENDBLK
  5
AA7
  8
0
 62
     1
  0
BLOCK
  8
0
 62
     1
  2
*D77
 70
     1
 10
0.0
 20
0.0
 30
0.0
  3
*D77
  1

  0
LINE
  5
B2F
  8
0
 62
     0
 10
1570.5991507671449
 20
696.73834392065635
 30
0.0
 11
1570.5991507671449
 21
657.43993100128455
 31
0.0
  0
LINE
  5
B30
  8
0
 62
     0
 10
1765.5991507671461
 20
696.73834392065635
 30
0.0
 11
1765.5991507671461
 21
657.43993100128455
 31
0.0
  0
LINE
  5
B31
  8
0
 62
     0
 10
1575.5991507671461
 20
658.68993100128455
 30
0.0
 11
1760.5991507671461
 21
658.68993100128455
 31
0.0
  0
SOLID
  5
B32
  8
0
 62
     0
 10
1575.5991507671461
 20
659.52326433461792
 30
0.0
 11
1575.5991507671461
 21
657.85659766795106
 31
0.0
 12
1570.5991507671449
 22
658.68993100128455
 32
0.0
 13
1570.5991507671449
 23
658.68993100128455
 33
0.0
  0
SOLID
  5
B33
  8
0
 62
     0
 10
1760.5991507671461
 20
659.52326433461792
 30
0.0
 11
1760.5991507671461
 21
657.85659766795106
 31
0.0
 12
1765.5991507671461
 22
658.68993100128455
 32
0.0
 13
1765.5991507671461
 23
658.68993100128455
 33
0.0
  0
INSERT
  5
B34
  8
0
 62
     1
  2
*U150
 10
0.0
 20
0.0
 30
0.0
  0
POINT
  5
B35
  8
DEFPOINTS
 62
     0
 10
1570.5991507671449
 20
697.36334392065635
 30
0.0
  0
POINT
  5
B36
  8
DEFPOINTS
 62
     0
 10
1765.5991507671461
 20
697.36334392065635
 30
0.0
  0
POINT
  5
B37
  8
DEFPOINTS
 62
     0
 10
1765.5991507671461
 20
658.68993100128455
 30
0.0
  0
ENDBLK
  5
AB9
  8
0
 62
     1
  0
BLOCK
  8
0
 62
     1
  2
*D78
 70
     1
 10
0.0
 20
0.0
 30
0.0
  3
*D78
  1

  0
LINE
  5
B38
  8
0
 62
     0
 10
1580.5991507671461
 20
711.73834392065635
 30
0.0
 11
1580.5991507671461
 21
674.21801799844707
 31
0.0
  0
LINE
  5
B39
  8
0
 62
     0
 10
1755.5991507671461
 20
711.73834392065635
 30
0.0
 11
1755.5991507671461
 21
674.21801799844707
 31
0.0
  0
LINE
  5
B3A
  8
0
 62
     0
 10
1585.5991507671461
 20
675.46801799844695
 30
0.0
 11
1750.5991507671461
 21
675.46801799844695
 31
0.0
  0
SOLID
  5
B3B
  8
0
 62
     0
 10
1585.5991507671461
 20
676.30135133178044
 30
0.0
 11
1585.5991507671461
 21
674.63468466511358
 31
0.0
 12
1580.5991507671461
 22
675.46801799844695
 32
0.0
 13
1580.5991507671461
 23
675.46801799844695
 33
0.0
  0
SOLID
  5
B3C
  8
0
 62
     0
 10
1750.5991507671461
 20
676.30135133178044
 30
0.0
 11
1750.5991507671461
 21
674.63468466511358
 31
0.0
 12
1755.5991507671461
 22
675.46801799844695
 32
0.0
 13
1755.5991507671461
 23
675.46801799844695
 33
0.0
  0
INSERT
  5
B3D
  8
0
 62
     1
  2
*U151
 10
0.0
 20
0.0
 30
0.0
  0
POINT
  5
B3E
  8
DEFPOINTS
 62
     0
 10
1580.5991507671461
 20
712.36334392065635
 30
0.0
  0
POINT
  5
B3F
  8
DEFPOINTS
 62
     0
 10
1755.5991507671461
 20
712.36334392065635
 30
0.0
  0
POINT
  5
B40
  8
DEFPOINTS
 62
     0
 10
1755.5991507671461
 20
675.46801799844695
 30
0.0
  0
ENDBLK
  5
AE3
  8
0
 62
     1
  0
BLOCK
  8
0
 62
     1
  2
*D79
 70
     1
 10
0.0
 20
0.0
 30
0.0
  3
*D79
  1

  0
LINE
  5
B41
  8
0
 62
     0
 10
1751.2241507671461
 20
854.36334392065669
 30
0.0
 11
1788.224695923831
 21
854.36334392065669
 31
0.0
  0
LINE
  5
B42
  8
0
 62
     0
 10
1751.2241507671461
 20
707.36334392065635
 30
0.0
 11
1788.224695923831
 21
707.36334392065635
 31
0.0
  0
LINE
  5
B43
  8
0
 62
     0
 10
1786.974695923831
 20
849.36334392065669
 30
0.0
 11
1786.974695923831
 21
712.36334392065635
 31
0.0
  0
SOLID
  5
B44
  8
0
 62
     0
 10
1786.1413625904979
 20
849.36334392065669
 30
0.0
 11
1787.808029257164
 21
849.36334392065669
 31
0.0
 12
1786.974695923831
 22
854.36334392065669
 32
0.0
 13
1786.974695923831
 23
854.36334392065669
 33
0.0
  0
SOLID
  5
B45
  8
0
 62
     0
 10
1786.1413625904979
 20
712.36334392065635
 30
0.0
 11
1787.808029257164
 21
712.36334392065635
 31
0.0
 12
1786.974695923831
 22
707.36334392065635
 32
0.0
 13
1786.974695923831
 23
707.36334392065635
 33
0.0
  0
INSERT
  5
B46
  8
0
 62
     1
  2
*U152
 10
0.0
 20
0.0
 30
0.0
  0
POINT
  5
B47
  8
DEFPOINTS
 62
     0
 10
1750.5991507671461
 20
854.36334392065669
 30
0.0
  0
POINT
  5
B48
  8
DEFPOINTS
 62
     0
 10
1750.5991507671461
 20
707.36334392065635
 30
0.0
  0
POINT
  5
B49
  8
DEFPOINTS
 62
     0
 10
1786.974695923831
 20
707.36334392065635
 30
0.0
  0
ENDBLK
  5
AFB
  8
0
 62
     1
  0
BLOCK
  8
0
 62
     1
  2
*D80
 70
     1
 10
0.0
 20
0.0
 30
0.0
  3
*D80
  1

  0
LINE
  5
B4A
  8
0
 62
     0
 10
1766.2241507671461
 20
864.36334392065669
 30
0.0
 11
1810.6211613152329
 21
864.36334392065646
 31
0.0
  0
LINE
  5
B4B
  8
0
 62
     0
 10
1766.2241507671461
 20
697.36334392065635
 30
0.0
 11
1810.6211613152329
 21
697.36334392065635
 31
0.0
  0
LINE
  5
B4C
  8
0
 62
     0
 10
1809.3711613152329
 20
859.36334392065658
 30
0.0
 11
1809.3711613152329
 21
702.36334392065635
 31
0.0
  0
SOLID
  5
B4D
  8
0
 62
     0
 10
1808.5378279818999
 20
859.36334392065658
 30
0.0
 11
1810.2044946485671
 21
859.36334392065658
 31
0.0
 12
1809.3711613152329
 22
864.36334392065646
 32
0.0
 13
1809.3711613152329
 23
864.36334392065646
 33
0.0
  0
SOLID
  5
B4E
  8
0
 62
     0
 10
1808.5378279818999
 20
702.36334392065635
 30
0.0
 11
1810.2044946485671
 21
702.36334392065635
 31
0.0
 12
1809.3711613152329
 22
697.36334392065635
 32
0.0
 13
1809.3711613152329
 23
697.36334392065635
 33
0.0
  0
INSERT
  5
B4F
  8
0
 62
     1
  2
*U153
 10
0.0
 20
0.0
 30
0.0
  0
POINT
  5
B50
  8
DEFPOINTS
 62
     0
 10
1765.5991507671461
 20
864.36334392065669
 30
0.0
  0
POINT
  5
B51
  8
DEFPOINTS
 62
     0
 10
1765.5991507671461
 20
697.36334392065635
 30
0.0
  0
POINT
  5
B52
  8
DEFPOINTS
 62
     0
 10
1809.3711613152329
 20
697.36334392065635
 30
0.0
  0
ENDBLK
  5
B13
  8
0
 62
     1
  0
BLOCK
  8
0
 62
     1
  2
*D81
 70
     1
 10
0.0
 20
0.0
 30
0.0
  3
*D81
  1

  0
LINE
  5
CA0
  8
0
 62
     0
 10
1597.4010090223669
 20
835.88287337367274
 30
0.0
 11
1585.5991507671461
 21
849.36334392065714
 31
0.0
  0
TEXT
  8
0
  40
7
  5
CB5
  62
0
  72
0
  71
0
 10
1596.25
 20
834.359
 30
0.000000
  1
R5
  0
SOLID
  5
CA2
  8
0
 62
     0
 10
1586.226149397238
 20
849.91226756043488
 30
0.0
 11
1584.9721521370529
 21
848.81442028087929
 31
0.0
 12
1582.3056089284789
 22
853.12533570121082
 32
0.0
 13
1582.3056089284789
 23
853.12533570121082
 33
0.0
  0
POINT
  5
CA3
  8
DEFPOINTS
 62
     0
 10
1582.3056089284789
 20
853.12533570121082
 30
0.0
  0
POINT
  5
CA4
  8
DEFPOINTS
 62
     0
 10
1585.5991507671461
 20
849.36334392065646
 30
0.0
  0
ENDBLK
  5
B27
  8
0
 62
     1
  0
BLOCK
  8
0
 62
     1
  2
*U82
 70
     1
 10
0.0
 20
0.0
 30
0.0
  3
*U82
  1

  0
TEXT
  5
B83
  8
0
 62
     0
 10
3983.974387360016
 20
1409.593586566142
 30
0.0
 40
10.0
  1
20*20
  0
ENDBLK
  5
B85
  8
0
 62
     1
  0
BLOCK
  8
0
 62
     1
  2
*U83
 70
     1
 10
0.0
 20
0.0
 30
0.0
  3
*U83
  1

  0
TEXT
  5
B8A
  8
0
 62
     0
 10
3915.0941448132298
 20
1184.0083872972079
 30
0.0
 40
20.0
  1
195.0
  0
ENDBLK
  5
B8C
  8
0
 62
     1
  0
BLOCK
  8
0
 62
     1
  2
*U84
 70
     1
 10
0.0
 20
0.0
 30
0.0
  3
*U84
  1

  0
TEXT
  5
B8E
  8
0
 62
     0
 10
3800.426411542689
 20
1273.4070140586621
 30
0.0
 40
20.0
  1
167.0
 50
90.0
  0
ENDBLK
  5
B90
  8
0
 62
     1
  0
BLOCK
  8
0
 62
     1
  2
*U85
 70
     1
 10
0.0
 20
0.0
 30
0.0
  3
*U85
  1

  0
TEXT
  5
B92
  8
0
 62
     0
 10
4170.6572660951942
 20
1357.978436681032
 30
0.0
 40
20.0
  1
R5.0
 50
318.61428887200742
  0
ENDBLK
  5
B94
  8
0
 62
     1
  0
BLOCK
  8
0
 62
     1
  2
*U86
 70
     1
 10
0.0
 20
0.0
 30
0.0
  3
*U86
  1

  0
TEXT
  5
B96
  8
0
 62
     0
 10
4188.8156152602314
 20
1145.089277674195
 30
0.0
 40
20.0
  1
195.0
  0
ENDBLK
  5
B98
  8
0
 62
     1
  0
BLOCK
  8
0
 62
     1
  2
*U87
 70
     1
 10
0.0
 20
0.0
 30
0.0
  3
*U87
  1

  0
TEXT
  5
B9A
  8
0
 62
     0
 10
4397.0856867502389
 20
1273.9070140586621
 30
0.0
 40
20.0
  1
147.0
 50
90.0
  0
ENDBLK
  5
B9C
  8
0
 62
     1
  0
BLOCK
  8
0
 62
     1
  2
*U88
 70
     1
 10
0.0
 20
0.0
 30
0.0
  3
*U88
  1

  0
TEXT
  5
B9E
  8
0
 62
     0
 10
4431.5888489730232
 20
1273.9070140586621
 30
0.0
 40
20.0
  1
167.0
 50
90.0
  0
ENDBLK
  5
BA0
  8
0
 62
     1
  0
BLOCK
  8
0
 62
     1
  2
*U89
 70
     1
 10
0.0
 20
0.0
 30
0.0
  3
*U89
  1

  0
TEXT
  5
BA2
  8
0
 62
     0
 10
4188.8156152602314
 20
1184.4887184123061
 30
0.0
 40
20.0
  1
175.0
  0
ENDBLK
  5
BA4
  8
0
 62
     1
  0
BLOCK
  8
0
 62
     1
  2
*U90
 70
     1
 10
0.0
 20
0.0
 30
0.0
  3
*U90
  1

  0
TEXT
  5
BA6
  8
0
 62
     0
 10
4326.9212649777437
 20
1320.630766137974
 30
0.0
 40
20.0
  1
10.0
  0
ENDBLK
  5
BA8
  8
0
 62
     1
  0
BLOCK
  8
0
 62
     1
  2
*U91
 70
     1
 10
0.0
 20
0.0
 30
0.0
  3
*U91
  1

  0
TEXT
  5
BAA
  8
0
 62
     0
 10
3790.3048792765071
 20
1414.740459602114
 30
0.0
 40
20.0
  1
27.0
  0
ENDBLK
  5
BAC
  8
0
 62
     1
  0
BLOCK
  8
0
 62
     1
  2
*U92
 70
     1
 10
0.0
 20
0.0
 30
0.0
  3
*U92
  1

  0
TEXT
  5
BAE
  8
0
 62
     0
 10
3920.0520250836089
 20
1397.5307428722219
 30
0.0
 40
20.0
  1
26.5
 50
90.0
  0
ENDBLK
  5
BB0
  8
0
 62
     1
  0
BLOCK
  8
0
 62
     1
  2
*U93
 70
     1
 10
0.0
 20
0.0
 30
0.0
  3
*U93
  1

  0
TEXT
  5
BB2
  8
0
 62
     0
 10
4534.4238990399654
 20
1358.1361218000361
 30
0.0
 40
20.0
  1
R5.0
 50
318.61428887200742
  0
ENDBLK
  5
BB4
  8
0
 62
     1
  0
BLOCK
  8
0
 62
     1
  2
*U94
 70
     1
 10
0.0
 20
0.0
 30
0.0
  3
*U94
  1

  0
TEXT
  5
BB6
  8
0
 62
     0
 10
4738.2555308997626
 20
1273.907014058663
 30
0.0
 40
20.0
  1
147.0
 50
90.0
  0
ENDBLK
  5
BB8
  8
0
 62
     1
  0
BLOCK
  8
0
 62
     1
  2
*U95
 70
     1
 10
0.0
 20
0.0
 30
0.0
  3
*U95
  1

  0
TEXT
  5
BBA
  8
0
 62
     0
 10
4552.44329994696
 20
1184.4887184123061
 30
0.0
 40
20.0
  1
175.0
  0
ENDBLK
  5
BBC
  8
0
 62
     1
  0
BLOCK
  8
0
 62
     1
  2
*U96
 70
     1
 10
0.0
 20
0.0
 30
0.0
  3
*U96
  1

  0
TEXT
  5
BBE
  8
0
 62
     0
 10
1459.323088894723
 20
881.54991642813661
 30
0.0
 40
10.0
  1
20*20
  0
ENDBLK
  5
BC0
  8
0
 62
     1
  0
BLOCK
  8
0
 62
     1
  2
*U97
 70
     1
 10
0.0
 20
0.0
 30
0.0
  3
*U97
  1

  0
TEXT
  5
BC2
  8
0
 62
     0
 10
2999.00229066672
 20
881.54991642813661
 30
0.0
 40
10.0
  1
20*20
  0
ENDBLK
  5
BC4
  8
0
 62
     1
  0
BLOCK
  8
0
 62
     1
  2
*U98
 70
     1
 10
0.0
 20
0.0
 30
0.0
  3
*U98
  1

  0
TEXT
  5
BC6
  8
0
 62
     0
 10
2930.1220481199321
 20
655.75454766767746
 30
0.0
 40
20.0
  1
195.0
  0
ENDBLK
  5
BC8
  8
0
 62
     1
  0
BLOCK
  8
0
 62
     1
  2
*U99
 70
     1
 10
0.0
 20
0.0
 30
0.0
  3
*U99
  1

  0
TEXT
  5
BCA
  8
0
 62
     0
 10
2815.6644843409172
 20
745.36334392065703
 30
0.0
 40
20.0
  1
167.0
 50
90.0
  0
ENDBLK
  5
BCC
  8
0
 62
     1
  0
BLOCK
  8
0
 62
     1
  2
*U100
 70
     1
 10
0.0
 20
0.0
 30
0.0
  3
*U100
  1

  0
TEXT
  5
BCE
  8
0
 62
     0
 10
3185.6851694019001
 20
829.93476654303049
 30
0.0
 40
20.0
  1
R5.0
 50
318.6142888720143
  0
ENDBLK
  5
BD0
  8
0
 62
     1
  0
BLOCK
  8
0
 62
     1
  2
*U101
 70
     1
 10
0.0
 20
0.0
 30
0.0
  3
*U101
  1

  0
TEXT
  5
BD2
  8
0
 62
     0
 10
3203.8435185669341
 20
616.83543804466365
 30
0.0
 40
20.0
  1
195.0
  0
ENDBLK
  5
BD4
  8
0
 62
     1
  0
BLOCK
  8
0
 62
     1
  2
*U102
 70
     1
 10
0.0
 20
0.0
 30
0.0
  3
*U102
  1

  0
TEXT
  5
BD6
  8
0
 62
     0
 10
3203.8435185669341
 20
656.23487878277547
 30
0.0
 40
20.0
  1
175.0
  0
ENDBLK
  5
BD8
  8
0
 62
     1
  0
BLOCK
  8
0
 62
     1
  2
*U103
 70
     1
 10
0.0
 20
0.0
 30
0.0
  3
*U103
  1

  0
TEXT
  5
BDA
  8
0
 62
     0
 10
3341.7435185669342
 20
792.3769265084436
 30
0.0
 40
20.0
  1
10.0
  0
ENDBLK
  5
BDC
  8
0
 62
     1
  0
BLOCK
  8
0
 62
     1
  2
*U104
 70
     1
 10
0.0
 20
0.0
 30
0.0
  3
*U104
  1

  0
TEXT
  5
BDE
  8
0
 62
     0
 10
2805.5553814532668
 20
886.48661997258284
 30
0.0
 40
20.0
  1
27.0
  0
ENDBLK
  5
BE0
  8
0
 62
     1
  0
BLOCK
  8
0
 62
     1
  2
*U105
 70
     1
 10
0.0
 20
0.0
 30
0.0
  3
*U105
  1

  0
TEXT
  5
BE2
  8
0
 62
     0
 10
2935.2900978818379
 20
869.26334392065723
 30
0.0
 40
20.0
  1
26.5
 50
90.0
  0
ENDBLK
  5
BE4
  8
0
 62
     1
  0
BLOCK
  8
0
 62
     1
  2
*U106
 70
     1
 10
0.0
 20
0.0
 30
0.0
  3
*U106
  1

  0
TEXT
  5
BE6
  8
0
 62
     0
 10
2555.9101061420029
 20
699.28434240220258
 30
0.0
 40
7.0
  1
195
  0
ENDBLK
  5
BE8
  8
0
 62
     1
  0
BLOCK
  8
0
 62
     1
  2
*U107
 70
     1
 10
0.0
 20
0.0
 30
0.0
  3
*U107
  1

  0
TEXT
  5
BEA
  8
0
 62
     0
 10
2440.9122916409342
 20
594.92301299767178
 30
0.0
 40
7.0
  1
167
 50
90.0
  0
ENDBLK
  5
BEC
  8
0
 62
     1
  0
BLOCK
  8
0
 62
     1
  2
*U108
 70
     1
 10
0.0
 20
0.0
 30
0.0
  3
*U108
  1

  0
TEXT
  5
BEE
  8
0
 62
     0
 10
2919.9555408874762
 20
595.42301299767178
 30
0.0
 40
7.0
  1
167
 50
90.0
  0
ENDBLK
  5
BF0
  8
0
 62
     1
  0
BLOCK
  8
0
 62
     1
  2
*U109
 70
     1
 10
0.0
 20
0.0
 30
0.0
  3
*U109
  1

  0
TEXT
  5
BF2
  8
0
 62
     0
 10
2498.326772808668
 20
669.98914923254586
 30
0.0
 40
7.0
  1
20
  0
ENDBLK
  5
BF4
  8
0
 62
     1
  0
BLOCK
  8
0
 62
     1
  2
*U110
 70
     1
 10
0.0
 20
0.0
 30
0.0
  3
*U110
  1

  0
TEXT
  5
BF6
  8
0
 62
     0
 10
2526.712830578856
 20
644.83967966433829
 30
0.0
 40
7.0
  1
20
 50
90.0
  0
ENDBLK
  5
BF8
  8
0
 62
     1
  0
BLOCK
  8
0
 62
     1
  2
*U111
 70
     1
 10
0.0
 20
0.0
 30
0.0
  3
*U111
  1

  0
TEXT
  5
BFA
  8
0
 62
     0
 10
2621.6016762470449
 20
662.25634633100503
 30
0.0
 40
7.0
  1
26,5
 50
90.0
  0
ENDBLK
  5
BFC
  8
0
 62
     1
  0
BLOCK
  8
0
 62
     1
  2
*U112
 70
     1
 10
0.0
 20
0.0
 30
0.0
  3
*U112
  1

  0
TEXT
  5
BFE
  8
0
 62
     0
 10
2790.8565485053482
 20
729.05209609589735
 30
0.0
 40
7.0
  1
195
  0
ENDBLK
  5
C00
  8
0
 62
     1
  0
BLOCK
  8
0
 62
     1
  2
*U113
 70
     1
 10
0.0
 20
0.0
 30
0.0
  3
*U113
  1

  0
TEXT
  5
C02
  8
0
 62
     0
 10
2790.8565485053482
 20
703.67543348677873
 30
0.0
 40
7.0
  1
175
  0
ENDBLK
  5
C04
  8
0
 62
     1
  0
BLOCK
  8
0
 62
     1
  2
*U114
 70
     1
 10
0.0
 20
0.0
 30
0.0
  3
*U114
  1

  0
TEXT
  5
C06
  8
0
 62
     0
 10
2908.8522100036462
 20
595.42301299767189
 30
0.0
 40
7.0
  1
147
 50
90.0
  0
ENDBLK
  5
C08
  8
0
 62
     1
  0
BLOCK
  8
0
 62
     1
  2
*U115
 70
     1
 10
0.0
 20
0.0
 30
0.0
  3
*U115
  1

  0
TEXT
  5
C0A
  8
0
 62
     0
 10
2726.811740038313
 20
543.38478351136564
 30
0.0
 40
7.0
  1
R5
 50
36.16683483775477
  0
ENDBLK
  5
C0C
  8
0
 62
     1
  0
BLOCK
  8
0
 62
     1
  2
*U116
 70
     1
 10
0.0
 20
0.0
 30
0.0
  3
*U116
  1

  0
TEXT
  5
C0E
  8
0
 62
     0
 10
1395.610896109841
 20
869.26334392065678
 30
0.0
 40
20.0
  1
26.5
 50
90.0
  0
ENDBLK
  5
C10
  8
0
 62
     1
  0
BLOCK
  8
0
 62
     1
  2
*U117
 70
     1
 10
0.0
 20
0.0
 30
0.0
  3
*U117
  1

  0
TEXT
  5
C12
  8
0
 62
     0
 10
1265.8761796812701
 20
886.48661997258284
 30
0.0
 40
20.0
  1
27.0
  0
ENDBLK
  5
C14
  8
0
 62
     1
  0
BLOCK
  8
0
 62
     1
  2
*U118
 70
     1
 10
0.0
 20
0.0
 30
0.0
  3
*U118
  1

  0
TEXT
  5
C16
  8
0
 62
     0
 10
1275.98528256892
 20
745.36334392065669
 30
0.0
 40
20.0
  1
167.0
 50
90.0
  0
ENDBLK
  5
C18
  8
0
 62
     1
  0
BLOCK
  8
0
 62
     1
  2
*U119
 70
     1
 10
0.0
 20
0.0
 30
0.0
  3
*U119
  1

  0
TEXT
  5
C1A
  8
0
 62
     0
 10
1390.4428463479351
 20
655.75454766767746
 30
0.0
 40
20.0
  1
195.0
  0
ENDBLK
  5
C1C
  8
0
 62
     1
  0
BLOCK
  8
0
 62
     1
  2
*U120
 70
     1
 10
0.0
 20
0.0
 30
0.0
  3
*U120
  1

  0
TEXT
  5
C1E
  8
0
 62
     0
 10
1664.1643167949369
 20
656.23487878277547
 30
0.0
 40
20.0
  1
175.0
  0
ENDBLK
  5
C20
  8
0
 62
     1
  0
BLOCK
  8
0
 62
     1
  2
*U121
 70
     1
 10
0.0
 20
0.0
 30
0.0
  3
*U121
  1

  0
TEXT
  5
C22
  8
0
 62
     0
 10
1664.1643167949369
 20
616.83543804466365
 30
0.0
 40
20.0
  1
195.0
  0
ENDBLK
  5
C24
  8
0
 62
     1
  0
BLOCK
  8
0
 62
     1
  2
*U122
 70
     1
 10
0.0
 20
0.0
 30
0.0
  3
*U122
  1

  0
TEXT
  5
C26
  8
0
 62
     0
 10
1802.064316794937
 20
792.3769265084436
 30
0.0
 40
20.0
  1
10.0
  0
ENDBLK
  5
C28
  8
0
 62
     1
  0
BLOCK
  8
0
 62
     1
  2
*U123
 70
     1
 10
0.0
 20
0.0
 30
0.0
  3
*U123
  1

  0
TEXT
  5
C2A
  8
0
 62
     0
 10
1907.1477199992571
 20
745.86334392065692
 30
0.0
 40
20.0
  1
167.0
 50
90.0
  0
ENDBLK
  5
C2C
  8
0
 62
     1
  0
BLOCK
  8
0
 62
     1
  2
*U124
 70
     1
 10
0.0
 20
0.0
 30
0.0
  3
*U124
  1

  0
TEXT
  5
C2E
  8
0
 62
     0
 10
1872.86828659003
 20
745.86334392065692
 30
0.0
 40
20.0
  1
147.0
 50
90.0
  0
ENDBLK
  5
C30
  8
0
 62
     1
  0
BLOCK
  8
0
 62
     1
  2
*U125
 70
     1
 10
0.0
 20
0.0
 30
0.0
  3
*U125
  1

  0
TEXT
  5
C32
  8
0
 62
     0
 10
2214.038130739556
 20
745.86334392065692
 30
0.0
 40
20.0
  1
147.0
 50
90.0
  0
ENDBLK
  5
C34
  8
0
 62
     1
  0
BLOCK
  8
0
 62
     1
  2
*U126
 70
     1
 10
0.0
 20
0.0
 30
0.0
  3
*U126
  1

  0
TEXT
  5
C36
  8
0
 62
     0
 10
2009.6336523166351
 20
829.93476654303277
 30
0.0
 40
20.0
  1
R5.0
 50
318.61428887201919
  0
ENDBLK
  5
C38
  8
0
 62
     1
  0
BLOCK
  8
0
 62
     1
  2
*U127
 70
     1
 10
0.0
 20
0.0
 30
0.0
  3
*U127
  1

  0
TEXT
  5
C3A
  8
0
 62
     0
 10
1646.0059676299029
 20
829.93476654303049
 30
0.0
 40
20.0
  1
R5.0
 50
318.61428887201521
  0
ENDBLK
  5
C3C
  8
0
 62
     1
  0
BLOCK
  8
0
 62
     1
  2
*U128
 70
     1
 10
0.0
 20
0.0
 30
0.0
  3
*U128
  1

  0
TEXT
  5
C3E
  8
0
 62
     0
 10
2027.79200148167
 20
656.23487878277547
 30
0.0
 40
20.0
  1
175.0
  0
ENDBLK
  5
C40
  8
0
 62
     1
  0
BLOCK
  8
0
 62
     1
  2
*U129
 70
     1
 10
0.0
 20
0.0
 30
0.0
  3
*U129
  1

  0
TEXT
  5
C47
  8
0
 62
     0
 10
1417.276179681269
 20
879.65225186525208
 30
0.0
 40
7.0
  1
195
  0
ENDBLK
  5
C49
  8
0
 62
     1
  0
BLOCK
  8
0
 62
     1
  2
*U130
 70
     1
 10
0.0
 20
0.0
 30
0.0
  3
*U130
  1

  0
TEXT
  5
C4B
  8
0
 62
     0
 10
1300.306316130775
 20
772.19667725399006
 30
0.0
 40
7.0
  1
167
 50
90.0
  0
ENDBLK
  5
C4D
  8
0
 62
     1
  0
BLOCK
  8
0
 62
     1
  2
*U131
 70
     1
 10
0.0
 20
0.0
 30
0.0
  3
*U131
  1

  0
TEXT
  5
C4F
  8
0
 62
     0
 10
1333.7761796812699
 20
831.59418338347791
 30
0.0
 40
7.0
  1
21
  0
ENDBLK
  5
C51
  8
0
 62
     1
  0
BLOCK
  8
0
 62
     1
  2
*U132
 70
     1
 10
0.0
 20
0.0
 30
0.0
  3
*U132
  1

  0
TEXT
  5
C53
  8
0
 62
     0
 10
1360.4629664496531
 20
848.69667725399017
 30
0.0
 40
7.0
  1
21
 50
90.0
  0
ENDBLK
  5
C55
  8
0
 62
     1
  0
BLOCK
  8
0
 62
     1
  2
*U133
 70
     1
 10
0.0
 20
0.0
 30
0.0
  3
*U133
  1

  0
TEXT
  5
C57
  8
0
 62
     0
 10
1383.9365215996561
 20
824.96049063094279
 30
0.0
 40
7.0
  1
\U+220525
 50
344.94558152139979
  0
ENDBLK
  5
C59
  8
0
 62
     1
  0
BLOCK
  8
0
 62
     1
  2
*U134
 70
     1
 10
0.0
 20
0.0
 30
0.0
  3
*U134
  1

  0
TEXT
  5
C5E
  8
0
 62
     0
 10
1345.109513014603
 20
805.49072775328568
 30
0.0
 40
7.0
  1
46
  0
ENDBLK
  5
C60
  8
0
 62
     1
  0
BLOCK
  8
0
 62
     1
  2
*U135
 70
     1
 10
0.0
 20
0.0
 30
0.0
  3
*U135
  1

  0
TEXT
  5
C62
  8
0
 62
     0
 10
852.97182613926395
 20
879.65225186525208
 30
0.0
 40
7.0
  1
195
  0
ENDBLK
  5
C64
  8
0
 62
     1
  0
BLOCK
  8
0
 62
     1
  2
*U136
 70
     1
 10
0.0
 20
0.0
 30
0.0
  3
*U136
  1

  0
TEXT
  5
C66
  8
0
 62
     0
 10
769.47182613926441
 20
831.59418338347791
 30
0.0
 40
7.0
  1
21
  0
ENDBLK
  5
C68
  8
0
 62
     1
  0
BLOCK
  8
0
 62
     1
  2
*U137
 70
     1
 10
0.0
 20
0.0
 30
0.0
  3
*U137
  1

  0
TEXT
  5
C6A
  8
0
 62
     0
 10
796.15861290764735
 20
848.69667725399017
 30
0.0
 40
7.0
  1
21
 50
90.0
  0
ENDBLK
  5
C6C
  8
0
 62
     1
  0
BLOCK
  8
0
 62
     1
  2
*U138
 70
     1
 10
0.0
 20
0.0
 30
0.0
  3
*U138
  1

  0
TEXT
  5
C71
  8
0
 62
     0
 10
811.47503806133398
 20
823.33089767764682
 30
0.0
 40
7.0
  1
\U+220525
 50
344.9455815213999
  0
ENDBLK
  5
C73
  8
0
 62
     1
  0
BLOCK
  8
0
 62
     1
  2
*U139
 70
     1
 10
0.0
 20
0.0
 30
0.0
  3
*U139
  1

  0
TEXT
  5
C75
  8
0
 62
     0
 10
745.36547492195666
 20
772.19667725399006
 30
0.0
 40
7.0
  1
167
 50
90.0
  0
ENDBLK
  5
C77
  8
0
 62
     1
  0
BLOCK
  8
0
 62
     1
  2
*U140
 70
     1
 10
0.0
 20
0.0
 30
0.0
  3
*U140
  1

  0
TEXT
  5
C79
  8
0
 62
     0
 10
363.62226225150039
 20
879.65225186525208
 30
0.0
 40
7.0
  1
195
  0
ENDBLK
  5
C7B
  8
0
 62
     1
  0
BLOCK
  8
0
 62
     1
  2
*U141
 70
     1
 10
0.0
 20
0.0
 30
0.0
  3
*U141
  1

  0
TEXT
  5
C7D
  8
0
 62
     0
 10
280.1222622515009
 20
831.59418338347791
 30
0.0
 40
7.0
  1
21
  0
ENDBLK
  5
C7F
  8
0
 62
     1
  0
BLOCK
  8
0
 62
     1
  2
*U142
 70
     1
 10
0.0
 20
0.0
 30
0.0
  3
*U142
  1

  0
TEXT
  5
C81
  8
0
 62
     0
 10
306.80904901988413
 20
848.69667725399006
 30
0.0
 40
7.0
  1
21
 50
90.0
  0
ENDBLK
  5
C83
  8
0
 62
     1
  0
BLOCK
  8
0
 62
     1
  2
*U143
 70
     1
 10
0.0
 20
0.0
 30
0.0
  3
*U143
  1

  0
TEXT
  5
C85
  8
0
 62
     0
 10
322.12547417357058
 20
823.33089767764682
 30
0.0
 40
7.0
  1
\U+220525
 50
344.9455815213999
  0
ENDBLK
  5
C87
  8
0
 62
     1
  0
BLOCK
  8
0
 62
     1
  2
*U144
 70
     1
 10
0.0
 20
0.0
 30
0.0
  3
*U144
  1

  0
TEXT
  5
C89
  8
0
 62
     0
 10
256.01591103419332
 20
772.19667725399006
 30
0.0
 40
7.0
  1
167
 50
90.0
  0
ENDBLK
  5
C8B
  8
0
 62
     1
  0
BLOCK
  8
0
 62
     1
  2
*U145
 70
     1
 10
0.0
 20
0.0
 30
0.0
  3
*U145
  1

  0
TEXT
  5
C8D
  8
0
 62
     0
 10
1417.276179681269
 20
178.690186458754
 30
0.0
 40
7.0
  1
195
  0
ENDBLK
  5
C8F
  8
0
 62
     1
  0
BLOCK
  8
0
 62
     1
  2
*U146
 70
     1
 10
0.0
 20
0.0
 30
0.0
  3
*U146
  1

  0
TEXT
  5
C91
  8
0
 62
     0
 10
1300.306316130775
 20
71.234611847492104
 30
0.0
 40
7.0
  1
167
 50
90.0
  0
ENDBLK
  5
C93
  8
0
 62
     1
  0
BLOCK
  8
0
 62
     1
  2
*U147
 70
     1
 10
0.0
 20
0.0
 30
0.0
  3
*U147
  1

  0
TEXT
  5
C95
  8
0
 62
     0
 10
1333.7761796812699
 20
130.63211797697991
 30
0.0
 40
7.0
  1
21
  0
ENDBLK
  5
C97
  8
0
 62
     1
  0
BLOCK
  8
0
 62
     1
  2
*U148
 70
     1
 10
0.0
 20
0.0
 30
0.0
  3
*U148
  1

  0
TEXT
  5
C99
  8
0
 62
     0
 10
1360.4629664496531
 20
147.7346118474922
 30
0.0
 40
7.0
  1
21
 50
90.0
  0
ENDBLK
  5
C9B
  8
0
 62
     1
  0
BLOCK
  8
0
 62
     1
  2
*U149
 70
     1
 10
0.0
 20
0.0
 30
0.0
  3
*U149
  1

  0
TEXT
  5
C9D
  8
0
 62
     0
 10
1383.9365215996561
 20
123.9984252244449
 30
0.0
 40
7.0
  1
\U+220525
 50
344.94558152139979
  0
ENDBLK
  5
C9F
  8
0
 62
     1
  0
BLOCK
  8
0
 62
     1
  2
*U150
 70
     1
 10
0.0
 20
0.0
 30
0.0
  3
*U150
  1

  0
TEXT
  5
CA6
  8
0
 62
     0
 10
1659.9324841004791
 20
659.31493100128455
 30
0.0
 40
7.0
  1
195
  0
ENDBLK
  5
CA8
  8
0
 62
     1
  0
BLOCK
  8
0
 62
     1
  2
*U151
 70
     1
 10
0.0
 20
0.0
 30
0.0
  3
*U151
  1

  0
TEXT
  5
CAA
  8
0
 62
     0
 10
1659.93248410048
 20
676.09301799844695
 30
0.0
 40
7.0
  1
175
  0
ENDBLK
  5
CAC
  8
0
 62
     1
  0
BLOCK
  8
0
 62
     1
  2
*U152
 70
     1
 10
0.0
 20
0.0
 30
0.0
  3
*U152
  1

  0
TEXT
  5
CAE
  8
0
 62
     0
 10
1786.349695923831
 20
772.69667725399017
 30
0.0
 40
7.0
  1
147
 50
90.0
  0
ENDBLK
  5
CB0
  8
0
 62
     1
  0
BLOCK
  8
0
 62
     1
  2
*U153
 70
     1
 10
0.0
 20
0.0
 30
0.0
  3
*U153
  1

  0
TEXT
  5
CB2
  8
0
 62
     0
 10
1808.7461613152329
 20
772.69667725399017
 30
0.0
 40
7.0
  1
167
 50
90.0
  0
ENDBLK
  5
CB4
  8
0
 62
     1
  0
ENDSEC
  0
SECTION
  2
ENTITIES
  0
LINE
  5
22F
  8
0
 10
1570.5991507671461
 20
864.36334392065669
 30
0.0
 11
1765.5991507671461
 21
864.36334392065669
 31
0.0
  0
LINE
  5
230
  8
0
 10
1585.5991507671461
 20
854.36334392065669
 30
0.0
 11
1750.5991507671461
 21
854.36334392065669
 31
0.0
  0
ARC
  5
231
  8
0
 10
1585.5991507671461
 20
849.36334392065669
 30
0.0
 40
5.0
 50
90.0
 51
180.0
  0
LINE
  5
232
  8
0
 10
1765.5991507671461
 20
864.36334392065669
 30
0.0
 11
1765.5991507671461
 21
697.36334392065635
 31
0.0
  0
LINE
  5
233
  8
0
 10
1755.5991507671461
 20
849.36334392065669
 30
0.0
 11
1755.5991507671461
 21
712.36334392065635
 31
0.0
  0
ARC
  5
234
  8
0
 10
1750.5991507671461
 20
712.36334392065635
 30
0.0
 40
5.0
 50
270.0
 51
0.0
  0
ARC
  5
235
  8
0
 10
1750.5991507671461
 20
849.36334392065669
 30
0.0
 40
5.0
 50
0.0
 51
90.0
  0
LINE
  5
236
  8
0
 10
1765.5991507671461
 20
697.36334392065635
 30
0.0
 11
1570.5991507671449
 21
697.36334392065635
 31
0.0
  0
LINE
  5
237
  8
0
 10
1750.5991507671461
 20
707.36334392065635
 30
0.0
 11
1585.5991507671461
 21
707.36334392065635
 31
0.0
  0
ARC
  5
238
  8
0
 10
1585.5991507671461
 20
712.36334392065635
 30
0.0
 40
5.0
 50
180.0
 51
270.0
  0
LINE
  5
239
  8
0
 10
1570.5991507671449
 20
697.36334392065635
 30
0.0
 11
1570.5991507671461
 21
864.36334392065669
 31
0.0
  0
LINE
  5
23A
  8
0
 10
1580.5991507671461
 20
712.36334392065635
 30
0.0
 11
1580.5991507671461
 21
849.36334392065669
 31
0.0
  0
LINE
  5
637
  8
0
 10
1237.9959252351639
 20
919.83687062416959
 30
0.0
 11
1842.2221280841479
 21
919.83687062416959
 31
0.0
  0
LINE
  5
638
  8
0
 10
1842.2221280841479
 20
919.83687062416959
 30
0.0
 11
1842.2221280841479
 21
533.99572104332458
 31
0.0
  0
LINE
  5
639
  8
0
 10
1842.2221280841479
 20
533.99572104332458
 30
0.0
 11
1237.9959252351639
 21
533.99572104332458
 31
0.0
  0
LINE
  5
63A
  8
0
 10
1237.9959252351639
 20
533.99572104332458
 30
0.0
 11
1237.9959252351639
 21
919.83687062416959
 31
0.0
  0
TEXT
  5
66F
  8
0
 10
1300.019142762925
 20
590.74445059455888
 30
0.0
 40
15.0
  1
AB
1001
ACAD
1000
ACAD_MTEXT_DEFINED_HEIGHT_BEGIN
1070
    46
1040
0.0
1000
ACAD_MTEXT_DEFINED_HEIGHT_END
  0
TEXT
  5
670
  8
0
 10
1363.2707731933419
 20
590.75645590881459
 30
0.0
 40
15.0
  1

1001
ACAD
1000
ACAD_MTEXT_DEFINED_HEIGHT_BEGIN
1070
    46
1040
0.0
1000
ACAD_MTEXT_DEFINED_HEIGHT_END
  0
TEXT
  5
671
  8
0
 10
1405.9374398600089
 20
590.75645590881459
 30
0.0
 40
15.0
  1
195*167*26mm
1001
ACAD
1000
ACAD_MTEXT_DEFINED_HEIGHT_BEGIN
1070
    46
1040
0.0
1000
ACAD_MTEXT_DEFINED_HEIGHT_END
  0
TEXT
  5
672
  8
0
 10
1550.8610562668471
 20
624.73611146456176
 30
0.0
 40
15.0
  1
B
1001
ACAD
1000
ACAD_MTEXT_DEFINED_HEIGHT_BEGIN
1070
    46
1040
0.0
1000
ACAD_MTEXT_DEFINED_HEIGHT_END
  0
TEXT
  5
673
  8
0
 10
1625.527722933514
 20
624.73611146456176
 30
0.0
 40
15.0
  1
195*167*21mm
1001
ACAD
1000
ACAD_MTEXT_DEFINED_HEIGHT_BEGIN
1070
    46
1040
0.0
1000
ACAD_MTEXT_DEFINED_HEIGHT_END
  0
TEXT
  5
674
  8
0
 10
1303.8677165524509
 20
625.0874033213521
 30
0.0
 40
15.0
  1
A
1001
ACAD
1000
ACAD_MTEXT_DEFINED_HEIGHT_BEGIN
1070
    46
1040
0.0
1000
ACAD_MTEXT_DEFINED_HEIGHT_END
  0
TEXT
  5
675
  8
0
 10
1378.5343832191179
 20
625.0874033213521
 30
0.0
 40
15.0
  1
195*167*5mm
1001
ACAD
1000
ACAD_MTEXT_DEFINED_HEIGHT_BEGIN
1070
    46
1040
0.0
1000
ACAD_MTEXT_DEFINED_HEIGHT_END
  0
POLYLINE
  5
6BC
  8
0
 66
     1
 10
0.0
 20
0.0
 30
0.0
 70
     1
  0
VERTEX
  5
C41
  8
0
 10
1327.9428463479369
 20
863.86334392065658
 30
0.0
  0
VERTEX
  5
C42
  8
0
 10
1522.942846347936
 20
863.86334392065658
 30
0.0
  0
VERTEX
  5
C43
  8
0
 10
1522.942846347936
 20
696.86334392065635
 30
0.0
  0
VERTEX
  5
C44
  8
0
 10
1327.9428463479369
 20
696.86334392065635
 30
0.0
  0
SEQEND
  5
C45
  8
0
  0
DIMENSION
  5
6C1
  8
0
 62
     6
  2
*D52
 10
1522.942846347936
 20
879.02725186525208
 30
0.0
 11
1425.442846347936
 21
883.15225186525208
 31
0.0
 70
     0
 13
1327.9428463479369
 23
863.86334392065658
 33
0.0
 14
1522.942846347936
 24
863.86334392065658
 34
0.0
  0
DIMENSION
  5
6D9
  8
0
 62
     6
  2
*D53
 10
1300.931316130775
 20
696.86334392065635
 30
0.0
 11
1300.931316130775
 21
780.3633439206568
 31
0.0
 70
   128
 13
1327.9428463479369
 23
863.86334392065658
 33
0.0
 14
1327.9428463479369
 24
696.86334392065635
 34
0.0
 50
90.0
  0
CIRCLE
  5
703
  8
0
 10
1361.4428463479369
 20
830.36334392065669
 30
0.0
 40
12.5
  0
DIMENSION
  5
704
  8
0
 62
     6
  2
*D54
 10
1327.9428463479369
 20
830.96918338347791
 30
0.0
 11
1338.442846347936
 21
835.09418338347791
 31
0.0
 70
     0
 13
1348.942846347936
 23
830.36334392065669
 33
0.0
 14
1327.9428463479369
 24
830.36334392065669
 34
0.0
  0
DIMENSION
  5
71C
  8
0
 62
     6
  2
*D55
 10
1361.0879664496531
 20
863.86334392065658
 30
0.0
 11
1356.9629664496531
 21
853.36334392065692
 31
0.0
 70
     0
 13
1361.4428463479369
 23
842.86334392065669
 33
0.0
 14
1361.4428463479369
 24
863.86334392065658
 34
0.0
 50
90.0
  0
CIRCLE
  5
758
  8
0
 10
1489.442846347936
 20
830.36334392065669
 30
0.0
 40
12.5
  0
CIRCLE
  5
759
  8
0
 10
1361.4428463479369
 20
730.36334392065635
 30
0.0
 40
12.5
  0
CIRCLE
  5
75A
  8
0
 10
1489.442846347936
 20
730.36334392065635
 30
0.0
 40
12.5
  0
DIMENSION
  5
75B
  8
0
 62
     6
  2
*D56
 10
1349.3718517344489
 20
833.61004825600162
 30
0.0
 11
1393.8586081249571
 21
825.91616321899517
 31
0.0
 70
     3
 15
1373.513840961424
 25
827.11663958531176
 35
0.0
 40
0.0
1001
ACAD
1000
DSTYLE
1002
{
1070
   288
1070
     1
1002
}
  0
TEXT
  5
781
  8
0
 10
1408.8331928091279
 20
732.16159140521165
 30
0.0
 40
15.0
  1
21
1001
ACAD
1000
ACAD_MTEXT_DEFINED_HEIGHT_BEGIN
1070
    46
1040
0.0
1000
ACAD_MTEXT_DEFINED_HEIGHT_END
  0
POLYLINE
  5
792
  8
0
 62
     6
 66
     1
 10
0.0
 20
0.0
 30
0.0
  0
VERTEX
  5
C5A
  8
0
 62
     6
 10
1361.4428463479369
 20
830.36334392065669
 30
0.0
  0
VERTEX
  5
C5B
  8
0
 62
     6
 10
1383.397487833083
 20
808.40870243551012
 30
0.0
  0
SEQEND
  5
C5C
  8
0
 62
     6
  0
TEXT
  5
AAC
  8
0
 10
1301.5324091688481
 20
558.46458276524572
 30
0.0
 40
15.0
  1

1001
ACAD
1000
ACAD_MTEXT_DEFINED_HEIGHT_BEGIN
1070
    46
1040
0.0
1000
ACAD_MTEXT_DEFINED_HEIGHT_END
  0
DIMENSION
  5
AAD
  8
0
 62
     1
  2
*D77
 10
1765.5991507671461
 20
658.68993100128455
 30
0.0
 11
1668.0991507671461
 21
658.68993100128455
 31
0.0
 70
   128
 13
1570.5991507671449
 23
697.36334392065635
 33
0.0
 14
1765.5991507671461
 24
697.36334392065635
 34
0.0
  0
DIMENSION
  5
AD7
  8
0
 62
     1
  2
*D78
 10
1755.5991507671461
 20
675.46801799844695
 30
0.0
 11
1668.0991507671461
 21
679.59301799844707
 31
0.0
 70
     0
 13
1580.5991507671461
 23
712.36334392065635
 33
0.0
 14
1755.5991507671461
 24
712.36334392065635
 34
0.0
  0
DIMENSION
  5
AEF
  8
0
 62
     1
  2
*D79
 10
1786.974695923831
 20
707.36334392065635
 30
0.0
 11
1782.849695923831
 21
780.8633439206568
 31
0.0
 70
     0
 13
1750.5991507671461
 23
854.36334392065669
 33
0.0
 14
1750.5991507671461
 24
707.36334392065635
 34
0.0
 50
90.0
  0
DIMENSION
  5
B07
  8
0
 62
     1
  2
*D80
 10
1809.3711613152329
 20
697.36334392065635
 30
0.0
 11
1805.2461613152329
 21
780.8633439206568
 31
0.0
 70
     0
 13
1765.5991507671461
 23
864.36334392065669
 33
0.0
 14
1765.5991507671461
 24
697.36334392065635
 34
0.0
 50
90.0
  0
DIMENSION
  5
B1F
  8
0
 62
     1
  2
*D81
 10
1585.5991507671461
 20
849.36334392065646
 30
0.0
 11
1593.1468508140899
 21
840.74211275688788
 31
0.0
 70
   132
 15
1582.3056089284789
 25
853.12533570121082
 35
0.0
 40
0.0
1001
ACAD
1000
DSTYLE
1002
{
1070
   287
1070
     4
1070
   279
1070
     1
1070
   288
1070
     1
1002
}
  0
ENDSEC
  0
EOF
