<?xml version="1.0" encoding="UTF-8" standalone="no"?>
<!-- Created with Inkscape (http://www.inkscape.org/) -->

<svg
   xmlns:dc="http://purl.org/dc/elements/1.1/"
   xmlns:cc="http://creativecommons.org/ns#"
   xmlns:rdf="http://www.w3.org/1999/02/22-rdf-syntax-ns#"
   xmlns:svg="http://www.w3.org/2000/svg"
   xmlns="http://www.w3.org/2000/svg"
   xmlns:sodipodi="http://sodipodi.sourceforge.net/DTD/sodipodi-0.dtd"
   xmlns:inkscape="http://www.inkscape.org/namespaces/inkscape"
   id="svg2"
   version="1.1"
   inkscape:version="0.48.1 r9760"
   width="4970"
   height="1998"
   sodipodi:docname="temp.png">
  <metadata
     id="metadata8">
    <rdf:RDF>
      <cc:Work
         rdf:about="">
        <dc:format>image/svg+xml</dc:format>
        <dc:type
           rdf:resource="http://purl.org/dc/dcmitype/StillImage" />
        <dc:title></dc:title>
      </cc:Work>
    </rdf:RDF>
  </metadata>
  <defs
     id="defs6" />
  <sodipodi:namedview
     pagecolor="#ffffff"
     bordercolor="#666666"
     borderopacity="1"
     objecttolerance="10"
     gridtolerance="10"
     guidetolerance="10"
     inkscape:pageopacity="0"
     inkscape:pageshadow="2"
     inkscape:window-width="1364"
     inkscape:window-height="766"
     id="namedview4"
     showgrid="false"
     inkscape:zoom="0.097384306"
     inkscape:cx="2485"
     inkscape:cy="999"
     inkscape:window-x="0"
     inkscape:window-y="0"
     inkscape:window-maximized="0"
     inkscape:current-layer="svg2" />
  <path
     style="fill:#bd0000;fill-opacity:1"
     d="m 2973.2685,2040.2386 c -31.2219,-3.6507 -50.4464,-7.0846 -78.7316,-14.0628 -35.1795,-8.6792 -63.1531,-18.9675 -94.7684,-34.8545 l -21,-10.5527 -1384.0072,-0.5 -1384.00717,-0.5 212.70483,-928 C 340.44661,541.36859 436.18737,123.65609 436.21619,123.51859 c 0.0288,-0.1375 884.05731,-0.25 1964.50791,-0.25 l 1964.4555,0 11.7945,-4.5692 c 97.3039,-37.695598 205.5255,-64.294598 296.705,-72.924798 21.4288,-2.0283 85.177,-2.0704 102.0894,-0.068 72.2512,8.5567 125.6797,33.6648 160.936,75.629898 28.6683,34.1236 42.9313,75.6569 42.7311,124.4316 -0.1415,34.501 -5.2875,63.2833 -17.857,99.8779 -24.9722,72.7032 -72.3251,147.7693 -144.8494,229.6221 -28.9664,32.6923 -86.7855,88.321 -123.6855,119 -6.9461,5.775 -12.5368,10.8758 -12.4238,11.3351 0.1129,0.4593 3.4134,2.0833 7.3344,3.6088 33.9265,13.19985 65.2625,42.19546 80.3148,74.31639 33.9764,72.50369 13.1917,174.35397 -60.7602,297.73972 -53.139,88.6603 -143.4037,196.2906 -235.2642,280.5254 -123.911,113.6247 -259.4605,218.7516 -402.9774,312.5338 -304.2279,198.8005 -620.0714,328.2811 -882.8422,361.9234 -44.4199,5.687 -51.6233,6.0217 -127.1566,5.9072 -61.2354,-0.093 -72.5369,-0.345 -86,-1.9193 z m 172,-60.5058 c 343.7162,-33.9111 785.5085,-245.3765 1164.5,-557.392 117.0018,-96.325 195.4952,-172.8958 263.8533,-257.3903 82.9697,-102.5552 132.1604,-193.61398 146.7648,-271.68191 2.5376,-13.56457 3.5292,-39.53054 1.9668,-51.5 -5.3685,-41.1263 -27.5149,-66.91554 -69.1462,-80.52004 -14.3163,-4.67834 -26.3235,-6.60211 -74.9387,-12.00656 -25.025,-2.78198 -45.8643,-5.16049 -46.3095,-5.28559 -0.4452,-0.1251 15.9756,-13.04354 36.4906,-28.70763 81.8953,-62.53048 112.9927,-89.05738 162.8691,-138.93138 27.5328,-27.5314 42.3282,-43.5234 62.0322,-67.0488 69.9982,-83.5742 112.8236,-164.7133 123.5058,-234 2.1008,-13.626 2.4099,-41.6673 0.5843,-53 -3.0316,-18.819 -10.2262,-37.7462 -19.8591,-52.2448 -2.6474,-3.9846 -8.8651,-11.297 -13.8172,-16.2499 -22.8973,-22.9012 -53.3774,-37.22 -95.4962,-44.8617 -18.6772,-3.3886 -28.3654,-3.8498 -70.7024,-3.3655 -37.8014,0.4324 -43.6374,0.7271 -61.0411,3.0827 -30.4236,4.1177 -78.5723,12.6216 -80.0973,14.1467 -0.2709,0.2709 8.92,0.5506 20.4241,0.6215 17.5527,0.1083 19.7105,0.2713 13.4167,1.0135 -65.4404,7.7172 -132.6482,24.8655 -209,53.3273 -112.0089,41.7535 -234.3099,109.8533 -340.7556,189.7398 -93.0082,69.8017 -174.6353,149.8583 -232.6532,228.1766 -11.5938,15.6506 -33.3982,48.4352 -41.3106,62.1138 -11.4762,19.8395 -37.0809,67.63702 -36.0116,67.22461 0.6771,-0.26113 15.856,-10.13659 33.731,-21.94551 71.6283,-47.3202 115.8354,-74.2026 177.5,-107.9377 114.1951,-62.4733 226.4926,-107.7197 307,-123.6951 27.1819,-5.3938 39.0796,-6.6488 62.5,-6.5927 25.2542,0.061 36.5788,1.9357 50.2909,8.3277 10.5217,4.9047 16.7871,10.4893 20.6671,18.4213 5.4863,11.2159 6.4025,23.2071 3.0356,39.7287 -15.7236,77.1571 -122.3163,205.3715 -273.9936,329.57168 -37.2826,30.52864 -62.9508,49.75795 -84,62.92849 -56.3617,35.26563 -120.1266,80.55554 -173,122.87554 -30.4053,24.3364 -80.7384,67.6071 -103.5,88.9773 l -6,5.6333 5.5,-2.3885 c 3.025,-1.3136 16.1375,-7.1339 29.1389,-12.9339 245.7184,-109.616 453.8058,-159.41409 522.2678,-124.9855 8.2216,4.1345 16.2464,11.8477 19.5492,18.7903 3.1822,6.689 3.929,19.4973 1.6544,28.3759 -7.5816,29.5939 -32.3793,63.4229 -79.1103,107.9222 -88.4092,84.1872 -253.2322,191.5393 -425.5,277.1355 -70.5748,35.0672 -156.8144,70.9916 -235.385,98.0533 -195.9702,67.4971 -367.4029,88.2759 -486.115,58.9203 -67.0498,-16.5803 -118.0168,-49.8862 -146.4208,-95.6827 -35.0742,-56.5513 -40.8742,-125.2327 -18.0065,-213.2245 30.0215,-115.5186 117.1331,-259.5349 242.8566,-401.50001 50.763,-57.32085 123.8181,-130.18697 187.0707,-186.5867 235.8498,-210.2978 529.4196,-391.6472 802.5,-495.7351 22.0499,-8.4046 60.9432,-22.3513 73.2272,-26.2584 3.9749,-1.2643 7.0556,-2.4703 6.846,-2.68 -0.5161,-0.5161 -18.783,4.3806 -50.0046,13.4044 -174.4917,50.4321 -371.3363,140.8991 -560.5686,257.6295 -142.7169,88.0367 -273.3098,184.4313 -398.5,294.14497 -76.0025,66.60681 -158.3138,147.62083 -222.0815,218.58133 -198.9015,221.33721 -325.4723,445.54261 -354.8073,628.50001 -4.9498,30.8713 -6.0351,44.8479 -6.0564,78 -0.021,32.5112 0.7025,42.2214 4.9911,67 6.5199,37.671 22.8421,80.4085 42.1379,110.3328 13.8691,21.5082 38.768,49.0914 58.3162,64.6029 36.2886,28.795 84.3611,51.9166 135,64.9316 23.4812,6.035 65.556,13.6327 75.4958,13.6327 1.8624,0 3.6643,0.45 4.0042,1 0.4023,0.6509 24.4235,0.9989 68.809,0.9967 53.7501,0 71.4735,-0.3271 83.691,-1.5325 z M 604.7686,1747.2905 c 21.38565,-5.8269 40.23963,-18.5845 53.5287,-36.2205 5.65856,-7.5094 14.06645,-21.9738 15.43393,-26.5514 l 0.67215,-2.25 -23.4299,0 -23.42989,0 -5.16448,6.9452 c -11.95214,16.0732 -24.69366,22.7059 -42.01223,21.8699 -13.52871,-0.6531 -20.77531,-5.289 -26.2367,-16.7844 -1.57667,-3.3186 -2.28312,-7.139 -2.64074,-14.2807 l -0.48823,-9.75 62.52178,0 62.52179,0 2.09137,-8.75 c 3.46092,-14.48 4.35021,-21.1908 4.40612,-33.25 0.10528,-22.7043 -5.28197,-37.1894 -18.84045,-50.6577 -8.07941,-8.0257 -17.19478,-13.0665 -28.96085,-16.0154 -10.4109,-2.6093 -34.31034,-2.3692 -44.61879,0.4484 -36.41903,9.9541 -63.50573,37.0784 -76.77965,76.8864 -17.95801,53.8553 -4.45234,94.6435 35.68946,107.7848 8.93431,2.9249 14.14782,3.441 31.23661,3.0921 13.06781,-0.2668 18.16409,-0.7903 24.5,-2.5167 z m -41.05845,-117.7719 c 1.82306,-4.8669 7.66045,-13.0156 12.61056,-17.6038 6.65314,-6.1667 13.52184,-10.0397 21.48285,-12.1133 22.84749,-5.951 40.46504,5.6512 40.46504,26.6486 l 0,4.8185 -37.60699,0 c -35.39924,0 -37.5685,-0.1027 -36.95146,-1.75 z m 240.05845,117.8751 c 20.48141,-5.4681 40.0775,-18.5547 53.3402,-35.6214 4.4274,-5.6973 17.1598,-26.992 17.1598,-28.6994 0,-0.4424 -10.78323,-0.8043 -23.96274,-0.8043 l -23.96274,0 -3.95586,5.8253 c -5.43925,8.0096 -13.94475,15.5123 -21.87805,19.2985 -8.47855,4.0464 -21.87404,5.1551 -29.93526,2.4776 -13.4926,-4.4815 -20.30535,-15.9847 -20.30535,-34.2851 l 0,-5.3163 62.453,0 62.45299,0 1.05758,-3.75 c 5.65561,-20.0539 7.30364,-46.0306 3.75896,-59.25 -3.14567,-11.7314 -8.30362,-20.7604 -16.63177,-29.114 -13.49154,-13.5327 -26.27507,-18.1517 -50.59076,-18.2795 -12.67693,-0.067 -16.3058,0.2758 -23.43153,2.2112 -11.63807,3.1611 -20.78908,7.2218 -30.40001,13.49 -16.95844,11.0601 -28.85834,24.9257 -38.68412,45.0742 -9.87217,20.2437 -15.012,41.7321 -14.94921,62.4991 0.0664,21.9633 5.40302,36.3011 18.16756,48.8104 8.97194,8.7926 18.16798,13.4925 32.91029,16.8199 9.76706,2.2044 36.91206,1.4103 47.38702,-1.3862 z m -38.30864,-122.3749 c 4.34153,-8.201 13.77966,-17.5802 21.64614,-21.5111 12.68078,-6.3367 27.66008,-6.9758 37.19805,-1.5872 8.90137,5.0289 12.88767,12.4522 12.94059,24.0981 l 0.0239,5.25 -37.55864,0 -37.55864,0 3.30864,-6.2498 z m 371.30854,121.9047 c 27.0042,-6.959 45.9795,-18.7508 61.4529,-38.1885 11.9044,-14.9544 18.0471,-31.2636 18.0471,-47.9163 0,-23.3622 -10.2892,-39.2652 -32.7067,-50.5514 -9.9266,-4.9976 -20.5564,-8.4983 -46.9849,-15.4733 -30.8698,-8.1472 -39.6858,-11.6249 -42.4199,-16.7338 -1.987,-3.7126 -1.2999,-12.0463 1.4387,-17.4506 7.7144,-15.2237 27.0189,-23.1585 53.6728,-22.0614 19.6275,0.8078 28.2366,4.6363 32.7931,14.5829 2.1328,4.6557 2.4453,6.7313 2.3713,15.75 l -0.085,10.3875 22.3534,0 c 20.3446,0 22.4189,-0.1573 23.0825,-1.75 1.2999,-3.12 1.746,-26.5361 0.6201,-32.5499 -1.831,-9.7808 -7.9415,-21.3624 -14.98,-28.3923 -14.5085,-14.4911 -35.5815,-21.4175 -65.1552,-21.4154 -31.7482,0 -58.1574,9.6532 -77.6663,28.3826 -15.8792,15.2446 -24.4565,32.326 -25.9735,51.725 -1.8597,23.7823 11.2858,42.8663 36.9968,53.7098 4.3597,1.8387 21.1301,7.1567 37.2675,11.8178 32.673,9.4372 36.2754,10.6848 41.5525,14.3904 4.9435,3.4714 7.2105,7.5875 7.1939,13.0618 -0.031,10.2492 -6.2616,21.0981 -15.7234,27.3785 -23.7779,15.7829 -64.8576,15.4722 -82.3183,-0.6225 -6.5486,-6.0363 -8.705,-12.6058 -8.6936,-26.4858 l 0.01,-11.25 -22.2191,0 -22.2191,0 -1.2405,8.7389 c -1.7582,12.3862 -0.7486,27.8112 2.4235,37.025 3.7543,10.9053 7.4218,17.001 14.6104,24.2843 8.0463,8.1522 15.9195,12.9578 27.6899,16.9013 14.7502,4.9418 23.3083,6.0035 45.3101,5.6212 17.0078,-0.2955 20.778,-0.6681 29.5,-2.9158 z m 198.0663,2.2922 c 13.6021,-2.4137 29.2644,-8.7593 41.3418,-16.7496 7.455,-4.9323 19.0416,-16.0292 25.1904,-24.1259 9.4935,-12.5011 17.9883,-33.2064 23.0079,-56.0796 2.9964,-13.6543 3.3007,-35.1119 0.6378,-44.992 -4.7858,-17.7573 -16.5162,-32.4479 -31.8169,-39.8458 -12.7439,-6.1617 -19.7246,-7.5445 -37.9273,-7.5129 -12.6398,0.022 -16.9279,0.4185 -23.2379,2.1488 -24.6965,6.7723 -47.273,22.6499 -60.5788,42.6039 -21.0861,31.6218 -29.3108,77.2297 -19.0445,105.606 6.7641,18.6959 24.9066,34.0375 45.3612,38.3583 8.2912,1.7514 28.6887,2.0754 37.0663,0.5888 z m -22.8487,-39.3843 c -8.726,-3.1131 -14.6321,-9.3056 -17.2862,-18.1245 -4.6747,-15.5328 1.793,-48.0394 13.2521,-66.6046 6.8725,-11.1343 18.2012,-20.4071 29.6014,-24.2294 6.0435,-2.0262 20.0169,-2.1147 25.5521,-0.1618 9.0464,3.1917 15.4859,10.8221 17.5801,20.8312 2.4765,11.8363 -0.8757,33.8696 -7.7176,50.7263 -7.8962,19.4542 -20.9885,32.5403 -37.6001,37.5823 -5.8014,1.7609 -18.4209,1.7503 -23.3818,-0.02 z m 677.7824,38.5522 c 9.9891,-2.0629 23.0344,-7.1267 32.0719,-12.4491 l 5.9281,-3.4912 1.1852,6.4033 c 0.6519,3.5218 1.4659,6.8575 1.809,7.4126 0.6385,1.0332 45.5058,1.5093 45.5058,0.4829 0,-0.2896 -0.9471,-4.1802 -2.1047,-8.6459 -3.996,-15.416 -2.8764,-24.6377 10.1168,-83.3276 7.4841,-33.8057 9.9081,-49.5856 8.887,-57.8525 -2.2046,-17.8494 -13.6299,-29.3122 -34.5986,-34.7124 -18.3481,-4.7254 -48.5994,-3.3731 -68.2584,3.0512 -26.4415,8.6406 -40.7395,21.8754 -53.6243,49.6365 -2.4298,5.2351 -4.4178,9.7116 -4.4178,9.9478 0,0.2362 10.4625,0.416 23.25,0.3997 l 23.25,-0.03 3.4866,-6.0861 c 4.3563,-7.6043 12.4616,-15.1135 18.7279,-17.3507 3.0855,-1.1016 9.2477,-1.8945 17.3465,-2.232 14.1058,-0.5879 21.6757,0.8774 26.6538,5.1594 2.5418,2.1864 2.7852,2.9932 2.7849,9.2323 -6e-4,11.6983 0.021,11.671 -11.2259,14.1477 -5.3756,1.1837 -17.4238,3.293 -26.7738,4.6872 -40.9803,6.1109 -51.7723,9.0361 -65.2336,17.6817 -6.337,4.07 -16.4266,13.7417 -20.4806,19.6326 -9.2646,13.4619 -13.3466,31.0802 -10.4177,44.9631 3.6516,17.308 15.2132,28.597 34.1319,33.327 9.8482,2.4621 30.1089,2.4681 42,0.012 z m -20.5,-37.2867 c -7.6427,-2.1646 -10.6462,-7.3985 -8.9459,-15.589 0.9011,-4.3404 2.0668,-6.3962 5.7871,-10.2062 6.2135,-6.363 12.0186,-8.3738 36.1039,-12.5057 10.7552,-1.8451 22.6203,-4.0685 26.367,-4.941 3.7466,-0.8725 7.2055,-1.5864 7.6865,-1.5864 1.4498,0 -4.7343,16.9131 -8.1043,22.1647 -6.8147,10.6199 -20.1889,19.5191 -33.6074,22.3625 -7.6934,1.6302 -20.0739,1.7776 -25.2869,0.3011 z m 369.5,37.2781 c 23.223,-4.8183 43.0834,-17.2321 58.4355,-36.5253 4.4138,-5.547 17.0645,-26.9036 17.0645,-28.8081 0,-0.4251 -10.7252,-0.773 -23.8338,-0.773 l -23.8338,0 -3.7975,5.5139 c -5.5493,8.0572 -15.0093,16.3707 -22.5294,19.7989 -5.1916,2.3667 -8.3232,3.0617 -15.5055,3.4412 -10.4271,0.551 -15.2842,-0.5135 -21.6836,-4.7522 -8.4626,-5.6054 -13.214,-16.6095 -12.615,-29.216 l 0.2986,-6.2858 62.399,-0.5 62.399,-0.5 1.7784,-7.5374 c 4.78,-20.2593 6.0642,-39.4096 3.4698,-51.743 -6.4571,-30.696 -28.5289,-48.7899 -62.0566,-50.8724 -34.9486,-2.1708 -69.0903,15.0959 -89.7561,45.3928 -13.4642,19.7391 -22.3427,47.7251 -23.4003,73.76 -0.4942,12.1654 -0.2863,15.1773 1.5859,22.9839 5.9099,24.6428 23.3787,41.445 48.7476,46.8872 10.1212,2.1712 31.7367,2.0376 42.8333,-0.2647 z m -35.5,-118.4027 c 0,-0.713 2.2295,-4.6925 4.9545,-8.8433 9.9476,-15.1526 26.7438,-23.8467 43.613,-22.575 8.8847,0.6698 15.449,3.6778 19.9123,9.1246 4.9668,6.0613 6.0497,10.1815 5.6091,21.34 l -0.089,2.25 -37,0 c -29.6381,0 -37,-0.2579 -37,-1.2963 z m -685.8953,117.6341 15.6047,-1.7156 0.6812,-15.9336 c 0.3747,-8.7634 0.9519,-17.9083 1.2827,-20.322 l 0.6015,-4.3884 -13.2727,0.6718 -13.2727,0.6717 0.7062,-5.9108 c 0.523,-4.3774 15.9432,-75.484 21.0703,-97.1609 0.5213,-2.2038 0.826,-2.25 14.8563,-2.25 l 14.3241,0 3.7833,-17.1256 c 2.0809,-9.4191 4.0039,-17.9691 4.2735,-19 0.4621,-1.7672 -0.3176,-1.8744 -13.6265,-1.8744 -10.981,0 -14.1166,-0.2914 -14.1166,-1.3118 0,-0.7214 3.1482,-15.4232 6.9961,-32.6706 3.8478,-17.2473 6.8853,-31.4554 6.75,-31.5734 -0.1354,-0.118 -11.4938,5.7334 -25.241,13.0032 l -24.9949,13.2179 -4.4352,19.6673 -4.4351,19.6674 -10.5939,0 -10.5938,0 -4.0324,18.75 -4.0324,18.75 10.3063,0.2838 c 5.6685,0.1561 10.3063,0.4964 10.3063,0.7562 0,0.2598 -4.3102,19.707 -9.5781,43.2161 -14.199,63.3648 -15.6522,72.4998 -12.9905,81.6558 2.3139,7.9597 6.9598,13.4804 14.6129,17.3643 10.9496,5.5569 16.395,6.0534 39.0604,3.5616 z M 247.47196,1694.2686 c 6.43686,-28.875 11.72436,-52.6125 11.75,-52.75 0.0256,-0.1375 24.56307,-0.25 54.52759,-0.25 l 54.48095,0 0.52957,-2.25 c 2.80105,-11.9008 8.50853,-38.325 8.50853,-39.3924 0,-1.1267 -9.18374,-1.3576 -54,-1.3576 -36.32092,0 -54,-0.3366 -54,-1.0282 0,-0.8223 9.35995,-43.7243 11.50236,-52.7218 l 0.53574,-2.25 62.98095,0 c 34.63952,0 62.98095,-0.1418 62.98095,-0.3151 0,-0.1733 2.025,-9.3829 4.5,-20.4658 2.475,-11.0829 4.5,-20.6161 4.5,-21.1849 0,-0.7042 -27.41561,-1.0342 -85.93261,-1.0342 -80.97422,0 -85.96286,0.101 -86.45683,1.75 -0.49281,1.6452 -53.1069,237.5635 -54.30912,243.5187 l -0.55894,2.7688 23.37875,-0.2688 23.37875,-0.2687 11.70336,-52.5 z m 168.12468,50.75 c 0.29967,-1.2375 5.32346,-23.9975 11.16397,-50.5778 13.11159,-59.6709 16.93971,-71.2448 26.87716,-81.2596 11.04792,-11.1339 22.54035,-11.6188 37.73474,-1.5923 l 2.6039,1.7183 11.09215,-18.2969 c 6.10068,-10.0633 11.37038,-19.022 11.71043,-19.9082 0.46154,-1.2027 -1.23603,-2.761 -6.69605,-6.1464 -17.04295,-10.5674 -34.63118,-12.3872 -49.21051,-5.0915 -2.80711,1.4047 -6.11633,3.4988 -7.35383,4.6535 -2.56518,2.3936 -2.57656,2.3763 -1.31981,-2.0057 l 0.9302,-3.2434 -20.9302,0 c -11.5116,0 -20.93911,0.1125 -20.95002,0.25 -0.0109,0.1375 -9.1698,41.2 -20.3531,91.25 -11.18329,50.05 -20.14781,91.3375 -19.92115,91.75 0.22666,0.4125 10.23677,0.75 22.24469,0.75 21.81308,0 21.83306,0 22.37743,-2.25 z m 1092.35636,-70.75 c 8.9248,-39.875 16.2468,-72.6125 16.2712,-72.75 0.024,-0.1375 7.214,-0.25 15.9769,-0.25 14.3015,0 15.9879,-0.1792 16.4728,-1.75 0.7883,-2.5541 7.5946,-34.1968 7.5946,-35.3076 0,-0.5506 -6.6524,-0.9424 -16,-0.9424 -12.1316,0 -16.0008,-0.3022 -16.0032,-1.25 0,-0.6875 0.9854,-4.5851 2.1936,-8.6614 3.0334,-10.2339 7.2146,-14.627 14.8096,-15.5598 3.025,-0.3715 10.1986,-0.1885 15.9412,0.4066 5.8513,0.6064 10.8205,0.7029 11.3038,0.2196 0.8985,-0.8985 15.8793,-38.3825 15.4816,-38.7372 -0.1246,-0.1112 -9.22,-1.204 -20.212,-2.4286 -17.2961,-1.9268 -21.1071,-2.0695 -28.3208,-1.0603 -20.836,2.9148 -36.6513,13.9496 -45.5948,31.8128 -1.4433,2.8829 -4.351,11.8829 -6.4614,20 l -3.8372,14.7583 -12.5921,0.2794 c -10.8952,0.2418 -12.6621,0.5114 -13.1108,2 -1.024,3.3976 -7.5975,33.5827 -7.5975,34.8873 0,1.0406 2.7681,1.3333 12.6084,1.3333 l 12.6084,0 -0.5996,2.3889 c -1.7589,7.0081 -31.6172,141.6348 -31.6172,142.5574 0,0.7646 6.6641,1.0113 22.2288,0.8228 l 22.2289,-0.2691 16.2268,-72.5 z m 250.3641,20.8019 c 13.9942,-28.709 25.5398,-51.5465 25.6569,-50.75 0.1171,0.7964 0.9054,19.8981 1.7519,42.4481 0.8465,22.55 1.8141,45.3965 2.1502,50.77 l 0.611,9.7699 20.5005,-0.2699 20.5005,-0.27 49.3511,-91 c 27.143,-50.05 49.3686,-91.3459 49.3901,-91.7688 0.022,-0.4228 -10.1444,-0.6478 -22.5911,-0.5 l -22.6302,0.2688 -27.294,51.8742 c -15.0117,28.5309 -27.6942,52.2745 -28.1833,52.7636 -0.5191,0.5191 -1.4018,-14.832 -2.1203,-36.8742 -0.6771,-20.77 -1.5064,-44.6261 -1.843,-53.0136 l -0.612,-15.25 -21.1093,0 -21.1094,0 -26.4841,54.5075 c -21.4586,44.1645 -26.5297,53.8894 -26.7245,51.25 -0.4377,-5.9296 -5.2596,-100.5013 -5.2596,-103.155 l 0,-2.6025 -23,0 c -17.7293,0 -23.0017,0.2865 -23.0076,1.25 -0.02,3.2562 14.1563,180.4073 14.5241,181.5 0.3186,0.9465 5.4785,1.25 21.2544,1.25 l 20.8337,0 25.444,-52.1981 z m 396.9514,51.4971 c 0,-2.5653 22.5278,-100.6605 24.5148,-106.7477 10.4494,-32.0108 28.7682,-43.3199 48.5776,-29.9891 4.0072,2.6966 5.4354,3.2203 6.0841,2.2308 3.2323,-4.9302 21.9335,-35.916 22.3816,-37.0839 0.8102,-2.1114 -12.4912,-10.3143 -21.0581,-12.9864 -5.1146,-1.5954 -9.5588,-2.186 -16.5,-2.1928 -8.3038,-0.01 -10.2502,0.3407 -15.4578,2.7702 -3.2768,1.5288 -7.3883,3.8706 -9.1367,5.2042 l -3.1788,2.4246 0.7813,-3.4644 0.7814,-3.4645 -20.8273,0 c -18.9675,0 -20.8745,0.1563 -21.3558,1.75 -0.2907,0.9625 -9.3474,41.35 -20.1259,89.75 -10.7786,48.4 -19.8448,89.0125 -20.1473,90.25 l -0.5499,2.25 22.6084,0 c 12.4346,0 22.6084,-0.3155 22.6084,-0.701 z m 469.4382,-165.299 c 0.382,-3.575 2.0028,-14.15 3.6018,-23.5 19.7024,-115.2082 74.7311,-245.1331 161.2632,-380.7487 6.756,-10.5882 15.5266,-23.9372 19.4902,-29.6643 3.9636,-5.7272 7.2066,-11.1978 7.2066,-12.1569 0,-0.9591 -3.4325,-11.7983 -7.6278,-24.087 -11.859,-34.7367 -23.3383,-70.672 -36.8455,-115.34311 -96.05,-317.6563 -146.326,-615.1657 -140.4572,-831.1583 0.5057,-18.6129 1.1788,-34.9667 1.4958,-36.3417 2.5585,-11.0999 -12.6667,27.6975 -24.9192,63.5 -51.6908,151.0431 -81.4219,322.1015 -91.8569,528.5 -2.0303,40.15825 -1.6909,189.46072 0.5263,231.5 9.6675,183.30541 32.466,346.01741 71.0676,507.20671 12.8977,53.8574 34.451,132.3987 35.6906,130.0583 0.3685,-0.6957 0.9825,-4.19 1.3645,-7.765 z M 892.24954,1418.9189 c 41.42611,-7.1313 76.74711,-24.4053 94.20001,-46.0693 5.4619,-6.7798 11.2928,-17.4459 13.3807,-24.4767 1.72855,-5.8209 100.43825,-452.71927 100.43825,-454.72455 0,-1.16771 -26.6646,-1.37976 -173.49995,-1.37976 -95.42495,0 -173.49995,0.20779 -173.49995,0.46176 0,0.68042 -17.01643,77.73429 -17.62028,79.78824 -0.48741,1.65786 4.41176,1.75 93.05289,1.75 88.46724,0 93.56424,0.0954 93.50944,1.75 -0.032,0.9625 -17.922,82.30001 -39.75578,180.75001 l -39.69789,179 -199.35322,0.2525 -199.35321,0.2524 0.53337,-2.2524 c 0.29336,-1.2389 15.20889,-68.8525 33.14562,-150.2525 17.93673,-81.4 61.77752,-279.85001 97.42398,-441.00001 l 64.81174,-293 199.54593,-0.2524 199.54581,-0.2525 -0.9602,4.2525 c -8.4172,37.2781 -50.82825,230.3149 -50.82825,231.3481 0,1.212 11.5001,1.3794 79.73835,1.1603 l 79.7385,-0.256 27.3426,-123 c 25.4186,-114.3447 27.3476,-123.7037 27.412,-133 0.053,-7.7134 -0.3987,-11.2819 -1.9777,-15.6061 -5.6106,-15.3654 -17.5303,-26.9489 -37.4023,-36.3474 -16.7998,-7.9455 -34.166,-11.8381 -60.3909,-13.5364 -20.5552,-1.3312 -467.43076,-1.3182 -485.9605,0.014 -29.67973,2.134 -52.14723,7.7861 -76.86553,19.337 -28.25389,13.2032 -47.13204,33.3077 -53.09679,56.5462 -4.61368,17.9748 -200.73576,907.43081 -201.19632,912.46881 -2.19857,24.0499 15.21335,45.6019 47.0208,58.2013 9.19205,3.6411 27.19737,7.9038 39.13784,9.2657 4.64955,0.5303 113.32979,0.8494 259.5,0.7619 237.46882,-0.1422 252.08473,-0.2512 261.98094,-1.9548 z m 366.41596,0.5997 c 0.2925,-0.9625 9.5254,-42.475 20.5176,-92.25 26.0023,-117.7446 70.9776,-320.7223 71.7216,-323.6865 l 0.5806,-2.3135 214.7857,0 c 141.9948,0 218.2952,-0.3539 225.1415,-1.0444 25.2315,-2.54446 49.3592,-9.29847 69.356,-19.41458 28.0496,-14.18995 44.099,-30.57937 50.9614,-52.04103 1.4069,-4.4 26.4493,-116 55.6498,-248 38.1775,-172.58 53.2397,-242.4033 53.6179,-248.5552 1.1613,-18.885 -7.8997,-34.7043 -27.1065,-47.3244 -14.511,-9.5347 -31.3206,-15.3923 -55.3191,-19.277 -10.0773,-1.6312 -30.6781,-1.7707 -306.477,-2.0748 -282.698,-0.3117 -295.6978,-0.2479 -296.2263,1.4527 -0.7942,2.5556 -233.6002,1054.38541 -233.6002,1055.41801 0,0.4736 35.0531,0.8607 77.9326,0.8607 73.3523,0 77.9639,-0.1029 78.4644,-1.75 z m 111.603,-503.60697 c 0,-0.19632 23.175,-104.88569 51.5,-232.64304 28.325,-127.7573 51.5,-232.6717 51.5,-233.143 0,-0.473 86.9723,-0.857 194.1135,-0.857 l 194.1135,0 -0.4096,2.75 c -0.2253,1.5125 -23.3388,106.5857 -51.3635,233.4961 l -50.9539,230.74608 -194.25,0.004 c -106.8375,0.002 -194.25,-0.15672 -194.25,-0.35305 z m 1080,503.77327 c 0,-0.8711 -1.558,-10.8836 -3.4623,-22.25 -1.9042,-11.3665 -4.5972,-28.3163 -5.9844,-37.6663 -1.3872,-9.35 -2.7746,-18.4625 -3.0831,-20.25 l -0.5608,-3.25 -186.5631,0 -186.5631,0 0.5989,-2.3864 c 0.5595,-2.2292 64.0847,-289.1353 169.5531,-765.77221 24.7856,-112.0123 45.0648,-203.9275 45.0648,-204.2561 0,-0.3286 -35.1802,-0.4822 -78.1782,-0.3414 l -78.1782,0.2561 -41.7371,188.5 c -144.2924,651.67651 -191.9065,867.02481 -191.9065,867.95161 0,0.7287 85.5385,1.0484 280.5,1.0484 255.257,0 280.5,-0.1425 280.5,-1.5837 z"
     id="path2987"
     inkscape:connector-curvature="0" />
</svg>
