<?xml version="1.0" encoding="UTF-8" standalone="no"?>
<!-- Created with Inkscape (http://www.inkscape.org/) -->

<svg
   xmlns:dc="http://purl.org/dc/elements/1.1/"
   xmlns:cc="http://creativecommons.org/ns#"
   xmlns:rdf="http://www.w3.org/1999/02/22-rdf-syntax-ns#"
   xmlns:svg="http://www.w3.org/2000/svg"
   xmlns="http://www.w3.org/2000/svg"
   xmlns:sodipodi="http://sodipodi.sourceforge.net/DTD/sodipodi-0.dtd"
   xmlns:inkscape="http://www.inkscape.org/namespaces/inkscape"
   width="744.09448819"
   height="1052.3622047"
   id="svg2"
   version="1.1"
   inkscape:version="0.47 r22583"
   sodipodi:docname="m1-product-label.svg">
  <defs
     id="defs4">
    <inkscape:perspective
       sodipodi:type="inkscape:persp3d"
       inkscape:vp_x="0 : 526.18109 : 1"
       inkscape:vp_y="0 : 1000 : 0"
       inkscape:vp_z="744.09448 : 526.18109 : 1"
       inkscape:persp3d-origin="372.04724 : 350.78739 : 1"
       id="perspective10" />
    <inkscape:perspective
       id="perspective15"
       inkscape:persp3d-origin="160 : 80 : 1"
       inkscape:vp_z="320 : 120 : 1"
       inkscape:vp_y="0 : 1000 : 0"
       inkscape:vp_x="0 : 120 : 1"
       sodipodi:type="inkscape:persp3d" />
    <inkscape:perspective
       id="perspective31"
       inkscape:persp3d-origin="60 : 14 : 1"
       inkscape:vp_z="120 : 21 : 1"
       inkscape:vp_y="0 : 1000 : 0"
       inkscape:vp_x="0 : 21 : 1"
       sodipodi:type="inkscape:persp3d" />
    <inkscape:perspective
       id="perspective93"
       inkscape:persp3d-origin="360 : 239.33333 : 1"
       inkscape:vp_z="720 : 359 : 1"
       inkscape:vp_y="0 : 1000 : 0"
       inkscape:vp_x="0 : 359 : 1"
       sodipodi:type="inkscape:persp3d" />
    <inkscape:perspective
       id="perspective10-0"
       inkscape:persp3d-origin="0.5 : 0.33333333 : 1"
       inkscape:vp_z="1 : 0.5 : 1"
       inkscape:vp_y="0 : 1000 : 0"
       inkscape:vp_x="0 : 0.5 : 1"
       sodipodi:type="inkscape:persp3d" />
    <inkscape:perspective
       id="perspective3282"
       inkscape:persp3d-origin="125 : 33.333333 : 1"
       inkscape:vp_z="250 : 50 : 1"
       inkscape:vp_y="0 : 1000 : 0"
       inkscape:vp_x="0 : 50 : 1"
       sodipodi:type="inkscape:persp3d" />
    <inkscape:perspective
       id="perspective3385"
       inkscape:persp3d-origin="37.5 : 8.3333333 : 1"
       inkscape:vp_z="75 : 12.5 : 1"
       inkscape:vp_y="0 : 1000 : 0"
       inkscape:vp_x="0 : 12.5 : 1"
       sodipodi:type="inkscape:persp3d" />
  </defs>
  <sodipodi:namedview
     id="base"
     pagecolor="#ffffff"
     bordercolor="#666666"
     borderopacity="1.0"
     inkscape:pageopacity="0.0"
     inkscape:pageshadow="2"
     inkscape:zoom="1.979899"
     inkscape:cx="276.80547"
     inkscape:cy="866.99807"
     inkscape:document-units="px"
     inkscape:current-layer="layer1"
     showgrid="false"
     inkscape:window-width="1364"
     inkscape:window-height="766"
     inkscape:window-x="0"
     inkscape:window-y="0"
     inkscape:window-maximized="0"
     showborder="false"
     inkscape:showpageshadow="false" />
  <metadata
     id="metadata7">
    <rdf:RDF>
      <cc:Work
         rdf:about="">
        <dc:format>image/svg+xml</dc:format>
        <dc:type
           rdf:resource="http://purl.org/dc/dcmitype/StillImage" />
        <dc:title />
      </cc:Work>
    </rdf:RDF>
  </metadata>
  <g
     inkscape:label="Layer 1"
     inkscape:groupmode="layer"
     id="layer1">
    <text
       xml:space="preserve"
       style="font-size:32px;font-style:normal;font-variant:normal;font-weight:normal;font-stretch:normal;text-align:start;line-height:100%;writing-mode:lr-tb;text-anchor:start;fill:#000000;fill-opacity:1;stroke:none;font-family:Yanone Kaffeesatz;-inkscape-font-specification:Yanone Kaffeesatz"
       x="42.857143"
       y="139.50504"
       id="text2816"
       sodipodi:linespacing="100%"><tspan
         sodipodi:role="line"
         id="tspan2818"
         x="42.857143"
         y="139.50504">Milkymist One</tspan></text>
    <path
       style="fill:none;stroke:#000000;stroke-width:1px;stroke-linecap:butt;stroke-linejoin:miter;stroke-opacity:1"
       d="M 42.142857,141.88013 264.28571,141.50504"
       id="path2820"
       sodipodi:nodetypes="cc" />
    <g
       id="g2947"
       transform="matrix(0.18359247,0,0,0.18359247,270.65091,119.37539)">
      <g
         style="display:none"
         inkscape:label="Hilfslinien"
         id="layer2">
        <path
           d="m 190,120 c 0,38.65993 -31.34007,70 -70,70 -38.659932,0 -70,-31.34007 -70,-70 0,-38.659932 31.340068,-70 70,-70 38.65993,0 70,31.340068 70,70 z"
           sodipodi:ry="70"
           sodipodi:rx="70"
           sodipodi:cy="120"
           sodipodi:cx="120"
           id="path2388"
           style="fill:none;stroke:#000000;stroke-width:0.5;stroke-opacity:0.5"
           sodipodi:type="arc" />
        <path
           d="M 220,120 C 220,175.22847 175.22847,220 120,220 64.771525,220 20,175.22847 20,120 20,64.771525 64.771525,20 120,20 c 55.22847,0 100,44.771525 100,100 z"
           sodipodi:ry="100"
           sodipodi:rx="100"
           sodipodi:cy="120"
           sodipodi:cx="120"
           id="path3160"
           style="fill:none;stroke:#000000;stroke-width:0.5;stroke-opacity:0.5"
           sodipodi:type="arc" />
      </g>
      <g
         style="display:inline"
         id="layer1-5"
         inkscape:label="Ebene 1">
        <g
           id="g2956">
          <g
             id="ce">
            <path
               sodipodi:nodetypes="csssccsssc"
               d="M 130,189.2859 C 126.75354,189.75647 123.5,190 120,190 81.36,190 50,158.64 50,120 50,81.36 81.36,50 120,50 c 3.5,0 6.75354,0.243526 10,0.714099 L 130,20.5 C 126.71378,20.167608 123.5,20 120,20 64.8,20 20,64.8 20,120 c 0,55.2 44.8,100 100,100 3.5,0 6.71378,-0.16761 10.00444,-0.49495 L 130,189.2859 z"
               style="fill:#000000;fill-opacity:1;stroke:none"
               id="path_C" />
            <path
               id="path_E"
               style="fill:#000000;fill-opacity:1;stroke:none"
               d="m 300,189.2859 c -3.24646,0.47057 -6.5,0.7141 -10,0.7141 -38.64,0 -70,-31.36 -70,-70 0,-38.64 31.36,-70 70,-70 3.5,0 6.75354,0.243526 10,0.714099 L 300,20.5 C 296.71378,20.167608 293.5,20 290,20 234.8,20 190,64.8 190,120 c 0,55.2 44.8,100 100,100 3.5,0 6.71378,-0.16761 10.00444,-0.49495 L 300,189.2859 z"
               sodipodi:nodetypes="csssccsssc" />
          </g>
        </g>
        <rect
           y="105"
           x="200"
           height="30"
           width="80"
           id="rect_E"
           style="fill:#000000;fill-opacity:1;stroke:none" />
      </g>
    </g>
    <text
       xml:space="preserve"
       style="font-size:20px;font-style:normal;font-variant:normal;font-weight:normal;font-stretch:normal;text-align:start;line-height:125%;writing-mode:lr-tb;text-anchor:start;fill:#000000;fill-opacity:1;stroke:none;font-family:Yanone Kaffeesatz;-inkscape-font-specification:Yanone Kaffeesatz"
       x="43.659912"
       y="171.631"
       id="text2826"
       sodipodi:linespacing="125%"><tspan
         sodipodi:role="line"
         id="tspan2828"
         x="43.659912"
         y="171.631">Visit: milkymist.org/thankyou</tspan></text>
    <g
       id="layer1-4"
       inkscape:label="Layer 1"
       transform="matrix(0.5412224,0,0,0.5412224,338.86812,128.8619)">
      <g
         inkscape:export-ydpi="300.23013"
         inkscape:export-xdpi="300.23013"
         inkscape:export-filename="/mnt/hgfs/Bov/Documents/Work/2007/cc/identity/srr buttons/big/by-sa.png"
         id="g287"
         transform="matrix(0.9937807,0,0,0.9936694,-177.69409,-74.436409)">
        <g
           transform="matrix(0.872921,0,0,0.872921,50.12536,143.2144)"
           id="g5908_2_">
          <g
             transform="translate(-289.6157,99.0653)"
             id="g5706_2_">
            <path
               d="m 473.88455,-167.54724 c 3.48541,3.48596 5.22839,7.75391 5.22839,12.80273 0,5.04938 -1.7128,9.27148 -5.13834,12.66736 -3.63531,3.5766 -7.93179,5.36432 -12.88947,5.36432 -4.89777,0 -9.11987,-1.77261 -12.6651,-5.31955 -3.54584,-3.54581 -5.31845,-7.78299 -5.31845,-12.71213 0,-4.92859 1.77261,-9.19598 5.31845,-12.80273 3.4552,-3.48651 7.67725,-5.22894 12.6651,-5.22894 5.04829,0 9.31401,1.74243 12.79942,5.22894 z m -23.11798,2.34485 c -2.94675,2.97638 -4.41956,6.46289 -4.41956,10.46234 0,3.99835 1.45828,7.4552 4.37424,10.37067 2.91653,2.9165 6.38849,4.37476 10.41705,4.37476 4.02853,0 7.53018,-1.47281 10.50656,-4.41901 2.8259,-2.73584 4.23941,-6.17706 4.23941,-10.32642 0,-4.11804 -1.43646,-7.61292 -4.30768,-10.48474 -2.87064,-2.87067 -6.34988,-4.30652 -10.43829,-4.30652 -4.08837,0 -7.54638,1.44318 -10.37173,4.32892 z m 7.75449,8.70312 c -0.45032,-0.98163 -1.12433,-1.47223 -2.02325,-1.47223 -1.58914,0 -2.38342,1.06952 -2.38342,3.2085 0,2.13959 0.79428,3.20911 2.38342,3.20911 1.04938,0 1.79895,-0.5213 2.24866,-1.56512 l 2.20276,1.17303 c -1.04993,1.86548 -2.62506,2.79901 -4.72549,2.79901 -1.6199,0 -2.91763,-0.4967 -3.89206,-1.48956 -0.97607,-0.99341 -1.46274,-2.36273 -1.46274,-4.10797 0,-1.71558 0.50229,-3.07709 1.50748,-4.08563 1.00519,-1.00793 2.25705,-1.51251 3.75781,-1.51251 2.22012,0 3.80984,0.87488 4.77081,2.62286 l -2.38398,1.22051 z m 10.36334,0 c -0.45087,-0.98163 -1.11148,-1.47223 -1.98239,-1.47223 -1.62106,0 -2.43213,1.06952 -2.43213,3.2085 0,2.13959 0.81107,3.20911 2.43213,3.20911 1.05103,0 1.78717,-0.5213 2.20724,-1.56512 l 2.25201,1.17303 c -1.04825,1.86548 -2.62119,2.79901 -4.71768,2.79901 -1.61771,0 -2.91263,-0.4967 -3.88647,-1.48956 -0.97217,-0.99341 -1.45938,-2.36273 -1.45938,-4.10797 0,-1.71558 0.49448,-3.07709 1.48288,-4.08563 0.98782,-1.00793 2.24527,-1.51251 3.77347,-1.51251 2.21619,0 3.80368,0.87488 4.76132,2.62286 l -2.431,1.22051 z"
               id="path5708_2_" />
          </g>
        </g>
        <path
           d="m 338.09375,106.875 c -0.67048,0 -1.21875,0.51709 -1.21875,1.1875 l 0,21.25 c 0,0.15152 0.12972,0.28125 0.28125,0.28125 l 64.375,0 c 0.15154,0 0.28125,-0.12973 0.28125,-0.28125 l 0,-21.25 c 0,-0.67041 -0.54827,-1.1875 -1.21875,-1.1875 l -62.5,0 z m 0,0.53125 62.5,0 c 0.36767,0 0.65625,0.28861 0.65625,0.65625 l 0,14.75 -44.65625,0 c -1.63773,2.96077 -4.81642,4.96875 -8.4375,4.96875 -3.62265,0 -6.76931,-2.00614 -8.40625,-4.96875 l -2.34375,0 0,-14.75 c -10e-6,-0.36764 0.31983,-0.65625 0.6875,-0.65625 z M 384.1875,124.5 c 0.18751,0 0.35897,0.0205 0.53125,0.0625 0.17176,0.0417 0.33533,0.0937 0.46875,0.1875 0.13394,0.0937 0.23371,0.22926 0.3125,0.375 0.0783,0.14574 0.125,0.3238 0.125,0.53125 l -0.78125,0 c -0.007,-0.10714 -0.0247,-0.21114 -0.0625,-0.28125 -0.0383,-0.0704 -0.0932,-0.11581 -0.15625,-0.15625 -0.0636,-0.0399 -0.13733,-0.0772 -0.21875,-0.0937 -0.0819,-0.0168 -0.15335,0 -0.25,0 -0.063,0 -0.12447,-0.0131 -0.1875,0 -0.0636,0.0137 -0.13603,0.0291 -0.1875,0.0625 -0.052,0.0336 -0.0919,0.0748 -0.125,0.125 -0.0331,0.0504 -0.0312,0.14181 -0.0312,0.21875 0,0.0704 0.004,0.11293 0.0312,0.15625 0.0268,0.0436 0.078,0.0882 0.15625,0.125 0.0783,0.0368 0.17384,0.057 0.3125,0.0937 0.13866,0.0368 0.33822,0.0995 0.5625,0.15625 0.0667,0.0134 0.16255,0.0273 0.28125,0.0625 0.1187,0.0352 0.22662,0.11056 0.34375,0.1875 0.11713,0.0772 0.22688,0.18383 0.3125,0.3125 0.0851,0.12894 0.125,0.26787 0.125,0.46875 0,0.16412 -0.0302,0.32826 -0.0937,0.46875 -0.0636,0.14075 -0.15572,0.27311 -0.28125,0.375 -0.12554,0.10241 -0.28333,0.16177 -0.46875,0.21875 -0.18594,0.057 -0.41253,0.0937 -0.65625,0.0937 -0.1975,0 -0.37656,-0.0139 -0.5625,-0.0625 -0.18542,-0.0486 -0.35766,-0.14601 -0.5,-0.25 -0.14182,-0.10399 -0.25971,-0.21429 -0.34375,-0.375 -0.0835,-0.16097 -0.12815,-0.37265 -0.125,-0.59375 l 0.78125,0 c -2e-5,0.12053 0.0189,0.229 0.0625,0.3125 0.0431,0.0838 0.0843,0.16676 0.15625,0.21875 0.072,0.0517 0.15335,0.0688 0.25,0.0937 0.0972,0.0252 0.20903,0.0312 0.3125,0.0312 0.0699,0 0.13838,0.0118 0.21875,0 0.0798,-0.0116 0.14837,-0.0292 0.21875,-0.0625 0.0699,-0.0333 0.14128,-0.0977 0.1875,-0.15625 0.0473,-0.0586 0.0625,-0.12815 0.0625,-0.21875 0,-0.0969 -0.0318,-0.15835 -0.0937,-0.21875 -0.0615,-0.0604 -0.11842,-0.11581 -0.21875,-0.15625 -0.0998,-0.0399 -0.21717,-0.0948 -0.34375,-0.125 -0.12711,-0.0302 -0.27599,-0.0567 -0.40625,-0.0937 -0.13394,-0.0333 -0.24789,-0.0764 -0.375,-0.125 -0.12658,-0.0483 -0.24343,-0.11056 -0.34375,-0.1875 -0.10032,-0.0769 -0.18802,-0.16571 -0.25,-0.28125 -0.0615,-0.11554 -0.0937,-0.24239 -0.0937,-0.40625 0,-0.18434 0.0467,-0.3645 0.125,-0.5 0.0788,-0.1355 0.18539,-0.25315 0.3125,-0.34375 0.12658,-0.0903 0.27677,-0.14391 0.4375,-0.1875 0.1602,-0.0434 0.30855,-0.0625 0.46875,-0.0625 z m -16.53125,0.0937 1.6875,0 c 0.1707,0 0.32798,0.001 0.46875,0.0312 0.14077,0.0302 0.2429,0.0877 0.34375,0.15625 0.10032,0.0685 0.19485,0.16755 0.25,0.28125 0.0552,0.1137 0.0937,0.23898 0.0937,0.40625 0,0.18067 -0.0426,0.34821 -0.125,0.46875 -0.0819,0.12053 -0.21428,0.20431 -0.375,0.28125 0.22166,0.0636 0.39075,0.18462 0.5,0.34375 0.10925,0.15913 0.15625,0.33824 0.15625,0.5625 0,0.18067 -0.0233,0.3364 -0.0937,0.46875 -0.0704,0.13209 -0.16255,0.25998 -0.28125,0.34375 -0.11923,0.0838 -0.25393,0.11634 -0.40625,0.15625 -0.15285,0.0404 -0.33875,0.0625 -0.5,0.0625 l -1.71875,0 0,-3.5625 z m 3.15625,0 0.875,0 0.84375,1.40625 0.8125,-1.40625 0.875,0 -1.3125,2.1875 0,1.375 -0.78125,0 0,-1.375 -1.3125,-2.1875 z m 16.375,0 0.8125,0 1.34375,3.5625 -0.8125,0 -0.28125,-0.78125 -1.34375,0 -0.28125,0.78125 -0.78125,0 1.34375,-3.5625 z m -18.75,0.59375 0,0.84375 0.8125,0 c 0.14077,0 0.25288,-0.027 0.34375,-0.0937 0.0903,-0.067 0.125,-0.16229 0.125,-0.3125 0,-0.0835 -10e-4,-0.16544 -0.0312,-0.21875 -0.0304,-0.0536 -0.0746,-0.0948 -0.125,-0.125 -0.0504,-0.03 -0.12237,-0.0509 -0.1875,-0.0625 -0.0657,-0.0118 -0.11712,-0.0312 -0.1875,-0.0312 l -0.75,0 z m 19.15625,0.28125 -0.46875,1.3125 0.90625,0 -0.4375,-1.3125 z m -19.15625,1.09375 0,1 0.84375,0 c 0.0772,0 0.14837,-0.016 0.21875,-0.0312 0.0704,-0.0149 0.13392,-0.0276 0.1875,-0.0625 0.0536,-0.0352 0.093,-0.0961 0.125,-0.15625 0.0321,-0.0601 0.0625,-0.125 0.0625,-0.21875 0,-0.18382 -0.0523,-0.32774 -0.15625,-0.40625 -0.104,-0.0785 -0.23555,-0.125 -0.40625,-0.125 l -0.875,0 z"
           transform="matrix(1.8592324,0,0,1.8594407,-447.50998,-123.79272)"
           id="path294" />
        <g
           id="g296"
           enable-background="new    " />
        <g
           id="g302"
           enable-background="new    " />
        <g
           transform="matrix(0.624995,0,0,0.624995,391.2294,176.9332)"
           id="g6316_1_">
          <g
             transform="translate(-23.9521,-89.72962)"
             id="g6320_1_">
            <path
               d="m -168.2204,-68.05536 c -5.17194,0 -9.54852,1.80469 -13.13135,5.41333 -3.67661,3.73444 -5.51413,8.1532 -5.51413,13.25635 0,5.10315 1.83752,9.49152 5.51413,13.1626 3.67502,3.67194 8.05316,5.50787 13.13135,5.50787 5.14066,0 9.59537,-1.85156 13.36728,-5.55475 3.55005,-3.51562 5.3266,-7.88831 5.3266,-13.11572 0,-5.22662 -1.8078,-9.64697 -5.42191,-13.25635 -3.61407,-3.60864 -8.03756,-5.41333 -13.27197,-5.41333 z m 0.0469,3.36017 c 4.23752,0 7.836,1.49298 10.79697,4.48053 2.98907,2.9563 4.48441,6.56567 4.48441,10.82898 0,4.29382 -1.46252,7.85712 -4.39224,10.68915 -3.08438,3.04926 -6.71411,4.57349 -10.88913,4.57349 -4.17505,0 -7.7735,-1.5094 -10.79541,-4.52661 -3.02188,-3.01953 -4.53284,-6.59692 -4.53284,-10.73602 0,-4.13831 1.52658,-7.74847 4.57971,-10.82898 2.92815,-2.98756 6.51098,-4.48054 10.74853,-4.48054 z"
               id="path6322_1_" />
            <path
               d="m -176.49548,-52.02087 c 0.74377,-4.69769 4.05161,-7.20862 8.1954,-7.20862 5.96097,0 9.59225,4.32501 9.59225,10.09229 0,5.62738 -3.86411,9.99927 -9.686,9.99927 -4.00473,0 -7.58914,-2.46484 -8.24228,-7.30084 l 4.70319,0 c 0.14062,2.51099 1.77032,3.39459 4.09845,3.39459 2.65317,0 4.37817,-2.4649 4.37817,-6.23291 0,-3.95233 -1.49063,-6.04535 -4.28598,-6.04535 -2.04846,0 -3.8172,0.74457 -4.19064,3.30157 l 1.36874,-0.007 -3.70316,3.7016 -3.7016,-3.7016 1.47346,0.007 z"
               id="path6324_1_" />
          </g>
        </g>
        <g
           id="g313">
          <g
             id="g317">
            <path
               id="path319"
               d="m 245.68994,87.09766 c 0,-0.4165 -0.33789,-0.75342 -0.75391,-0.75342 l -4.77246,0 c -0.41602,0 -0.75391,0.33691 -0.75391,0.75342 l 0,4.77295 1.33105,0 0,5.65234 3.61719,0 0,-5.65234 1.33203,0 0,-4.77295 1e-5,0 z" />
            <circle
               d="m 244.18212,84.083008 c 0,0.901505 -0.73081,1.63232 -1.63232,1.63232 -0.9015,0 -1.63232,-0.730815 -1.63232,-1.63232 0,-0.901506 0.73082,-1.63232 1.63232,-1.63232 0.90151,0 1.63232,0.730814 1.63232,1.63232 z"
               sodipodi:ry="1.63232"
               sodipodi:rx="1.63232"
               sodipodi:cy="84.083008"
               sodipodi:cx="242.5498"
               id="circle321"
               r="1.63232"
               cy="84.083008"
               cx="242.5498" />
          </g>
          <path
             style="fill-rule:evenodd"
             id="path323"
             d="m 242.53467,78.31836 c -3.23145,0 -5.96826,1.12744 -8.20752,3.38379 -2.29785,2.33301 -3.44629,5.09521 -3.44629,8.28418 0,3.18897 1.14844,5.93213 3.44629,8.22705 2.29785,2.29443 5.03418,3.44189 8.20752,3.44189 3.21289,0 5.99805,-1.15674 8.35352,-3.47168 2.2207,-2.19678 3.33008,-4.92969 3.33008,-8.19727 0,-3.26758 -1.12891,-6.02881 -3.3877,-8.28418 -2.25879,-2.25634 -5.02442,-3.38378 -8.2959,-3.38378 z m 0.0293,2.09961 c 2.64844,0 4.89746,0.93359 6.74707,2.80078 1.87012,1.84717 2.80469,4.10352 2.80469,6.76758 0,2.68359 -0.91504,4.91113 -2.74609,6.68066 -1.92773,1.90576 -4.19629,2.8584 -6.80566,2.8584 -2.60937,0 -4.8584,-0.94287 -6.74658,-2.82959 -1.88965,-1.88623 -2.8335,-4.12256 -2.8335,-6.70947 0,-2.58643 0.9541,-4.84229 2.8623,-6.76758 1.83057,-1.86719 4.07031,-2.80078 6.71777,-2.80078 z"
             clip-rule="evenodd" />
        </g>
      </g>
    </g>
    <g
       id="g3011"
       transform="matrix(0.1375966,0,0,0.1375966,322.55856,155.02973)">
      <g
         id="g3">
        <path
           id="path5"
           d="m 539.126,408.396 c -21.729,28.541 -56.059,46.969 -94.693,46.969 -65.689,0 -118.947,-53.258 -118.947,-118.948 0,-65.693 53.255,-118.948 118.947,-118.948 38.637,0 72.967,18.429 94.693,46.971 h 52.795 c -26.672,-54.541 -82.689,-92.108 -147.488,-92.108 -90.618,0 -164.087,73.465 -164.087,164.087 0,90.62 73.469,164.084 164.087,164.084 64.799,0 120.816,-37.564 147.486,-92.105 h -52.793 v -0.002 z" />
        <path
           id="path7"
           d="m 492.529,369.966 c -10.41,15.457 -28.062,25.619 -48.096,25.619 -32.004,0 -57.951,-25.942 -57.951,-57.947 0,-32.004 25.947,-57.95 57.951,-57.95 18.957,0 35.785,9.107 46.357,23.181 h 47.252 c -13.766,-38.401 -50.475,-65.878 -93.609,-65.878 -54.912,0 -99.429,44.516 -99.429,99.428 0,54.913 44.517,99.426 99.429,99.426 43.135,0 79.844,-27.477 93.609,-65.879 h -45.513 l 0,0 z" />
      </g>
      <path
         id="path9"
         d="M 188.542,222.417 H 291.935 V 165.08 H 177.867 c -32.004,0 -57.95,25.943 -57.95,57.948 v 263.718 c 0,6.961 5.645,12.605 12.607,12.605 h 43.512 V 360.275 H 291.934 V 316.357 H 174.817 v -83.734 c 1.773,-5.902 7.245,-10.206 13.725,-10.206 z" />
      <g
         id="g11" />
      <g
         id="g75" />
    </g>
    <path
       sodipodi:nodetypes="cccscccssssssccsssccsssscccsssccsssssssssssccssssssssscccccc"
       id="path2818"
       d="m 286.67827,218.70499 0,-3.06459 2.14627,0 c 2.48453,0 3.9829,0.55955 3.9829,1.48735 0,0.35779 -0.35903,0.84267 -0.79786,1.07752 l -0.79785,0.427 0.79785,0.29515 c 0.61716,0.2283 0.79786,0.58357 0.79786,1.56865 0,1.11805 -0.11002,1.27351 -0.90135,1.27351 -0.78434,0 -0.90134,-0.15881 -0.90134,-1.22332 0,-1.25002 -0.45333,-1.661 -1.83219,-1.661 -0.5665,0 -0.6916,0.26086 -0.6916,1.44216 0,1.29794 -0.0901,1.44216 -0.90134,1.44216 -0.89075,0 -0.90135,-0.036 -0.90135,-3.06459 z m 4.25907,-1.33945 c 0.0915,-0.79386 -0.0616,-1.02271 -0.81041,-1.21064 -1.44024,-0.36147 -1.91365,-0.0117 -1.7249,1.27438 0.15051,1.02551 0.27498,1.12405 1.29448,1.02488 0.9255,-0.09 1.14823,-0.28542 1.24083,-1.08862 z m 5.02483,4.01462 c -0.93072,-0.54209 -0.88205,-3.41676 0.0664,-3.92437 0.87985,-0.47089 3.29483,-0.48247 4.50698,-0.0216 0.80319,0.30537 0.92482,0.56449 0.92482,1.97028 0,1.23133 -0.16688,1.70797 -0.69738,1.99189 -0.88872,0.47563 -3.97432,0.46522 -4.80085,-0.0162 l 0,-2e-5 z m 3.51526,-1.95409 c 0,-1.76264 -0.024,-1.8027 -1.08162,-1.8027 -0.99502,0 -1.09076,0.11129 -1.19578,1.38994 -0.1615,1.96632 0.11299,2.46442 1.28386,2.32974 0.93665,-0.10774 0.99354,-0.2175 0.99354,-1.91698 z m 4.50675,-0.72108 c 0,-3.02853 0.0106,-3.06459 0.90135,-3.06459 0.81121,0 0.90134,0.14422 0.90134,1.44216 0,1.40782 0.03,1.44216 1.26189,1.44216 1.23184,0 1.26189,-0.0343 1.26189,-1.44216 0,-1.29794 0.0901,-1.44216 0.90135,-1.44216 0.89074,0 0.90135,0.036 0.90135,3.06459 0,3.02853 -0.0106,3.06459 -0.90135,3.06459 -0.81121,0 -0.90135,-0.14422 -0.90135,-1.44216 0,-1.40782 -0.03,-1.44216 -1.26189,-1.44216 -1.23184,0 -1.26189,0.0343 -1.26189,1.44216 0,1.29794 -0.0901,1.44216 -0.90134,1.44216 -0.89075,0 -0.90135,-0.036 -0.90135,-3.06459 z m 9.01349,2.52378 c -0.51142,-0.61621 0.0119,-0.74523 0.60739,-0.14975 0.54155,0.54156 2.06999,0.26715 2.17822,-0.39106 0.0489,-0.29745 -0.63896,-1.08705 -1.52861,-1.75467 -0.88965,-0.66763 -1.61754,-1.42669 -1.61754,-1.68681 0,-1.4545 3.06492,-2.18332 4.52797,-1.07673 0.81494,0.61639 0.43493,0.72529 -0.59935,0.17176 -0.85722,-0.45877 -2.12592,-0.12297 -2.12592,0.56268 0,0.27176 0.73009,1.01842 1.62243,1.65925 1.73323,1.24471 2.05446,2.22847 0.92505,2.83291 -1.04442,0.55896 -3.47127,0.45702 -3.98964,-0.16758 z m -28.27671,-22.17812 13.56089,4.27258 21.02527,-18.85872 c -7.86259,8.45811 -13.69962,18.51289 -20.86263,27.56163 l -13.72353,-12.97549 z"
       style="fill:#000000" />
    <g
       id="layer1-6"
       inkscape:label="Layer 1"
       transform="matrix(0.14642111,0,0,0.14642111,115.98418,226.73554)">
      <rect
         ry="0"
         y="20"
         x="25"
         height="16"
         width="200"
         id="rect2160"
         style="fill:#000000;fill-opacity:1;stroke:none" />
      <rect
         y="52"
         x="25"
         height="16"
         width="40"
         id="rect6040"
         style="fill:#000000;fill-opacity:1;stroke:none" />
      <rect
         y="52"
         x="105"
         height="16"
         width="40"
         id="rect6042"
         style="fill:#000000;fill-opacity:1;stroke:none" />
      <rect
         y="52"
         x="185"
         height="16"
         width="40"
         id="rect6044"
         style="fill:#000000;fill-opacity:1;stroke:none" />
    </g>
    <g
       id="layer1-0"
       transform="translate(35.31986,220.84928)">
      <path
         id="path4153"
         style="fill:none;stroke:#000000;stroke-width:1;stroke-linecap:square;stroke-miterlimit:4;stroke-opacity:1;stroke-dasharray:none;stroke-dashoffset:0"
         transform="translate(2.541285,-12.45872)"
         d="m 14.541285,25 a 4.5412848,4.5412848 0 1 1 -9.0825696,0 4.5412848,4.5412848 0 1 1 9.0825696,0 z" />
      <path
         id="path4155"
         style="fill:none;stroke:#000000;stroke-width:1;stroke-linecap:square;stroke-miterlimit:4;stroke-opacity:1;stroke-dasharray:none;stroke-dashoffset:0"
         transform="translate(22.55046,-12.44954)"
         d="m 44.449541,25 a 4.4495411,4.4495411 0 1 1 -8.899082,0 4.4495411,4.4495411 0 1 1 8.899082,0 z" />
      <path
         id="path4159"
         style="fill:none;stroke:#000000;stroke-width:1;stroke-linecap:square;stroke-miterlimit:4;stroke-opacity:1;stroke-dasharray:none;stroke-dashoffset:0"
         transform="translate(2.5,-12.5)"
         d="m 43.011715,33.011715 a 11.330276,11.330276 0 1 1 -1e-6,-16.02343" />
      <path
         id="path4161"
         style="fill:#000000;fill-opacity:1;stroke:#000000;stroke-width:0.64067274;stroke-linecap:square;stroke-miterlimit:4;stroke-opacity:1;stroke-dasharray:none;stroke-dashoffset:0"
         transform="matrix(1.560859,0,0,1.560859,-17.13007,-26.52148)"
         d="m 36.422018,25 a 1.4220183,1.4220183 0 1 1 -2.844036,0 1.4220183,1.4220183 0 1 1 2.844036,0 z" />
      <path
         id="path5036"
         style="fill:none;stroke:#000000;stroke-width:1px;stroke-linecap:butt;stroke-linejoin:miter;stroke-opacity:1"
         d="m 17.5,12.5 8.486239,0" />
      <path
         id="path5038"
         style="fill:none;stroke:#000000;stroke-width:1px;stroke-linecap:butt;stroke-linejoin:miter;stroke-opacity:1"
         d="m 37.5,12.5 20.59633,0" />
      <path
         id="path5040"
         style="fill:none;stroke:#000000;stroke-width:1px;stroke-linecap:butt;stroke-linejoin:miter;stroke-opacity:1"
         d="m 62.5,10.5 0,4" />
      <path
         id="path5042"
         style="fill:none;stroke:#000000;stroke-width:1px;stroke-linecap:butt;stroke-linejoin:miter;stroke-opacity:1"
         d="m 10.5,12.5 4,0" />
      <path
         id="path5044"
         style="fill:none;stroke:#000000;stroke-width:1px;stroke-linecap:butt;stroke-linejoin:miter;stroke-opacity:1"
         d="m 60.5,12.5 4,0" />
    </g>
    <text
       xml:space="preserve"
       style="font-size:20px;font-style:normal;font-variant:normal;font-weight:normal;font-stretch:normal;text-align:start;line-height:125%;writing-mode:lr-tb;text-anchor:start;fill:#000000;fill-opacity:1;stroke:none;font-family:Yanone Kaffeesatz;-inkscape-font-specification:Yanone Kaffeesatz"
       x="43.233505"
       y="216.21219"
       id="text3406"
       sodipodi:linespacing="125%"><tspan
         sodipodi:role="line"
         id="tspan3408"
         x="43.233505"
         y="216.21219">Power: DC 5V +/-5% 2A TIP+</tspan></text>
  </g>
</svg>
