999
dxflib 2.0.4.8
  0
SECTION
  2
HEADER
  9
$ACADVER
  1
AC1015
  9
$HANDSEED
  5
FFFF
  9
$DIMASZ
 40
2.5
  9
$EXTMIN
 10
0.0
 20
0.0
 30
0.0
  9
$DIMGAP
 40
0.625
  9
$SPLFRAME
 70
1
  9
$INSUNITS
 70
4
  9
$DIMEXO
 40
0.625
  9
$EXTMAX
 10
1000.0
 20
1000.0
 30
0.0
  9
$FILLMODE
 70
0
  9
$DIMTXT
 40
2.5
  9
$DIMSTYLE
  2
Standard
  9
$PLIMMIN
 10
0.0
 20
0.0
  9
$PLIMMAX
 10
210.0
 20
297.0
  9
$DIMEXE
 40
1.25
  0
ENDSEC
  0
SECTION
  2
TABLES
  0
TABLE
  2
VPORT
  5
8
100
AcDbSymbolTable
 70
1
  0
VPORT
  5
30
100
AcDbSymbolTableRecord
100
AcDbViewportTableRecord
  2
*Active
 70
0
 10
0.0
 20
0.0
 11
1.0
 21
1.0
 12
286.3055555555554861
 22
148.5
 13
0.0
 23
0.0
 14
10.0
 24
10.0
 15
10.0
 25
10.0
 16
0.0
 26
0.0
 36
1.0
 17
0.0
 27
0.0
 37
0.0
 40
297.0
 41
1.92798353909465
 42
50.0
 43
0.0
 44
0.0
 50
0.0
 51
0.0
 71
0
 72
100
 73
1
 74
3
 75
1
 76
1
 77
0
 78
0
281
0
 65
1
110
0.0
120
0.0
130
0.0
111
1.0
121
0.0
131
0.0
112
0.0
122
1.0
132
0.0
 79
0
146
0.0
  0
ENDTAB
  0
TABLE
  2
LTYPE
  5
5
100
AcDbSymbolTable
 70
21
  0
LTYPE
  5
14
100
AcDbSymbolTableRecord
100
AcDbLinetypeTableRecord
  2
ByBlock
 70
0
  3

 72
65
 73
0
 40
0.0
  0
LTYPE
  5
15
100
AcDbSymbolTableRecord
100
AcDbLinetypeTableRecord
  2
ByLayer
 70
0
  3

 72
65
 73
0
 40
0.0
  0
LTYPE
  5
16
100
AcDbSymbolTableRecord
100
AcDbLinetypeTableRecord
  2
CONTINUOUS
 70
0
  3
Solid line
 72
65
 73
0
 40
0.0
  0
LTYPE
  5
31
100
AcDbSymbolTableRecord
100
AcDbLinetypeTableRecord
  2
DOT
 70
0
  3
Dot . . . . . . . . . . . . . . . . . . . . . .
 72
65
 73
2
 40
6.3499999999999996
 49
0.0
 74
0
 49
-6.3499999999999996
 74
0
  0
LTYPE
  5
32
100
AcDbSymbolTableRecord
100
AcDbLinetypeTableRecord
  2
DOT2
 70
0
  3
Dot (.5x) .....................................
 72
65
 73
2
 40
3.1749999999999998
 49
0.0
 74
0
 49
-3.1749999999999998
 74
0
  0
LTYPE
  5
33
100
AcDbSymbolTableRecord
100
AcDbLinetypeTableRecord
  2
DOTX2
 70
0
  3
Dot (2x) .  .  .  .  .  .  .  .  .  .  .  .  .
 72
65
 73
2
 40
12.6999999999999993
 49
0.0
 74
0
 49
-12.6999999999999993
 74
0
  0
LTYPE
  5
34
100
AcDbSymbolTableRecord
100
AcDbLinetypeTableRecord
  2
DASHED
 70
0
  3
Dashed __ __ __ __ __ __ __ __ __ __ __ __ __ _
 72
65
 73
2
 40
19.0500000000000007
 49
12.6999999999999993
 74
0
 49
-6.3499999999999996
 74
0
  0
LTYPE
  5
35
100
AcDbSymbolTableRecord
100
AcDbLinetypeTableRecord
  2
DASHED2
 70
0
  3
Dashed (.5x) _ _ _ _ _ _ _ _ _ _ _ _ _ _ _ _ _
 72
65
 73
2
 40
9.5250000000000004
 49
6.3499999999999996
 74
0
 49
-3.1749999999999998
 74
0
  0
LTYPE
  5
36
100
AcDbSymbolTableRecord
100
AcDbLinetypeTableRecord
  2
DASHEDX2
 70
0
  3
Dashed (2x) ____  ____  ____  ____  ____  ___
 72
65
 73
2
 40
38.1000000000000014
 49
25.3999999999999986
 74
0
 49
-12.6999999999999993
 74
0
  0
LTYPE
  5
37
100
AcDbSymbolTableRecord
100
AcDbLinetypeTableRecord
  2
DASHDOT
 70
0
  3
Dash dot __ . __ . __ . __ . __ . __ . __ . __
 72
65
 73
4
 40
25.3999999999999986
 49
12.6999999999999993
 74
0
 49
-6.3499999999999996
 74
0
 49
0.0
 74
0
 49
-6.3499999999999996
 74
0
  0
LTYPE
  5
38
100
AcDbSymbolTableRecord
100
AcDbLinetypeTableRecord
  2
DASHDOT2
 70
0
  3
Dash dot (.5x) _._._._._._._._._._._._._._._.
 72
65
 73
4
 40
12.6999999999999993
 49
6.3499999999999996
 74
0
 49
-3.1749999999999998
 74
0
 49
0.0
 74
0
 49
-3.1749999999999998
 74
0
  0
LTYPE
  5
39
100
AcDbSymbolTableRecord
100
AcDbLinetypeTableRecord
  2
DASHDOTX2
 70
0
  3
Dash dot (2x) ____  .  ____  .  ____  .  ___
 72
65
 73
4
 40
50.7999999999999972
 49
25.3999999999999986
 74
0
 49
-12.6999999999999993
 74
0
 49
0.0
 74
0
 49
-12.6999999999999993
 74
0
  0
LTYPE
  5
3A
100
AcDbSymbolTableRecord
100
AcDbLinetypeTableRecord
  2
DIVIDE
 70
0
  3
Divide ____ . . ____ . . ____ . . ____ . . ____
 72
65
 73
6
 40
31.75
 49
12.6999999999999993
 74
0
 49
-6.3499999999999996
 74
0
 49
0.0
 74
0
 49
-6.3499999999999996
 74
0
 49
0.0
 74
0
 49
-6.3499999999999996
 74
0
  0
LTYPE
  5
3B
100
AcDbSymbolTableRecord
100
AcDbLinetypeTableRecord
  2
DIVIDE2
 70
0
  3
Divide (.5x) __..__..__..__..__..__..__..__.._
 72
65
 73
6
 40
15.875
 49
6.3499999999999996
 74
0
 49
-3.1749999999999998
 74
0
 49
0.0
 74
0
 49
-3.1749999999999998
 74
0
 49
0.0
 74
0
 49
-3.1749999999999998
 74
0
  0
LTYPE
  5
3C
100
AcDbSymbolTableRecord
100
AcDbLinetypeTableRecord
  2
DIVIDEX2
 70
0
  3
Divide (2x) ________  .  .  ________  .  .  _
 72
65
 73
6
 40
63.5
 49
25.3999999999999986
 74
0
 49
-12.6999999999999993
 74
0
 49
0.0
 74
0
 49
-12.6999999999999993
 74
0
 49
0.0
 74
0
 49
-12.6999999999999993
 74
0
  0
LTYPE
  5
3D
100
AcDbSymbolTableRecord
100
AcDbLinetypeTableRecord
  2
CENTER
 70
0
  3
Center ____ _ ____ _ ____ _ ____ _ ____ _ ____
 72
65
 73
4
 40
50.7999999999999972
 49
31.75
 74
0
 49
-6.3499999999999996
 74
0
 49
6.3499999999999996
 74
0
 49
-6.3499999999999996
 74
0
  0
LTYPE
  5
3E
100
AcDbSymbolTableRecord
100
AcDbLinetypeTableRecord
  2
CENTER2
 70
0
  3
Center (.5x) ___ _ ___ _ ___ _ ___ _ ___ _ ___
 72
65
 73
4
 40
28.5749999999999993
 49
19.0500000000000007
 74
0
 49
-3.1749999999999998
 74
0
 49
3.1749999999999998
 74
0
 49
-3.1749999999999998
 74
0
  0
LTYPE
  5
3F
100
AcDbSymbolTableRecord
100
AcDbLinetypeTableRecord
  2
CENTERX2
 70
0
  3
Center (2x) ________  __  ________  __  _____
 72
65
 73
4
 40
101.5999999999999943
 49
63.5
 74
0
 49
-12.6999999999999993
 74
0
 49
12.6999999999999993
 74
0
 49
-12.6999999999999993
 74
0
  0
LTYPE
  5
40
100
AcDbSymbolTableRecord
100
AcDbLinetypeTableRecord
  2
BORDER
 70
0
  3
Border __ __ . __ __ . __ __ . __ __ . __ __ .
 72
65
 73
6
 40
44.4500000000000028
 49
12.6999999999999993
 74
0
 49
-6.3499999999999996
 74
0
 49
12.6999999999999993
 74
0
 49
-6.3499999999999996
 74
0
 49
0.0
 74
0
 49
-6.3499999999999996
 74
0
  0
LTYPE
  5
41
100
AcDbSymbolTableRecord
100
AcDbLinetypeTableRecord
  2
BORDER2
 70
0
  3
Border (.5x) __.__.__.__.__.__.__.__.__.__.__.
 72
65
 73
6
 40
22.2250000000000014
 49
6.3499999999999996
 74
0
 49
-3.1749999999999998
 74
0
 49
6.3499999999999996
 74
0
 49
-3.1749999999999998
 74
0
 49
0.0
 74
0
 49
-3.1749999999999998
 74
0
  0
LTYPE
  5
42
100
AcDbSymbolTableRecord
100
AcDbLinetypeTableRecord
  2
BORDERX2
 70
0
  3
Border (2x) ____  ____  .  ____  ____  .  ___
 72
65
 73
6
 40
88.9000000000000057
 49
25.3999999999999986
 74
0
 49
-12.6999999999999993
 74
0
 49
25.3999999999999986
 74
0
 49
-12.6999999999999993
 74
0
 49
0.0
 74
0
 49
-12.6999999999999993
 74
0
  0
ENDTAB
  0
TABLE
  2
LAYER
  5
2
100
AcDbSymbolTable
 70
1
  0
LAYER
  5
10
100
AcDbSymbolTableRecord
100
AcDbLayerTableRecord
  2
0
 70
0
 62
7
  6
CONTINUOUS
390
F
  0
ENDTAB
  0
TABLE
  2
STYLE
  5
3
100
AcDbSymbolTable
 70
1
  0
STYLE
  5
11
100
AcDbSymbolTableRecord
100
AcDbTextStyleTableRecord
  2
Standard
 70
0
 40
0.0
 41
0.75
 50
0.0
 71
0
 42
2.5
  3
txt
  4

  0
ENDTAB
  0
TABLE
  2
VIEW
  5
6
100
AcDbSymbolTable
 70
0
  0
ENDTAB
  0
TABLE
  2
UCS
  5
7
100
AcDbSymbolTable
 70
0
  0
ENDTAB
  0
TABLE
  2
APPID
  5
9
100
AcDbSymbolTable
 70
1
  0
APPID
  5
12
100
AcDbSymbolTableRecord
100
AcDbRegAppTableRecord
  2
ACAD
 70
0
  0
ENDTAB
  0
TABLE
  2
DIMSTYLE
  5
A
100
AcDbSymbolTable
 70
1
100
AcDbDimStyleTable
 71
0
  0
DIMSTYLE
105
27
100
AcDbSymbolTableRecord
100
AcDbDimStyleTableRecord
  2
Standard
 41
2.5
 42
0.625
 43
3.75
 44
1.25
 70
0
 73
0
 74
0
 77
1
 78
8
140
2.5
141
2.5
143
0.03937007874016
147
0.625
171
3
172
1
271
2
272
2
274
3
278
44
283
0
284
8
340
11
  0
ENDTAB
  0
TABLE
  2
BLOCK_RECORD
  5
1
100
AcDbSymbolTable
 70
1
  0
BLOCK_RECORD
  5
1F
100
AcDbSymbolTableRecord
100
AcDbBlockTableRecord
  2
*Model_Space
340
22
  0
BLOCK_RECORD
  5
1B
100
AcDbSymbolTableRecord
100
AcDbBlockTableRecord
  2
*Paper_Space
340
1E
  0
BLOCK_RECORD
  5
23
100
AcDbSymbolTableRecord
100
AcDbBlockTableRecord
  2
*Paper_Space0
340
26
  0
ENDTAB
  0
ENDSEC
  0
SECTION
  2
BLOCKS
  0
BLOCK
  5
20
100
AcDbEntity
  8
0
100
AcDbBlockBegin
  2
*Model_Space
 70
0
 10
0.0
 20
0.0
 30
0.0
  3
*Model_Space
  1

  0
ENDBLK
  5
21
100
AcDbEntity
  8
0
100
AcDbBlockEnd
  0
BLOCK
  5
1C
100
AcDbEntity
 67
1
  8
0
100
AcDbBlockBegin
  2
*Paper_Space
 70
0
 10
0.0
 20
0.0
 30
0.0
  3
*Paper_Space
  1

  0
ENDBLK
  5
1D
100
AcDbEntity
 67
1
  8
0
100
AcDbBlockEnd
  0
BLOCK
  5
24
100
AcDbEntity
  8
0
100
AcDbBlockBegin
  2
*Paper_Space0
 70
0
 10
0.0
 20
0.0
 30
0.0
  3
*Paper_Space0
  1

  0
ENDBLK
  5
25
100
AcDbEntity
  8
0
100
AcDbBlockEnd
  0
ENDSEC
  0
SECTION
  2
ENTITIES
  0
LWPOLYLINE
  5
43
  8
0
 62
0
370
-1
  6
ByLayer
100
AcDbEntity
100
AcDbPolyline
 90
5
 70
1
 10
0.0
 20
11.5199999999999996
 10
6.2400000000000002
 20
11.5199999999999996
 10
6.2400000000000002
 20
5.2800000000000002
 10
0.0
 20
5.2800000000000002
 10
0.0
 20
11.5199999999999996
  0
LWPOLYLINE
  5
44
  8
0
 62
0
370
-1
  6
ByLayer
100
AcDbEntity
100
AcDbPolyline
 90
5
 70
1
 10
8.4000000000000004
 20
11.5200000000000014
 10
14.6400000000000006
 20
11.5200000000000014
 10
14.6400000000000006
 20
5.2800000000000002
 10
8.4000000000000004
 20
5.2800000000000002
 10
8.4000000000000004
 20
11.5200000000000014
  0
LWPOLYLINE
  5
45
  8
0
 62
0
370
-1
  6
ByLayer
100
AcDbEntity
100
AcDbPolyline
 90
5
 70
1
 10
-0.0000000000000004
 20
19.9199999999999982
 10
6.2400000000000002
 20
19.9199999999999982
 10
6.2400000000000002
 20
13.6800000000000015
 10
-0.0000000000000002
 20
13.6799999999999997
 10
-0.0000000000000004
 20
19.9199999999999982
  0
LWPOLYLINE
  5
46
  8
0
 62
0
370
-1
  6
ByLayer
100
AcDbEntity
100
AcDbPolyline
 90
6
 70
1
 10
8.3999999999999986
 20
19.9213200000000015
 10
14.6400000000000006
 20
19.9200000000000017
 10
14.6400000000000006
 20
13.6799999999999997
 10
8.4000000000000004
 20
13.6799999999999997
 10
8.3999999999999986
 20
19.9200000000000017
 10
8.3999999999999986
 20
19.9213200000000015
  0
LWPOLYLINE
  5
47
  8
0
 62
0
370
-1
  6
ByLayer
100
AcDbEntity
100
AcDbPolyline
 90
5
 70
1
 10
0.0
 20
28.3200000000000003
 10
6.2400000000000002
 20
28.3200000000000003
 10
6.2400000000000002
 20
22.0800000000000018
 10
0.0
 20
22.0800000000000018
 10
0.0
 20
28.3200000000000003
  0
LWPOLYLINE
  5
48
  8
0
 62
0
370
-1
  6
ByLayer
100
AcDbEntity
100
AcDbPolyline
 90
5
 70
1
 10
8.4000000000000004
 20
28.3200000000000003
 10
14.6400000000000006
 20
28.3200000000000003
 10
14.6400000000000006
 20
22.0800000000000018
 10
8.4000000000000004
 20
22.0800000000000018
 10
8.4000000000000004
 20
28.3200000000000003
  0
LWPOLYLINE
  5
49
  8
0
 62
0
370
-1
  6
ByLayer
100
AcDbEntity
100
AcDbPolyline
 90
5
 70
1
 10
8.3999999999999986
 20
36.7199999999999989
 10
14.6400000000000006
 20
36.7199999999999989
 10
14.6400000000000006
 20
30.4800000000000004
 10
8.4000000000000004
 20
30.4800000000000004
 10
8.3999999999999986
 20
36.7199999999999989
  0
LWPOLYLINE
  5
4A
  8
0
 62
0
370
-1
  6
ByLayer
100
AcDbEntity
100
AcDbPolyline
 90
4
 70
1
 10
-0.0000000000000002
 20
30.4800000000000004
 10
6.2400000000000002
 20
36.7199999999999989
 10
6.2400000000000002
 20
30.4800000000000004
 10
-0.0000000000000002
 20
30.4800000000000004
  0
LWPOLYLINE
  5
4B
  8
0
 62
0
370
-1
  6
ByLayer
100
AcDbEntity
100
AcDbPolyline
 90
4
 70
1
 10
16.8000000000000007
 20
36.7199999999999989
 10
23.0399999999999991
 20
36.7199999999999989
 10
23.0399999999999991
 20
30.4800000000000004
 10
16.8000000000000007
 20
36.7199999999999989
  0
LWPOLYLINE
  5
4C
  8
0
 62
0
370
-1
  6
ByLayer
100
AcDbEntity
100
AcDbPolyline
 90
5
 70
1
 10
8.3999999999999986
 20
45.1200000000000045
 10
14.6400000000000006
 20
45.1200000000000045
 10
14.6400000000000006
 20
38.8800000000000026
 10
8.3999999999999986
 20
38.8799999999999955
 10
8.3999999999999986
 20
45.1200000000000045
  0
LWPOLYLINE
  5
4D
  8
0
 62
0
370
-1
  6
ByLayer
100
AcDbEntity
100
AcDbPolyline
 90
5
 70
1
 10
16.7999999999999972
 20
38.8800000000000026
 10
16.7999999999999972
 20
45.1199999999999974
 10
23.0399999999999991
 20
45.1199999999999974
 10
23.0399999999999991
 20
38.8800000000000026
 10
16.7999999999999972
 20
38.8800000000000026
  0
LWPOLYLINE
  5
4E
  8
0
 62
0
370
-1
  6
ByLayer
100
AcDbEntity
100
AcDbPolyline
 90
5
 70
1
 10
8.4000000000000004
 20
53.519999999999996
 10
14.6400000000000006
 20
53.519999999999996
 10
14.6400000000000006
 20
47.2800000000000011
 10
8.4000000000000004
 20
47.2800000000000011
 10
8.4000000000000004
 20
53.519999999999996
  0
LWPOLYLINE
  5
4F
  8
0
 62
0
370
-1
  6
ByLayer
100
AcDbEntity
100
AcDbPolyline
 90
4
 70
1
 10
16.7999999999999972
 20
47.2800000000000011
 10
16.8000000000000007
 20
53.519999999999996
 10
23.0399999999999991
 20
47.2800000000000011
 10
16.7999999999999972
 20
47.2800000000000011
  0
LWPOLYLINE
  5
50
  8
0
 62
0
370
-1
  6
ByLayer
100
AcDbEntity
100
AcDbPolyline
 90
5
 70
1
 10
25.2000000000000028
 20
30.4800000000000004
 10
25.2000000000000028
 20
36.7199999999999989
 10
31.4400000000000013
 20
36.7199999999999989
 10
31.4400000000000013
 20
30.4800000000000004
 10
25.2000000000000028
 20
30.4800000000000004
  0
LWPOLYLINE
  5
51
  8
0
 62
0
370
-1
  6
ByLayer
100
AcDbEntity
100
AcDbPolyline
 90
5
 70
1
 10
25.2000000000000028
 20
28.3200000000000003
 10
31.4400000000000013
 20
28.3200000000000003
 10
31.4400000000000013
 20
22.0800000000000018
 10
25.2000000000000028
 20
22.0800000000000018
 10
25.2000000000000028
 20
28.3200000000000003
  0
LWPOLYLINE
  5
52
  8
0
 62
0
370
-1
  6
ByLayer
100
AcDbEntity
100
AcDbPolyline
 90
4
 70
1
 10
33.5999999999999943
 20
36.7199999999999989
 10
39.8399999999999963
 20
36.7199999999999989
 10
33.5999999999999943
 20
30.4800000000000004
 10
33.5999999999999943
 20
36.7199999999999989
  0
LWPOLYLINE
  5
53
  8
0
 62
0
370
-1
  6
ByLayer
100
AcDbEntity
100
AcDbPolyline
 90
5
 70
1
 10
33.6000000000000014
 20
45.1199999999999974
 10
39.8400000000000034
 20
45.1199999999999974
 10
39.8400000000000034
 20
38.8799999999999955
 10
33.6000000000000014
 20
38.8799999999999955
 10
33.6000000000000014
 20
45.1199999999999974
  0
LWPOLYLINE
  5
54
  8
0
 62
0
370
-1
  6
ByLayer
100
AcDbEntity
100
AcDbPolyline
 90
5
 70
1
 10
42.0
 20
45.1199999999999974
 10
48.2400000000000091
 20
45.1199999999999974
 10
48.2400000000000091
 20
38.8799999999999955
 10
42.0
 20
38.8799999999999955
 10
42.0
 20
45.1199999999999974
  0
LWPOLYLINE
  5
55
  8
0
 62
0
370
-1
  6
ByLayer
100
AcDbEntity
100
AcDbPolyline
 90
4
 70
1
 10
33.5999999999999943
 20
47.2800000000000011
 10
39.8399999999999963
 20
53.519999999999996
 10
39.8399999999999963
 20
47.2800000000000011
 10
33.5999999999999943
 20
47.2800000000000011
  0
LWPOLYLINE
  5
56
  8
0
 62
0
370
-1
  6
ByLayer
100
AcDbEntity
100
AcDbPolyline
 90
5
 70
1
 10
42.0
 20
53.519999999999996
 10
48.2399999999999949
 20
53.519999999999996
 10
48.2399999999999949
 20
47.2800000000000011
 10
42.0
 20
47.2800000000000011
 10
42.0
 20
53.519999999999996
  0
LWPOLYLINE
  5
57
  8
0
 62
0
370
-1
  6
ByLayer
100
AcDbEntity
100
AcDbPolyline
 90
5
 70
1
 10
42.0
 20
30.4800000000000004
 10
42.0
 20
36.7199999999999989
 10
48.2400000000000091
 20
36.7199999999999989
 10
48.2400000000000091
 20
30.4800000000000004
 10
42.0
 20
30.4800000000000004
  0
LWPOLYLINE
  5
58
  8
0
 62
0
370
-1
  6
ByLayer
100
AcDbEntity
100
AcDbPolyline
 90
5
 70
1
 10
42.0
 20
28.3200000000000003
 10
48.2399999999999949
 20
28.3200000000000003
 10
48.2399999999999949
 20
22.0800000000000018
 10
42.0
 20
22.0800000000000018
 10
42.0
 20
28.3200000000000003
  0
LWPOLYLINE
  5
59
  8
0
 62
0
370
-1
  6
ByLayer
100
AcDbEntity
100
AcDbPolyline
 90
5
 70
1
 10
42.0
 20
19.9200000000000017
 10
48.2399999999999949
 20
19.9200000000000017
 10
48.2399999999999949
 20
13.6800000000000015
 10
42.0
 20
13.6800000000000015
 10
42.0
 20
19.9200000000000017
  0
LWPOLYLINE
  5
5A
  8
0
 62
0
370
-1
  6
ByLayer
100
AcDbEntity
100
AcDbPolyline
 90
5
 70
1
 10
42.0
 20
11.5199999999999996
 10
48.2399999999999949
 20
11.5199999999999996
 10
48.2399999999999949
 20
5.2800000000000002
 10
42.0
 20
5.2800000000000002
 10
42.0
 20
11.5199999999999996
  0
LWPOLYLINE
  5
5B
  8
0
 62
0
370
-1
  6
ByLayer
100
AcDbEntity
100
AcDbPolyline
 90
13
 70
0
 10
1.9088841600000004
 20
1.6510413600000002
 10
0.71487456
 20
3.0716133599999997
 10
0.168
 20
3.0716133599999997
 10
0.168
 20
-0.0
 10
0.62893776
 20
-0.0
 10
0.62893776
 20
2.4570213600000002
 10
1.9088841600000004
 20
0.93359256
 10
3.1888353599999992
 20
2.4570213600000002
 10
3.1888353599999992
 20
-0.0
 10
3.6497793599999993
 20
-0.0
 10
3.6497793599999993
 20
3.0716133599999997
 10
3.1002993600000002
 20
3.0716133599999997
 10
1.9088841600000004
 20
1.6510413600000002
  0
LWPOLYLINE
  5
5C
  8
0
 62
0
370
-1
  6
ByLayer
100
AcDbEntity
100
AcDbPolyline
 90
5
 70
1
 10
4.9765953599999992
 20
-0.0
 10
5.4375153599999999
 20
-0.0
 10
5.4375153599999999
 20
3.0716133599999997
 10
4.9765953599999992
 20
3.0716133599999997
 10
4.9765953599999992
 20
-0.0
  0
LWPOLYLINE
  5
5D
  8
0
 62
0
370
-1
  6
ByLayer
100
AcDbEntity
100
AcDbPolyline
 90
7
 70
0
 10
6.7630593600000006
 20
-0.0
 10
9.8359473599999987
 20
-0.0
 10
9.8359473599999987
 20
0.46093896
 10
7.2239793599999995
 20
0.46093896
 10
7.2239793599999995
 20
3.0755253600000003
 10
6.7630593600000006
 20
3.0755253600000003
 10
6.7630593600000006
 20
-0.0
  0
LWPOLYLINE
  5
5E
  8
0
 62
0
370
-1
  6
ByLayer
100
AcDbEntity
100
AcDbPolyline
 90
16
 70
0
 10
13.3450833600000003
 20
3.0716133599999997
 10
12.2474193600000021
 20
1.76562456
 10
11.39455536
 20
1.76562456
 10
11.39455536
 20
3.0716133599999997
 10
10.9336113600000004
 20
3.0716133599999997
 10
10.9336113600000004
 20
-0.0
 10
11.39455536
 20
-0.0
 10
11.39455536
 20
1.30468776
 10
12.2474193600000021
 20
1.30468776
 10
13.3450833600000003
 20
-0.0
 10
13.8906513599999997
 20
-0.0
 10
13.8906513599999997
 20
0.06380208
 10
12.6575793599999997
 20
1.5351549600000003
 10
13.8906513599999997
 20
3.0078213599999999
 10
13.8906513599999997
 20
3.0716133599999997
 10
13.3450833600000003
 20
3.0716133599999997
  0
LWPOLYLINE
  5
5F
  8
0
 62
0
370
-1
  6
ByLayer
100
AcDbEntity
100
AcDbPolyline
 90
10
 70
0
 10
17.756547359999999
 20
3.0716133599999997
 10
16.6549953600000009
 20
1.6718757600000003
 10
15.5508273599999995
 20
3.0716133599999997
 10
15.0078513600000001
 20
3.0716133599999997
 10
16.4245233599999985
 20
1.1510421599999998
 10
16.4245233599999985
 20
-0.0
 10
16.88544336
 20
-0.0
 10
16.88544336
 20
1.1510421599999998
 10
18.3021153599999984
 20
3.0716133599999997
 10
17.756547359999999
 20
3.0716133599999997
  0
LWPOLYLINE
  5
60
  8
0
 62
0
370
-1
  6
ByLayer
100
AcDbEntity
100
AcDbPolyline
 90
13
 70
0
 10
21.2031633599999978
 20
1.6510413600000002
 10
20.007843359999999
 20
3.0716133599999997
 10
19.4622513599999998
 20
3.0716133599999997
 10
19.4622513599999998
 20
-0.0
 10
19.9232193599999974
 20
-0.0
 10
19.9232193599999974
 20
2.4570213600000002
 10
21.2031633599999978
 20
0.93359256
 10
22.4831313600000016
 20
2.4570213600000002
 10
22.4831313600000016
 20
-0.0
 10
22.9440513600000031
 20
-0.0
 10
22.9440513600000031
 20
3.0716133599999997
 10
22.3932513600000007
 20
3.0716133599999997
 10
21.2031633599999978
 20
1.6510413600000002
  0
LWPOLYLINE
  5
61
  8
0
 62
0
370
-1
  6
ByLayer
100
AcDbEntity
100
AcDbPolyline
 90
5
 70
1
 10
24.2696673599999961
 20
-0.0
 10
24.7304673599999916
 20
-0.0
 10
24.7304673599999916
 20
3.0716133599999997
 10
24.2696673599999961
 20
3.0716133599999997
 10
24.2696673599999961
 20
-0.0
  0
LWPOLYLINE
  5
62
  8
0
 62
0
370
-1
  6
ByLayer
100
AcDbEntity
100
AcDbPolyline
 90
35
 70
0
 10
29.1027873599999936
 20
2.5169253600000001
 10
28.9400673599999934
 20
2.9101653600000006
 10
28.5481473599999944
 20
3.0716133599999997
 10
26.5859073599999931
 20
3.0716133599999997
 10
26.192787359999997
 20
2.9101653600000006
 10
26.031267359999994
 20
2.5169253600000001
 10
26.031267359999994
 20
1.8593757600000003
 10
26.192787359999997
 20
1.4674485599999998
 10
26.5859073599999931
 20
1.30468776
 10
28.5481473599999944
 20
1.30468776
 10
28.6419873599999946
 20
1.21093896
 10
28.6419873599999946
 20
0.55468776
 10
28.5481473599999944
 20
0.46093896
 10
26.5859073599999931
 20
0.46093896
 10
26.492307359999991
 20
0.55468776
 10
26.492307359999991
 20
0.73307256
 10
26.031267359999994
 20
0.73307256
 10
26.031267359999994
 20
0.55468776
 10
26.192787359999997
 20
0.1627605599999999
 10
26.5859073599999931
 20
-0.0
 10
28.5481473599999944
 20
-0.0
 10
28.9400673599999934
 20
0.1627605599999999
 10
29.1027873599999936
 20
0.55468776
 10
29.1027873599999936
 20
1.21093896
 10
28.9400673599999934
 20
1.6041645600000001
 10
28.5481473599999944
 20
1.76562456
 10
26.5859073599999931
 20
1.76562456
 10
26.492307359999991
 20
1.8593757600000003
 10
26.492307359999991
 20
2.5169253600000001
 10
26.5859073599999931
 20
2.6106693600000002
 10
28.5481473599999944
 20
2.6106693600000002
 10
28.6419873599999946
 20
2.5169253600000001
 10
28.6419873599999946
 20
2.33723736
 10
29.1027873599999936
 20
2.33723736
 10
29.1027873599999936
 20
2.5169253600000001
  0
LWPOLYLINE
  5
63
  8
0
 62
0
370
-1
  6
ByLayer
100
AcDbEntity
100
AcDbPolyline
 90
9
 70
0
 10
30.2526273599999982
 20
3.0716133599999997
 10
30.2526273599999982
 20
2.6106693600000002
 10
31.5587073599999925
 20
2.6106693600000002
 10
31.5587073599999925
 20
-0.0
 10
32.0195073599999986
 20
-0.0
 10
32.0195073599999986
 20
2.6106693600000002
 10
33.3241473599999978
 20
2.6106693600000002
 10
33.3241473599999978
 20
3.0716133599999997
 10
30.2526273599999982
 20
3.0716133599999997
  0
LWPOLYLINE
  5
64
  8
0
 62
0
370
-1
  6
ByLayer
100
AcDbEntity
100
AcDbPolyline
 90
5
 70
1
 10
34.9451073599999944
 20
0.46093896
 10
34.4845473599999934
 20
0.46093896
 10
34.4845473599999934
 20
-0.0
 10
34.9451073599999944
 20
-0.0
 10
34.9451073599999944
 20
0.46093896
  0
LWPOLYLINE
  5
65
  8
0
 62
0
370
-1
  6
ByLayer
100
AcDbEntity
100
AcDbPolyline
 90
13
 70
0
 10
36.800787359999994
 20
3.0716133599999997
 10
36.4074273599999927
 20
2.9101653600000006
 10
36.2461473599999948
 20
2.5169253600000001
 10
36.2461473599999948
 20
0.55468776
 10
36.4074273599999927
 20
0.1627605599999999
 10
36.800787359999994
 20
-0.0
 10
38.7644673599999976
 20
-0.0
 10
39.1561473599999914
 20
0.1627605599999999
 10
39.3191073599999967
 20
0.55468776
 10
39.3191073599999967
 20
2.5169253600000001
 10
39.1561473599999914
 20
2.9101653600000006
 10
38.7644673599999976
 20
3.0716133599999997
 10
36.800787359999994
 20
3.0716133599999997
  0
LWPOLYLINE
  5
66
  8
0
 62
0
370
-1
  6
ByLayer
100
AcDbEntity
100
AcDbPolyline
 90
9
 70
0
 10
36.800787359999994
 20
0.46093896
 10
36.7071873599999918
 20
0.55468776
 10
36.7071873599999918
 20
2.5169253600000001
 10
36.800787359999994
 20
2.6106693600000002
 10
38.7644673599999976
 20
2.6106693600000002
 10
38.8583073599999906
 20
2.5169253600000001
 10
38.8583073599999906
 20
0.55468776
 10
38.7644673599999976
 20
0.46093896
 10
36.800787359999994
 20
0.46093896
  0
LWPOLYLINE
  5
67
  8
0
 62
0
370
-1
  6
ByLayer
100
AcDbEntity
100
AcDbPolyline
 90
17
 70
0
 10
43.7017473599999917
 20
2.5130133600000004
 10
43.5392673599999966
 20
2.9036373599999998
 10
43.1471073599999926
 20
3.0677013600000005
 10
40.6287873599999969
 20
3.0677013600000005
 10
40.6287873599999969
 20
-0.0
 10
41.0898273599999939
 20
-0.0
 10
41.0898273599999939
 20
1.1041653600000001
 10
41.183427359999996
 20
1.09635576
 10
42.2346273599999975
 20
1.09635576
 10
43.1547873600000003
 20
-0.0
 10
43.7017473599999917
 20
-0.0
 10
43.7017473599999917
 20
0.06380208
 10
42.8358273599999961
 20
1.09635576
 10
43.1471073599999926
 20
1.09635576
 10
43.5392673599999966
 20
1.2604149600000001
 10
43.7017473599999917
 20
1.6510413600000002
 10
43.7017473599999917
 20
2.5130133600000004
  0
LWPOLYLINE
  5
68
  8
0
 62
0
370
-1
  6
ByLayer
100
AcDbEntity
100
AcDbPolyline
 90
9
 70
0
 10
41.183427359999996
 20
1.5572925600000003
 10
41.0898273599999939
 20
1.6510413600000002
 10
41.0898273599999939
 20
2.5130133600000004
 10
41.183427359999996
 20
2.6067813600000003
 10
43.1471073599999926
 20
2.6067813600000003
 10
43.2409473599999927
 20
2.5130133600000004
 10
43.2409473599999927
 20
1.6510413600000002
 10
43.1471073599999926
 20
1.5572925600000003
 10
41.183427359999996
 20
1.5572925600000003
  0
LWPOLYLINE
  5
69
  8
0
 62
0
370
-1
  6
ByLayer
100
AcDbEntity
100
AcDbPolyline
 90
27
 70
0
 10
48.0678273599999955
 20
2.5169253600000001
 10
47.9048673599999972
 20
2.9101653600000006
 10
47.5131873599999963
 20
3.0716133599999997
 10
45.550947359999995
 20
3.0716133599999997
 10
45.1575873599999937
 20
2.9101653600000006
 10
44.9960673599999978
 20
2.5169253600000001
 10
44.9960673599999978
 20
0.55468776
 10
45.1575873599999937
 20
0.1627605599999999
 10
45.550947359999995
 20
-0.0
 10
47.5131873599999963
 20
-0.0
 10
47.9048673599999972
 20
0.1627605599999999
 10
48.0678273599999955
 20
0.55468776
 10
48.0678273599999955
 20
1.6809885600000001
 10
46.8815073599999934
 20
1.6809885600000001
 10
46.8815073599999934
 20
1.22005176
 10
47.6067873599999984
 20
1.22005176
 10
47.6067873599999984
 20
0.55468776
 10
47.5131873599999963
 20
0.46093896
 10
45.550947359999995
 20
0.46093896
 10
45.4571073599999949
 20
0.55468776
 10
45.4571073599999949
 20
2.5169253600000001
 10
45.550947359999995
 20
2.6106693600000002
 10
47.5131873599999963
 20
2.6106693600000002
 10
47.6067873599999984
 20
2.5169253600000001
 10
47.6067873599999984
 20
2.3333253599999999
 10
48.0678273599999955
 20
2.3333253599999999
 10
48.0678273599999955
 20
2.5169253600000001
  0
ENDSEC
  0
SECTION
  2
OBJECTS
  0
DICTIONARY
  5
C
100
AcDbDictionary
280
0
281
1
  3
ACAD_GROUP
350
D
  3
ACAD_LAYOUT
350
1A
  3
ACAD_MLINESTYLE
350
17
  3
ACAD_PLOTSETTINGS
350
19
  3
ACAD_PLOTSTYLENAME
350
E
  3
AcDbVariableDictionary
350
6A
  0
DICTIONARY
  5
D
100
AcDbDictionary
280
0
281
1
  0
ACDBDICTIONARYWDFLT
  5
E
100
AcDbDictionary
281
1
  3
Normal
350
F
100
AcDbDictionaryWithDefault
340
F
  0
ACDBPLACEHOLDER
  5
F
  0
DICTIONARY
  5
17
100
AcDbDictionary
280
0
281
1
  3
Standard
350
18
  0
MLINESTYLE
  5
18
100
AcDbMlineStyle
  2
STANDARD
 70
0
  3

 62
256
 51
90.0
 52
90.0
 71
2
 49
0.5
 62
256
  6
BYLAYER
 49
-0.5
 62
256
  6
BYLAYER
  0
DICTIONARY
  5
19
100
AcDbDictionary
280
0
281
1
  0
DICTIONARY
  5
1A
100
AcDbDictionary
281
1
  3
Layout1
350
1E
  3
Layout2
350
26
  3
Model
350
22
  0
LAYOUT
  5
1E
100
AcDbPlotSettings
  1

  2
C:\Program Files\AutoCAD 2002\plotters\DWF ePlot (optimized for plotting).pc3
  4

  6

 40
0.0
 41
0.0
 42
0.0
 43
0.0
 44
0.0
 45
0.0
 46
0.0
 47
0.0
 48
0.0
 49
0.0
140
0.0
141
0.0
142
1.0
143
1.0
 70
688
 72
0
 73
0
 74
5
  7

 75
16
147
1.0
148
0.0
149
0.0
100
AcDbLayout
  1
Layout1
 70
1
 71
1
 10
0.0
 20
0.0
 11
420.0
 21
297.0
 12
0.0
 22
0.0
 32
0.0
 14
100000000000000000000.0
 24
100000000000000000000.0
 34
100000000000000000000.0
 15
-100000000000000000000.0
 25
-100000000000000000000.0
 35
-100000000000000000000.0
146
0.0
 13
0.0
 23
0.0
 33
0.0
 16
1.0
 26
0.0
 36
0.0
 17
0.0
 27
1.0
 37
0.0
 76
0
330
1B
  0
LAYOUT
  5
22
100
AcDbPlotSettings
  1

  2
C:\Program Files\AutoCAD 2002\plotters\DWF ePlot (optimized for plotting).pc3
  4

  6

 40
0.0
 41
0.0
 42
0.0
 43
0.0
 44
0.0
 45
0.0
 46
0.0
 47
0.0
 48
0.0
 49
0.0
140
0.0
141
0.0
142
1.0
143
1.0
 70
1712
 72
0
 73
0
 74
0
  7

 75
0
147
1.0
148
0.0
149
0.0
100
AcDbLayout
  1
Model
 70
1
 71
0
 10
0.0
 20
0.0
 11
12.0
 21
9.0
 12
0.0
 22
0.0
 32
0.0
 14
0.0
 24
0.0
 34
0.0
 15
0.0
 25
0.0
 35
0.0
146
0.0
 13
0.0
 23
0.0
 33
0.0
 16
1.0
 26
0.0
 36
0.0
 17
0.0
 27
1.0
 37
0.0
 76
0
330
1F
  0
LAYOUT
  5
26
100
AcDbPlotSettings
  1

  2
C:\Program Files\AutoCAD 2002\plotters\DWF ePlot (optimized for plotting).pc3
  4

  6

 40
0.0
 41
0.0
 42
0.0
 43
0.0
 44
0.0
 45
0.0
 46
0.0
 47
0.0
 48
0.0
 49
0.0
140
0.0
141
0.0
142
1.0
143
1.0
 70
688
 72
0
 73
0
 74
5
  7

 75
16
147
1.0
148
0.0
149
0.0
100
AcDbLayout
  1
Layout2
 70
1
 71
2
 10
0.0
 20
0.0
 11
12.0
 21
9.0
 12
0.0
 22
0.0
 32
0.0
 14
0.0
 24
0.0
 34
0.0
 15
0.0
 25
0.0
 35
0.0
146
0.0
 13
0.0
 23
0.0
 33
0.0
 16
1.0
 26
0.0
 36
0.0
 17
0.0
 27
1.0
 37
0.0
 76
0
330
23
  0
DICTIONARY
  5
6A
100
AcDbDictionary
281
1
  3
DIMASSOC
350
6C
  3
HIDETEXT
350
6B
  0
DICTIONARYVAR
  5
6B
100
DictionaryVariables
280
0
  1
2
  0
DICTIONARYVAR
  5
6C
100
DictionaryVariables
280
0
  1
1
  0
ENDSEC
  0
EOF
