999
dxflib 2.0.4.8
  0
SECTION
  2
HEADER
  9
$ACADVER
  1
AC1015
  9
$HANDSEED
  5
FFFF
  9
$DIMASZ
 40
2.5
  9
$DIMGAP
 40
0.625
  9
$DIMEXO
 40
0.625
  9
$INSUNITS
 70
4
  9
$DIMTXT
 40
2.5
  9
$DIMSTYLE
  2
Standard
  9
$PLIMMAX
 10
210.0
 20
297.0
  9
$PLIMMIN
 10
0.0
 20
0.0
  9
$DIMEXE
 40
1.25
  0
ENDSEC
  0
SECTION
  2
TABLES
  0
TABLE
  2
VPORT
  5
8
100
AcDbSymbolTable
 70
1
  0
VPORT
  5
30
100
AcDbSymbolTableRecord
100
AcDbViewportTableRecord
  2
*Active
 70
0
 10
0.0
 20
0.0
 11
1.0
 21
1.0
 12
286.3055555555554861
 22
148.5
 13
0.0
 23
0.0
 14
10.0
 24
10.0
 15
10.0
 25
10.0
 16
0.0
 26
0.0
 36
1.0
 17
0.0
 27
0.0
 37
0.0
 40
297.0
 41
1.92798353909465
 42
50.0
 43
0.0
 44
0.0
 50
0.0
 51
0.0
 71
0
 72
100
 73
1
 74
3
 75
1
 76
1
 77
0
 78
0
281
0
 65
1
110
0.0
120
0.0
130
0.0
111
1.0
121
0.0
131
0.0
112
0.0
122
1.0
132
0.0
 79
0
146
0.0
  0
ENDTAB
  0
TABLE
  2
LTYPE
  5
5
100
AcDbSymbolTable
 70
21
  0
LTYPE
  5
14
100
AcDbSymbolTableRecord
100
AcDbLinetypeTableRecord
  2
ByBlock
 70
0
  3

 72
65
 73
0
 40
0.0
  0
LTYPE
  5
15
100
AcDbSymbolTableRecord
100
AcDbLinetypeTableRecord
  2
ByLayer
 70
0
  3

 72
65
 73
0
 40
0.0
  0
LTYPE
  5
16
100
AcDbSymbolTableRecord
100
AcDbLinetypeTableRecord
  2
CONTINUOUS
 70
0
  3
Solid line
 72
65
 73
0
 40
0.0
  0
LTYPE
  5
31
100
AcDbSymbolTableRecord
100
AcDbLinetypeTableRecord
  2
DOT
 70
0
  3
Dot . . . . . . . . . . . . . . . . . . . . . .
 72
65
 73
2
 40
6.3499999999999996
 49
0.0
 74
0
 49
-6.3499999999999996
 74
0
  0
LTYPE
  5
32
100
AcDbSymbolTableRecord
100
AcDbLinetypeTableRecord
  2
DOT2
 70
0
  3
Dot (.5x) .....................................
 72
65
 73
2
 40
3.1749999999999998
 49
0.0
 74
0
 49
-3.1749999999999998
 74
0
  0
LTYPE
  5
33
100
AcDbSymbolTableRecord
100
AcDbLinetypeTableRecord
  2
DOTX2
 70
0
  3
Dot (2x) .  .  .  .  .  .  .  .  .  .  .  .  .
 72
65
 73
2
 40
12.6999999999999993
 49
0.0
 74
0
 49
-12.6999999999999993
 74
0
  0
LTYPE
  5
34
100
AcDbSymbolTableRecord
100
AcDbLinetypeTableRecord
  2
DASHED
 70
0
  3
Dashed __ __ __ __ __ __ __ __ __ __ __ __ __ _
 72
65
 73
2
 40
19.0500000000000007
 49
12.6999999999999993
 74
0
 49
-6.3499999999999996
 74
0
  0
LTYPE
  5
35
100
AcDbSymbolTableRecord
100
AcDbLinetypeTableRecord
  2
DASHED2
 70
0
  3
Dashed (.5x) _ _ _ _ _ _ _ _ _ _ _ _ _ _ _ _ _
 72
65
 73
2
 40
9.5250000000000004
 49
6.3499999999999996
 74
0
 49
-3.1749999999999998
 74
0
  0
LTYPE
  5
36
100
AcDbSymbolTableRecord
100
AcDbLinetypeTableRecord
  2
DASHEDX2
 70
0
  3
Dashed (2x) ____  ____  ____  ____  ____  ___
 72
65
 73
2
 40
38.1000000000000014
 49
25.3999999999999986
 74
0
 49
-12.6999999999999993
 74
0
  0
LTYPE
  5
37
100
AcDbSymbolTableRecord
100
AcDbLinetypeTableRecord
  2
DASHDOT
 70
0
  3
Dash dot __ . __ . __ . __ . __ . __ . __ . __
 72
65
 73
4
 40
25.3999999999999986
 49
12.6999999999999993
 74
0
 49
-6.3499999999999996
 74
0
 49
0.0
 74
0
 49
-6.3499999999999996
 74
0
  0
LTYPE
  5
38
100
AcDbSymbolTableRecord
100
AcDbLinetypeTableRecord
  2
DASHDOT2
 70
0
  3
Dash dot (.5x) _._._._._._._._._._._._._._._.
 72
65
 73
4
 40
12.6999999999999993
 49
6.3499999999999996
 74
0
 49
-3.1749999999999998
 74
0
 49
0.0
 74
0
 49
-3.1749999999999998
 74
0
  0
LTYPE
  5
39
100
AcDbSymbolTableRecord
100
AcDbLinetypeTableRecord
  2
DASHDOTX2
 70
0
  3
Dash dot (2x) ____  .  ____  .  ____  .  ___
 72
65
 73
4
 40
50.7999999999999972
 49
25.3999999999999986
 74
0
 49
-12.6999999999999993
 74
0
 49
0.0
 74
0
 49
-12.6999999999999993
 74
0
  0
LTYPE
  5
3A
100
AcDbSymbolTableRecord
100
AcDbLinetypeTableRecord
  2
DIVIDE
 70
0
  3
Divide ____ . . ____ . . ____ . . ____ . . ____
 72
65
 73
6
 40
31.75
 49
12.6999999999999993
 74
0
 49
-6.3499999999999996
 74
0
 49
0.0
 74
0
 49
-6.3499999999999996
 74
0
 49
0.0
 74
0
 49
-6.3499999999999996
 74
0
  0
LTYPE
  5
3B
100
AcDbSymbolTableRecord
100
AcDbLinetypeTableRecord
  2
DIVIDE2
 70
0
  3
Divide (.5x) __..__..__..__..__..__..__..__.._
 72
65
 73
6
 40
15.875
 49
6.3499999999999996
 74
0
 49
-3.1749999999999998
 74
0
 49
0.0
 74
0
 49
-3.1749999999999998
 74
0
 49
0.0
 74
0
 49
-3.1749999999999998
 74
0
  0
LTYPE
  5
3C
100
AcDbSymbolTableRecord
100
AcDbLinetypeTableRecord
  2
DIVIDEX2
 70
0
  3
Divide (2x) ________  .  .  ________  .  .  _
 72
65
 73
6
 40
63.5
 49
25.3999999999999986
 74
0
 49
-12.6999999999999993
 74
0
 49
0.0
 74
0
 49
-12.6999999999999993
 74
0
 49
0.0
 74
0
 49
-12.6999999999999993
 74
0
  0
LTYPE
  5
3D
100
AcDbSymbolTableRecord
100
AcDbLinetypeTableRecord
  2
CENTER
 70
0
  3
Center ____ _ ____ _ ____ _ ____ _ ____ _ ____
 72
65
 73
4
 40
50.7999999999999972
 49
31.75
 74
0
 49
-6.3499999999999996
 74
0
 49
6.3499999999999996
 74
0
 49
-6.3499999999999996
 74
0
  0
LTYPE
  5
3E
100
AcDbSymbolTableRecord
100
AcDbLinetypeTableRecord
  2
CENTER2
 70
0
  3
Center (.5x) ___ _ ___ _ ___ _ ___ _ ___ _ ___
 72
65
 73
4
 40
28.5749999999999993
 49
19.0500000000000007
 74
0
 49
-3.1749999999999998
 74
0
 49
3.1749999999999998
 74
0
 49
-3.1749999999999998
 74
0
  0
LTYPE
  5
3F
100
AcDbSymbolTableRecord
100
AcDbLinetypeTableRecord
  2
CENTERX2
 70
0
  3
Center (2x) ________  __  ________  __  _____
 72
65
 73
4
 40
101.5999999999999943
 49
63.5
 74
0
 49
-12.6999999999999993
 74
0
 49
12.6999999999999993
 74
0
 49
-12.6999999999999993
 74
0
  0
LTYPE
  5
40
100
AcDbSymbolTableRecord
100
AcDbLinetypeTableRecord
  2
BORDER
 70
0
  3
Border __ __ . __ __ . __ __ . __ __ . __ __ .
 72
65
 73
6
 40
44.4500000000000028
 49
12.6999999999999993
 74
0
 49
-6.3499999999999996
 74
0
 49
12.6999999999999993
 74
0
 49
-6.3499999999999996
 74
0
 49
0.0
 74
0
 49
-6.3499999999999996
 74
0
  0
LTYPE
  5
41
100
AcDbSymbolTableRecord
100
AcDbLinetypeTableRecord
  2
BORDER2
 70
0
  3
Border (.5x) __.__.__.__.__.__.__.__.__.__.__.
 72
65
 73
6
 40
22.2250000000000014
 49
6.3499999999999996
 74
0
 49
-3.1749999999999998
 74
0
 49
6.3499999999999996
 74
0
 49
-3.1749999999999998
 74
0
 49
0.0
 74
0
 49
-3.1749999999999998
 74
0
  0
LTYPE
  5
42
100
AcDbSymbolTableRecord
100
AcDbLinetypeTableRecord
  2
BORDERX2
 70
0
  3
Border (2x) ____  ____  .  ____  ____  .  ___
 72
65
 73
6
 40
88.9000000000000057
 49
25.3999999999999986
 74
0
 49
-12.6999999999999993
 74
0
 49
25.3999999999999986
 74
0
 49
-12.6999999999999993
 74
0
 49
0.0
 74
0
 49
-12.6999999999999993
 74
0
  0
ENDTAB
  0
TABLE
  2
LAYER
  5
2
100
AcDbSymbolTable
 70
1
  0
LAYER
  5
10
100
AcDbSymbolTableRecord
100
AcDbLayerTableRecord
  2
0
 70
0
 62
7
  6
CONTINUOUS
370
0
390
F
  0
ENDTAB
  0
TABLE
  2
STYLE
  5
3
100
AcDbSymbolTable
 70
1
  0
STYLE
  5
11
100
AcDbSymbolTableRecord
100
AcDbTextStyleTableRecord
  2
Standard
 70
0
 40
0.0
 41
0.75
 50
0.0
 71
0
 42
2.5
  3
txt
  4

  0
ENDTAB
  0
TABLE
  2
VIEW
  5
6
100
AcDbSymbolTable
 70
0
  0
ENDTAB
  0
TABLE
  2
UCS
  5
7
100
AcDbSymbolTable
 70
0
  0
ENDTAB
  0
TABLE
  2
APPID
  5
9
100
AcDbSymbolTable
 70
1
  0
APPID
  5
12
100
AcDbSymbolTableRecord
100
AcDbRegAppTableRecord
  2
ACAD
 70
0
  0
ENDTAB
  0
TABLE
  2
DIMSTYLE
  5
A
100
AcDbSymbolTable
 70
1
100
AcDbDimStyleTable
 71
0
  0
DIMSTYLE
105
27
100
AcDbSymbolTableRecord
100
AcDbDimStyleTableRecord
  2
Standard
 41
2.5
 42
0.625
 43
3.75
 44
1.25
 70
0
 73
0
 74
0
 77
1
 78
8
140
2.5
141
2.5
143
0.03937007874016
147
0.625
171
3
172
1
271
2
272
2
274
3
278
44
283
0
284
8
340
11
  0
ENDTAB
  0
TABLE
  2
BLOCK_RECORD
  5
1
100
AcDbSymbolTable
 70
1
  0
BLOCK_RECORD
  5
1F
100
AcDbSymbolTableRecord
100
AcDbBlockTableRecord
  2
*Model_Space
340
22
  0
BLOCK_RECORD
  5
1B
100
AcDbSymbolTableRecord
100
AcDbBlockTableRecord
  2
*Paper_Space
340
1E
  0
BLOCK_RECORD
  5
23
100
AcDbSymbolTableRecord
100
AcDbBlockTableRecord
  2
*Paper_Space0
340
26
  0
ENDTAB
  0
ENDSEC
  0
SECTION
  2
BLOCKS
  0
BLOCK
  5
20
100
AcDbEntity
  8
0
100
AcDbBlockBegin
  2
*Model_Space
 70
0
 10
0.0
 20
0.0
 30
0.0
  3
*Model_Space
  1

  0
ENDBLK
  5
21
100
AcDbEntity
  8
0
100
AcDbBlockEnd
  0
BLOCK
  5
1C
100
AcDbEntity
 67
1
  8
0
100
AcDbBlockBegin
  2
*Paper_Space
 70
0
 10
0.0
 20
0.0
 30
0.0
  3
*Paper_Space
  1

  0
ENDBLK
  5
1D
100
AcDbEntity
 67
1
  8
0
100
AcDbBlockEnd
  0
BLOCK
  5
24
100
AcDbEntity
  8
0
100
AcDbBlockBegin
  2
*Paper_Space0
 70
0
 10
0.0
 20
0.0
 30
0.0
  3
*Paper_Space0
  1

  0
ENDBLK
  5
25
100
AcDbEntity
  8
0
100
AcDbBlockEnd
  0
ENDSEC
  0
SECTION
  2
ENTITIES
  0
ARC
  5
43
100
AcDbEntity
  8
0
 62
256
370
-1
  6
ByLayer
100
AcDbCircle
 10
10.0
 20
187.0
 30
0.0
 40
5.0
100
AcDbArc
 50
90.0
 51
180.0
  0
ARC
  5
44
100
AcDbEntity
  8
0
 62
256
370
-1
  6
ByLayer
100
AcDbCircle
 10
145.0
 20
187.0
 30
0.0
 40
5.0
100
AcDbArc
 50
0.0
 51
90.0
  0
ARC
  5
45
100
AcDbEntity
  8
0
 62
256
370
-1
  6
ByLayer
100
AcDbCircle
 10
155.0
 20
187.0
 30
0.0
 40
5.0
100
AcDbArc
 50
90.0
 51
180.0
  0
ARC
  5
46
100
AcDbEntity
  8
0
 62
256
370
-1
  6
ByLayer
100
AcDbCircle
 10
290.0
 20
187.0
 30
0.0
 40
5.0
100
AcDbArc
 50
0.0
 51
90.0
  0
ARC
  5
47
100
AcDbEntity
  8
0
 62
256
370
-1
  6
ByLayer
100
AcDbCircle
 10
10.0
 20
24.8000000000000007
 30
0.0
 40
5.0
100
AcDbArc
 50
180.0
 51
270.0
  0
LINE
  5
48
100
AcDbEntity
100
AcDbLine
  8
0
 62
256
370
-1
  6
ByLayer
 10
145.0
 20
19.8000000000000007
 30
0.0
 11
10.0
 21
19.8000000000000007
 31
0.0
  0
ARC
  5
49
100
AcDbEntity
  8
0
 62
256
370
-1
  6
ByLayer
100
AcDbCircle
 10
145.0
 20
24.8000000000000007
 30
0.0
 40
5.0
100
AcDbArc
 50
270.0
 51
0.0
  0
ARC
  5
4A
100
AcDbEntity
  8
0
 62
256
370
-1
  6
ByLayer
100
AcDbCircle
 10
155.0
 20
24.8000000000000007
 30
0.0
 40
5.0
100
AcDbArc
 50
180.0
 51
270.0
  0
LINE
  5
4B
100
AcDbEntity
100
AcDbLine
  8
0
 62
256
370
-1
  6
ByLayer
 10
290.0
 20
19.8000000000000007
 30
0.0
 11
155.0
 21
19.8000000000000007
 31
0.0
  0
ARC
  5
4C
100
AcDbEntity
  8
0
 62
256
370
-1
  6
ByLayer
100
AcDbCircle
 10
290.0
 20
24.8000000000000007
 30
0.0
 40
5.0
100
AcDbArc
 50
270.0
 51
0.0
  0
LINE
  5
4D
100
AcDbEntity
100
AcDbLine
  8
0
 62
256
370
-1
  6
ByLayer
 10
5.0000000000000009
 20
24.7999999999999972
 30
0.0
 11
5.0
 21
187.0
 31
0.0
  0
LINE
  5
4E
100
AcDbEntity
100
AcDbLine
  8
0
 62
256
370
-1
  6
ByLayer
 10
150.0
 20
187.0
 30
0.0
 11
150.0
 21
24.8000000000000007
 31
0.0
  0
LINE
  5
4F
100
AcDbEntity
100
AcDbLine
  8
0
 62
256
370
-1
  6
ByLayer
 10
295.0
 20
187.0
 30
0.0
 11
295.0
 21
24.8000000000000007
 31
0.0
  0
LINE
  5
50
100
AcDbEntity
100
AcDbLine
  8
0
 62
256
370
-1
  6
ByLayer
 10
88.0
 20
182.0
 30
0.0
 11
88.0
 21
185.0
 31
0.0
  0
LINE
  5
51
100
AcDbEntity
100
AcDbLine
  8
0
 62
256
370
-1
  6
ByLayer
 10
67.0
 20
182.0
 30
0.0
 11
67.0
 21
185.0
 31
0.0
  0
LINE
  5
52
100
AcDbEntity
100
AcDbLine
  8
0
 62
256
370
-1
  6
ByLayer
 10
133.0
 20
185.0
 30
0.0
 11
133.0
 21
182.0
 31
0.0
  0
LINE
  5
53
100
AcDbEntity
100
AcDbLine
  8
0
 62
256
370
-1
  6
ByLayer
 10
121.0
 20
182.0
 30
0.0
 11
121.0
 21
185.0
 31
0.0
  0
LINE
  5
54
100
AcDbEntity
100
AcDbLine
  8
0
 62
256
370
-1
  6
ByLayer
 10
34.0
 20
182.0
 30
0.0
 11
34.0
 21
185.0
 31
0.0
  0
LINE
  5
55
100
AcDbEntity
100
AcDbLine
  8
0
 62
256
370
-1
  6
ByLayer
 10
22.0
 20
182.0
 30
0.0
 11
22.0
 21
185.0
 31
0.0
  0
LINE
  5
56
100
AcDbEntity
100
AcDbLine
  8
0
 62
256
370
-1
  6
ByLayer
 10
22.0
 20
185.0
 30
0.0
 11
34.0
 21
185.0
 31
0.0
  0
LINE
  5
57
100
AcDbEntity
100
AcDbLine
  8
0
 62
256
370
-1
  6
ByLayer
 10
34.0
 20
182.0
 30
0.0
 11
22.0
 21
182.0
 31
0.0
  0
LINE
  5
58
100
AcDbEntity
100
AcDbLine
  8
0
 62
256
370
-1
  6
ByLayer
 10
67.0
 20
185.0
 30
0.0
 11
88.0
 21
185.0
 31
0.0
  0
LINE
  5
59
100
AcDbEntity
100
AcDbLine
  8
0
 62
256
370
-1
  6
ByLayer
 10
88.0
 20
182.0
 30
0.0
 11
67.0
 21
182.0
 31
0.0
  0
LINE
  5
5A
100
AcDbEntity
100
AcDbLine
  8
0
 62
256
370
-1
  6
ByLayer
 10
121.0
 20
185.0
 30
0.0
 11
133.0
 21
185.0
 31
0.0
  0
LINE
  5
5B
100
AcDbEntity
100
AcDbLine
  8
0
 62
256
370
-1
  6
ByLayer
 10
133.0
 20
182.0
 30
0.0
 11
121.0
 21
182.0
 31
0.0
  0
LINE
  5
5C
100
AcDbEntity
100
AcDbLine
  8
0
 62
256
370
-1
  6
ByLayer
 10
88.0
 20
26.8000000000000114
 30
0.0
 11
88.0
 21
29.8000000000000114
 31
0.0
  0
LINE
  5
5D
100
AcDbEntity
100
AcDbLine
  8
0
 62
256
370
-1
  6
ByLayer
 10
67.0
 20
26.8000000000000114
 30
0.0
 11
67.0
 21
29.8000000000000114
 31
0.0
  0
LINE
  5
5E
100
AcDbEntity
100
AcDbLine
  8
0
 62
256
370
-1
  6
ByLayer
 10
133.0
 20
29.8000000000000114
 30
0.0
 11
133.0
 21
26.8000000000000114
 31
0.0
  0
LINE
  5
5F
100
AcDbEntity
100
AcDbLine
  8
0
 62
256
370
-1
  6
ByLayer
 10
121.0
 20
26.8000000000000114
 30
0.0
 11
121.0
 21
29.8000000000000114
 31
0.0
  0
LINE
  5
60
100
AcDbEntity
100
AcDbLine
  8
0
 62
256
370
-1
  6
ByLayer
 10
34.0
 20
26.8000000000000114
 30
0.0
 11
34.0
 21
29.8000000000000114
 31
0.0
  0
LINE
  5
61
100
AcDbEntity
100
AcDbLine
  8
0
 62
256
370
-1
  6
ByLayer
 10
22.0
 20
26.8000000000000114
 30
0.0
 11
22.0
 21
29.8000000000000114
 31
0.0
  0
LINE
  5
62
100
AcDbEntity
100
AcDbLine
  8
0
 62
256
370
-1
  6
ByLayer
 10
22.0
 20
29.8000000000000114
 30
0.0
 11
34.0
 21
29.8000000000000114
 31
0.0
  0
LINE
  5
63
100
AcDbEntity
100
AcDbLine
  8
0
 62
256
370
-1
  6
ByLayer
 10
34.0
 20
26.8000000000000114
 30
0.0
 11
22.0
 21
26.8000000000000114
 31
0.0
  0
LINE
  5
64
100
AcDbEntity
100
AcDbLine
  8
0
 62
256
370
-1
  6
ByLayer
 10
67.0
 20
29.8000000000000114
 30
0.0
 11
88.0
 21
29.8000000000000114
 31
0.0
  0
LINE
  5
65
100
AcDbEntity
100
AcDbLine
  8
0
 62
256
370
-1
  6
ByLayer
 10
88.0
 20
26.8000000000000114
 30
0.0
 11
67.0
 21
26.8000000000000114
 31
0.0
  0
LINE
  5
66
100
AcDbEntity
100
AcDbLine
  8
0
 62
256
370
-1
  6
ByLayer
 10
121.0
 20
29.8000000000000114
 30
0.0
 11
133.0
 21
29.8000000000000114
 31
0.0
  0
LINE
  5
67
100
AcDbEntity
100
AcDbLine
  8
0
 62
256
370
-1
  6
ByLayer
 10
133.0
 20
26.8000000000000114
 30
0.0
 11
121.0
 21
26.8000000000000114
 31
0.0
  0
LINE
  5
68
100
AcDbEntity
100
AcDbLine
  8
0
 62
256
370
-1
  6
ByLayer
 10
12.0000000000000693
 20
115.8999999999999773
 30
0.0
 11
15.0000000000000036
 21
115.8999999999999773
 31
0.0
  0
LINE
  5
69
100
AcDbEntity
100
AcDbLine
  8
0
 62
256
370
-1
  6
ByLayer
 10
12.0000000000000693
 20
115.8999999999999773
 30
0.0
 11
11.9999999999997939
 21
95.8999999999999773
 31
0.0
  0
LINE
  5
6A
100
AcDbEntity
100
AcDbLine
  8
0
 62
256
370
-1
  6
ByLayer
 10
11.9999999999997939
 20
95.8999999999999773
 30
0.0
 11
15.0000000000000053
 21
95.8999999999999773
 31
0.0
  0
LINE
  5
6B
100
AcDbEntity
100
AcDbLine
  8
0
 62
256
370
-1
  6
ByLayer
 10
15.0
 20
172.0
 30
0.0
 11
11.9999999999999929
 21
172.0
 31
0.0
  0
LINE
  5
6C
100
AcDbEntity
100
AcDbLine
  8
0
 62
256
370
-1
  6
ByLayer
 10
11.9999999999999929
 20
172.0
 30
0.0
 11
11.9999999999999964
 21
160.0
 31
0.0
  0
LINE
  5
6D
100
AcDbEntity
100
AcDbLine
  8
0
 62
256
370
-1
  6
ByLayer
 10
11.9999999999999964
 20
160.0
 30
0.0
 11
15.0000000000000018
 21
160.0
 31
0.0
  0
LINE
  5
6E
100
AcDbEntity
100
AcDbLine
  8
0
 62
256
370
-1
  6
ByLayer
 10
15.0000000000000071
 20
51.8000000000000114
 30
0.0
 11
12.0000000000001652
 21
51.8000000000000114
 31
0.0
  0
LINE
  5
6F
100
AcDbEntity
100
AcDbLine
  8
0
 62
256
370
-1
  6
ByLayer
 10
12.0000000000001652
 20
51.8000000000000114
 30
0.0
 11
11.9999999999993392
 21
39.8000000000000114
 31
0.0
  0
LINE
  5
70
100
AcDbEntity
100
AcDbLine
  8
0
 62
256
370
-1
  6
ByLayer
 10
11.9999999999993392
 20
39.8000000000000114
 30
0.0
 11
15.0000000000000089
 21
39.8000000000000114
 31
0.0
  0
LINE
  5
71
100
AcDbEntity
100
AcDbLine
  8
0
 62
256
370
-1
  6
ByLayer
 10
15.0000000000000089
 20
39.8000000000000114
 30
0.0
 11
15.0000000000000071
 21
51.8000000000000114
 31
0.0
  0
LINE
  5
72
100
AcDbEntity
100
AcDbLine
  8
0
 62
256
370
-1
  6
ByLayer
 10
15.0000000000000053
 20
95.8999999999999773
 30
0.0
 11
15.0000000000000036
 21
115.8999999999999773
 31
0.0
  0
LINE
  5
73
100
AcDbEntity
100
AcDbLine
  8
0
 62
256
370
-1
  6
ByLayer
 10
15.0000000000000018
 20
160.0
 30
0.0
 11
15.0
 21
172.0
 31
0.0
  0
LINE
  5
74
100
AcDbEntity
100
AcDbLine
  8
0
 62
256
370
-1
  6
ByLayer
 10
140.0000000000000568
 20
115.8999999999999773
 30
0.0
 11
143.0
 21
115.8999999999999773
 31
0.0
  0
LINE
  5
75
100
AcDbEntity
100
AcDbLine
  8
0
 62
256
370
-1
  6
ByLayer
 10
140.0000000000000568
 20
115.8999999999999773
 30
0.0
 11
139.999999999999801
 21
95.8999999999999773
 31
0.0
  0
LINE
  5
76
100
AcDbEntity
100
AcDbLine
  8
0
 62
256
370
-1
  6
ByLayer
 10
139.999999999999801
 20
95.8999999999999773
 30
0.0
 11
143.0
 21
95.8999999999999773
 31
0.0
  0
LINE
  5
77
100
AcDbEntity
100
AcDbLine
  8
0
 62
256
370
-1
  6
ByLayer
 10
143.0
 20
172.0
 30
0.0
 11
140.0
 21
172.0
 31
0.0
  0
LINE
  5
78
100
AcDbEntity
100
AcDbLine
  8
0
 62
256
370
-1
  6
ByLayer
 10
140.0
 20
172.0
 30
0.0
 11
140.0
 21
160.0
 31
0.0
  0
LINE
  5
79
100
AcDbEntity
100
AcDbLine
  8
0
 62
256
370
-1
  6
ByLayer
 10
140.0
 20
160.0
 30
0.0
 11
143.0
 21
160.0
 31
0.0
  0
LINE
  5
7A
100
AcDbEntity
100
AcDbLine
  8
0
 62
256
370
-1
  6
ByLayer
 10
143.0
 20
51.8000000000000114
 30
0.0
 11
140.0000000000001705
 21
51.8000000000000114
 31
0.0
  0
LINE
  5
7B
100
AcDbEntity
100
AcDbLine
  8
0
 62
256
370
-1
  6
ByLayer
 10
140.0000000000001705
 20
51.8000000000000114
 30
0.0
 11
139.9999999999993463
 21
39.8000000000000114
 31
0.0
  0
LINE
  5
7C
100
AcDbEntity
100
AcDbLine
  8
0
 62
256
370
-1
  6
ByLayer
 10
139.9999999999993463
 20
39.8000000000000114
 30
0.0
 11
143.0
 21
39.8000000000000114
 31
0.0
  0
LINE
  5
7D
100
AcDbEntity
100
AcDbLine
  8
0
 62
256
370
-1
  6
ByLayer
 10
143.0
 20
39.8000000000000114
 30
0.0
 11
143.0
 21
51.8000000000000114
 31
0.0
  0
LINE
  5
7E
100
AcDbEntity
100
AcDbLine
  8
0
 62
256
370
-1
  6
ByLayer
 10
143.0
 20
95.8999999999999773
 30
0.0
 11
143.0
 21
115.8999999999999773
 31
0.0
  0
LINE
  5
7F
100
AcDbEntity
100
AcDbLine
  8
0
 62
256
370
-1
  6
ByLayer
 10
143.0
 20
160.0
 30
0.0
 11
143.0
 21
172.0
 31
0.0
  0
LINE
  5
80
100
AcDbEntity
100
AcDbLine
  8
0
 62
256
370
-1
  6
ByLayer
 10
233.0
 20
182.0
 30
0.0
 11
233.0
 21
185.0
 31
0.0
  0
LINE
  5
81
100
AcDbEntity
100
AcDbLine
  8
0
 62
256
370
-1
  6
ByLayer
 10
212.0
 20
182.0
 30
0.0
 11
212.0
 21
185.0
 31
0.0
  0
LINE
  5
82
100
AcDbEntity
100
AcDbLine
  8
0
 62
256
370
-1
  6
ByLayer
 10
278.0
 20
185.0
 30
0.0
 11
278.0
 21
182.0
 31
0.0
  0
LINE
  5
83
100
AcDbEntity
100
AcDbLine
  8
0
 62
256
370
-1
  6
ByLayer
 10
266.0
 20
182.0
 30
0.0
 11
266.0
 21
185.0
 31
0.0
  0
LINE
  5
84
100
AcDbEntity
100
AcDbLine
  8
0
 62
256
370
-1
  6
ByLayer
 10
179.0
 20
182.0
 30
0.0
 11
179.0
 21
185.0
 31
0.0
  0
LINE
  5
85
100
AcDbEntity
100
AcDbLine
  8
0
 62
256
370
-1
  6
ByLayer
 10
167.0
 20
182.0
 30
0.0
 11
167.0
 21
185.0
 31
0.0
  0
LINE
  5
86
100
AcDbEntity
100
AcDbLine
  8
0
 62
256
370
-1
  6
ByLayer
 10
167.0
 20
185.0
 30
0.0
 11
179.0
 21
185.0
 31
0.0
  0
LINE
  5
87
100
AcDbEntity
100
AcDbLine
  8
0
 62
256
370
-1
  6
ByLayer
 10
179.0
 20
182.0
 30
0.0
 11
167.0
 21
182.0
 31
0.0
  0
LINE
  5
88
100
AcDbEntity
100
AcDbLine
  8
0
 62
256
370
-1
  6
ByLayer
 10
212.0
 20
185.0
 30
0.0
 11
233.0
 21
185.0
 31
0.0
  0
LINE
  5
89
100
AcDbEntity
100
AcDbLine
  8
0
 62
256
370
-1
  6
ByLayer
 10
233.0
 20
182.0
 30
0.0
 11
212.0
 21
182.0
 31
0.0
  0
LINE
  5
8A
100
AcDbEntity
100
AcDbLine
  8
0
 62
256
370
-1
  6
ByLayer
 10
266.0
 20
185.0
 30
0.0
 11
278.0
 21
185.0
 31
0.0
  0
LINE
  5
8B
100
AcDbEntity
100
AcDbLine
  8
0
 62
256
370
-1
  6
ByLayer
 10
278.0
 20
182.0
 30
0.0
 11
266.0
 21
182.0
 31
0.0
  0
LINE
  5
8C
100
AcDbEntity
100
AcDbLine
  8
0
 62
256
370
-1
  6
ByLayer
 10
233.0
 20
26.8000000000000114
 30
0.0
 11
233.0
 21
29.8000000000000114
 31
0.0
  0
LINE
  5
8D
100
AcDbEntity
100
AcDbLine
  8
0
 62
256
370
-1
  6
ByLayer
 10
212.0
 20
26.8000000000000114
 30
0.0
 11
212.0
 21
29.8000000000000114
 31
0.0
  0
LINE
  5
8E
100
AcDbEntity
100
AcDbLine
  8
0
 62
256
370
-1
  6
ByLayer
 10
278.0
 20
29.8000000000000114
 30
0.0
 11
278.0
 21
26.8000000000000114
 31
0.0
  0
LINE
  5
8F
100
AcDbEntity
100
AcDbLine
  8
0
 62
256
370
-1
  6
ByLayer
 10
266.0
 20
26.8000000000000114
 30
0.0
 11
266.0
 21
29.8000000000000114
 31
0.0
  0
LINE
  5
90
100
AcDbEntity
100
AcDbLine
  8
0
 62
256
370
-1
  6
ByLayer
 10
179.0
 20
26.8000000000000114
 30
0.0
 11
179.0
 21
29.8000000000000114
 31
0.0
  0
LINE
  5
91
100
AcDbEntity
100
AcDbLine
  8
0
 62
256
370
-1
  6
ByLayer
 10
167.0
 20
26.8000000000000114
 30
0.0
 11
167.0
 21
29.8000000000000114
 31
0.0
  0
LINE
  5
92
100
AcDbEntity
100
AcDbLine
  8
0
 62
256
370
-1
  6
ByLayer
 10
167.0
 20
29.8000000000000114
 30
0.0
 11
179.0
 21
29.8000000000000114
 31
0.0
  0
LINE
  5
93
100
AcDbEntity
100
AcDbLine
  8
0
 62
256
370
-1
  6
ByLayer
 10
179.0
 20
26.8000000000000114
 30
0.0
 11
167.0
 21
26.8000000000000114
 31
0.0
  0
LINE
  5
94
100
AcDbEntity
100
AcDbLine
  8
0
 62
256
370
-1
  6
ByLayer
 10
212.0
 20
29.8000000000000114
 30
0.0
 11
233.0
 21
29.8000000000000114
 31
0.0
  0
LINE
  5
95
100
AcDbEntity
100
AcDbLine
  8
0
 62
256
370
-1
  6
ByLayer
 10
233.0
 20
26.8000000000000114
 30
0.0
 11
212.0
 21
26.8000000000000114
 31
0.0
  0
LINE
  5
96
100
AcDbEntity
100
AcDbLine
  8
0
 62
256
370
-1
  6
ByLayer
 10
266.0
 20
29.8000000000000114
 30
0.0
 11
278.0
 21
29.8000000000000114
 31
0.0
  0
LINE
  5
97
100
AcDbEntity
100
AcDbLine
  8
0
 62
256
370
-1
  6
ByLayer
 10
278.0
 20
26.8000000000000114
 30
0.0
 11
266.0
 21
26.8000000000000114
 31
0.0
  0
LINE
  5
98
100
AcDbEntity
100
AcDbLine
  8
0
 62
256
370
-1
  6
ByLayer
 10
157.0000000000000568
 20
115.8999999999999773
 30
0.0
 11
160.0
 21
115.8999999999999773
 31
0.0
  0
LINE
  5
99
100
AcDbEntity
100
AcDbLine
  8
0
 62
256
370
-1
  6
ByLayer
 10
157.0000000000000568
 20
115.8999999999999773
 30
0.0
 11
156.999999999999801
 21
95.8999999999999773
 31
0.0
  0
LINE
  5
9A
100
AcDbEntity
100
AcDbLine
  8
0
 62
256
370
-1
  6
ByLayer
 10
156.999999999999801
 20
95.8999999999999773
 30
0.0
 11
160.0
 21
95.8999999999999773
 31
0.0
  0
LINE
  5
9B
100
AcDbEntity
100
AcDbLine
  8
0
 62
256
370
-1
  6
ByLayer
 10
160.0
 20
172.0
 30
0.0
 11
157.0
 21
172.0
 31
0.0
  0
LINE
  5
9C
100
AcDbEntity
100
AcDbLine
  8
0
 62
256
370
-1
  6
ByLayer
 10
157.0
 20
172.0
 30
0.0
 11
157.0
 21
160.0
 31
0.0
  0
LINE
  5
9D
100
AcDbEntity
100
AcDbLine
  8
0
 62
256
370
-1
  6
ByLayer
 10
157.0
 20
160.0
 30
0.0
 11
160.0
 21
160.0
 31
0.0
  0
LINE
  5
9E
100
AcDbEntity
100
AcDbLine
  8
0
 62
256
370
-1
  6
ByLayer
 10
160.0
 20
51.8000000000000114
 30
0.0
 11
157.0000000000001705
 21
51.8000000000000114
 31
0.0
  0
LINE
  5
9F
100
AcDbEntity
100
AcDbLine
  8
0
 62
256
370
-1
  6
ByLayer
 10
157.0000000000001705
 20
51.8000000000000114
 30
0.0
 11
156.9999999999993463
 21
39.8000000000000114
 31
0.0
  0
LINE
  5
A0
100
AcDbEntity
100
AcDbLine
  8
0
 62
256
370
-1
  6
ByLayer
 10
156.9999999999993463
 20
39.8000000000000114
 30
0.0
 11
160.0
 21
39.8000000000000114
 31
0.0
  0
LINE
  5
A1
100
AcDbEntity
100
AcDbLine
  8
0
 62
256
370
-1
  6
ByLayer
 10
160.0
 20
39.8000000000000114
 30
0.0
 11
160.0
 21
51.8000000000000114
 31
0.0
  0
LINE
  5
A2
100
AcDbEntity
100
AcDbLine
  8
0
 62
256
370
-1
  6
ByLayer
 10
160.0
 20
95.8999999999999773
 30
0.0
 11
160.0
 21
115.8999999999999773
 31
0.0
  0
LINE
  5
A3
100
AcDbEntity
100
AcDbLine
  8
0
 62
256
370
-1
  6
ByLayer
 10
160.0
 20
160.0
 30
0.0
 11
160.0
 21
172.0
 31
0.0
  0
LINE
  5
A4
100
AcDbEntity
100
AcDbLine
  8
0
 62
256
370
-1
  6
ByLayer
 10
285.0000000000000568
 20
115.8999999999999773
 30
0.0
 11
288.0
 21
115.8999999999999773
 31
0.0
  0
LINE
  5
A5
100
AcDbEntity
100
AcDbLine
  8
0
 62
256
370
-1
  6
ByLayer
 10
285.0000000000000568
 20
115.8999999999999773
 30
0.0
 11
284.9999999999997726
 21
95.8999999999999773
 31
0.0
  0
LINE
  5
A6
100
AcDbEntity
100
AcDbLine
  8
0
 62
256
370
-1
  6
ByLayer
 10
284.9999999999997726
 20
95.8999999999999773
 30
0.0
 11
288.0
 21
95.8999999999999773
 31
0.0
  0
LINE
  5
A7
100
AcDbEntity
100
AcDbLine
  8
0
 62
256
370
-1
  6
ByLayer
 10
288.0
 20
172.0
 30
0.0
 11
285.0
 21
172.0
 31
0.0
  0
LINE
  5
A8
100
AcDbEntity
100
AcDbLine
  8
0
 62
256
370
-1
  6
ByLayer
 10
285.0
 20
172.0
 30
0.0
 11
285.0
 21
160.0
 31
0.0
  0
LINE
  5
A9
100
AcDbEntity
100
AcDbLine
  8
0
 62
256
370
-1
  6
ByLayer
 10
285.0
 20
160.0
 30
0.0
 11
288.0
 21
160.0
 31
0.0
  0
LINE
  5
AA
100
AcDbEntity
100
AcDbLine
  8
0
 62
256
370
-1
  6
ByLayer
 10
288.0
 20
51.8000000000000114
 30
0.0
 11
285.0000000000001705
 21
51.8000000000000114
 31
0.0
  0
LINE
  5
AB
100
AcDbEntity
100
AcDbLine
  8
0
 62
256
370
-1
  6
ByLayer
 10
285.0000000000001705
 20
51.8000000000000114
 30
0.0
 11
284.9999999999993179
 21
39.8000000000000114
 31
0.0
  0
LINE
  5
AC
100
AcDbEntity
100
AcDbLine
  8
0
 62
256
370
-1
  6
ByLayer
 10
284.9999999999993179
 20
39.8000000000000114
 30
0.0
 11
288.0
 21
39.8000000000000114
 31
0.0
  0
LINE
  5
AD
100
AcDbEntity
100
AcDbLine
  8
0
 62
256
370
-1
  6
ByLayer
 10
288.0
 20
39.8000000000000114
 30
0.0
 11
288.0
 21
51.8000000000000114
 31
0.0
  0
LINE
  5
AE
100
AcDbEntity
100
AcDbLine
  8
0
 62
256
370
-1
  6
ByLayer
 10
288.0
 20
95.8999999999999773
 30
0.0
 11
288.0
 21
115.8999999999999773
 31
0.0
  0
LINE
  5
AF
100
AcDbEntity
100
AcDbLine
  8
0
 62
256
370
-1
  6
ByLayer
 10
288.0
 20
160.0
 30
0.0
 11
288.0
 21
172.0
 31
0.0
  0
LINE
  5
B0
100
AcDbEntity
100
AcDbLine
  8
0
 62
256
370
-1
  6
ByLayer
 10
88.5000000000000284
 20
203.0
 30
0.0
 11
72.0000000000000284
 21
203.0
 31
0.0
  0
LINE
  5
B1
100
AcDbEntity
100
AcDbLine
  8
0
 62
256
370
-1
  6
ByLayer
 10
34.4444444444444358
 20
227.0
 30
0.0
 11
35.7777777777777715
 21
222.9999995557479906
 31
0.0
  0
LINE
  5
B2
100
AcDbEntity
100
AcDbLine
  8
0
 62
256
370
-1
  6
ByLayer
 10
35.7777777777777715
 20
222.9999995557479906
 30
0.0
 11
37.1111111111111072
 21
227.0
 31
0.0
  0
LINE
  5
B3
100
AcDbEntity
100
AcDbLine
  8
0
 62
256
370
-1
  6
ByLayer
 10
38.4444888888888912
 20
227.0
 30
0.0
 11
38.4444888888888912
 21
222.9999995555555188
 31
0.0
  0
LINE
  5
B4
100
AcDbEntity
100
AcDbLine
  8
0
 62
256
370
-1
  6
ByLayer
 10
39.7777777777777715
 20
222.9999995555555188
 30
0.0
 11
41.1111111111111072
 21
222.9999995557479906
 31
0.0
  0
LINE
  5
B5
100
AcDbEntity
100
AcDbLine
  8
0
 62
256
370
-1
  6
ByLayer
 10
42.0
 20
223.8888888888889142
 30
0.0
 11
42.0
 21
226.1111111111110858
 31
0.0
  0
LINE
  5
B6
100
AcDbEntity
100
AcDbLine
  8
0
 62
256
370
-1
  6
ByLayer
 10
41.1111111111111072
 20
227.0
 30
0.0
 11
39.7777777777777715
 21
227.0
 31
0.0
  0
LINE
  5
B7
100
AcDbEntity
100
AcDbLine
  8
0
 62
256
370
-1
  6
ByLayer
 10
39.7777777777777715
 20
227.0
 30
0.0
 11
39.7777777777777715
 21
222.9999995555555188
 31
0.0
  0
ARC
  5
B8
100
AcDbEntity
  8
0
 62
256
370
-1
  6
ByLayer
100
AcDbCircle
 10
41.1111111111111072
 20
223.8888888888889142
 30
0.0
 40
0.8888888888888888
100
AcDbArc
 50
270.0
 51
0.0
  0
ARC
  5
B9
100
AcDbEntity
  8
0
 62
256
370
-1
  6
ByLayer
100
AcDbCircle
 10
41.1111111111111072
 20
226.1111111111110858
 30
0.0
 40
0.8888888888888888
100
AcDbArc
 50
0.0
 51
90.0
  0
LINE
  5
BA
100
AcDbEntity
100
AcDbLine
  8
0
 62
256
370
-1
  6
ByLayer
 10
45.1110666666666589
 20
227.0
 30
0.0
 11
43.3333333333333286
 21
227.0
 31
0.0
  0
LINE
  5
BB
100
AcDbEntity
100
AcDbLine
  8
0
 62
256
370
-1
  6
ByLayer
 10
43.3333333333333286
 20
227.0
 30
0.0
 11
43.3333337777777814
 21
223.0
 31
0.0
  0
LINE
  5
BC
100
AcDbEntity
100
AcDbLine
  8
0
 62
256
370
-1
  6
ByLayer
 10
43.3333337777777814
 20
223.0
 30
0.0
 11
45.1110666666666589
 21
222.9999995559418267
 31
0.0
  0
LINE
  5
BD
100
AcDbEntity
100
AcDbLine
  8
0
 62
256
370
-1
  6
ByLayer
 10
43.3333333333333286
 20
225.2222217777778042
 30
0.0
 11
44.666622222222216
 21
225.2222217777778042
 31
0.0
  0
LINE
  5
BE
100
AcDbEntity
100
AcDbLine
  8
0
 62
256
370
-1
  6
ByLayer
 10
46.4444000000000017
 20
223.8888888888889142
 30
0.0
 11
46.4444000000000017
 21
226.1111111111110858
 31
0.0
  0
LINE
  5
BF
100
AcDbEntity
100
AcDbLine
  8
0
 62
256
370
-1
  6
ByLayer
 10
47.3332888888888874
 20
227.0
 30
0.0
 11
47.7776888888888891
 21
227.0
 31
0.0
  0
LINE
  5
C0
100
AcDbEntity
100
AcDbLine
  8
0
 62
256
370
-1
  6
ByLayer
 10
48.6665777777777748
 20
226.1111111111110858
 30
0.0
 11
48.6665777777777748
 21
223.8888888888889142
 31
0.0
  0
LINE
  5
C1
100
AcDbEntity
100
AcDbLine
  8
0
 62
256
370
-1
  6
ByLayer
 10
47.7776888888888891
 20
222.9999995557479906
 30
0.0
 11
47.3332888888888874
 21
222.9999995555357941
 31
0.0
  0
ARC
  5
C2
100
AcDbEntity
  8
0
 62
256
370
-1
  6
ByLayer
100
AcDbCircle
 10
47.3332888888888874
 20
226.1111111111110858
 30
0.0
 40
0.8888888888888888
100
AcDbArc
 50
90.0
 51
180.0
  0
ARC
  5
C3
100
AcDbEntity
  8
0
 62
256
370
-1
  6
ByLayer
100
AcDbCircle
 10
47.7776888888888891
 20
226.1111111111110858
 30
0.0
 40
0.8888888888888888
100
AcDbArc
 50
0.0
 51
90.0
  0
ARC
  5
C4
100
AcDbEntity
  8
0
 62
256
370
-1
  6
ByLayer
100
AcDbCircle
 10
47.7776888888888891
 20
223.8888888888889142
 30
0.0
 40
0.8888888888888888
100
AcDbArc
 50
270.0
 51
0.0
  0
ARC
  5
C5
100
AcDbEntity
  8
0
 62
256
370
-1
  6
ByLayer
100
AcDbCircle
 10
47.3332888888888874
 20
223.8888888888889142
 30
0.0
 40
0.8888888888888888
100
AcDbArc
 50
180.0
 51
270.0
  0
LINE
  5
C6
100
AcDbEntity
100
AcDbLine
  8
0
 62
256
370
-1
  6
ByLayer
 10
52.9999555555555588
 20
227.0
 30
0.0
 11
52.9999555555555588
 21
222.9999995555555188
 31
0.0
  0
LINE
  5
C7
100
AcDbEntity
100
AcDbLine
  8
0
 62
256
370
-1
  6
ByLayer
 10
54.3332893333333402
 20
223.0
 30
0.0
 11
54.3332888888888874
 21
227.0
 31
0.0
  0
LINE
  5
C8
100
AcDbEntity
100
AcDbLine
  8
0
 62
256
370
-1
  6
ByLayer
 10
54.3332888888888874
 20
227.0
 30
0.0
 11
56.5554666666666606
 21
222.9999995557420789
 31
0.0
  0
LINE
  5
C9
100
AcDbEntity
100
AcDbLine
  8
0
 62
256
370
-1
  6
ByLayer
 10
56.5554666666666606
 20
222.9999995557420789
 30
0.0
 11
56.5554666666666606
 21
227.0
 31
0.0
  0
LINE
  5
CA
100
AcDbEntity
100
AcDbLine
  8
0
 62
256
370
-1
  6
ByLayer
 10
75.3332888888888874
 20
227.0
 30
0.0
 11
75.3332888888888874
 21
222.9999995555555188
 31
0.0
  0
LINE
  5
CB
100
AcDbEntity
100
AcDbLine
  8
0
 62
256
370
-1
  6
ByLayer
 10
75.3332888888888874
 20
222.9999995555555188
 30
0.0
 11
77.1110666666666589
 21
222.9999995559418267
 31
0.0
  0
LINE
  5
CC
100
AcDbEntity
100
AcDbLine
  8
0
 62
256
370
-1
  6
ByLayer
 10
78.4443555555555605
 20
222.9999995555555188
 30
0.0
 11
79.7776444444444479
 21
227.0
 31
0.0
  0
LINE
  5
CD
100
AcDbEntity
100
AcDbLine
  8
0
 62
256
370
-1
  6
ByLayer
 10
79.7776444444444479
 20
227.0
 30
0.0
 11
81.1111111111111143
 21
222.9999995575064986
 31
0.0
  0
LINE
  5
CE
100
AcDbEntity
100
AcDbLine
  8
0
 62
256
370
-1
  6
ByLayer
 10
78.8147555555555499
 20
224.1111111111110858
 30
0.0
 11
80.7406666666666695
 21
224.1111111111110858
 31
0.0
  0
LINE
  5
CF
100
AcDbEntity
100
AcDbLine
  8
0
 62
256
370
-1
  6
ByLayer
 10
82.4444448888888957
 20
223.0
 30
0.0
 11
82.4444444444444429
 21
227.0
 31
0.0
  0
LINE
  5
D0
100
AcDbEntity
100
AcDbLine
  8
0
 62
256
370
-1
  6
ByLayer
 10
82.4444444444444429
 20
227.0
 30
0.0
 11
84.666622222222216
 21
222.9999995557420789
 31
0.0
  0
LINE
  5
D1
100
AcDbEntity
100
AcDbLine
  8
0
 62
256
370
-1
  6
ByLayer
 10
84.666622222222216
 20
222.9999995557420789
 30
0.0
 11
84.666622222222216
 21
227.0
 31
0.0
  0
LINE
  5
D2
100
AcDbEntity
100
AcDbLine
  8
0
 62
256
370
-1
  6
ByLayer
 10
104.833333333333357
 20
222.9999995555555188
 30
0.0
 11
106.1666666666666856
 21
222.9999995557479906
 31
0.0
  0
LINE
  5
D3
100
AcDbEntity
100
AcDbLine
  8
0
 62
256
370
-1
  6
ByLayer
 10
107.0555555555555713
 20
223.8888888888889142
 30
0.0
 11
107.0555555555555713
 21
226.1111111111110858
 31
0.0
  0
LINE
  5
D4
100
AcDbEntity
100
AcDbLine
  8
0
 62
256
370
-1
  6
ByLayer
 10
106.1666666666666856
 20
227.0
 30
0.0
 11
104.833333333333357
 21
227.0
 31
0.0
  0
LINE
  5
D5
100
AcDbEntity
100
AcDbLine
  8
0
 62
256
370
-1
  6
ByLayer
 10
104.833333333333357
 20
227.0
 30
0.0
 11
104.833333333333357
 21
222.9999995555555188
 31
0.0
  0
ARC
  5
D6
100
AcDbEntity
  8
0
 62
256
370
-1
  6
ByLayer
100
AcDbCircle
 10
106.1666666666666856
 20
223.8888888888889142
 30
0.0
 40
0.8888888888888888
100
AcDbArc
 50
270.0
 51
0.0
  0
ARC
  5
D7
100
AcDbEntity
  8
0
 62
256
370
-1
  6
ByLayer
100
AcDbCircle
 10
106.1666666666666856
 20
226.1111111111110858
 30
0.0
 40
0.8888888888888888
100
AcDbArc
 50
0.0
 51
90.0
  0
LINE
  5
D8
100
AcDbEntity
100
AcDbLine
  8
0
 62
256
370
-1
  6
ByLayer
 10
110.1666222222222302
 20
227.0
 30
0.0
 11
109.2777333333333445
 21
227.0
 31
0.0
  0
LINE
  5
D9
100
AcDbEntity
100
AcDbLine
  8
0
 62
256
370
-1
  6
ByLayer
 10
108.3888444444444588
 20
226.1111111111110858
 30
0.0
 11
108.3888444444444588
 21
223.8888888888889142
 31
0.0
  0
LINE
  5
DA
100
AcDbEntity
100
AcDbLine
  8
0
 62
256
370
-1
  6
ByLayer
 10
109.2777333333333445
 20
222.9999995555580199
 30
0.0
 11
110.1666222222222302
 21
222.9999995559418267
 31
0.0
  0
ARC
  5
DB
100
AcDbEntity
  8
0
 62
256
370
-1
  6
ByLayer
100
AcDbCircle
 10
109.2777333333333445
 20
226.1111111111110858
 30
0.0
 40
0.8888888888888888
100
AcDbArc
 50
90.0
 51
180.0
  0
ARC
  5
DC
100
AcDbEntity
  8
0
 62
256
370
-1
  6
ByLayer
100
AcDbCircle
 10
109.2777333333333445
 20
223.8888888888889142
 30
0.0
 40
0.8888888888888888
100
AcDbArc
 50
180.0
 51
270.0
  0
LINE
  5
DD
100
AcDbEntity
100
AcDbLine
  8
0
 62
256
370
-1
  6
ByLayer
 10
116.2777333333333445
 20
227.0
 30
0.0
 11
114.4999111111111318
 21
227.0
 31
0.0
  0
LINE
  5
DE
100
AcDbEntity
100
AcDbLine
  8
0
 62
256
370
-1
  6
ByLayer
 10
114.4999111111111318
 20
227.0
 30
0.0
 11
114.4999111111111318
 21
225.2222217777778042
 31
0.0
  0
LINE
  5
DF
100
AcDbEntity
100
AcDbLine
  8
0
 62
256
370
-1
  6
ByLayer
 10
114.4999111111111318
 20
225.2222217777778042
 30
0.0
 11
115.3888000000000176
 21
225.2222217777778042
 31
0.0
  0
LINE
  5
E0
100
AcDbEntity
100
AcDbLine
  8
0
 62
256
370
-1
  6
ByLayer
 10
116.2777333333333445
 20
224.3333333333333712
 30
0.0
 11
116.2777333333333445
 21
223.8888888888889142
 31
0.0
  0
LINE
  5
E1
100
AcDbEntity
100
AcDbLine
  8
0
 62
256
370
-1
  6
ByLayer
 10
115.3888000000000176
 20
222.9999995555580199
 30
0.0
 11
114.4999111111111318
 21
222.9999995555555188
 31
0.0
  0
ARC
  5
E2
100
AcDbEntity
  8
0
 62
256
370
-1
  6
ByLayer
100
AcDbCircle
 10
115.3888000000000176
 20
224.3333333333333712
 30
0.0
 40
0.8888888888888888
100
AcDbArc
 50
0.0
 51
90.0
  0
ARC
  5
E3
100
AcDbEntity
  8
0
 62
256
370
-1
  6
ByLayer
100
AcDbCircle
 10
115.3888000000000176
 20
223.8888888888889142
 30
0.0
 40
0.8888888888888888
100
AcDbArc
 50
270.0
 51
0.0
  0
LINE
  5
E4
100
AcDbEntity
100
AcDbLine
  8
0
 62
256
370
-1
  6
ByLayer
 10
117.6110222222222319
 20
227.0
 30
0.0
 11
118.9443555555555605
 21
222.9999995557479906
 31
0.0
  0
LINE
  5
E5
100
AcDbEntity
100
AcDbLine
  8
0
 62
256
370
-1
  6
ByLayer
 10
118.9443555555555605
 20
222.9999995557479906
 30
0.0
 11
120.2776888888889033
 21
227.0
 31
0.0
  0
LINE
  5
E6
100
AcDbEntity
100
AcDbLine
  8
0
 62
256
370
-1
  6
ByLayer
 10
124.6110666666666873
 20
227.0
 30
0.0
 11
124.6110666666666873
 21
222.9999995555555188
 31
0.0
  0
LINE
  5
E7
100
AcDbEntity
100
AcDbLine
  8
0
 62
256
370
-1
  6
ByLayer
 10
125.9444004444444829
 20
223.0
 30
0.0
 11
125.9444000000000301
 21
227.0
 31
0.0
  0
LINE
  5
E8
100
AcDbEntity
100
AcDbLine
  8
0
 62
256
370
-1
  6
ByLayer
 10
125.9444000000000301
 20
227.0
 30
0.0
 11
128.1665777777778032
 21
222.9999995557420789
 31
0.0
  0
LINE
  5
E9
100
AcDbEntity
100
AcDbLine
  8
0
 62
256
370
-1
  6
ByLayer
 10
128.1665777777778032
 20
222.9999995557420789
 30
0.0
 11
128.1665777777778032
 21
227.0
 31
0.0
  0
LINE
  5
EA
100
AcDbEntity
100
AcDbLine
  8
0
 62
256
370
-1
  6
ByLayer
 10
136.0000000000000284
 20
196.0000000000000568
 30
0.0
 11
136.0000000000000284
 21
232.6000000000000227
 31
0.0
  0
LINE
  5
EB
100
AcDbEntity
100
AcDbLine
  8
0
 62
256
370
-1
  6
ByLayer
 10
288.1999999999999886
 20
232.6000000000000227
 30
0.0
 11
288.1999999999999886
 21
196.0
 31
0.0
  0
LINE
  5
EC
100
AcDbEntity
100
AcDbLine
  8
0
 62
256
370
-1
  6
ByLayer
 10
5.0
 20
196.0
 30
0.0
 11
5.0000000000000018
 21
232.6000000000000227
 31
0.0
  0
LINE
  5
ED
100
AcDbEntity
100
AcDbLine
  8
0
 62
256
370
-1
  6
ByLayer
 10
60.0
 20
193.0
 30
0.0
 11
81.0
 21
193.0
 31
0.0
  0
LINE
  5
EE
100
AcDbEntity
100
AcDbLine
  8
0
 62
256
370
-1
  6
ByLayer
 10
81.0
 20
193.0
 30
0.0
 11
81.0
 21
196.0
 31
0.0
  0
LINE
  5
EF
100
AcDbEntity
100
AcDbLine
  8
0
 62
256
370
-1
  6
ByLayer
 10
60.0
 20
193.0
 30
0.0
 11
60.0
 21
196.0
 31
0.0
  0
LINE
  5
F0
100
AcDbEntity
100
AcDbLine
  8
0
 62
256
370
-1
  6
ByLayer
 10
126.0
 20
196.0
 30
0.0
 11
126.0
 21
193.0
 31
0.0
  0
LINE
  5
F1
100
AcDbEntity
100
AcDbLine
  8
0
 62
256
370
-1
  6
ByLayer
 10
126.0
 20
193.0
 30
0.0
 11
114.0
 21
193.0
 31
0.0
  0
LINE
  5
F2
100
AcDbEntity
100
AcDbLine
  8
0
 62
256
370
-1
  6
ByLayer
 10
114.0
 20
193.0
 30
0.0
 11
114.0
 21
196.0
 31
0.0
  0
LINE
  5
F3
100
AcDbEntity
100
AcDbLine
  8
0
 62
256
370
-1
  6
ByLayer
 10
114.0
 20
196.0
 30
0.0
 11
81.0
 21
196.0
 31
0.0
  0
LINE
  5
F4
100
AcDbEntity
100
AcDbLine
  8
0
 62
256
370
-1
  6
ByLayer
 10
126.0
 20
196.0
 30
0.0
 11
136.0
 21
196.0
 31
0.0
  0
LINE
  5
F5
100
AcDbEntity
100
AcDbLine
  8
0
 62
256
370
-1
  6
ByLayer
 10
15.0
 20
193.0
 30
0.0
 11
27.0
 21
193.0
 31
0.0
  0
LINE
  5
F6
100
AcDbEntity
100
AcDbLine
  8
0
 62
256
370
-1
  6
ByLayer
 10
27.0
 20
193.0
 30
0.0
 11
27.0
 21
196.0
 31
0.0
  0
LINE
  5
F7
100
AcDbEntity
100
AcDbLine
  8
0
 62
256
370
-1
  6
ByLayer
 10
15.0
 20
193.0
 30
0.0
 11
15.0
 21
196.0
 31
0.0
  0
LINE
  5
F8
100
AcDbEntity
100
AcDbLine
  8
0
 62
256
370
-1
  6
ByLayer
 10
27.0
 20
196.0
 30
0.0
 11
60.0
 21
196.0
 31
0.0
  0
LINE
  5
F9
100
AcDbEntity
100
AcDbLine
  8
0
 62
256
370
-1
  6
ByLayer
 10
5.0
 20
196.0
 30
0.0
 11
15.0
 21
196.0
 31
0.0
  0
CIRCLE
  5
FA
100
AcDbEntity
100
AcDbCircle
  8
0
 62
256
370
-1
  6
ByLayer
 10
59.5
 20
249.1000000000000227
 30
0.0
 40
4.0
  0
CIRCLE
  5
FB
100
AcDbEntity
100
AcDbCircle
  8
0
 62
256
370
-1
  6
ByLayer
 10
73.5000000000000142
 20
249.1000000000000227
 30
0.0
 40
4.0
  0
CIRCLE
  5
FC
100
AcDbEntity
100
AcDbCircle
  8
0
 62
256
370
-1
  6
ByLayer
 10
87.5000000000000142
 20
249.1000000000000227
 30
0.0
 40
4.0
  0
LINE
  5
FD
100
AcDbEntity
100
AcDbLine
  8
0
 62
256
370
-1
  6
ByLayer
 10
36.2222666666666697
 20
266.6000000000000227
 30
0.0
 11
36.2222666666666697
 21
262.5999995555555415
 31
0.0
  0
LINE
  5
FE
100
AcDbEntity
100
AcDbLine
  8
0
 62
256
370
-1
  6
ByLayer
 10
37.5556004444444511
 20
262.6000000000000227
 30
0.0
 11
37.5555999999999983
 21
266.6000000000000227
 31
0.0
  0
LINE
  5
FF
100
AcDbEntity
100
AcDbLine
  8
0
 62
256
370
-1
  6
ByLayer
 10
37.5555999999999983
 20
266.6000000000000227
 30
0.0
 11
38.888933333333334
 21
266.6000000000000227
 31
0.0
  0
LINE
  5
100
100
AcDbEntity
100
AcDbLine
  8
0
 62
256
370
-1
  6
ByLayer
 10
39.7778222222222198
 20
265.7111111111111086
 30
0.0
 11
39.7778222222222198
 21
265.2666662222222271
 31
0.0
  0
LINE
  5
101
100
AcDbEntity
100
AcDbLine
  8
0
 62
256
370
-1
  6
ByLayer
 10
38.888933333333334
 20
264.3777777777777942
 30
0.0
 11
37.5555999999999983
 21
264.3777777777777942
 31
0.0
  0
LINE
  5
102
100
AcDbEntity
100
AcDbLine
  8
0
 62
256
370
-1
  6
ByLayer
 10
38.888933333333334
 20
264.3777777777777942
 30
0.0
 11
39.7778222222222198
 21
262.599999555733234
 31
0.0
  0
ARC
  5
103
100
AcDbEntity
  8
0
 62
256
370
-1
  6
ByLayer
100
AcDbCircle
 10
38.888933333333334
 20
265.7111111111111086
 30
0.0
 40
0.8888888888888888
100
AcDbArc
 50
0.0
 51
90.0
  0
ARC
  5
104
100
AcDbEntity
  8
0
 62
256
370
-1
  6
ByLayer
100
AcDbCircle
 10
38.888933333333334
 20
265.2666662222222271
 30
0.0
 40
0.8888888888888888
100
AcDbArc
 50
270.0
 51
0.0
  0
LINE
  5
105
100
AcDbEntity
100
AcDbLine
  8
0
 62
256
370
-1
  6
ByLayer
 10
102.3332665619288662
 20
266.6000000000000227
 30
0.0
 11
102.3332665619288662
 21
263.7111111111111086
 31
0.0
  0
LINE
  5
106
100
AcDbEntity
100
AcDbLine
  8
0
 62
256
370
-1
  6
ByLayer
 10
104.5554887841510805
 20
263.7111111111111086
 30
0.0
 11
104.5554887841510805
 21
266.6000000000000227
 31
0.0
  0
ARC
  5
107
100
AcDbEntity
  8
0
 62
256
370
-1
  6
ByLayer
100
AcDbCircle
 10
103.4443776730399662
 20
263.7111111111111086
 30
0.0
 40
1.1111111111111112
100
AcDbArc
 50
180.0
 51
0.0
  0
LINE
  5
108
100
AcDbEntity
100
AcDbLine
  8
0
 62
256
370
-1
  6
ByLayer
 10
106.373977673039974
 20
264.9192391111110965
 30
0.0
 11
107.6258443397066458
 21
264.2807595555555622
 31
0.0
  0
ARC
  5
109
100
AcDbEntity
  8
0
 62
256
370
-1
  6
ByLayer
100
AcDbCircle
 10
106.7777554508177644
 20
263.6555551111111413
 30
0.0
 40
2.9444444444444442
100
AcDbArc
 50
63.0745840000000015
 51
90.0
  0
ARC
  5
10A
100
AcDbEntity
  8
0
 62
256
370
-1
  6
ByLayer
100
AcDbCircle
 10
106.7777554508177644
 20
265.7111111111111086
 30
0.0
 40
0.8888888888888888
100
AcDbArc
 50
90.0
 51
242.9811799999999948
  0
ARC
  5
10B
100
AcDbEntity
  8
0
 62
256
370
-1
  6
ByLayer
100
AcDbCircle
 10
107.2221998952622073
 20
263.4888888888889369
 30
0.0
 40
0.8888888888888888
100
AcDbArc
 50
270.0
 51
62.9811850000000035
  0
ARC
  5
10C
100
AcDbEntity
  8
0
 62
256
370
-1
  6
ByLayer
100
AcDbCircle
 10
107.2221998952622073
 20
265.5444439999999986
 30
0.0
 40
2.9444444444444442
100
AcDbArc
 50
243.0745799999999974
 51
270.0
  0
LINE
  5
10D
100
AcDbEntity
100
AcDbLine
  8
0
 62
256
370
-1
  6
ByLayer
 10
109.4443778825155817
 20
262.5999995555555415
 30
0.0
 11
109.4443778825155817
 21
266.6000000000000227
 31
0.0
  0
LINE
  5
10E
100
AcDbEntity
100
AcDbLine
  8
0
 62
256
370
-1
  6
ByLayer
 10
109.4443778825155817
 20
266.6000000000000227
 30
0.0
 11
110.5554889936266818
 21
266.6000000000000227
 31
0.0
  0
LINE
  5
10F
100
AcDbEntity
100
AcDbLine
  8
0
 62
256
370
-1
  6
ByLayer
 10
109.4443778825155817
 20
264.8222217777778269
 30
0.0
 11
110.5999778825155744
 21
264.8222217777778269
 31
0.0
  0
LINE
  5
110
100
AcDbEntity
100
AcDbLine
  8
0
 62
256
370
-1
  6
ByLayer
 10
111.6666001047377961
 20
263.7555551111111072
 30
0.0
 11
111.6666001047377961
 21
263.66666577777778
 31
0.0
  0
LINE
  5
111
100
AcDbEntity
100
AcDbLine
  8
0
 62
256
370
-1
  6
ByLayer
 10
110.5999778825155744
 20
262.5999995556265958
 30
0.0
 11
109.4443778825155817
 21
262.5999995555555415
 31
0.0
  0
ARC
  5
112
100
AcDbEntity
  8
0
 62
256
370
-1
  6
ByLayer
100
AcDbCircle
 10
110.5554889936266818
 20
265.7111111111111086
 30
0.0
 40
0.8888888888888888
100
AcDbArc
 50
270.0
 51
90.0
  0
ARC
  5
113
100
AcDbEntity
  8
0
 62
256
370
-1
  6
ByLayer
100
AcDbCircle
 10
110.5999778825155744
 20
263.7555551111111072
 30
0.0
 40
1.0666666666666667
100
AcDbArc
 50
0.0
 51
90.0
  0
ARC
  5
114
100
AcDbEntity
  8
0
 62
256
370
-1
  6
ByLayer
100
AcDbCircle
 10
110.5999778825155744
 20
263.66666577777778
 30
0.0
 40
1.0666666666666667
100
AcDbArc
 50
270.0
 51
0.0
  0
LINE
  5
115
100
AcDbEntity
100
AcDbLine
  8
0
 62
256
370
-1
  6
ByLayer
 10
39.611133444444441
 20
252.7376382467243161
 30
0.0
 11
41.3431841409022098
 21
253.7376384391743613
 31
0.0
  0
LINE
  5
116
100
AcDbEntity
100
AcDbLine
  8
0
 62
256
370
-1
  6
ByLayer
 10
41.3431841409022098
 20
253.7376384391743613
 30
0.0
 11
41.6765174742355455
 21
253.1602881699847671
 31
0.0
  0
LINE
  5
117
100
AcDbEntity
100
AcDbLine
  8
0
 62
256
370
-1
  6
ByLayer
 10
41.5138395169980043
 20
252.5531657683027902
 30
0.0
 11
41.3213892348180494
 21
252.4420545460805556
 31
0.0
  0
LINE
  5
118
100
AcDbEntity
100
AcDbLine
  8
0
 62
256
370
-1
  6
ByLayer
 10
40.7142670255861674
 20
252.6047326144291674
 30
0.0
 11
40.3809336922528317
 21
253.1820828836188184
 31
0.0
  0
LINE
  5
119
100
AcDbEntity
100
AcDbLine
  8
0
 62
256
370
-1
  6
ByLayer
 10
40.7142670255861674
 20
252.6047326144291674
 30
0.0
 11
40.1666886965157275
 21
251.7753878794583215
 31
0.0
  0
ARC
  5
11A
100
AcDbEntity
  8
0
 62
256
370
-1
  6
ByLayer
100
AcDbCircle
 10
41.2916172947757829
 20
252.9380659477625386
 30
0.0
 40
0.4444444444444444
100
AcDbArc
 50
300.0
 51
30.0000000000000178
  0
ARC
  5
11B
100
AcDbEntity
  8
0
 62
256
370
-1
  6
ByLayer
100
AcDbCircle
 10
41.0991670125958208
 20
252.826954725540304
 30
0.0
 40
0.4444444444444444
100
AcDbArc
 50
209.9999999999999716
 51
300.0
  0
LINE
  5
11C
100
AcDbEntity
100
AcDbLine
  8
0
 62
256
370
-1
  6
ByLayer
 10
42.6765063631244317
 20
251.428256607424828
 30
0.0
 11
42.2320730297910956
 21
252.1980377213353677
 31
0.0
  0
LINE
  5
11D
100
AcDbEntity
100
AcDbLine
  8
0
 62
256
370
-1
  6
ByLayer
 10
42.2320730297910956
 20
252.1980377213353677
 30
0.0
 11
40.5000223333333267
 21
251.1980375288853224
 31
0.0
  0
LINE
  5
11E
100
AcDbEntity
100
AcDbLine
  8
0
 62
256
370
-1
  6
ByLayer
 10
40.5000223333333267
 20
251.1980375288853224
 30
0.0
 11
40.9444553632727164
 21
250.428256496410313
 31
0.0
  0
LINE
  5
11F
100
AcDbEntity
100
AcDbLine
  8
0
 62
256
370
-1
  6
ByLayer
 10
41.462272478421518
 20
251.7535931657798756
 30
0.0
 11
41.7955947006437398
 21
251.1762621415991816
 31
0.0
  0
LINE
  5
120
100
AcDbEntity
100
AcDbLine
  8
0
 62
256
370
-1
  6
ByLayer
 10
41.2777889999999914
 20
249.8509061457851885
 30
0.0
 11
43.0098396964577603
 21
250.8509063382352338
 31
0.0
  0
LINE
  5
121
100
AcDbEntity
100
AcDbLine
  8
0
 62
256
370
-1
  6
ByLayer
 10
43.0098396964577603
 20
250.8509063382352338
 30
0.0
 11
41.8333331409640152
 21
248.888675023530368
 31
0.0
  0
LINE
  5
122
100
AcDbEntity
100
AcDbLine
  8
0
 62
256
370
-1
  6
ByLayer
 10
41.8333331409640152
 20
248.888675023530368
 30
0.0
 11
43.5653841409022036
 21
249.8886751345947914
 31
0.0
  0
LINE
  5
123
100
AcDbEntity
100
AcDbLine
  8
0
 62
256
370
-1
  6
ByLayer
 10
42.1666553631054697
 20
248.3113439993030624
 30
0.0
 11
42.4999886965221378
 21
247.7339937301615578
 31
0.0
  0
LINE
  5
124
100
AcDbEntity
100
AcDbLine
  8
0
 62
256
370
-1
  6
ByLayer
 10
43.1071112905708702
 20
247.5713158839870403
 30
0.0
 11
44.069361739220227
 21
248.1268714395425832
 31
0.0
  0
LINE
  5
125
100
AcDbEntity
100
AcDbLine
  8
0
 62
256
370
-1
  6
ByLayer
 10
44.2320396964577611
 20
248.7339938412245601
 30
0.0
 11
43.8987063631244325
 21
249.3113441104141543
 31
0.0
  0
LINE
  5
126
100
AcDbEntity
100
AcDbLine
  8
0
 62
256
370
-1
  6
ByLayer
 10
43.8987063631244325
 20
249.3113441104141543
 30
0.0
 11
42.1666553631054697
 21
248.3113439993030624
 31
0.0
  0
ARC
  5
127
100
AcDbEntity
  8
0
 62
256
370
-1
  6
ByLayer
100
AcDbCircle
 10
42.8848890683486488
 20
247.9562160634467318
 30
0.0
 40
0.4444444444444444
100
AcDbArc
 50
209.9999999999999716
 51
300.0
  0
ARC
  5
128
100
AcDbEntity
  8
0
 62
256
370
-1
  6
ByLayer
100
AcDbCircle
 10
43.8471395169979985
 20
248.5117716190023316
 30
0.0
 40
0.4444444444444444
100
AcDbArc
 50
300.0
 51
30.0000000000000178
  0
LINE
  5
129
100
AcDbEntity
100
AcDbLine
  8
0
 62
256
370
-1
  6
ByLayer
 10
45.2320285853466544
 20
247.0019622786646778
 30
0.0
 11
44.7875952520133183
 21
247.7717433925752175
 31
0.0
  0
LINE
  5
12A
100
AcDbEntity
100
AcDbLine
  8
0
 62
256
370
-1
  6
ByLayer
 10
44.7875952520133183
 20
247.7717433925752175
 30
0.0
 11
43.0555445555555494
 21
246.7717432001251154
 31
0.0
  0
LINE
  5
12B
100
AcDbEntity
100
AcDbLine
  8
0
 62
256
370
-1
  6
ByLayer
 10
43.0555445555555494
 20
246.7717432001251154
 30
0.0
 11
43.4999775854949391
 21
246.001962167650106
 31
0.0
  0
LINE
  5
12C
100
AcDbEntity
100
AcDbLine
  8
0
 62
256
370
-1
  6
ByLayer
 10
44.0177947006437407
 20
247.3272988370196117
 30
0.0
 11
44.3511169228659625
 21
246.7499678128390315
 31
0.0
  0
LINE
  5
12D
100
AcDbEntity
100
AcDbLine
  8
0
 62
256
370
-1
  6
ByLayer
 10
43.8333112222222212
 20
245.4246118170249247
 30
0.0
 11
45.5653619186799901
 21
246.4246120094750268
 31
0.0
  0
LINE
  5
12E
100
AcDbEntity
100
AcDbLine
  8
0
 62
256
370
-1
  6
ByLayer
 10
45.5653619186799901
 20
246.4246120094750268
 30
0.0
 11
45.8986952520133258
 21
245.8472617402853757
 31
0.0
  0
LINE
  5
12F
100
AcDbEntity
100
AcDbLine
  8
0
 62
256
370
-1
  6
ByLayer
 10
45.7360172947757846
 20
245.2401393386033988
 30
0.0
 11
45.5435670125958296
 21
245.1290281163811642
 31
0.0
  0
LINE
  5
130
100
AcDbEntity
100
AcDbLine
  8
0
 62
256
370
-1
  6
ByLayer
 10
44.9364448033639476
 20
245.2917061847298328
 30
0.0
 11
44.6031114700306119
 21
245.8690564539194838
 31
0.0
  0
LINE
  5
131
100
AcDbEntity
100
AcDbLine
  8
0
 62
256
370
-1
  6
ByLayer
 10
44.9364448033639476
 20
245.2917061847298328
 30
0.0
 11
44.3888664742935077
 21
244.462361449758987
 31
0.0
  0
ARC
  5
132
100
AcDbEntity
  8
0
 62
256
370
-1
  6
ByLayer
100
AcDbCircle
 10
45.5137950725535632
 20
245.625039518063204
 30
0.0
 40
0.4444444444444444
100
AcDbArc
 50
300.0
 51
30.0000000000000178
  0
ARC
  5
133
100
AcDbEntity
  8
0
 62
256
370
-1
  6
ByLayer
100
AcDbCircle
 10
45.3213447903736011
 20
245.5139282958409694
 30
0.0
 40
0.4444444444444444
100
AcDbArc
 50
209.9999999999999716
 51
300.0
  0
LINE
  5
134
100
AcDbEntity
100
AcDbLine
  8
0
 62
256
370
-1
  6
ByLayer
 10
46.4626890683486522
 20
247.4731285604574964
 30
0.0
 11
47.4249395169980019
 21
248.0286841160130393
 31
0.0
  0
LINE
  5
135
100
AcDbEntity
100
AcDbLine
  8
0
 62
256
370
-1
  6
ByLayer
 10
48.032061918679986
 20
247.8660061587755195
 30
0.0
 11
48.1431619186799864
 21
247.6735753140546308
 31
0.0
  0
LINE
  5
136
100
AcDbEntity
100
AcDbLine
  8
0
 62
256
370
-1
  6
ByLayer
 10
47.9804839614424452
 20
247.066452912372597
 30
0.0
 11
47.0182335127930955
 21
246.5108973568170541
 31
0.0
  0
LINE
  5
137
100
AcDbEntity
100
AcDbLine
  8
0
 62
256
370
-1
  6
ByLayer
 10
46.4111109187443631
 20
246.6735752029916284
 30
0.0
 11
46.3000109186524682
 21
246.8660060476594822
 31
0.0
  0
ARC
  5
138
100
AcDbEntity
  8
0
 62
256
370
-1
  6
ByLayer
100
AcDbCircle
 10
47.6471617392202234
 20
247.6437839365532909
 30
0.0
 40
0.4444444444444444
100
AcDbArc
 50
30.0000000000000178
 51
120.0000000000000711
  0
ARC
  5
139
100
AcDbEntity
  8
0
 62
256
370
-1
  6
ByLayer
100
AcDbCircle
 10
47.7582617392202238
 20
247.4513530918324022
 30
0.0
 40
0.4444444444444444
100
AcDbArc
 50
300.0
 51
30.0000000000000178
  0
ARC
  5
13A
100
AcDbEntity
  8
0
 62
256
370
-1
  6
ByLayer
100
AcDbCircle
 10
46.7960112905708741
 20
246.8957975362768593
 30
0.0
 40
0.4444444444444444
100
AcDbArc
 50
209.9999999999999716
 51
300.0
  0
ARC
  5
13B
100
AcDbEntity
  8
0
 62
256
370
-1
  6
ByLayer
100
AcDbCircle
 10
46.6849112905708736
 20
247.088228380997748
 30
0.0
 40
0.4444444444444444
100
AcDbArc
 50
120.0000000000000711
 51
209.9999999999999716
  0
LINE
  5
13C
100
AcDbEntity
100
AcDbLine
  8
0
 62
256
370
-1
  6
ByLayer
 10
46.9666667777777747
 20
245.7113246729551292
 30
0.0
 11
48.6987174742355435
 21
246.7113248654052313
 31
0.0
  0
LINE
  5
13D
100
AcDbEntity
100
AcDbLine
  8
0
 62
256
370
-1
  6
ByLayer
 10
48.6987174742355435
 20
246.7113248654052313
 30
0.0
 11
47.5222109187417985
 21
244.7490935507003655
 31
0.0
  0
LINE
  5
13E
100
AcDbEntity
100
AcDbLine
  8
0
 62
256
370
-1
  6
ByLayer
 10
47.5222109187417985
 20
244.7490935507003655
 30
0.0
 11
49.2542619186799868
 21
245.7490936617648458
 31
0.0
  0
LINE
  5
13F
100
AcDbEntity
100
AcDbLine
  8
0
 62
256
370
-1
  6
ByLayer
 10
46.2144376963355299
 20
254.9583339026515318
 30
0.0
 11
46.2509346055481316
 21
254.2566398460204482
 31
0.0
  0
ARC
  5
140
100
AcDbEntity
  8
0
 62
256
370
-1
  6
ByLayer
100
AcDbCircle
 10
45.7681909176020056
 20
254.4675719961319373
 30
0.0
 40
1.4722222222222221
100
AcDbArc
 50
3.0745840000000215
 51
30.0000000000000178
  0
ARC
  5
141
100
AcDbEntity
  8
0
 62
256
370
-1
  6
ByLayer
100
AcDbCircle
 10
46.6582727750527511
 20
254.9814609961318865
 30
0.0
 40
0.4444444444444444
100
AcDbArc
 50
30.0000000000000178
 51
182.9811799999999948
  0
ARC
  5
142
100
AcDbEntity
  8
0
 62
256
370
-1
  6
ByLayer
100
AcDbCircle
 10
45.8071334375145085
 20
254.2334553508464978
 30
0.0
 40
0.4444444444444444
100
AcDbArc
 50
209.9999999999999716
 51
2.9811849999999964
  0
ARC
  5
143
100
AcDbEntity
  8
0
 62
256
370
-1
  6
ByLayer
100
AcDbCircle
 10
46.6972149100650711
 20
254.7473441286242632
 30
0.0
 40
1.4722222222222221
100
AcDbArc
 50
183.0745800000000543
 51
209.9999999999999716
  0
LINE
  5
144
100
AcDbEntity
100
AcDbLine
  8
0
 62
256
370
-1
  6
ByLayer
 10
47.709828562436968
 20
254.0490018342782719
 30
0.0
 11
48.3765174513258529
 21
252.8942628058811124
 31
0.0
  0
LINE
  5
145
100
AcDbEntity
100
AcDbLine
  8
0
 62
256
370
-1
  6
ByLayer
 10
48.0431618957702966
 20
253.4716515650886777
 30
0.0
 11
46.3111108958346733
 21
252.4716514540256753
 31
0.0
  0
LINE
  5
146
100
AcDbEntity
100
AcDbLine
  8
0
 62
256
370
-1
  6
ByLayer
 10
46.977788673529119
 20
251.3169316705893266
 30
0.0
 11
49.0431618957703037
 21
251.7396007575197814
 31
0.0
  0
LINE
  5
147
100
AcDbEntity
100
AcDbLine
  8
0
 62
256
370
-1
  6
ByLayer
 10
49.0431618957703037
 20
251.7396007575197814
 30
0.0
 11
47.6444775632627753
 21
250.1621926426798836
 31
0.0
  0
LINE
  5
148
100
AcDbEntity
100
AcDbLine
  8
0
 62
256
370
-1
  6
ByLayer
 10
47.5515140903038827
 20
251.4343216546973281
 30
0.0
 11
48.032991868081659
 21
250.6003776808708494
 31
0.0
  0
LINE
  5
149
100
AcDbEntity
100
AcDbLine
  8
0
 62
256
370
-1
  6
ByLayer
 10
47.9778111993125336
 20
249.5848422916635627
 30
0.0
 11
49.7098618957703025
 21
250.5848424841136648
 31
0.0
  0
LINE
  5
14A
100
AcDbEntity
100
AcDbLine
  8
0
 62
256
370
-1
  6
ByLayer
 10
49.7098618957703025
 20
250.5848424841136648
 30
0.0
 11
48.5333553402765574
 21
248.6226111694087422
 31
0.0
  0
LINE
  5
14B
100
AcDbEntity
100
AcDbLine
  8
0
 62
256
370
-1
  6
ByLayer
 10
48.5333553402765574
 20
248.6226111694087422
 30
0.0
 11
50.2654063402147457
 21
249.6226112804732225
 31
0.0
  0
LINE
  5
14C
100
AcDbEntity
100
AcDbLine
  8
0
 62
256
370
-1
  6
ByLayer
 10
48.8666775624180048
 20
248.0452801451814366
 30
0.0
 11
49.2000108958346729
 21
247.4679298760399888
 31
0.0
  0
LINE
  5
14D
100
AcDbEntity
100
AcDbLine
  8
0
 62
256
370
-1
  6
ByLayer
 10
49.8071334898834053
 20
247.3052520298654144
 30
0.0
 11
50.769383938532755
 21
247.8608075854209574
 31
0.0
  0
LINE
  5
14E
100
AcDbEntity
100
AcDbLine
  8
0
 62
256
370
-1
  6
ByLayer
 10
50.9320618957702962
 20
248.4679299871029343
 30
0.0
 11
50.5987285624369676
 21
249.0452802562925854
 31
0.0
  0
LINE
  5
14F
100
AcDbEntity
100
AcDbLine
  8
0
 62
256
370
-1
  6
ByLayer
 10
50.5987285624369676
 20
249.0452802562925854
 30
0.0
 11
48.8666775624180048
 21
248.0452801451814366
 31
0.0
  0
ARC
  5
150
100
AcDbEntity
  8
0
 62
256
370
-1
  6
ByLayer
100
AcDbCircle
 10
49.5849112676611838
 20
247.6901522093251629
 30
0.0
 40
0.4444444444444444
100
AcDbArc
 50
209.9999999999999716
 51
300.0
  0
ARC
  5
151
100
AcDbEntity
  8
0
 62
256
370
-1
  6
ByLayer
100
AcDbCircle
 10
50.5471617163105336
 20
248.2457077648807626
 30
0.0
 40
0.4444444444444444
100
AcDbArc
 50
300.0
 51
30.0000000000000178
  0
LINE
  5
152
100
AcDbEntity
100
AcDbLine
  8
0
 62
256
370
-1
  6
ByLayer
 10
49.7555553401957837
 20
246.5056986723514001
 30
0.0
 11
51.4876063402147466
 21
247.5056987834625488
 31
0.0
  0
LINE
  5
153
100
AcDbEntity
100
AcDbLine
  8
0
 62
256
370
-1
  6
ByLayer
 10
51.4876063402147466
 20
247.5056987834625488
 30
0.0
 11
51.765384117992518
 21
247.0245735591378207
 31
0.0
  0
LINE
  5
154
100
AcDbEntity
100
AcDbLine
  8
0
 62
256
370
-1
  6
ByLayer
 10
50.717805788845169
 20
247.0612542279069999
 30
0.0
 11
51.0067057888451671
 21
246.5608647496003414
 31
0.0
  0
LINE
  5
155
100
AcDbEntity
100
AcDbLine
  8
0
 62
256
370
-1
  6
ByLayer
 10
50.8114811290489996
 20
245.8323371125909489
 30
0.0
 11
50.7729909186529369
 21
245.8101147792575603
 31
0.0
  0
LINE
  5
156
100
AcDbEntity
100
AcDbLine
  8
0
 62
256
370
-1
  6
ByLayer
 10
50.0444553402265413
 20
246.0053091940625336
 30
0.0
 11
49.7555553401957837
 21
246.5056986723514001
 31
0.0
  0
ARC
  5
157
100
AcDbEntity
  8
0
 62
256
370
-1
  6
ByLayer
100
AcDbCircle
 10
51.3804839385327554
 20
246.802351336915649
 30
0.0
 40
0.4444444444444444
100
AcDbArc
 50
209.9999999999999716
 51
30.0000000000000178
  0
ARC
  5
158
100
AcDbEntity
  8
0
 62
256
370
-1
  6
ByLayer
100
AcDbCircle
 10
50.5448255734934406
 20
246.2941980829336899
 30
0.0
 40
0.5333333333333333
100
AcDbArc
 50
300.0
 51
30.0000000000000178
  0
ARC
  5
159
100
AcDbEntity
  8
0
 62
256
370
-1
  6
ByLayer
100
AcDbCircle
 10
50.5063353630973779
 20
246.2719757496003012
 30
0.0
 40
0.5333333333333333
100
AcDbArc
 50
209.9999999999999716
 51
300.0
  0
LINE
  5
15A
100
AcDbEntity
100
AcDbLine
  8
0
 62
256
370
-1
  6
ByLayer
 10
52.3765063402147462
 20
245.966078820614598
 30
0.0
 11
51.9400391221785043
 21
244.944283995869398
 31
0.0
  0
LINE
  5
15B
100
AcDbEntity
100
AcDbLine
  8
0
 62
256
370
-1
  6
ByLayer
 10
51.9400391221785043
 20
244.944283995869398
 30
0.0
 11
50.9777886734137624
 21
244.3887284402472346
 31
0.0
  0
LINE
  5
15C
100
AcDbEntity
100
AcDbLine
  8
0
 62
256
370
-1
  6
ByLayer
 10
51.9400391221785043
 20
244.944283995869398
 30
0.0
 11
53.0431730068814176
 21
244.811378282235296
 31
0.0
  0
LINE
  5
15D
100
AcDbEntity
100
AcDbLine
  8
0
 62
256
370
-1
  6
ByLayer
 10
5.0
 20
238.6000000000000227
 30
0.0
 11
5.0
 21
275.1999999999999886
 31
0.0
  0
LINE
  5
15E
100
AcDbEntity
100
AcDbLine
  8
0
 62
256
370
-1
  6
ByLayer
 10
136.0000000000000284
 20
238.6000000000000796
 30
0.0
 11
136.0
 21
275.1999999999999886
 31
0.0
  0
LINE
  5
15F
100
AcDbEntity
100
AcDbLine
  8
0
 62
256
370
-1
  6
ByLayer
 10
288.1999999999999886
 20
275.1999999999999886
 30
0.0
 11
288.2000000000000455
 21
238.6000000000001364
 31
0.0
  0
LINE
  5
160
100
AcDbEntity
100
AcDbLine
  8
0
 62
256
370
-1
  6
ByLayer
 10
60.0
 20
278.1999999999999318
 30
0.0
 11
81.0
 21
278.1999999999997613
 31
0.0
  0
LINE
  5
161
100
AcDbEntity
100
AcDbLine
  8
0
 62
256
370
-1
  6
ByLayer
 10
81.0
 20
278.1999999999997613
 30
0.0
 11
81.0
 21
275.1999999999999886
 31
0.0
  0
LINE
  5
162
100
AcDbEntity
100
AcDbLine
  8
0
 62
256
370
-1
  6
ByLayer
 10
60.0
 20
278.1999999999999318
 30
0.0
 11
60.0
 21
275.1999999999999886
 31
0.0
  0
LINE
  5
163
100
AcDbEntity
100
AcDbLine
  8
0
 62
256
370
-1
  6
ByLayer
 10
126.0
 20
275.1999999999999886
 30
0.0
 11
126.0
 21
278.1999999999999886
 31
0.0
  0
LINE
  5
164
100
AcDbEntity
100
AcDbLine
  8
0
 62
256
370
-1
  6
ByLayer
 10
126.0
 20
278.1999999999999886
 30
0.0
 11
114.0
 21
278.2000000000001023
 31
0.0
  0
LINE
  5
165
100
AcDbEntity
100
AcDbLine
  8
0
 62
256
370
-1
  6
ByLayer
 10
114.0
 20
278.2000000000001023
 30
0.0
 11
114.0
 21
275.1999999999999886
 31
0.0
  0
LINE
  5
166
100
AcDbEntity
100
AcDbLine
  8
0
 62
256
370
-1
  6
ByLayer
 10
114.0
 20
275.1999999999999886
 30
0.0
 11
81.0
 21
275.1999999999999886
 31
0.0
  0
LINE
  5
167
100
AcDbEntity
100
AcDbLine
  8
0
 62
256
370
-1
  6
ByLayer
 10
126.0
 20
275.1999999999999886
 30
0.0
 11
136.0
 21
275.1999999999999886
 31
0.0
  0
LINE
  5
168
100
AcDbEntity
100
AcDbLine
  8
0
 62
256
370
-1
  6
ByLayer
 10
15.0
 20
278.1999999999999886
 30
0.0
 11
27.0
 21
278.1999999999999886
 31
0.0
  0
LINE
  5
169
100
AcDbEntity
100
AcDbLine
  8
0
 62
256
370
-1
  6
ByLayer
 10
27.0
 20
278.1999999999999886
 30
0.0
 11
27.0
 21
275.1999999999999886
 31
0.0
  0
LINE
  5
16A
100
AcDbEntity
100
AcDbLine
  8
0
 62
256
370
-1
  6
ByLayer
 10
15.0
 20
278.1999999999999886
 30
0.0
 11
15.0
 21
275.1999999999999886
 31
0.0
  0
LINE
  5
16B
100
AcDbEntity
100
AcDbLine
  8
0
 62
256
370
-1
  6
ByLayer
 10
27.0
 20
275.1999999999999886
 30
0.0
 11
60.0
 21
275.1999999999999886
 31
0.0
  0
LINE
  5
16C
100
AcDbEntity
100
AcDbLine
  8
0
 62
256
370
-1
  6
ByLayer
 10
5.0000000000000018
 20
275.1999999999999886
 30
0.0
 11
15.0
 21
275.1999999999999886
 31
0.0
  0
LINE
  5
16D
100
AcDbEntity
100
AcDbLine
  8
0
 62
256
370
-1
  6
ByLayer
 10
81.0
 20
235.5999999999999659
 30
0.0
 11
81.0
 21
238.5999999999999659
 31
0.0
  0
LINE
  5
16E
100
AcDbEntity
100
AcDbLine
  8
0
 62
256
370
-1
  6
ByLayer
 10
60.0
 20
235.5999999999999659
 30
0.0
 11
60.0
 21
238.5999999999999659
 31
0.0
  0
LINE
  5
16F
100
AcDbEntity
100
AcDbLine
  8
0
 62
256
370
-1
  6
ByLayer
 10
126.0
 20
238.5999999999999659
 30
0.0
 11
126.0
 21
235.5999999999999659
 31
0.0
  0
LINE
  5
170
100
AcDbEntity
100
AcDbLine
  8
0
 62
256
370
-1
  6
ByLayer
 10
126.0
 20
235.5999999999999659
 30
0.0
 11
114.0
 21
235.5999999999999659
 31
0.0
  0
LINE
  5
171
100
AcDbEntity
100
AcDbLine
  8
0
 62
256
370
-1
  6
ByLayer
 10
114.0
 20
235.5999999999999659
 30
0.0
 11
114.0
 21
238.5999999999999659
 31
0.0
  0
LINE
  5
172
100
AcDbEntity
100
AcDbLine
  8
0
 62
256
370
-1
  6
ByLayer
 10
114.0
 20
238.5999999999999659
 30
0.0
 11
81.0
 21
238.5999999999999659
 31
0.0
  0
LINE
  5
173
100
AcDbEntity
100
AcDbLine
  8
0
 62
256
370
-1
  6
ByLayer
 10
126.0
 20
238.5999999999999659
 30
0.0
 11
136.0
 21
238.5999999999999659
 31
0.0
  0
LINE
  5
174
100
AcDbEntity
100
AcDbLine
  8
0
 62
256
370
-1
  6
ByLayer
 10
15.0
 20
235.5999999999999659
 30
0.0
 11
27.0
 21
235.5999999999999659
 31
0.0
  0
LINE
  5
175
100
AcDbEntity
100
AcDbLine
  8
0
 62
256
370
-1
  6
ByLayer
 10
27.0
 20
235.5999999999999659
 30
0.0
 11
27.0
 21
238.5999999999999659
 31
0.0
  0
LINE
  5
176
100
AcDbEntity
100
AcDbLine
  8
0
 62
256
370
-1
  6
ByLayer
 10
15.0
 20
235.5999999999999659
 30
0.0
 11
15.0
 21
238.5999999999999659
 31
0.0
  0
LINE
  5
177
100
AcDbEntity
100
AcDbLine
  8
0
 62
256
370
-1
  6
ByLayer
 10
27.0
 20
238.5999999999999659
 30
0.0
 11
60.0
 21
238.5999999999999659
 31
0.0
  0
LINE
  5
178
100
AcDbEntity
100
AcDbLine
  8
0
 62
256
370
-1
  6
ByLayer
 10
5.0000000000000018
 20
238.5999999999999659
 30
0.0
 11
15.0
 21
238.5999999999999659
 31
0.0
  0
LINE
  5
179
100
AcDbEntity
100
AcDbLine
  8
0
 62
256
370
-1
  6
ByLayer
 10
60.0
 20
235.5999999999999091
 30
0.0
 11
81.0
 21
235.5999999999997385
 31
0.0
  0
LINE
  5
17A
100
AcDbEntity
100
AcDbLine
  8
0
 62
256
370
-1
  6
ByLayer
 10
81.0
 20
235.5999999999997385
 30
0.0
 11
81.0
 21
232.5999999999999659
 31
0.0
  0
LINE
  5
17B
100
AcDbEntity
100
AcDbLine
  8
0
 62
256
370
-1
  6
ByLayer
 10
60.0
 20
235.5999999999999091
 30
0.0
 11
60.0
 21
232.5999999999999659
 31
0.0
  0
LINE
  5
17C
100
AcDbEntity
100
AcDbLine
  8
0
 62
256
370
-1
  6
ByLayer
 10
126.0
 20
232.5999999999999659
 30
0.0
 11
126.0
 21
235.5999999999999659
 31
0.0
  0
LINE
  5
17D
100
AcDbEntity
100
AcDbLine
  8
0
 62
256
370
-1
  6
ByLayer
 10
114.0
 20
235.6000000000000796
 30
0.0
 11
114.0
 21
232.5999999999999659
 31
0.0
  0
LINE
  5
17E
100
AcDbEntity
100
AcDbLine
  8
0
 62
256
370
-1
  6
ByLayer
 10
114.0
 20
232.5999999999999659
 30
0.0
 11
81.0
 21
232.5999999999999659
 31
0.0
  0
LINE
  5
17F
100
AcDbEntity
100
AcDbLine
  8
0
 62
256
370
-1
  6
ByLayer
 10
126.0
 20
232.5999999999999659
 30
0.0
 11
136.0
 21
232.5999999999999659
 31
0.0
  0
LINE
  5
180
100
AcDbEntity
100
AcDbLine
  8
0
 62
256
370
-1
  6
ByLayer
 10
27.0
 20
235.5999999999999659
 30
0.0
 11
27.0
 21
232.5999999999999659
 31
0.0
  0
LINE
  5
181
100
AcDbEntity
100
AcDbLine
  8
0
 62
256
370
-1
  6
ByLayer
 10
15.0
 20
235.5999999999999659
 30
0.0
 11
15.0
 21
232.5999999999999659
 31
0.0
  0
LINE
  5
182
100
AcDbEntity
100
AcDbLine
  8
0
 62
256
370
-1
  6
ByLayer
 10
27.0
 20
232.5999999999999659
 30
0.0
 11
60.0
 21
232.5999999999999659
 31
0.0
  0
LINE
  5
183
100
AcDbEntity
100
AcDbLine
  8
0
 62
256
370
-1
  6
ByLayer
 10
5.0000000000000036
 20
232.5999999999999659
 30
0.0
 11
15.0
 21
232.5999999999999659
 31
0.0
  0
LINE
  5
184
100
AcDbEntity
100
AcDbLine
  8
0
 62
256
370
-1
  6
ByLayer
 10
202.1000000000000227
 20
193.0
 30
0.0
 11
202.1000000000000227
 21
196.0
 31
0.0
  0
LINE
  5
185
100
AcDbEntity
100
AcDbLine
  8
0
 62
256
370
-1
  6
ByLayer
 10
202.1000000000000227
 20
193.0
 30
0.0
 11
222.1000000000000227
 21
193.0
 31
0.0
  0
LINE
  5
186
100
AcDbEntity
100
AcDbLine
  8
0
 62
256
370
-1
  6
ByLayer
 10
222.1000000000000227
 20
193.0
 30
0.0
 11
222.1000000000000227
 21
196.0
 31
0.0
  0
LINE
  5
187
100
AcDbEntity
100
AcDbLine
  8
0
 62
256
370
-1
  6
ByLayer
 10
136.0
 20
196.0
 30
0.0
 11
146.0
 21
196.0
 31
0.0
  0
LINE
  5
188
100
AcDbEntity
100
AcDbLine
  8
0
 62
256
370
-1
  6
ByLayer
 10
146.0
 20
196.0
 30
0.0
 11
146.0
 21
193.0
 31
0.0
  0
LINE
  5
189
100
AcDbEntity
100
AcDbLine
  8
0
 62
256
370
-1
  6
ByLayer
 10
146.0
 20
193.0
 30
0.0
 11
158.0
 21
193.0
 31
0.0
  0
LINE
  5
18A
100
AcDbEntity
100
AcDbLine
  8
0
 62
256
370
-1
  6
ByLayer
 10
158.0
 20
193.0
 30
0.0
 11
158.0
 21
196.0
 31
0.0
  0
LINE
  5
18B
100
AcDbEntity
100
AcDbLine
  8
0
 62
256
370
-1
  6
ByLayer
 10
158.0
 20
196.0
 30
0.0
 11
202.0
 21
196.0
 31
0.0
  0
LINE
  5
18C
100
AcDbEntity
100
AcDbLine
  8
0
 62
256
370
-1
  6
ByLayer
 10
266.1999999999999886
 20
196.0
 30
0.0
 11
222.0999999999999943
 21
196.0
 31
0.0
  0
LINE
  5
18D
100
AcDbEntity
100
AcDbLine
  8
0
 62
256
370
-1
  6
ByLayer
 10
266.1999999999999886
 20
196.0
 30
0.0
 11
266.1999999999999886
 21
193.0
 31
0.0
  0
LINE
  5
18E
100
AcDbEntity
100
AcDbLine
  8
0
 62
256
370
-1
  6
ByLayer
 10
266.1999999999999886
 20
193.0
 30
0.0
 11
278.1999999999999886
 21
193.0
 31
0.0
  0
LINE
  5
18F
100
AcDbEntity
100
AcDbLine
  8
0
 62
256
370
-1
  6
ByLayer
 10
278.1999999999999886
 20
193.0
 30
0.0
 11
278.1999999999999886
 21
196.0
 31
0.0
  0
LINE
  5
190
100
AcDbEntity
100
AcDbLine
  8
0
 62
256
370
-1
  6
ByLayer
 10
278.1999999999999886
 20
196.0
 30
0.0
 11
288.1999999999999886
 21
196.0
 31
0.0
  0
LINE
  5
191
100
AcDbEntity
100
AcDbLine
  8
0
 62
256
370
-1
  6
ByLayer
 10
202.1000000000000512
 20
235.6000000000000227
 30
0.0
 11
202.1000000000000512
 21
238.6000000000000227
 31
0.0
  0
LINE
  5
192
100
AcDbEntity
100
AcDbLine
  8
0
 62
256
370
-1
  6
ByLayer
 10
222.1000000000000512
 20
235.6000000000000227
 30
0.0
 11
222.1000000000000512
 21
238.6000000000000227
 31
0.0
  0
LINE
  5
193
100
AcDbEntity
100
AcDbLine
  8
0
 62
256
370
-1
  6
ByLayer
 10
136.0000000000000284
 20
238.6000000000000227
 30
0.0
 11
146.0000000000000284
 21
238.6000000000000227
 31
0.0
  0
LINE
  5
194
100
AcDbEntity
100
AcDbLine
  8
0
 62
256
370
-1
  6
ByLayer
 10
146.0000000000000284
 20
238.6000000000000227
 30
0.0
 11
146.0000000000000284
 21
235.6000000000000227
 31
0.0
  0
LINE
  5
195
100
AcDbEntity
100
AcDbLine
  8
0
 62
256
370
-1
  6
ByLayer
 10
158.0000000000000284
 20
235.6000000000000227
 30
0.0
 11
158.0000000000000284
 21
238.6000000000000227
 31
0.0
  0
LINE
  5
196
100
AcDbEntity
100
AcDbLine
  8
0
 62
256
370
-1
  6
ByLayer
 10
158.0000000000000284
 20
238.6000000000000227
 30
0.0
 11
202.0000000000000284
 21
238.6000000000000227
 31
0.0
  0
LINE
  5
197
100
AcDbEntity
100
AcDbLine
  8
0
 62
256
370
-1
  6
ByLayer
 10
266.2000000000000455
 20
238.6000000000000227
 30
0.0
 11
222.1000000000000227
 21
238.6000000000000227
 31
0.0
  0
LINE
  5
198
100
AcDbEntity
100
AcDbLine
  8
0
 62
256
370
-1
  6
ByLayer
 10
266.2000000000000455
 20
238.6000000000000227
 30
0.0
 11
266.2000000000000455
 21
235.6000000000000227
 31
0.0
  0
LINE
  5
199
100
AcDbEntity
100
AcDbLine
  8
0
 62
256
370
-1
  6
ByLayer
 10
278.2000000000000455
 20
235.6000000000000227
 30
0.0
 11
278.2000000000000455
 21
238.6000000000000227
 31
0.0
  0
LINE
  5
19A
100
AcDbEntity
100
AcDbLine
  8
0
 62
256
370
-1
  6
ByLayer
 10
278.2000000000000455
 20
238.6000000000000227
 30
0.0
 11
288.2000000000000455
 21
238.6000000000000227
 31
0.0
  0
LINE
  5
19B
100
AcDbEntity
100
AcDbLine
  8
0
 62
256
370
-1
  6
ByLayer
 10
202.1000000000000512
 20
278.1999999999999318
 30
0.0
 11
202.1000000000000512
 21
275.1999999999999886
 31
0.0
  0
LINE
  5
19C
100
AcDbEntity
100
AcDbLine
  8
0
 62
256
370
-1
  6
ByLayer
 10
202.1000000000000512
 20
278.1999999999999318
 30
0.0
 11
222.1000000000000512
 21
278.200000000000216
 31
0.0
  0
LINE
  5
19D
100
AcDbEntity
100
AcDbLine
  8
0
 62
256
370
-1
  6
ByLayer
 10
222.1000000000000512
 20
278.200000000000216
 30
0.0
 11
222.1000000000000512
 21
275.1999999999999886
 31
0.0
  0
LINE
  5
19E
100
AcDbEntity
100
AcDbLine
  8
0
 62
256
370
-1
  6
ByLayer
 10
136.0000000000000284
 20
275.2000000000000455
 30
0.0
 11
146.0000000000000284
 21
275.1999999999999886
 31
0.0
  0
LINE
  5
19F
100
AcDbEntity
100
AcDbLine
  8
0
 62
256
370
-1
  6
ByLayer
 10
146.0000000000000284
 20
275.1999999999999886
 30
0.0
 11
146.0000000000000284
 21
278.1999999999999318
 31
0.0
  0
LINE
  5
1A0
100
AcDbEntity
100
AcDbLine
  8
0
 62
256
370
-1
  6
ByLayer
 10
146.0000000000000284
 20
278.1999999999999318
 30
0.0
 11
158.0000000000000284
 21
278.1999999999999318
 31
0.0
  0
LINE
  5
1A1
100
AcDbEntity
100
AcDbLine
  8
0
 62
256
370
-1
  6
ByLayer
 10
158.0000000000000284
 20
278.1999999999999318
 30
0.0
 11
158.0000000000000284
 21
275.1999999999999886
 31
0.0
  0
LINE
  5
1A2
100
AcDbEntity
100
AcDbLine
  8
0
 62
256
370
-1
  6
ByLayer
 10
158.0000000000000284
 20
275.1999999999999886
 30
0.0
 11
202.0000000000000284
 21
275.1999999999999886
 31
0.0
  0
LINE
  5
1A3
100
AcDbEntity
100
AcDbLine
  8
0
 62
256
370
-1
  6
ByLayer
 10
266.2000000000000455
 20
275.1999999999999886
 30
0.0
 11
222.1000000000000227
 21
275.1999999999999886
 31
0.0
  0
LINE
  5
1A4
100
AcDbEntity
100
AcDbLine
  8
0
 62
256
370
-1
  6
ByLayer
 10
266.2000000000000455
 20
275.1999999999999886
 30
0.0
 11
266.2000000000000455
 21
278.1999999999998181
 31
0.0
  0
LINE
  5
1A5
100
AcDbEntity
100
AcDbLine
  8
0
 62
256
370
-1
  6
ByLayer
 10
266.2000000000000455
 20
278.1999999999998181
 30
0.0
 11
278.2000000000000455
 21
278.2000000000006708
 31
0.0
  0
LINE
  5
1A6
100
AcDbEntity
100
AcDbLine
  8
0
 62
256
370
-1
  6
ByLayer
 10
278.2000000000000455
 20
278.2000000000006708
 30
0.0
 11
278.2000000000000455
 21
275.1999999999999886
 31
0.0
  0
LINE
  5
1A7
100
AcDbEntity
100
AcDbLine
  8
0
 62
256
370
-1
  6
ByLayer
 10
278.2000000000000455
 20
275.1999999999999886
 30
0.0
 11
288.2000000000000455
 21
275.2000000000000455
 31
0.0
  0
LINE
  5
1A8
100
AcDbEntity
100
AcDbLine
  8
0
 62
256
370
-1
  6
ByLayer
 10
202.1000000000000512
 20
235.5999999999999091
 30
0.0
 11
202.1000000000000512
 21
232.5999999999999659
 31
0.0
  0
LINE
  5
1A9
100
AcDbEntity
100
AcDbLine
  8
0
 62
256
370
-1
  6
ByLayer
 10
202.1000000000000512
 20
235.5999999999999091
 30
0.0
 11
222.1000000000000512
 21
235.6000000000001933
 31
0.0
  0
LINE
  5
1AA
100
AcDbEntity
100
AcDbLine
  8
0
 62
256
370
-1
  6
ByLayer
 10
222.1000000000000512
 20
235.6000000000001933
 30
0.0
 11
222.1000000000000512
 21
232.5999999999999659
 31
0.0
  0
LINE
  5
1AB
100
AcDbEntity
100
AcDbLine
  8
0
 62
256
370
-1
  6
ByLayer
 10
136.0000000000000284
 20
232.6000000000000227
 30
0.0
 11
146.0000000000000284
 21
232.5999999999999659
 31
0.0
  0
LINE
  5
1AC
100
AcDbEntity
100
AcDbLine
  8
0
 62
256
370
-1
  6
ByLayer
 10
146.0000000000000284
 20
232.5999999999999659
 30
0.0
 11
146.0000000000000284
 21
235.5999999999999091
 31
0.0
  0
LINE
  5
1AD
100
AcDbEntity
100
AcDbLine
  8
0
 62
256
370
-1
  6
ByLayer
 10
146.0000000000000284
 20
235.5999999999999091
 30
0.0
 11
158.0000000000000284
 21
235.5999999999999091
 31
0.0
  0
LINE
  5
1AE
100
AcDbEntity
100
AcDbLine
  8
0
 62
256
370
-1
  6
ByLayer
 10
158.0000000000000284
 20
235.5999999999999091
 30
0.0
 11
158.0000000000000284
 21
232.5999999999999659
 31
0.0
  0
LINE
  5
1AF
100
AcDbEntity
100
AcDbLine
  8
0
 62
256
370
-1
  6
ByLayer
 10
158.0000000000000284
 20
232.5999999999999659
 30
0.0
 11
202.0000000000000284
 21
232.5999999999999659
 31
0.0
  0
LINE
  5
1B0
100
AcDbEntity
100
AcDbLine
  8
0
 62
256
370
-1
  6
ByLayer
 10
266.2000000000000455
 20
232.5999999999999659
 30
0.0
 11
222.1000000000000227
 21
232.5999999999999659
 31
0.0
  0
LINE
  5
1B1
100
AcDbEntity
100
AcDbLine
  8
0
 62
256
370
-1
  6
ByLayer
 10
266.2000000000000455
 20
232.5999999999999659
 30
0.0
 11
266.2000000000000455
 21
235.5999999999997954
 31
0.0
  0
LINE
  5
1B2
100
AcDbEntity
100
AcDbLine
  8
0
 62
256
370
-1
  6
ByLayer
 10
266.2000000000000455
 20
235.5999999999997954
 30
0.0
 11
278.2000000000000455
 21
235.600000000000648
 31
0.0
  0
LINE
  5
1B3
100
AcDbEntity
100
AcDbLine
  8
0
 62
256
370
-1
  6
ByLayer
 10
278.2000000000000455
 20
235.600000000000648
 30
0.0
 11
278.2000000000000455
 21
232.5999999999999659
 31
0.0
  0
LINE
  5
1B4
100
AcDbEntity
100
AcDbLine
  8
0
 62
256
370
-1
  6
ByLayer
 10
278.2000000000000455
 20
232.5999999999999659
 30
0.0
 11
288.2000000000000455
 21
232.6000000000000227
 31
0.0
  0
LINE
  5
1B5
100
AcDbEntity
100
AcDbLine
  8
0
 62
256
370
-1
  6
ByLayer
 10
290.0
 20
192.0
 30
0.0
 11
155.0
 21
192.0
 31
0.0
  0
LINE
  5
1B6
100
AcDbEntity
100
AcDbLine
  8
0
 62
256
370
-1
  6
ByLayer
 10
145.0
 20
192.0
 30
0.0
 11
10.0
 21
192.0
 31
0.0
  0
LINE
  5
1B7
100
AcDbEntity
100
AcDbLine
  8
0
 62
256
370
-1
  6
ByLayer
 10
96.5000000000000142
 20
245.1000000000000227
 30
0.0
 11
96.5
 21
260.5999999999999659
 31
0.0
  0
LINE
  5
1B8
100
AcDbEntity
100
AcDbLine
  8
0
 62
256
370
-1
  6
ByLayer
 10
96.5
 20
260.5999999999999659
 30
0.0
 11
105.0000000000000142
 21
260.5999999999999659
 31
0.0
  0
LINE
  5
1B9
100
AcDbEntity
100
AcDbLine
  8
0
 62
256
370
-1
  6
ByLayer
 10
105.0000000000000142
 20
245.1000000000000227
 30
0.0
 11
105.0000000000000142
 21
260.5999999999999659
 31
0.0
  0
LINE
  5
1BA
100
AcDbEntity
100
AcDbLine
  8
0
 62
256
370
-1
  6
ByLayer
 10
96.5000000000000142
 20
245.1000000000000227
 30
0.0
 11
105.0000000000000142
 21
245.1000000000000227
 31
0.0
  0
LINE
  5
1BB
100
AcDbEntity
100
AcDbLine
  8
0
 62
256
370
-1
  6
ByLayer
 10
109.0000000000000142
 20
245.1000000000000512
 30
0.0
 11
109.0
 21
260.6000000000000227
 31
0.0
  0
LINE
  5
1BC
100
AcDbEntity
100
AcDbLine
  8
0
 62
256
370
-1
  6
ByLayer
 10
109.0
 20
260.6000000000000227
 30
0.0
 11
117.5000000000000142
 21
260.6000000000000227
 31
0.0
  0
LINE
  5
1BD
100
AcDbEntity
100
AcDbLine
  8
0
 62
256
370
-1
  6
ByLayer
 10
109.0000000000000142
 20
245.1000000000000227
 30
0.0
 11
117.5
 21
245.1000000000000227
 31
0.0
  0
LINE
  5
1BE
100
AcDbEntity
100
AcDbLine
  8
0
 62
256
370
-1
  6
ByLayer
 10
117.5000000000000142
 20
245.1000000000000227
 30
0.0
 11
117.5000000000000142
 21
260.6000000000000227
 31
0.0
  0
CIRCLE
  5
1BF
100
AcDbEntity
100
AcDbCircle
  8
0
 62
256
370
-1
  6
ByLayer
 10
53.0
 20
218.0
 30
0.0
 40
1.6000000000000001
  0
CIRCLE
  5
1C0
100
AcDbEntity
100
AcDbCircle
  8
0
 62
256
370
-1
  6
ByLayer
 10
38.0
 20
218.0
 30
0.0
 40
1.6000000000000001
  0
LINE
  5
1C1
100
AcDbEntity
100
AcDbLine
  8
0
 62
256
370
-1
  6
ByLayer
 10
244.2554888888888911
 20
265.8999995555556097
 30
0.0
 11
244.2554888888888911
 21
269.8999999999999773
 31
0.0
  0
LINE
  5
1C2
100
AcDbEntity
100
AcDbLine
  8
0
 62
256
370
-1
  6
ByLayer
 10
244.2554888888888911
 20
269.8999999999999773
 30
0.0
 11
245.5888222222222339
 21
267.6777777777778056
 31
0.0
  0
LINE
  5
1C3
100
AcDbEntity
100
AcDbLine
  8
0
 62
256
370
-1
  6
ByLayer
 10
245.5888222222222339
 20
267.6777777777778056
 30
0.0
 11
246.9221555555555767
 21
269.8999999999999773
 31
0.0
  0
LINE
  5
1C4
100
AcDbEntity
100
AcDbLine
  8
0
 62
256
370
-1
  6
ByLayer
 10
246.9221555555555767
 20
269.8999999999999773
 30
0.0
 11
246.9221555555555767
 21
265.8999995557405782
 31
0.0
  0
LINE
  5
1C5
100
AcDbEntity
100
AcDbLine
  8
0
 62
256
370
-1
  6
ByLayer
 10
248.2555333333333749
 20
269.8999999999999773
 30
0.0
 11
248.2555333333333749
 21
265.8999995555556097
 31
0.0
  0
LINE
  5
1C6
100
AcDbEntity
100
AcDbLine
  8
0
 62
256
370
-1
  6
ByLayer
 10
249.5888222222222339
 20
265.8999995555556097
 30
0.0
 11
250.9221555555555767
 21
265.8999995557479679
 31
0.0
  0
LINE
  5
1C7
100
AcDbEntity
100
AcDbLine
  8
0
 62
256
370
-1
  6
ByLayer
 10
251.8110444444445193
 20
266.7888888888888914
 30
0.0
 11
251.8110444444445193
 21
269.0111111111110631
 31
0.0
  0
LINE
  5
1C8
100
AcDbEntity
100
AcDbLine
  8
0
 62
256
370
-1
  6
ByLayer
 10
250.9221555555555767
 20
269.8999999999999773
 30
0.0
 11
249.5888222222222339
 21
269.8999999999999773
 31
0.0
  0
LINE
  5
1C9
100
AcDbEntity
100
AcDbLine
  8
0
 62
256
370
-1
  6
ByLayer
 10
249.5888222222222339
 20
269.8999999999999773
 30
0.0
 11
249.5888222222222339
 21
265.8999995555556097
 31
0.0
  0
ARC
  5
1CA
100
AcDbEntity
  8
0
 62
256
370
-1
  6
ByLayer
100
AcDbCircle
 10
250.9221555555555767
 20
266.7888888888888914
 30
0.0
 40
0.8888888888888888
100
AcDbArc
 50
270.0
 51
0.0
  0
ARC
  5
1CB
100
AcDbEntity
  8
0
 62
256
370
-1
  6
ByLayer
100
AcDbCircle
 10
250.9221555555555767
 20
269.0111111111110631
 30
0.0
 40
0.8888888888888888
100
AcDbArc
 50
0.0
 51
90.0
  0
LINE
  5
1CC
100
AcDbEntity
100
AcDbLine
  8
0
 62
256
370
-1
  6
ByLayer
 10
253.1444222222222606
 20
269.8999999999999773
 30
0.0
 11
253.1444222222222606
 21
265.8999995555556097
 31
0.0
  0
LINE
  5
1CD
100
AcDbEntity
100
AcDbLine
  8
0
 62
256
370
-1
  6
ByLayer
 10
121.2000000000000171
 20
202.6000000000000227
 30
0.0
 11
121.2000000000000171
 21
214.0000000000000284
 31
0.0
  0
LINE
  5
1CE
100
AcDbEntity
100
AcDbLine
  8
0
 62
256
370
-1
  6
ByLayer
 10
121.2000000000000171
 20
214.0000000000000284
 30
0.0
 11
111.8000000000000114
 21
214.0000000000000284
 31
0.0
  0
LINE
  5
1CF
100
AcDbEntity
100
AcDbLine
  8
0
 62
256
370
-1
  6
ByLayer
 10
111.8000000000000114
 20
214.0000000000000284
 30
0.0
 11
111.8000000000000114
 21
202.6000000000000227
 31
0.0
  0
LINE
  5
1D0
100
AcDbEntity
100
AcDbLine
  8
0
 62
256
370
-1
  6
ByLayer
 10
111.8000000000000114
 20
202.6000000000000227
 30
0.0
 11
121.2000000000000171
 21
202.6000000000000227
 31
0.0
  0
LINE
  5
1D1
100
AcDbEntity
100
AcDbLine
  8
0
 62
256
370
-1
  6
ByLayer
 10
205.8888222222222453
 20
222.0000000000000568
 30
0.0
 11
207.2221555555555881
 21
217.9999995557481043
 31
0.0
  0
LINE
  5
1D2
100
AcDbEntity
100
AcDbLine
  8
0
 62
256
370
-1
  6
ByLayer
 10
207.2221555555555881
 20
217.9999995557481043
 30
0.0
 11
208.5554888888889309
 21
222.0000000000000568
 31
0.0
  0
LINE
  5
1D3
100
AcDbEntity
100
AcDbLine
  8
0
 62
256
370
-1
  6
ByLayer
 10
212.1110444444444738
 20
222.0000000000000568
 30
0.0
 11
210.777711111111131
 21
222.0000000000000568
 31
0.0
  0
LINE
  5
1D4
100
AcDbEntity
100
AcDbLine
  8
0
 62
256
370
-1
  6
ByLayer
 10
209.8888222222222453
 20
221.1111111111111995
 30
0.0
 11
209.8888222222222453
 21
218.8888888888889142
 31
0.0
  0
LINE
  5
1D5
100
AcDbEntity
100
AcDbLine
  8
0
 62
256
370
-1
  6
ByLayer
 10
210.777711111111131
 20
217.999999555535851
 30
0.0
 11
212.1110444444444738
 21
217.9999995557332682
 31
0.0
  0
LINE
  5
1D6
100
AcDbEntity
100
AcDbLine
  8
0
 62
256
370
-1
  6
ByLayer
 10
212.1110444444444738
 20
217.9999995557332682
 30
0.0
 11
212.1110444444444738
 21
220.2222217777778042
 31
0.0
  0
LINE
  5
1D7
100
AcDbEntity
100
AcDbLine
  8
0
 62
256
370
-1
  6
ByLayer
 10
212.1110444444444738
 20
220.2222217777778042
 30
0.0
 11
211.4443777777777882
 21
220.2222217777778042
 31
0.0
  0
ARC
  5
1D8
100
AcDbEntity
  8
0
 62
256
370
-1
  6
ByLayer
100
AcDbCircle
 10
210.777711111111131
 20
221.1111111111111995
 30
0.0
 40
0.8888888888888888
100
AcDbArc
 50
90.0
 51
180.0
  0
ARC
  5
1D9
100
AcDbEntity
  8
0
 62
256
370
-1
  6
ByLayer
100
AcDbCircle
 10
210.777711111111131
 20
218.8888888888889142
 30
0.0
 40
0.8888888888888888
100
AcDbArc
 50
180.0
 51
270.0
  0
LINE
  5
1DA
100
AcDbEntity
100
AcDbLine
  8
0
 62
256
370
-1
  6
ByLayer
 10
213.4443333333333612
 20
217.9999995555556325
 30
0.0
 11
214.7776222222222486
 21
222.0000000000000568
 31
0.0
  0
LINE
  5
1DB
100
AcDbEntity
100
AcDbLine
  8
0
 62
256
370
-1
  6
ByLayer
 10
214.7776222222222486
 20
222.0000000000000568
 30
0.0
 11
216.1110888888889292
 21
217.9999995575064986
 31
0.0
  0
LINE
  5
1DC
100
AcDbEntity
100
AcDbLine
  8
0
 62
256
370
-1
  6
ByLayer
 10
213.8147333333333791
 20
219.1111111111111995
 30
0.0
 11
215.7406444444444844
 21
219.1111111111111995
 31
0.0
  0
LINE
  5
1DD
100
AcDbEntity
100
AcDbLine
  8
0
 62
256
370
-1
  6
ByLayer
 10
251.6110888888889008
 20
222.0000000000001137
 30
0.0
 11
251.6110888888889008
 21
217.9999995555556325
 31
0.0
  0
LINE
  5
1DE
100
AcDbEntity
100
AcDbLine
  8
0
 62
256
370
-1
  6
ByLayer
 10
251.6110888888889008
 20
217.9999995555556325
 30
0.0
 11
253.3888666666667291
 21
217.9999995559418835
 31
0.0
  0
LINE
  5
1DF
100
AcDbEntity
100
AcDbLine
  8
0
 62
256
370
-1
  6
ByLayer
 10
254.7222444444444704
 20
222.0000000000001137
 30
0.0
 11
254.7222444444444704
 21
217.9999995555556325
 31
0.0
  0
LINE
  5
1E0
100
AcDbEntity
100
AcDbLine
  8
0
 62
256
370
-1
  6
ByLayer
 10
256.0555782222223229
 20
218.0000000000001137
 30
0.0
 11
256.0555777777778417
 21
222.0000000000001137
 31
0.0
  0
LINE
  5
1E1
100
AcDbEntity
100
AcDbLine
  8
0
 62
256
370
-1
  6
ByLayer
 10
256.0555777777778417
 20
222.0000000000001137
 30
0.0
 11
258.2777555555556432
 21
217.9999995557421926
 31
0.0
  0
LINE
  5
1E2
100
AcDbEntity
100
AcDbLine
  8
0
 62
256
370
-1
  6
ByLayer
 10
258.2777555555556432
 20
217.9999995557421926
 30
0.0
 11
258.2777555555556432
 21
222.0000000000001137
 31
0.0
  0
LINE
  5
1E3
100
AcDbEntity
100
AcDbLine
  8
0
 62
256
370
-1
  6
ByLayer
 10
261.3888222222222453
 20
222.0000000000001137
 30
0.0
 11
259.6110888888889008
 21
222.0000000000001137
 31
0.0
  0
LINE
  5
1E4
100
AcDbEntity
100
AcDbLine
  8
0
 62
256
370
-1
  6
ByLayer
 10
259.6110888888889008
 20
222.0000000000001137
 30
0.0
 11
259.611089333333382
 21
218.0000000000001137
 31
0.0
  0
LINE
  5
1E5
100
AcDbEntity
100
AcDbLine
  8
0
 62
256
370
-1
  6
ByLayer
 10
259.611089333333382
 20
218.0000000000001137
 30
0.0
 11
261.3888222222222453
 21
217.9999995559418835
 31
0.0
  0
LINE
  5
1E6
100
AcDbEntity
100
AcDbLine
  8
0
 62
256
370
-1
  6
ByLayer
 10
259.6110888888889008
 20
220.222221777777861
 30
0.0
 11
260.9443777777777882
 21
220.222221777777861
 31
0.0
  0
LINE
  5
1E7
100
AcDbEntity
100
AcDbLine
  8
0
 62
256
370
-1
  6
ByLayer
 10
247.2222888888889258
 20
205.0000000000000568
 30
0.0
 11
247.2222888888889258
 21
200.9999995555556325
 31
0.0
  0
LINE
  5
1E8
100
AcDbEntity
100
AcDbLine
  8
0
 62
256
370
-1
  6
ByLayer
 10
248.555622666666693
 20
201.0000000000000568
 30
0.0
 11
248.5556222222222402
 21
205.0000000000000568
 31
0.0
  0
LINE
  5
1E9
100
AcDbEntity
100
AcDbLine
  8
0
 62
256
370
-1
  6
ByLayer
 10
248.5556222222222402
 20
205.0000000000000568
 30
0.0
 11
250.7778000000000134
 21
200.9999995557421357
 31
0.0
  0
LINE
  5
1EA
100
AcDbEntity
100
AcDbLine
  8
0
 62
256
370
-1
  6
ByLayer
 10
250.7778000000000134
 20
200.9999995557421357
 30
0.0
 11
250.7778000000000134
 21
205.0000000000000568
 31
0.0
  0
LINE
  5
1EB
100
AcDbEntity
100
AcDbLine
  8
0
 62
256
370
-1
  6
ByLayer
 10
259.1111333333333846
 20
201.8888888888889142
 30
0.0
 11
259.1111333333333846
 21
204.1111111111111995
 31
0.0
  0
LINE
  5
1EC
100
AcDbEntity
100
AcDbLine
  8
0
 62
256
370
-1
  6
ByLayer
 10
260.0000222222222988
 20
205.0000000000000568
 30
0.0
 11
260.444422222222272
 21
205.0000000000000568
 31
0.0
  0
LINE
  5
1ED
100
AcDbEntity
100
AcDbLine
  8
0
 62
256
370
-1
  6
ByLayer
 10
261.3333111111111862
 20
204.1111111111111995
 30
0.0
 11
261.3333111111111862
 21
201.8888888888889142
 31
0.0
  0
LINE
  5
1EE
100
AcDbEntity
100
AcDbLine
  8
0
 62
256
370
-1
  6
ByLayer
 10
260.444422222222272
 20
200.9999995557481043
 30
0.0
 11
260.0000222222222988
 21
200.999999555535851
 31
0.0
  0
ARC
  5
1EF
100
AcDbEntity
  8
0
 62
256
370
-1
  6
ByLayer
100
AcDbCircle
 10
260.0000222222222988
 20
204.1111111111111995
 30
0.0
 40
0.8888888888888888
100
AcDbArc
 50
90.0
 51
180.0
  0
ARC
  5
1F0
100
AcDbEntity
  8
0
 62
256
370
-1
  6
ByLayer
100
AcDbCircle
 10
260.444422222222272
 20
204.1111111111111995
 30
0.0
 40
0.8888888888888888
100
AcDbArc
 50
0.0
 51
90.0
  0
ARC
  5
1F1
100
AcDbEntity
  8
0
 62
256
370
-1
  6
ByLayer
100
AcDbCircle
 10
260.444422222222272
 20
201.8888888888889142
 30
0.0
 40
0.8888888888888888
100
AcDbArc
 50
270.0
 51
0.0
  0
ARC
  5
1F2
100
AcDbEntity
  8
0
 62
256
370
-1
  6
ByLayer
100
AcDbCircle
 10
260.0000222222222988
 20
201.8888888888889142
 30
0.0
 40
0.8888888888888888
100
AcDbArc
 50
180.0
 51
270.0
  0
LINE
  5
1F3
100
AcDbEntity
100
AcDbLine
  8
0
 62
256
370
-1
  6
ByLayer
 10
262.6666000000000736
 20
205.0000000000000568
 30
0.0
 11
262.6666000000000736
 21
202.1111111111111995
 31
0.0
  0
LINE
  5
1F4
100
AcDbEntity
100
AcDbLine
  8
0
 62
256
370
-1
  6
ByLayer
 10
264.8888222222222453
 20
202.1111111111111995
 30
0.0
 11
264.8888222222222453
 21
205.0000000000000568
 31
0.0
  0
ARC
  5
1F5
100
AcDbEntity
  8
0
 62
256
370
-1
  6
ByLayer
100
AcDbCircle
 10
263.7777111111111594
 20
202.1111111111111995
 30
0.0
 40
1.1111111111111112
100
AcDbArc
 50
180.0
 51
0.0
  0
LINE
  5
1F6
100
AcDbEntity
100
AcDbLine
  8
0
 62
256
370
-1
  6
ByLayer
 10
266.2221111111111327
 20
205.0000000000000568
 30
0.0
 11
268.8888666666667291
 21
205.0000000000000568
 31
0.0
  0
LINE
  5
1F7
100
AcDbEntity
100
AcDbLine
  8
0
 62
256
370
-1
  6
ByLayer
 10
267.5554444444445039
 20
205.0000000000000568
 30
0.0
 11
267.5554444444445039
 21
200.9999995557481043
 31
0.0
  0
LINE
  5
1F8
100
AcDbEntity
100
AcDbLine
  8
0
 62
256
370
-1
  6
ByLayer
 10
195.0000000000000853
 20
202.5000000000001137
 30
0.0
 11
195.0000000000000853
 21
215.5000000000001137
 31
0.0
  0
LINE
  5
1F9
100
AcDbEntity
100
AcDbLine
  8
0
 62
256
370
-1
  6
ByLayer
 10
72.0
 20
203.0
 30
0.0
 11
72.0
 21
217.0000000000000284
 31
0.0
  0
LINE
  5
1FA
100
AcDbEntity
100
AcDbLine
  8
0
 62
256
370
-1
  6
ByLayer
 10
88.5000000000000142
 20
217.0
 30
0.0
 11
88.5000000000000284
 21
203.0
 31
0.0
  0
LINE
  5
1FB
100
AcDbEntity
100
AcDbLine
  8
0
 62
256
370
-1
  6
ByLayer
 10
72.0
 20
217.0
 30
0.0
 11
88.5000000000000142
 21
217.0
 31
0.0
  0
LINE
  5
1FC
100
AcDbEntity
100
AcDbLine
  8
0
 62
256
370
-1
  6
ByLayer
 10
195.0000000000000853
 20
215.5000000000001137
 30
0.0
 11
227.0000000000000284
 21
215.5
 31
0.0
  0
LINE
  5
1FD
100
AcDbEntity
100
AcDbLine
  8
0
 62
256
370
-1
  6
ByLayer
 10
227.0000000000000284
 20
215.5
 30
0.0
 11
227.0
 21
202.5000000000000284
 31
0.0
  0
LINE
  5
1FE
100
AcDbEntity
100
AcDbLine
  8
0
 62
256
370
-1
  6
ByLayer
 10
195.0000000000000853
 20
202.5000000000001137
 30
0.0
 11
227.0
 21
202.5000000000000284
 31
0.0
  0
CIRCLE
  5
1FF
100
AcDbEntity
100
AcDbCircle
  8
0
 62
256
370
-1
  6
ByLayer
 10
20.0
 20
177.0
 30
0.0
 40
1.75
  0
CIRCLE
  5
200
100
AcDbEntity
100
AcDbCircle
  8
0
 62
256
370
-1
  6
ByLayer
 10
135.0
 20
177.0
 30
0.0
 40
1.75
  0
CIRCLE
  5
201
100
AcDbEntity
100
AcDbCircle
  8
0
 62
256
370
-1
  6
ByLayer
 10
135.0
 20
37.0
 30
0.0
 40
1.75
  0
CIRCLE
  5
202
100
AcDbEntity
100
AcDbCircle
  8
0
 62
256
370
-1
  6
ByLayer
 10
20.0
 20
37.0
 30
0.0
 40
1.75
  0
CIRCLE
  5
203
100
AcDbEntity
100
AcDbCircle
  8
0
 62
256
370
-1
  6
ByLayer
 10
165.0
 20
177.0
 30
0.0
 40
1.75
  0
CIRCLE
  5
204
100
AcDbEntity
100
AcDbCircle
  8
0
 62
256
370
-1
  6
ByLayer
 10
165.0
 20
37.0
 30
0.0
 40
1.75
  0
CIRCLE
  5
205
100
AcDbEntity
100
AcDbCircle
  8
0
 62
256
370
-1
  6
ByLayer
 10
280.0
 20
177.0
 30
0.0
 40
1.75
  0
CIRCLE
  5
206
100
AcDbEntity
100
AcDbCircle
  8
0
 62
256
370
-1
  6
ByLayer
 10
280.0
 20
37.0
 30
0.0
 40
1.75
  0
CIRCLE
  5
207
100
AcDbEntity
100
AcDbCircle
  8
0
 62
256
370
-1
  6
ByLayer
 10
60.5
 20
210.5
 30
0.0
 40
6.2999999999999998
  0
CIRCLE
  5
208
100
AcDbEntity
100
AcDbCircle
  8
0
 62
256
370
-1
  6
ByLayer
 10
45.5
 20
210.5
 30
0.0
 40
6.2999999999999998
  0
CIRCLE
  5
209
100
AcDbEntity
100
AcDbCircle
  8
0
 62
256
370
-1
  6
ByLayer
 10
30.5
 20
210.5
 30
0.0
 40
6.2999999999999998
  0
LINE
  5
20A
100
AcDbEntity
100
AcDbLine
  8
0
 62
256
370
-1
  6
ByLayer
 10
169.0
 20
252.0
 30
0.0
 11
168.9999999998076419
 21
253.3333333333333428
 31
0.0
  0
LINE
  5
20B
100
AcDbEntity
100
AcDbLine
  8
0
 62
256
370
-1
  6
ByLayer
 10
168.1111106666667183
 20
254.2222222222222285
 30
0.0
 11
165.8888884444445466
 21
254.2222222222222285
 31
0.0
  0
LINE
  5
20C
100
AcDbEntity
100
AcDbLine
  8
0
 62
256
370
-1
  6
ByLayer
 10
164.9999995555556325
 20
253.3333333333333428
 30
0.0
 11
164.9999995555556325
 21
252.0
 31
0.0
  0
LINE
  5
20D
100
AcDbEntity
100
AcDbLine
  8
0
 62
256
370
-1
  6
ByLayer
 10
164.9999995555556325
 20
252.0
 30
0.0
 11
169.0
 21
252.0
 31
0.0
  0
ARC
  5
20E
100
AcDbEntity
  8
0
 62
256
370
-1
  6
ByLayer
100
AcDbCircle
 10
168.1111106666667183
 20
253.3333333333333428
 30
0.0
 40
0.8888888888888888
100
AcDbArc
 50
360.0
 51
90.0
  0
ARC
  5
20F
100
AcDbEntity
  8
0
 62
256
370
-1
  6
ByLayer
100
AcDbCircle
 10
165.8888884444445466
 20
253.3333333333333428
 30
0.0
 40
0.8888888888888888
100
AcDbArc
 50
90.0
 51
180.0
  0
LINE
  5
210
100
AcDbEntity
100
AcDbLine
  8
0
 62
256
370
-1
  6
ByLayer
 10
169.0
 20
255.555511111111116
 30
0.0
 11
164.9999995555556325
 21
255.555511111111116
 31
0.0
  0
LINE
  5
211
100
AcDbEntity
100
AcDbLine
  8
0
 62
256
370
-1
  6
ByLayer
 10
164.9999995555556325
 20
255.555511111111116
 30
0.0
 11
167.2222217777778042
 21
256.8888444444444303
 31
0.0
  0
LINE
  5
212
100
AcDbEntity
100
AcDbLine
  8
0
 62
256
370
-1
  6
ByLayer
 10
167.2222217777778042
 20
256.8888444444444303
 30
0.0
 11
164.9999995555556325
 21
258.2221777777778016
 31
0.0
  0
LINE
  5
213
100
AcDbEntity
100
AcDbLine
  8
0
 62
256
370
-1
  6
ByLayer
 10
164.9999995555556325
 20
258.2221777777778016
 30
0.0
 11
168.9999999998150315
 21
258.2221777777778016
 31
0.0
  0
LINE
  5
214
100
AcDbEntity
100
AcDbLine
  8
0
 62
256
370
-1
  6
ByLayer
 10
164.9999995555556325
 20
259.555511111111116
 30
0.0
 11
168.9999999998150315
 21
262.2221333333333746
 31
0.0
  0
LINE
  5
215
100
AcDbEntity
100
AcDbLine
  8
0
 62
256
370
-1
  6
ByLayer
 10
168.9999995555556325
 20
259.5555115555555403
 30
0.0
 11
164.9999995555556325
 21
262.2221333333333746
 31
0.0
  0
CIRCLE
  5
216
100
AcDbEntity
100
AcDbCircle
  8
0
 62
256
370
-1
  6
ByLayer
 10
200.5010000000000048
 20
267.8990000000000578
 30
0.0
 40
1.55
  0
CIRCLE
  5
217
100
AcDbEntity
100
AcDbCircle
  8
0
 62
256
370
-1
  6
ByLayer
 10
220.2990000000000066
 20
248.1010000000000275
 30
0.0
 40
1.55
  0
CIRCLE
  5
218
100
AcDbEntity
100
AcDbCircle
  8
0
 62
256
370
-1
  6
ByLayer
 10
172.8010000000000446
 20
267.8990000000000578
 30
0.0
 40
1.55
  0
CIRCLE
  5
219
100
AcDbEntity
100
AcDbCircle
  8
0
 62
256
370
-1
  6
ByLayer
 10
192.5990000000000464
 20
248.1010000000000559
 30
0.0
 40
1.55
  0
CIRCLE
  5
21A
100
AcDbEntity
100
AcDbCircle
  8
0
 62
256
370
-1
  6
ByLayer
 10
182.6999999999999886
 20
258.0
 30
0.0
 40
11.1999999999999993
  0
CIRCLE
  5
21B
100
AcDbEntity
100
AcDbCircle
  8
0
 62
256
370
-1
  6
ByLayer
 10
210.4000000000000057
 20
258.0
 30
0.0
 40
11.1999999999999993
  0
LINE
  5
21C
100
AcDbEntity
100
AcDbLine
  8
0
 62
256
370
-1
  6
ByLayer
 10
5.0
 20
278.1999999999999886
 30
0.0
 11
5.0
 21
278.0
 31
0.0
  0
LINE
  5
21D
100
AcDbEntity
100
AcDbLine
  8
0
 62
256
370
-1
  6
ByLayer
 10
5.0
 20
278.1999999999999886
 30
0.0
 11
5.2000000000000002
 21
278.1999999999999886
 31
0.0
  0
CIRCLE
  5
21E
100
AcDbEntity
100
AcDbCircle
  8
0
 62
256
370
-1
  6
ByLayer
 10
264.2000000000000455
 20
209.7000000000000171
 30
0.0
 40
3.2999999999999998
  0
CIRCLE
  5
21F
100
AcDbEntity
100
AcDbCircle
  8
0
 62
256
370
-1
  6
ByLayer
 10
249.2000000000000171
 20
209.7000000000000171
 30
0.0
 40
3.2999999999999998
  0
CIRCLE
  5
220
100
AcDbEntity
100
AcDbCircle
  8
0
 62
256
370
-1
  6
ByLayer
 10
236.2000000000000171
 20
255.5000000000000568
 30
0.0
 40
9.0
  0
CIRCLE
  5
221
100
AcDbEntity
100
AcDbCircle
  8
0
 62
256
370
-1
  6
ByLayer
 10
260.1999999999999886
 20
255.5000000000000568
 30
0.0
 40
9.0
  0
CIRCLE
  5
222
100
AcDbEntity
100
AcDbCircle
  8
0
 62
256
370
-1
  6
ByLayer
 10
236.0
 20
207.0
 30
0.0
 40
1.0
  0
LINE
  5
223
100
AcDbEntity
100
AcDbLine
  8
0
 62
7
370
0
  6
CONTINUOUS
 10
70.6111555555555555
 20
263.4888888888889369
 30
0.0
 11
70.6111555555555555
 21
265.7111111111111086
 31
0.0
  0
LINE
  5
224
100
AcDbEntity
100
AcDbLine
  8
0
 62
7
370
0
  6
CONTINUOUS
 10
71.5000444444444412
 20
266.6000000000000227
 30
0.0
 11
71.9444444444444429
 21
266.6000000000000227
 31
0.0
  0
LINE
  5
225
100
AcDbEntity
100
AcDbLine
  8
0
 62
7
370
0
  6
CONTINUOUS
 10
72.8333333333333286
 20
265.7111111111111086
 30
0.0
 11
72.8333333333333286
 21
263.4888888888889369
 31
0.0
  0
LINE
  5
226
100
AcDbEntity
100
AcDbLine
  8
0
 62
7
370
0
  6
CONTINUOUS
 10
71.9444444444444429
 20
262.5999995557480133
 30
0.0
 11
71.5000444444444412
 21
262.5999995555358169
 31
0.0
  0
ARC
  5
227
100
AcDbEntity
  8
0
 62
7
370
0
  6
CONTINUOUS
100
AcDbCircle
 10
71.5000444444444412
 20
265.7111111111111086
 30
0.0
 40
0.8888888888888888
100
AcDbArc
 50
90.0
 51
180.0
  0
ARC
  5
228
100
AcDbEntity
  8
0
 62
7
370
0
  6
CONTINUOUS
100
AcDbCircle
 10
71.9444444444444429
 20
265.7111111111111086
 30
0.0
 40
0.8888888888888888
100
AcDbArc
 50
0.0
 51
90.0
  0
ARC
  5
229
100
AcDbEntity
  8
0
 62
7
370
0
  6
CONTINUOUS
100
AcDbCircle
 10
71.9444444444444429
 20
263.4888888888889369
 30
0.0
 40
0.8888888888888888
100
AcDbArc
 50
270.0
 51
0.0
  0
ARC
  5
22A
100
AcDbEntity
  8
0
 62
7
370
0
  6
CONTINUOUS
100
AcDbCircle
 10
71.5000444444444412
 20
263.4888888888889369
 30
0.0
 40
0.8888888888888888
100
AcDbArc
 50
180.0
 51
270.0
  0
LINE
  5
22B
100
AcDbEntity
100
AcDbLine
  8
0
 62
7
370
0
  6
CONTINUOUS
 10
74.1666671111110958
 20
262.6000000000000227
 30
0.0
 11
74.1666666666666714
 21
266.6000000000000227
 31
0.0
  0
LINE
  5
22C
100
AcDbEntity
100
AcDbLine
  8
0
 62
7
370
0
  6
CONTINUOUS
 10
74.1666666666666714
 20
266.6000000000000227
 30
0.0
 11
76.3888444444444445
 21
262.5999995557421016
 31
0.0
  0
LINE
  5
22D
100
AcDbEntity
100
AcDbLine
  8
0
 62
7
370
0
  6
CONTINUOUS
 10
76.3888444444444445
 20
262.5999995557421016
 30
0.0
 11
76.3888444444444445
 21
266.6000000000000227
 31
0.0
  0
LINE
  5
22E
100
AcDbEntity
100
AcDbLine
  8
0
 62
7
370
0
  6
CONTINUOUS
 10
86.3888893333333243
 20
262.6000000000000227
 30
0.0
 11
86.3888888888888999
 21
266.6000000000000227
 31
0.0
  0
LINE
  5
22F
100
AcDbEntity
100
AcDbLine
  8
0
 62
7
370
0
  6
CONTINUOUS
 10
86.3888888888888999
 20
266.6000000000000227
 30
0.0
 11
87.7222222222222285
 21
266.6000000000000227
 31
0.0
  0
LINE
  5
230
100
AcDbEntity
100
AcDbLine
  8
0
 62
7
370
0
  6
CONTINUOUS
 10
88.6111111111111285
 20
265.7111111111111086
 30
0.0
 11
88.6111111111111285
 21
265.2666662222222271
 31
0.0
  0
LINE
  5
231
100
AcDbEntity
100
AcDbLine
  8
0
 62
7
370
0
  6
CONTINUOUS
 10
87.7222222222222285
 20
264.3777777777777942
 30
0.0
 11
86.3888888888888999
 21
264.3777777777777942
 31
0.0
  0
LINE
  5
232
100
AcDbEntity
100
AcDbLine
  8
0
 62
7
370
0
  6
CONTINUOUS
 10
87.7222222222222285
 20
264.3777777777777942
 30
0.0
 11
88.6111111111111285
 21
262.599999555733234
 31
0.0
  0
ARC
  5
233
100
AcDbEntity
  8
0
 62
7
370
0
  6
CONTINUOUS
100
AcDbCircle
 10
87.7222222222222285
 20
265.7111111111111086
 30
0.0
 40
0.8888888888888888
100
AcDbArc
 50
0.0
 51
90.0
  0
ARC
  5
234
100
AcDbEntity
  8
0
 62
7
370
0
  6
CONTINUOUS
100
AcDbCircle
 10
87.7222222222222285
 20
265.2666662222222271
 30
0.0
 40
0.8888888888888888
100
AcDbArc
 50
270.0
 51
0.0
  0
LINE
  5
235
100
AcDbEntity
100
AcDbLine
  8
0
 62
7
370
0
  6
CONTINUOUS
 10
58.611066666666666
 20
266.6000000000000227
 30
0.0
 11
58.611066666666666
 21
262.5999995555555984
 31
0.0
  0
LINE
  5
236
100
AcDbEntity
100
AcDbLine
  8
0
 62
7
370
0
  6
CONTINUOUS
 10
58.611066666666666
 20
262.5999995555555984
 30
0.0
 11
60.3888444444444445
 21
262.5999995559418494
 31
0.0
  0
LINE
  5
237
100
AcDbEntity
100
AcDbLine
  8
0
 62
256
370
-1
  6
ByLayer
 10
232.4444000000000017
 20
217.9999995555555472
 30
0.0
 11
232.4444000000000017
 21
222.0
 31
0.0
  0
LINE
  5
238
100
AcDbEntity
100
AcDbLine
  8
0
 62
256
370
-1
  6
ByLayer
 10
232.4444000000000017
 20
222.0
 30
0.0
 11
233.7777333333333445
 21
219.7777777777777715
 31
0.0
  0
LINE
  5
239
100
AcDbEntity
100
AcDbLine
  8
0
 62
256
370
-1
  6
ByLayer
 10
233.7777333333333445
 20
219.7777777777777715
 30
0.0
 11
235.1110666666666873
 21
222.0
 31
0.0
  0
LINE
  5
23A
100
AcDbEntity
100
AcDbLine
  8
0
 62
256
370
-1
  6
ByLayer
 10
235.1110666666666873
 20
222.0
 30
0.0
 11
235.1110666666666873
 21
217.999999555740601
 31
0.0
  0
LINE
  5
23B
100
AcDbEntity
100
AcDbLine
  8
0
 62
256
370
-1
  6
ByLayer
 10
236.4444444444444571
 20
222.0
 30
0.0
 11
236.4444444444444571
 21
217.9999995555555472
 31
0.0
  0
LINE
  5
23C
100
AcDbEntity
100
AcDbLine
  8
0
 62
256
370
-1
  6
ByLayer
 10
239.555511111111116
 20
222.0
 30
0.0
 11
238.6666222222222018
 21
222.0
 31
0.0
  0
LINE
  5
23D
100
AcDbEntity
100
AcDbLine
  8
0
 62
256
370
-1
  6
ByLayer
 10
237.7777333333333161
 20
221.1111111111111143
 30
0.0
 11
237.7777333333333161
 21
218.8888888888888857
 31
0.0
  0
LINE
  5
23E
100
AcDbEntity
100
AcDbLine
  8
0
 62
256
370
-1
  6
ByLayer
 10
238.6666222222222018
 20
217.9999995555580199
 30
0.0
 11
239.555511111111116
 21
217.9999995559417982
 31
0.0
  0
ARC
  5
23F
100
AcDbEntity
  8
0
 62
256
370
-1
  6
ByLayer
100
AcDbCircle
 10
238.6666222222222018
 20
221.1111111111111143
 30
0.0
 40
0.8888888888888888
100
AcDbArc
 50
90.0
 51
180.0
  0
ARC
  5
240
100
AcDbEntity
  8
0
 62
256
370
-1
  6
ByLayer
100
AcDbCircle
 10
238.6666222222222018
 20
218.8888888888888857
 30
0.0
 40
0.8888888888888888
100
AcDbArc
 50
180.0
 51
270.0
  0
LINE
  5
241
100
AcDbEntity
100
AcDbLine
  8
0
 62
256
370
-1
  6
ByLayer
 10
179.3666000000000054
 20
244.8000000000000966
 30
0.0
 11
182.0333555555555733
 21
244.8000000000000966
 31
0.0
  0
LINE
  5
242
100
AcDbEntity
100
AcDbLine
  8
0
 62
256
370
-1
  6
ByLayer
 10
180.6999333333333482
 20
244.8000000000000966
 30
0.0
 11
180.6999333333333482
 21
240.7999995557481441
 31
0.0
  0
LINE
  5
243
100
AcDbEntity
100
AcDbLine
  8
0
 62
256
370
-1
  6
ByLayer
 10
183.3666888888889162
 20
244.8000000000000966
 30
0.0
 11
186.0333111111111464
 21
240.7999995557406976
 31
0.0
  0
LINE
  5
244
100
AcDbEntity
100
AcDbLine
  8
0
 62
256
370
-1
  6
ByLayer
 10
183.3666893333333689
 20
240.8000000000000966
 30
0.0
 11
186.0333111111111464
 21
244.8000000000000966
 31
0.0
  0
LINE
  5
245
100
AcDbEntity
100
AcDbLine
  8
0
 62
256
370
-1
  6
ByLayer
 10
207.5889115555555691
 20
240.8000000000000398
 30
0.0
 11
207.5889111111111163
 21
244.8000000000000398
 31
0.0
  0
LINE
  5
246
100
AcDbEntity
100
AcDbLine
  8
0
 62
256
370
-1
  6
ByLayer
 10
207.5889111111111163
 20
244.8000000000000398
 30
0.0
 11
208.9222444444444591
 21
244.8000000000000398
 31
0.0
  0
LINE
  5
247
100
AcDbEntity
100
AcDbLine
  8
0
 62
256
370
-1
  6
ByLayer
 10
209.8111333333333448
 20
243.9111111111111825
 30
0.0
 11
209.8111333333333448
 21
243.466666222222301
 31
0.0
  0
LINE
  5
248
100
AcDbEntity
100
AcDbLine
  8
0
 62
256
370
-1
  6
ByLayer
 10
208.9222444444444591
 20
242.5777777777778681
 30
0.0
 11
207.5889111111111163
 21
242.5777777777778681
 31
0.0
  0
LINE
  5
249
100
AcDbEntity
100
AcDbLine
  8
0
 62
256
370
-1
  6
ByLayer
 10
208.9222444444444591
 20
242.5777777777778681
 30
0.0
 11
209.8111333333333448
 21
240.7999995557332511
 31
0.0
  0
ARC
  5
24A
100
AcDbEntity
  8
0
 62
256
370
-1
  6
ByLayer
100
AcDbCircle
 10
208.9222444444444591
 20
243.9111111111111825
 30
0.0
 40
0.8888888888888888
100
AcDbArc
 50
0.0
 51
90.0
  0
ARC
  5
24B
100
AcDbEntity
  8
0
 62
256
370
-1
  6
ByLayer
100
AcDbCircle
 10
208.9222444444444591
 20
243.466666222222301
 30
0.0
 40
0.8888888888888888
100
AcDbArc
 50
270.0
 51
0.0
  0
LINE
  5
24C
100
AcDbEntity
100
AcDbLine
  8
0
 62
256
370
-1
  6
ByLayer
 10
211.1444666666666876
 20
244.8000000000000398
 30
0.0
 11
213.8110888888889178
 21
240.7999995557406407
 31
0.0
  0
LINE
  5
24D
100
AcDbEntity
100
AcDbLine
  8
0
 62
256
370
-1
  6
ByLayer
 10
211.1444671111111404
 20
240.8000000000000398
 30
0.0
 11
213.8110888888889178
 21
244.8000000000000398
 31
0.0
  0
LINE
  5
24E
100
AcDbEntity
100
AcDbLine
  8
0
 62
256
370
-1
  6
ByLayer
 10
257.3889115555555804
 20
240.9000000000000341
 30
0.0
 11
257.3889111111110992
 21
244.9000000000000341
 31
0.0
  0
LINE
  5
24F
100
AcDbEntity
100
AcDbLine
  8
0
 62
256
370
-1
  6
ByLayer
 10
257.3889111111110992
 20
244.9000000000000341
 30
0.0
 11
258.7222444444444704
 21
244.9000000000000341
 31
0.0
  0
LINE
  5
250
100
AcDbEntity
100
AcDbLine
  8
0
 62
256
370
-1
  6
ByLayer
 10
259.6111333333333846
 20
244.0111111111111768
 30
0.0
 11
259.6111333333333846
 21
243.5666662222222953
 31
0.0
  0
LINE
  5
251
100
AcDbEntity
100
AcDbLine
  8
0
 62
256
370
-1
  6
ByLayer
 10
258.7222444444444704
 20
242.6777777777778624
 30
0.0
 11
257.3889111111110992
 21
242.6777777777778624
 31
0.0
  0
LINE
  5
252
100
AcDbEntity
100
AcDbLine
  8
0
 62
256
370
-1
  6
ByLayer
 10
258.7222444444444704
 20
242.6777777777778624
 30
0.0
 11
259.6111333333333846
 21
240.8999995557332454
 31
0.0
  0
ARC
  5
253
100
AcDbEntity
  8
0
 62
256
370
-1
  6
ByLayer
100
AcDbCircle
 10
258.7222444444444704
 20
244.0111111111111768
 30
0.0
 40
0.8888888888888888
100
AcDbArc
 50
0.0
 51
90.0
  0
ARC
  5
254
100
AcDbEntity
  8
0
 62
256
370
-1
  6
ByLayer
100
AcDbCircle
 10
258.7222444444444704
 20
243.5666662222222953
 30
0.0
 40
0.8888888888888888
100
AcDbArc
 50
270.0
 51
0.0
  0
LINE
  5
255
100
AcDbEntity
100
AcDbLine
  8
0
 62
256
370
-1
  6
ByLayer
 10
260.9444666666666421
 20
244.9000000000000341
 30
0.0
 11
263.6110888888889008
 21
240.8999995539671772
 31
0.0
  0
LINE
  5
256
100
AcDbEntity
100
AcDbLine
  8
0
 62
256
370
-1
  6
ByLayer
 10
260.9444671111111234
 20
240.9000000000000341
 30
0.0
 11
263.6110888888889008
 21
244.9000000000000341
 31
0.0
  0
LINE
  5
257
100
AcDbEntity
100
AcDbLine
  8
0
 62
256
370
-1
  6
ByLayer
 10
233.1666000000000167
 20
244.9000000000000909
 30
0.0
 11
235.8333555555555847
 21
244.9000000000000909
 31
0.0
  0
LINE
  5
258
100
AcDbEntity
100
AcDbLine
  8
0
 62
256
370
-1
  6
ByLayer
 10
234.4999333333333595
 20
244.9000000000000909
 30
0.0
 11
234.4999333333333595
 21
240.8999995557481384
 31
0.0
  0
LINE
  5
259
100
AcDbEntity
100
AcDbLine
  8
0
 62
256
370
-1
  6
ByLayer
 10
237.1666888888889275
 20
244.9000000000000909
 30
0.0
 11
239.8333111111111577
 21
240.8999995557406919
 31
0.0
  0
LINE
  5
25A
100
AcDbEntity
100
AcDbLine
  8
0
 62
256
370
-1
  6
ByLayer
 10
237.1666893333333803
 20
240.9000000000000909
 30
0.0
 11
239.8333111111111577
 21
244.9000000000000909
 31
0.0
  0
ENDSEC
  0
SECTION
  2
OBJECTS
  0
DICTIONARY
  5
C
100
AcDbDictionary
280
0
281
1
  3
ACAD_GROUP
350
D
  3
ACAD_LAYOUT
350
1A
  3
ACAD_MLINESTYLE
350
17
  3
ACAD_PLOTSETTINGS
350
19
  3
ACAD_PLOTSTYLENAME
350
E
  3
AcDbVariableDictionary
350
25B
  0
DICTIONARY
  5
D
100
AcDbDictionary
280
0
281
1
  0
ACDBDICTIONARYWDFLT
  5
E
100
AcDbDictionary
281
1
  3
Normal
350
F
100
AcDbDictionaryWithDefault
340
F
  0
ACDBPLACEHOLDER
  5
F
  0
DICTIONARY
  5
17
100
AcDbDictionary
280
0
281
1
  3
Standard
350
18
  0
MLINESTYLE
  5
18
100
AcDbMlineStyle
  2
STANDARD
 70
0
  3

 62
256
 51
90.0
 52
90.0
 71
2
 49
0.5
 62
256
  6
BYLAYER
 49
-0.5
 62
256
  6
BYLAYER
  0
DICTIONARY
  5
19
100
AcDbDictionary
280
0
281
1
  0
DICTIONARY
  5
1A
100
AcDbDictionary
281
1
  3
Layout1
350
1E
  3
Layout2
350
26
  3
Model
350
22
  0
LAYOUT
  5
1E
100
AcDbPlotSettings
  1

  2
C:\Program Files\AutoCAD 2002\plotters\DWF ePlot (optimized for plotting).pc3
  4

  6

 40
0.0
 41
0.0
 42
0.0
 43
0.0
 44
0.0
 45
0.0
 46
0.0
 47
0.0
 48
0.0
 49
0.0
140
0.0
141
0.0
142
1.0
143
1.0
 70
688
 72
0
 73
0
 74
5
  7

 75
16
147
1.0
148
0.0
149
0.0
100
AcDbLayout
  1
Layout1
 70
1
 71
1
 10
0.0
 20
0.0
 11
420.0
 21
297.0
 12
0.0
 22
0.0
 32
0.0
 14
100000000000000000000.0
 24
100000000000000000000.0
 34
100000000000000000000.0
 15
-100000000000000000000.0
 25
-100000000000000000000.0
 35
-100000000000000000000.0
146
0.0
 13
0.0
 23
0.0
 33
0.0
 16
1.0
 26
0.0
 36
0.0
 17
0.0
 27
1.0
 37
0.0
 76
0
330
1B
  0
LAYOUT
  5
22
100
AcDbPlotSettings
  1

  2
C:\Program Files\AutoCAD 2002\plotters\DWF ePlot (optimized for plotting).pc3
  4

  6

 40
0.0
 41
0.0
 42
0.0
 43
0.0
 44
0.0
 45
0.0
 46
0.0
 47
0.0
 48
0.0
 49
0.0
140
0.0
141
0.0
142
1.0
143
1.0
 70
1712
 72
0
 73
0
 74
0
  7

 75
0
147
1.0
148
0.0
149
0.0
100
AcDbLayout
  1
Model
 70
1
 71
0
 10
0.0
 20
0.0
 11
12.0
 21
9.0
 12
0.0
 22
0.0
 32
0.0
 14
0.0
 24
0.0
 34
0.0
 15
0.0
 25
0.0
 35
0.0
146
0.0
 13
0.0
 23
0.0
 33
0.0
 16
1.0
 26
0.0
 36
0.0
 17
0.0
 27
1.0
 37
0.0
 76
0
330
1F
  0
LAYOUT
  5
26
100
AcDbPlotSettings
  1

  2
C:\Program Files\AutoCAD 2002\plotters\DWF ePlot (optimized for plotting).pc3
  4

  6

 40
0.0
 41
0.0
 42
0.0
 43
0.0
 44
0.0
 45
0.0
 46
0.0
 47
0.0
 48
0.0
 49
0.0
140
0.0
141
0.0
142
1.0
143
1.0
 70
688
 72
0
 73
0
 74
5
  7

 75
16
147
1.0
148
0.0
149
0.0
100
AcDbLayout
  1
Layout2
 70
1
 71
2
 10
0.0
 20
0.0
 11
12.0
 21
9.0
 12
0.0
 22
0.0
 32
0.0
 14
0.0
 24
0.0
 34
0.0
 15
0.0
 25
0.0
 35
0.0
146
0.0
 13
0.0
 23
0.0
 33
0.0
 16
1.0
 26
0.0
 36
0.0
 17
0.0
 27
1.0
 37
0.0
 76
0
330
23
  0
DICTIONARY
  5
25B
100
AcDbDictionary
281
1
  3
DIMASSOC
350
25D
  3
HIDETEXT
350
25C
  0
DICTIONARYVAR
  5
25C
100
DictionaryVariables
280
0
  1
2
  0
DICTIONARYVAR
  5
25D
100
DictionaryVariables
280
0
  1
1
  0
ENDSEC
  0
EOF
