<?xml version="1.0" encoding="UTF-8" standalone="no"?>
<!-- Created with Inkscape (http://www.inkscape.org/) -->

<svg
   xmlns:dc="http://purl.org/dc/elements/1.1/"
   xmlns:cc="http://creativecommons.org/ns#"
   xmlns:rdf="http://www.w3.org/1999/02/22-rdf-syntax-ns#"
   xmlns:svg="http://www.w3.org/2000/svg"
   xmlns="http://www.w3.org/2000/svg"
   xmlns:sodipodi="http://sodipodi.sourceforge.net/DTD/sodipodi-0.dtd"
   xmlns:inkscape="http://www.inkscape.org/namespaces/inkscape"
   width="970.21228"
   height="332.98013"
   id="svg2"
   sodipodi:version="0.32"
   inkscape:version="0.48.1 r9760"
   sodipodi:docname="tuxbrain.svg"
   inkscape:output_extension="org.inkscape.output.svg.inkscape"
   version="1.0">
  <defs
     id="defs4">
    <inkscape:perspective
       sodipodi:type="inkscape:persp3d"
       inkscape:vp_x="0 : 526.18109 : 1"
       inkscape:vp_y="0 : 1000 : 0"
       inkscape:vp_z="744.09448 : 526.18109 : 1"
       inkscape:persp3d-origin="372.04724 : 350.78739 : 1"
       id="perspective10" />
    <inkscape:perspective
       id="perspective2569"
       inkscape:persp3d-origin="360 : 240 : 1"
       inkscape:vp_z="720 : 360 : 1"
       inkscape:vp_y="0 : 1000 : 0"
       inkscape:vp_x="0 : 360 : 1"
       sodipodi:type="inkscape:persp3d" />
    <inkscape:perspective
       id="perspective2834"
       inkscape:persp3d-origin="0.5 : 0.33333333 : 1"
       inkscape:vp_z="1 : 0.5 : 1"
       inkscape:vp_y="0 : 1000 : 0"
       inkscape:vp_x="0 : 0.5 : 1"
       sodipodi:type="inkscape:persp3d" />
    <inkscape:perspective
       id="perspective2834-8"
       inkscape:persp3d-origin="0.5 : 0.33333333 : 1"
       inkscape:vp_z="1 : 0.5 : 1"
       inkscape:vp_y="0 : 1000 : 0"
       inkscape:vp_x="0 : 0.5 : 1"
       sodipodi:type="inkscape:persp3d" />
    <inkscape:perspective
       id="perspective2834-9"
       inkscape:persp3d-origin="0.5 : 0.33333333 : 1"
       inkscape:vp_z="1 : 0.5 : 1"
       inkscape:vp_y="0 : 1000 : 0"
       inkscape:vp_x="0 : 0.5 : 1"
       sodipodi:type="inkscape:persp3d" />
  </defs>
  <sodipodi:namedview
     id="base"
     pagecolor="#ffffff"
     bordercolor="#666666"
     borderopacity="1.0"
     gridtolerance="10000"
     guidetolerance="10"
     objecttolerance="10"
     inkscape:pageopacity="0.0"
     inkscape:pageshadow="2"
     inkscape:zoom="0.62724719"
     inkscape:cx="61.327353"
     inkscape:cy="193.77196"
     inkscape:document-units="px"
     inkscape:current-layer="g3726"
     showgrid="false"
     showguides="true"
     inkscape:guide-bbox="true"
     inkscape:window-width="1909"
     inkscape:window-height="1105"
     inkscape:window-x="0"
     inkscape:window-y="32"
     inkscape:window-maximized="1"
     fit-margin-top="0"
     fit-margin-left="0"
     fit-margin-right="0"
     fit-margin-bottom="0" />
  <metadata
     id="metadata7">
    <rdf:RDF>
      <cc:Work
         rdf:about="">
        <dc:format>image/svg+xml</dc:format>
        <dc:type
           rdf:resource="http://purl.org/dc/dcmitype/StillImage" />
        <dc:title></dc:title>
      </cc:Work>
    </rdf:RDF>
  </metadata>
  <g
     inkscape:label="Layer 1"
     inkscape:groupmode="layer"
     id="layer1"
     transform="translate(-50.203455,-166.42063)">
    <g
       id="g2863"
       transform="matrix(1.3426638,0,0,1.3426638,-199.81996,-117.03709)">
      <g
         style="color:#000000;fill:#4d4f53;fill-opacity:1;fill-rule:nonzero;stroke:none;stroke-width:0.35888237;marker:none;visibility:visible;display:inline;overflow:visible;enable-background:accumulate"
         transform="matrix(2.4682927,0,0,2.4682927,-59.68493,-1273.7633)"
         id="g3726">
        <path
           style="font-size:71.4943924px;font-style:normal;font-variant:normal;font-weight:bold;font-stretch:normal;text-align:start;line-height:125%;writing-mode:lr-tb;text-anchor:start;color:#000000;fill:#000000;fill-opacity:1;fill-rule:nonzero;stroke:none;stroke-width:0.35888237;marker:none;visibility:visible;display:inline;overflow:visible;enable-background:accumulate;font-family:TXB_Std;-inkscape-font-specification:TXB_Std Bold"
           d="m 139.59468,609.983 -14.87083,0 0,48.61618 -3.36024,0 0,-48.61618 -14.79934,0 0,-2.85978 33.03041,0 0,2.85978"
           id="path2706"
           inkscape:connector-curvature="0" />
        <path
           style="font-size:71.4943924px;font-style:normal;font-variant:normal;font-weight:bold;font-stretch:normal;text-align:start;line-height:125%;writing-mode:lr-tb;text-anchor:start;color:#000000;fill:#000000;fill-opacity:1;fill-rule:nonzero;stroke:none;stroke-width:0.35888237;marker:none;visibility:visible;display:inline;overflow:visible;enable-background:accumulate;font-family:TXB_Std;-inkscape-font-specification:TXB_Std Bold"
           d="m 206.46063,606.33678 0,38.96445 c -0.0954,4.14668 -1.38226,7.43542 -3.8607,9.86622 -3.00279,2.43081 -6.1962,3.59855 -9.58025,3.50323 -3.6224,0.0953 -6.86347,-1.09625 -9.72323,-3.57472 -2.47848,-2.38314 -3.76538,-5.62422 -3.8607,-9.72324 l 0,-39.03594 3.36024,0 0,37.53456 c -2e-5,7.57841 3.40788,11.39144 10.22369,11.4391 6.72045,-0.0477 10.08068,-3.86069 10.08071,-11.4391 l 0,-37.53456 3.36024,0"
           id="path2704"
           inkscape:connector-curvature="0" />
        <path
           style="font-size:71.4943924px;font-style:normal;font-variant:normal;font-weight:bold;font-stretch:normal;text-align:start;line-height:125%;writing-mode:lr-tb;text-anchor:start;color:#000000;fill:#000000;fill-opacity:1;fill-rule:nonzero;stroke:none;stroke-width:0.35888237;marker:none;visibility:visible;display:inline;overflow:visible;enable-background:accumulate;font-family:TXB_Std;-inkscape-font-specification:TXB_Std Bold"
           d="m 253.16516,607.12322 9.65174,22.23476 9.65175,-22.23476 4.00368,0 -11.93956,25.5235 12.29703,25.95246 -4.00368,0 -10.08071,-22.80671 -9.93772,22.80671 -4.00369,0 12.44003,-26.02396 -12.08256,-25.452 4.00369,0"
           id="text2683"
           inkscape:connector-curvature="0" />
      </g>
      <g
         style="color:#000000;fill:#000000;fill-opacity:1;fill-rule:nonzero;stroke:none;stroke-width:0.35888237;marker:none;visibility:visible;display:inline;overflow:visible;enable-background:accumulate"
         transform="matrix(2.4682927,0,0,2.4682927,-64.59313,-1273.7633)"
         id="g3731">
        <path
           id="path2729"
           style="font-size:44.41825104px;font-style:normal;font-variant:normal;font-weight:bold;font-stretch:normal;text-align:start;line-height:125%;writing-mode:lr-tb;text-anchor:start;color:#000000;fill:#000000;fill-opacity:1;fill-rule:nonzero;stroke:none;stroke-width:0.35888237;marker:none;visibility:visible;display:inline;overflow:visible;enable-background:accumulate;font-family:TXB_Std;-inkscape-font-specification:TXB_Std Bold"
           d="m 110.40658,696.62714 c 1.53982,0 2.91678,-0.51821 4.1309,-1.55464 1.42136,-1.21409 2.13206,-2.88718 2.13208,-5.01926 -2e-5,-2.04323 -0.65149,-3.76073 -1.95441,-5.15252 -1.39179,-1.5102 -3.22774,-2.26531 -5.50786,-2.26533 l -5.50786,0 0,13.99175 6.70715,0 m -8.79481,1.77673 0,-31.98114 7.81761,0 c 2.36896,3e-5 4.26414,0.69592 5.68554,2.08766 1.48058,1.42141 2.22089,3.33139 2.22091,5.72995 -2e-5,3.31658 -1.70272,5.72997 -5.1081,7.24018 4.35297,1.27333 6.52946,4.10129 6.52948,8.48388 -2e-5,2.36898 -0.6959,4.35299 -2.08765,5.95205 -1.48063,1.65828 -3.44984,2.48742 -5.90763,2.48742 l -9.15016,0 m 5.33019,-17.54521 c 5.53746,2e-5 8.30619,-2.2505 8.30621,-6.75157 -2e-5,-1.86554 -0.45901,-3.27212 -1.37696,-4.21974 -1.12528,-1.12523 -2.93162,-1.68786 -5.41903,-1.68789 l -4.75275,0 0,12.6592 3.24253,0"
           inkscape:connector-curvature="0" />
        <path
           id="path2723"
           style="font-size:44.41825104px;font-style:normal;font-variant:normal;font-weight:bold;font-stretch:normal;text-align:start;line-height:125%;writing-mode:lr-tb;text-anchor:start;color:#000000;fill:#000000;fill-opacity:1;fill-rule:nonzero;stroke:none;stroke-width:0.35888237;marker:none;visibility:visible;display:inline;overflow:visible;enable-background:accumulate;font-family:TXB_Std;-inkscape-font-specification:TXB_Std Bold"
           d="m 142.80705,666.42273 7.59552,0 c 2.63546,3e-5 4.72312,0.81436 6.26297,2.443 1.48059,1.59909 2.22089,3.71636 2.22091,6.35181 -2e-5,4.61952 -2.05806,7.58073 -6.17414,8.88365 l 8.61715,14.30268 -2.62068,0 -7.95087,-13.81408 -5.86321,0 0,13.81408 -2.08765,0 0,-31.98114 m 2.08765,16.39033 5.19694,0 c 1.65826,2e-5 3.10926,-0.59222 4.35299,-1.77673 1.48059,-1.45097 2.22089,-3.44979 2.22091,-5.99646 -2e-5,-2.0136 -0.48862,-3.62746 -1.4658,-4.84159 -1.06606,-1.33252 -2.66511,-1.99879 -4.79717,-1.99882 l -5.50787,0 0,14.6136"
           inkscape:connector-curvature="0" />
        <path
           id="path2719"
           style="font-size:44.41825104px;font-style:normal;font-variant:normal;font-weight:bold;font-stretch:normal;text-align:start;line-height:125%;writing-mode:lr-tb;text-anchor:start;color:#000000;fill:#000000;fill-opacity:1;fill-rule:nonzero;stroke:none;stroke-width:0.35888237;marker:none;visibility:visible;display:inline;overflow:visible;enable-background:accumulate;font-family:TXB_Std;-inkscape-font-specification:TXB_Std Bold"
           d="m 187.64464,684.72305 0,13.68082 -2.08766,0 0,-24.20795 c 0.0592,-2.57623 0.85875,-4.61947 2.39859,-6.12972 1.86556,-1.51018 3.84957,-2.23568 5.95205,-2.17649 2.25051,-0.0592 4.26413,0.68111 6.04088,2.22091 1.53981,1.48064 2.33934,3.49426 2.39858,6.04088 l 0,24.25237 -2.08765,0 0,-13.68082 -12.61479,0 m 12.61479,-1.90999 0,-7.72877 c -2e-5,-4.70831 -2.11729,-7.07728 -6.35181,-7.10692 -4.17533,0.0296 -6.26298,2.39861 -6.26298,7.10692 l 0,7.72877 12.61479,0"
           inkscape:connector-curvature="0" />
        <path
           style="font-size:44.41825104px;font-style:normal;font-variant:normal;font-weight:bold;font-stretch:normal;text-align:start;line-height:125%;writing-mode:lr-tb;text-anchor:start;color:#000000;fill:#000000;fill-opacity:1;fill-rule:nonzero;stroke:none;stroke-width:0.35888237;marker:none;visibility:visible;display:inline;overflow:visible;enable-background:accumulate;font-family:TXB_Std;-inkscape-font-specification:TXB_Std Bold"
           d="m 241.32146,668.19946 -4.44183,0 0,28.42768 4.44183,0 0,1.77673 -10.97131,0 0,-1.77673 4.44182,0 0,-28.42768 -4.44182,0 0,-1.77673 10.97131,0 0,1.77673"
           id="path2715"
           inkscape:connector-curvature="0" />
        <path
           style="font-size:44.41825104px;font-style:normal;font-variant:normal;font-weight:bold;font-stretch:normal;text-align:start;line-height:125%;writing-mode:lr-tb;text-anchor:start;color:#000000;fill:#000000;fill-opacity:1;fill-rule:nonzero;stroke:none;stroke-width:0.35888237;marker:none;visibility:visible;display:inline;overflow:visible;enable-background:accumulate;font-family:TXB_Std;-inkscape-font-specification:TXB_Std Bold"
           d="m 271.85639,669.93177 -0.0888,0.0888 0,28.38326 -2.08766,0 0,-31.98114 3.02044,0 10.88248,26.82862 0.0888,-0.0888 0,-26.73979 2.08766,0 0,32.29207 -2.17649,0 -11.72642,-28.78303"
           id="text2708"
           inkscape:connector-curvature="0" />
      </g>
      <path
         id="path3669"
         d="m 729.34136,211.11956 c -10.12017,0.004 -20.23753,3.87813 -27.95413,11.59476 -15.43317,15.43315 -15.43315,40.45156 0,55.88476 14.19281,14.19281 36.5118,15.33822 52.01204,3.42678 l 40.74591,40.74591 0,57.6216 c -19.38304,2.53765 -34.36177,19.1251 -34.36177,39.19679 0,21.82582 17.72308,39.52541 39.54891,39.52541 21.82583,0 39.52536,-17.69961 39.52536,-39.52541 5e-5,-20.07167 -14.97871,-36.65914 -34.36174,-39.19679 l 0,-57.6216 40.74591,-40.74591 c 15.50028,11.91144 37.8192,10.76603 52.01203,-3.42678 15.43315,-15.4332 15.4097,-40.47506 -0.0235,-55.90829 -15.43318,-15.43314 -40.45162,-15.43314 -55.88477,0 -14.1928,14.19284 -15.33824,36.5118 -3.42678,52.01207 l -38.61002,38.61002 -38.58655,-38.61002 c 11.91147,-15.50027 10.76605,-37.81923 -3.42675,-52.01207 -7.7166,-7.71655 -17.83396,-11.5754 -27.95416,-11.57123 z m 0,10.53853 c 7.42315,-0.004 14.85495,2.83772 20.51381,8.49655 11.31759,11.31769 11.31764,29.70988 0,41.02754 -11.31769,11.31767 -29.68643,11.29422 -41.00409,-0.0235 -11.31767,-11.31767 -11.31769,-29.68641 0,-41.00407 5.65883,-5.65883 13.06716,-8.49241 20.49028,-8.49655 z m 139.93492,0 c 7.41897,0 14.8549,2.83772 20.51378,8.49655 11.31767,11.31769 11.31767,29.68643 0,41.00407 -11.31766,11.31764 -29.70987,11.31769 -41.02756,0 -11.31767,-11.31767 -11.29419,-29.68638 0.0235,-41.00407 5.65886,-5.65883 13.07134,-8.49655 20.49031,-8.49655 z"
         style="fill:#000000;fill-opacity:1;fill-rule:nonzero;stroke:none;stroke-width:0.88582677;marker:none;visibility:visible;display:inline;overflow:visible;enable-background:accumulate"
         inkscape:connector-curvature="0" />
    </g>
  </g>
</svg>
